<svg width="36" height="36" viewBox="0 0 36 36" fill="none" xmlns="http://www.w3.org/2000/svg">
<path d="M35.1865 30.2655H0.814431C0.666002 30.2655 0.545898 30.1454 0.545898 29.997V0.995584C0.545898 0.847154 0.666002 0.727051 0.814431 0.727051H35.1865C35.3349 0.727051 35.455 0.847154 35.455 0.995584V29.997C35.455 30.1454 35.3349 30.2655 35.1865 30.2655ZM1.08296 29.7285H34.9179V1.26411H1.08296V29.7285Z" fill="#7E5332"/>
<path d="M35.1865 30.2655H0.814431C0.666002 30.2655 0.545898 30.1454 0.545898 29.997V0.995584C0.545898 0.847154 0.666002 0.727051 0.814431 0.727051H35.1865C35.3349 0.727051 35.455 0.847154 35.455 0.995584V29.997C35.455 30.1454 35.3349 30.2655 35.1865 30.2655ZM1.08296 29.7285H34.9179V1.26411H1.08296V29.7285Z" fill="#7E5332"/>
<path d="M29.1359 1.01367H28.5986V29.9964H29.1359V1.01367Z" fill="#7E5332"/>
<path d="M22.0227 1.01416H21.4855V29.9969H22.0227V1.01416Z" fill="#7E5332"/>
<path d="M14.9106 1.01416H14.3733V29.9969H14.9106V1.01416Z" fill="#7E5332"/>
<path d="M7.79801 1.01367H7.26074V29.9964H7.79801V1.01367Z" fill="#7E5332"/>
<path d="M25.6472 2.13045L24.4243 1.41699L5.89355 19.9477L7.0761 20.9672L25.6472 2.13045Z" fill="#A67650"/>
<path d="M15.4467 8.86791V8.68878C15.4467 8.68878 16.2956 8.41959 16.1469 8.05124C15.9981 7.68289 15.8055 7.05599 15.8055 7.05599C15.8055 7.05599 15.9379 6.79389 15.7183 6.70889C15.4987 6.62388 15.2402 6.52117 15.2047 6.47867C15.1693 6.43616 13.0215 7.60668 12.8175 8.33459C12.7279 8.65472 13.2677 9.58589 13.2677 9.58589L15.1127 9.82217L15.4467 8.86791Z" fill="#F7AA8F"/>
<path d="M19.4494 34.1541H18.9621L15.8256 22.1543L13.0494 34.1541H12.5621C12.5621 34.1541 12.3191 20.1789 12.7647 18.8027C13.0857 17.8111 16.7435 17.5807 16.7746 17.6584C16.806 17.7361 18.6204 17.7644 18.95 18.2188C19.83 19.432 19.4494 34.1541 19.4494 34.1541Z" fill="#273240"/>
<path d="M20.4041 34.8474C20.3294 35.1457 19.8392 35.0533 19.8392 35.0533C19.8392 35.0533 19.8117 35.0847 19.7586 35.1605C19.7053 35.2365 19.084 35.3531 18.93 35.1919C18.7906 35.046 18.9626 34.1538 18.9626 34.1538H19.4499C19.4499 34.1538 19.7313 34.3109 19.9707 34.3074C20.2101 34.304 20.4786 34.549 20.4041 34.8474ZM11.6084 34.8474C11.6831 35.1457 12.1732 35.0533 12.1732 35.0533C12.1732 35.0533 12.2007 35.0847 12.2539 35.1605C12.3072 35.2365 12.9285 35.3531 13.0824 35.1919C13.2218 35.046 13.0499 34.1538 13.0499 34.1538H12.5626C12.5626 34.1538 12.2811 34.3109 12.0418 34.3074C11.8024 34.304 11.5338 34.549 11.6084 34.8474Z" fill="#9D683E"/>
<path d="M21.3399 12.28C20.8672 12.7956 18.5686 11.9577 18.5686 11.9577C18.6331 12.5754 19.5729 18.6173 19.3044 18.8751C18.1819 19.9439 12.7092 19.9385 12.618 19.627C12.3226 18.6173 13.0476 15.8837 12.7576 14.8686C12.532 14.0952 11.3827 12.2424 11.4794 11.904C11.6298 11.3777 12.9402 10.2553 12.9402 10.2553L13.0637 9.65375L15.4483 8.86963L15.9692 9.40669C15.9692 9.40669 17.9617 9.41744 18.5955 9.60003C18.9607 9.70745 19.9435 10.3197 19.9435 10.3197L20.0133 9.41207C20.0133 9.38523 20.0348 9.35835 20.0616 9.35301L20.9747 9.18114C21.0069 9.17577 21.0337 9.19186 21.0445 9.22409C21.1573 9.58927 21.791 11.7859 21.3399 12.28Z" fill="#597ABC"/>
<path d="M21.0012 9.17571L20.074 9.35295L20.26 7.87065C20.26 7.87065 19.9109 7.31208 20.1633 6.96301C20.4104 6.61391 20.4588 6.32928 20.55 6.34538C20.6413 6.36151 20.6145 7.11875 20.6145 7.11875C20.6145 7.11875 20.9797 6.79653 21.0065 6.87169C21.1301 7.23155 20.7219 7.56452 20.6628 7.80084C20.5661 8.19288 21.0012 9.17571 21.0012 9.17571ZM10.8287 15.8489C11.1047 16.2034 10.2386 16.8777 9.96259 16.5232C9.6831 16.1643 9.64898 15.7223 9.88679 15.5372C10.1291 15.3485 10.5492 15.49 10.8287 15.8489Z" fill="#F8B29A"/>
<path d="M11.4785 11.9056C10.9933 12.0494 10.5849 15.5385 10.5849 15.5385C10.5849 15.5385 10.0627 16.2256 10.0826 16.4705C10.1187 16.9164 10.7117 17.7448 11.574 17.5483C12.4351 17.352 12.8236 15.1009 12.8644 14.2186C12.8955 13.5452 12.1248 11.7139 11.4785 11.9056Z" fill="#4A6DB4"/>
<path d="M13.1612 9.39002C13.1612 9.39002 14.4294 9.28365 14.4507 8.82675C14.4719 8.36985 14.5711 7.75357 14.8474 7.79961C15.1236 7.84566 15.1697 8.00504 15.1697 8.00504L15.2848 7.88994L15.198 7.55877C15.198 7.55877 15.244 7.05937 15.1378 6.99562C15.0315 6.93187 14.6774 6.99562 14.6774 6.99562L13.7465 7.66503L12.5381 8.5257C12.5381 8.52569 12.9201 9.38306 13.1612 9.39002Z" fill="#273240"/>
<path d="M14.3216 7.84335C13.2242 8.66476 12.1861 8.55126 12.0078 8.4542C11.9823 8.44012 11.9465 8.38118 11.9084 8.28734C11.6802 7.72604 11.3673 5.92134 12.6456 5.09701C14.1377 4.13483 15.1485 5.75654 15.1485 5.75654C16.6761 5.71109 15.4189 7.02165 14.3216 7.84335Z" fill="#F15B57"/>
<path d="M14.3497 7.84382C13.2524 8.66523 12.2142 8.55174 12.0359 8.45468C12.0104 8.4406 11.9747 8.38166 11.9365 8.28781C11.9365 8.28781 12.592 8.50306 14.204 7.59953C15.8849 6.65731 15.1767 5.75701 15.1767 5.75701C16.7043 5.71156 15.4471 7.02212 14.3497 7.84382Z" fill="#F04843"/>
</svg>
