<svg width="40" height="40" viewBox="0 0 40 40" fill="none" xmlns="http://www.w3.org/2000/svg">
<g clip-path="url(#clip0_21_1065)">
<path d="M34.0774 17.7559H6.74402V20.9225H34.0774V17.7559Z" fill="#343A43"/>
<path d="M32.2329 12.7225V32.967H8.72174V12.7559L10.4995 10.967L12.6551 8.66699H28.1995L30.1551 10.6337L32.2329 12.7225Z" fill="#474D5B"/>
<path d="M31.2778 13.3892V31.967H9.67773V13.4225L11.3222 11.767L13.3 9.66699H27.5666L29.3666 11.467L31.2778 13.3892Z" fill="#333A44"/>
<path d="M25.2658 22.2333C26.8613 22.2333 28.1547 20.9399 28.1547 19.3445C28.1547 17.749 26.8613 16.4556 25.2658 16.4556C23.6704 16.4556 22.377 17.749 22.377 19.3445C22.377 20.9399 23.6704 22.2333 25.2658 22.2333Z" fill="#464C58"/>
<path d="M15.7444 22.2333C17.3398 22.2333 18.6332 20.9399 18.6332 19.3445C18.6332 17.749 17.3398 16.4556 15.7444 16.4556C14.1489 16.4556 12.8555 17.749 12.8555 19.3445C12.8555 20.9399 14.1489 22.2333 15.7444 22.2333Z" fill="#464C58"/>
<path d="M20.4992 16.7221C22.0947 16.7221 23.3881 15.4287 23.3881 13.8332C23.3881 12.2377 22.0947 10.9443 20.4992 10.9443C18.9037 10.9443 17.6104 12.2377 17.6104 13.8332C17.6104 15.4287 18.9037 16.7221 20.4992 16.7221Z" fill="#464C58"/>
<path d="M34.8666 32.9666H6.08887V25.0444C6.08887 24.3888 6.6222 23.8555 7.27776 23.8555H33.6888C34.3444 23.8555 34.8777 24.3888 34.8777 25.0444V32.9666H34.8666Z" fill="#FD4800"/>
<path d="M37.0551 32.8999H3.86621V34.3999H37.0551V32.8999Z" fill="#474E5A"/>
<path d="M32.0556 29.0667V31.6334H24.2445V29.0667H32.0556ZM32.3889 28.7334H23.9111V31.9667H32.3889V28.7334Z" fill="#EC2A00"/>
<path d="M7.68842 26.2559V30.7003" stroke="#EB2701" stroke-width="5" stroke-miterlimit="10" stroke-linecap="round"/>
<path d="M9.13287 26.2559V30.7003" stroke="#EB2701" stroke-width="5" stroke-miterlimit="10" stroke-linecap="round"/>
<path d="M10.5773 26.2559V30.7003" stroke="#EB2701" stroke-width="5" stroke-miterlimit="10" stroke-linecap="round"/>
<path d="M12.0215 26.2559V30.7003" stroke="#EB2701" stroke-width="5" stroke-miterlimit="10" stroke-linecap="round"/>
<path d="M13.4658 26.2559V30.7003" stroke="#EB2701" stroke-width="5" stroke-miterlimit="10" stroke-linecap="round"/>
<path d="M20.4996 15.7556C21.5612 15.7556 22.4218 14.895 22.4218 13.8334C22.4218 12.7717 21.5612 11.9111 20.4996 11.9111C19.4379 11.9111 18.5773 12.7717 18.5773 13.8334C18.5773 14.895 19.4379 15.7556 20.4996 15.7556Z" fill="#E0DBD5"/>
<path d="M15.7435 21.2668C16.8051 21.2668 17.6657 20.4062 17.6657 19.3446C17.6657 18.283 16.8051 17.4224 15.7435 17.4224C14.6819 17.4224 13.8213 18.283 13.8213 19.3446C13.8213 20.4062 14.6819 21.2668 15.7435 21.2668Z" fill="#E0DBD5"/>
<path d="M13.3881 14.1777C14.1429 14.1777 14.7548 13.5658 14.7548 12.811C14.7548 12.0562 14.1429 11.4443 13.3881 11.4443C12.6334 11.4443 12.0215 12.0562 12.0215 12.811C12.0215 13.5658 12.6334 14.1777 13.3881 14.1777Z" fill="#474E59"/>
<path d="M27.7662 14.1777C28.521 14.1777 29.1329 13.5658 29.1329 12.811C29.1329 12.0562 28.521 11.4443 27.7662 11.4443C27.0114 11.4443 26.3995 12.0562 26.3995 12.811C26.3995 13.5658 27.0114 14.1777 27.7662 14.1777Z" fill="#474D59"/>
<path d="M25.2662 21.2668C26.3278 21.2668 27.1885 20.4062 27.1885 19.3446C27.1885 18.283 26.3278 17.4224 25.2662 17.4224C24.2046 17.4224 23.344 18.283 23.344 19.3446C23.344 20.4062 24.2046 21.2668 25.2662 21.2668Z" fill="#E0DBD5"/>
<path d="M9.75513 6.88899L11.6773 5.6001L17.2885 13.6557C17.2885 13.6557 18.4996 15.8668 19.6662 16.2223C19.6662 16.2223 21.0551 17.0001 22.5662 15.289L25.7218 10.6668L29.2329 5.6001L31.1662 6.92232L25.7329 14.9668C25.7329 14.9668 24.2885 17.5223 23.0885 18.0557C23.0885 18.0557 21.244 19.3557 19.1329 18.6446C19.1329 18.6446 17.4885 18.2001 16.6329 17.0001L14.144 13.3779L9.75513 6.88899Z" fill="#E0DBD5"/>
<path d="M28.4888 8.07812L25.2666 12.6781" stroke="#F9F9F9" stroke-width="3" stroke-miterlimit="10" stroke-linecap="round"/>
</g>
<defs>
<clipPath id="clip0_21_1065">
<rect width="40" height="40" fill="white"/>
</clipPath>
</defs>
</svg>
