<svg width="62" height="48" viewBox="0 0 62 48" fill="none" xmlns="http://www.w3.org/2000/svg">
<path d="M53.5234 1.03516H8.47656C4.52891 1.03516 1.33203 4.62316 1.33203 9.05762V10.7662H60.668V9.05762C60.668 4.62316 57.4711 1.03516 53.5234 1.03516ZM9.92969 8.33348C9.53084 8.33228 9.14129 8.21288 8.81027 7.99037C8.47925 7.76786 8.22162 7.45222 8.06993 7.08334C7.91823 6.71446 7.87928 6.30889 7.95801 5.91789C8.03673 5.52688 8.22959 5.16798 8.51221 4.88654C8.79483 4.6051 9.15454 4.41375 9.54587 4.33667C9.93721 4.25959 10.3426 4.30024 10.7108 4.45348C11.0791 4.60673 11.3936 4.86568 11.6148 5.19763C11.8359 5.52958 11.9536 5.91962 11.9532 6.31848C11.9525 6.85311 11.7397 7.36563 11.3614 7.74344C10.9831 8.12126 10.4704 8.33348 9.93574 8.33348H9.92969ZM15.8633 8.33348C15.4644 8.33228 15.0749 8.21288 14.7439 7.99037C14.4128 7.76786 14.1552 7.45222 14.0035 7.08334C13.8518 6.71446 13.8129 6.30889 13.8916 5.91789C13.9703 5.52688 14.1632 5.16798 14.4458 4.88654C14.7284 4.6051 15.0881 4.41375 15.4795 4.33667C15.8708 4.25959 16.2762 4.30024 16.6444 4.45348C17.0127 4.60673 17.3272 4.86568 17.5484 5.19763C17.7695 5.52958 17.8872 5.91962 17.8868 6.31848C17.8861 6.85311 17.6733 7.36563 17.295 7.74344C16.9167 8.12126 16.404 8.33348 15.8693 8.33348H15.8633ZM21.7969 8.33348C21.398 8.33228 21.0085 8.21288 20.6775 7.99037C20.3464 7.76786 20.0888 7.45222 19.9371 7.08334C19.7854 6.71446 19.7465 6.30889 19.8252 5.91789C19.9039 5.52688 20.0968 5.16798 20.3794 4.88654C20.662 4.6051 21.0217 4.41375 21.4131 4.33667C21.8044 4.25959 22.2098 4.30024 22.578 4.45348C22.9463 4.60673 23.2608 4.86568 23.4819 5.19763C23.7031 5.52958 23.8208 5.91962 23.8204 6.31848C23.8197 6.85311 23.6069 7.36563 23.2286 7.74344C22.8503 8.12126 22.3376 8.33348 21.8029 8.33348H21.7969ZM54.0817 6.31848C54.0817 6.54445 54.0372 6.76821 53.9507 6.97698C53.8642 7.18575 53.7375 7.37544 53.5777 7.53523C53.4179 7.69501 53.2282 7.82176 53.0194 7.90824C52.8107 7.99471 52.5869 8.03922 52.3609 8.03922H32.068C31.6117 8.03922 31.174 7.85793 30.8513 7.53523C30.5286 7.21252 30.3473 6.77485 30.3473 6.31848C30.3473 5.86211 30.5286 5.42443 30.8513 5.10173C31.174 4.77903 31.6117 4.59773 32.068 4.59773H52.3609C52.5869 4.59773 52.8107 4.64224 53.0194 4.72872C53.2282 4.81519 53.4179 4.94194 53.5777 5.10173C53.7375 5.26151 53.8642 5.45121 53.9507 5.65998C54.0372 5.86875 54.0817 6.09251 54.0817 6.31848Z" fill="#0FAF7F"/>
<path d="M53.5234 47.6871H8.47656C7.44292 47.6871 6.41939 47.4835 5.46443 47.088C4.50946 46.6924 3.64176 46.1126 2.91086 45.3817C1.43474 43.9056 0.605469 41.9036 0.605469 39.816V22.1157C0.605469 21.923 0.682017 21.7382 0.818274 21.602C0.954531 21.4657 1.13933 21.3892 1.33203 21.3892C1.52473 21.3892 1.70953 21.4657 1.84579 21.602C1.98205 21.7382 2.05859 21.923 2.05859 22.1157V39.8196C2.05859 40.6625 2.2246 41.497 2.54713 42.2757C2.86967 43.0544 3.34241 43.7619 3.93837 44.3578C4.53434 44.9538 5.24185 45.4265 6.02051 45.7491C6.79918 46.0716 7.63374 46.2376 8.47656 46.2376H53.5234C54.3663 46.2376 55.2008 46.0716 55.9795 45.7491C56.7582 45.4265 57.4657 44.9538 58.0616 44.3578C58.6576 43.7619 59.1303 43.0544 59.4529 42.2757C59.7754 41.497 59.9414 40.6625 59.9414 39.8196V11.4922H2.05859V16.4486C2.05859 16.6413 1.98205 16.8261 1.84579 16.9623C1.70953 17.0986 1.52473 17.1751 1.33203 17.1751C1.13933 17.1751 0.954531 17.0986 0.818274 16.9623C0.682017 16.8261 0.605469 16.6413 0.605469 16.4486V10.7656C0.605469 10.5729 0.682017 10.3881 0.818274 10.2519C0.954531 10.1156 1.13933 10.0391 1.33203 10.0391H60.668C60.8607 10.0391 61.0455 10.1156 61.1817 10.2519C61.318 10.3881 61.3945 10.5729 61.3945 10.7656V39.8196C61.392 41.9061 60.5618 43.9062 59.0861 45.3812C57.6104 46.8562 55.6099 47.6855 53.5234 47.6871Z" fill="black"/>
<path d="M1.33203 20.5543C1.13933 20.5543 0.954531 20.4777 0.818274 20.3415C0.682017 20.2052 0.605469 20.0204 0.605469 19.8277V18.7379C0.605469 18.5452 0.682017 18.3604 0.818274 18.2241C0.954531 18.0878 1.13933 18.0113 1.33203 18.0113C1.52473 18.0113 1.70953 18.0878 1.84579 18.2241C1.98205 18.3604 2.05859 18.5452 2.05859 18.7379V19.8277C2.05859 20.0204 1.98205 20.2052 1.84579 20.3415C1.70953 20.4777 1.52473 20.5543 1.33203 20.5543ZM60.668 11.4928H1.33203C1.13933 11.4928 0.954531 11.4163 0.818274 11.28C0.682017 11.1438 0.605469 10.9589 0.605469 10.7662V9.05762C0.605469 4.23324 4.13535 0.308594 8.47656 0.308594H53.5234C57.8622 0.308594 61.3945 4.23324 61.3945 9.05762V10.7662C61.3945 10.9589 61.318 11.1438 61.1817 11.28C61.0455 11.4163 60.8607 11.4928 60.668 11.4928ZM2.05859 10.0397H59.9414V9.05762C59.9414 5.03488 57.063 1.76172 53.5234 1.76172H8.47656C4.93941 1.76172 2.05859 5.03125 2.05859 9.05762V10.0397Z" fill="black"/>
<path d="M9.93574 9.05828C9.39293 9.05828 8.86231 8.89729 8.41101 8.59567C7.95972 8.29405 7.60801 7.86535 7.4004 7.36382C7.19279 6.86228 7.13859 6.31043 7.24466 5.77808C7.35074 5.24574 7.61231 4.75681 7.99631 4.37315C8.38031 3.9895 8.86946 3.72835 9.4019 3.62274C9.93434 3.51714 10.4861 3.57183 10.9875 3.77988C11.4889 3.98794 11.9172 4.34002 12.2185 4.79158C12.5197 5.24315 12.6802 5.77391 12.6797 6.31672C12.6781 7.04376 12.3884 7.74052 11.8741 8.25438C11.3598 8.76825 10.6628 9.05732 9.93574 9.05828ZM9.93574 5.02344C9.68054 5.02344 9.43106 5.09909 9.21883 5.24082C9.0066 5.38256 8.84115 5.58402 8.74338 5.81975C8.6456 6.05548 8.6199 6.31491 8.66951 6.56524C8.71912 6.81558 8.84183 7.04559 9.02211 7.22622C9.2024 7.40684 9.43218 7.52998 9.68243 7.58006C9.93267 7.63014 10.1921 7.60492 10.4281 7.50759C10.664 7.41026 10.8657 7.24518 11.0079 7.03322C11.15 6.82126 11.2261 6.57192 11.2266 6.31672C11.2268 6.14704 11.1935 5.979 11.1287 5.82217C11.0639 5.66535 10.9689 5.52283 10.849 5.40273C10.7292 5.28264 10.5868 5.18733 10.4301 5.12226C10.2734 5.05718 10.1054 5.0236 9.93574 5.02344ZM15.8693 9.05828C15.3265 9.05828 14.7959 8.89729 14.3446 8.59567C13.8933 8.29405 13.5416 7.86535 13.334 7.36382C13.1264 6.86228 13.0722 6.31043 13.1783 5.77808C13.2843 5.24574 13.5459 4.75681 13.9299 4.37315C14.3139 3.9895 14.8031 3.72835 15.3355 3.62274C15.8679 3.51714 16.4197 3.57183 16.9211 3.77988C17.4224 3.98794 17.8508 4.34002 18.1521 4.79158C18.4533 5.24315 18.6138 5.77391 18.6133 6.31672C18.6117 7.04376 18.322 7.74052 17.8077 8.25438C17.2934 8.76825 16.5964 9.05732 15.8693 9.05828ZM15.8693 5.02344C15.6141 5.02344 15.3647 5.09909 15.1524 5.24082C14.9402 5.38256 14.7747 5.58402 14.677 5.81975C14.5792 6.05548 14.5535 6.31491 14.6031 6.56524C14.6527 6.81558 14.7754 7.04559 14.9557 7.22622C15.136 7.40684 15.3658 7.52998 15.616 7.58006C15.8663 7.63014 16.1257 7.60492 16.3617 7.50759C16.5976 7.41026 16.7993 7.24518 16.9415 7.03322C17.0836 6.82126 17.1597 6.57192 17.1602 6.31672C17.1604 6.14704 17.1271 5.979 17.0623 5.82217C16.9975 5.66535 16.9025 5.52283 16.7826 5.40273C16.6627 5.28264 16.5204 5.18733 16.3637 5.12226C16.207 5.05718 16.039 5.0236 15.8693 5.02344ZM21.8029 9.05828C21.2601 9.05828 20.7295 8.89729 20.2782 8.59567C19.8269 8.29405 19.4752 7.86535 19.2676 7.36382C19.06 6.86228 19.0058 6.31043 19.1118 5.77808C19.2179 5.24574 19.4795 4.75681 19.8635 4.37315C20.2475 3.9895 20.7367 3.72835 21.2691 3.62274C21.8015 3.51714 22.3533 3.57183 22.8547 3.77988C23.356 3.98794 23.7844 4.34002 24.0856 4.79158C24.3869 5.24315 24.5474 5.77391 24.5469 6.31672C24.5453 7.04376 24.2556 7.74052 23.7413 8.25438C23.227 8.76825 22.53 9.05732 21.8029 9.05828ZM21.8029 5.02344C21.5477 5.02344 21.2982 5.09909 21.086 5.24082C20.8738 5.38256 20.7083 5.58402 20.6106 5.81975C20.5128 6.05548 20.4871 6.31491 20.5367 6.56524C20.5863 6.81558 20.709 7.04559 20.8893 7.22622C21.0696 7.40684 21.2994 7.52998 21.5496 7.58006C21.7999 7.63014 22.0593 7.60492 22.2952 7.50759C22.5312 7.41026 22.7329 7.24518 22.8751 7.03322C23.0172 6.82126 23.0933 6.57192 23.0938 6.31672C23.0939 6.14704 23.0607 5.979 22.9959 5.82217C22.9311 5.66535 22.8361 5.52283 22.7162 5.40273C22.5963 5.28264 22.454 5.18733 22.2973 5.12226C22.1406 5.05718 21.9726 5.0236 21.8029 5.02344ZM52.3609 8.7616H32.068C31.419 8.7616 30.7965 8.50376 30.3375 8.0448C29.8786 7.58585 29.6207 6.96336 29.6207 6.3143C29.6207 5.66523 29.8786 5.04275 30.3375 4.58379C30.7965 4.12483 31.419 3.86699 32.068 3.86699H52.3609C53.01 3.86699 53.6325 4.12483 54.0914 4.58379C54.5504 5.04275 54.8082 5.66523 54.8082 6.3143C54.8082 6.96336 54.5504 7.58585 54.0914 8.0448C53.6325 8.50376 53.01 8.7616 52.3609 8.7616ZM32.068 5.32012C31.8044 5.32012 31.5515 5.42486 31.3651 5.61131C31.1786 5.79775 31.0739 6.05063 31.0739 6.3143C31.0739 6.57797 31.1786 6.83084 31.3651 7.01729C31.5515 7.20373 31.8044 7.30848 32.068 7.30848H52.3609C52.6246 7.30848 52.8775 7.20373 53.0639 7.01729C53.2504 6.83084 53.3551 6.57797 53.3551 6.3143C53.3551 6.05063 53.2504 5.79775 53.0639 5.61131C52.8775 5.42486 52.6246 5.32012 52.3609 5.32012H32.068ZM11.3186 28.2589C11.6685 27.9069 11.9062 27.4592 12.0017 26.9722C12.0973 26.4852 12.0465 25.9809 11.8556 25.5227C11.6648 25.0646 11.3425 24.6733 10.9295 24.3982C10.5165 24.1231 10.0312 23.9766 9.53492 23.977H7.38672C7.01716 23.9777 6.66296 24.1249 6.40187 24.3865C6.14078 24.648 5.99414 25.0025 5.99414 25.372V32.3519C5.99414 32.7215 6.14074 33.0761 6.4018 33.3379C6.66285 33.5996 7.01705 33.7471 7.38672 33.7481H9.34965C9.98787 33.7482 10.6105 33.5511 11.1325 33.1839C11.6545 32.8166 12.0503 32.2971 12.2657 31.6964C12.4812 31.0956 12.5059 30.443 12.3364 29.8277C12.1668 29.2124 11.8114 28.6645 11.3186 28.2589ZM7.44363 25.4302H9.53492C9.67716 25.4253 9.81891 25.4492 9.95174 25.5003C10.0846 25.5514 10.2057 25.6288 10.3081 25.7277C10.4104 25.8266 10.4918 25.9451 10.5473 26.0761C10.6029 26.2071 10.6315 26.348 10.6315 26.4903C10.6315 26.6327 10.6029 26.7735 10.5473 26.9045C10.4918 27.0356 10.4104 27.1541 10.3081 27.253C10.2057 27.3519 10.0846 27.4292 9.95174 27.4803C9.81891 27.5315 9.67716 27.5553 9.53492 27.5505H7.44727L7.44363 25.4302ZM9.34602 32.295H7.44727V29.0036H9.34965C9.78611 29.0036 10.2047 29.177 10.5133 29.4856C10.8219 29.7943 10.9953 30.2128 10.9953 30.6493C10.9953 31.0858 10.8219 31.5043 10.5133 31.813C10.2047 32.1216 9.78611 32.295 9.34965 32.295H9.34602ZM55.8654 29.9203C55.7981 29.8282 55.7101 29.7533 55.6085 29.7016C55.5069 29.6498 55.3945 29.6227 55.2805 29.6224H53.079C52.8863 29.6224 52.7015 29.699 52.5653 29.8352C52.429 29.9715 52.3525 30.1563 52.3525 30.349C52.3525 30.5417 52.429 30.7265 52.5653 30.8627C52.7015 30.999 52.8863 31.0755 53.079 31.0755H54.1362C53.6288 31.83 52.8756 32.295 52.0776 32.295C50.5881 32.295 49.376 30.7546 49.376 28.862C49.376 26.9693 50.5869 25.4302 52.0776 25.4302C52.8962 25.4302 53.6627 25.8976 54.181 26.715C54.2323 26.7955 54.2989 26.8652 54.3771 26.9199C54.4553 26.9747 54.5435 27.0136 54.6368 27.0343C54.73 27.055 54.8264 27.0571 54.9204 27.0405C55.0144 27.024 55.1043 26.9891 55.1848 26.9378C55.2654 26.8865 55.335 26.8198 55.3898 26.7416C55.4446 26.6634 55.4835 26.5752 55.5042 26.482C55.5248 26.3888 55.527 26.2924 55.5104 26.1983C55.4939 26.1043 55.4589 26.0145 55.4077 25.9339C54.6169 24.6879 53.4036 23.9746 52.0776 23.9746C49.7865 23.9746 47.9229 26.1652 47.9229 28.8595C47.9229 31.5539 49.7865 33.7457 52.0776 33.7457C53.808 33.7457 55.3725 32.4669 55.9732 30.5657C56.0069 30.4572 56.0148 30.3423 55.9961 30.2302C55.9773 30.1181 55.9326 30.012 55.8654 29.9203ZM38.9159 23.977C38.7232 23.977 38.5384 24.0536 38.4021 24.1898C38.2659 24.3261 38.1893 24.5109 38.1893 24.7036V33.0215C38.1893 33.2142 38.2659 33.399 38.4021 33.5353C38.5384 33.6715 38.7232 33.7481 38.9159 33.7481C39.1086 33.7481 39.2934 33.6715 39.4297 33.5353C39.5659 33.399 39.6425 33.2142 39.6425 33.0215V24.7036C39.6425 24.5109 39.5659 24.3261 39.4297 24.1898C39.2934 24.0536 39.1086 23.977 38.9159 23.977ZM34.2405 28.8402L37.3417 25.3841C37.4101 25.314 37.4636 25.2307 37.499 25.1393C37.5343 25.0479 37.5509 24.9504 37.5475 24.8524C37.5442 24.7545 37.5211 24.6582 37.4797 24.5695C37.4382 24.4807 37.3792 24.4012 37.3062 24.3358C37.2332 24.2704 37.1478 24.2205 37.055 24.189C36.9622 24.1575 36.864 24.1451 36.7663 24.1525C36.6686 24.16 36.5734 24.1871 36.4864 24.2323C36.3995 24.2774 36.3226 24.3397 36.2603 24.4154L33.0344 28.0022V24.7036C33.0344 24.5109 32.9578 24.3261 32.8216 24.1898C32.6853 24.0536 32.5005 23.977 32.3078 23.977C32.1151 23.977 31.9303 24.0536 31.7941 24.1898C31.6578 24.3261 31.5812 24.5109 31.5812 24.7036V33.0215C31.5812 33.2142 31.6578 33.399 31.7941 33.5353C31.9303 33.6715 32.1151 33.7481 32.3078 33.7481C32.5005 33.7481 32.6853 33.6715 32.8216 33.5353C32.9578 33.399 33.0344 33.2142 33.0344 33.0215V30.1782L33.2632 29.9215L36.4177 33.4332C36.5485 33.5674 36.7261 33.6459 36.9134 33.6522C37.1007 33.6586 37.2832 33.5923 37.4228 33.4673C37.5624 33.3422 37.6483 33.1681 37.6625 32.9812C37.6767 32.7943 37.6182 32.6092 37.4991 32.4645L34.2405 28.8402ZM46.4927 23.977C46.3 23.977 46.1152 24.0536 45.979 24.1898C45.8427 24.3261 45.7662 24.5109 45.7662 24.7036V30.5948L42.1987 24.4263C42.0995 24.2547 41.9464 24.1207 41.7633 24.0449C41.5801 23.9692 41.3771 23.9559 41.1857 24.0072C40.9942 24.0585 40.825 24.1715 40.7043 24.3287C40.5836 24.4859 40.5181 24.6786 40.518 24.8768V33.0215C40.518 33.2142 40.5945 33.399 40.7308 33.5353C40.867 33.6715 41.0518 33.7481 41.2445 33.7481C41.4372 33.7481 41.622 33.6715 41.7583 33.5353C41.8945 33.399 41.9711 33.2142 41.9711 33.0215V26.9366L45.6608 33.3206C45.753 33.4797 45.895 33.6039 46.0649 33.674C46.2349 33.7442 46.4232 33.7563 46.6007 33.7086C46.7782 33.6609 46.935 33.5559 47.0469 33.41C47.1587 33.2642 47.2193 33.0855 47.2193 32.9016V24.7036C47.2193 24.5109 47.1427 24.3261 47.0065 24.1898C46.8702 24.0536 46.6854 23.977 46.4927 23.977ZM17.2764 23.977C14.8546 23.977 12.8783 26.1676 12.8783 28.862C12.8783 31.5563 14.8509 33.7481 17.2764 33.7481C19.702 33.7481 21.6758 31.5563 21.6758 28.862C21.6758 26.1676 19.702 23.977 17.2764 23.977ZM17.2764 32.295C15.6526 32.295 14.3314 30.7546 14.3314 28.862C14.3314 26.9693 15.6526 25.4302 17.2764 25.4302C18.9003 25.4302 20.2227 26.9693 20.2227 28.862C20.2227 30.7546 18.9003 32.295 17.2764 32.295ZM26.677 23.977C24.2551 23.977 22.2788 26.1676 22.2788 28.862C22.2788 31.5563 24.2514 33.7481 26.677 33.7481C29.1025 33.7481 31.0763 31.5563 31.0763 28.862C31.0763 26.1676 29.1025 23.977 26.677 23.977ZM26.677 32.295C25.0531 32.295 23.732 30.7546 23.732 28.862C23.732 26.9693 25.0531 25.4302 26.677 25.4302C28.3008 25.4302 29.6232 26.9693 29.6232 28.862C29.6232 30.7546 28.302 32.295 26.677 32.295Z" fill="black"/>
</svg>
