<svg width="36" height="36" viewBox="0 0 36 36" fill="none" xmlns="http://www.w3.org/2000/svg">
<path d="M20.9516 7.0874H14.2871V35.0999H20.9516V7.0874Z" fill="#FFCC66"/>
<path d="M21.7117 7.0874H20.9512V35.0999H21.7117V7.0874Z" fill="#CCCCCC"/>
<path d="M24.2997 1.7999C24.2997 1.56121 24.2049 1.33229 24.0361 1.16351C23.8673 0.994723 23.6384 0.899902 23.3997 0.899902H12.5997C12.361 0.899902 12.1321 0.994723 11.9633 1.16351C11.7945 1.33229 11.6997 1.56121 11.6997 1.7999H8.85117C8.61248 1.7999 8.38356 1.89472 8.21478 2.06351C8.04599 2.23229 7.95117 2.46121 7.95117 2.6999V7.0874H28.0482V2.6999C28.0482 2.46121 27.9533 2.23229 27.7846 2.06351C27.6158 1.89472 27.3869 1.7999 27.1482 1.7999H24.2997Z" fill="#886C60"/>
<path d="M16.1816 8.28906H14.2871V8.70306H16.1816V8.28906Z" fill="#F8B516"/>
<path d="M15.4346 9.75146H14.2871V10.1655H15.4346V9.75146Z" fill="#F8B516"/>
<path d="M16.1816 11.2139H14.2871V11.6279H16.1816V11.2139Z" fill="#F8B516"/>
<path d="M15.4346 12.6768H14.2871V13.0908H15.4346V12.6768Z" fill="#F8B516"/>
<path d="M16.1816 14.1387H14.2871V14.5527H16.1816V14.1387Z" fill="#F8B516"/>
<path d="M15.4346 15.6016H14.2871V16.0156H15.4346V15.6016Z" fill="#F8B516"/>
<path d="M16.1816 17.064H14.2871V17.478H16.1816V17.064Z" fill="#F8B516"/>
<path d="M15.4346 18.5264H14.2871V18.9404H15.4346V18.5264Z" fill="#F8B516"/>
<path d="M16.1816 19.9893H14.2871V20.4033H16.1816V19.9893Z" fill="#F8B516"/>
<path d="M15.4346 21.4512H14.2871V21.8652H15.4346V21.4512Z" fill="#F8B516"/>
<path d="M16.1816 22.9141H14.2871V23.3281H16.1816V22.9141Z" fill="#F8B516"/>
<path d="M15.4346 24.3765H14.2871V24.7905H15.4346V24.3765Z" fill="#F8B516"/>
<path d="M16.1816 25.8389H14.2871V26.2529H16.1816V25.8389Z" fill="#F8B516"/>
<path d="M15.4346 27.3018H14.2871V27.7158H15.4346V27.3018Z" fill="#F8B516"/>
<path d="M16.1816 28.7637H14.2871V29.1777H16.1816V28.7637Z" fill="#F8B516"/>
<path d="M15.4346 30.2266H14.2871V30.6406H15.4346V30.2266Z" fill="#F8B516"/>
<path d="M16.1816 31.689H14.2871V32.103H16.1816V31.689Z" fill="#F8B516"/>
<path d="M15.4346 33.1514H14.2871V33.5654H15.4346V33.1514Z" fill="#F8B516"/>
</svg>
