<svg width="36" height="36" viewBox="0 0 36 36" fill="none" xmlns="http://www.w3.org/2000/svg">
<g clip-path="url(#clip0_21_1035)">
<path d="M23.5402 13.6575L24.5584 12.6394L23.5009 11.5819L22.4827 12.6L21.7402 9.64125L22.7584 8.67375L23.3209 8.96063L23.394 9C23.8271 7.94812 24.8902 7.29 24.8902 7.29L24.744 6.5025L26.6509 4.59563L34.419 0L34.9365 0.5175L32.6584 2.75062C31.5784 2.67187 30.1609 4.17938 30.4984 5.3775L30.5659 5.445L28.5802 7.43063C30.1159 9.32625 29.2777 11.3119 29.2665 11.3344L29.1709 11.3063C29.1709 11.3063 28.7827 12.3244 27.6521 12.8025L27.984 13.4437L26.8702 14.6137L23.5402 13.6575Z" fill="#EFF3F5"/>
<path d="M23.5579 11.5145L23.4173 11.6551C22.7816 10.1532 23.2935 9.00012 23.3104 8.95512L23.4735 9.03387C23.4735 9.04512 22.956 10.0914 23.5579 11.5145ZM31.6016 9.51762L35.6348 1.21512L35.3366 0.916992L33.0979 3.18949C33.3398 4.29199 31.7085 5.77137 30.4991 5.37762L28.3954 7.48137H28.3841C30.0323 8.85387 29.1829 11.2839 29.1716 11.3007L29.2673 11.3289L29.7229 11.4695L31.6016 9.51762Z" fill="#E5E5E5"/>
<path d="M12.8816 15.0355C14.8785 14.0061 16.1891 13.0667 17.7641 11.8573C18.3772 11.3117 18.2704 10.6592 17.7979 9.98985C17.6291 9.74797 17.6741 9.4161 17.916 9.24735C18.1522 9.07298 18.4841 9.13485 18.6585 9.3711C19.1141 9.96735 19.6316 10.2542 20.1997 9.8886L21.1447 9.20798C21.2572 9.12923 21.4091 9.1461 21.4991 9.24735L21.8254 9.61297C21.876 9.66922 21.9097 9.7311 21.9435 9.84922L22.7422 12.6561C22.731 12.8023 22.6522 12.9317 22.5397 13.0161L21.2291 13.6798L21.4654 14.293C19.5697 15.2605 17.1454 16.588 15.1654 18.0055L15.0529 18.0898L12.876 15.0748C12.876 15.0467 12.8816 15.0411 12.8816 15.0355Z" fill="#DD655B"/>
<path d="M0.871436 28.1927C2.57019 26.809 4.37019 24.6265 6.22644 21.9715C8.02081 19.1534 10.1752 16.7009 12.8752 15.0527L15.0521 18.0677L12.8639 19.6484C11.8739 20.3627 10.9908 21.229 10.2539 22.2077C7.37956 26.0271 4.74144 29.0871 2.48019 30.9434C2.16519 31.2021 1.72081 31.2246 1.37769 31.0052C0.528311 30.4596 -0.135439 29.104 0.871436 28.1927Z" fill="#506C72"/>
<path d="M21.33 23.4842C22.3594 21.4873 23.2988 20.1767 24.5081 18.6017C25.0538 17.9885 25.7063 18.0954 26.3756 18.5679C26.6175 18.7367 26.9494 18.6917 27.1181 18.4498C27.2925 18.2135 27.2306 17.8817 26.9944 17.7073C26.3981 17.2517 26.1113 16.7342 26.4769 16.166L27.1575 15.221C27.2363 15.1085 27.2194 14.9567 27.1181 14.8667L26.7525 14.5404C26.6963 14.4898 26.6344 14.456 26.5163 14.4223L23.7094 13.6235C23.5631 13.6348 23.4338 13.7135 23.3494 13.826L22.6856 15.1367L22.0725 14.9004C21.105 16.796 19.7775 19.2204 18.36 21.2004L18.2756 21.3129L21.2906 23.4898C21.3188 23.4898 21.3244 23.4842 21.33 23.4842Z" fill="#DD655B"/>
<path d="M8.17313 35.4936C9.55688 33.7949 11.7394 31.9949 14.3944 30.1386C17.2125 28.3442 19.665 26.1899 21.3131 23.4899L18.2981 21.313L16.7175 23.5011C16.0031 24.4911 15.1369 25.3742 14.1581 26.1111C10.3388 28.9855 7.27876 31.6236 5.42251 33.8849C5.16376 34.1999 5.14126 34.6442 5.36063 34.9874C5.90626 35.8367 7.26188 36.5005 8.17313 35.4936Z" fill="#506C72"/>
</g>
<defs>
<clipPath id="clip0_21_1035">
<rect width="36" height="36" fill="white"/>
</clipPath>
</defs>
</svg>
