<svg width="36" height="36" viewBox="0 0 36 36" fill="none" xmlns="http://www.w3.org/2000/svg">
<path d="M24.7504 24.9821C25.9734 25.2596 27.0658 25.9444 27.8484 26.9244C28.631 27.9044 29.0573 29.1212 29.0574 30.3753C29.0574 31.5966 28.8109 32.1686 26.846 32.5867C26.846 32.5867 25.9711 32.7406 24.7504 32.9365L23.3567 29.5702L24.7504 24.9821ZM21.3175 33.4443C20.2181 33.6062 19.1108 33.7084 18.0004 33.7503C16.8899 33.7086 15.7826 33.6064 14.6833 33.4443L13.9858 29.57L14.6833 24.8467H21.3175L21.88 29.57L21.3175 33.4443ZM11.2504 32.9364C10.0297 32.7405 9.15477 32.5866 9.15477 32.5866C7.18982 32.1684 6.94336 31.5964 6.94336 30.3752C6.94346 29.1236 7.36804 27.9092 8.14772 26.9302C8.9274 25.9512 10.0161 25.2656 11.2359 24.9854L12.1874 29.57L11.2504 32.9364Z" fill="#F5E5CB"/>
<path d="M14.6836 22.5V25.5495C14.6836 26.4293 15.0331 27.273 15.6551 27.895C16.2772 28.5171 17.1209 28.8666 18.0007 28.8666C18.8804 28.8666 19.7241 28.5171 20.3462 27.895C20.9683 27.273 21.3178 26.4293 21.3178 25.5495V22.5169L14.6836 22.5Z" fill="#FFB8A6"/>
<path d="M14.6836 24.8322C16.3275 25.5893 19.0542 25.8748 21.3178 24.8322V23.2983H14.6836V24.8322Z" fill="#FFA68F"/>
<path d="M25.7127 12.6874C25.7127 12.0321 24.7362 8.78271 21.3178 8.78271H14.6836C11.2503 8.78271 10.2887 12.0276 10.2887 12.6874C7.30105 12.6874 7.25265 17.2423 10.2772 17.3447H10.2905C10.571 19.6387 11.9133 24.5148 18.0007 24.5148C24.0881 24.5148 25.4305 19.6387 25.7109 17.3447H25.7241C28.7899 17.2413 28.5498 12.6874 25.7127 12.6874Z" fill="#FFB8A6"/>
<path d="M14.5547 15.1929C15.1372 15.1929 15.6094 14.7207 15.6094 14.1382C15.6094 13.5557 15.1372 13.0835 14.5547 13.0835C13.9723 13.0835 13.5001 13.5557 13.5001 14.1382C13.5001 14.7207 13.9723 15.1929 14.5547 15.1929Z" fill="#3A3D3E"/>
<path d="M21.4462 15.1929C22.0287 15.1929 22.5009 14.7207 22.5009 14.1382C22.5009 13.5557 22.0287 13.0835 21.4462 13.0835C20.8637 13.0835 20.3915 13.5557 20.3915 14.1382C20.3915 14.7207 20.8637 15.1929 21.4462 15.1929Z" fill="#3A3D3E"/>
<path d="M23.3615 10.5142L24.5369 9.10791L25.7121 10.5142V14.7967C25.0887 14.7967 24.4908 14.5491 24.05 14.1083C23.6092 13.6674 23.3615 13.0695 23.3615 12.4461V10.5142ZM12.6387 10.5142L11.4633 9.10791L10.2881 10.5142V14.7967C10.9115 14.7967 11.5094 14.5491 11.9502 14.1083C12.391 13.6674 12.6387 13.0695 12.6387 12.4461V10.5142Z" fill="#3A3D3E"/>
<path d="M15.9131 2.68408H20.0868C20.8255 2.68408 21.557 2.82958 22.2394 3.11226C22.9219 3.39494 23.542 3.80928 24.0643 4.33161C24.5866 4.85394 25.001 5.47403 25.2837 6.15649C25.5663 6.83894 25.7118 7.5704 25.7118 8.30908V10.2569H10.2881V8.30908C10.2881 6.81724 10.8807 5.3865 11.9356 4.33161C12.9905 3.27671 14.4212 2.68408 15.9131 2.68408V2.68408Z" fill="#FCC957"/>
<path d="M18.0001 12.662C24.4576 12.662 25.7121 10.5142 25.7121 10.5142C23.2839 9.76509 16.0982 8.74449 10.2881 10.5142C10.2882 10.5141 11.5426 12.662 18.0001 12.662ZM20.0916 6.70267C20.3254 -0.219057 15.6358 -0.184266 15.8685 6.70267C15.9505 9.13006 20.0097 9.12899 20.0916 6.70267Z" fill="#FDD95D"/>
<path d="M25.6813 10.514H10.3194C9.31853 10.514 9.31715 9 10.3194 9H25.6813C26.6823 9 26.6837 10.514 25.6813 10.514Z" fill="#FFEA63"/>
<path d="M12.4715 24.8467C12.0605 24.8469 11.6508 24.8929 11.25 24.9837V28.8669L12.9664 29.57L14.6829 28.8669V24.8467H12.4715ZM11.25 32.9363C12.2579 33.098 13.5013 33.2883 14.6829 33.4443V30.9309L12.9664 30.2278L11.25 30.9309V32.9363Z" fill="#FA895F"/>
<path d="M14.6829 28.8667H11.25V30.9308H14.6829V28.8667Z" fill="#FFEA63"/>
<path d="M23.5289 24.8467C23.9398 24.8469 24.3495 24.8929 24.7504 24.9837V28.8669L23.0339 29.57L21.3174 28.8669V24.8467H23.5289ZM24.7504 32.9363C23.7425 33.098 22.499 33.2883 21.3174 33.4443V30.9309L23.0339 30.2278L24.7504 30.9309V32.9363Z" fill="#FA895F"/>
<path d="M24.7504 28.8667H21.3174V30.9308H24.7504V28.8667Z" fill="#FFEA63"/>
</svg>
