<svg width="40" height="40" viewBox="0 0 40 40" fill="none" xmlns="http://www.w3.org/2000/svg">
<g clip-path="url(#clip0_21_1094)">
<path d="M20 0V23.6111H7.66667L0 0H20Z" fill="#66CCFF"/>
<path d="M40 0H0V40H40V0Z" stroke="black" stroke-miterlimit="10"/>
<path d="M7.66667 31.7222L0 39.9999H20V31.7222H7.66667Z" fill="#EAF4FF"/>
<path d="M32.3333 31.7222L40 39.9999H20V31.7222H32.3333Z" fill="#CEE8FF"/>
<path d="M39.9997 0L32.333 23.6111V31.7222L39.9997 40V0Z" fill="#A2DBFE"/>
<path d="M0 0L7.66667 23.6111V31.7222L0 40V0Z" fill="#CEE8FF"/>
<path d="M20 0V23.6111H32.3333L40 0H20Z" fill="#59ABFF"/>
<path d="M10.6111 7.14448H4.75557L3.20001 2.3667H9.85556L10.6111 7.14448Z" fill="#F7F7F7"/>
<path d="M18.9227 7.14448H12.9782L12.1338 2.3667H18.7893L18.9227 7.14448Z" fill="#F7F7F7"/>
<path d="M27.0893 7.14448H21.1338V2.3667H27.8005L27.0893 7.14448Z" fill="#F7F7F7"/>
<path d="M35.333 7.14448H29.4219L30.133 2.3667H36.7997L35.333 7.14448Z" fill="#F7F7F7"/>
<path d="M11.6444 14.1332H6.8111L5.53333 9.35547H11.0222L11.6444 14.1332Z" fill="#F7F7F7"/>
<path d="M14.056 14.2446L18.7782 14.1335L18.9226 9.4668H13.3115L14.056 14.2446Z" fill="#F7F7F7"/>
<path d="M21.1338 14.2446L25.9449 14.1446L26.7449 9.4668H21.1338V14.2446Z" fill="#F7F7F7"/>
<path d="M28.2773 14.2446L32.944 14.1335L34.4773 9.4668H28.8662L28.2773 14.2446Z" fill="#F7F7F7"/>
<path d="M12.8108 21.2221H9.25521L7.92188 16.4443H12.3108L12.8108 21.2221Z" fill="#F7F7F7"/>
<path d="M18.9222 21.2221H15.2222L14.4778 16.4443H18.9222V21.2221Z" fill="#F7F7F7"/>
<path d="M24.8111 21.2221H21.0889V16.4443H25.5333L24.8111 21.2221Z" fill="#F7F7F7"/>
<path d="M30.7 21.2221H27.1111L27.7778 16.4443H32.2222L30.7 21.2221Z" fill="#F7F7F7"/>
<path d="M20.0003 23.6113H7.66699V31.7224H20.0003V23.6113Z" fill="#4D5087"/>
<path d="M32.3333 23.6113H20V31.7224H32.3333V23.6113Z" fill="#3D4173"/>
</g>
<defs>
<clipPath id="clip0_21_1094">
<rect width="40" height="40" fill="white"/>
</clipPath>
</defs>
</svg>
