<svg width="62" height="62" viewBox="0 0 62 62" fill="none" xmlns="http://www.w3.org/2000/svg">
<path d="M51.8654 39.6445C53.5121 39.6445 54.8462 40.9787 54.8462 42.6253C54.8462 44.2719 53.5121 45.6061 51.8654 45.6061C50.2188 45.6061 48.8846 44.2719 48.8846 42.6253C48.8846 40.9787 50.2188 39.6445 51.8654 39.6445Z" fill="white"/>
<path d="M11.3274 50.3735C13.6321 50.3735 15.5005 48.5051 15.5005 46.2004C15.5005 43.8957 13.6321 42.0273 11.3274 42.0273C9.02265 42.0273 7.1543 43.8957 7.1543 46.2004C7.1543 48.5051 9.02265 50.3735 11.3274 50.3735Z" fill="white"/>
<path d="M35.1731 41.5859V44.4153H31.2981H27.4231V41.5859H35.1731Z" fill="white"/>
<path d="M48.6224 23.594L41.3887 11.0628C40.7376 9.93611 39.5358 9.24219 38.2349 9.24219H23.7651C22.4643 9.24219 21.2624 9.93611 20.6114 11.0628L13.3777 23.594C12.7267 24.7207 12.7267 26.1086 13.3777 27.2353L20.6114 39.7653C21.2624 40.892 22.4643 41.5859 23.7651 41.5859C25.8402 41.5859 36.3721 41.5859 38.2348 41.5859C39.5356 41.5859 40.7375 40.8921 41.3886 39.7653L48.6223 27.2353C49.2733 26.1086 49.2733 24.7207 48.6224 23.594Z" fill="white"/>
<path d="M45.0348 24.6402H45.0335L31.5461 38.1276H26.4871L43.3094 21.3053L44.6305 23.5933C44.8212 23.9248 44.9561 24.2777 45.0348 24.6402ZM39.3928 14.5199L41.1908 17.6342H41.1896L22.5751 36.2485L20.7235 33.0424L39.3354 14.4293L39.3378 14.4281C39.3569 14.4591 39.3748 14.4889 39.3928 14.5199ZM35.3936 12.6992L18.6465 29.4464L17.3695 27.2346C17.1609 26.8734 17.0202 26.4859 16.9451 26.0888H16.9463L30.3359 12.6992H35.3936Z" fill="white"/>
<path d="M31.5458 38.1276L45.0332 24.6402H45.0345C45.2241 25.5118 45.0892 26.4382 44.6302 27.2346L39.3924 36.3069C38.7413 37.4336 37.5394 38.1276 36.2374 38.1276H31.5458ZM41.1905 17.6342L43.3092 21.3053L26.4868 38.1276H25.7619C24.4611 38.1276 23.2581 37.4338 22.6083 36.3069L22.5749 36.2485L41.1893 17.6342H41.1905ZM39.3375 14.4281L39.3352 14.4293L20.7232 33.0424L18.6462 29.4464L35.3934 12.6992H36.2375C37.5039 12.6992 38.6759 13.3562 39.3375 14.4281ZM30.3356 12.6992L16.946 26.0888H16.9448C16.7862 25.2459 16.9269 24.3588 17.3693 23.5933L22.6083 14.5199C23.2581 13.3931 24.4611 12.6992 25.7619 12.6992H30.3356Z" fill="black"/>
<path d="M54.5485 30.7025C55.0424 30.7025 55.4428 30.3022 55.4428 29.8083C55.4428 29.3144 55.0424 28.9141 54.5485 28.9141C54.0547 28.9141 53.6543 29.3144 53.6543 29.8083C53.6543 30.3022 54.0547 30.7025 54.5485 30.7025Z" fill="black"/>
<path d="M52.1638 8.64393C52.6576 8.64393 53.058 8.24357 53.058 7.7497C53.058 7.25583 52.6576 6.85547 52.1638 6.85547C51.6699 6.85547 51.2695 7.25583 51.2695 7.7497C51.2695 8.24357 51.6699 8.64393 52.1638 8.64393Z" fill="black"/>
<path d="M50.9711 55.1439C51.465 55.1439 51.8654 54.7436 51.8654 54.2497C51.8654 53.7558 51.465 53.3555 50.9711 53.3555C50.4773 53.3555 50.0769 53.7558 50.0769 54.2497C50.0769 54.7436 50.4773 55.1439 50.9711 55.1439Z" fill="black"/>
<path d="M40.8366 47.3939C41.3304 47.3939 41.7308 46.9936 41.7308 46.4997C41.7308 46.0058 41.3304 45.6055 40.8366 45.6055C40.3427 45.6055 39.9423 46.0058 39.9423 46.4997C39.9423 46.9936 40.3427 47.3939 40.8366 47.3939Z" fill="black"/>
<path d="M22.3561 49.7806C22.85 49.7806 23.2504 49.3803 23.2504 48.8864C23.2504 48.3925 22.85 47.9922 22.3561 47.9922C21.8623 47.9922 21.4619 48.3925 21.4619 48.8864C21.4619 49.3803 21.8623 49.7806 22.3561 49.7806Z" fill="black"/>
<path d="M13.4138 58.1244C13.9076 58.1244 14.308 57.724 14.308 57.2302C14.308 56.7363 13.9076 56.3359 13.4138 56.3359C12.9199 56.3359 12.5195 56.7363 12.5195 57.2302C12.5195 57.724 12.9199 58.1244 13.4138 58.1244Z" fill="black"/>
<path d="M8.64423 12.8158C9.1381 12.8158 9.53846 12.4154 9.53846 11.9216C9.53846 11.4277 9.1381 11.0273 8.64423 11.0273C8.15036 11.0273 7.75 11.4277 7.75 11.9216C7.75 12.4154 8.15036 12.8158 8.64423 12.8158Z" fill="black"/>
<path d="M8.34614 35.4721C8.84001 35.4721 9.24037 35.0717 9.24037 34.5778C9.24037 34.084 8.84001 33.6836 8.34614 33.6836C7.85227 33.6836 7.4519 34.084 7.4519 34.5778C7.4519 35.0717 7.85227 35.4721 8.34614 35.4721Z" fill="black"/>
<path d="M38.2349 42.1806H35.1731C34.8438 42.1806 34.5769 41.9137 34.5769 41.5844C34.5769 41.2551 34.8438 40.9883 35.1731 40.9883H38.2349C39.3192 40.9883 40.3298 40.4047 40.8724 39.4656L48.1062 26.9357C48.6488 25.9965 48.6488 24.8298 48.1062 23.8907L40.8724 11.3594C40.3298 10.4204 39.3192 9.83684 38.2349 9.83684H23.7651C22.6809 9.83684 21.6703 10.4204 21.1276 11.3595L13.894 23.8906C13.3513 24.8299 13.3513 25.9965 13.8938 26.9356L21.1277 39.4657C21.6702 40.4047 22.6809 40.9883 23.7651 40.9883H27.4231C27.7523 40.9883 28.0192 41.2551 28.0192 41.5844C28.0192 41.9137 27.7523 42.1806 27.4231 42.1806H23.7651C22.2564 42.1806 20.8502 41.3687 20.0952 40.062L12.8614 27.5319C12.1063 26.225 12.1063 24.6012 12.8614 23.2942L20.0952 10.7634C20.8502 9.45637 22.2564 8.64453 23.7651 8.64453H38.2349C39.7437 8.64453 41.1498 9.45637 41.9048 10.7631L49.1387 23.2945C49.8937 24.6012 49.8937 26.2251 49.1385 27.5321L41.905 40.0618C41.1498 41.3687 39.7437 42.1806 38.2349 42.1806Z" fill="black"/>
<path d="M20.7231 33.6369C20.5705 33.6369 20.418 33.5787 20.3015 33.4622C20.0686 33.2295 20.0686 32.852 20.3015 32.6193L38.9135 14.006C39.1461 13.7733 39.5236 13.7733 39.7565 14.006C39.9893 14.2389 39.9893 14.6163 39.7565 14.8491L21.1446 33.4622C21.0283 33.5787 20.8757 33.6369 20.7231 33.6369ZM18.6461 30.0409C18.4935 30.0409 18.341 29.9827 18.2245 29.8664C17.9916 29.6335 17.9916 29.256 18.2245 29.0233L34.9716 12.2761C35.2045 12.0434 35.5819 12.0434 35.8147 12.2761C36.0475 12.509 36.0475 12.8865 35.8147 13.1192L19.0676 29.8664C18.9512 29.9827 18.7987 30.0409 18.6461 30.0409ZM26.4867 38.7221C26.3341 38.7221 26.1816 38.6639 26.0651 38.5474C25.8322 38.3147 25.8322 37.9372 26.0651 37.7045L42.8874 20.8822C43.1202 20.6495 43.4975 20.6495 43.7303 20.8822C43.9632 21.1151 43.9632 21.4925 43.7303 21.7253L26.9083 38.5474C26.7919 38.6638 26.6393 38.7221 26.4867 38.7221ZM22.5747 36.843C22.4221 36.843 22.2696 36.7848 22.1531 36.6684C21.9203 36.4356 21.9203 36.0581 22.1531 35.8254L40.7674 17.2111C41.0003 16.9783 41.3777 16.9783 41.6105 17.2111C41.8434 17.4439 41.8434 17.8214 41.6105 18.0542L22.9962 36.6684C22.88 36.7847 22.7274 36.843 22.5747 36.843ZM16.9459 26.6834C16.7932 26.6834 16.6407 26.6252 16.5243 26.5088C16.2914 26.276 16.2914 25.8985 16.5243 25.6657L29.9139 12.2761C30.1467 12.0434 30.5241 12.0434 30.7569 12.2761C30.9897 12.509 30.9897 12.8865 30.7569 13.1192L17.3673 26.5088C17.251 26.6252 17.0985 26.6834 16.9459 26.6834ZM31.5457 38.7221C31.3932 38.7221 31.2406 38.6639 31.1242 38.5474C30.8913 38.3147 30.8913 37.9372 31.1242 37.7045L44.6114 24.2171C44.8443 23.9843 45.2218 23.9845 45.4546 24.2171C45.6874 24.4499 45.6874 24.8274 45.4546 25.0602L31.9671 38.5474C31.8509 38.6638 31.6982 38.7221 31.5457 38.7221Z" fill="black"/>
<path d="M36.2378 38.7222H25.7622C24.2522 38.7222 22.846 37.9103 22.0922 36.6034L22.0574 36.5426L16.8533 27.5312C16.6147 27.1181 16.4485 26.6695 16.3593 26.1981C16.1718 25.2009 16.3472 24.1695 16.8534 23.2935L22.0923 14.2203C22.846 12.9135 24.2523 12.1016 25.7622 12.1016H36.2377C37.6967 12.1016 39.079 12.8725 39.845 14.1135C39.8675 14.1499 39.8883 14.1846 39.9092 14.2209L45.1468 23.2938C45.3664 23.6752 45.5245 24.0849 45.6172 24.5122C45.8415 25.5434 45.6745 26.6155 45.147 27.5309L39.9091 36.6035C39.1539 37.9104 37.7473 38.7222 36.2378 38.7222ZM25.7622 13.2939C24.677 13.2939 23.6665 13.8773 23.125 14.8162L17.8858 23.8899C17.5222 24.5193 17.3962 25.2605 17.5309 25.977C17.595 26.3158 17.7144 26.6383 17.8857 26.9349L23.1263 36.0098C23.6664 36.9464 24.677 37.5298 25.7621 37.5298H36.2376C37.3226 37.5298 38.3337 36.9463 38.8763 36.0071L44.1141 26.9349C44.4933 26.2771 44.6133 25.5066 44.452 24.7652C44.3853 24.4579 44.2715 24.1632 44.1136 23.8891L38.8763 14.8163C38.861 14.79 38.8461 14.7651 38.8301 14.7393C38.2799 13.8477 37.2864 13.2936 36.2376 13.2936H25.7622V13.2939ZM35.1731 45.0093H27.4231C27.0939 45.0093 26.827 44.7424 26.827 44.4131V41.5838C26.827 41.2544 27.0939 40.9876 27.4231 40.9876H35.1731C35.5024 40.9876 35.7693 41.2544 35.7693 41.5838V44.4131C35.7693 44.7424 35.5024 45.0093 35.1731 45.0093ZM28.0193 43.8169H34.577V42.1799H28.0193V43.8169Z" fill="black"/>
<path d="M31.2978 58.1241C28.5036 58.1241 26.2305 55.851 26.2305 53.0568C26.2305 50.4642 28.1873 48.3201 30.7016 48.0243V44.4126C30.7016 44.0832 30.9685 43.8164 31.2978 43.8164C31.6271 43.8164 31.8939 44.0832 31.8939 44.4126V48.5856C31.8939 48.915 31.6271 49.1818 31.2978 49.1818C29.1612 49.1818 27.4228 50.9201 27.4228 53.0568C27.4228 55.1935 29.1612 56.9318 31.2978 56.9318C33.4344 56.9318 35.1728 55.1935 35.1728 53.0568C35.1728 52.7275 35.4396 52.4606 35.7689 52.4606C36.0982 52.4606 36.3651 52.7275 36.3651 53.0568C36.3651 55.851 34.0919 58.1241 31.2978 58.1241Z" fill="black"/>
<path d="M32.1923 47.3942H30.4038C30.0746 47.3942 29.8077 47.1274 29.8077 46.7981C29.8077 46.4688 30.0746 46.2019 30.4038 46.2019H32.1923C32.5216 46.2019 32.7884 46.4688 32.7884 46.7981C32.7884 47.1274 32.5216 47.3942 32.1923 47.3942ZM48.6224 24.1883C48.2931 24.1883 48.0263 23.9214 48.0263 23.5922V4.47115C48.0263 4.14196 48.2931 3.875 48.6224 3.875C48.9516 3.875 49.2186 4.14196 49.2186 4.47115V23.5922C49.2186 23.9214 48.9516 24.1883 48.6224 24.1883ZM13.3777 24.1883C13.0485 24.1883 12.7815 23.9214 12.7815 23.5922V4.47115C12.7815 4.14196 13.0485 3.875 13.3777 3.875C13.7069 3.875 13.9738 4.14196 13.9738 4.47115V23.5922C13.9738 23.9214 13.7069 24.1883 13.3777 24.1883ZM11.3269 50.9712C8.69716 50.9712 6.55768 48.8317 6.55768 46.2019C6.55768 43.5722 8.69716 41.4327 11.3269 41.4327C13.9567 41.4327 16.0961 43.5722 16.0961 46.2019C16.0961 48.8317 13.9567 50.9712 11.3269 50.9712ZM11.3269 42.625C9.35459 42.625 7.74999 44.2296 7.74999 46.2019C7.74999 48.1742 9.35459 49.7788 11.3269 49.7788C13.2992 49.7788 14.9038 48.1742 14.9038 46.2019C14.9038 44.2296 13.2992 42.625 11.3269 42.625ZM51.8654 46.2019C49.8931 46.2019 48.2884 44.5973 48.2884 42.625C48.2884 40.6527 49.8931 39.0481 51.8654 39.0481C53.8377 39.0481 55.4423 40.6527 55.4423 42.625C55.4423 44.5973 53.8377 46.2019 51.8654 46.2019ZM51.8654 40.2404C50.5506 40.2404 49.4808 41.3101 49.4808 42.625C49.4808 43.9399 50.5506 45.0096 51.8654 45.0096C53.1801 45.0096 54.25 43.9399 54.25 42.625C54.25 41.3101 53.1801 40.2404 51.8654 40.2404Z" fill="black"/>
<path d="M51.8654 39.6445C53.5121 39.6445 54.8462 40.9787 54.8462 42.6253C54.8462 44.2719 53.5121 45.6061 51.8654 45.6061C50.2188 45.6061 48.8846 44.2719 48.8846 42.6253C48.8846 40.9787 50.2188 39.6445 51.8654 39.6445Z" fill="white"/>
<path d="M11.3274 50.3735C13.6321 50.3735 15.5005 48.5051 15.5005 46.2004C15.5005 43.8957 13.6321 42.0273 11.3274 42.0273C9.02265 42.0273 7.1543 43.8957 7.1543 46.2004C7.1543 48.5051 9.02265 50.3735 11.3274 50.3735Z" fill="white"/>
<path d="M35.1731 41.5859V44.4153H31.2981H27.4231V41.5859H35.1731Z" fill="white"/>
<path d="M48.6224 23.594L41.3887 11.0628C40.7376 9.93611 39.5358 9.24219 38.2349 9.24219H23.7651C22.4643 9.24219 21.2624 9.93611 20.6114 11.0628L13.3777 23.594C12.7267 24.7207 12.7267 26.1086 13.3777 27.2353L20.6114 39.7653C21.2624 40.892 22.4643 41.5859 23.7651 41.5859C25.8402 41.5859 36.3721 41.5859 38.2348 41.5859C39.5356 41.5859 40.7375 40.8921 41.3886 39.7653L48.6223 27.2353C49.2733 26.1086 49.2733 24.7207 48.6224 23.594Z" fill="white"/>
<path d="M45.0348 24.6402H45.0335L31.5461 38.1276H26.4871L43.3094 21.3053L44.6305 23.5933C44.8212 23.9248 44.9561 24.2777 45.0348 24.6402ZM39.3928 14.5199L41.1908 17.6342H41.1896L22.5751 36.2485L20.7235 33.0424L39.3354 14.4293L39.3378 14.4281C39.3569 14.4591 39.3748 14.4889 39.3928 14.5199ZM35.3936 12.6992L18.6465 29.4464L17.3695 27.2346C17.1609 26.8734 17.0202 26.4859 16.9451 26.0888H16.9463L30.3359 12.6992H35.3936Z" fill="white"/>
<path d="M31.5458 38.1276L45.0332 24.6402H45.0345C45.2241 25.5118 45.0892 26.4382 44.6302 27.2346L39.3924 36.3069C38.7413 37.4336 37.5394 38.1276 36.2374 38.1276H31.5458ZM41.1905 17.6342L43.3092 21.3053L26.4868 38.1276H25.7619C24.4611 38.1276 23.2581 37.4338 22.6083 36.3069L22.5749 36.2485L41.1893 17.6342H41.1905ZM39.3375 14.4281L39.3352 14.4293L20.7232 33.0424L18.6462 29.4464L35.3934 12.6992H36.2375C37.5039 12.6992 38.6759 13.3562 39.3375 14.4281ZM30.3356 12.6992L16.946 26.0888H16.9448C16.7862 25.2459 16.9269 24.3588 17.3693 23.5933L22.6083 14.5199C23.2581 13.3931 24.4611 12.6992 25.7619 12.6992H30.3356Z" fill="#EFC41A"/>
<path d="M54.5485 30.7025C55.0424 30.7025 55.4428 30.3022 55.4428 29.8083C55.4428 29.3144 55.0424 28.9141 54.5485 28.9141C54.0547 28.9141 53.6543 29.3144 53.6543 29.8083C53.6543 30.3022 54.0547 30.7025 54.5485 30.7025Z" fill="black"/>
<path d="M52.1638 8.64393C52.6576 8.64393 53.058 8.24357 53.058 7.7497C53.058 7.25583 52.6576 6.85547 52.1638 6.85547C51.6699 6.85547 51.2695 7.25583 51.2695 7.7497C51.2695 8.24357 51.6699 8.64393 52.1638 8.64393Z" fill="black"/>
<path d="M50.9711 55.1439C51.465 55.1439 51.8654 54.7436 51.8654 54.2497C51.8654 53.7558 51.465 53.3555 50.9711 53.3555C50.4773 53.3555 50.0769 53.7558 50.0769 54.2497C50.0769 54.7436 50.4773 55.1439 50.9711 55.1439Z" fill="black"/>
<path d="M40.8366 47.3939C41.3304 47.3939 41.7308 46.9936 41.7308 46.4997C41.7308 46.0058 41.3304 45.6055 40.8366 45.6055C40.3427 45.6055 39.9423 46.0058 39.9423 46.4997C39.9423 46.9936 40.3427 47.3939 40.8366 47.3939Z" fill="black"/>
<path d="M22.3561 49.7806C22.85 49.7806 23.2504 49.3803 23.2504 48.8864C23.2504 48.3925 22.85 47.9922 22.3561 47.9922C21.8623 47.9922 21.4619 48.3925 21.4619 48.8864C21.4619 49.3803 21.8623 49.7806 22.3561 49.7806Z" fill="black"/>
<path d="M13.4138 58.1244C13.9076 58.1244 14.308 57.724 14.308 57.2302C14.308 56.7363 13.9076 56.3359 13.4138 56.3359C12.9199 56.3359 12.5195 56.7363 12.5195 57.2302C12.5195 57.724 12.9199 58.1244 13.4138 58.1244Z" fill="black"/>
<path d="M8.64423 12.8158C9.1381 12.8158 9.53846 12.4154 9.53846 11.9216C9.53846 11.4277 9.1381 11.0273 8.64423 11.0273C8.15036 11.0273 7.75 11.4277 7.75 11.9216C7.75 12.4154 8.15036 12.8158 8.64423 12.8158Z" fill="black"/>
<path d="M8.34614 35.4721C8.84001 35.4721 9.24037 35.0717 9.24037 34.5778C9.24037 34.084 8.84001 33.6836 8.34614 33.6836C7.85227 33.6836 7.4519 34.084 7.4519 34.5778C7.4519 35.0717 7.85227 35.4721 8.34614 35.4721Z" fill="black"/>
<path d="M38.2349 42.1806H35.1731C34.8438 42.1806 34.5769 41.9137 34.5769 41.5844C34.5769 41.2551 34.8438 40.9883 35.1731 40.9883H38.2349C39.3192 40.9883 40.3298 40.4047 40.8724 39.4656L48.1062 26.9357C48.6488 25.9965 48.6488 24.8298 48.1062 23.8907L40.8724 11.3594C40.3298 10.4204 39.3192 9.83684 38.2349 9.83684H23.7651C22.6809 9.83684 21.6703 10.4204 21.1276 11.3595L13.894 23.8906C13.3513 24.8299 13.3513 25.9965 13.8938 26.9356L21.1277 39.4657C21.6702 40.4047 22.6809 40.9883 23.7651 40.9883H27.4231C27.7523 40.9883 28.0192 41.2551 28.0192 41.5844C28.0192 41.9137 27.7523 42.1806 27.4231 42.1806H23.7651C22.2564 42.1806 20.8502 41.3687 20.0952 40.062L12.8614 27.5319C12.1063 26.225 12.1063 24.6012 12.8614 23.2942L20.0952 10.7634C20.8502 9.45637 22.2564 8.64453 23.7651 8.64453H38.2349C39.7437 8.64453 41.1498 9.45637 41.9048 10.7631L49.1387 23.2945C49.8937 24.6012 49.8937 26.2251 49.1385 27.5321L41.905 40.0618C41.1498 41.3687 39.7437 42.1806 38.2349 42.1806Z" fill="black"/>
<path d="M20.7231 33.6369C20.5705 33.6369 20.418 33.5787 20.3015 33.4622C20.0686 33.2295 20.0686 32.852 20.3015 32.6193L38.9135 14.006C39.1461 13.7733 39.5236 13.7733 39.7565 14.006C39.9893 14.2389 39.9893 14.6163 39.7565 14.8491L21.1446 33.4622C21.0283 33.5787 20.8757 33.6369 20.7231 33.6369ZM18.6461 30.0409C18.4935 30.0409 18.341 29.9827 18.2245 29.8664C17.9916 29.6335 17.9916 29.256 18.2245 29.0233L34.9716 12.2761C35.2045 12.0434 35.5819 12.0434 35.8147 12.2761C36.0475 12.509 36.0475 12.8865 35.8147 13.1192L19.0676 29.8664C18.9512 29.9827 18.7987 30.0409 18.6461 30.0409ZM26.4867 38.7221C26.3341 38.7221 26.1816 38.6639 26.0651 38.5474C25.8322 38.3147 25.8322 37.9372 26.0651 37.7045L42.8874 20.8822C43.1202 20.6495 43.4975 20.6495 43.7303 20.8822C43.9632 21.1151 43.9632 21.4925 43.7303 21.7253L26.9083 38.5474C26.7919 38.6638 26.6393 38.7221 26.4867 38.7221ZM22.5747 36.843C22.4221 36.843 22.2696 36.7848 22.1531 36.6684C21.9203 36.4356 21.9203 36.0581 22.1531 35.8254L40.7674 17.2111C41.0003 16.9783 41.3777 16.9783 41.6105 17.2111C41.8434 17.4439 41.8434 17.8214 41.6105 18.0542L22.9962 36.6684C22.88 36.7847 22.7274 36.843 22.5747 36.843ZM16.9459 26.6834C16.7932 26.6834 16.6407 26.6252 16.5243 26.5088C16.2914 26.276 16.2914 25.8985 16.5243 25.6657L29.9139 12.2761C30.1467 12.0434 30.5241 12.0434 30.7569 12.2761C30.9897 12.509 30.9897 12.8865 30.7569 13.1192L17.3673 26.5088C17.251 26.6252 17.0985 26.6834 16.9459 26.6834ZM31.5457 38.7221C31.3932 38.7221 31.2406 38.6639 31.1242 38.5474C30.8913 38.3147 30.8913 37.9372 31.1242 37.7045L44.6114 24.2171C44.8443 23.9843 45.2218 23.9845 45.4546 24.2171C45.6874 24.4499 45.6874 24.8274 45.4546 25.0602L31.9671 38.5474C31.8509 38.6638 31.6982 38.7221 31.5457 38.7221Z" fill="black"/>
<path d="M36.2378 38.7222H25.7622C24.2522 38.7222 22.846 37.9103 22.0922 36.6034L22.0574 36.5426L16.8533 27.5312C16.6147 27.1181 16.4485 26.6695 16.3593 26.1981C16.1718 25.2009 16.3472 24.1695 16.8534 23.2935L22.0923 14.2203C22.846 12.9135 24.2523 12.1016 25.7622 12.1016H36.2377C37.6967 12.1016 39.079 12.8725 39.845 14.1135C39.8675 14.1499 39.8883 14.1846 39.9092 14.2209L45.1468 23.2938C45.3664 23.6752 45.5245 24.0849 45.6172 24.5122C45.8415 25.5434 45.6745 26.6155 45.147 27.5309L39.9091 36.6035C39.1539 37.9104 37.7473 38.7222 36.2378 38.7222ZM25.7622 13.2939C24.677 13.2939 23.6665 13.8773 23.125 14.8162L17.8858 23.8899C17.5222 24.5193 17.3962 25.2605 17.5309 25.977C17.595 26.3158 17.7144 26.6383 17.8857 26.9349L23.1263 36.0098C23.6664 36.9464 24.677 37.5298 25.7621 37.5298H36.2376C37.3226 37.5298 38.3337 36.9463 38.8763 36.0071L44.1141 26.9349C44.4933 26.2771 44.6133 25.5066 44.452 24.7652C44.3853 24.4579 44.2715 24.1632 44.1136 23.8891L38.8763 14.8163C38.861 14.79 38.8461 14.7651 38.8301 14.7393C38.2799 13.8477 37.2864 13.2936 36.2376 13.2936H25.7622V13.2939ZM35.1731 45.0093H27.4231C27.0939 45.0093 26.827 44.7424 26.827 44.4131V41.5838C26.827 41.2544 27.0939 40.9876 27.4231 40.9876H35.1731C35.5024 40.9876 35.7693 41.2544 35.7693 41.5838V44.4131C35.7693 44.7424 35.5024 45.0093 35.1731 45.0093ZM28.0193 43.8169H34.577V42.1799H28.0193V43.8169Z" fill="black"/>
<path d="M31.2978 58.1241C28.5036 58.1241 26.2305 55.851 26.2305 53.0568C26.2305 50.4642 28.1873 48.3201 30.7016 48.0243V44.4126C30.7016 44.0832 30.9685 43.8164 31.2978 43.8164C31.6271 43.8164 31.8939 44.0832 31.8939 44.4126V48.5856C31.8939 48.915 31.6271 49.1818 31.2978 49.1818C29.1612 49.1818 27.4228 50.9201 27.4228 53.0568C27.4228 55.1935 29.1612 56.9318 31.2978 56.9318C33.4344 56.9318 35.1728 55.1935 35.1728 53.0568C35.1728 52.7275 35.4396 52.4606 35.7689 52.4606C36.0982 52.4606 36.3651 52.7275 36.3651 53.0568C36.3651 55.851 34.0919 58.1241 31.2978 58.1241Z" fill="black"/>
<path d="M32.1923 47.3942H30.4038C30.0746 47.3942 29.8077 47.1274 29.8077 46.7981C29.8077 46.4688 30.0746 46.2019 30.4038 46.2019H32.1923C32.5216 46.2019 32.7884 46.4688 32.7884 46.7981C32.7884 47.1274 32.5216 47.3942 32.1923 47.3942ZM48.6224 24.1883C48.2931 24.1883 48.0263 23.9214 48.0263 23.5922V4.47115C48.0263 4.14196 48.2931 3.875 48.6224 3.875C48.9516 3.875 49.2186 4.14196 49.2186 4.47115V23.5922C49.2186 23.9214 48.9516 24.1883 48.6224 24.1883ZM13.3777 24.1883C13.0485 24.1883 12.7815 23.9214 12.7815 23.5922V4.47115C12.7815 4.14196 13.0485 3.875 13.3777 3.875C13.7069 3.875 13.9738 4.14196 13.9738 4.47115V23.5922C13.9738 23.9214 13.7069 24.1883 13.3777 24.1883ZM11.3269 50.9712C8.69716 50.9712 6.55768 48.8317 6.55768 46.2019C6.55768 43.5722 8.69716 41.4327 11.3269 41.4327C13.9567 41.4327 16.0961 43.5722 16.0961 46.2019C16.0961 48.8317 13.9567 50.9712 11.3269 50.9712ZM11.3269 42.625C9.35459 42.625 7.74999 44.2296 7.74999 46.2019C7.74999 48.1742 9.35459 49.7788 11.3269 49.7788C13.2992 49.7788 14.9038 48.1742 14.9038 46.2019C14.9038 44.2296 13.2992 42.625 11.3269 42.625ZM51.8654 46.2019C49.8931 46.2019 48.2884 44.5973 48.2884 42.625C48.2884 40.6527 49.8931 39.0481 51.8654 39.0481C53.8377 39.0481 55.4423 40.6527 55.4423 42.625C55.4423 44.5973 53.8377 46.2019 51.8654 46.2019ZM51.8654 40.2404C50.5506 40.2404 49.4808 41.3101 49.4808 42.625C49.4808 43.9399 50.5506 45.0096 51.8654 45.0096C53.1801 45.0096 54.25 43.9399 54.25 42.625C54.25 41.3101 53.1801 40.2404 51.8654 40.2404Z" fill="black"/>
</svg>
