<svg width="36" height="36" viewBox="0 0 36 36" fill="none" xmlns="http://www.w3.org/2000/svg">
<path d="M34.7231 29.6099H1.27687C0.57375 29.6099 0 29.0362 0 28.3274V6.52492C0 5.81617 0.57375 5.24805 1.27687 5.24805H34.7175C35.4263 5.24805 35.9944 5.8218 35.9944 6.52492V28.3274C36 29.0362 35.4262 29.6099 34.7231 29.6099Z" fill="#E5E5E5"/>
<path d="M20.8015 27.0564H4.03902C3.35277 27.0564 2.7959 26.4995 2.7959 25.8132V9.05074C2.7959 8.36449 3.35277 7.80762 4.03902 7.80762H20.8015C21.4878 7.80762 22.0446 8.36449 22.0446 9.05074V25.8132C22.0446 26.4995 21.4878 27.0564 20.8015 27.0564Z" fill="#C6C1C1"/>
<path d="M12.4203 25.8074C17.0492 25.8074 20.8016 22.055 20.8016 17.4262C20.8016 12.7973 17.0492 9.04492 12.4203 9.04492C7.79148 9.04492 4.03906 12.7973 4.03906 17.4262C4.03906 22.055 7.79148 25.8074 12.4203 25.8074Z" fill="#445B69"/>
<path d="M18.5906 11.7621C17.1 10.3896 15.1088 9.55705 12.9207 9.55705C8.29128 9.55705 4.5394 13.3089 4.5394 17.9383C4.5394 20.1264 5.37753 22.1121 6.7444 23.6083C5.07378 22.0783 4.02753 19.8789 4.02753 17.4321C4.02753 12.8027 7.7794 9.0508 12.4088 9.0508C14.8613 9.04518 17.0607 10.0914 18.5906 11.7621Z" fill="#2F4651"/>
<path d="M9.14034 11.9363C9.03909 12.9375 10.6366 13.6294 11.3735 15.6488H13.1003C14.6472 12.5775 14.6641 10.4063 12.3185 10.2657C11.0416 10.26 9.20784 11.0475 9.14034 11.9363Z" fill="#E5E5E5"/>
<path d="M13.1006 15.6429H12.96C14.3719 12.7235 14.3156 10.676 12.0375 10.541C11.1488 10.541 9.99563 10.9235 9.34875 11.4466C9.8775 10.7773 11.2781 10.2598 12.3188 10.2598C14.6644 10.4004 14.6475 12.5773 13.1006 15.6429Z" fill="#BDBDBE"/>
<path d="M6.92438 20.7055C7.92563 20.8068 8.6175 19.2093 10.6369 18.4724V16.7455C7.56563 15.1987 5.39438 15.1818 5.25375 17.5274C5.24813 18.8043 6.04125 20.638 6.92438 20.7055Z" fill="#E5E5E5"/>
<path d="M10.6368 16.7455V16.8862C7.71747 15.4743 5.66997 15.5305 5.53497 17.8087C5.53497 18.6974 5.91747 19.8505 6.4406 20.4974C5.77122 19.9687 5.25372 18.568 5.25372 17.5274C5.38872 15.1818 7.5656 15.1987 10.6368 16.7455Z" fill="#BDBDBE"/>
<path d="M15.6933 22.922C15.7946 21.9207 14.1971 21.2288 13.4602 19.2095H11.7333C10.1865 22.2807 10.1696 24.452 12.5152 24.5926C13.7977 24.5982 15.6258 23.8051 15.6933 22.922Z" fill="#E5E5E5"/>
<path d="M11.7333 19.2095H11.874C10.4621 22.1288 10.5183 24.1763 12.7965 24.3113C13.6852 24.3113 14.8383 23.9288 15.4852 23.4057C14.9565 24.0751 13.5558 24.5926 12.5152 24.5926C10.1696 24.4576 10.1865 22.2807 11.7333 19.2095Z" fill="#BDBDBE"/>
<path d="M17.91 14.1525C16.9088 14.0513 16.2169 15.6488 14.1975 16.3857V18.1125C17.2688 19.6594 19.44 19.6763 19.5806 17.3307C19.5863 16.0482 18.7931 14.22 17.91 14.1525Z" fill="#E5E5E5"/>
<path d="M14.1975 18.1127V17.9721C17.1169 19.384 19.1644 19.3277 19.2994 17.0496C19.2994 16.1608 18.9169 15.0077 18.3938 14.3608C19.0631 14.8896 19.5806 16.2902 19.5806 17.3308C19.4456 19.6765 17.2688 19.6596 14.1975 18.1127Z" fill="#BDBDBE"/>
<path d="M14.4784 17.4262C14.4784 18.5681 13.5559 19.4906 12.414 19.4906C11.2721 19.4906 10.3496 18.5681 10.3496 17.4262C10.3496 16.2843 11.2721 15.3618 12.414 15.3618C13.5559 15.3674 14.4784 16.2899 14.4784 17.4262Z" fill="#687D87"/>
<path d="M13.5959 17.4264C13.5959 18.0789 13.0671 18.6076 12.4146 18.6076C11.7621 18.6076 11.2334 18.0789 11.2334 17.4264C11.2334 16.7739 11.7621 16.2451 12.4146 16.2451C13.0671 16.2507 13.5959 16.7795 13.5959 17.4264Z" fill="#E5E5E5"/>
<path d="M13.3195 16.667C13.117 16.4982 12.8527 16.397 12.5714 16.397C11.9189 16.397 11.3902 16.9257 11.3902 17.5782C11.3902 17.8651 11.4914 18.1295 11.6658 18.332C11.407 18.1126 11.2383 17.792 11.2383 17.4264C11.2383 16.7739 11.767 16.2451 12.4195 16.2451C12.7795 16.2507 13.1002 16.4139 13.3195 16.667Z" fill="#909192"/>
<path d="M33.21 9.08984H25.0538V14.7261H33.21V9.08984Z" fill="#C6C1C1"/>
<path d="M33.21 16.6895H25.0538V17.3363H33.21V16.6895Z" fill="#C6C1C1"/>
<path d="M33.21 18.377H25.0538V19.0238H33.21V18.377Z" fill="#C6C1C1"/>
<path d="M33.21 20.0645H25.0538V20.7113H33.21V20.0645Z" fill="#C6C1C1"/>
<path d="M33.21 21.7461H25.0538V22.393H33.21V21.7461Z" fill="#C6C1C1"/>
<path d="M33.21 23.4336H25.0538V24.0805H33.21V23.4336Z" fill="#C6C1C1"/>
<path d="M33.21 25.1211H25.0538V25.768H33.21V25.1211Z" fill="#C6C1C1"/>
<path d="M5.91793 30.752H3.69043C3.53855 30.752 3.40918 30.6282 3.40918 30.4707V29.6045H6.19918V30.4707C6.19918 30.6282 6.07543 30.752 5.91793 30.752ZM32.3104 30.752H30.0773C29.9254 30.752 29.796 30.6282 29.796 30.4707V29.6045H32.586V30.4707C32.5917 30.6282 32.4679 30.752 32.3104 30.752Z" fill="#445B69"/>
</svg>
