<svg width="32" height="48" viewBox="0 0 32 48" fill="none" xmlns="http://www.w3.org/2000/svg">
<path d="M30.5275 2.875V45.125C30.5275 45.556 30.3563 45.9693 30.0515 46.274C29.7468 46.5788 29.3335 46.75 28.9025 46.75H23.3937C23.8247 46.75 24.238 46.5788 24.5428 46.274C24.8475 45.9693 25.0187 45.556 25.0187 45.125V2.875C25.0187 2.44402 24.8475 2.0307 24.5428 1.72595C24.238 1.4212 23.8247 1.25 23.3937 1.25H28.9025C29.3335 1.25 29.7468 1.4212 30.0515 1.72595C30.3563 2.0307 30.5275 2.44402 30.5275 2.875ZM20.6475 5.93H11.3525C10.9769 5.93918 10.6096 5.8179 10.3134 5.5868C10.0171 5.3557 9.81005 5.02907 9.7275 4.6625L8.96375 1.25H23.0362L22.24 4.6625C22.1586 5.02354 21.9563 5.34597 21.6668 5.57646C21.3772 5.80694 21.0176 5.93166 20.6475 5.93Z" fill="#EFC41A"/>
<path d="M16.0003 42.8348C17.0862 42.8348 17.9665 41.9545 17.9665 40.8686C17.9665 39.7827 17.0862 38.9023 16.0003 38.9023C14.9143 38.9023 14.034 39.7827 14.034 40.8686C14.034 41.9545 14.9143 42.8348 16.0003 42.8348Z" fill="black"/>
<path d="M28.9025 0.03125H3.0975C2.34461 0.0355158 1.62377 0.336494 1.09138 0.868879C0.558998 1.40126 0.258019 2.12211 0.253754 2.875V45.125C0.258019 45.8779 0.558998 46.5987 1.09138 47.1311C1.62377 47.6635 2.34461 47.9645 3.0975 47.9688H28.9025C29.6554 47.9645 30.3762 47.6635 30.9086 47.1311C31.441 46.5987 31.742 45.8779 31.7463 45.125V2.875C31.742 2.12211 31.441 1.40126 30.9086 0.868879C30.3762 0.336494 29.6554 0.0355158 28.9025 0.03125ZM21.4925 2.46875L21.0538 4.38625C21.0296 4.47667 20.9771 4.55699 20.904 4.61546C20.8309 4.67393 20.741 4.7075 20.6475 4.71125H11.3525C11.259 4.7075 11.1691 4.67393 11.096 4.61546C11.0229 4.55699 10.9704 4.47667 10.9463 4.38625L10.5075 2.46875H21.4925ZM29.3088 45.125C29.3088 45.2327 29.266 45.3361 29.1898 45.4123C29.1136 45.4884 29.0103 45.5312 28.9025 45.5312H3.0975C2.98976 45.5312 2.88643 45.4884 2.81024 45.4123C2.73406 45.3361 2.69125 45.2327 2.69125 45.125V2.875C2.69125 2.76726 2.73406 2.66392 2.81024 2.58774C2.88643 2.51155 2.98976 2.46875 3.0975 2.46875H7.9725L8.54125 4.93875C8.68503 5.56771 9.03842 6.12907 9.54337 6.53067C10.0483 6.93227 10.6748 7.15023 11.32 7.14875H20.615C21.2602 7.15023 21.8867 6.93227 22.3916 6.53067C22.8966 6.12907 23.25 5.56771 23.3938 4.93875L23.9625 2.46875H28.8375C28.9452 2.46875 29.0486 2.51155 29.1248 2.58774C29.201 2.66392 29.2438 2.76726 29.2438 2.875L29.3088 45.125Z" fill="black"/>
</svg>
