<svg width="52" height="52" viewBox="0 0 52 52" fill="none" xmlns="http://www.w3.org/2000/svg">
<g clip-path="url(#clip0_6985_49495)">
<path d="M19.9568 5.26211C20.1092 5.41403 20.3157 5.49925 20.5309 5.49906C20.7461 5.49887 20.9525 5.41329 21.1047 5.2611C21.2569 5.10892 21.3425 4.90257 21.3426 4.68734C21.3428 4.47212 21.2576 4.26562 21.1057 4.11317L19.6056 2.61314C19.5303 2.5373 19.4407 2.47709 19.342 2.43594C19.2434 2.3948 19.1376 2.37353 19.0306 2.37336C18.9237 2.37319 18.8179 2.39412 18.7191 2.43496C18.6203 2.47579 18.5305 2.53572 18.4549 2.61132C18.3793 2.68691 18.3194 2.77668 18.2785 2.87548C18.2377 2.97428 18.2168 3.08017 18.2169 3.18708C18.2171 3.29398 18.2384 3.3998 18.2795 3.49847C18.3207 3.59714 18.3809 3.68672 18.4567 3.76207L19.9568 5.26211ZM16.6552 8.12534C16.7043 8.12527 16.7533 8.12088 16.8016 8.11224L18.6349 7.77899C18.8467 7.74026 19.0345 7.619 19.157 7.44186C19.2795 7.26472 19.3267 7.04619 19.2882 6.8343C19.2496 6.62241 19.1285 6.43448 18.9515 6.31182C18.7745 6.18917 18.556 6.14181 18.3441 6.18015L16.5108 6.51341C16.3113 6.54971 16.1326 6.65928 16.0097 6.82061C15.8869 6.98193 15.8288 7.18336 15.8469 7.38531C15.865 7.58727 15.958 7.77516 16.1075 7.91208C16.2571 8.04901 16.4524 8.12508 16.6552 8.12534ZM22.6775 3.44548C22.7258 3.45432 22.7748 3.4587 22.8239 3.45857C23.014 3.45827 23.198 3.39134 23.3439 3.26942C23.4898 3.14751 23.5883 2.97831 23.6223 2.79127L23.9556 0.957969C23.9753 0.852738 23.9739 0.744655 23.9517 0.639931C23.9295 0.535207 23.8868 0.435908 23.8261 0.347739C23.7654 0.259571 23.6878 0.184271 23.5979 0.126169C23.508 0.0680667 23.4075 0.0283067 23.3021 0.00917427C23.1968 -0.00995819 23.0887 -0.00808597 22.9841 0.0146833C22.8795 0.0374526 22.7804 0.0806701 22.6926 0.141852C22.6047 0.203034 22.5298 0.280974 22.4722 0.371193C22.4146 0.461412 22.3753 0.562131 22.3568 0.667561L22.0235 2.50086C22.0044 2.60583 22.0062 2.71353 22.0287 2.81782C22.0512 2.9221 22.0941 3.02093 22.1548 3.10865C22.2156 3.19637 22.293 3.27126 22.3827 3.32906C22.4724 3.38685 22.5725 3.42641 22.6775 3.44548ZM46.262 46.7389C46.1867 46.6631 46.0971 46.603 45.9984 46.5619C45.8998 46.5208 45.794 46.4996 45.6871 46.4995C45.5803 46.4993 45.4744 46.5203 45.3757 46.5611C45.2769 46.602 45.1872 46.6619 45.1116 46.7374C45.0361 46.813 44.9762 46.9027 44.9353 47.0015C44.8945 47.1002 44.8735 47.2061 44.8737 47.3129C44.8738 47.4198 44.895 47.5256 44.9361 47.6242C44.9772 47.7229 45.0373 47.8125 45.1131 47.8878L46.6131 49.3879C46.7672 49.5369 46.9732 49.6202 47.1876 49.6202C47.402 49.6202 47.608 49.5369 47.7621 49.3879C47.8375 49.3125 47.8974 49.2229 47.9382 49.1243C47.9791 49.0258 48.0001 48.9201 48.0001 48.8134C48.0001 48.7067 47.9791 48.6011 47.9382 48.5025C47.8974 48.4039 47.8375 48.3144 47.7621 48.2389L46.262 46.7389ZM50.3618 44.543C50.3232 44.331 50.202 44.1431 50.0249 44.0204C49.8478 43.8977 49.6292 43.8504 49.4172 43.8888L47.5839 44.222C47.3844 44.2583 47.2056 44.3678 47.0827 44.5292C46.9599 44.6905 46.9018 44.892 46.9199 45.094C46.938 45.2959 47.0309 45.4839 47.1805 45.6208C47.3301 45.7577 47.5255 45.8338 47.7283 45.834C47.7773 45.8339 47.8261 45.8295 47.8743 45.8209L49.7076 45.4876C49.8126 45.4685 49.9128 45.429 50.0025 45.3712C50.0922 45.3134 50.1696 45.2385 50.2304 45.1508C50.2911 45.0631 50.334 44.9643 50.3566 44.86C50.3791 44.7557 50.3809 44.648 50.3618 44.543ZM43.5409 48.5555C43.4359 48.5362 43.3281 48.5378 43.2237 48.5603C43.1193 48.5828 43.0204 48.6256 42.9327 48.6864C42.8449 48.7472 42.77 48.8247 42.7123 48.9145C42.6545 49.0043 42.6151 49.1047 42.5963 49.2098L42.263 51.0431C42.2439 51.148 42.2457 51.2557 42.2683 51.36C42.2908 51.4643 42.3337 51.5631 42.3945 51.6509C42.4552 51.7386 42.5326 51.8135 42.6223 51.8713C42.712 51.9291 42.8122 51.9686 42.9172 51.9877C42.9654 51.9963 43.0143 52.0007 43.0632 52.0008C43.2534 52.0005 43.4374 51.9336 43.5833 51.8117C43.7292 51.6897 43.8278 51.5205 43.8618 51.3335L44.1951 49.5002C44.2142 49.3952 44.2124 49.2875 44.1898 49.1832C44.1673 49.0789 44.1244 48.9801 44.0636 48.8923C44.0029 48.8046 43.9254 48.7297 43.8358 48.6719C43.7461 48.6142 43.6459 48.5746 43.5409 48.5555ZM43.0408 41.45C43.6929 41.0326 44.2287 40.4568 44.5982 39.7764C44.9678 39.096 45.159 38.3331 45.1542 37.5589C45.1561 36.8088 44.9772 36.0692 44.6327 35.4029C45.1958 34.9718 45.6514 34.4162 45.9638 33.7795C46.2763 33.1429 46.4371 32.4425 46.4337 31.7334C46.4361 30.9519 46.2429 30.1823 45.8716 29.4947C46.3936 29.0609 46.8131 28.517 47.1001 27.9019C47.387 27.2868 47.5342 26.6158 47.5312 25.9371C47.5312 23.5077 45.9366 21.938 43.4687 21.938H31.4007C32.0433 19.2425 32.6931 15.3348 32.6037 14.4087C32.3868 12.192 31.8792 7.00592 28.6092 5.39404C28.075 5.11252 27.4882 4.94485 26.8859 4.9016C26.2836 4.85836 25.6789 4.94048 25.11 5.14279C24.5564 5.3601 24.0467 5.67587 23.6057 6.07481C21.8547 7.64138 21.9514 9.76943 22.029 11.4793C22.0448 11.8251 22.0596 12.1517 22.0596 12.46V14.2652C21.8724 15.5107 16.7399 24.4875 16.5547 24.8311C16.1678 25.0573 15.4215 25.4562 14.6249 25.8693V25.7549C14.6129 24.9474 14.2811 24.1776 13.7023 23.6144C13.1235 23.0512 12.3449 22.7405 11.5374 22.7505H4.71248C3.90493 22.7405 3.12639 23.0512 2.54759 23.6144C1.96879 24.1776 1.63699 24.9474 1.62494 25.7549V45.7463C1.63699 46.5538 1.96879 47.3236 2.54759 47.8868C3.12639 48.45 3.90493 48.7607 4.71248 48.7507H11.5374C12.2338 48.7564 12.9116 48.5253 13.4595 48.0954C14.0074 47.6654 14.3931 47.0621 14.5533 46.3843C14.6822 46.3944 16.914 46.3281 16.9498 46.3322C17.2255 46.4746 17.4876 46.6419 17.7329 46.8319C18.2958 47.2766 18.93 47.6227 19.6086 47.8554C19.7599 47.9008 19.917 47.924 20.075 47.9242L39.085 47.9296C40.2663 47.9054 41.3898 47.4138 42.2093 46.5626C43.0288 45.7114 43.4774 44.57 43.4567 43.3886C43.4581 42.7202 43.3163 42.0591 43.0408 41.45ZM12.9999 45.7463C12.9881 46.1229 12.8276 46.4795 12.5535 46.738C12.2794 46.9965 11.914 47.1359 11.5374 47.1257H4.71248C4.33583 47.1359 3.97046 46.9965 3.69635 46.738C3.42225 46.4795 3.26173 46.1229 3.24994 45.7463V25.7549C3.26173 25.3783 3.42225 25.0217 3.69635 24.7632C3.97046 24.5047 4.33583 24.3653 4.71248 24.3755H11.5374C11.9141 24.3653 12.2794 24.5047 12.5535 24.7632C12.8276 25.0217 12.9881 25.3783 12.9999 25.7549L12.9999 45.7463ZM41.9009 40.2252C41.8816 40.2238 41.8633 40.2194 41.8437 40.2194H38.9999C38.7844 40.2194 38.5778 40.305 38.4254 40.4574C38.273 40.6097 38.1874 40.8164 38.1874 41.0319C38.1874 41.2474 38.273 41.454 38.4254 41.6064C38.5778 41.7588 38.7844 41.8444 38.9999 41.8444H41.4126C41.6883 42.3122 41.833 42.8456 41.8317 43.3886C41.8541 44.1395 41.5773 44.8686 41.0622 45.4154C40.5471 45.9622 39.8359 46.282 39.085 46.3046L20.0764 46.2992C19.1207 46.0118 18.4152 45.1631 17.5005 44.8012C17.247 44.7202 16.9812 44.685 16.7153 44.6972C16.1639 44.6972 14.7306 44.7705 14.6249 44.7606V27.6962C15.5502 27.2239 17.7561 26.085 17.8211 25.9262C18.1709 25.0914 23.6846 16.08 23.6846 14.3035V12.46C23.6846 10.6412 23.2383 8.58386 24.6857 7.28897C25.1576 6.83377 25.7728 6.5562 26.4264 6.5035C26.9358 6.49647 27.439 6.61608 27.8907 6.85158C30.2285 8.00394 30.7521 12.1726 30.9862 14.5648C31.1099 15.8457 29.5785 23.0791 29.2499 23.563H43.4687C44.9903 23.563 45.9062 24.3225 45.9062 25.9371C45.9113 26.4331 45.7911 26.9223 45.5568 27.3595C45.3224 27.7967 44.9815 28.1677 44.5657 28.438H38.9999C38.7844 28.438 38.5778 28.5236 38.4254 28.676C38.273 28.8284 38.1874 29.035 38.1874 29.2505C38.1874 29.466 38.273 29.6727 38.4254 29.8251C38.5778 29.9774 38.7844 30.063 38.9999 30.063H44.3103C44.6372 30.5586 44.8106 31.1397 44.8086 31.7334C44.8125 32.1966 44.7076 32.6543 44.5026 33.0698C44.2976 33.4852 43.998 33.8468 43.628 34.1256H38.9999C38.7844 34.1256 38.5778 34.2112 38.4254 34.3635C38.273 34.5159 38.1874 34.7226 38.1874 34.9381C38.1874 35.1536 38.273 35.3602 38.4254 35.5126C38.5778 35.665 38.7844 35.7506 38.9999 35.7506H42.9378C43.325 36.2737 43.5325 36.908 43.5292 37.5588C43.537 38.1116 43.3883 38.6553 43.1001 39.1272C42.812 39.599 42.3962 39.9797 41.9009 40.2252Z" fill="black"/>
<path d="M12.9999 45.7463C12.9881 46.1229 12.8276 46.4795 12.5535 46.738C12.2794 46.9965 11.914 47.1359 11.5374 47.1257H4.71248C4.33583 47.1359 3.97046 46.9965 3.69635 46.738C3.42225 46.4795 3.26173 46.1229 3.24994 45.7463V25.7549C3.26173 25.3783 3.42225 25.0217 3.69635 24.7632C3.97046 24.5047 4.33583 24.3653 4.71248 24.3755H11.5374C11.9141 24.3653 12.2794 24.5047 12.5535 24.7632C12.8276 25.0217 12.9881 25.3783 12.9999 25.7549L12.9999 45.7463Z" fill="black"/>
<path d="M8.12493 39.8125C7.64283 39.8125 7.17156 39.9554 6.77071 40.2233C6.36985 40.4911 6.05743 40.8718 5.87293 41.3172C5.68844 41.7626 5.64016 42.2527 5.73421 42.7255C5.82826 43.1984 6.06041 43.6327 6.4013 43.9736C6.7422 44.3145 7.17652 44.5467 7.64936 44.6407C8.12219 44.7348 8.6123 44.6865 9.0577 44.502C9.5031 44.3175 9.88379 44.0051 10.1516 43.6042C10.4195 43.2034 10.5624 42.7321 10.5624 42.25C10.5617 41.6038 10.3047 40.9842 9.8477 40.5272C9.39074 40.0703 8.77117 39.8132 8.12493 39.8125ZM8.12493 43.0625C7.96423 43.0625 7.80714 43.0149 7.67353 42.9256C7.53991 42.8363 7.43577 42.7094 7.37428 42.561C7.31278 42.4125 7.29669 42.2491 7.32804 42.0915C7.35939 41.9339 7.43677 41.7891 7.5504 41.6755C7.66403 41.5619 7.80881 41.4845 7.96642 41.4531C8.12403 41.4218 8.28739 41.4379 8.43586 41.4994C8.58432 41.5609 8.71122 41.665 8.8005 41.7986C8.88978 41.9322 8.93743 42.0893 8.93743 42.25C8.93743 42.4655 8.85183 42.6722 8.69945 42.8246C8.54708 42.9769 8.34042 43.0625 8.12493 43.0625Z" fill="black"/>
<rect x="3.35449" y="25.1641" width="9.22581" height="20.9677" rx="2" fill="#EFC41A"/>
</g>
<defs>
<clipPath id="clip0_6985_49495">
<rect width="52" height="52" fill="white"/>
</clipPath>
</defs>
</svg>
