<svg width="36" height="36" viewBox="0 0 36 36" fill="none" xmlns="http://www.w3.org/2000/svg">
<path d="M25.5465 1.38477H17.2388C16.3388 1.38477 15.6465 2.07707 15.6465 2.97707V7.26938C15.6465 8.16938 16.3388 8.86169 17.2388 8.86169H25.5465C26.4465 8.86169 27.1388 8.16938 27.1388 7.26938V2.97707C27.1388 2.07707 26.4465 1.38477 25.5465 1.38477Z" fill="#676767"/>
<path d="M9.90039 6.99219H26.1004V14.1922H9.90039V6.99219Z" fill="#676767"/>
<path d="M1.38464 13.2925V24.1617C1.38464 25.9617 2.83849 27.4848 4.70772 27.4848H31.3616C33.1616 27.4848 34.6846 26.0309 34.6846 24.1617V13.2925H1.38464Z" fill="#676767"/>
<path d="M16.8923 19.7998H2.00772C1.66157 19.7998 1.38464 20.0767 1.38464 20.4229V26.7921C1.38464 27.1383 1.66157 27.4152 2.00772 27.4152H16.8923C17.2385 27.4152 17.5154 27.1383 17.5154 26.7921V20.4229C17.5846 20.0767 17.2385 19.7998 16.8923 19.7998V19.7998Z" fill="#E7B95E"/>
<path d="M33.9923 19.7999H19.1077C18.7616 19.7999 18.4846 20.0769 18.4846 20.423V26.7923C18.4846 27.1384 18.7616 27.4153 19.1077 27.4153H33.9923C34.3385 27.4153 34.6154 27.1384 34.6154 26.7923V20.423C34.6154 20.0769 34.3385 19.7999 33.9923 19.7999V19.7999ZM16.8923 11.2153H2.00772C1.66157 11.2153 1.38464 11.4923 1.38464 11.8384V18.2076C1.38464 18.5538 1.66157 18.8307 2.00772 18.8307H16.8923C17.2385 18.8307 17.5154 18.5538 17.5154 18.2076V11.8384C17.5846 11.4923 17.2385 11.2153 16.8923 11.2153Z" fill="#FFCC67"/>
<path d="M33.9923 11.2153H19.1077C18.7615 11.2153 18.4846 11.4923 18.4846 11.8384V18.2076C18.4846 18.5538 18.7615 18.8307 19.1077 18.8307H33.9923C34.3385 18.8307 34.6154 18.5538 34.6154 18.2076V11.8384C34.6154 11.4923 34.3385 11.2153 33.9923 11.2153Z" fill="#E7B95E"/>
<path d="M25.4773 2.7002H10.5235C10.1773 2.7002 9.90039 2.97712 9.90039 3.32327V9.6925C9.90039 10.0387 10.1773 10.3156 10.5235 10.3156H25.4081C25.7542 10.3156 26.0312 10.0387 26.0312 9.6925V3.32327C26.1004 2.97712 25.8235 2.7002 25.4773 2.7002V2.7002Z" fill="#FFCC67"/>
<path d="M22.2927 17.031L9.27727 12.8079C7.96189 12.3925 6.71573 13.6386 7.13112 14.954L11.3542 27.9694C11.7696 29.1463 13.2234 29.4925 14.1234 28.6617L22.8465 19.9386C23.8157 18.9002 23.4696 17.4463 22.2927 17.031Z" fill="#E6E6E5"/>
<path d="M23.1228 27.3464L22.4305 28.0387L22.1536 28.1079L20.2843 26.2387L19.1074 25.131L17.9997 24.0233L17.2382 23.1925L17.1689 22.9849V22.7772C17.3074 22.6387 17.6536 22.6387 17.9305 22.8464L23.1228 27.3464Z" fill="#E6E6E5"/>
<path d="M22.4303 28.0384L17.1688 22.7769C17.0303 22.9153 17.0303 23.2615 17.238 23.5384L21.738 28.7307L22.4303 28.0384Z" fill="#CDCCCC"/>
<path d="M22.7073 26.2388L20.6304 28.3157C20.4227 28.5234 20.4227 28.9388 20.6304 29.1465L25.5458 34.0619C26.3765 34.8926 27.6227 34.8926 28.4535 34.0619C29.2842 33.2311 29.2842 31.9849 28.4535 31.1542L23.5381 26.2388C23.2611 26.0311 22.915 26.0311 22.7073 26.2388Z" fill="#ED7161"/>
</svg>
