<svg width="36" height="36" viewBox="0 0 36 36" fill="none" xmlns="http://www.w3.org/2000/svg">
<path d="M26.561 4.58791H5.27844C5.17575 4.58721 5.07395 4.60692 4.97895 4.64589C4.88395 4.68486 4.79763 4.74232 4.72502 4.81493C4.65241 4.88754 4.59496 4.97385 4.55598 5.06885C4.51701 5.16386 4.4973 5.26566 4.498 5.36834V10.1827C4.4973 10.2854 4.51701 10.3872 4.55598 10.4822C4.59496 10.5772 4.65241 10.6635 4.72502 10.7362C4.79763 10.8088 4.88395 10.8662 4.97895 10.9052C5.07395 10.9442 5.17575 10.9639 5.27844 10.9632H26.561C26.6637 10.9639 26.7655 10.9442 26.8605 10.9052C26.9555 10.8662 27.0418 10.8088 27.1144 10.7362C27.187 10.6635 27.2445 10.5772 27.2834 10.4822C27.3224 10.3872 27.3421 10.2854 27.3414 10.1827V5.36834C27.3414 5.2661 27.3212 5.16487 27.2819 5.07048C27.2426 4.97608 27.1851 4.8904 27.1125 4.81835C27.04 4.7463 26.9539 4.68931 26.8593 4.65067C26.7646 4.61202 26.6632 4.59249 26.561 4.59318V4.58791Z" fill="#64B5F6"/>
<path d="M27.9004 7.27686H31.4967V17.0428H16.157V19.5212H14.9864V15.8721H30.3208V8.45277H27.8951L27.9004 7.27686Z" fill="#424242"/>
<path d="M13.2676 30.1733V20.1753C13.2676 19.8481 13.3976 19.5342 13.629 19.3028C13.8604 19.0714 14.1742 18.9414 14.5015 18.9414H16.7637C17.0909 18.9414 17.4048 19.0714 17.6362 19.3028C17.8676 19.5342 17.9976 19.8481 17.9976 20.1753V30.1733C17.9976 30.5005 17.8676 30.8144 17.6362 31.0458C17.4048 31.2772 17.0909 31.4072 16.7637 31.4072H14.5015C14.1742 31.4072 13.8604 31.2772 13.629 31.0458C13.3976 30.8144 13.2676 30.5005 13.2676 30.1733V30.1733Z" fill="#424242"/>
</svg>
