<svg width="36" height="36" viewBox="0 0 36 36" fill="none" xmlns="http://www.w3.org/2000/svg">
<path d="M11.0392 11.8361L5.42841 7.31445H4.92188V7.62861L10.591 12.1974L4.92188 16.766V17.4884L11.0392 12.5585L17.0643 17.4143V16.6919L11.4874 12.1974L17.0643 7.70286V7.31445H16.6499L11.0392 11.8361Z" fill="#414042"/>
<path d="M17.0643 18.4053L11.0392 23.2609L4.92188 18.3311V19.0534L10.591 23.6221L4.92188 28.1908V28.9132L11.0392 23.9833L17.0643 28.839V28.1166L11.4874 23.6221L17.0643 19.1277V18.4053Z" fill="#414042"/>
<path d="M24.9608 11.8356L19.35 7.31396H18.9355V7.70237L24.5126 12.1969L18.9355 16.6914V17.4138L24.9608 12.558L31.0784 17.4883V16.7659L25.4089 12.1969L31.0784 7.62784V7.31396H30.5714L24.9608 11.8356Z" fill="#414042"/>
<path d="M31.0784 28.1909L25.4089 23.6219L31.0784 19.053V18.3306L24.9608 23.2607L18.9355 18.4051V19.1275L24.5126 23.6219L18.9355 28.1164V28.8388L24.9608 23.9831L31.0784 28.9133V28.1909Z" fill="#414042"/>
<path d="M32.9495 7.3141H3.04999V2.41064C3.04999 2.02238 3.36485 1.70752 3.75311 1.70752H32.2464C32.6347 1.70752 32.9495 2.02238 32.9495 2.41064V7.3141Z" fill="#FFA91A"/>
<path d="M16.4998 2.83252H16.4094C16.2541 2.83252 16.1281 2.70652 16.1281 2.55127C16.1281 2.39602 16.2541 2.27002 16.4094 2.27002H16.4998C16.655 2.27002 16.781 2.39602 16.781 2.55127C16.781 2.70652 16.655 2.83252 16.4998 2.83252ZM15.2844 2.83252H3.89374C3.73849 2.83252 3.61249 2.70652 3.61249 2.55127C3.61249 2.39602 3.73849 2.27002 3.89374 2.27002H15.2844C15.4396 2.27002 15.5656 2.39602 15.5656 2.55127C15.5656 2.70652 15.4396 2.83252 15.2844 2.83252Z" fill="#FFC91D"/>
<path d="M32.2464 1.70752H31.5433V5.20472C31.5433 5.59299 31.2284 5.90785 30.8402 5.90785H3.04999V7.3141H32.9495V2.41064C32.9495 2.02238 32.6347 1.70752 32.2464 1.70752Z" fill="#F79219"/>
<path d="M32.2464 1.70752V5.90785C32.2464 6.29611 31.9316 6.61097 31.5433 6.61097H3.04999V7.3141H32.9495V2.41064C32.9495 2.02224 32.6347 1.70752 32.2464 1.70752Z" fill="#EF7816"/>
<path d="M4.92157 7.31396H3.04999V32.1828H4.92157V7.31396Z" fill="#939598"/>
<path d="M4.21844 7.31396V31.1984C4.21844 31.3538 4.09258 31.4797 3.93719 31.4797H3.04999V32.1828H4.92157V7.31396H4.21844Z" fill="#808285"/>
<path d="M6.04657 34.2925H1.92499C1.7696 34.2925 1.64374 34.1666 1.64374 34.0112V32.8862C1.64374 32.498 1.9586 32.1831 2.34686 32.1831H5.62469C6.01296 32.1831 6.32782 32.498 6.32782 32.8862V34.0112C6.32782 34.1666 6.20196 34.2925 6.04657 34.2925Z" fill="#58595B"/>
<path d="M5.62469 32.1831V33.3081C5.62469 33.4634 5.49883 33.5894 5.34344 33.5894H1.64374V34.0112C1.64374 34.1665 1.7696 34.2925 1.92499 34.2925H6.04657C6.20196 34.2925 6.32782 34.1665 6.32782 34.0112V32.8862C6.32782 32.498 6.0131 32.1831 5.62469 32.1831Z" fill="#414042"/>
<path d="M32.9497 7.31445H31.0781V32.1833H32.9497V7.31445Z" fill="#939598"/>
<path d="M32.2466 7.31445V31.1989C32.2466 31.3543 32.1207 31.4802 31.9653 31.4802H31.0781V32.1833H32.9497V7.31445H32.2466Z" fill="#808285"/>
<path d="M34.0747 34.2925H29.9531C29.7977 34.2925 29.6719 34.1666 29.6719 34.0112V32.8862C29.6719 32.498 29.9867 32.1831 30.375 32.1831H33.6528C34.0411 32.1831 34.356 32.498 34.356 32.8862V34.0112C34.356 34.1666 34.23 34.2925 34.0747 34.2925Z" fill="#58595B"/>
<path d="M33.6528 32.1831V33.3081C33.6528 33.4634 33.527 33.5894 33.3716 33.5894H29.6719V34.0112C29.6719 34.1665 29.7977 34.2925 29.9531 34.2925H34.0747C34.2301 34.2925 34.356 34.1665 34.356 34.0112V32.8862C34.356 32.498 34.0411 32.1831 33.6528 32.1831Z" fill="#414042"/>
<path d="M18.936 7.31445H17.0645V32.1833H18.936V7.31445Z" fill="#939598"/>
<path d="M18.2329 7.31445V31.1989C18.2329 31.3543 18.107 31.4802 17.9517 31.4802H17.0645V32.1833H18.936V7.31445H18.2329Z" fill="#808285"/>
<path d="M20.061 34.2925H15.9395C15.7841 34.2925 15.6582 34.1666 15.6582 34.0112V32.8862C15.6582 32.498 15.9731 32.1831 16.3613 32.1831H19.6392C20.0274 32.1831 20.3423 32.498 20.3423 32.8862V34.0112C20.3423 34.1666 20.2164 34.2925 20.061 34.2925Z" fill="#58595B"/>
<path d="M19.6392 32.1831V33.3081C19.6392 33.4634 19.5133 33.5894 19.3579 33.5894H15.6582V34.0112C15.6582 34.1665 15.7841 34.2925 15.9395 34.2925H20.061C20.2164 34.2925 20.3423 34.1665 20.3423 34.0112V32.8862C20.3423 32.498 20.0276 32.1831 19.6392 32.1831Z" fill="#414042"/>
</svg>
