<svg width="36" height="36" viewBox="0 0 36 36" fill="none" xmlns="http://www.w3.org/2000/svg">
<path d="M21.0375 11.7L20.5273 10.6796C20.3429 10.3108 20.2084 9.91904 20.1274 9.51469L20.1223 9.48769C19.9863 8.80821 20.0043 8.10691 20.1748 7.43528C20.3454 6.76365 20.6642 6.13874 21.1078 5.60644V5.60644C21.5436 5.0839 22.089 4.66355 22.7052 4.37515C23.3215 4.08674 23.9936 3.93734 24.6741 3.9375H25.4166C25.7217 3.93756 26.0263 3.96277 26.3272 4.01288L26.7874 4.08938C27.5615 4.2184 28.2993 4.51051 28.952 4.94632C29.6046 5.38213 30.1572 5.95169 30.573 6.61725V6.61725C31.0345 7.35562 31.3155 8.19242 31.393 9.05972C31.4705 9.92702 31.3424 10.8004 31.0191 11.6089L30.9375 11.8125L31.3346 12.8053C31.5435 13.3276 31.5743 13.9042 31.4224 14.4457C31.2705 14.9873 30.9443 15.4637 30.4942 15.8012C30.0515 16.1331 29.5131 16.3125 28.9597 16.3125H27.1457C26.6822 16.3125 26.2274 16.1865 25.83 15.948L23.895 14.787C23.7147 14.6789 23.5484 14.5489 23.4 14.4L21.9054 12.9054C21.5533 12.5528 21.2602 12.1458 21.0375 11.7V11.7Z" fill="#808080"/>
<path d="M18 18H2.25V33.75H18V18Z" fill="#039791"/>
<path d="M18 2.25H2.25V18H18V2.25Z" fill="#03AAA5"/>
<path d="M33.75 18H18V33.75H33.75V18Z" fill="#03AAA5"/>
<path d="M18 11.25C16.2098 11.25 14.4929 11.9612 13.227 13.227C11.9612 14.4929 11.25 16.2098 11.25 18H8.4375C8.44033 15.4647 9.44871 13.0341 11.2414 11.2414C13.0341 9.44871 15.4647 8.44033 18 8.4375V11.25Z" fill="#039791"/>
<path d="M11.25 18C11.25 19.7902 11.9612 21.5071 13.227 22.773C14.4929 24.0388 16.2098 24.75 18 24.75V27.5625C15.4647 27.5597 13.0341 26.5513 11.2414 24.7586C9.44871 22.9659 8.44033 20.5353 8.4375 18H11.25Z" fill="#03AAA5"/>
<path d="M18 24.75C19.7902 24.75 21.5071 24.0388 22.773 22.773C24.0388 21.5071 24.75 19.7902 24.75 18H27.5625C27.5597 20.5353 26.5513 22.9659 24.7586 24.7586C22.9659 26.5513 20.5353 27.5597 18 27.5625V24.75Z" fill="#039791"/>
<path d="M7.875 33.75C7.875 33.0113 7.72951 32.2799 7.44682 31.5974C7.16414 30.9149 6.74981 30.2949 6.22748 29.7725C5.70515 29.2502 5.08505 28.8359 4.40259 28.5532C3.72014 28.2705 2.98869 28.125 2.25 28.125V25.875C4.33789 25.8772 6.33963 26.7076 7.816 28.184C9.29236 29.6604 10.1228 31.6621 10.125 33.75H7.875ZM33.75 28.125C32.2582 28.125 30.8274 28.7176 29.7725 29.7725C28.7176 30.8274 28.125 32.2582 28.125 33.75H25.875C25.8772 31.6621 26.7076 29.6604 28.184 28.184C29.6604 26.7076 31.6621 25.8772 33.75 25.875V28.125ZM2.25 7.875C2.98869 7.875 3.72014 7.72951 4.40259 7.44682C5.08505 7.16414 5.70515 6.74981 6.22748 6.22748C6.74981 5.70515 7.16414 5.08505 7.44682 4.40259C7.72951 3.72014 7.875 2.98869 7.875 2.25H10.125C10.1228 4.33789 9.29236 6.33963 7.816 7.816C6.33963 9.29236 4.33789 10.1228 2.25 10.125V7.875Z" fill="#82D1DF"/>
<path d="M20.25 15.7498L22.2187 9.44252C22.4566 8.6817 22.9497 8.02628 23.6148 7.58693C24.2799 7.14759 25.0763 6.95125 25.8694 7.03108V7.03108C26.6643 7.1107 27.4072 7.46283 27.9721 8.02773C28.537 8.59263 28.8891 9.33554 28.9687 10.1305V10.1305C29.0486 10.9236 28.8522 11.7199 28.4129 12.385C27.9736 13.0501 27.3181 13.5433 26.5573 13.7811L20.25 15.7498Z" fill="#E6E6E6"/>
<path d="M26.4375 9.5625L29.25 6.75" stroke="#F4E09C" stroke-width="2" stroke-linejoin="round"/>
<path d="M34.3044 3.3663L32.6251 1.68701L28.4062 5.90592L30.0854 7.58521L34.3044 3.3663Z" fill="#C69C6D"/>
</svg>
