<svg width="36" height="36" viewBox="0 0 36 36" fill="none" xmlns="http://www.w3.org/2000/svg">
<path d="M32.9999 10.5H3.00017C1.75979 10.5 0.750244 11.5096 0.750244 12.7499V15.7497C0.750244 16.9905 1.75979 18.0001 3.00017 18.0001H32.9999C34.2391 18.0001 35.2498 16.9905 35.2498 15.7497V12.7499C35.2498 11.5096 34.2391 10.5 32.9999 10.5V10.5Z" fill="#CCD1D9"/>
<path d="M4.49974 14.2501H3.75049C3.33635 14.2501 3.00018 13.9145 3.00018 13.4998C3.00018 13.0857 3.33635 12.75 3.75049 12.75H4.49974C4.91388 12.75 5.24948 13.0856 5.24948 13.4998C5.24948 13.9145 4.91388 14.2501 4.49974 14.2501V14.2501ZM4.49974 15.7497H3.75049C3.33635 15.7497 3.00018 15.4141 3.00018 14.9999C3.00018 14.5857 3.33635 14.2501 3.75049 14.2501H4.49974C4.91388 14.2501 5.24948 14.5857 5.24948 14.9999C5.24948 15.4141 4.91388 15.7497 4.49974 15.7497V15.7497ZM32.2485 14.2501H31.4992C31.0862 14.2501 30.75 13.9145 30.75 13.4998C30.75 13.0857 31.0862 12.75 31.4992 12.75H32.2485C32.6638 12.75 33 13.0856 33 13.4998C32.9999 13.9145 32.6638 14.2501 32.2485 14.2501ZM32.2485 15.7497H31.4992C31.0862 15.7497 30.75 15.4141 30.75 14.9999C30.75 14.5857 31.0862 14.2501 31.4992 14.2501H32.2485C32.6638 14.2501 33 14.5857 33 14.9999C33 15.4141 32.6638 15.7497 32.2485 15.7497Z" fill="#AAB2BC"/>
<path d="M30.5697 2.13721C29.302 0.659035 27.2762 0.000488281 24.0002 0.000488281H11.9997C9.43014 0.000488281 7.42195 0.704668 6.03222 2.09496C4.51783 3.60886 3.75044 5.93233 3.74988 8.99957V22.4996C3.74988 25.936 4.66717 29.1505 6.33323 31.552C8.35239 34.4611 11.3494 35.9991 15 35.9991H20.9988C25.4942 35.9991 28.2013 33.2636 29.6799 30.9674C31.5739 28.0276 32.2495 24.666 32.2495 22.4995V9.00007C32.2506 5.56368 31.7475 3.51154 30.5697 2.13721V2.13721Z" fill="#656D78"/>
<path opacity="0.1" d="M30.5693 2.1377C29.3016 0.659523 27.2758 0.000976562 23.9998 0.000976562H22.499C25.775 0.000976562 27.802 0.659523 29.0687 2.1377C30.2463 3.51203 30.7494 5.56417 30.7494 9.00055V22.5001C30.7494 24.6665 30.0749 28.0282 28.1799 30.968C26.7001 33.2641 23.9943 35.9996 19.5 35.9996H20.9984C25.4939 35.9996 28.2009 33.2641 29.6796 30.968C31.5735 28.0282 32.2491 24.6665 32.2491 22.5001V9.00055C32.2502 5.56417 31.747 3.51203 30.5693 2.1377V2.1377Z" fill="white"/>
<path d="M15 8.25H10.5002C10.086 8.25 9.74988 8.5856 9.74988 8.99981C9.74988 9.41452 10.086 9.75012 10.5002 9.75012H15C15.4143 9.75012 15.7499 9.41452 15.7499 8.99981C15.7499 8.5856 15.4143 8.25 15 8.25V8.25ZM25.4986 8.25H20.9988C20.5858 8.25 20.2496 8.5856 20.2496 8.99981C20.2496 9.41452 20.5858 9.75012 20.9988 9.75012H25.4986C25.9139 9.75012 26.2501 9.41452 26.2501 8.99981C26.2501 8.5856 25.9139 8.25 25.4986 8.25V8.25Z" fill="#4A89DC"/>
<path d="M26.9991 9H8.99981C8.5856 9 8.25 9.33616 8.25 9.7503V18.75C8.24994 18.8484 8.2693 18.946 8.30696 19.037C8.34463 19.128 8.39985 19.2106 8.46949 19.2803C8.53913 19.3499 8.62181 19.4051 8.71281 19.4428C8.8038 19.4805 8.90133 19.4998 8.99981 19.4998H26.9991C27.4133 19.4998 27.7484 19.1647 27.7484 18.75V9.7503C27.7484 9.33616 27.4133 9 26.9991 9V9Z" fill="#5D9CEC"/>
<path opacity="0.1" d="M17.2503 9L14.25 19.4998H18.7499L21.7507 9H17.2503Z" fill="white"/>
<path d="M26.9991 6.00012H8.99981C8.5856 6.00012 8.25 5.66452 8.25 5.2503C8.25 4.83609 8.5856 4.5 8.99981 4.5H26.9991C27.4133 4.5 27.7484 4.83616 27.7484 5.2503C27.7484 5.66445 27.4133 6.00012 26.9991 6.00012ZM17.9995 29.2497C17.5852 29.2497 17.2497 28.9135 17.2497 28.4993V22.4999C17.2497 22.0846 17.5852 21.7496 17.9995 21.7496C18.4137 21.7496 18.7493 22.0846 18.7493 22.4999V28.4993C18.7493 28.9135 18.4137 29.2497 17.9995 29.2497V29.2497ZM15.5299 31.7192C15.8227 32.0115 15.8227 32.486 15.5299 32.7793C15.2371 33.0727 14.7619 33.0727 14.4691 32.7793C14.1764 32.486 14.1764 32.0115 14.4691 31.7192C14.7619 31.4259 15.2371 31.4259 15.5299 31.7192ZM18.5295 31.7192C18.8229 32.0115 18.8229 32.486 18.5295 32.7793C18.46 32.8491 18.3774 32.9044 18.2864 32.9422C18.1955 32.9799 18.0979 32.9993 17.9995 32.9993C17.901 32.9993 17.8035 32.9799 17.7125 32.9422C17.6215 32.9044 17.5389 32.8491 17.4694 32.7793C17.1761 32.486 17.1761 32.0115 17.4694 31.7192C17.5389 31.6495 17.6215 31.5942 17.7125 31.5564C17.8035 31.5187 17.901 31.4992 17.9995 31.4992C18.0979 31.4992 18.1955 31.5187 18.2864 31.5564C18.3774 31.5942 18.46 31.6495 18.5295 31.7192ZM21.5303 31.7192C21.8226 32.0115 21.8226 32.486 21.5303 32.7793C21.2359 33.0727 20.7613 33.0727 20.4691 32.7793C20.1769 32.486 20.1769 32.0115 20.4691 31.7192C20.7613 31.4259 21.2359 31.4259 21.5303 31.7192Z" fill="#434A54"/>
</svg>
