<svg width="30" height="44" viewBox="0 0 30 44" fill="none" xmlns="http://www.w3.org/2000/svg">
<path d="M15.0001 0.166626C12.1323 0.170222 9.32913 1.01931 6.94132 2.60769C4.55351 4.19607 2.68703 6.45323 1.57533 9.09685C0.463633 11.7405 0.15607 14.6532 0.691111 17.4707C1.22615 20.2882 2.58004 22.8854 4.58345 24.9375V43.125L15.0001 37.9166L25.4168 43.125V24.9375C27.4202 22.8854 28.7741 20.2882 29.3091 17.4707C29.8442 14.6532 29.5366 11.7405 28.4249 9.09685C27.3132 6.45323 25.4467 4.19607 23.0589 2.60769C20.6711 1.01931 17.868 0.170222 15.0001 0.166626ZM15.0001 4.33329C17.0603 4.33329 19.0743 4.94422 20.7873 6.08882C22.5003 7.23342 23.8354 8.86028 24.6239 10.7637C25.4123 12.6671 25.6186 14.7615 25.2166 16.7821C24.8147 18.8028 23.8226 20.6589 22.3658 22.1157C20.909 23.5725 19.0529 24.5645 17.0323 24.9665C15.0117 25.3684 12.9172 25.1621 11.0138 24.3737C9.11043 23.5853 7.48357 22.2502 6.33897 20.5371C5.19437 18.8241 4.58345 16.8102 4.58345 14.75C4.58345 11.9873 5.68091 9.33777 7.63442 7.38426C9.58792 5.43076 12.2374 4.33329 15.0001 4.33329ZM15.0001 33.25L8.75011 36.375V27.8958C10.6997 28.8354 12.836 29.3233 15.0001 29.3233C17.1643 29.3233 19.3006 28.8354 21.2501 27.8958V36.375L15.0001 33.25Z" fill="#0663F6"/>
</svg>
