<svg width="84" height="31" viewBox="0 0 84 31" fill="none" xmlns="http://www.w3.org/2000/svg">
<g clip-path="url(#clip0_17_607)">
<path fill-rule="evenodd" clip-rule="evenodd" d="M39.5324 12.8313V16.0724C39.5338 16.2011 39.4832 16.325 39.3915 16.4171C39.2998 16.5091 39.1747 16.5616 39.0436 16.5631H27.9464C27.8815 16.5638 27.8173 16.577 27.7576 16.6021C27.6979 16.6271 27.6438 16.6635 27.5984 16.709C27.553 16.7546 27.5172 16.8085 27.493 16.8677C27.4689 16.9268 27.4568 16.9901 27.4576 17.0538V18.7711C27.4568 18.8348 27.4689 18.8981 27.493 18.9572C27.5172 19.0164 27.553 19.0703 27.5984 19.1159C27.6438 19.1614 27.6979 19.1978 27.7576 19.2228C27.8173 19.2478 27.8815 19.2611 27.9464 19.2618H39.0436C39.1087 19.2625 39.1729 19.2758 39.2327 19.301C39.2924 19.3261 39.3466 19.3626 39.392 19.4083C39.4374 19.454 39.4732 19.508 39.4973 19.5673C39.5213 19.6266 39.5333 19.69 39.5324 19.7538V23.8215C39.5338 23.9502 39.4832 24.0742 39.3915 24.1662C39.2998 24.2582 39.1747 24.3107 39.0436 24.3122H27.9464C27.8815 24.3129 27.8173 24.3262 27.7576 24.3512C27.6979 24.3762 27.6438 24.4126 27.5984 24.4582C27.553 24.5037 27.5172 24.5576 27.493 24.6168C27.4689 24.676 27.4568 24.7392 27.4576 24.8029V26.2365C27.4563 26.365 27.507 26.4888 27.5987 26.5807C27.6903 26.6725 27.8154 26.7249 27.9464 26.7263H39.0436C39.1086 26.727 39.1727 26.7402 39.2324 26.7653C39.2921 26.7903 39.3462 26.8266 39.3916 26.8722C39.437 26.9178 39.4728 26.9717 39.497 27.0309C39.5211 27.09 39.5332 27.1533 39.5324 27.217V30.4064C39.5332 30.4701 39.5211 30.5334 39.497 30.5925C39.4728 30.6517 39.437 30.7056 39.3916 30.7512C39.3462 30.7967 39.2921 30.8331 39.2324 30.8581C39.1727 30.8832 39.1086 30.8964 39.0436 30.8971H22.6466C22.5817 30.8964 22.5175 30.8832 22.4578 30.8581C22.3981 30.8331 22.344 30.7967 22.2986 30.7512C22.2532 30.7056 22.2174 30.6517 22.1933 30.5925C22.1691 30.5334 22.1571 30.4701 22.1578 30.4064V12.8313C22.1574 12.7676 22.1697 12.7044 22.1941 12.6454C22.2185 12.5864 22.2545 12.5327 22.3 12.4873C22.3456 12.4419 22.3998 12.4058 22.4596 12.381C22.5194 12.3562 22.5835 12.3432 22.6484 12.3428H39.0454C39.1758 12.3446 39.3002 12.397 39.3915 12.4885C39.4827 12.58 39.5334 12.7033 39.5324 12.8313Z" fill="white"/>
<path fill-rule="evenodd" clip-rule="evenodd" d="M48.5021 16.8794V18.5971C48.5011 18.7694 48.5694 18.9351 48.6922 19.0583C48.815 19.1814 48.9824 19.2521 49.1579 19.2548H53.4024C53.5517 19.2541 53.6964 19.204 53.813 19.1125C53.9297 19.0211 54.0115 18.8937 54.0453 18.751L54.4573 17.0333C54.4811 16.9371 54.4826 16.8369 54.4615 16.7401C54.4404 16.6433 54.3974 16.5524 54.3355 16.4742C54.2737 16.396 54.1946 16.3325 54.1043 16.2885C54.014 16.2444 53.9147 16.221 53.8139 16.2198H49.1579C48.9821 16.2226 48.8145 16.2935 48.6916 16.417C48.5688 16.5405 48.5006 16.7067 48.5021 16.8794ZM48.5021 24.9372V30.2705C48.5031 30.4429 48.4348 30.6087 48.312 30.7319C48.1892 30.855 48.0218 30.9256 47.8462 30.9283H43.86C43.6844 30.9256 43.517 30.855 43.3941 30.7319C43.2713 30.6087 43.203 30.4429 43.2041 30.2705V12.9669C43.203 12.7945 43.2713 12.6287 43.3941 12.5055C43.517 12.3823 43.6844 12.3117 43.86 12.3091H62.557C63.0583 12.3091 63.3795 12.8515 63.1226 13.3032L58.5449 21.3347C58.4945 21.4249 58.4649 21.5248 58.4582 21.6274C58.4514 21.73 58.4678 21.8328 58.506 21.9285L62.9426 30.0122C63.1213 30.4507 62.8139 30.9292 62.3381 30.9292H57.6821C57.5525 30.9282 57.426 30.8896 57.3186 30.8184C57.2111 30.7472 57.1275 30.6465 57.0781 30.5288L53.5932 24.6789C53.5437 24.5612 53.46 24.4604 53.3525 24.3892C53.245 24.318 53.1184 24.2795 52.9887 24.2785H49.157C48.9815 24.2815 48.8142 24.3524 48.6916 24.4757C48.569 24.599 48.5009 24.7649 48.5021 24.9372Z" fill="white"/>
<path fill-rule="evenodd" clip-rule="evenodd" d="M2.5726 3.5211V2.43181C2.5726 2.24807 2.70306 2.09064 2.87284 2.09064H5.69383C5.86361 2.09064 5.99407 2.23492 5.99407 2.43181V3.52023C5.99407 3.70353 5.86361 3.86096 5.69383 3.86096H2.88579C2.71601 3.86184 2.5726 3.70353 2.5726 3.5211ZM8.12256 0.00634766H0.314992C0.145214 0.00634766 0.00224304 0.163778 0.00224304 0.34708V9.09472C0.00224304 9.27802 0.132704 9.43545 0.302482 9.43545H2.26163C2.43097 9.43545 2.56187 9.29118 2.56187 9.09472V6.47148C2.56187 6.28818 2.69233 6.13075 2.86211 6.13075H6.62315C6.67848 6.12886 6.73219 6.11192 6.77827 6.08179C6.82434 6.05166 6.86098 6.00955 6.88407 5.96016L8.37275 3.14046C8.39967 3.0877 8.41316 3.02932 8.41207 2.97032V0.34708C8.41862 0.3056 8.4161 0.263226 8.40466 0.22278C8.39323 0.182333 8.37315 0.14474 8.34576 0.112504C8.31837 0.0802681 8.2843 0.0541284 8.24581 0.0358242C8.20732 0.0175201 8.16531 0.00747151 8.12256 0.00634766Z" fill="#0663F6"/>
<path fill-rule="evenodd" clip-rule="evenodd" d="M15.3783 2.28844L15.1688 3.28477C15.1514 3.35406 15.1114 3.4159 15.055 3.46092C14.9985 3.50594 14.9287 3.5317 14.856 3.53429H12.766C12.7225 3.53418 12.6795 3.52556 12.6394 3.50894C12.5994 3.49232 12.5631 3.46803 12.5327 3.43749C12.5024 3.40694 12.4785 3.37076 12.4626 3.33106C12.4466 3.29136 12.4389 3.24894 12.4398 3.20627V2.20951C12.4389 2.16688 12.4467 2.1245 12.4627 2.08485C12.4787 2.0452 12.5025 2.00908 12.5329 1.97858C12.5633 1.94808 12.5995 1.92383 12.6395 1.90724C12.6795 1.89064 12.7225 1.88204 12.766 1.88194H15.0647C15.2733 1.86878 15.4302 2.07839 15.3783 2.28844ZM17.3889 4.88493C17.3683 4.8368 17.3588 4.78481 17.361 4.73266C17.3633 4.68052 17.3772 4.6295 17.4018 4.58323L18.6291 2.64233C18.6583 2.59435 18.6762 2.54056 18.6814 2.4849V0.30808C18.6817 0.23261 18.6517 0.160067 18.5979 0.10609C18.5442 0.0521134 18.471 0.0210264 18.3941 0.0195312H10.1545C10.111 0.0195806 10.068 0.0281392 10.0279 0.0447067C9.98786 0.0612741 9.95156 0.0855183 9.92115 0.11602C9.89074 0.146522 9.86683 0.182669 9.85082 0.222348C9.83481 0.262026 9.82703 0.304441 9.82792 0.347109V9.09475C9.82703 9.13741 9.83481 9.17983 9.85082 9.21951C9.86683 9.25919 9.89074 9.29533 9.92115 9.32583C9.95156 9.35634 9.98786 9.38058 10.0279 9.39715C10.068 9.41371 10.111 9.42227 10.1545 9.42232H12.1132C12.1567 9.42227 12.1997 9.41371 12.2398 9.39715C12.2799 9.38058 12.3162 9.35634 12.3466 9.32583C12.377 9.29533 12.4009 9.25919 12.4169 9.21951C12.4329 9.17983 12.4407 9.13741 12.4398 9.09475V6.40617C12.4389 6.3635 12.4466 6.32107 12.4626 6.28137C12.4785 6.24167 12.5024 6.20549 12.5327 6.17495C12.5631 6.14441 12.5994 6.12012 12.6394 6.1035C12.6795 6.08687 12.7225 6.07826 12.766 6.07815H14.6599C14.724 6.0787 14.7866 6.09763 14.84 6.1326C14.8933 6.16758 14.9351 6.21709 14.9601 6.27505L16.1879 9.22586C16.213 9.28374 16.2548 9.33315 16.3082 9.36805C16.3615 9.40295 16.424 9.42181 16.4881 9.42232H18.7864C19.0214 9.42232 19.1782 9.17324 19.0866 8.95003L17.3889 4.88493Z" fill="#0663F6"/>
<path fill-rule="evenodd" clip-rule="evenodd" d="M47.8399 0.288575V1.92777C47.8417 1.95944 47.837 1.99114 47.8261 2.02098C47.8151 2.05082 47.7981 2.07818 47.7761 2.10143C47.7542 2.12469 47.7276 2.14335 47.6981 2.15631C47.6686 2.16926 47.6368 2.17625 47.6045 2.17685H42.4597C42.3952 2.18025 42.3345 2.2082 42.2905 2.25478C42.2466 2.30136 42.2228 2.3629 42.2243 2.42637V3.29201C42.2225 3.32365 42.2273 3.3553 42.2383 3.38509C42.2493 3.41488 42.2663 3.44219 42.2882 3.46539C42.3102 3.48859 42.3367 3.50722 42.3662 3.52015C42.3957 3.53308 42.4275 3.54006 42.4597 3.54066H47.6045C47.669 3.54417 47.7297 3.57215 47.7736 3.6187C47.8175 3.66525 47.8413 3.72674 47.8399 3.79017V5.84903C47.8417 5.8807 47.837 5.91241 47.8261 5.94224C47.8151 5.97208 47.7981 5.99945 47.7761 6.0227C47.7542 6.04595 47.7276 6.06461 47.6981 6.07757C47.6686 6.09053 47.6368 6.09752 47.6045 6.09811H42.4597C42.3952 6.10152 42.3346 6.12941 42.2907 6.17589C42.2467 6.22237 42.2229 6.2838 42.2243 6.3472V7.06856C42.2225 7.10023 42.2272 7.13194 42.2382 7.16177C42.2491 7.19161 42.2661 7.21898 42.2881 7.24223C42.3101 7.26548 42.3366 7.28414 42.3661 7.2971C42.3956 7.31006 42.4274 7.31705 42.4597 7.31764H47.6045C47.669 7.32116 47.7297 7.34914 47.7736 7.39569C47.8175 7.44225 47.8413 7.50373 47.8399 7.56716V9.18005C47.8417 9.21172 47.837 9.24342 47.8261 9.27326C47.8151 9.3031 47.7981 9.33046 47.7761 9.35371C47.7542 9.37696 47.7276 9.39563 47.6981 9.40858C47.6686 9.42154 47.6368 9.42853 47.6045 9.42913H39.9895C39.925 9.42562 39.8645 9.39768 39.8207 9.35121C39.7768 9.30474 39.7531 9.24337 39.7545 9.18005V0.262265C39.7527 0.230632 39.7574 0.198967 39.7683 0.169157C39.7792 0.139347 39.7962 0.112002 39.8181 0.0887567C39.84 0.0655109 39.8665 0.0468384 39.896 0.0338544C39.9254 0.0208704 39.9572 0.0138406 39.9895 0.0131836H47.6027C47.6699 0.0222468 47.7313 0.0553914 47.7751 0.106234C47.8189 0.157077 47.842 0.222024 47.8399 0.288575Z" fill="#0663F6"/>
<path fill-rule="evenodd" clip-rule="evenodd" d="M25.708 6.79957C25.708 6.94384 25.5646 7.06268 25.3952 7.06268H24.0888C23.9191 7.06268 23.7761 6.94472 23.7761 6.79957V2.66869C23.7761 2.52442 23.9195 2.40558 24.0888 2.40558H25.3948C25.5646 2.40558 25.7075 2.52354 25.7075 2.66869L25.708 6.79957ZM28.4244 0.0200195H21.0592C20.7464 0.0200195 20.4976 0.229632 20.4976 0.479151V8.96324C20.4976 9.22635 20.746 9.42237 21.0592 9.42237H28.4244C28.7372 9.42237 28.9861 9.21276 28.9861 8.96324V0.49187C28.9986 0.229195 28.7381 0.0200195 28.4244 0.0200195Z" fill="#0663F6"/>
<path fill-rule="evenodd" clip-rule="evenodd" d="M49.7187 6.58559e-05H57.2273C57.4235 6.58559e-05 57.5932 0.144338 57.5932 0.314923V2.36063C57.5932 2.53121 57.4364 2.67549 57.2273 2.67549H52.7353C52.5392 2.67549 52.3694 2.81976 52.3694 2.99035V6.45248C52.3694 6.62262 52.5263 6.7669 52.7353 6.7669H57.2273C57.4235 6.7669 57.5932 6.91117 57.5932 7.08176V9.12746C57.5932 9.29805 57.4364 9.44232 57.2273 9.44232H49.7187C49.523 9.44232 49.3527 9.29805 49.3527 9.12746V0.31317C49.3633 0.225713 49.4065 0.145222 49.4742 0.0873514C49.5418 0.0294812 49.6289 -0.00163006 49.7187 6.58559e-05Z" fill="#0663F6"/>
<path fill-rule="evenodd" clip-rule="evenodd" d="M64.9902 3.02924V9.11417C64.9924 9.19485 64.9621 9.27313 64.9059 9.33206C64.8497 9.39099 64.7721 9.42583 64.69 9.42903H62.326C62.2439 9.42583 62.1663 9.39099 62.1101 9.33206C62.0539 9.27313 62.0236 9.19485 62.0258 9.11417V3.02924C62.028 2.94855 61.9977 2.87027 61.9415 2.81134C61.8853 2.75242 61.8077 2.71758 61.7256 2.71438H59.3621C59.3213 2.71313 59.2812 2.70401 59.244 2.68752C59.2069 2.67104 59.1734 2.64752 59.1455 2.61831C59.1176 2.5891 59.0958 2.55478 59.0815 2.51731C59.0671 2.47984 59.0604 2.43997 59.0618 2.39996V0.327066C59.0596 0.246381 59.0899 0.168101 59.1461 0.109172C59.2023 0.0502431 59.2799 0.0154072 59.3621 0.012207H67.6673C67.7496 0.0152948 67.8273 0.050081 67.8836 0.109022C67.9399 0.167964 67.9702 0.246308 67.968 0.327066V2.38812C67.9701 2.4688 67.9397 2.54703 67.8834 2.60588C67.8271 2.66473 67.7495 2.69945 67.6673 2.70254H65.3038C65.2183 2.70552 65.1374 2.74149 65.0787 2.80265C65.0199 2.86381 64.9882 2.94523 64.9902 3.02924Z" fill="#0663F6"/>
<path fill-rule="evenodd" clip-rule="evenodd" d="M37.8038 0.0263672H35.7276C35.4662 0.0263672 35.2442 0.249136 35.2442 0.524528V6.74058C35.2442 7.01597 35.0351 7.23918 34.7612 7.23918H33.2868C33.1331 7.23607 32.9868 7.17385 32.8795 7.06591C32.7721 6.95797 32.7122 6.81295 32.7127 6.66208V4.15725C32.7136 4.11456 32.7058 4.07212 32.6898 4.03242C32.6738 3.99271 32.6499 3.95654 32.6195 3.926C32.5891 3.89547 32.5528 3.87118 32.5127 3.85457C32.4726 3.83795 32.4296 3.82934 32.3861 3.82923H30.7147C30.6711 3.82928 30.6281 3.83785 30.588 3.85445C30.5479 3.87104 30.5115 3.89532 30.4811 3.92587C30.4507 3.95642 30.4268 3.99262 30.4108 4.03235C30.3948 4.07208 30.3871 4.11454 30.3881 4.15725V7.61938H30.401C30.3896 7.66227 30.3852 7.70668 30.3881 7.75093V8.91784C30.3881 9.19323 30.5967 9.416 30.8715 9.416H37.8056C38.0669 9.416 38.2886 9.19323 38.2886 8.91784V0.524528C38.2868 0.249136 38.0652 0.0263672 37.8038 0.0263672Z" fill="#0663F6"/>
<path fill-rule="evenodd" clip-rule="evenodd" d="M77.9885 21.6633C77.9885 19.0935 75.9695 17.0277 73.4492 17.0277C71.0062 17.0277 68.9103 19.0677 68.8844 21.4826C68.8455 24.0782 70.903 26.209 73.4362 26.209C75.9181 26.209 77.9885 24.1427 77.9885 21.6633ZM68.3187 30.9999C68.0507 30.6639 67.7268 30.3671 67.5083 30.0057C66.0553 27.5005 64.6283 24.982 63.162 22.4899C62.8278 21.9089 62.7893 21.3936 63.1365 20.8112C64.6408 18.2415 66.1326 15.6718 67.5981 13.0761C67.9327 12.4819 68.3826 12.2368 69.0515 12.2368C71.9964 12.2494 74.9411 12.2494 77.8857 12.2368C78.5287 12.2368 78.9656 12.4951 79.2744 13.0376C80.7657 15.6459 82.2617 18.25 83.7623 20.8498C84.0706 21.3791 84.0835 21.8444 83.7748 22.3737C82.2705 24.9693 80.7787 27.5776 79.2744 30.1864C79.1073 30.4833 78.8499 30.7284 78.6314 30.9999H68.3187Z" fill="white"/>
<path fill-rule="evenodd" clip-rule="evenodd" d="M5.63172 24.9372V30.2705C5.6328 30.4429 5.5645 30.6087 5.44167 30.7319C5.31884 30.855 5.15143 30.9256 4.97584 30.9283H0.65543C0.479921 30.9255 0.312619 30.8549 0.189888 30.7317C0.0671562 30.6085 -0.00108482 30.4428 -2.58028e-06 30.2705V12.9669C-0.00108482 12.7946 0.0671562 12.6288 0.189888 12.5057C0.312619 12.3825 0.479921 12.3119 0.65543 12.3091H4.96154C5.13713 12.3117 5.30454 12.3823 5.42737 12.5055C5.5502 12.6287 5.6185 12.7945 5.61742 12.9669V18.6238C5.61634 18.7962 5.68464 18.962 5.80747 19.0851C5.9303 19.2083 6.09771 19.2789 6.2733 19.2816H12.2441C12.4196 19.2788 12.5869 19.2082 12.7097 19.085C12.8324 18.9618 12.9006 18.7961 12.8996 18.6238V12.9669C12.8985 12.7945 12.9668 12.6287 13.0896 12.5055C13.2124 12.3823 13.3799 12.3117 13.5554 12.3091H17.8629C18.0385 12.3117 18.206 12.3823 18.3289 12.5055C18.4518 12.6287 18.5202 12.7945 18.5192 12.9669V30.2705C18.5202 30.4429 18.4518 30.6087 18.3289 30.7319C18.206 30.855 18.0385 30.9256 17.8629 30.9283H13.5532C13.3776 30.9256 13.2102 30.855 13.0874 30.7319C12.9646 30.6087 12.8962 30.4429 12.8973 30.2705V24.9372C12.8983 24.765 12.83 24.5993 12.7073 24.4761C12.5846 24.353 12.4174 24.2823 12.2419 24.2794H6.28804C6.11242 24.2821 5.94495 24.3527 5.82206 24.4758C5.69916 24.599 5.63075 24.7648 5.63172 24.9372Z" fill="white"/>
</g>
<defs>
<clipPath id="clip0_17_607">
<rect width="84" height="31" fill="white"/>
</clipPath>
</defs>
</svg>
