<svg width="95" height="35" viewBox="0 0 95 35" fill="none" xmlns="http://www.w3.org/2000/svg">
<path fill-rule="evenodd" clip-rule="evenodd" d="M44.7094 14.4868V18.1461C44.711 18.2914 44.6537 18.4314 44.5501 18.5352C44.4464 18.6391 44.3049 18.6984 44.1566 18.7001H31.6062C31.5327 18.7009 31.4602 18.7159 31.3927 18.7441C31.3251 18.7724 31.2639 18.8134 31.2126 18.8649C31.1613 18.9163 31.1208 18.9772 31.0935 19.044C31.0661 19.1108 31.0525 19.1822 31.0534 19.2542V21.193C31.0525 21.2649 31.0661 21.3364 31.0935 21.4032C31.1208 21.4699 31.1613 21.5308 31.2126 21.5823C31.2639 21.6337 31.3251 21.6748 31.3927 21.703C31.4602 21.7313 31.5327 21.7462 31.6062 21.747H44.1566C44.2302 21.7479 44.3028 21.7629 44.3704 21.7913C44.438 21.8197 44.4993 21.8608 44.5506 21.9124C44.6019 21.964 44.6424 22.025 44.6697 22.092C44.6969 22.1589 44.7104 22.2305 44.7094 22.3025V26.8951C44.711 27.0404 44.6537 27.1804 44.5501 27.2843C44.4464 27.3881 44.3049 27.4474 44.1566 27.4491H31.6062C31.5327 27.4499 31.4602 27.4649 31.3927 27.4931C31.3251 27.5214 31.2639 27.5624 31.2126 27.6139C31.1613 27.6654 31.1208 27.7262 31.0935 27.793C31.0661 27.8598 31.0525 27.9312 31.0534 28.0032V29.6217C31.0519 29.7668 31.1093 29.9066 31.213 30.0103C31.3166 30.114 31.458 30.1731 31.6062 30.1747H44.1566C44.2301 30.1755 44.3026 30.1904 44.3702 30.2187C44.4377 30.247 44.4989 30.288 44.5502 30.3395C44.6015 30.3909 44.642 30.4518 44.6693 30.5186C44.6967 30.5854 44.7103 30.6568 44.7094 30.7287V34.3296C44.7103 34.4016 44.6967 34.473 44.6693 34.5398C44.642 34.6066 44.6015 34.6674 44.5502 34.7189C44.4989 34.7704 44.4377 34.8114 44.3702 34.8397C44.3026 34.8679 44.2301 34.8829 44.1566 34.8837H25.6124C25.539 34.8829 25.4664 34.8679 25.3989 34.8397C25.3313 34.8114 25.2702 34.7704 25.2188 34.7189C25.1675 34.6674 25.127 34.6066 25.0997 34.5398C25.0724 34.473 25.0587 34.4016 25.0596 34.3296V14.4868C25.0591 14.4149 25.073 14.3436 25.1006 14.2769C25.1282 14.2103 25.1689 14.1496 25.2204 14.0984C25.272 14.0472 25.3333 14.0064 25.4009 13.9784C25.4685 13.9504 25.541 13.9358 25.6144 13.9352H44.1586C44.3062 13.9373 44.4468 13.9965 44.55 14.0998C44.6532 14.2031 44.7105 14.3422 44.7094 14.4868Z" fill="black"/>
<path fill-rule="evenodd" clip-rule="evenodd" d="M54.8536 19.0571V20.9964C54.8525 21.191 54.9298 21.3781 55.0687 21.5171C55.2076 21.6562 55.3968 21.7359 55.5954 21.7391H60.3956C60.5645 21.7382 60.7281 21.6816 60.86 21.5784C60.992 21.4752 61.0845 21.3313 61.1227 21.1702L61.5886 19.2309C61.6156 19.1223 61.6173 19.0091 61.5934 18.8998C61.5696 18.7905 61.5209 18.6879 61.4509 18.5997C61.381 18.5114 61.2916 18.4397 61.1895 18.39C61.0873 18.3402 60.9751 18.3137 60.861 18.3124H55.5954C55.3965 18.3156 55.2069 18.3956 55.068 18.5351C54.929 18.6746 54.852 18.8622 54.8536 19.0571ZM54.8536 28.1546V34.1761C54.8548 34.3707 54.7776 34.5579 54.6386 34.697C54.4997 34.8361 54.3104 34.9158 54.1118 34.9188H49.6036C49.405 34.9158 49.2157 34.8361 49.0768 34.697C48.9379 34.5579 48.8606 34.3707 48.8618 34.1761V14.6398C48.8606 14.4452 48.9379 14.258 49.0768 14.1189C49.2157 13.9798 49.405 13.9001 49.6036 13.8971H70.7491C71.316 13.8971 71.6793 14.5095 71.3888 15.0195L66.2115 24.0874C66.1545 24.1891 66.1211 24.3019 66.1135 24.4178C66.1059 24.5336 66.1243 24.6497 66.1676 24.7577L71.1851 33.8845C71.3873 34.3796 71.0396 34.9198 70.5015 34.9198H65.2358C65.0892 34.9186 64.9462 34.8751 64.8247 34.7947C64.7031 34.7143 64.6085 34.6006 64.5527 34.4677L60.6114 27.863C60.5555 27.7301 60.4608 27.6163 60.3392 27.5359C60.2176 27.4555 60.0744 27.4121 59.9277 27.411H55.5943C55.3958 27.4144 55.2067 27.4944 55.068 27.6336C54.9293 27.7729 54.8522 27.9601 54.8536 28.1546Z" fill="black"/>
<path fill-rule="evenodd" clip-rule="evenodd" d="M2.90939 3.97572V2.74587C2.90939 2.53843 3.05693 2.36068 3.24894 2.36068H6.43936C6.63137 2.36068 6.77892 2.52357 6.77892 2.74587V3.97473C6.77892 4.18168 6.63137 4.35943 6.43936 4.35943H3.2636C3.07159 4.36042 2.90939 4.18168 2.90939 3.97572ZM9.18613 0.00744629H0.356146C0.164135 0.00744629 0.00244141 0.18519 0.00244141 0.392144V10.2685C0.00244141 10.4755 0.149987 10.6532 0.341998 10.6532H2.5577C2.74921 10.6532 2.89726 10.4903 2.89726 10.2685V7.30679C2.89726 7.09983 3.04481 6.92209 3.23682 6.92209H7.49037C7.55295 6.91996 7.61369 6.90083 7.6658 6.86682C7.71791 6.8328 7.75934 6.78526 7.78546 6.7295L9.46909 3.54596C9.49953 3.48639 9.51479 3.42048 9.51356 3.35387V0.392144C9.52097 0.345312 9.51811 0.297471 9.50518 0.251805C9.49225 0.206139 9.46954 0.163696 9.43856 0.1273C9.40758 0.0909049 9.36905 0.0613922 9.32552 0.0407263C9.282 0.0200604 9.23448 0.00871516 9.18613 0.00744629Z" fill="#0663F6"/>
<path fill-rule="evenodd" clip-rule="evenodd" d="M17.3921 2.58395L17.1551 3.70883C17.1354 3.78707 17.0902 3.85689 17.0264 3.90772C16.9626 3.95855 16.8836 3.98763 16.8014 3.99055H14.4376C14.3885 3.99043 14.3398 3.9807 14.2945 3.96194C14.2492 3.94317 14.2082 3.91574 14.1738 3.88126C14.1395 3.84678 14.1125 3.80593 14.0945 3.7611C14.0764 3.71628 14.0677 3.66838 14.0688 3.62021V2.49483C14.0678 2.4467 14.0765 2.39886 14.0946 2.35409C14.1127 2.30933 14.1397 2.26854 14.174 2.23411C14.2084 2.19968 14.2494 2.17229 14.2946 2.15356C14.3399 2.13482 14.3885 2.12511 14.4376 2.12499H17.0374C17.2733 2.11014 17.4507 2.3468 17.3921 2.58395ZM19.6659 5.51547C19.6426 5.46113 19.6319 5.40243 19.6344 5.34356C19.637 5.28468 19.6527 5.22708 19.6805 5.17484L21.0686 2.9835C21.1016 2.92933 21.1218 2.8686 21.1277 2.80576V0.348058C21.128 0.262851 21.0941 0.180947 21.0333 0.120006C20.9725 0.0590641 20.8897 0.0239659 20.8028 0.0222778H11.4842C11.435 0.0223335 11.3863 0.0319965 11.341 0.0507017C11.2957 0.0694069 11.2547 0.0967794 11.2203 0.131217C11.1859 0.165654 11.1588 0.206466 11.1407 0.251264C11.1226 0.296063 11.1138 0.34395 11.1148 0.392123V10.2685C11.1138 10.3167 11.1226 10.3645 11.1407 10.4093C11.1588 10.4541 11.1859 10.495 11.2203 10.5294C11.2547 10.5638 11.2957 10.5912 11.341 10.6099C11.3863 10.6286 11.435 10.6383 11.4842 10.6383H13.6994C13.7486 10.6383 13.7972 10.6286 13.8426 10.6099C13.8879 10.5912 13.9289 10.5638 13.9633 10.5294C13.9977 10.495 14.0248 10.4541 14.0429 10.4093C14.061 10.3645 14.0698 10.3167 14.0688 10.2685V7.233C14.0677 7.18482 14.0764 7.13692 14.0945 7.0921C14.1125 7.04728 14.1395 7.00643 14.1738 6.97194C14.2082 6.93746 14.2492 6.91003 14.2945 6.89127C14.3398 6.8725 14.3885 6.86278 14.4376 6.86266H16.5796C16.6521 6.86328 16.7229 6.88464 16.7832 6.92413C16.8435 6.96363 16.8908 7.01952 16.9191 7.08496L18.3077 10.4165C18.3361 10.4819 18.3834 10.5377 18.4437 10.5771C18.504 10.6165 18.5747 10.6378 18.6472 10.6383H21.2464C21.5122 10.6383 21.6896 10.3571 21.586 10.1051L19.6659 5.51547Z" fill="#0663F6"/>
<path fill-rule="evenodd" clip-rule="evenodd" d="M54.1047 0.325758V2.17646C54.1067 2.21222 54.1014 2.24801 54.089 2.2817C54.0766 2.31539 54.0574 2.34628 54.0325 2.37253C54.0077 2.39879 53.9777 2.41986 53.9443 2.43449C53.9109 2.44912 53.8749 2.45701 53.8384 2.45768H48.0199C47.9469 2.46152 47.8782 2.49308 47.8285 2.54567C47.7788 2.59825 47.752 2.66774 47.7536 2.7394V3.71674C47.7517 3.75245 47.7571 3.78819 47.7695 3.82182C47.7819 3.85545 47.8011 3.88629 47.826 3.91248C47.8508 3.93868 47.8808 3.95971 47.9141 3.97431C47.9475 3.98891 47.9834 3.99678 48.0199 3.99746H53.8384C53.9114 4.00143 53.9799 4.03302 54.0296 4.08558C54.0793 4.13814 54.1062 4.20755 54.1047 4.27917V6.6037C54.1067 6.63945 54.1014 6.67524 54.089 6.70893C54.0766 6.74262 54.0574 6.77352 54.0325 6.79977C54.0077 6.82602 53.9777 6.84709 53.9443 6.86172C53.9109 6.87635 53.8749 6.88424 53.8384 6.88491H48.0199C47.947 6.88875 47.8784 6.92024 47.8287 6.97272C47.779 7.0252 47.7521 7.09456 47.7536 7.16614V7.98058C47.7516 8.01634 47.7569 8.05213 47.7693 8.08582C47.7817 8.11951 47.8009 8.1504 47.8258 8.17666C47.8506 8.20291 47.8806 8.22398 47.914 8.23861C47.9474 8.25324 47.9834 8.26113 48.0199 8.2618H53.8384C53.9114 8.26577 53.9799 8.29736 54.0296 8.34992C54.0793 8.40248 54.1062 8.4719 54.1047 8.54352V10.3645C54.1067 10.4003 54.1014 10.4361 54.089 10.4698C54.0766 10.5034 54.0574 10.5343 54.0325 10.5606C54.0077 10.5868 53.9777 10.6079 53.9443 10.6225C53.9109 10.6372 53.8749 10.6451 53.8384 10.6457H45.2262C45.1533 10.6418 45.0849 10.6102 45.0353 10.5578C44.9857 10.5053 44.9588 10.436 44.9604 10.3645V0.296053C44.9583 0.260338 44.9637 0.224587 44.976 0.19093C44.9884 0.157274 45.0075 0.126401 45.0324 0.100156C45.0572 0.0739108 45.0871 0.0528289 45.1204 0.0381696C45.1537 0.0235102 45.1897 0.0155733 45.2262 0.0148315H53.8364C53.9124 0.0250642 53.9818 0.0624855 54.0314 0.119889C54.0809 0.177292 54.107 0.25062 54.1047 0.325758Z" fill="#0663F6"/>
<path fill-rule="evenodd" clip-rule="evenodd" d="M29.0744 7.6771C29.0744 7.83999 28.9122 7.97416 28.7207 7.97416H27.2432C27.0512 7.97416 26.8895 7.84098 26.8895 7.6771V3.0132C26.8895 2.85032 27.0517 2.71614 27.2432 2.71614H28.7202C28.9122 2.71614 29.0739 2.84932 29.0739 3.0132L29.0744 7.6771ZM32.1465 0.0227661H23.8168C23.4631 0.0227661 23.1816 0.259425 23.1816 0.54114V10.1199C23.1816 10.417 23.4626 10.6383 23.8168 10.6383H32.1465C32.5002 10.6383 32.7817 10.4017 32.7817 10.1199V0.5555C32.7958 0.258932 32.5013 0.0227661 32.1465 0.0227661Z" fill="#0663F6"/>
<path fill-rule="evenodd" clip-rule="evenodd" d="M56.2293 1.33183e-05H64.7212C64.943 1.33183e-05 65.135 0.162901 65.135 0.355497V2.66517C65.135 2.85776 64.9577 3.02065 64.7212 3.02065H59.641C59.4192 3.02065 59.2272 3.18354 59.2272 3.37614V7.285C59.2272 7.4771 59.4045 7.63999 59.641 7.63999H64.7212C64.943 7.63999 65.135 7.80288 65.135 7.99547V10.3051C65.135 10.4977 64.9577 10.6606 64.7212 10.6606H56.2293C56.0079 10.6606 55.8154 10.4977 55.8154 10.3051V0.353518C55.8273 0.254776 55.8763 0.163899 55.9528 0.0985615C56.0293 0.0332242 56.1278 -0.00190143 56.2293 1.33183e-05Z" fill="#0663F6"/>
<path fill-rule="evenodd" clip-rule="evenodd" d="M73.5008 3.42018V10.2903C73.5033 10.3814 73.469 10.4697 73.4055 10.5363C73.3419 10.6028 73.2542 10.6421 73.1613 10.6458H70.4878C70.3948 10.6421 70.3071 10.6028 70.2435 10.5363C70.18 10.4697 70.1457 10.3814 70.1482 10.2903V3.42018C70.1507 3.32908 70.1164 3.2407 70.0529 3.17417C69.9893 3.10764 69.9016 3.06831 69.8086 3.06469H67.1357C67.0895 3.06329 67.0442 3.05298 67.0022 3.03437C66.9601 3.01576 66.9223 2.9892 66.8907 2.95623C66.8592 2.92325 66.8346 2.8845 66.8183 2.8422C66.8021 2.7999 66.7945 2.75487 66.7961 2.70971V0.36934C66.7936 0.278245 66.8279 0.189865 66.8914 0.123332C66.955 0.056799 67.0427 0.0174681 67.1357 0.013855H76.5285C76.6215 0.0173412 76.7094 0.0566159 76.7731 0.123163C76.8367 0.189709 76.8711 0.278163 76.8686 0.36934V2.69634C76.8709 2.78743 76.8365 2.87576 76.7729 2.9422C76.7092 3.00864 76.6215 3.04784 76.5285 3.05133H73.8555C73.7588 3.05469 73.6673 3.0953 73.6008 3.16435C73.5344 3.23341 73.4985 3.32533 73.5008 3.42018Z" fill="#0663F6"/>
<path fill-rule="evenodd" clip-rule="evenodd" d="M42.7545 0.0297241H40.4064C40.1108 0.0297241 39.8597 0.281237 39.8597 0.592163V7.61028C39.8597 7.92121 39.6232 8.17322 39.3134 8.17322H37.646C37.4722 8.16971 37.3067 8.09946 37.1853 7.97759C37.0638 7.85573 36.9961 7.69199 36.9967 7.52166V4.69362C36.9977 4.64542 36.9889 4.59751 36.9708 4.55268C36.9527 4.50786 36.9257 4.46701 36.8913 4.43254C36.8569 4.39806 36.8158 4.37064 36.7705 4.35188C36.7252 4.33312 36.6765 4.3234 36.6273 4.32328H34.737C34.6878 4.32333 34.6391 4.33301 34.5937 4.35175C34.5484 4.37048 34.5073 4.3979 34.4729 4.43239C34.4385 4.46688 34.4115 4.50775 34.3934 4.55261C34.3753 4.59747 34.3666 4.64541 34.3676 4.69362V8.60248H34.3823C34.3694 8.65091 34.3644 8.70105 34.3676 8.75101V10.0685C34.3676 10.3794 34.6036 10.6309 34.9144 10.6309H42.7565C43.0521 10.6309 43.3027 10.3794 43.3027 10.0685V0.592163C43.3007 0.281237 43.0501 0.0297241 42.7545 0.0297241Z" fill="#0663F6"/>
<path fill-rule="evenodd" clip-rule="evenodd" d="M88.2015 24.4587C88.2015 21.5574 85.9181 19.2249 83.0678 19.2249C80.3048 19.2249 77.9345 21.5282 77.9052 24.2547C77.8612 27.1853 80.1881 29.591 83.0531 29.591C85.86 29.591 88.2015 27.258 88.2015 24.4587ZM77.2655 35C76.9623 34.6207 76.596 34.2856 76.3489 33.8776C74.7057 31.0491 73.0918 28.2057 71.4334 25.392C71.0554 24.736 71.012 24.1542 71.4046 23.4967C73.1059 20.5954 74.7931 17.6941 76.4504 14.7635C76.8289 14.0927 77.3377 13.8159 78.0942 13.8159C81.4247 13.8301 84.7551 13.8301 88.0853 13.8159C88.8124 13.8159 89.3066 14.1075 89.6558 14.72C91.3424 17.6649 93.0343 20.605 94.7314 23.5403C95.0801 24.1379 95.0947 24.6632 94.7456 25.2608C93.0442 28.1913 91.3571 31.1362 89.6558 34.0816C89.4668 34.4168 89.1757 34.6935 88.9286 35H77.2655Z" fill="black"/>
<path fill-rule="evenodd" clip-rule="evenodd" d="M6.36922 28.1546V34.1761C6.37044 34.3707 6.2932 34.5579 6.15429 34.697C6.01537 34.8361 5.82603 34.9158 5.62745 34.9188H0.741277C0.542785 34.9157 0.353575 34.8359 0.214771 34.6968C0.0759677 34.5578 -0.00120962 34.3706 1.43388e-05 34.1761V14.6398C-0.00120962 14.4452 0.0759677 14.2581 0.214771 14.1191C0.353575 13.98 0.542785 13.9002 0.741277 13.8971H5.61128C5.80986 13.9001 5.9992 13.9798 6.13812 14.1189C6.27703 14.258 6.35427 14.4452 6.35305 14.6398V21.0266C6.35183 21.2212 6.42908 21.4084 6.56799 21.5475C6.7069 21.6866 6.89624 21.7663 7.09482 21.7693H13.8475C14.046 21.7661 14.2353 21.6864 14.3741 21.5473C14.5129 21.4083 14.59 21.2211 14.5888 21.0266V14.6398C14.5876 14.4452 14.6648 14.258 14.8037 14.1189C14.9427 13.9798 15.132 13.9001 15.3306 13.8971H20.2021C20.4007 13.9001 20.5901 13.9798 20.7291 14.1188C20.8681 14.2579 20.9455 14.4451 20.9444 14.6398V34.1761C20.9455 34.3708 20.8681 34.558 20.7291 34.697C20.5901 34.8361 20.4007 34.9158 20.2021 34.9188H15.3281C15.1295 34.9158 14.9401 34.8361 14.8012 34.697C14.6623 34.5579 14.5851 34.3707 14.5863 34.1761V28.1546C14.5874 27.9602 14.5102 27.7731 14.3714 27.6341C14.2326 27.4951 14.0435 27.4152 13.845 27.412H7.1115C6.91287 27.415 6.72348 27.4947 6.58449 27.6337C6.44549 27.7728 6.36813 27.96 6.36922 28.1546Z" fill="black"/>
</svg>
