<svg width="36" height="34" viewBox="0 0 36 34" fill="none" xmlns="http://www.w3.org/2000/svg">
<path d="M8.28282 13.7318C8.28282 13.0506 7.74738 12.4841 7.07808 12.4841C7.07104 12.4841 7.07104 12.4841 7.06399 12.4841C3.42864 12.4841 0.476685 15.4887 0.476685 19.1888C0.476685 22.8889 3.42864 25.8935 7.06399 25.8935C7.07104 25.8935 7.07104 25.8935 7.07808 25.8935C7.74738 25.8935 8.28282 25.327 8.28282 24.6457V13.7318V13.7318Z" fill="#0663F6"/>
<path d="M27.8967 13.7318C27.8967 13.0506 28.4322 12.4841 29.1015 12.4841C29.1085 12.4841 29.1085 12.4841 29.1156 12.4841C32.7509 12.4841 35.7029 15.4887 35.7029 19.1888C35.7029 22.8889 32.7509 25.8935 29.1156 25.8935C29.1085 25.8935 29.1085 25.8935 29.1015 25.8935C28.4322 25.8935 27.8967 25.327 27.8967 24.6457V13.7318Z" fill="#0663F6"/>
<path d="M32.5114 17.9126C31.835 17.9126 31.2855 17.3317 31.2855 16.6075C31.2855 8.88457 25.3746 3.60689 18.1039 3.60689C10.8332 3.60689 4.9222 8.89175 4.9222 16.6075C4.9222 17.3246 4.37268 17.9126 3.69633 17.9126C3.01999 17.9126 2.47046 17.3317 2.47046 16.6075C2.47046 7.45042 9.48753 0 18.1039 0C26.7202 0 33.7373 7.45042 33.7373 16.6075C33.7373 17.3317 33.1877 17.9126 32.5114 17.9126Z" fill="#0663F6"/>
<path d="M21.225 31.881C20.8164 31.881 20.3866 31.8594 19.9427 31.8236L20.0837 30.16C27.9884 30.8627 29.7356 24.1867 29.8061 23.8999L31.3983 24.3015C31.3772 24.3875 30.8699 26.4384 29.2002 28.3816C27.7982 30.0309 25.3042 31.881 21.225 31.881Z" fill="#0663F6"/>
<path d="M19.7947 33.6595C21.211 33.6595 22.3592 32.4909 22.3592 31.0494C22.3592 29.6078 21.211 28.4392 19.7947 28.4392C18.3784 28.4392 17.2302 29.6078 17.2302 31.0494C17.2302 32.4909 18.3784 33.6595 19.7947 33.6595Z" fill="#0663F6"/>
</svg>
