<svg width="50" height="49" viewBox="0 0 50 49" fill="none" xmlns="http://www.w3.org/2000/svg">
<path d="M24.8 11.5693C17.8 11.5693 12 17.1109 12 24.0137C12 30.9164 17.7 36.458 24.8 36.458C31.9 36.458 37.6 30.8191 37.6 24.0137C37.6 17.2082 31.8 11.5693 24.8 11.5693ZM24.8 31.9858C20.3 31.9858 16.6 28.3886 16.6 24.0137C16.6 19.6387 20.3 16.0415 24.8 16.0415C29.3 16.0415 33 19.6387 33 24.0137C33 28.3886 29.3 31.9858 24.8 31.9858Z" fill="white"/>
<path d="M38.1 14.0973C39.7016 14.0973 41 12.835 41 11.2779C41 9.72079 39.7016 8.4585 38.1 8.4585C36.4984 8.4585 35.2 9.72079 35.2 11.2779C35.2 12.835 36.4984 14.0973 38.1 14.0973Z" fill="white"/>
<path d="M45.6 3.98607C43 1.3611 39.3 0 35.1 0H14.5C5.8 0 0 5.63883 0 14.0971V34.0274C0 38.2079 1.4 41.8051 4.2 44.4301C6.9 46.9579 10.5 48.2217 14.6 48.2217H35C39.3 48.2217 42.9 46.8606 45.5 44.4301C48.2 41.9024 49.6 38.3052 49.6 34.1247V14.0971C49.6 10.0138 48.2 6.51382 45.6 3.98607ZM45.2 34.1247C45.2 37.1385 44.1 39.569 42.3 41.2218C40.5 42.8746 38 43.7496 35 43.7496H14.6C11.6 43.7496 9.1 42.8746 7.3 41.2218C5.5 39.4718 4.6 37.0413 4.6 34.0274V14.0971C4.6 11.1804 5.5 8.74991 7.3 6.99993C9 5.34717 11.6 4.47218 14.6 4.47218H35.2C38.2 4.47218 40.7 5.34717 42.5 7.09715C44.2 8.84713 45.2 11.2777 45.2 14.0971V34.1247Z" fill="white"/>
</svg>
