<svg width="31" height="31" viewBox="0 0 31 31" fill="none" xmlns="http://www.w3.org/2000/svg">
<path d="M31 18.5952V12.3968H27.5448C27.2703 11.2346 26.8263 10.1369 26.2451 9.12809L28.6508 6.73106L24.2672 2.34861L21.918 4.69721C20.9008 4.07576 19.7867 3.60765 18.6 3.30096V0H12.4V3.30096C11.2133 3.60765 10.0992 4.08383 9.08203 4.69721L6.73281 2.34861L2.34922 6.73106L4.75495 9.12809C4.1737 10.1369 3.73776 11.2346 3.45521 12.3968H0V18.5952H3.56016C3.86693 19.7009 4.32708 20.742 4.90833 21.7105L2.34922 24.2689L6.73281 28.6514L9.34036 26.0445C10.2849 26.5933 11.3182 27.0049 12.4 27.2874V31H18.6V27.2874C19.6898 27.0049 20.7151 26.5933 21.6596 26.0445L24.2672 28.6514L28.6508 24.2689L26.0997 21.7105C26.681 20.7501 27.1411 19.7089 27.4479 18.5952H31ZM15.5 19.8381C13.1023 19.8381 11.1648 17.893 11.1648 15.496C11.1648 13.0989 13.1023 11.1539 15.5 11.1539C17.8977 11.1539 19.8432 13.0989 19.8432 15.496C19.8432 17.893 17.8977 19.8381 15.5 19.8381Z" fill="#0663F6"/>
</svg>
