<svg width="55" height="55" viewBox="0 0 55 55" fill="none" xmlns="http://www.w3.org/2000/svg">
<circle cx="27.5" cy="27.5" r="26.5" stroke="#FFA746" stroke-width="2"/>
<path d="M22.11 10.8526C22.1824 10.6064 22.3326 10.3903 22.5381 10.2365C22.7436 10.0828 22.9934 9.99985 23.25 10H32.75C32.9381 10.0001 33.1234 10.0449 33.2908 10.1307C33.4581 10.2165 33.6027 10.3408 33.7126 10.4934C33.8225 10.646 33.8947 10.8225 33.923 11.0084C33.9514 11.1943 33.9352 11.3843 33.8757 11.5628L29.6482 24.25H38.6875C38.9099 24.2498 39.1278 24.3121 39.3165 24.4298C39.5053 24.5474 39.6571 24.7157 39.7549 24.9154C39.8527 25.1152 39.8924 25.3384 39.8695 25.5596C39.8467 25.7808 39.7622 25.9911 39.6256 26.1666L23.0006 47.5416C22.8303 47.7617 22.5881 47.9149 22.3164 47.9746C22.0446 48.0343 21.7605 47.9967 21.5137 47.8683C21.2668 47.7399 21.0729 47.5289 20.9657 47.2722C20.8585 47.0154 20.8449 46.7292 20.9272 46.4634L25.2046 32.5625H17.3125C17.1279 32.5626 16.9458 32.5197 16.7806 32.4371C16.6155 32.3545 16.4719 32.2346 16.3613 32.0868C16.2506 31.939 16.1759 31.7675 16.1432 31.5858C16.1104 31.4041 16.1204 31.2173 16.1725 31.0401L22.11 10.8526ZM24.1382 12.375L18.899 30.1875H26.8125C26.9983 30.1875 27.1816 30.231 27.3475 30.3147C27.5134 30.3984 27.6574 30.5199 27.7678 30.6694C27.8783 30.8188 27.9521 30.9921 27.9833 31.1753C28.0146 31.3585 28.0024 31.5465 27.9477 31.7241L25.1025 40.97L36.2602 26.625H28C27.8119 26.6249 27.6266 26.5801 27.4592 26.4943C27.2919 26.4085 27.1473 26.2842 27.0374 26.1316C26.9274 25.979 26.8553 25.8025 26.827 25.6166C26.7986 25.4307 26.8148 25.2407 26.8742 25.0623L31.1017 12.375H24.1382Z" fill="#FFA746"/>
</svg>
