<svg width="57" height="57" viewBox="0 0 57 57" fill="none" xmlns="http://www.w3.org/2000/svg">
<rect width="57" height="57" rx="15" fill="#B5E8CA"/>
<path fill-rule="evenodd" clip-rule="evenodd" d="M39.4833 17.505C36.5691 14.6014 32.6937 13.0017 28.5647 13C20.0571 13 13.1328 19.8907 13.1294 28.3602C13.1283 31.0677 13.839 33.7103 15.1898 36.0399L13 44L21.1824 41.8639C23.4369 43.0877 25.9752 43.7327 28.5585 43.7336H28.5648C28.5653 43.7336 28.5644 43.7336 28.5649 43.7336C37.0717 43.7336 43.9964 36.8423 44 28.3725C44.0015 24.2679 42.3975 20.4085 39.4833 17.505ZM28.5648 41.1393H28.5596C26.2576 41.1384 23.9997 40.5229 22.03 39.3596L21.5616 39.083L16.706 40.3505L18.0021 35.6391L17.697 35.1559C16.4128 33.1231 15.7346 30.7736 15.7356 28.3611C15.7383 21.3215 21.4936 15.5944 28.57 15.5944C31.9966 15.5955 35.2177 16.9253 37.6399 19.3387C40.062 21.752 41.3952 24.9599 41.3938 28.3715C41.3909 35.4116 35.6359 41.1393 28.5648 41.1393Z" fill="black"/>
<path fill-rule="evenodd" clip-rule="evenodd" d="M35.2389 31.9668C34.8699 31.7811 33.0554 30.8837 32.7171 30.7597C32.3788 30.6359 32.1328 30.574 31.8868 30.9454C31.6408 31.3168 30.9335 32.1526 30.7182 32.4003C30.503 32.6478 30.2876 32.679 29.9186 32.4931C29.5496 32.3074 28.3604 31.9156 26.9508 30.6515C25.8536 29.6676 25.113 28.4527 24.8977 28.0811C24.6824 27.7098 24.8747 27.509 25.0595 27.3239C25.2255 27.1576 25.4286 26.8906 25.6132 26.6739C25.7976 26.4573 25.8592 26.3024 25.9822 26.055C26.1052 25.8073 26.0438 25.5906 25.9514 25.4049C25.8592 25.2192 25.1211 23.3929 24.8136 22.6499C24.5139 21.9265 24.2097 22.0245 23.9831 22.013C23.7682 22.0022 23.5219 22 23.2759 22C23.0299 22 22.63 22.0929 22.2917 22.4643C21.9535 22.8357 21 23.7335 21 25.5596C21 27.3859 22.3224 29.1502 22.507 29.3978C22.6915 29.6455 25.1094 33.3931 28.8115 35.0002C29.692 35.3826 30.3794 35.6108 30.9154 35.7818C31.7995 36.0643 32.604 36.0244 33.2399 35.9288C33.949 35.8223 35.4235 35.0313 35.731 34.1647C36.0385 33.2979 36.0385 32.5549 35.9462 32.4002C35.854 32.2455 35.6079 32.1526 35.2389 31.9668Z" fill="black"/>
</svg>
