<svg width="53" height="36" viewBox="0 0 53 36" fill="none" xmlns="http://www.w3.org/2000/svg">
<path d="M51.8928 5.61709C51.2834 3.40598 49.4876 1.6649 47.2071 1.07394C43.0736 -2.87155e-07 26.5001 0 26.5001 0C26.5001 0 9.92644 -2.87155e-07 5.79285 1.07394C3.51281 1.6649 1.71671 3.40598 1.10731 5.61709C0 9.62458 0 17.9862 0 17.9862C0 17.9862 0 26.3477 1.10731 30.3548C1.71671 32.5659 3.51281 34.3074 5.79285 34.8983C9.92644 35.9719 26.5001 35.9719 26.5001 35.9719C26.5001 35.9719 43.0736 35.9719 47.2071 34.8983C49.4876 34.3074 51.2834 32.5659 51.8928 30.3548C53 26.3477 53 17.9862 53 17.9862C53 17.9862 53 9.62458 51.8928 5.61709ZM21.1997 25.6946V10.2778L34.9693 17.9862L21.1997 25.6946Z" fill="white"/>
</svg>
