<?xml version="1.0" standalone="no"?>
<!DOCTYPE svg PUBLIC "-//W3C//DTD SVG 20010904//EN"
 "http://www.w3.org/TR/2001/REC-SVG-20010904/DTD/svg10.dtd">
<svg version="1.0" xmlns="http://www.w3.org/2000/svg"
 width="1728.000000pt" height="1728.000000pt" viewBox="0 0 1728.000000 1728.000000"
 preserveAspectRatio="xMidYMid meet">
<metadata>
Created by potrace 1.14, written by Peter Selinger 2001-2017
</metadata>
<g transform="translate(0.000000,1728.000000) scale(0.100000,-0.100000)"
fill="#000000" stroke="none">
<path d="M190 11842 c0 -5 -11 -8 -25 -7 -40 5 -65 -6 -78 -34 -10 -20 -13
-219 -11 -926 1 -495 2 -905 3 -912 0 -7 10 -20 21 -30 17 -17 39 -19 234 -18
192 0 218 2 233 18 16 16 18 45 18 319 1 296 2 301 23 318 20 16 56 18 414 19
358 1 394 3 409 19 9 9 63 107 119 217 57 110 125 242 151 292 l48 93 0 292
c1 161 -2 298 -6 304 -20 28 -61 31 -468 30 -236 -1 -425 2 -432 7 -7 5 -13 6
-13 1 0 -11 -611 -11 -628 0 -6 4 -12 3 -12 -2z m1061 -453 c15 -18 18 -40 18
-152 0 -125 -7 -162 -33 -179 -6 -4 -144 -8 -307 -8 -276 0 -297 1 -318 19
-20 17 -21 28 -22 156 0 172 5 183 88 187 32 2 170 2 307 0 238 -2 250 -3 267
-23z"/>
<path d="M2750 11844 c0 -5 -138 -9 -306 -8 -285 0 -308 -1 -330 -19 l-24 -18
3 -924 c2 -911 2 -924 22 -939 11 -9 25 -14 30 -12 6 2 22 0 37 -5 14 -4 29
-5 32 -1 8 7 74 7 82 -1 3 -3 16 -2 28 3 13 4 29 5 36 0 7 -5 23 -5 34 0 12 4
30 4 41 0 11 -4 27 -4 35 0 8 4 26 4 40 0 33 -9 72 5 88 31 10 16 13 91 12
314 0 283 0 295 20 315 23 23 7 22 257 22 147 0 196 -3 206 -14 11 -11 92
-193 92 -208 0 -3 3 -9 7 -15 3 -5 38 -91 78 -190 39 -99 78 -194 87 -212 16
-34 50 -48 113 -44 92 6 140 5 140 -1 0 -4 13 -3 30 2 17 5 32 5 35 0 3 -5 15
-6 28 -1 13 5 30 5 38 1 8 -5 21 -5 28 0 8 4 25 5 40 1 14 -4 45 -4 67 1 33 7
44 15 54 39 12 27 9 40 -25 127 -21 53 -48 117 -59 142 -11 25 -21 50 -22 55
-1 6 -11 31 -21 55 -11 25 -48 115 -82 200 -34 85 -68 169 -75 185 -53 117
-65 166 -46 185 3 3 10 14 17 25 14 24 100 164 128 209 11 18 40 65 64 105
l44 73 0 239 c0 213 -1 242 -17 257 -15 15 -42 17 -236 17 -121 0 -220 4 -220
8 0 5 -6 5 -12 1 -18 -11 -590 -11 -605 -1 -7 5 -13 6 -13 1z m430 -411 c20
-25 19 -44 -5 -158 -9 -44 -19 -89 -21 -99 -9 -49 -20 -51 -261 -53 -298 -3
-280 -13 -282 157 -2 112 0 129 18 151 l20 26 256 -1 c252 -1 257 -1 275 -23z"/>
<path d="M4670 11843 c0 -4 -73 -8 -163 -8 -146 0 -165 -2 -189 -20 -16 -11
-31 -32 -35 -48 -5 -15 -8 -420 -7 -900 0 -663 3 -877 12 -894 16 -28 68 -56
93 -50 11 3 22 1 25 -4 3 -5 10 -6 16 -3 13 8 134 8 147 -1 6 -3 11 -1 11 5 0
6 5 8 11 5 13 -9 175 -9 189 0 5 3 10 2 10 -4 0 -6 11 -6 30 -1 17 5 32 5 35
0 3 -5 15 -6 29 0 12 4 29 5 36 0 7 -5 23 -5 34 0 12 4 30 4 42 0 11 -5 27 -5
34 0 7 4 24 5 39 1 14 -4 37 -5 51 -1 14 4 37 3 53 -1 15 -4 27 -5 27 -1 0 4
16 7 35 7 19 0 35 -3 35 -7 0 -4 13 -3 30 2 17 5 32 5 35 0 3 -5 15 -6 28 -1
13 5 30 5 38 1 8 -5 21 -5 28 0 8 4 27 4 42 0 16 -5 29 -5 29 0 0 4 15 5 33 1
17 -4 46 -4 62 -1 17 4 39 3 51 -1 11 -4 27 -4 34 1 7 5 23 5 34 1 12 -4 32
-5 46 -1 14 4 37 3 53 -1 15 -4 27 -4 27 1 0 4 8 6 19 3 21 -5 71 17 92 43 21
25 23 1775 2 1816 -26 54 -13 53 -658 53 -331 1 -606 5 -613 9 -7 4 -12 4 -12
-1z m631 -520 c13 -24 15 -92 14 -455 -1 -388 -3 -429 -18 -446 -16 -17 -33
-19 -172 -19 -117 0 -160 3 -175 14 -20 14 -20 25 -20 458 l0 444 22 15 c18
13 53 16 178 16 l156 0 15 -27z"/>
<path d="M8235 11834 c-20 -15 -20 -27 -21 -949 -2 -905 -1 -934 17 -951 11
-9 22 -15 25 -12 3 4 19 2 35 -2 16 -5 29 -5 29 0 0 4 15 5 33 1 17 -4 47 -4
65 0 17 3 32 3 32 -2 0 -4 13 -4 29 1 15 4 34 4 41 0 7 -5 23 -4 36 0 12 5 24
6 27 4 8 -8 95 -9 102 -2 4 3 20 2 36 -2 16 -5 31 -5 34 0 3 4 20 4 39 0 19
-4 40 -4 47 0 7 5 22 4 35 0 12 -5 25 -6 28 -3 8 8 133 6 146 -2 5 -3 10 -1
10 5 0 6 5 8 11 5 13 -9 175 -9 189 0 5 3 10 2 10 -4 0 -6 11 -6 30 -1 17 5
32 5 35 0 3 -5 15 -6 29 0 12 4 29 5 36 0 7 -5 23 -5 34 0 12 4 30 4 41 0 11
-4 27 -4 36 1 9 5 19 6 22 3 7 -7 105 -9 112 -2 3 3 22 2 41 -2 18 -4 34 -5
34 -1 0 4 15 5 33 3 54 -6 67 15 68 111 2 254 0 291 -18 304 -13 10 -135 13
-545 13 l-528 0 -13 23 c-18 28 -16 189 2 211 9 10 29 14 73 13 33 -1 61 0 63
4 4 5 38 4 55 -1 7 -2 664 -2 670 1 3 1 9 1 14 0 5 -1 43 -2 85 -1 42 0 86 0
97 0 42 0 45 17 46 249 0 121 -3 229 -7 240 -3 11 -15 23 -26 26 -11 4 -253 7
-539 7 -469 0 -520 2 -533 17 -18 21 -17 222 1 244 11 13 80 15 500 15 268 0
508 1 534 1 68 1 70 10 70 223 -1 152 -3 183 -17 198 -17 19 -73 32 -81 19 -2
-4 -17 -4 -33 1 -16 4 -32 6 -35 3 -7 -8 -133 -6 -145 1 -5 4 -12 2 -15 -3 -4
-6 -18 -6 -36 -1 -16 5 -32 5 -35 0 -3 -5 -19 -5 -35 0 -17 5 -30 5 -30 1 0
-5 -17 -5 -37 -2 -21 4 -53 4 -70 0 -18 -3 -33 -3 -33 2 0 4 -13 4 -30 -1 -16
-5 -32 -5 -35 0 -3 5 -18 5 -34 0 -15 -4 -34 -4 -42 0 -7 5 -20 5 -30 0 -9 -5
-19 -7 -21 -4 -8 7 -108 10 -108 3 0 -4 -16 -3 -35 1 -19 4 -35 4 -35 0 0 -4
-18 -4 -40 0 -22 4 -43 4 -45 -1 -3 -4 -18 -4 -34 1 -16 4 -32 6 -35 2 -7 -6
-136 -5 -143 1 -2 3 -20 1 -39 -3 -18 -4 -34 -4 -34 0 0 5 -13 5 -30 0 -17 -5
-32 -5 -35 0 -3 5 -16 6 -28 1 -12 -5 -31 -5 -42 -1 -11 4 -34 4 -52 0 -18 -4
-33 -4 -35 0 -2 5 -12 2 -23 -6z"/>
<path d="M10297 11844 c-4 -4 -24 -8 -44 -10 -75 -5 -70 65 -69 -964 l1 -921
24 -19 c24 -17 63 -18 785 -19 518 0 770 3 788 10 15 6 30 23 35 37 10 31 10
415 0 454 -4 15 -18 30 -34 36 -19 7 -179 10 -468 10 -242 -1 -457 2 -477 6
-20 3 -40 14 -44 24 -11 25 -12 732 -1 765 5 15 10 28 10 29 1 1 223 5 493 8
454 5 492 6 508 23 16 16 19 41 20 235 1 119 0 226 -2 238 -9 52 0 51 -782 50
-399 -1 -728 2 -731 7 -3 4 -8 4 -12 1z"/>
<path d="M12220 11842 c0 -7 -4 -11 -9 -8 -4 3 -17 -4 -27 -15 -17 -19 -19
-41 -19 -256 -1 -216 0 -238 17 -255 22 -22 -7 -20 284 -21 199 -2 244 -5 264
-18 l23 -15 1 -653 c1 -634 2 -653 20 -667 11 -8 27 -14 35 -15 21 -1 427 -1
472 0 65 2 63 -20 64 693 l0 640 24 19 c21 18 42 19 275 19 202 0 256 3 272
14 18 13 19 29 19 251 1 210 -1 240 -16 259 l-17 21 -834 0 c-544 0 -836 3
-840 10 -5 6 -8 5 -8 -3z"/>
<path d="M7318 11812 c-14 -8 -31 -26 -37 -39 -7 -15 -11 -243 -11 -678 0
-384 -4 -665 -10 -679 -13 -36 -55 -60 -98 -57 -20 1 -41 2 -47 2 -5 -1 -27
-2 -48 -4 -21 -1 -41 1 -43 5 -3 5 -10 5 -16 1 -19 -11 -147 -4 -175 9 -15 7
-35 25 -46 39 -18 25 -19 46 -21 316 -1 267 -2 291 -19 308 -17 17 -37 18
-195 19 -199 0 -224 -4 -238 -36 -7 -14 -10 -216 -9 -528 1 -462 2 -507 18
-531 9 -14 27 -30 40 -36 13 -6 294 -9 732 -9 784 1 750 -2 772 63 6 17 10
370 9 911 l-1 884 -33 29 -33 30 -232 -1 c-195 -1 -236 -4 -259 -18z"/>
<path d="M14098 9283 c-92 -19 -151 -62 -205 -152 -48 -80 -153 -273 -153
-282 0 -5 -3 -9 -7 -9 -5 0 -19 -24 -33 -53 -14 -28 -28 -54 -31 -57 -3 -3
-25 -41 -49 -85 -23 -44 -80 -145 -125 -225 -45 -80 -93 -165 -107 -190 -38
-68 -148 -263 -158 -280 -18 -30 -74 -126 -93 -160 -10 -19 -37 -65 -58 -102
-22 -36 -39 -71 -39 -77 0 -6 -3 -11 -7 -11 -5 0 -13 -10 -19 -23 -6 -12 -23
-46 -38 -75 -69 -134 -57 -220 61 -420 24 -40 43 -77 43 -82 0 -6 5 -10 10
-10 6 0 10 -4 10 -9 0 -4 52 -100 116 -212 64 -112 128 -226 143 -254 44 -79
167 -297 256 -455 45 -80 94 -167 110 -195 140 -253 182 -319 245 -386 8 -8
25 -28 36 -43 l22 -27 1043 -1 1043 0 21 24 c11 13 35 42 54 64 18 21 40 54
49 72 9 17 19 32 24 32 4 0 8 5 8 12 0 6 31 66 69 132 38 67 81 144 96 171 16
28 36 64 46 80 10 17 25 44 33 60 8 17 28 53 44 80 41 71 70 122 99 174 13 25
34 62 45 81 11 19 31 55 45 80 13 25 39 70 56 101 43 76 138 243 162 287 11
21 22 39 25 42 3 3 14 23 26 45 36 70 76 139 96 168 11 15 16 27 13 27 -3 0 2
12 13 28 71 99 78 249 17 332 -13 18 -22 36 -20 40 3 4 -2 13 -10 20 -8 7 -15
16 -15 20 0 5 -19 41 -43 82 -42 70 -83 143 -123 218 -11 19 -21 37 -24 40 -3
3 -11 16 -17 30 -7 14 -25 48 -41 75 -45 77 -68 119 -108 192 -21 37 -46 82
-56 98 -10 17 -21 37 -25 45 -4 8 -26 48 -50 88 -24 41 -43 80 -43 88 0 8 -3
14 -8 14 -4 0 -16 17 -27 37 -11 21 -46 85 -79 143 -32 58 -74 134 -94 170
-19 36 -43 77 -53 92 -11 14 -19 31 -19 37 0 7 -5 17 -10 24 -6 7 -28 41 -49
77 -40 67 -112 133 -160 145 -62 15 -152 16 -1015 18 -673 1 -925 -1 -968 -10z
m1195 -1012 c101 -27 215 -82 302 -146 72 -53 159 -138 185 -181 8 -13 18 -24
22 -24 5 0 8 -7 8 -15 0 -8 3 -15 8 -15 4 0 12 -9 17 -19 6 -11 23 -43 38 -73
31 -58 73 -167 81 -210 2 -15 7 -31 10 -36 9 -15 19 -137 19 -223 -1 -75 -7
-122 -27 -218 -21 -96 -105 -270 -171 -351 -47 -58 -164 -168 -217 -203 -110
-72 -244 -126 -363 -146 -92 -15 -268 -6 -360 18 -307 81 -558 325 -655 638
-55 179 -59 375 -11 544 18 62 61 169 81 199 6 8 14 24 19 36 5 11 15 27 23
35 8 8 24 30 37 49 30 44 153 163 206 200 36 24 64 42 131 79 33 18 156 63
183 67 14 2 46 7 71 13 74 15 275 5 363 -18z"/>
<path d="M438 9285 c-2 -3 -65 -6 -140 -8 -150 -3 -174 -11 -205 -70 -16 -30
-17 -153 -18 -1847 0 -998 3 -1826 7 -1840 12 -37 49 -75 83 -86 18 -6 217
-10 490 -9 l460 0 37 23 c63 39 62 34 63 672 1 625 -1 611 57 653 29 22 125
39 134 25 3 -5 11 -5 17 -1 13 8 155 8 163 0 3 -3 18 -2 32 2 15 4 39 4 55 0
15 -4 27 -4 27 -1 0 8 125 6 146 -2 8 -3 14 -2 14 2 0 4 27 7 60 7 33 0 60 -4
60 -8 0 -4 8 -3 18 2 10 5 24 6 31 2 7 -5 30 -5 52 -1 22 4 42 3 45 -1 3 -5
10 -6 16 -3 13 8 126 10 133 2 3 -3 24 -2 45 2 22 4 43 3 46 -1 3 -5 11 -6 17
-2 10 6 91 6 191 1 20 -1 43 -15 68 -40 21 -21 37 -41 37 -45 -1 -5 0 -10 1
-13 1 -3 3 -270 3 -595 2 -551 3 -592 20 -617 44 -65 24 -62 549 -63 467 0
477 0 505 21 15 11 36 36 45 54 16 31 17 133 18 1434 1 771 1 1408 1 1416 0 8
-1 202 -3 430 -4 534 19 496 -293 499 -221 2 -191 2 -308 1 -50 -1 -97 -1
-102 0 -6 1 -14 2 -20 0 -5 -1 -78 -1 -161 -1 -130 0 -155 -3 -182 -19 -71
-43 -67 -5 -68 -695 -1 -620 -3 -646 -36 -685 -39 -45 -36 -45 -692 -45 -375
-1 -633 3 -651 9 -33 10 -72 47 -84 80 -5 11 -8 296 -9 633 0 584 0 614 -19
649 -34 66 -58 72 -276 72 -106 0 -196 1 -202 2 -5 1 -14 1 -20 0 -23 -4 -235
-1 -243 4 -5 3 -11 3 -14 1z"/>
<path d="M5017 9283 c-4 -3 -79 -5 -168 -5 -176 1 -197 -4 -223 -57 -10 -21
-12 -395 -12 -1873 l1 -1848 32 -31 32 -32 1679 0 c1330 0 1686 2 1710 12 58
24 60 39 58 434 l-1 359 -33 29 c-18 16 -44 29 -60 29 -15 1 -526 1 -1137 1
-669 0 -1124 4 -1145 10 -58 15 -65 45 -64 253 l1 179 33 29 c19 15 46 28 60
29 14 0 38 2 53 3 15 1 32 -1 38 -5 6 -3 28 -3 50 1 22 4 42 3 45 -1 3 -5 10
-6 16 -3 13 8 126 10 133 2 3 -3 24 -2 45 2 22 4 43 3 46 -1 3 -5 11 -6 17 -2
13 8 155 8 163 0 3 -3 18 -2 32 2 15 4 39 4 55 0 15 -4 27 -4 27 -1 0 8 125 6
146 -2 8 -3 14 -2 14 2 0 4 27 7 60 7 33 0 60 -4 60 -8 0 -4 8 -3 18 2 10 5
24 6 31 2 7 -5 30 -5 52 -1 22 4 42 3 45 -1 3 -5 10 -6 16 -3 13 8 126 10 133
2 3 -3 24 -2 45 2 22 4 43 3 46 -1 3 -5 11 -6 17 -2 13 8 155 8 163 0 3 -3 18
-2 32 2 15 4 39 4 55 0 15 -4 27 -4 27 -1 0 8 125 6 146 -2 8 -3 14 -2 14 2 0
4 27 7 60 7 33 0 60 -4 60 -8 0 -4 8 -3 18 2 10 5 24 6 31 2 7 -5 30 -5 52 -1
22 4 42 3 45 -1 3 -5 10 -6 16 -3 5 4 46 7 90 8 78 1 81 2 107 34 l27 32 1
455 c0 250 -4 455 -9 455 -4 0 -8 7 -8 15 0 8 -13 23 -30 33 -27 17 -89 18
-1157 17 -640 0 -1144 4 -1166 9 -65 15 -73 46 -72 272 1 126 5 200 13 220 26
62 -51 58 1207 59 891 1 1155 4 1172 13 46 26 48 36 49 425 l1 369 -31 33
c-29 30 -35 32 -101 33 -39 0 -75 1 -80 2 -6 1 -12 2 -15 1 -7 -3 -553 -3
-565 -1 -5 2 -14 1 -20 0 -12 -2 -606 -2 -620 1 -5 1 -14 0 -20 -1 -12 -2
-606 -2 -620 1 -5 1 -14 0 -20 -1 -12 -2 -606 -2 -620 1 -5 1 -14 0 -20 -1
-21 -5 -355 -1 -363 4 -5 3 -12 3 -15 -1z"/>
<path d="M9080 9282 c0 -5 -12 -7 -27 -5 -32 5 -92 -25 -107 -53 -6 -10 -15
-22 -21 -26 -6 -4 -9 -675 -10 -1825 0 -1455 2 -1826 12 -1858 9 -27 26 -48
50 -65 l37 -25 441 0 442 0 35 27 c21 16 38 41 45 65 8 26 11 221 11 610 0
429 3 577 13 595 14 28 38 51 66 66 25 14 143 19 161 8 6 -4 12 -4 12 1 0 4
14 8 30 8 17 0 30 -4 30 -8 0 -4 8 -3 18 2 10 5 24 6 31 2 7 -5 30 -5 52 -1
22 4 42 3 45 -1 3 -5 10 -6 16 -3 13 8 126 10 133 2 3 -3 24 -2 45 2 22 4 43
3 46 -1 3 -5 11 -6 17 -2 6 4 45 6 87 5 41 -2 87 -2 103 -2 51 1 99 -33 129
-90 7 -14 24 -43 38 -65 25 -41 28 -46 71 -123 13 -24 29 -51 34 -60 68 -114
85 -144 85 -153 0 -5 5 -9 10 -9 6 0 10 -4 10 -9 0 -5 59 -109 130 -231 72
-122 130 -226 130 -231 0 -5 5 -9 10 -9 6 0 10 -4 10 -9 0 -6 17 -38 37 -73
58 -98 65 -110 111 -191 24 -42 57 -87 75 -99 l32 -23 500 -1 c459 0 503 1
536 17 77 38 95 114 47 206 -39 76 -123 233 -161 303 -16 30 -45 84 -64 120
-19 36 -47 88 -61 115 -15 28 -54 100 -86 160 -33 61 -67 124 -76 140 -9 17
-47 89 -85 160 -37 72 -71 135 -75 140 -4 6 -33 60 -65 120 -32 61 -71 135
-88 165 -16 30 -51 96 -77 145 -67 127 -65 139 42 330 47 83 98 175 115 205
49 91 58 105 68 112 6 4 6 8 1 8 -5 0 -3 7 4 15 13 16 58 95 86 150 8 17 24
46 35 65 12 19 31 53 42 75 12 22 24 42 27 45 3 3 17 29 30 58 14 28 27 52 30
52 4 0 12 16 20 35 8 19 17 35 22 35 4 0 8 9 8 20 0 11 4 20 9 20 5 0 11 8 14
18 4 9 17 35 29 57 13 22 45 81 72 130 27 50 54 93 60 97 6 4 7 8 2 8 -5 0 -3
8 5 18 8 9 23 33 32 52 10 19 28 53 41 75 56 96 114 212 117 230 1 11 -3 38
-9 60 -19 67 -63 92 -163 93 -36 0 -69 2 -75 3 -5 1 -11 1 -14 0 -7 -3 -453
-3 -465 -1 -5 1 -14 1 -20 0 -5 -1 -62 -1 -125 0 -141 1 -117 1 -230 0 -52 -1
-99 -1 -105 0 -5 1 -14 2 -20 1 -5 -1 -111 -2 -235 -1 -124 0 -232 1 -240 1
-8 0 -67 0 -130 0 -145 0 -124 0 -233 -1 -50 -1 -97 -1 -102 0 -6 1 -12 2 -15
1 -7 -3 -453 -3 -465 -1 -5 1 -14 1 -20 0 -5 -1 -62 -1 -125 0 -141 1 -117 1
-230 0 -52 -1 -99 -1 -105 0 -5 1 -14 2 -20 1 -5 -1 -111 -2 -235 -1 -124 0
-232 1 -240 1 -192 -2 -241 -2 -250 4 -5 3 -10 2 -10 -3z m2027 -824 c58 -25
94 -84 86 -138 -2 -14 -15 -76 -29 -137 -14 -62 -25 -114 -24 -115 1 -2 -4
-16 -10 -32 -6 -16 -13 -44 -16 -62 -9 -60 -42 -106 -86 -123 -13 -4 -65 -8
-116 -7 -50 0 -92 -3 -92 -7 0 -5 -5 -5 -10 -2 -15 9 -104 10 -118 1 -7 -4
-12 -4 -12 1 0 4 -51 7 -112 6 -162 -4 -210 -3 -219 3 -5 3 -9 0 -9 -6 0 -6
-5 -8 -11 -4 -16 10 -58 11 -91 2 -16 -3 -28 -4 -28 0 0 4 -27 6 -59 6 -72 -2
-114 17 -142 62 -19 31 -20 49 -21 249 0 210 1 217 24 251 41 62 34 62 575 63
363 0 500 -2 520 -11z"/>
</g>
</svg>
