<svg width="29" height="24" viewBox="0 0 29 24" fill="none" xmlns="http://www.w3.org/2000/svg">
<path fill-rule="evenodd" clip-rule="evenodd" d="M11.2134 17.1759V20.7458H26.4211C27.7169 20.7458 28.7674 19.7042 28.7674 18.4052V3.19198C28.7674 1.89927 27.7177 0.851322 26.4211 0.851322H3.02738C1.73154 0.851322 0.681061 1.89293 0.681061 3.19198V18.4052C0.681061 19.6979 1.73082 20.7458 3.02738 20.7458H5.36212V17.1759C4.6382 16.4372 4.19185 15.4254 4.19185 14.3094C4.19185 12.0472 6.02566 10.2134 8.28778 10.2134C10.5499 10.2134 12.3837 12.0472 12.3837 14.3094C12.3837 15.4254 11.9374 16.4372 11.2134 17.1759ZM6.53238 18.0111V23.7885L8.28778 22.0331L10.0432 23.7885V18.0111C9.51114 18.2639 8.91598 18.4053 8.28778 18.4053C7.65958 18.4053 7.06442 18.2639 6.53238 18.0111ZM4.19185 6.70264V7.87291H25.2566V6.70264H4.19185ZM14.7242 10.2134V11.3837H25.2566V10.2134H14.7242ZM18.235 13.7242V14.8945H25.2566V13.7242H18.235ZM8.28778 17.235C9.90358 17.235 11.2134 15.9252 11.2134 14.3094C11.2134 12.6936 9.90358 11.3837 8.28778 11.3837C6.67198 11.3837 5.36212 12.6936 5.36212 14.3094C5.36212 15.9252 6.67198 17.235 8.28778 17.235Z" fill="#0663F6"/>
</svg>
