<svg width="62" height="62" viewBox="0 0 62 62" fill="none" xmlns="http://www.w3.org/2000/svg">
<path d="M30.9993 5.16797C16.791 5.16797 5.16602 16.793 5.16602 31.0013C5.16602 45.2096 16.791 56.8346 30.9993 56.8346C45.2077 56.8346 56.8327 45.2096 56.8327 31.0013C56.8327 16.793 45.2077 5.16797 30.9993 5.16797Z" fill="#EFC41A"/>
<path opacity="0.1" d="M56.8332 31.0018C56.8332 45.2102 45.2082 56.8352 30.9999 56.8352C23.7665 56.8352 17.3082 53.9935 12.6582 49.3435L49.3415 12.6602C53.9915 17.3102 56.8332 23.7685 56.8332 31.0018Z" fill="black"/>
<path d="M30.9997 36.1677C29.4497 36.1677 28.4164 35.1344 28.4164 33.5844V31.776C28.4164 30.7427 29.1914 29.7094 30.2247 29.451L32.0331 28.9344C33.0664 28.676 33.5831 27.6427 33.5831 26.6094C33.5831 25.3177 32.5497 24.2844 31.2581 24.2844H30.9997C30.2247 24.2844 29.4497 24.801 28.9331 25.3177C28.1581 26.6094 26.6081 26.8677 25.3164 26.0927C24.0247 25.0594 23.7664 23.5094 24.5414 22.2177C25.8331 20.151 28.4164 18.8594 30.7414 18.8594H30.9997C35.1331 18.8594 38.4914 22.2177 38.4914 26.351C38.4914 29.7094 36.4247 32.551 33.3247 33.5844C33.5831 35.1344 32.2914 36.1677 30.9997 36.1677ZM30.9997 38.751C29.4497 38.751 28.4164 39.7844 28.4164 41.3344C28.4164 42.8844 29.4497 43.9177 30.9997 43.9177C32.5497 43.9177 33.5831 42.8844 33.5831 41.3344C33.5831 39.7844 32.5497 38.751 30.9997 38.751Z" fill="black"/>
</svg>
