<svg width="60" height="60" viewBox="0 0 60 60" fill="none" xmlns="http://www.w3.org/2000/svg">
<circle cx="30" cy="30" r="30" fill="black"/>
<path d="M39.4799 29.5148V41.4007C39.4799 41.7945 39.3163 42.1334 38.9928 42.4195L35.3625 46.0128C35.071 46.2992 34.7119 46.4418 34.2745 46.4418H25.6879C25.2505 46.4418 24.8879 46.3108 24.5999 46.0472L20.9697 42.4547C20.6674 42.1683 20.5181 41.8269 20.5181 41.4323V29.5148H15.5332V42.0972C15.5332 43.3493 15.967 44.4037 16.8345 45.2614L21.3288 49.713C22.2319 50.5706 23.295 51 24.5216 51H35.4408C36.6674 51 37.7305 50.559 38.6337 49.6774L43.1279 45.2265C44.0203 44.3713 44.4648 43.3194 44.4648 42.0711V29.5148H39.4799Z" fill="white"/>
<path d="M35.4384 22.875H45.6002V18.0183C45.6002 16.7813 45.0562 15.5935 44.0855 14.8164C41.6358 12.8583 37.6997 11.0075 35.4384 10.9399V22.875Z" fill="#EFC41A"/>
<path d="M33.8623 9.26926H30.7157V13.8627H29.1406V9.26926H25.9939V22.875H33.8623V9.26926Z" fill="#EFC41A"/>
<path d="M47.0578 24.4411H45.6V24.4362H14.4285C14.4285 24.4379 14.4285 24.4393 14.4285 24.4411H12.9422C12.3307 24.4411 12 24.8191 12 25.5208V28.4362C12 29.138 12.3307 29.5156 12.9422 29.5156H47.0578C47.6693 29.5156 48 29.138 48 28.4362V25.5208C48 24.8191 47.6693 24.4411 47.0578 24.4411Z" fill="#EFC41A"/>
<path d="M24.4193 22.875V10.9378C22.2042 10.9856 19.0575 12.6939 16.6006 14.5814C15.3348 15.5552 14.574 16.4307 14.5455 18.0183C14.5135 19.7006 14.4637 21.1906 14.4424 22.875H24.4193Z" fill="#EFC41A"/>
</svg>
