<svg width="30" height="30" viewBox="0 0 30 30" fill="none" xmlns="http://www.w3.org/2000/svg">
<circle cx="15" cy="15" r="15" fill="#EFC41A"/>
<g clip-path="url(#clip0_2_1002)">
<path fill-rule="evenodd" clip-rule="evenodd" d="M15.7285 6.97827C19.7557 6.97827 23.0202 10.2428 23.0202 14.2699H22.291C22.291 12.5295 21.5996 10.8603 20.3689 9.62955C19.1382 8.39884 17.469 7.70744 15.7285 7.70744V6.97827ZM15.7285 9.16577C17.0822 9.16577 18.3805 9.70353 19.3377 10.6607C20.2949 11.618 20.8327 12.9162 20.8327 14.2699H20.1035C20.1035 13.1096 19.6426 11.9968 18.8221 11.1763C18.0016 10.3559 16.8888 9.89494 15.7285 9.89494V9.16577ZM15.7285 11.3533C16.5021 11.3533 17.2439 11.6606 17.7909 12.2075C18.3379 12.7545 18.6452 13.4964 18.6452 14.2699H17.916C17.916 13.6898 17.6855 13.1334 17.2753 12.7231C16.8651 12.3129 16.3087 12.0824 15.7285 12.0824V11.3533Z" fill="white"/>
<path fill-rule="evenodd" clip-rule="evenodd" d="M17.822 18.7529C17.2387 19.2247 16.4716 18.7055 15.0534 17.5644L11.9508 14.5019C11.2843 13.6867 10.7017 12.8328 11.226 12.2094L12.1987 11.3672L12.5844 11.0595C12.6503 10.9932 12.7023 10.9146 12.7376 10.8281C12.7728 10.7416 12.7906 10.649 12.7897 10.5556C12.7889 10.4622 12.7696 10.3699 12.7328 10.2841C12.6961 10.1982 12.6427 10.1205 12.5757 10.0554L8.93859 6.45697C8.87291 6.39087 8.79473 6.33851 8.7086 6.30294C8.62248 6.26737 8.53013 6.24929 8.43695 6.24976C8.34377 6.25024 8.25162 6.26926 8.16586 6.30571C8.0801 6.34216 8.00246 6.39531 7.93745 6.46207L7.66037 6.78582L6.81453 7.83947C6.16193 8.74145 4.93328 12.5134 10.9365 18.5874C17.1665 24.8903 21.2272 23.7732 22.1365 23.0207L23.5044 21.9182C23.6364 21.7836 23.7098 21.6023 23.7086 21.4137C23.7074 21.2252 23.6316 21.0448 23.4979 20.912L19.8579 17.3128C19.7922 17.247 19.7141 17.195 19.6281 17.1597C19.5421 17.1244 19.45 17.1065 19.357 17.1071C19.2641 17.1077 19.1722 17.1268 19.0867 17.1632C19.0011 17.1997 18.9237 17.2527 18.8589 17.3194L17.822 18.7522V18.7529Z" fill="black"/>
</g>
<defs>
<clipPath id="clip0_2_1002">
<rect width="17.5" height="17.5" fill="white" transform="translate(6.25 6.25)"/>
</clipPath>
</defs>
</svg>
