<svg width="32" height="32" viewBox="0 0 32 32" fill="none" xmlns="http://www.w3.org/2000/svg">
<circle cx="16" cy="16" r="16" fill="#EFC41A"/>
<g clip-path="url(#clip0_2_1010)">
<path d="M9.77808 22.9992C9.77808 20.8515 12.5639 19.1104 16.0003 19.1104C19.4367 19.1104 22.2225 20.8515 22.2225 22.9992" stroke="black" stroke-width="1.5" stroke-linecap="round" stroke-linejoin="round"/>
<path d="M16.0003 16.777C18.1481 16.777 19.8892 15.0359 19.8892 12.8882C19.8892 10.7404 18.1481 8.99927 16.0003 8.99927C13.8526 8.99927 12.1115 10.7404 12.1115 12.8882C12.1115 15.0359 13.8526 16.777 16.0003 16.777Z" fill="black" stroke="black" stroke-width="1.5" stroke-linecap="round" stroke-linejoin="round"/>
<path d="M16.0003 19.2656C12.6021 19.2656 10.9582 20.6976 10.2944 21.9322C10.0096 22.462 10.4649 22.999 11.0664 22.999H20.9341C21.5356 22.999 21.9909 22.462 21.7061 21.9322C21.0424 20.6976 19.3984 19.2656 16.0003 19.2656Z" fill="black"/>
<path d="M10.2944 21.9322L9.63383 21.5771L9.63383 21.5771L10.2944 21.9322ZM21.7061 21.9322L21.0455 22.2874L21.0455 22.2874L21.7061 21.9322ZM10.955 22.2874C11.4719 21.326 12.8423 20.0156 16.0003 20.0156V18.5156C12.362 18.5156 10.4445 20.0692 9.63383 21.5771L10.955 22.2874ZM16.0003 20.0156C19.1582 20.0156 20.5287 21.326 21.0455 22.2874L22.3667 21.5771C21.5561 20.0692 19.6386 18.5156 16.0003 18.5156V20.0156ZM20.9341 22.249H11.0664V23.749H20.9341V22.249ZM21.0455 22.2874C21.0486 22.2932 21.0469 22.2917 21.0452 22.2833C21.0434 22.2748 21.0424 22.2633 21.0437 22.2505C21.0463 22.2236 21.0561 22.2094 21.0569 22.2085C21.0571 22.2082 21.0551 22.2109 21.0497 22.2152C21.0444 22.2194 21.0364 22.2247 21.0255 22.2299C21.0037 22.2403 20.9729 22.249 20.9341 22.249V23.749C21.4531 23.749 21.9437 23.5178 22.2481 23.1201C22.5688 22.7009 22.6576 22.1183 22.3667 21.5771L21.0455 22.2874ZM9.63383 21.5771C9.34293 22.1183 9.43169 22.7009 9.75243 23.1201C10.0568 23.5178 10.5474 23.749 11.0664 23.749V22.249C11.0277 22.249 10.9968 22.2403 10.975 22.2299C10.9641 22.2247 10.9561 22.2194 10.9508 22.2152C10.9455 22.2109 10.9435 22.2082 10.9436 22.2085C10.9444 22.2094 10.9543 22.2236 10.9569 22.2505C10.9581 22.2633 10.9571 22.2748 10.9554 22.2833C10.9536 22.2917 10.9519 22.2932 10.955 22.2874L9.63383 21.5771Z" fill="black"/>
</g>
<defs>
<clipPath id="clip0_2_1010">
<rect width="18.6667" height="18.6667" fill="white" transform="translate(6.66699 6.66602)"/>
</clipPath>
</defs>
</svg>
