<svg width="50" height="50" viewBox="0 0 50 50" fill="none" xmlns="http://www.w3.org/2000/svg">
<path d="M42.6421 41.2159V42.6414H8.49008V41.2159C8.48997 39.6801 8.96617 38.182 9.85308 36.9281C10.74 35.6742 11.9939 34.7262 13.4421 34.2148L21.1115 31.5049L25.5661 36.7019L30.0207 31.5049L37.6901 34.2148C39.1383 34.7262 40.3922 35.6742 41.2791 36.9281C42.166 38.182 42.6422 39.6801 42.6421 41.2159Z" fill="#425B72"/>
<path d="M12.1424 41.1565C11.7649 41.1546 11.4035 41.0038 11.1365 40.7369C10.8696 40.47 10.7188 40.1085 10.7169 39.7311C10.7179 38.7361 10.9189 37.7516 11.3079 36.8358C11.6969 35.9201 12.2659 35.0919 12.9813 34.4004C11.6556 34.979 10.5277 35.9322 9.73637 37.143C8.94499 38.3538 8.52455 39.7695 8.5267 41.2159V42.6414H42.6416C42.6416 41.06 42.6416 41.2382 42.5822 41.1565H12.1424Z" fill="#374F68"/>
<path d="M19.6261 32.0322V36.7021C17.2874 36.7021 17.1167 36.6576 16.6564 36.8358V33.0791L19.6261 32.0322Z" fill="#FFCC66"/>
<path d="M19.6266 32.0322V35.9597C19.3366 35.9666 19.0481 35.9155 18.7782 35.8093C18.5082 35.7031 18.2622 35.5439 18.0547 35.3412C17.8472 35.1385 17.6823 34.8964 17.5697 34.629C17.4572 34.3617 17.3992 34.0745 17.3993 33.7844V32.8192L19.6266 32.0322Z" fill="#FFDE76"/>
<path d="M34.4743 33.0791V36.8358C34.0066 36.6576 33.8209 36.7021 31.5045 36.7021V32.0322L34.4743 33.0791Z" fill="#FFCC66"/>
<path d="M34.4748 33.0799V35.9606C33.8841 35.9606 33.3175 35.7259 32.8998 35.3082C32.4821 34.8905 32.2475 34.324 32.2475 33.7333V32.293L34.4748 33.0799Z" fill="#FFDE76"/>
<path d="M30.0202 28.751V31.5054L25.5656 36.7025L21.111 31.5054V28.751C21.6683 29.383 22.3538 29.8891 23.1218 30.2358C23.8899 30.5826 24.7229 30.7619 25.5656 30.7619C26.4082 30.7619 27.2413 30.5826 28.0093 30.2358C28.7773 29.8891 29.4628 29.383 30.0202 28.751Z" fill="#EDB996"/>
<path d="M29.0407 32.6488L25.5661 36.7025C22.7003 33.3541 22.5964 33.161 22.5964 33.2353C22.5969 33.0192 22.6532 32.807 22.7598 32.6191C22.8664 32.4312 23.0197 32.274 23.2049 32.1627C23.3901 32.0515 23.6009 31.9899 23.8169 31.984C24.0328 31.9781 24.2466 32.0281 24.4376 32.1291C26.1155 32.9903 27.2589 33.2873 29.0407 32.6488ZM31.5056 21.1113C31.5056 24.6082 31.7803 26.3084 30.4365 28.2164C29.9221 28.9543 29.2469 29.5658 28.4617 30.0046C27.6765 30.4435 26.8019 30.6982 25.9039 30.7497C25.0059 30.8012 24.1079 30.648 23.2777 30.3018C22.4475 29.9556 21.7068 29.4253 21.1115 28.751C19.2554 26.6425 19.6266 24.5859 19.6266 21.1113H31.5056Z" fill="#F6CCAF"/>
<path d="M31.5051 22.5957C31.5051 24.8824 31.7055 26.397 30.436 28.2159C29.2926 29.0106 27.9064 29.3782 26.5195 29.2547C25.1327 29.1313 23.8332 28.5244 22.8483 27.5403C21.3634 26.0554 21.111 24.4666 21.111 22.5957H31.5051Z" fill="#FFDEC7"/>
<path d="M32.9899 24.0811H31.5051V21.1113H32.9899C33.3837 21.1113 33.7614 21.2678 34.0399 21.5462C34.3184 21.8247 34.4748 22.2024 34.4748 22.5962C34.4748 22.99 34.3184 23.3677 34.0399 23.6462C33.7614 23.9246 33.3837 24.0811 32.9899 24.0811ZM18.1412 24.0811H19.6261V21.1113H18.1412C17.7474 21.1113 17.3697 21.2678 17.0913 21.5462C16.8128 21.8247 16.6564 22.2024 16.6564 22.5962C16.6564 22.99 16.8128 23.3677 17.0913 23.6462C17.3697 23.9246 17.7474 24.0811 18.1412 24.0811Z" fill="#F6CCAF"/>
<path d="M32.9904 18.1416H18.1417C17.7317 18.1416 17.3993 18.474 17.3993 18.884V20.3689C17.3993 20.7789 17.7317 21.1113 18.1417 21.1113H32.9904C33.4005 21.1113 33.7329 20.7789 33.7329 20.3689V18.884C33.7329 18.474 33.4005 18.1416 32.9904 18.1416Z" fill="#FFCC66"/>
<path d="M33.7319 18.8836V19.626H20.368C20.1711 19.626 19.9823 19.5478 19.843 19.4086C19.7038 19.2693 19.6256 19.0805 19.6256 18.8836V18.1411H32.9894C33.1863 18.1411 33.3752 18.2194 33.5144 18.3586C33.6536 18.4978 33.7319 18.6867 33.7319 18.8836ZM32.9894 16.6563V18.1411H18.1407V16.6563C18.1407 15.081 18.7665 13.5703 19.8803 12.4564C20.9942 11.3426 22.5049 10.7168 24.0802 10.7168V14.429H27.0499V10.7168C28.6252 10.7168 30.1359 11.3426 31.2498 12.4564C32.3637 13.5703 32.9894 15.081 32.9894 16.6563Z" fill="#FFDE76"/>
<path d="M19.6256 15.1712C19.6248 13.9584 19.9953 12.7744 20.6873 11.7783C19.9008 12.3257 19.2585 13.0552 18.8151 13.9045C18.3716 14.7539 18.1403 15.698 18.1407 16.6561V18.141H32.9894V16.6561H21.1105C20.7166 16.6561 20.339 16.4997 20.0605 16.2212C19.782 15.9427 19.6256 15.5651 19.6256 15.1712Z" fill="#FFCC66"/>
<path d="M27.0509 8.49023H24.0812V14.4297H27.0509V8.49023Z" fill="#FFCC66"/>
<path d="M27.05 8.49023V13.6873C26.4592 13.6873 25.8927 13.4526 25.475 13.0349C25.0573 12.6172 24.8226 12.0507 24.8226 11.46V8.49023H27.05Z" fill="#FFDE76"/>
<path d="M21.8529 16.6565V18.1414H20.368V16.6565C20.368 16.4596 20.4462 16.2708 20.5855 16.1315C20.7247 15.9923 20.9136 15.9141 21.1105 15.9141C21.3074 15.9141 21.4962 15.9923 21.6354 16.1315C21.7747 16.2708 21.8529 16.4596 21.8529 16.6565ZM30.7621 16.6565V18.1414H29.2772V16.6565C29.2772 16.4596 29.3555 16.2708 29.4947 16.1315C29.6339 15.9923 29.8228 15.9141 30.0197 15.9141C30.2166 15.9141 30.4054 15.9923 30.5447 16.1315C30.6839 16.2708 30.7621 16.4596 30.7621 16.6565Z" fill="#FFBA55"/>
<path d="M35.9602 38.9296V42.6418H15.172V38.9296C15.1733 38.4701 15.3167 38.0222 15.5825 37.6474C15.8484 37.2726 16.2236 36.9892 16.6569 36.836C17.1914 36.6281 16.256 36.7023 33.7329 36.7023C34.3236 36.7023 34.8901 36.937 35.3078 37.3547C35.7255 37.7724 35.9602 38.3389 35.9602 38.9296Z" fill="#FFCC66"/>
<path d="M35.9601 38.9295V41.1568H21.1114C18.498 41.1568 16.8869 38.5063 17.5254 36.7021H33.7328C34.3235 36.7021 34.89 36.9368 35.3077 37.3545C35.7254 37.7722 35.9601 38.3387 35.9601 38.9295Z" fill="#FFDE76"/>
</svg>
