<svg width="50" height="50" viewBox="0 0 50 50" fill="none" xmlns="http://www.w3.org/2000/svg">
<g clip-path="url(#clip0_5951_31807)">
<path d="M43.3846 19.0585V16.4245C43.3846 16.1146 43.1522 15.8047 42.8423 15.7272L40.3632 15.1849C40.2083 14.5652 39.9759 14.0229 39.666 13.4806L41.0605 11.3888C41.2154 11.0789 41.2154 10.6916 40.983 10.4592L39.1237 8.59986C38.8913 8.36744 38.5039 8.28997 38.194 8.52239L36.1023 9.91687C35.56 9.60699 35.0177 9.37457 34.3979 9.21963L33.8556 6.74054C33.7781 6.43066 33.5457 6.19824 33.1584 6.19824H30.5243C30.2145 6.19824 29.9046 6.43066 29.8271 6.74054L29.2848 9.21963C28.665 9.37457 28.1227 9.60699 27.6579 9.91687L25.5662 8.52239C25.2563 8.36744 24.8689 8.36744 24.6365 8.59986L22.7772 10.4592C22.5448 10.6916 22.4673 11.0789 22.6997 11.3888L24.0942 13.4806C23.7843 14.0229 23.5519 14.5652 23.397 15.1075L20.9179 15.7272C20.608 15.8047 20.3756 16.1146 20.3756 16.4245V19.0585C20.3756 19.3684 20.608 19.6783 20.9179 19.7558L23.397 20.2981C23.5519 20.9178 23.7843 21.4601 24.0942 21.925L22.6997 24.0167C22.5448 24.3266 22.5448 24.7139 22.7772 24.9463L24.6365 26.8057C24.8689 27.0381 25.2563 27.1155 25.5662 26.8831L27.6579 25.4886C28.2002 25.7985 28.7425 26.0309 29.2848 26.1859L29.8271 28.665C29.9046 28.9749 30.2145 29.2073 30.5243 29.2073H33.1584C33.4683 29.2073 33.7781 28.9749 33.8556 28.665L34.3979 26.1859C35.0177 26.0309 35.56 25.7985 36.1023 25.4886L38.194 26.8831C38.5039 27.0381 38.8913 27.0381 39.1237 26.8057L40.983 24.9463C41.2154 24.7139 41.2929 24.3266 41.0605 24.0167L39.666 21.925C39.9759 21.3827 40.2083 20.8404 40.3632 20.2206L42.8423 19.6783C43.1522 19.6783 43.3846 19.3684 43.3846 19.0585Z" fill="#66C6B9"/>
<path d="M31.8414 24.5593C28.0453 24.5593 25.0239 21.5379 25.0239 17.7418C25.0239 13.9457 28.1227 10.9243 31.8414 10.9243C35.6375 10.8468 38.7363 13.9457 38.7363 17.7418C38.7363 21.5379 35.6375 24.5593 31.8414 24.5593Z" fill="#F3F3F3"/>
<path d="M33.0028 19.6011C32.8479 19.6011 32.6155 19.5236 32.4605 19.3686L31.2985 18.2066C31.1435 18.0516 31.066 17.8967 31.066 17.6643V14.7978C31.066 14.4105 31.3759 14.1006 31.7633 14.1006C32.1506 14.1006 32.4605 14.4105 32.4605 14.7978V17.4319L33.3902 18.3615C33.7001 18.6714 33.7001 19.1362 33.3902 19.3686C33.3902 19.5236 33.2352 19.6011 33.0028 19.6011Z" fill="#344A5E"/>
<path d="M31.8414 13.2483C32.1837 13.2483 32.4611 12.9709 32.4611 12.6286C32.4611 12.2863 32.1837 12.0088 31.8414 12.0088C31.4991 12.0088 31.2216 12.2863 31.2216 12.6286C31.2216 12.9709 31.4991 13.2483 31.8414 13.2483Z" fill="#CED6E0"/>
<path d="M31.8414 23.3968C32.1837 23.3968 32.4611 23.1193 32.4611 22.777C32.4611 22.4347 32.1837 22.1572 31.8414 22.1572C31.4991 22.1572 31.2216 22.4347 31.2216 22.777C31.2216 23.1193 31.4991 23.3968 31.8414 23.3968Z" fill="#CED6E0"/>
<path d="M35.4819 14.72C35.8242 14.72 36.1017 14.4425 36.1017 14.1002C36.1017 13.758 35.8242 13.4805 35.4819 13.4805C35.1396 13.4805 34.8621 13.758 34.8621 14.1002C34.8621 14.4425 35.1396 14.72 35.4819 14.72Z" fill="#CED6E0"/>
<path d="M28.2765 21.9251C28.6188 21.9251 28.8962 21.6476 28.8962 21.3053C28.8962 20.963 28.6188 20.6855 28.2765 20.6855C27.9342 20.6855 27.6567 20.963 27.6567 21.3053C27.6567 21.6476 27.9342 21.9251 28.2765 21.9251Z" fill="#CED6E0"/>
<path d="M36.9539 18.3616C37.2962 18.3616 37.5736 18.0841 37.5736 17.7418C37.5736 17.3996 37.2962 17.1221 36.9539 17.1221C36.6116 17.1221 36.3341 17.3996 36.3341 17.7418C36.3341 18.0841 36.6116 18.3616 36.9539 18.3616Z" fill="#CED6E0"/>
<path d="M26.8057 18.3616C27.148 18.3616 27.4255 18.0841 27.4255 17.7418C27.4255 17.3996 27.148 17.1221 26.8057 17.1221C26.4634 17.1221 26.1859 17.3996 26.1859 17.7418C26.1859 18.0841 26.4634 18.3616 26.8057 18.3616Z" fill="#CED6E0"/>
<path d="M35.4819 21.9251C35.8242 21.9251 36.1017 21.6476 36.1017 21.3053C36.1017 20.963 35.8242 20.6855 35.4819 20.6855C35.1396 20.6855 34.8621 20.963 34.8621 21.3053C34.8621 21.6476 35.1396 21.9251 35.4819 21.9251Z" fill="#CED6E0"/>
<path d="M28.2765 14.72C28.6188 14.72 28.8962 14.4425 28.8962 14.1002C28.8962 13.758 28.6188 13.4805 28.2765 13.4805C27.9342 13.4805 27.6567 13.758 27.6567 14.1002C27.6567 14.4425 27.9342 14.72 28.2765 14.72Z" fill="#CED6E0"/>
<path d="M34.7072 43.3837L33.7775 37.4184C33.3902 35.0168 31.6083 33.1575 29.2067 32.7701L20.6074 31.2207L11.7756 32.7701C9.37401 33.1575 7.59216 35.0943 7.20481 37.4184L6.19768 43.3837H34.7072Z" fill="#344A5E"/>
<path d="M24.326 30.5245C24.326 32.6162 20.4524 34.0882 20.4524 34.0882C20.4524 34.0882 16.5789 32.6162 16.5789 30.5245V22.7773H24.326V30.5245Z" fill="#F7B64C"/>
<path d="M18.0508 43.3841H22.1568L25.3331 34.2425L24.5584 33.4678L20.4524 34.0875L15.8041 33.4678L17.431 41.9896L18.0508 43.3841Z" fill="#CED6E0"/>
<path d="M21.3815 36.6444L22.1562 35.8697C22.1562 35.8697 20.9941 34.0879 20.3743 34.0879C19.7546 34.0879 18.5925 35.8697 18.5925 35.8697L19.3672 36.6444H21.3815ZM22.5436 43.3845L21.3815 36.6444H19.5222L18.3601 43.3845H22.5436Z" fill="#F3705A"/>
<path d="M20.4518 30.4461C23.9603 30.4461 26.8045 26.7348 26.8045 22.1566C26.8045 17.5785 23.9603 13.8672 20.4518 13.8672C16.9433 13.8672 14.0992 17.5785 14.0992 22.1566C14.0992 26.7348 16.9433 30.4461 20.4518 30.4461Z" fill="#FFD15C"/>
<path d="M12.9377 22.7758C13.0152 23.8604 13.635 24.6351 14.3322 24.5576C15.0294 24.4801 15.4943 23.5505 15.4168 22.4659C15.3393 21.3813 14.7196 20.6066 14.0223 20.684C13.3251 20.7615 12.8602 21.6912 12.9377 22.7758ZM27.9672 22.7758C27.8897 23.8604 27.2699 24.6351 26.5727 24.5576C25.8754 24.4801 25.4106 23.5505 25.4881 22.4659C25.5656 21.3813 26.1853 20.6066 26.8826 20.684C27.5798 20.7615 28.0446 21.6912 27.9672 22.7758Z" fill="#FFD15C"/>
<path d="M24.1705 19.135C24.1705 19.135 25.8749 20.0647 26.0299 21.6916V22.6212H26.4172C26.4172 22.6212 27.3469 20.8394 26.4172 19.0576C25.4876 17.2757 24.403 19.0576 24.403 19.0576L24.1705 19.135ZM16.7333 19.135C16.7333 19.135 15.0289 20.0647 14.874 21.6916V22.6212H14.4866C14.4866 22.6212 13.5569 20.8394 14.4866 19.0576C15.4163 17.2757 16.5009 19.0576 16.5009 19.0576" fill="#415A6B"/>
<path d="M27.4249 19.2905V18.9031C27.4249 15.0295 24.326 11.9307 20.4524 11.9307C16.5789 11.9307 13.48 15.0295 13.48 18.9031V19.2905H27.4249Z" fill="#FFD15C"/>
<path d="M27.4249 19.2905V18.9031C27.4249 15.0295 24.326 11.9307 20.4524 11.9307C16.5789 11.9307 13.48 15.0295 13.48 18.9031V19.2905H27.4249Z" fill="#F05540"/>
<path d="M27.4249 20.375H13.48C12.8602 20.375 12.3954 19.9102 12.3954 19.2904C12.3954 18.6707 12.8602 18.2058 13.48 18.2058H27.4249C28.0446 18.2058 28.5095 18.6707 28.5095 19.2904C28.5095 19.9102 28.0446 20.375 27.4249 20.375ZM22.854 12.2405L22.1568 16.5789C22.1568 16.7339 22.0019 16.8888 21.7694 16.8888H19.2129C19.0579 16.8888 18.8255 16.7339 18.8255 16.5789L18.1283 12.2405C18.1283 12.0856 18.2057 11.8532 18.3607 11.7757C19.0579 11.5433 19.7552 11.4658 20.4524 11.4658C21.2271 11.4658 21.9244 11.6208 22.5442 11.7757C22.7766 11.8532 22.854 12.0856 22.854 12.2405Z" fill="#F3705A"/>
<path d="M24.326 29.8262C23.3963 31.6855 22.1568 33.1574 20.4524 34.0871C21.3046 34.7069 22.0793 35.4816 22.854 36.4887L25.4881 31.2207L24.326 29.8262Z" fill="#F3F3F3"/>
<path d="M24.2491 43.384C25.876 40.8275 27.193 38.116 27.9678 35.327L26.1859 33.4677L27.9678 32.693L24.7914 30.4463C24.1717 34.3199 23.1645 38.7357 21.925 43.539H24.2491V43.384Z" fill="#415A6B"/>
<path d="M16.5789 29.8262C17.3536 31.4531 18.6706 32.8476 20.4525 34.0871C19.3679 34.7069 18.5931 35.4816 18.0508 36.4112L15.4168 31.1432L16.5789 29.8262Z" fill="#F3F3F3"/>
<path d="M16.6569 43.3837H19.0585C17.819 38.6579 16.7344 34.1646 16.1921 30.291L13.0158 32.5377L14.7976 33.3124L13.0158 35.1717C13.713 38.1156 15.03 40.8271 16.6569 43.3837Z" fill="#415A6B"/>
</g>
<defs>
<clipPath id="clip0_5951_31807">
<rect width="37.1863" height="37.1863" fill="white" transform="translate(6.19771 6.19824)"/>
</clipPath>
</defs>
</svg>
