<svg width="50" height="50" viewBox="0 0 50 50" fill="none" xmlns="http://www.w3.org/2000/svg">
<g clip-path="url(#clip0_5951_31778)">
<path d="M40.0063 23.5942L37.5576 21.4425C37.9467 19.6955 37.9476 17.866 37.5576 16.1153L39.9841 13.9672L36.975 8.73031L33.866 9.71331C32.5576 8.5139 30.9882 7.59099 29.2514 7.04583L28.6056 3.87988H22.5061L21.8603 7.04583C20.1235 7.59099 18.5542 8.5139 17.2458 9.71331L14.1761 8.69009L11.1259 13.9703L13.5541 16.1153C13.1666 17.8552 13.1637 19.6844 13.5503 21.4431C13.5496 21.445 13.5492 21.4465 13.5485 21.4485L11.127 23.5855L14.1759 28.8634L17.2497 27.8406C18.5581 29.04 20.1274 29.959 21.8603 30.5081L22.5061 33.674H28.6056L29.2514 30.5081C30.9843 29.959 32.5537 29.04 33.8621 27.8406L36.9615 28.8461L40.0063 23.5942ZM26.5934 25.3534C22.1033 26.0309 18.3011 22.2218 18.9818 17.732C19.4064 14.9315 21.6903 12.6403 24.4891 12.2051C28.9981 11.504 32.8318 15.3412 32.1247 19.8511C31.6859 22.6492 29.3939 24.9308 26.5934 25.3534Z" fill="#65B9FF"/>
<path d="M32.538 29.7101C32.5302 29.7101 32.5147 29.7101 32.4836 29.704V43.3843H18.7955V29.704C18.6866 29.7348 18.6243 29.7471 18.5932 29.7471C18.671 29.7163 18.8656 29.667 19.1301 29.6054C20.4452 29.3263 20.6321 29.4955 30.6237 29.4453C31.2599 29.4453 32.0429 29.573 32.538 29.7101Z" fill="#5B5E8B"/>
<path d="M28.5562 26.8076V29.201C28.5562 30.8543 27.2114 32.1929 25.5706 32.1929C23.9611 32.1929 22.5787 30.9021 22.5787 29.201V26.8076H28.5562Z" fill="#FFAF93"/>
<path d="M24.3861 31.2988L24.4047 31.3173C24.8426 31.7552 25.404 32.0575 26.0455 32.1501C25.8913 32.1809 25.7309 32.1932 25.5706 32.1932C23.9611 32.1932 22.5787 30.9025 22.5787 29.2014V27.7517C23.4362 28.3131 24.4663 28.64 25.5706 28.64C25.8419 28.64 26.1072 28.6215 26.3663 28.5845C24.9568 28.3811 23.7033 27.6047 22.9673 26.6846H28.5562V28.7017C27.6617 29.1767 26.6501 29.442 25.5706 29.442C25.4657 29.442 25.367 29.442 25.2683 29.4358C24.2751 29.3865 23.6891 30.5955 24.3861 31.2988Z" fill="#EE8778"/>
<path d="M31.0441 16.708V23.165C31.0441 26.1897 28.5921 28.6416 25.5675 28.6416H25.5675C22.5428 28.6416 20.0909 26.1897 20.0909 23.165V16.708H31.0441Z" fill="#FFAF93"/>
<path d="M31.0421 16.7051V23.1621C31.0421 23.3349 31.036 23.5076 31.0174 23.6741C30.999 23.9147 30.9558 24.1491 30.9002 24.3835C30.3512 26.8263 28.1737 28.6399 25.5705 28.6399C22.5456 28.6399 20.0927 26.191 20.0927 23.1621V16.7051H31.0421Z" fill="#FFAF93"/>
<path d="M32.2122 15.1104V21.9989H31.0449V16.7063H20.0935V21.9989H18.8945V15.1104H32.2122Z" fill="#8B4F4F"/>
<path d="M32.9704 21.7561C32.9704 22.8297 32.1093 23.6907 31.0357 23.6907V19.832C32.1093 19.832 32.9704 20.6931 32.9704 21.7561Z" fill="#FFAF93"/>
<path d="M31.5525 19.9095C31.3873 19.8641 31.2165 19.832 31.0363 19.832V23.6906C31.2165 23.6906 31.3873 23.6585 31.5525 23.613V19.9095ZM21.6844 16.1396V23.1614C21.6844 25.9071 23.7146 28.201 26.3664 28.5837C26.1074 28.6207 25.8421 28.6392 25.5707 28.6392C24.4665 28.6392 23.4363 28.3123 22.5788 27.7509C21.0612 26.7586 20.0929 25.0634 20.0929 23.1614V23.6919C19.0195 23.6919 18.1559 22.8283 18.1559 21.755C18.1559 21.1442 18.4396 20.6014 18.8899 20.2436C19.223 19.9845 19.6363 19.8303 20.0929 19.8303V16.1396H21.6844ZM26.0013 22.4264V23.2084C26.0013 23.4739 25.7863 23.6888 25.5208 23.6888C25.2553 23.6888 25.0404 23.4739 25.0404 23.2084V22.4264C25.0404 22.1609 25.2553 21.9459 25.5208 21.9459C25.789 21.9459 26.0013 22.1643 26.0013 22.4264Z" fill="#FFAF93"/>
<path d="M32.212 14.8227V16.1926C29.231 21.5553 18.8945 16.1926 18.8945 16.1926V15.1885C18.8945 14.2 19.2604 13.2348 19.9765 12.5577C23.7047 9.00062 28.3048 12.1685 28.3048 12.1685C28.3048 12.1685 30.6943 11.1644 31.8151 13.1492C32.1031 13.6552 32.212 14.2389 32.212 14.8227Z" fill="#AB604B"/>
<path d="M21.7219 11.3799C21.1328 11.6446 20.5444 12.0155 19.9765 12.5574C19.2604 13.2345 18.8945 14.1997 18.8945 15.1882V16.1923C18.8945 16.1923 20.0617 16.7966 21.7219 17.3966V11.3799Z" fill="#8B4F4F"/>
<path d="M18.5932 29.4395C15.8936 30.0628 13.9449 31.799 13.9449 33.8598V43.3843H18.5932V29.4395Z" fill="#312E4B"/>
<path d="M32.538 34.4053V43.3843H18.5932V34.4053H19.9365V29.4591C20.3624 29.4291 20.5956 29.4448 21.7195 29.4405V34.4053H29.4036V29.4405C30.6041 29.4498 30.1043 29.4227 31.1867 29.4591V34.4053H32.538Z" fill="#FCB73E"/>
<path d="M21.3805 36.636C21.3805 36.9579 21.1179 37.2205 20.7875 37.2205C20.4656 37.2205 20.2029 36.9579 20.2029 36.636C20.2029 36.3056 20.4656 36.043 20.7875 36.043C21.1179 36.043 21.3805 36.3056 21.3805 36.636ZM30.8893 36.7943C30.8893 37.098 30.6415 37.3458 30.3298 37.3458C30.0261 37.3458 29.7784 37.098 29.7784 36.7943C29.7784 36.4827 30.0261 36.235 30.3298 36.235C30.6415 36.235 30.8893 36.4827 30.8893 36.7943Z" fill="#DEDDFF"/>
<path d="M32.4653 15.3685V16.7905C29.3709 22.3573 18.6413 16.7905 18.6413 16.7905V15.7483C18.6413 14.7222 19.021 13.7203 19.7643 13.0174C23.6344 9.32506 28.4094 12.6134 28.4094 12.6134C28.4094 12.6134 30.8898 11.5712 32.0532 13.6314C32.3522 14.1566 32.4653 14.7626 32.4653 15.3685Z" fill="#AB604B"/>
<path d="M21.5762 11.7939C20.9646 12.0687 20.3539 12.4537 19.7643 13.0162C19.021 13.7191 18.6413 14.721 18.6413 15.7471V16.7894C18.6413 16.7894 19.8529 17.4166 21.5762 18.0395V11.7939Z" fill="#8B4F4F"/>
<path d="M33.9098 18.1325V18.1325C33.9098 18.7569 33.4037 19.2631 32.7793 19.2631H18.3273C17.7029 19.2631 17.1967 18.7569 17.1967 18.1325V18.1325C17.1967 17.5081 17.7029 17.002 18.3273 17.002H32.7793C33.4037 17.002 33.9098 17.5081 33.9098 18.1325Z" fill="#E83D62"/>
<path d="M23.2772 19.2641H18.3264C17.7018 19.2641 17.1966 18.7563 17.1966 18.1318C17.1966 17.5105 17.7022 17.002 18.3264 17.002H23.2772C22.6534 17.002 22.1474 17.5101 22.1474 18.1318C22.1474 18.7563 22.6526 19.2641 23.2772 19.2641Z" fill="#CE2955"/>
<path d="M32.632 16.4249V17.0028H18.4736V16.4249C18.4736 12.5152 21.6431 9.3457 25.5528 9.3457H25.5528C29.4625 9.3457 32.632 12.5152 32.632 16.4249Z" fill="#E83D62"/>
<path d="M26.5193 9.41074C23.0664 9.88297 20.4057 12.8433 20.4057 16.4256V17.002H18.4736V16.4256C18.4736 12.5158 21.6421 9.34473 25.552 9.34473C25.8795 9.34473 26.202 9.36758 26.5193 9.41074Z" fill="#CE2955"/>
<path d="M32.6329 16.4252V17.0015H18.4736V16.4252C18.4736 16.3566 18.4736 16.2881 18.4787 16.2195H32.6278C32.6329 16.2881 32.6329 16.3566 32.6329 16.4252ZM28.1816 9.68957L27.6614 14.4406C27.605 14.9556 27.17 15.3456 26.6519 15.3456H24.4537C23.9357 15.3456 23.5006 14.9556 23.4442 14.4406L22.924 9.68957C22.8581 9.08853 23.3288 8.56348 23.9335 8.56348H27.1721C27.7768 8.56348 28.2475 9.08853 28.1816 9.68957Z" fill="#CE2955"/>
<path d="M27.0466 11.2492C27.0466 12.0682 26.3855 12.7294 25.5665 12.7294C24.7518 12.7294 24.0907 12.0682 24.0907 11.2492C24.0907 10.4346 24.7518 9.77344 25.5665 9.77344C26.3855 9.77344 27.0466 10.4346 27.0466 11.2492Z" fill="#312E4B"/>
<path d="M26.5039 11.2503C26.5039 11.7686 26.0856 12.187 25.5673 12.187C25.0517 12.187 24.6333 11.7686 24.6333 11.2503C24.6333 10.7348 25.0517 10.3164 25.5673 10.3164C26.0856 10.3164 26.5039 10.7348 26.5039 11.2503Z" fill="#65B9FF"/>
<path d="M26.0318 11.2503C26.0318 11.5073 25.8243 11.7148 25.5673 11.7148C25.3116 11.7148 25.1041 11.5073 25.1041 11.2503C25.1041 10.9946 25.3116 10.7871 25.5673 10.7871C25.8243 10.7871 26.0318 10.9946 26.0318 11.2503Z" fill="white"/>
<path d="M36.6556 33.8503V43.383H32.5986V29.4229C34.9536 30.0453 36.6556 31.7883 36.6556 33.8503Z" fill="#312E4B"/>
</g>
<defs>
<clipPath id="clip0_5951_31778">
<rect width="49.5817" height="49.5817" fill="white"/>
</clipPath>
</defs>
</svg>
