<svg width="101" height="100" viewBox="0 0 101 100" fill="none" xmlns="http://www.w3.org/2000/svg">
<circle cx="50.5" cy="50" r="50" fill="#EFC41A"/>
<path d="M48.4075 22.512L30.3242 30.5462C28.4642 31.3729 27.25 33.2329 27.25 35.2737V47.4154C27.25 61.7529 37.17 75.1604 50.5 78.4154C63.83 75.1604 73.75 61.7529 73.75 47.4154V35.2737C73.75 33.2329 72.5358 31.3729 70.6758 30.5462L52.5925 22.512C51.275 21.9179 49.725 21.9179 48.4075 22.512ZM43.4992 61.0812L36.8083 54.3904C35.8008 53.3829 35.8008 51.7554 36.8083 50.7479C37.8158 49.7404 39.4433 49.7404 40.4508 50.7479L45.3333 55.6045L60.5233 40.4145C61.5308 39.407 63.1583 39.407 64.1658 40.4145C65.1733 41.422 65.1733 43.0495 64.1658 44.057L47.1417 61.0812C46.16 62.0887 44.5067 62.0887 43.4992 61.0812Z" fill="black"/>
</svg>
