<svg width="34" height="59" viewBox="0 0 34 59" fill="none" xmlns="http://www.w3.org/2000/svg">
<path d="M7.62949 43.6667L7.83844 42.9464L7.83844 42.9464L7.62949 43.6667ZM4.54916 29.529L5.07136 30.0673L5.07136 30.0673L4.54916 29.529ZM19.1848 31.0768L18.5773 31.5165L18.5773 31.5165L19.1848 31.0768ZM0.339139 58.3247L8.91881 57.146L3.60825 50.3051L0.339139 58.3247ZM17.1038 2.0034C24.0572 4.56519 28.2426 8.79673 30.3233 13.5617C32.4104 18.3413 32.4097 23.7272 30.8557 28.6269C27.7312 38.4785 18.4954 46.0379 7.83844 42.9464L7.42053 44.387C19.1289 47.7835 29.0097 39.4093 32.2856 29.0804C33.9318 23.8899 33.9522 18.1238 31.698 12.9614C29.4373 7.78443 24.9189 3.2841 17.6224 0.595889L17.1038 2.0034ZM7.83844 42.9464C5.95344 42.3996 4.04847 40.3499 3.23725 37.7626C2.44065 35.2218 2.74985 32.3192 5.07136 30.0673L4.02696 28.9907C1.21865 31.7148 0.875963 35.2452 1.80595 38.2113C2.72133 41.1309 4.92143 43.6621 7.42053 44.387L7.83844 42.9464ZM5.07136 30.0673C8.62635 26.6189 15.3916 27.1154 18.5773 31.5165L19.7924 30.637C16.0869 25.5177 8.25742 24.887 4.02696 28.9907L5.07136 30.0673ZM18.5773 31.5165C19.7825 33.1816 20.1058 34.9113 19.8004 36.6993C19.49 38.5161 18.5229 40.4256 17.0814 42.3797C14.1943 46.2936 9.56378 50.1789 5.20843 53.5952L6.13421 54.7754C10.4818 51.3652 15.2658 47.368 18.2885 43.2701C19.8021 41.2184 20.9137 39.0897 21.279 36.9519C21.6491 34.7851 21.2449 32.6437 19.7924 30.637L18.5773 31.5165Z" fill="black"/>
</svg>
