<svg width="200" height="58" viewBox="0 0 200 58" fill="none" xmlns="http://www.w3.org/2000/svg">
<path d="M192.593 58H7.40741C3.33519 58 0 54.7357 0 50.75V7.25C0 3.26431 3.33519 -1.90735e-06 7.40741 -1.90735e-06H192.593C196.665 -1.90735e-06 200 3.26431 200 7.25V50.75C200 54.7357 196.665 58 192.593 58Z" fill="black"/>
<path d="M192.593 1.16181C196.022 1.16181 198.813 3.89325 198.813 7.25V50.75C198.813 54.1067 196.022 56.8382 192.593 56.8382H7.40741C3.97778 56.8382 1.18704 54.1067 1.18704 50.75V7.25C1.18704 3.89325 3.97778 1.16181 7.40741 1.16181H192.593ZM192.593 -1.90735e-06H7.40741C3.33519 -1.90735e-06 0 3.26431 0 7.25V50.75C0 54.7357 3.33519 58 7.40741 58H192.593C196.665 58 200 54.7357 200 50.75V7.25C200 3.26431 196.665 -1.90735e-06 192.593 -1.90735e-06Z" fill="#A6A6A6"/>
<path d="M15.4595 10.9311C15.0243 11.3769 14.7725 12.0711 14.7725 12.9701V45.0369C14.7725 45.9359 15.0243 46.6301 15.4595 47.076L15.5669 47.1738L33.9262 29.212V28.7878L15.5669 10.826L15.4595 10.9311Z" fill="url(#paint0_linear_5714_34579)"/>
<path d="M40.0392 35.2021L33.9263 29.2118V28.7877L40.0466 22.7974L40.1837 22.8753L47.4318 26.9118C49.5003 28.0573 49.5003 29.9423 47.4318 31.095L40.1837 35.1242L40.0392 35.2021V35.2021Z" fill="url(#paint1_linear_5714_34579)"/>
<path d="M40.1835 35.1243L33.9261 28.9999L15.4595 47.076C16.1465 47.7828 17.2669 47.868 18.541 47.1612L40.1835 35.1243" fill="url(#paint2_linear_5714_34579)"/>
<path d="M40.1835 22.8756L18.541 10.8388C17.2669 10.1391 16.1465 10.2243 15.4595 10.9312L33.9261 29L40.1835 22.8756Z" fill="url(#paint3_linear_5714_34579)"/>
<path d="M70.2484 14.8533C70.2484 16.064 69.878 17.0337 69.1484 17.7569C68.3095 18.6142 67.2169 19.0456 65.878 19.0456C64.5984 19.0456 63.5058 18.607 62.6095 17.7424C61.7113 16.8652 61.2632 15.7885 61.2632 14.4999C61.2632 13.2112 61.7113 12.1345 62.6095 11.2645C63.5058 10.3927 64.5984 9.9541 65.878 9.9541C66.515 9.9541 67.1224 10.0828 67.7021 10.322C68.2798 10.5631 68.7502 10.8894 69.091 11.2917L68.3169 12.0566C67.7224 11.3697 66.9132 11.0307 65.878 11.0307C64.9447 11.0307 64.1354 11.3497 63.4484 11.9932C62.7687 12.6384 62.428 13.474 62.428 14.4999C62.428 15.5257 62.7687 16.3685 63.4484 17.0138C64.1354 17.65 64.9447 17.9762 65.878 17.9762C66.8687 17.9762 67.7021 17.65 68.3595 17.0065C68.7928 16.5806 69.0391 15.9933 69.1039 15.243H65.878V14.1954H70.1817C70.2336 14.4219 70.2484 14.6412 70.2484 14.8533V14.8533Z" fill="white" stroke="white" stroke-width="0.16" stroke-miterlimit="10"/>
<path d="M77.0762 11.2211H73.0336V13.9761H76.6781V15.0237H73.0336V17.7787H77.0762V18.8463H71.8892V10.1536H77.0762V11.2211Z" fill="white" stroke="white" stroke-width="0.16" stroke-miterlimit="10"/>
<path d="M81.8946 18.8463H80.7501V11.2211H78.2705V10.1536H84.3761V11.2211H81.8946V18.8463V18.8463Z" fill="white" stroke="white" stroke-width="0.16" stroke-miterlimit="10"/>
<path d="M88.7949 18.8463V10.1536H89.9375V18.8463H88.7949Z" fill="white" stroke="white" stroke-width="0.16" stroke-miterlimit="10"/>
<path d="M95.002 18.8463H93.8668V11.2211H91.3779V10.1536H97.4909V11.2211H95.002V18.8463Z" fill="white" stroke="white" stroke-width="0.16" stroke-miterlimit="10"/>
<path d="M109.05 17.7279C108.175 18.607 107.089 19.0456 105.795 19.0456C104.493 19.0456 103.408 18.607 102.532 17.7279C101.658 16.8507 101.223 15.774 101.223 14.4999C101.223 13.2257 101.658 12.149 102.532 11.2718C103.408 10.3927 104.493 9.9541 105.795 9.9541C107.082 9.9541 108.167 10.3927 109.043 11.279C109.925 12.1635 110.36 13.2329 110.36 14.4999C110.36 15.774 109.925 16.8507 109.05 17.7279ZM103.378 16.9993C104.037 17.65 104.839 17.9762 105.795 17.9762C106.743 17.9762 107.552 17.65 108.204 16.9993C108.862 16.3486 109.195 15.513 109.195 14.4999C109.195 13.4867 108.862 12.6511 108.204 12.0004C107.552 11.3497 106.743 11.0235 105.795 11.0235C104.839 11.0235 104.037 11.3497 103.378 12.0004C102.721 12.6511 102.387 13.4867 102.387 14.4999C102.387 15.513 102.721 16.3486 103.378 16.9993V16.9993Z" fill="white" stroke="white" stroke-width="0.16" stroke-miterlimit="10"/>
<path d="M111.965 18.8463V10.1536H113.354L117.672 16.9142H117.722L117.672 15.2431V10.1536H118.815V18.8463H117.622L113.1 11.7522H113.05L113.1 13.4306V18.8463H111.965V18.8463Z" fill="white" stroke="white" stroke-width="0.16" stroke-miterlimit="10"/>
<path d="M100.941 31.5411C97.4609 31.5411 94.6183 34.133 94.6183 37.709C94.6183 41.2561 97.4609 43.8752 100.941 43.8752C104.428 43.8752 107.27 41.2561 107.27 37.709C107.27 34.133 104.428 31.5411 100.941 31.5411ZM100.941 41.4464C99.0313 41.4464 97.3887 39.904 97.3887 37.709C97.3887 35.4851 99.0313 33.9699 100.941 33.9699C102.85 33.9699 104.5 35.4851 104.5 37.709C104.5 39.904 102.85 41.4464 100.941 41.4464V41.4464ZM87.1461 31.5411C83.6591 31.5411 80.8239 34.133 80.8239 37.709C80.8239 41.2561 83.6591 43.8752 87.1461 43.8752C90.6313 43.8752 93.4683 41.2561 93.4683 37.709C93.4683 34.133 90.6313 31.5411 87.1461 31.5411ZM87.1461 41.4464C85.235 41.4464 83.5868 39.904 83.5868 37.709C83.5868 35.4851 85.235 33.9699 87.1461 33.9699C89.0553 33.9699 90.6979 35.4851 90.6979 37.709C90.6979 39.904 89.0553 41.4464 87.1461 41.4464ZM70.7313 33.4315V36.0524H77.1257C76.9387 37.5169 76.4387 38.5935 75.672 39.3439C74.7387 40.2502 73.285 41.2561 70.7313 41.2561C66.7961 41.2561 63.7146 38.1477 63.7146 34.2961C63.7146 30.4445 66.7961 27.3361 70.7313 27.3361C72.8591 27.3361 74.4072 28.1499 75.5498 29.2048L77.4368 27.3579C75.8387 25.8644 73.7128 24.717 70.7313 24.717C65.335 24.717 60.7998 29.0145 60.7998 34.2961C60.7998 39.5777 65.335 43.8752 70.7313 43.8752C73.6479 43.8752 75.8387 42.9399 77.5609 41.1854C79.3257 39.4581 79.8757 37.0294 79.8757 35.0682C79.8757 34.4592 79.8239 33.8992 79.7313 33.4315H70.7313ZM137.853 35.4634C137.333 34.084 135.728 31.5411 132.457 31.5411C129.216 31.5411 126.518 34.0405 126.518 37.709C126.518 41.1637 129.189 43.8752 132.768 43.8752C135.663 43.8752 137.333 42.1479 138.02 41.1419L135.872 39.7409C135.155 40.7667 134.179 41.4464 132.768 41.4464C131.366 41.4464 130.361 40.8175 129.716 39.5777L138.144 36.1648L137.853 35.4634V35.4634ZM129.261 37.5169C129.189 35.1389 131.148 33.9209 132.552 33.9209C133.652 33.9209 134.585 34.4592 134.896 35.2295L129.261 37.5169V37.5169ZM122.411 43.5H125.181V25.375H122.411V43.5ZM117.874 32.915H117.781C117.159 32.1936 115.972 31.5411 114.468 31.5411C111.313 31.5411 108.428 34.2526 108.428 37.729C108.428 41.1854 111.313 43.8752 114.468 43.8752C115.972 43.8752 117.159 43.2172 117.781 42.4741H117.874V43.3586C117.874 45.7167 116.587 46.9836 114.511 46.9836C112.818 46.9836 111.768 45.7874 111.335 44.7814L108.926 45.7656C109.62 47.4005 111.459 49.4124 114.511 49.4124C117.759 49.4124 120.5 47.5419 120.5 42.9907V31.9163H117.874V32.915V32.915ZM114.705 41.4464C112.796 41.4464 111.198 39.8822 111.198 37.729C111.198 35.5558 112.796 33.9699 114.705 33.9699C116.587 33.9699 118.07 35.5558 118.07 37.729C118.07 39.8822 116.587 41.4464 114.705 41.4464V41.4464ZM150.824 25.375H144.198V43.5H146.961V36.6324H150.824C153.892 36.6324 156.902 34.4592 156.902 31.0028C156.902 27.5482 153.885 25.375 150.824 25.375V25.375ZM150.896 34.1112H146.961V27.8962H150.896C152.959 27.8962 154.137 29.5727 154.137 31.0028C154.137 32.4057 152.959 34.1112 150.896 34.1112ZM167.976 31.5067C165.979 31.5067 163.903 32.3694 163.05 34.2816L165.502 35.2875C166.029 34.2816 167 33.9554 168.026 33.9554C169.459 33.9554 170.913 34.7982 170.935 36.2862V36.4765C170.435 36.1938 169.365 35.7751 168.048 35.7751C165.407 35.7751 162.716 37.1979 162.716 39.8532C162.716 42.282 164.879 43.8462 167.311 43.8462C169.17 43.8462 170.196 43.0251 170.841 42.0699H170.935V43.471H173.603V36.5182C173.603 33.3047 171.152 31.5067 167.976 31.5067ZM167.642 41.4392C166.739 41.4392 165.479 41.0005 165.479 39.904C165.479 38.5011 167.05 37.9628 168.409 37.9628C169.626 37.9628 170.196 38.2256 170.935 38.5718C170.718 40.2502 169.242 41.4392 167.642 41.4392V41.4392ZM183.326 31.9036L180.15 39.7608H180.055L176.772 31.9036H173.792L178.726 42.8837L175.911 48.9937H178.798L186.4 31.9036H183.326V31.9036ZM158.42 43.5H161.191V25.375H158.42V43.5Z" fill="white"/>
<defs>
<linearGradient id="paint0_linear_5714_34579" x1="32.2961" y1="45.3708" x2="7.96721" y2="20.5138" gradientUnits="userSpaceOnUse">
<stop stop-color="#00A0FF"/>
<stop offset="0.0066" stop-color="#00A1FF"/>
<stop offset="0.2601" stop-color="#00BEFF"/>
<stop offset="0.5122" stop-color="#00D2FF"/>
<stop offset="0.7604" stop-color="#00DFFF"/>
<stop offset="1" stop-color="#00E3FF"/>
</linearGradient>
<linearGradient id="paint1_linear_5714_34579" x1="50.1254" y1="28.9977" x2="14.2781" y2="28.9977" gradientUnits="userSpaceOnUse">
<stop stop-color="#FFE000"/>
<stop offset="0.4087" stop-color="#FFBD00"/>
<stop offset="0.7754" stop-color="#FFA500"/>
<stop offset="1" stop-color="#FF9C00"/>
</linearGradient>
<linearGradient id="paint2_linear_5714_34579" x1="36.7809" y1="25.6706" x2="3.78903" y2="-8.03766" gradientUnits="userSpaceOnUse">
<stop stop-color="#FF3A44"/>
<stop offset="1" stop-color="#C31162"/>
</linearGradient>
<linearGradient id="paint3_linear_5714_34579" x1="10.811" y1="57.7445" x2="25.5434" y2="42.6924" gradientUnits="userSpaceOnUse">
<stop stop-color="#32A071"/>
<stop offset="0.0685" stop-color="#2DA771"/>
<stop offset="0.4762" stop-color="#15CF74"/>
<stop offset="0.8009" stop-color="#06E775"/>
<stop offset="1" stop-color="#00F076"/>
</linearGradient>
</defs>
</svg>
