<svg width="101" height="100" viewBox="0 0 101 100" fill="none" xmlns="http://www.w3.org/2000/svg">
<circle cx="50.5" cy="50" r="50" fill="#EFC41A"/>
<path d="M68.5833 46.1237V43.5404C68.5833 36.307 64.45 30.107 58.25 27.2654V35.7904C58.25 37.3404 56.9583 38.3737 55.6667 38.3737C54.375 38.3737 53.0833 37.3404 53.0833 35.7904V25.7154C52.05 25.457 51.0167 25.457 49.9833 25.457C49.2083 25.457 48.6917 25.457 47.9167 25.7154V35.7904C47.9167 37.3404 46.625 38.3737 45.3333 38.3737C44.0417 38.3737 42.75 37.3404 42.75 35.7904V27.2654C36.55 30.3654 32.4167 37.082 32.4167 44.3154V46.1237C31.125 46.1237 29.8333 46.6404 28.8 47.6737C27.7667 48.707 27.25 49.9987 27.25 51.2904C27.25 54.132 29.575 56.457 32.4167 56.457C32.4167 66.532 40.6833 74.7987 51.0167 74.5404C60.575 74.282 68.0667 66.0154 68.5833 56.457C69.875 56.457 71.1667 55.9404 72.2 54.907C73.2333 53.8737 73.75 52.582 73.75 51.2904C73.75 48.4487 71.425 46.1237 68.5833 46.1237ZM50.7583 69.3737C43.525 69.632 37.325 63.6904 37.325 56.457H63.1583C63.1583 63.432 57.7333 69.1154 50.7583 69.3737Z" fill="black"/>
</svg>
