<svg width="57" height="67" viewBox="0 0 57 67" fill="none" xmlns="http://www.w3.org/2000/svg">
<path d="M43.3803 32.2769V51.2256C43.3803 51.854 43.1222 52.3927 42.6116 52.8472L36.8826 58.5761C36.4225 59.0306 35.8502 59.2607 35.1657 59.2607H21.6093C20.9247 59.2607 20.3524 59.053 19.8922 58.6322L14.1634 52.9033C13.6864 52.4488 13.4507 51.9045 13.4507 51.2705V32.2714H5.58398V52.331C5.58398 54.3285 6.26856 56.0062 7.63766 57.3753L14.7357 64.4733C16.1553 65.8424 17.833 66.527 19.7688 66.527H37.006C38.9419 66.527 40.6196 65.8256 42.0392 64.4172L49.1373 57.3192C50.54 55.9557 51.247 54.278 51.247 52.2861V32.2657H43.3803V32.2769Z" fill="black"/>
<path d="M36.9956 21.6927H53.0264V13.9494C53.0264 11.9743 52.1735 10.0834 50.6361 8.84333C46.7701 5.72357 40.5643 2.77214 36.9956 2.66553V21.6927Z" fill="#EFC41A"/>
<path d="M34.5062 0H29.5404V7.32246H27.0547V0H22.0889V21.6924H34.5062V0Z" fill="#EFC41A"/>
<path d="M55.3309 24.1874H53.0247V24.1818H3.83796V24.1874H1.48695C0.521844 24.1874 0 24.7878 0 25.91V30.556C0 31.6726 0.521844 32.2785 1.48695 32.2785H55.3253C56.2904 32.2785 56.8122 31.6782 56.8122 30.556V25.91C56.8178 24.7878 56.296 24.1874 55.3309 24.1874Z" fill="#EFC41A"/>
<path d="M19.6104 21.6899V2.6571C16.1147 2.73566 11.1489 5.45704 7.27162 8.46458C5.27407 10.0188 4.07335 11.4104 4.02847 13.9466C3.97797 16.6287 3.89939 19.0022 3.86572 21.6899H19.6104Z" fill="#EFC41A"/>
</svg>
