<svg width="101" height="100" viewBox="0 0 101 100" fill="none" xmlns="http://www.w3.org/2000/svg">
<circle cx="50.5" cy="50" r="50" fill="#EFC41A"/>
<path d="M64.994 56.1253C64.4793 55.6105 63.6487 55.6105 63.134 56.1253L62.2866 56.9741L58.0921 52.7796C63.2042 45.4098 62.4906 35.2207 55.9163 28.6347C48.5231 21.2416 36.5325 21.2416 29.1393 28.6347C21.7461 36.0396 21.7461 48.0302 29.1393 55.4234C35.7136 61.9977 45.9027 62.7113 53.2725 57.5992L57.4714 61.7981L56.6298 62.6411C56.1151 63.1558 56.1151 63.9864 56.6298 64.5012L59.1917 67.063L67.5559 58.6872L64.994 56.1253ZM53.124 51.5275V49.9396C53.124 46.7565 50.5442 44.164 47.3612 44.164H46.7323C44.2116 45.386 41.0446 45.4752 38.3127 44.164H37.671C34.488 44.164 31.9082 46.7565 31.9082 49.9396V51.5134C26.7632 45.743 27.1991 37.196 32.4499 31.9453C37.9555 26.4396 46.9714 26.311 52.6057 31.9453C57.978 37.3176 58.1399 45.9391 53.124 51.5275ZM75.6744 66.8056L69.217 60.3483L60.8411 68.7124L67.2985 75.1698C69.6147 77.486 73.3581 77.486 75.6744 75.1698C77.9249 72.9421 78.04 69.1712 75.6744 66.8056Z" fill="black"/>
<path d="M42.528 32.7148C40.1206 32.7148 38.1633 34.6527 38.1633 37.0601C38.1633 39.4675 40.1206 41.4247 42.528 41.4247C44.9354 41.4247 46.8732 39.4675 46.8732 37.0601C46.8732 34.6527 44.9354 32.7148 42.528 32.7148Z" fill="black"/>
</svg>
