<svg width="72" height="71" viewBox="0 0 72 71" fill="none" xmlns="http://www.w3.org/2000/svg">
<circle cx="35.8875" cy="35.5" r="35.5" fill="#0FAF7F" fill-opacity="0.15"/>
<path d="M33.724 15.3094C33.5328 15.3094 33.3494 15.3854 33.2141 15.5207C33.0789 15.6559 33.0029 15.8393 33.0029 16.0305V17.9241C29.06 19.1024 26.1237 22.604 25.8223 26.8469H25.0709C24.8797 26.8469 24.6962 26.9229 24.561 27.0582C24.4258 27.1934 24.3498 27.3768 24.3498 27.568V30.4524C24.3498 30.6437 24.4258 30.8271 24.561 30.9623C24.6962 31.0975 24.8797 31.1735 25.0709 31.1735H25.8151C25.9477 34.2728 27.3539 37.0346 29.5128 38.8834C26.3098 40.157 23.56 42.3581 21.616 45.2045C19.6719 48.051 18.6222 51.4131 18.6012 54.86C18.6012 54.8975 18.5811 54.9321 18.5811 54.9696C18.581 55.1594 18.6558 55.3415 18.7892 55.4765C18.9226 55.6114 19.1038 55.6884 19.2935 55.6907H52.4725C52.6637 55.6907 52.8471 55.6147 52.9824 55.4795C53.1176 55.3443 53.1936 55.1609 53.1936 54.9696C53.1936 47.6635 48.6564 41.413 42.2445 38.8777C44.3876 37.0273 45.7807 34.267 45.9177 31.1735H46.7037C46.895 31.1735 47.0784 31.0975 47.2136 30.9623C47.3488 30.8271 47.4248 30.6437 47.4248 30.4524V27.568C47.4248 27.3768 47.3488 27.1934 47.2136 27.0582C47.0784 26.9229 46.895 26.8469 46.7037 26.8469H45.9523C45.6509 22.604 42.7146 19.1024 38.7717 17.9227V16.0305C38.7717 15.8393 38.6957 15.6559 38.5605 15.5207C38.4252 15.3854 38.2418 15.3094 38.0506 15.3094H33.724ZM34.4451 16.7516H37.3295V21.3854C36.8754 21.1836 36.3842 21.079 35.8873 21.0782C35.3739 21.0782 34.8879 21.1907 34.4451 21.3854V16.7516ZM38.7717 19.4384C39.5505 19.7153 40.2759 20.0932 40.935 20.5677V23.4145C40.9205 24.3895 42.3916 24.3895 42.3771 23.4145V21.8786C43.5938 23.2656 44.3307 25.0079 44.4784 26.8469H42.3771C41.4022 26.8325 41.4022 28.3036 42.3771 28.2891H45.9826V29.7313H25.792V28.2891H29.3975C30.3724 28.3036 30.3724 26.8325 29.3975 26.8469H27.2962C27.444 25.0088 28.1809 23.2674 29.3975 21.8815V23.4131C29.383 24.388 30.8541 24.388 30.8396 23.4131V20.5734C31.4987 20.0975 32.2241 19.7197 33.0029 19.4428V22.5435C32.5559 23.1449 32.2818 23.8833 32.2818 24.6851C32.2818 26.6681 33.9043 28.2906 35.8873 28.2906C37.8703 28.2906 39.4928 26.6681 39.4928 24.6851C39.4928 23.8833 39.2188 23.1449 38.7717 22.5449V19.4384V19.4384ZM35.8873 22.5204C37.0901 22.5204 38.0506 23.4809 38.0506 24.6837C38.0506 25.8865 37.0901 26.8469 35.8873 26.8469C34.6845 26.8469 33.724 25.8865 33.724 24.6837C33.724 23.4809 34.6845 22.5204 35.8873 22.5204ZM27.2573 31.1735H44.5174C44.2808 36.0164 40.5023 39.8238 35.8873 39.8238C31.2723 39.8238 27.4938 36.0164 27.2573 31.1735ZM32.6424 32.183C32.3555 32.183 32.0804 32.297 31.8775 32.4998C31.6747 32.7027 31.5607 32.9778 31.5607 33.2647C31.5607 33.5516 31.6747 33.8267 31.8775 34.0295C32.0804 34.2324 32.3555 34.3463 32.6424 34.3463C32.9293 34.3463 33.2044 34.2324 33.4072 34.0295C33.6101 33.8267 33.724 33.5516 33.724 33.2647C33.724 32.9778 33.6101 32.7027 33.4072 32.4998C33.2044 32.297 32.9293 32.183 32.6424 32.183ZM39.1322 32.183C38.8454 32.183 38.5702 32.297 38.3674 32.4998C38.1645 32.7027 38.0506 32.9778 38.0506 33.2647C38.0506 33.5516 38.1645 33.8267 38.3674 34.0295C38.5702 34.2324 38.8454 34.3463 39.1322 34.3463C39.4191 34.3463 39.6942 34.2324 39.8971 34.0295C40.0999 33.8267 40.2139 33.5516 40.2139 33.2647C40.2139 32.9778 40.0999 32.7027 39.8971 32.4998C39.6942 32.297 39.4191 32.183 39.1322 32.183ZM40.8138 39.8987C41.0979 39.9925 41.3792 40.0862 41.6561 40.1958V48.4798H30.1186V40.193C30.3882 40.0877 30.6637 39.9968 30.9406 39.9045C32.4322 40.7988 34.1389 41.2708 35.878 41.2697C37.6172 41.2687 39.3233 40.7948 40.8138 39.8987V39.8987ZM43.0982 40.8506C43.5944 41.1087 44.0775 41.3885 44.5404 41.6943V48.4798H43.0982V40.8506V40.8506ZM28.6764 40.8549V48.4798H27.2342V41.6943C27.6971 41.3885 28.1803 41.1116 28.6764 40.8549V40.8549ZM25.792 42.773V48.4798H25.0709C24.8797 48.4798 24.6962 48.5557 24.561 48.691C24.4258 48.8262 24.3498 49.0096 24.3498 49.2009V54.2485H20.1444C20.2412 52.0492 20.7931 49.8939 21.7651 47.9187C22.7372 45.9435 24.1084 44.1914 25.792 42.773ZM45.9826 42.773C47.6662 44.1914 49.0374 45.9435 50.0095 47.9187C50.9815 49.8939 51.5334 52.0492 51.6302 54.2485H47.4248V49.2009L47.4133 49.2153C47.4152 49.1203 47.3983 49.026 47.3637 48.9376C47.329 48.8491 47.2772 48.7685 47.2113 48.7001C47.1454 48.6318 47.0666 48.5771 46.9795 48.5393C46.8924 48.5015 46.7987 48.4813 46.7037 48.4798H45.9826V42.773ZM25.792 49.9219H45.9826V54.2485H25.792V49.9219Z" fill="#0FAF7F"/>
</svg>
