<svg width="20" height="20" viewBox="0 0 20 20" fill="none" xmlns="http://www.w3.org/2000/svg">
<path d="M10.4393 4.3837L10.1101 4.75999L10.1101 4.75999L10.4393 4.3837ZM15.106 8.46703L14.7767 8.84332V8.84332L15.106 8.46703ZM4.89466 8.46703L5.22391 8.84332H5.22391L4.89466 8.46703ZM9.56132 4.3837L9.23207 4.00741V4.00741L9.56132 4.3837ZM10.1101 4.75999L14.7767 8.84332L15.4352 8.09074L10.7686 4.00741L10.1101 4.75999ZM14.8337 8.96875V14.6662H15.8337V8.96875H14.8337ZM5.16699 14.6662V8.96875H4.16699V14.6662H5.16699ZM5.22391 8.84332L9.89057 4.75999L9.23207 4.00741L4.5654 8.09074L5.22391 8.84332ZM8.00033 14.8329H5.33366V15.8329H8.00033V14.8329ZM14.667 14.8329H12.0003V15.8329H14.667V14.8329ZM8.16699 11.9996V14.6662H9.16699V11.9996H8.16699ZM11.8337 14.6662V11.9996H10.8337V14.6662H11.8337ZM10.667 10.8329H9.33366V11.8329H10.667V10.8329ZM11.8337 11.9996C11.8337 11.3552 11.3113 10.8329 10.667 10.8329V11.8329C10.759 11.8329 10.8337 11.9075 10.8337 11.9996H11.8337ZM9.16699 11.9996C9.16699 11.9075 9.24161 11.8329 9.33366 11.8329V10.8329C8.68933 10.8329 8.16699 11.3552 8.16699 11.9996H9.16699ZM12.0003 14.8329C11.9083 14.8329 11.8337 14.7583 11.8337 14.6662H10.8337C10.8337 15.3106 11.356 15.8329 12.0003 15.8329V14.8329ZM8.00033 15.8329C8.64466 15.8329 9.16699 15.3106 9.16699 14.6662H8.16699C8.16699 14.7583 8.09237 14.8329 8.00033 14.8329V15.8329ZM5.16699 8.96875C5.16699 8.92069 5.18774 8.87497 5.22391 8.84332L4.5654 8.09074C4.31222 8.31228 4.16699 8.63233 4.16699 8.96875H5.16699ZM4.16699 14.6662C4.16699 15.3106 4.68933 15.8329 5.33366 15.8329V14.8329C5.24161 14.8329 5.16699 14.7583 5.16699 14.6662H4.16699ZM14.8337 14.6662C14.8337 14.7583 14.759 14.8329 14.667 14.8329V15.8329C15.3113 15.8329 15.8337 15.3106 15.8337 14.6662H14.8337ZM14.7767 8.84332C14.8129 8.87497 14.8337 8.92069 14.8337 8.96875H15.8337C15.8337 8.63233 15.6884 8.31228 15.4352 8.09074L14.7767 8.84332ZM10.7686 4.00741C10.3287 3.62253 9.67193 3.62253 9.23207 4.00741L9.89057 4.75999C9.95341 4.705 10.0472 4.705 10.1101 4.75999L10.7686 4.00741Z" fill="black"/>
</svg>
