<svg width="36" height="36" viewBox="0 0 36 36" fill="none" xmlns="http://www.w3.org/2000/svg">
<path d="M35.186 30.2655H0.813943C0.665514 30.2655 0.54541 30.1454 0.54541 29.997V0.995584C0.54541 0.847154 0.665514 0.727051 0.813943 0.727051H35.186C35.3344 0.727051 35.4545 0.847154 35.4545 0.995584V29.997C35.4545 30.1454 35.3344 30.2655 35.186 30.2655ZM1.08248 29.7285H34.9174V1.26411H1.08248V29.7285Z" fill="#7E5332"/>
<path d="M35.186 30.2655H0.813943C0.665514 30.2655 0.54541 30.1454 0.54541 29.997V0.995584C0.54541 0.847154 0.665514 0.727051 0.813943 0.727051H35.186C35.3344 0.727051 35.4545 0.847154 35.4545 0.995584V29.997C35.4545 30.1454 35.3344 30.2655 35.186 30.2655ZM1.08248 29.7285H34.9174V1.26411H1.08248V29.7285Z" fill="#7E5332"/>
<path d="M29.1354 1.01416H28.5981V29.9969H29.1354V1.01416Z" fill="#7E5332"/>
<path d="M22.0226 1.01416H21.4854V29.9969H22.0226V1.01416Z" fill="#7E5332"/>
<path d="M14.9103 1.01416H14.373V29.9969H14.9103V1.01416Z" fill="#7E5332"/>
<path d="M7.7985 1.01416H7.26123V29.9969H7.7985V1.01416Z" fill="#7E5332"/>
<path d="M25.6467 2.13045L24.4238 1.41699L5.89307 19.9477L7.07561 20.9672L25.6467 2.13045Z" fill="#A67650"/>
<path d="M15.4468 8.86791V8.68878C15.4468 8.68878 16.2958 8.41959 16.147 8.05124C15.9982 7.68289 15.8056 7.05599 15.8056 7.05599C15.8056 7.05599 15.938 6.79389 15.7184 6.70889C15.4988 6.62388 15.2403 6.52117 15.2049 6.47867C15.1695 6.43616 13.0216 7.60668 12.8177 8.33459C12.728 8.65472 13.2678 9.58589 13.2678 9.58589L15.1128 9.82217L15.4468 8.86791Z" fill="#F7AA8F"/>
<path d="M19.4495 34.1541H18.9622L15.8258 22.1543L13.0496 34.1541H12.5622C12.5622 34.1541 12.3193 20.1789 12.7648 18.8027C13.0858 17.8111 16.7437 17.5807 16.7748 17.6584C16.8061 17.7361 18.6205 17.7644 18.9501 18.2188C19.8301 19.432 19.4495 34.1541 19.4495 34.1541Z" fill="#273240"/>
<path d="M20.4036 34.8474C20.3289 35.1457 19.8387 35.0533 19.8387 35.0533C19.8387 35.0533 19.8112 35.0847 19.7581 35.1605C19.7048 35.2365 19.0835 35.3531 18.9295 35.1919C18.7901 35.046 18.9621 34.1538 18.9621 34.1538H19.4494C19.4494 34.1538 19.7309 34.3109 19.9702 34.3074C20.2096 34.304 20.4782 34.549 20.4036 34.8474ZM11.6079 34.8474C11.6826 35.1457 12.1727 35.0533 12.1727 35.0533C12.1727 35.0533 12.2003 35.0847 12.2534 35.1605C12.3067 35.2365 12.928 35.3531 13.082 35.1919C13.2214 35.046 13.0494 34.1538 13.0494 34.1538H12.5621C12.5621 34.1538 12.2806 34.3109 12.0413 34.3074C11.8019 34.304 11.5333 34.549 11.6079 34.8474Z" fill="#9D683E"/>
<path d="M21.3399 12.28C20.8672 12.7956 18.5686 11.9577 18.5686 11.9577C18.6331 12.5754 19.5729 18.6173 19.3044 18.8751C18.1819 19.9439 12.7092 19.9385 12.618 19.627C12.3226 18.6173 13.0476 15.8837 12.7576 14.8686C12.532 14.0952 11.3827 12.2424 11.4794 11.904C11.6298 11.3777 12.9402 10.2553 12.9402 10.2553L13.0637 9.65375L15.4483 8.86963L15.9692 9.40669C15.9692 9.40669 17.9617 9.41744 18.5955 9.60003C18.9607 9.70745 19.9435 10.3197 19.9435 10.3197L20.0133 9.41207C20.0133 9.38523 20.0348 9.35835 20.0616 9.35301L20.9747 9.18114C21.0069 9.17577 21.0337 9.19186 21.0445 9.22409C21.1573 9.58927 21.791 11.7859 21.3399 12.28Z" fill="#597ABC"/>
<path d="M21.0016 9.17571L20.0744 9.35295L20.2605 7.87065C20.2605 7.87065 19.9114 7.31208 20.1638 6.96301C20.4109 6.61391 20.4592 6.32928 20.5505 6.34538C20.6418 6.36151 20.615 7.11875 20.615 7.11875C20.615 7.11875 20.9802 6.79653 21.007 6.87169C21.1306 7.23155 20.7224 7.56452 20.6633 7.80084C20.5666 8.19288 21.0016 9.17571 21.0016 9.17571ZM10.8292 15.8489C11.1051 16.2034 10.2391 16.8777 9.96308 16.5232C9.68359 16.1643 9.64947 15.7223 9.88728 15.5372C10.1296 15.3485 10.5497 15.49 10.8292 15.8489Z" fill="#F8B29A"/>
<path d="M11.478 11.9056C10.9928 12.0494 10.5844 15.5385 10.5844 15.5385C10.5844 15.5385 10.0622 16.2256 10.0821 16.4705C10.1182 16.9164 10.7112 17.7448 11.5735 17.5483C12.4347 17.352 12.8231 15.1009 12.8639 14.2186C12.895 13.5452 12.1243 11.7139 11.478 11.9056Z" fill="#4A6DB4"/>
<path d="M13.1607 9.39002C13.1607 9.39002 14.4289 9.28365 14.4502 8.82675C14.4714 8.36985 14.5706 7.75357 14.8469 7.79961C15.1231 7.84566 15.1692 8.00504 15.1692 8.00504L15.2843 7.88994L15.1975 7.55877C15.1975 7.55877 15.2436 7.05937 15.1373 6.99562C15.0311 6.93187 14.6769 6.99562 14.6769 6.99562L13.746 7.66503L12.5376 8.5257C12.5376 8.52569 12.9197 9.38306 13.1607 9.39002Z" fill="#273240"/>
<path d="M14.3216 7.84335C13.2242 8.66476 12.1861 8.55126 12.0078 8.4542C11.9823 8.44012 11.9465 8.38118 11.9084 8.28734C11.6802 7.72604 11.3673 5.92134 12.6456 5.09701C14.1377 4.13483 15.1485 5.75654 15.1485 5.75654C16.6761 5.71109 15.4189 7.02165 14.3216 7.84335Z" fill="#F15B57"/>
<path d="M14.3502 7.84333C13.2528 8.66474 12.2147 8.55125 12.0364 8.45419C12.0109 8.44011 11.9751 8.38117 11.937 8.28732C11.937 8.28732 12.5924 8.50257 14.2045 7.59905C15.8854 6.65682 15.1772 5.75652 15.1772 5.75652C16.7048 5.71108 15.4476 7.02163 14.3502 7.84333Z" fill="#F04843"/>
</svg>
