<svg width="66" height="66" viewBox="0 0 66 66" fill="none" xmlns="http://www.w3.org/2000/svg">
<rect width="66" height="66" rx="4" fill="#30B12E" fill-opacity="0.05"/>
<path fill-rule="evenodd" clip-rule="evenodd" d="M41.7541 13.04C40.9189 13.264 40.2724 13.5677 39.7137 13.9981L39.3446 14.2825L28.7457 14.3365L18.1467 14.3904L17.5667 14.6325C16.3628 15.1347 15.3654 16.1759 14.9084 17.4073L14.6665 18.0591V33.7591V49.459L14.9084 50.1108C15.3654 51.3422 16.3628 52.3834 17.5667 52.8857L18.1467 53.1277L30.5804 53.1568C41.5527 53.1825 43.0897 53.1662 43.6577 53.018C45.3279 52.5819 46.6163 51.1885 46.9784 49.4267C47.0609 49.0257 47.096 45.1947 47.096 36.5954V24.3359L47.7102 23.6793C48.8281 22.4844 49.3988 21.1661 49.4892 19.5698C49.7318 15.282 45.7927 11.9568 41.7541 13.04ZM44.2698 14.4579C46.8887 15.0268 48.557 17.7837 47.8835 20.4292C47.6511 21.3422 47.2551 22.0204 46.556 22.7027C44.6443 24.5684 41.7668 24.5472 39.9162 22.6537C37.6848 20.3706 38.2042 16.617 40.9818 14.9539C41.9143 14.3956 43.1352 14.2114 44.2698 14.4579ZM37.9209 15.9046C37.9209 15.9364 37.8018 16.2026 37.6564 16.4963C37.1036 17.6122 36.9178 19.2738 37.1954 20.6166C37.6765 22.9434 39.6232 24.926 41.9437 25.4526C42.696 25.6233 44.5557 25.5382 45.1736 25.3048L45.624 25.1348L45.5954 37.2429L45.5668 49.3511L45.3182 49.8367C44.9792 50.4986 44.5079 50.9878 43.8794 51.3299L43.3521 51.6171H30.8549H18.3577L17.8304 51.3299C17.2019 50.9878 16.7306 50.4986 16.3916 49.8367L16.143 49.3511V33.7591V18.167L16.3916 17.6815C16.8288 16.8279 17.5349 16.2214 18.4104 15.948C18.704 15.8563 37.9209 15.8136 37.9209 15.9046ZM43.8852 18.7593L42.7105 19.9452L42.0854 19.2988C41.5868 18.7833 41.3937 18.6526 41.1307 18.6526C40.7243 18.6526 40.4519 18.9403 40.4519 19.3693C40.4519 19.6342 40.6362 19.8765 41.4918 20.7365C42.2122 21.4608 42.6079 21.7818 42.7798 21.7818C43.1074 21.7818 46.1469 18.6987 46.1469 18.3665C46.1469 17.9866 45.7498 17.5736 45.3848 17.5736C45.1128 17.5736 44.8684 17.7669 43.8852 18.7593ZM30.0451 22.9884C27.526 23.2578 25.3755 25.0227 24.4476 27.5825C24.1237 28.4759 24.0106 30.1698 24.2065 31.1959C24.6987 33.7746 26.6891 35.9022 29.2317 36.5676C32.8078 37.5033 36.5964 35.1532 37.4444 31.4728C37.6725 30.4831 37.6493 29.0105 37.3906 28.0554C36.4775 24.6841 33.4859 22.6204 30.0451 22.9884ZM32.4495 24.7018C34.1345 25.2012 35.5022 26.6693 35.9748 28.4859C36.1749 29.2555 36.168 30.5594 35.9598 31.2846C35.7833 31.899 35.1994 33.1116 35.0799 33.1116C35.0416 33.1116 34.9534 32.9504 34.8838 32.7535C34.7268 32.3096 34.1109 31.5628 33.5729 31.164C33.3168 30.9742 33.2116 30.8353 33.2875 30.7873C33.3536 30.7455 33.521 30.4624 33.6595 30.158C33.9417 29.538 34.0001 28.5235 33.7941 27.8203C33.6097 27.1902 32.9773 26.427 32.3314 26.0547C31.8082 25.7531 31.6635 25.7204 30.8549 25.7216C30.1366 25.7226 29.8722 25.7698 29.5244 25.9592C28.8192 26.3431 28.4611 26.7137 28.119 27.4144C27.6936 28.2854 27.6677 29.3174 28.0504 30.158C28.1888 30.4624 28.3562 30.7455 28.4223 30.7873C28.4983 30.8353 28.393 30.9742 28.1369 31.164C27.5989 31.5628 26.983 32.3096 26.826 32.7535C26.7564 32.9504 26.6682 33.1116 26.6299 33.1116C26.5104 33.1116 25.9265 31.899 25.75 31.2846C25.5595 30.6209 25.5333 29.3036 25.6962 28.5797C25.971 27.3594 26.8329 26.0915 27.8638 25.3914C29.2809 24.429 30.7722 24.2047 32.4495 24.7018ZM31.591 27.366C32.3925 27.778 32.7005 28.9269 32.2219 29.7193C31.9937 30.0973 31.2702 30.522 30.8549 30.522C30.4396 30.522 29.7161 30.0973 29.4879 29.7193C29.1866 29.2204 29.1977 28.4032 29.5124 27.9213C29.7991 27.4821 30.3491 27.1773 30.8549 27.1773C31.0579 27.1773 31.3892 27.2622 31.591 27.366ZM32.71 32.3816C33.2806 32.7898 33.6191 33.3416 33.677 33.9581L33.7255 34.4744L33.1075 34.7578C31.6019 35.4484 30.1117 35.4501 28.6138 34.7631C28.048 34.5035 28.0074 34.4604 28.0074 34.1185C28.0074 33.6123 28.2292 33.117 28.6479 32.6888C29.2229 32.1005 29.486 32.0292 30.9699 32.0595C32.2244 32.0851 32.3204 32.1029 32.71 32.3816ZM24.3398 39.1064C23.9967 39.3522 24.0193 39.9325 24.3832 40.2254C24.6572 40.4459 24.7484 40.4491 30.8549 40.4491C36.9614 40.4491 37.0526 40.4459 37.3266 40.2254C37.6666 39.9519 37.6971 39.4648 37.3935 39.1542C37.1874 38.9433 37.042 38.9384 30.8784 38.9384C25.3433 38.9384 24.5455 38.9589 24.3398 39.1064ZM24.3163 42.9308C24.1991 43.0507 24.1053 43.2905 24.1053 43.4704C24.1053 43.6502 24.1991 43.89 24.3163 44.0099C24.5226 44.2209 24.6678 44.2257 30.8549 44.2257C37.042 44.2257 37.1873 44.2209 37.3935 44.0099C37.5107 43.89 37.6045 43.6502 37.6045 43.4704C37.6045 43.2905 37.5107 43.0507 37.3935 42.9308C37.1873 42.7198 37.042 42.715 30.8549 42.715C24.6678 42.715 24.5226 42.7198 24.3163 42.9308ZM24.4745 46.6206C24.3585 46.6879 24.2286 46.7957 24.186 46.8601C24.038 47.0839 24.1066 47.572 24.3163 47.7865C24.5226 47.9975 24.6678 48.0023 30.8549 48.0023C37.042 48.0023 37.1873 47.9975 37.3935 47.7865C37.6033 47.5719 37.6716 47.0851 37.5238 46.8585C37.2952 46.5084 36.987 46.4916 30.8355 46.4949C26.4502 46.4973 24.6248 46.5333 24.4745 46.6206Z" fill="#30B12E"/>
</svg>
