<svg width="42" height="42" viewBox="0 0 36 42" fill="none" xmlns="http://www.w3.org/2000/svg">
<path fill-rule="evenodd" clip-rule="evenodd" d="M27.7541 1.04002C26.9189 1.26403 26.2724 1.56767 25.7137 1.9981L25.3446 2.28253L14.7457 2.33648L4.14675 2.39043L3.56671 2.63246C2.36275 3.13475 1.3654 4.17591 0.908433 5.4073L0.666504 6.05914V21.7591V37.459L0.908433 38.1108C1.3654 39.3422 2.36275 40.3834 3.56671 40.8857L4.14675 41.1277L16.5804 41.1568C27.5527 41.1825 29.0897 41.1662 29.6577 41.018C31.3279 40.5819 32.6163 39.1885 32.9784 37.4267C33.0609 37.0257 33.096 33.1947 33.096 24.5954V12.3359L33.7102 11.6793C34.8281 10.4844 35.3988 9.16611 35.4892 7.56979C35.7318 3.28204 31.7927 -0.0432163 27.7541 1.04002ZM30.2698 2.45787C32.8887 3.02685 34.557 5.78367 33.8835 8.42924C33.6511 9.34221 33.2551 10.0204 32.556 10.7027C30.6443 12.5684 27.7668 12.5472 25.9162 10.6537C23.6848 8.37065 24.2042 4.61702 26.9818 2.9539C27.9143 2.39561 29.1352 2.21142 30.2698 2.45787ZM23.9209 3.90464C23.9209 3.93636 23.8018 4.20256 23.6564 4.49627C23.1036 5.61221 22.9178 7.27381 23.1954 8.61656C23.6765 10.9434 25.6232 12.926 27.9437 13.4526C28.696 13.6233 30.5557 13.5382 31.1736 13.3048L31.624 13.1348L31.5954 25.2429L31.5668 37.3511L31.3182 37.8367C30.9792 38.4986 30.5079 38.9878 29.8794 39.3299L29.3521 39.6171H16.8549H4.35767L3.83036 39.3299C3.20191 38.9878 2.7306 38.4986 2.39165 37.8367L2.14297 37.3511V21.7591V6.16705L2.39165 5.68148C2.82879 4.82786 3.53486 4.22144 4.4104 3.94802C4.70401 3.8563 23.9209 3.81357 23.9209 3.90464ZM29.8852 6.75933L28.7105 7.94519L28.0854 7.29884C27.5868 6.78328 27.3937 6.65261 27.1307 6.65261C26.7243 6.65261 26.4519 6.94028 26.4519 7.36931C26.4519 7.63421 26.6362 7.87645 27.4918 8.73655C28.2122 9.46079 28.6079 9.78181 28.7798 9.78181C29.1074 9.78181 32.1469 6.69869 32.1469 6.36645C32.1469 5.98663 31.7498 5.57358 31.3848 5.57358C31.1128 5.57358 30.8684 5.76694 29.8852 6.75933ZM16.0451 10.9884C13.526 11.2578 11.3755 13.0227 10.4476 15.5825C10.1237 16.4759 10.0106 18.1698 10.2065 19.1959C10.6987 21.7746 12.6891 23.9022 15.2317 24.5676C18.8078 25.5033 22.5964 23.1532 23.4444 19.4728C23.6725 18.4831 23.6493 17.0105 23.3906 16.0554C22.4775 12.6841 19.4859 10.6204 16.0451 10.9884ZM18.4495 12.7018C20.1345 13.2012 21.5022 14.6693 21.9748 16.4859C22.1749 17.2555 22.168 18.5594 21.9598 19.2846C21.7833 19.899 21.1994 21.1116 21.0799 21.1116C21.0416 21.1116 20.9534 20.9504 20.8838 20.7535C20.7268 20.3096 20.1109 19.5628 19.5729 19.164C19.3168 18.9742 19.2116 18.8353 19.2875 18.7873C19.3536 18.7455 19.521 18.4624 19.6595 18.158C19.9417 17.538 20.0001 16.5235 19.7941 15.8203C19.6097 15.1902 18.9773 14.427 18.3314 14.0547C17.8082 13.7531 17.6635 13.7204 16.8549 13.7216C16.1366 13.7226 15.8722 13.7698 15.5244 13.9592C14.8192 14.3431 14.4611 14.7137 14.119 15.4144C13.6936 16.2854 13.6677 17.3174 14.0504 18.158C14.1888 18.4624 14.3562 18.7455 14.4223 18.7873C14.4983 18.8353 14.393 18.9742 14.1369 19.164C13.5989 19.5628 12.983 20.3096 12.826 20.7535C12.7564 20.9504 12.6682 21.1116 12.6299 21.1116C12.5104 21.1116 11.9265 19.899 11.75 19.2846C11.5595 18.6209 11.5333 17.3036 11.6962 16.5797C11.971 15.3594 12.8329 14.0915 13.8638 13.3914C15.2809 12.429 16.7722 12.2047 18.4495 12.7018ZM17.591 15.366C18.3925 15.778 18.7005 16.9269 18.2219 17.7193C17.9937 18.0973 17.2702 18.522 16.8549 18.522C16.4396 18.522 15.7161 18.0973 15.4879 17.7193C15.1866 17.2204 15.1977 16.4032 15.5124 15.9213C15.7991 15.4821 16.3491 15.1773 16.8549 15.1773C17.0579 15.1773 17.3892 15.2622 17.591 15.366ZM18.71 20.3816C19.2806 20.7898 19.6191 21.3416 19.677 21.9581L19.7255 22.4744L19.1075 22.7578C17.6019 23.4484 16.1117 23.4501 14.6138 22.7631C14.048 22.5035 14.0074 22.4604 14.0074 22.1185C14.0074 21.6123 14.2292 21.117 14.6479 20.6888C15.2229 20.1005 15.486 20.0292 16.9699 20.0595C18.2244 20.0851 18.3204 20.1029 18.71 20.3816ZM10.3398 27.1064C9.99672 27.3522 10.0193 27.9325 10.3832 28.2254C10.6572 28.4459 10.7484 28.4491 16.8549 28.4491C22.9614 28.4491 23.0526 28.4459 23.3266 28.2254C23.6666 27.9519 23.6971 27.4648 23.3935 27.1542C23.1874 26.9433 23.042 26.9384 16.8784 26.9384C11.3433 26.9384 10.5455 26.9589 10.3398 27.1064ZM10.3163 30.9308C10.1991 31.0507 10.1053 31.2905 10.1053 31.4704C10.1053 31.6502 10.1991 31.89 10.3163 32.0099C10.5226 32.2209 10.6678 32.2257 16.8549 32.2257C23.042 32.2257 23.1873 32.2209 23.3935 32.0099C23.5107 31.89 23.6045 31.6502 23.6045 31.4704C23.6045 31.2905 23.5107 31.0507 23.3935 30.9308C23.1873 30.7198 23.042 30.715 16.8549 30.715C10.6678 30.715 10.5226 30.7198 10.3163 30.9308ZM10.4745 34.6206C10.3585 34.6879 10.2286 34.7957 10.186 34.8601C10.038 35.0839 10.1066 35.572 10.3163 35.7865C10.5226 35.9975 10.6678 36.0023 16.8549 36.0023C23.042 36.0023 23.1873 35.9975 23.3935 35.7865C23.6033 35.5719 23.6716 35.0851 23.5238 34.8585C23.2952 34.5084 22.987 34.4916 16.8355 34.4949C12.4502 34.4973 10.6248 34.5333 10.4745 34.6206Z" fill="#30B12E"/>
</svg>
