<svg width="216" height="81" viewBox="0 0 216 81" fill="none" xmlns="http://www.w3.org/2000/svg">
<path d="M175.375 80.8952C174.693 80.0265 173.881 79.258 173.328 78.3225C169.657 71.8406 166.05 65.3253 162.346 58.8767C161.501 57.3732 161.403 56.0367 162.281 54.5332C166.082 47.8842 169.852 41.2352 173.556 34.5194C174.401 32.9825 175.538 32.3477 177.228 32.3477C184.669 32.3811 192.11 32.3811 199.551 32.3477C201.175 32.3477 202.28 33.0159 203.06 34.4192C206.829 41.1684 210.599 47.9176 214.4 54.6334C215.18 56.0033 215.213 57.2062 214.433 58.576C210.631 65.2918 206.862 72.0411 203.06 78.7903C202.638 79.5587 201.988 80.1936 201.435 80.8952C192.76 80.8952 184.051 80.8952 175.375 80.8952ZM199.811 56.7384C199.811 50.0894 194.709 44.7435 188.34 44.7435C182.167 44.7435 176.87 50.0226 176.805 56.2706C176.708 62.9864 181.907 68.4994 188.308 68.4994C194.579 68.4994 199.811 63.1535 199.811 56.7384Z" fill="white"/>
<path d="M15.1817 65.1915V78.9907C15.1817 79.9262 14.4343 80.6947 13.5245 80.6947H2.60664C1.69682 80.6947 0.949463 79.9262 0.949463 78.9907V34.2187C0.949463 33.2831 1.69682 32.5146 2.60664 32.5146H13.492C14.4018 32.5146 15.1492 33.2831 15.1492 34.2187V48.8531C15.1492 49.7886 15.8965 50.5571 16.8064 50.5571H31.8834C32.7933 50.5571 33.5406 49.7886 33.5406 48.8531V34.2187C33.5406 33.2831 34.288 32.5146 35.1978 32.5146H46.0832C46.993 32.5146 47.7403 33.2831 47.7403 34.2187V78.9907C47.7403 79.9262 46.993 80.6947 46.0832 80.6947H35.1978C34.288 80.6947 33.5406 79.9262 33.5406 78.9907V65.1915C33.5406 64.256 32.7933 63.4875 31.8834 63.4875H16.8389C15.929 63.4875 15.1817 64.256 15.1817 65.1915Z" fill="white"/>
<path d="M101.582 33.7843V42.1707C101.582 42.8724 101.03 43.4404 100.348 43.4404H72.3055C71.6231 43.4404 71.0707 44.0084 71.0707 44.71V49.1538C71.0707 49.8555 71.6231 50.4235 72.3055 50.4235H100.348C101.03 50.4235 101.582 50.9915 101.582 51.6931V62.2179C101.582 62.9195 101.03 63.4875 100.348 63.4875H72.3055C71.6231 63.4875 71.0707 64.0555 71.0707 64.7572V68.4659C71.0707 69.1676 71.6231 69.7356 72.3055 69.7356H100.348C101.03 69.7356 101.582 70.3036 101.582 71.0052V79.258C101.582 79.9596 101.03 80.5276 100.348 80.5276H58.9181C58.2357 80.5276 57.6833 79.9596 57.6833 79.258V33.7843C57.6833 33.0827 58.2357 32.5146 58.9181 32.5146H100.348C101.03 32.5146 101.582 33.0827 101.582 33.7843Z" fill="white"/>
<path d="M124.848 65.1915V78.9907C124.848 79.9262 124.1 80.6947 123.191 80.6947H113.118C112.208 80.6947 111.46 79.9262 111.46 78.9907V34.2187C111.46 33.2831 112.208 32.5146 113.118 32.5146H160.363C161.631 32.5146 162.443 33.9179 161.793 35.0874L150.225 55.8696C149.965 56.3374 149.933 56.9054 150.128 57.4066L161.338 78.3224C161.793 79.4584 161.013 80.6947 159.811 80.6947H148.048C147.398 80.6947 146.781 80.2937 146.521 79.6589L137.715 64.5233C137.455 63.8885 136.838 63.4875 136.188 63.4875H126.505C125.595 63.4875 124.848 64.256 124.848 65.1915ZM124.848 44.3425V48.7863C124.848 49.7218 125.595 50.4903 126.505 50.4903H137.228C138.008 50.4903 138.658 49.9557 138.853 49.1872L139.892 44.7434C140.152 43.6742 139.34 42.6385 138.268 42.6385H126.505C125.595 42.6385 124.848 43.4069 124.848 44.3425Z" fill="white"/>
<path d="M21.1605 0.539062H1.72931C1.30689 0.539062 0.949463 0.940006 0.949463 1.40777V23.6935C0.949463 24.1613 1.2744 24.5623 1.69682 24.5623H6.57087C6.99328 24.5623 7.31822 24.1947 7.31822 23.6935V17.0112C7.31822 16.5434 7.64316 16.1424 8.06558 16.1424H17.4238C17.6837 16.1424 17.9437 15.9754 18.0736 15.7081L21.7779 8.52452C21.8429 8.39087 21.8754 8.25722 21.8754 8.09016V1.40777C21.9404 0.940006 21.5829 0.539062 21.1605 0.539062ZM7.35072 9.49346V6.72027C7.35072 6.2525 7.67565 5.85156 8.09807 5.85156H15.1167C15.5391 5.85156 15.8641 6.21909 15.8641 6.72027V9.49346C15.8641 9.96123 15.5391 10.3622 15.1167 10.3622H8.13056C7.70815 10.3622 7.35072 9.96123 7.35072 9.49346Z" fill="#CC2C49"/>
<path d="M44.9459 12.9349C44.8484 12.701 44.8484 12.4003 44.9784 12.1664L48.0328 7.22145C48.0978 7.0878 48.1628 6.95415 48.1628 6.82051V1.27413C48.1628 0.873182 47.8379 0.539062 47.4479 0.539062H26.9444C26.4895 0.539062 26.1321 0.906594 26.1321 1.37436V23.6601C26.1321 24.1279 26.4895 24.4954 26.9444 24.4954H31.8185C32.2734 24.4954 32.6308 24.1279 32.6308 23.6601V16.8107C32.6308 16.3429 32.9882 15.9754 33.4432 15.9754H38.1547C38.4797 15.9754 38.7721 16.1759 38.9021 16.4766L41.9565 23.9942C42.0865 24.295 42.3789 24.4954 42.7039 24.4954H48.4227C49.0076 24.4954 49.3975 23.8606 49.1701 23.2926L44.9459 12.9349ZM39.9419 6.31933L39.422 8.85864C39.3245 9.22617 38.9996 9.49346 38.6421 9.49346H33.4432C32.9882 9.49346 32.6308 9.12593 32.6308 8.65816V6.11886C32.6308 5.65109 32.9882 5.28356 33.4432 5.28356H39.162C39.6819 5.25015 40.0719 5.78474 39.9419 6.31933Z" fill="#CC2C49"/>
<path d="M122.768 1.20751V5.384C122.768 5.75154 122.508 6.01883 122.183 6.01883H109.381C109.056 6.01883 108.796 6.31954 108.796 6.65366V8.85885C108.796 9.22638 109.056 9.49367 109.381 9.49367H122.183C122.508 9.49367 122.768 9.79438 122.768 10.1285V15.3742C122.768 15.7417 122.508 16.009 122.183 16.009H109.381C109.056 16.009 108.796 16.3097 108.796 16.6438V18.4815C108.796 18.849 109.056 19.1163 109.381 19.1163H122.183C122.508 19.1163 122.768 19.417 122.768 19.7511V23.8608C122.768 24.2283 122.508 24.4956 122.183 24.4956H103.239C102.914 24.4956 102.655 24.1949 102.655 23.8608V1.14069C102.655 0.773155 102.914 0.505859 103.239 0.505859H122.183C122.508 0.539271 122.768 0.839979 122.768 1.20751Z" fill="#CC2C49"/>
<path d="M73.1829 0.539062H54.8565C54.0766 0.539062 53.4592 1.07365 53.4592 1.70848V23.326C53.4592 23.9942 54.0766 24.4954 54.8565 24.4954H73.1829C73.9627 24.4954 74.5801 23.9608 74.5801 23.326V1.74189C74.6126 1.07365 73.9627 0.539062 73.1829 0.539062ZM66.4242 17.813C66.4242 18.1806 66.0668 18.4813 65.6444 18.4813H62.395C61.9726 18.4813 61.6151 18.1806 61.6151 17.813V7.28827C61.6151 6.92074 61.9726 6.62004 62.395 6.62004H65.6444C66.0668 6.62004 66.4242 6.92074 66.4242 7.28827V17.813Z" fill="#CC2C49"/>
<path d="M128.195 0.539062H146.879C147.366 0.539062 147.788 0.906594 147.788 1.34095V6.55321C147.788 6.98757 147.399 7.3551 146.879 7.3551H135.701C135.213 7.3551 134.791 7.72263 134.791 8.15699V16.9777C134.791 17.4121 135.181 17.7796 135.701 17.7796H146.879C147.366 17.7796 147.788 18.1472 147.788 18.5815V23.7938C147.788 24.2281 147.399 24.5957 146.879 24.5957H128.195C127.707 24.5957 127.285 24.2281 127.285 23.7938V1.34095C127.317 0.906594 127.707 0.539062 128.195 0.539062Z" fill="#CC2C49"/>
<path d="M166.797 8.22381V23.727C166.797 24.1613 166.472 24.5288 166.05 24.5288H160.168C159.746 24.5288 159.421 24.1613 159.421 23.727V8.22381C159.421 7.78945 159.096 7.42192 158.674 7.42192H152.792C152.37 7.42192 152.045 7.05439 152.045 6.62004V1.34095C152.045 0.906594 152.37 0.539062 152.792 0.539062H173.458C173.881 0.539062 174.206 0.906594 174.206 1.34095V6.58662C174.206 7.02098 173.881 7.38851 173.458 7.38851H167.577C167.122 7.42192 166.797 7.75604 166.797 8.22381Z" fill="#CC2C49"/>
<path d="M97.2606 0.639648H92.0941C91.4442 0.639648 90.8918 1.20765 90.8918 1.9093V17.7466C90.8918 18.4482 90.3719 19.0162 89.6896 19.0162H86.0178C85.2379 19.0162 84.5881 18.348 84.5881 17.5461V11.1644C84.5881 10.6966 84.2306 10.3291 83.7757 10.3291H79.6165C79.1616 10.3291 78.8042 10.6966 78.8042 11.1644V19.9852H78.8367C78.8042 20.0854 78.8042 20.1856 78.8042 20.3193V23.2929C78.8042 23.9946 79.3241 24.5626 80.0065 24.5626H97.2606C97.9105 24.5626 98.4629 23.9946 98.4629 23.2929V1.9093C98.4629 1.20765 97.9105 0.639648 97.2606 0.639648Z" fill="#CC2C49"/>
</svg>
