<svg width="40" height="40" viewBox="0 0 40 40" fill="none" xmlns="http://www.w3.org/2000/svg">
<g clip-path="url(#clip0_1207_3504)">
<path d="M34.078 17.7559H6.74463V20.9225H34.078V17.7559Z" fill="#343A43"/>
<path d="M32.2333 12.7225V32.967H8.72217V12.7559L10.4999 10.967L12.6555 8.66699H28.1999L30.1555 10.6337L32.2333 12.7225Z" fill="#474D5B"/>
<path d="M31.2778 13.3892V31.967H9.67773V13.4225L11.3222 11.767L13.3 9.66699H27.5666L29.3666 11.467L31.2778 13.3892Z" fill="#333A44"/>
<path d="M25.2668 22.2333C26.8623 22.2333 28.1557 20.9399 28.1557 19.3445C28.1557 17.749 26.8623 16.4556 25.2668 16.4556C23.6713 16.4556 22.3779 17.749 22.3779 19.3445C22.3779 20.9399 23.6713 22.2333 25.2668 22.2333Z" fill="#464C58"/>
<path d="M15.7444 22.2333C17.3398 22.2333 18.6332 20.9399 18.6332 19.3445C18.6332 17.749 17.3398 16.4556 15.7444 16.4556C14.1489 16.4556 12.8555 17.749 12.8555 19.3445C12.8555 20.9399 14.1489 22.2333 15.7444 22.2333Z" fill="#464C58"/>
<path d="M20.5002 16.7221C22.0957 16.7221 23.3891 15.4287 23.3891 13.8332C23.3891 12.2377 22.0957 10.9443 20.5002 10.9443C18.9047 10.9443 17.6113 12.2377 17.6113 13.8332C17.6113 15.4287 18.9047 16.7221 20.5002 16.7221Z" fill="#464C58"/>
<path d="M34.8666 32.9666H6.08887V25.0444C6.08887 24.3888 6.6222 23.8555 7.27776 23.8555H33.6889C34.3444 23.8555 34.8777 24.3888 34.8777 25.0444V32.9666H34.8666Z" fill="#FD4800"/>
<path d="M37.0556 32.8999H3.8667V34.3999H37.0556V32.8999Z" fill="#474E5A"/>
<path d="M32.0556 29.0667V31.6334H24.2445V29.0667H32.0556ZM32.3889 28.7334H23.9111V31.9667H32.3889V28.7334Z" fill="#EC2A00"/>
<path d="M7.68896 26.2559V30.7003" stroke="#EB2701" stroke-width="5" stroke-miterlimit="10" stroke-linecap="round"/>
<path d="M9.1333 26.2559V30.7003" stroke="#EB2701" stroke-width="5" stroke-miterlimit="10" stroke-linecap="round"/>
<path d="M10.5776 26.2559V30.7003" stroke="#EB2701" stroke-width="5" stroke-miterlimit="10" stroke-linecap="round"/>
<path d="M12.0225 26.2559V30.7003" stroke="#EB2701" stroke-width="5" stroke-miterlimit="10" stroke-linecap="round"/>
<path d="M13.4668 26.2559V30.7003" stroke="#EB2701" stroke-width="5" stroke-miterlimit="10" stroke-linecap="round"/>
<path d="M20.4999 15.7556C21.5615 15.7556 22.4221 14.895 22.4221 13.8334C22.4221 12.7717 21.5615 11.9111 20.4999 11.9111C19.4382 11.9111 18.5776 12.7717 18.5776 13.8334C18.5776 14.895 19.4382 15.7556 20.4999 15.7556Z" fill="#E0DBD5"/>
<path d="M15.7445 21.2668C16.8061 21.2668 17.6667 20.4062 17.6667 19.3446C17.6667 18.283 16.8061 17.4224 15.7445 17.4224C14.6829 17.4224 13.8223 18.283 13.8223 19.3446C13.8223 20.4062 14.6829 21.2668 15.7445 21.2668Z" fill="#E0DBD5"/>
<path d="M13.3891 14.1777C14.1439 14.1777 14.7558 13.5658 14.7558 12.811C14.7558 12.0562 14.1439 11.4443 13.3891 11.4443C12.6343 11.4443 12.0225 12.0562 12.0225 12.811C12.0225 13.5658 12.6343 14.1777 13.3891 14.1777Z" fill="#474E59"/>
<path d="M27.7666 14.1777C28.5214 14.1777 29.1332 13.5658 29.1332 12.811C29.1332 12.0562 28.5214 11.4443 27.7666 11.4443C27.0118 11.4443 26.3999 12.0562 26.3999 12.811C26.3999 13.5658 27.0118 14.1777 27.7666 14.1777Z" fill="#474D59"/>
<path d="M25.2665 21.2668C26.3281 21.2668 27.1887 20.4062 27.1887 19.3446C27.1887 18.283 26.3281 17.4224 25.2665 17.4224C24.2048 17.4224 23.3442 18.283 23.3442 19.3446C23.3442 20.4062 24.2048 21.2668 25.2665 21.2668Z" fill="#E0DBD5"/>
<path d="M9.75537 6.88899L11.6776 5.6001L17.2887 13.6557C17.2887 13.6557 18.4998 15.8668 19.6665 16.2223C19.6665 16.2223 21.0554 17.0001 22.5665 15.289L25.722 10.6668L29.2331 5.6001L31.1665 6.92232L25.7331 14.9668C25.7331 14.9668 24.2887 17.5223 23.0887 18.0557C23.0887 18.0557 21.2443 19.3557 19.1331 18.6446C19.1331 18.6446 17.4887 18.2001 16.6331 17.0001L14.1443 13.3779L9.75537 6.88899Z" fill="#E0DBD5"/>
<path d="M28.4888 8.07764L25.2666 12.6776" stroke="#F9F9F9" stroke-width="3" stroke-miterlimit="10" stroke-linecap="round"/>
</g>
<defs>
<clipPath id="clip0_1207_3504">
<rect width="40" height="40" fill="white"/>
</clipPath>
</defs>
</svg>
