<svg width="339" height="164" viewBox="0 0 339 164" fill="none" xmlns="http://www.w3.org/2000/svg">
<path d="M153.058 146.28C153.058 146.28 152.392 147.935 151.831 148.59C151.27 149.246 149.122 150.419 149.11 152.367C149.097 154.48 152.732 153.893 154.153 153.816C155.575 153.739 155.682 152.61 156.281 151.414C156.879 150.219 157.482 150.421 157.594 149.456C157.706 148.491 157.137 146.332 157.137 146.332L153.058 146.28Z" fill="#163342"/>
<path d="M152.996 145.669L153.107 146.756C153.107 146.756 155.023 147.498 157.137 146.756L157.123 145.388L152.996 145.669Z" fill="#2F6B8C"/>
<path d="M174.494 146.28C174.494 146.28 175.159 147.935 175.72 148.59C176.282 149.246 178.43 150.419 178.442 152.367C178.455 154.48 174.82 153.893 173.399 153.816C171.977 153.739 171.87 152.61 171.271 151.414C170.673 150.219 170.069 150.421 169.957 149.456C169.845 148.491 170.415 146.332 170.415 146.332L174.494 146.28Z" fill="#163342"/>
<path d="M174.557 145.669L174.446 146.756C174.446 146.756 172.529 147.498 170.416 146.756L170.429 145.388L174.557 145.669Z" fill="#2F6B8C"/>
<path d="M177.571 118.586C177.571 121.19 176.033 145.711 176.033 145.711C175.78 146.579 170.222 146.3 169.38 145.865C168.539 145.432 169.867 121.261 169.712 118.636C169.557 116.01 165.705 96.4507 164.967 96.5376C164.229 96.6245 161.775 118.278 161.186 120.275C160.596 122.271 157.925 145.944 157.925 145.944C156.073 147.072 151.672 145.659 151.672 145.659C151.672 145.659 152.594 121.355 152.699 120.622C152.856 119.535 152.692 116.608 153.121 110.113C153.504 104.302 154.888 91.6511 155.766 84.8001C155.796 84.5563 155.827 84.3221 155.856 84.0984C156.027 82.7649 156.156 81.7847 156.219 81.3147C156.245 81.1119 156.26 81.0033 156.26 81.0033C156.496 80.8914 156.743 80.7876 157.001 80.6918C163.165 78.4079 175.052 80.8262 175.052 80.8262C175.052 80.8262 175.06 80.8866 175.073 80.9992C175.089 81.1368 175.114 81.3533 175.145 81.6326C175.214 82.237 175.316 83.1359 175.433 84.1805C175.434 84.1877 175.435 84.1949 175.436 84.203C175.439 84.2344 175.443 84.2666 175.446 84.298C175.861 88.0135 176.447 93.4537 176.392 94.0195C176.308 94.8878 177.571 115.981 177.571 118.586Z" fill="#385369"/>
<path d="M168.812 143.2L169.156 146.563C169.156 146.563 169.455 147.036 172.623 147.131C175.791 147.226 176.296 146.066 176.296 146.066L176.434 143.035C176.434 143.035 173.656 144.408 168.812 143.2Z" fill="#4F7594"/>
<path d="M158.475 143.322L158.152 146.468C158.152 146.468 157.873 146.912 154.909 147C151.943 147.089 151.471 146.003 151.471 146.003L151.342 143.166C151.342 143.166 153.942 144.452 158.475 143.322Z" fill="#4F7594"/>
<path d="M161.136 95.9413C160.906 95.8375 160.801 95.5615 160.901 95.3241C161.001 95.0859 161.269 94.9772 161.5 95.081C161.73 95.184 161.835 95.4609 161.734 95.6983C161.634 95.9357 161.366 96.0451 161.136 95.9413ZM141.13 85.168L140.222 87.3208L161.986 97.0913L162.894 94.9386L141.13 85.168Z" fill="#FAB546"/>
<path d="M197.536 58.0451C197.536 58.0451 196.536 58.3421 196.125 58.7775C195.714 59.212 195.359 55.6992 195.359 55.6992L197.536 58.0451Z" fill="#EEA886"/>
<path d="M194.866 56.025C194.866 56.025 195.371 53.8505 195.459 53.5214C195.546 53.1914 196.246 52.5678 197.109 51.9239C197.973 51.2809 199.418 50.8094 199.591 50.8761C199.763 50.9429 199.966 50.9276 200.234 51.3284C200.501 51.7292 200.514 52.2193 200.514 52.2193C200.514 52.2193 201.068 52.5541 201.039 53.1593C201.039 53.1593 201.547 53.4981 201.406 54.1805C201.406 54.1805 201.893 54.5257 201.749 55.0118C201.749 55.0118 201.049 55.6379 200.854 55.947C200.66 56.256 199.117 57.4551 197.466 58.3701C197.466 58.3701 195.682 59.4549 194.866 56.025Z" fill="#EEA886"/>
<path d="M197.688 54.5225C197.688 54.5225 197.93 55.6178 197.847 55.9607C197.763 56.3035 200.049 56.2303 200.049 56.2303C200.049 56.2303 198.987 54.2562 197.688 54.5225Z" fill="#CF8C6C"/>
<path d="M199.358 51.0364C199.358 51.0364 197.208 52.7232 197.428 53.1135C197.649 53.5046 197.96 53.5102 197.96 53.5102L197.381 54.6184C197.381 54.6184 197.398 55.576 198.404 55.2767C198.404 55.2767 198.331 56.1724 199.269 55.7635C199.269 55.7635 199.476 56.3768 199.943 56.2665C200.409 56.1563 201.749 55.0119 201.749 55.0119C201.749 55.0119 201.927 54.6393 201.406 54.1806C201.406 54.1806 201.58 53.5352 201.04 53.1593C201.04 53.1593 201.1 52.6201 200.514 52.2194C200.514 52.2194 200.558 51.0074 199.592 50.8762C199.592 50.8762 199.449 50.9647 199.358 51.0364Z" fill="#DB9C7C"/>
<path d="M197.406 53.0974C197.406 53.0974 196.322 50.7169 195.576 49.8751C195.408 49.6844 195.361 49.6007 195.126 49.69C194.89 49.7801 195.058 50.7451 195.277 51.5434C195.496 52.3417 195.451 53.5561 195.451 53.5561C195.451 53.5561 195.882 54.2289 197.406 53.0974Z" fill="#EEA886"/>
<path d="M195.059 57.3739C195.059 57.3739 195.311 56.3269 195.257 55.5994C195.202 54.8727 198.648 57.1381 198.648 57.1381C198.648 57.1381 197.433 58.3437 196.503 59.241C195.762 59.9572 195.059 57.3739 195.059 57.3739Z" fill="#EEA886"/>
<path d="M144.156 90.5993C144.156 90.5993 144.025 90.0601 144.078 89.8114C144.078 89.8114 144.209 89.372 144.281 89.0517C144.305 88.9495 144.322 88.8602 144.327 88.7998C144.35 88.5495 144.323 87.9814 144.545 87.4188C144.766 86.8571 146.372 84.7776 146.372 84.7776L147.85 85.5188L149.302 86.0226C149.302 86.0226 149.989 89.9522 149.846 90.5091C149.831 90.5638 149.815 90.6161 149.796 90.6644C149.628 91.1167 149.305 91.3533 149.189 91.577C149.146 91.6583 148.658 92.4325 148.373 92.4381C147.978 92.447 147.678 92.2852 147.492 92.0534C147.492 92.0534 146.713 92.0341 146.268 91.68C146.268 91.68 145.552 91.6865 145.1 91.1006C145.1 91.1006 144.36 91.0226 144.156 90.5993Z" fill="#EEA886"/>
<path d="M197.389 58.5648C197.389 58.5648 190.602 70.1131 188.171 69.4967C187.047 69.211 183.322 66.2503 181.916 64.3687C181.452 63.7491 180.998 63.0988 180.564 62.455C180.564 62.4542 180.564 62.4526 180.564 62.4526C178.838 59.883 177.485 57.4188 177.485 57.4188C177.485 57.4188 172.385 51.2527 176.478 48.5045C176.478 48.5045 178.442 48.3685 179.806 49.8774C181.171 51.3855 182.295 54.1016 182.653 54.9063C183.01 55.7095 187.733 61.5134 187.993 61.6816C188.252 61.849 190.036 60.8527 191.211 59.4991C192.942 57.5057 194.823 54.8146 194.823 54.8146L197.389 58.5648Z" fill="#FA7126"/>
<path d="M170.63 45.3837C170.63 45.3837 171.703 45.6195 167.214 50.0569C167.214 50.0569 164.031 46.4242 164.133 45.8158C164.237 45.2074 170.63 45.3837 170.63 45.3837Z" fill="#EEA987"/>
<path d="M175.365 83.5776C175.365 83.5776 175.037 74.7083 175.145 72.2659C175.304 68.6815 175.932 65.4504 176.444 63.3306C176.445 63.325 176.447 63.3201 176.448 63.3153L176.453 63.2952C176.587 62.7431 176.712 62.2675 176.819 61.882L179.899 49.9828C177.738 47.4752 170.555 45.3611 170.555 45.3611H165.465C165.465 45.3611 156.543 48.1971 154.355 49.0654C152.167 49.9329 147.223 67.014 147.152 67.9966C147.075 69.0589 145.026 85.6821 145.026 85.6821C147.683 85.8752 149.982 86.1038 149.982 86.1038C149.982 86.1038 152.004 72.3657 152.28 70.9437C152.485 69.883 155.506 61.2455 155.731 61.3614C155.955 61.4772 157.494 70.295 155.948 83.3837C155.948 83.3837 162.128 85.7786 175.365 83.5776Z" fill="#FA7126"/>
<path d="M168.245 28.3242C168.245 28.3242 172.999 29.0968 172.275 36.7686C171.551 44.4412 167.355 43.8127 167.075 43.8046C166.795 43.7966 162.863 43.9447 162.556 34.5772C162.556 34.5772 162.423 27.6498 168.245 28.3242Z" fill="#EEA987"/>
<path d="M170.464 41.5449C170.464 41.5449 170.333 44.7004 170.63 45.3836C170.926 46.0668 166.707 48.2614 164.133 45.8157C164.133 45.8157 164.754 42.3867 164.582 41.1707C164.409 39.9555 170.464 41.5449 170.464 41.5449Z" fill="#EEA987"/>
<path d="M172.348 34.6015C172.348 34.6015 172.87 34.0285 173.06 34.6087C173.251 35.1898 172.252 37.7843 172.317 37.9002C172.317 37.9002 172.223 38.1255 172.098 38.0016C171.973 37.8777 172.348 34.6015 172.348 34.6015Z" fill="#EEA987"/>
<path d="M162.61 34.5049C162.61 34.5049 162.101 33.9214 161.899 34.4976C161.697 35.0746 162.483 37.6451 162.58 37.8036C162.58 37.8036 162.746 38.066 162.873 37.9444C163 37.8229 162.61 34.5049 162.61 34.5049Z" fill="#EEA987"/>
<path d="M172.645 33.9473C172.493 34.9975 172.347 35.779 172.347 35.779L171.666 36.7173C171.666 36.7173 171.685 34.6595 171.576 34.3376C171.535 34.2153 171.485 33.9988 171.435 33.7646C171.351 33.3775 171.266 32.9414 171.209 32.7957C171.117 32.5639 167.126 31.4107 163.601 33.1329C163.601 33.1329 163.634 33.4492 163.635 33.8025C163.639 34.2129 163.6 34.6732 163.418 34.744C163.08 34.8768 163.245 37.1543 163.245 37.1543L162.686 36.5032C162.686 36.5032 162.514 35.3138 162.342 33.9473C162.342 33.9473 162.341 33.9441 162.341 33.9377C162.302 33.619 162.262 33.2906 162.224 32.9655C162.13 31.5902 162.236 29.089 163.958 27.601C165.125 27.0698 167.028 26.9161 170.159 27.8665C170.159 27.8665 170.552 27.7804 171.043 27.7981C173.01 29.9823 172.645 33.9473 172.645 33.9473Z" fill="#385369"/>
<path d="M164.925 42.8044C164.925 42.8044 165.694 43.8812 167.453 43.82C169.212 43.7588 169.966 42.8044 169.966 42.8044C169.966 42.8044 169.152 44.6111 167.453 44.6111C165.754 44.6111 164.925 42.8044 164.925 42.8044Z" fill="#A77860"/>
<path d="M172.645 33.9473C172.645 33.9473 172.231 33.8563 171.435 33.7646C170.003 33.6004 167.336 33.4362 163.635 33.8024C163.218 33.8435 162.786 33.8917 162.342 33.9473C162.342 33.9473 162.341 33.944 162.341 33.9376C162.328 33.8732 162.261 33.5063 162.224 32.9655C162.13 31.5901 161.966 29.068 163.688 27.58C164.421 26.9442 165.713 26.4227 167.144 26.4123C169.567 26.3938 170.569 27.0118 171.393 27.9276C173.36 30.1126 172.645 33.9473 172.645 33.9473Z" fill="#FAB546"/>
<path d="M172.645 33.9473C172.645 33.9473 170.778 34.7698 167.471 34.7496C164.164 34.7287 162.342 33.9473 162.342 33.9473C162.342 33.9473 164.243 33.2745 167.58 33.2745C170.916 33.2745 172.645 33.9473 172.645 33.9473Z" fill="#D99D3D"/>
<path d="M176.284 65.0819C176.284 65.0819 173.156 63.6172 172.026 58.5593H161.043C161.043 58.5593 157.797 65.378 156.027 65.7579C156.027 65.7579 156.482 73.107 156.291 75.9663C156.1 78.8256 155.766 84.8002 155.766 84.8002C155.766 84.8002 156.278 89.2875 175.603 85.7136C175.603 85.7136 175.161 73.7194 175.187 73.2116C175.213 72.7046 176.206 65.3813 176.284 65.0819Z" fill="#385369"/>
<path d="M172.004 58.5592C172.004 58.5592 173.347 51.5224 176.129 47.4825C176.129 47.4825 175.817 47.1284 175.086 47.0117C175.086 47.0117 171.98 51.722 170.83 58.5592C169.679 65.3973 172.004 58.5592 172.004 58.5592Z" fill="#385369"/>
<path d="M161.153 58.5593C161.153 58.5593 160.186 52.0286 157.404 47.9887C157.404 47.9887 157.773 47.7368 158.504 47.621C158.504 47.621 161.178 51.722 162.328 58.5593C163.479 65.3973 161.153 58.5593 161.153 58.5593Z" fill="#385369"/>
<path d="M169.063 66.5473H162.71L159.749 69.6014V78.9028H165.887H172.025V69.6014L169.063 66.5473Z" fill="#446580"/>
<path d="M86.9351 82.5806C86.9351 82.5806 87.5582 84.8372 87.6421 85.1849C87.7269 85.5325 87.3758 86.4685 86.8778 87.5074C86.3806 88.5464 85.2393 89.7302 85.0415 89.7575C84.843 89.7865 84.6565 89.9064 84.1972 89.677C83.7388 89.4485 83.4837 88.993 83.4837 88.993C83.4837 88.993 82.7896 88.9624 82.5103 88.3918C82.5103 88.3918 81.8533 88.3468 81.6418 87.6474C81.6418 87.6474 81.0098 87.5589 80.8799 87.0857C80.8799 87.0857 81.2302 86.1474 81.2584 85.7627C81.2867 85.3788 82.3295 83.585 83.441 81.8869C83.441 81.8869 84.4136 79.8581 86.9351 82.5806Z" fill="#EEA886"/>
<path d="M142.016 27.5961L138.871 28.0918L138.637 26.6288L141.781 26.133L142.016 27.5961Z" fill="#446580"/>
<path d="M142.556 21.1184C142.283 19.4148 140.667 18.2527 138.948 18.5239C137.229 18.7943 136.057 20.3958 136.331 22.1003C136.432 22.728 136.715 23.2825 137.118 23.7178C137.55 24.2651 138.458 25.5213 138.637 26.6287L140.209 26.3808L141.781 26.1329C141.604 25.0256 142.074 23.5512 142.314 22.8994C142.583 22.3103 142.648 21.689 142.556 21.1184Z" fill="#FACA7D"/>
<path d="M137.982 19.5129C137.982 19.5129 136.398 20.56 137.176 22.7369C137.176 22.7369 137.473 23.3871 137.91 23.3187C138.347 23.2503 138.215 22.8793 138.215 22.8793C137.439 20.7024 138.984 19.7085 138.984 19.7085C138.984 19.7085 139.5 19.385 139.042 19.1114C138.712 18.9134 137.982 19.5129 137.982 19.5129Z" fill="#FFF8E6"/>
<path d="M74.2535 114.074C73.9366 113.395 66.5483 97.348 71.688 89.4992C73.5278 86.6898 76.7521 85.3008 81.2641 85.3587C82.227 85.3724 83.6677 85.5382 85.4911 85.7482C90.2605 86.2962 97.4682 87.126 103.711 86.0202C111.152 84.702 115.214 81.0766 116.129 74.937C117.69 64.4582 124.169 61.17 130.436 57.9903C134.549 55.9036 138.802 53.7452 141.55 49.5242C144.37 45.1914 145.12 40.7008 143.779 36.1773C142.775 32.7884 140.906 30.6477 140.888 30.626L141.5 30.0933C141.579 30.1826 149.299 39.1082 142.234 49.962C139.369 54.3649 135.016 56.574 130.807 58.7098C124.445 61.9385 118.435 64.9878 116.935 75.0545C114.719 89.9241 94.9153 87.6458 85.3974 86.5505C83.5967 86.3429 82.1737 86.1796 81.2528 86.1667C77.0372 86.1039 74.0492 87.377 72.372 89.9386C67.4762 97.4132 74.9174 113.573 74.9932 113.735L74.2535 114.074Z" fill="#385369"/>
<path d="M85.1659 85.4038C85.1659 85.4038 84.4305 84.4815 84.3563 84.1186C84.282 83.7564 81.7871 84.7093 81.7871 84.7093C81.7871 84.7093 84.0108 86.2593 85.1659 85.4038Z" fill="#CF8C6C"/>
<path d="M85.747 81.4394C85.747 81.4394 86.1119 82.4808 86.5703 83.0707C87.0296 83.6606 82.6855 83.7104 82.6855 83.7104C82.6855 83.7104 83.0859 81.9794 83.4071 80.6757C83.6638 79.6359 85.747 81.4394 85.747 81.4394Z" fill="#EEA886"/>
<path d="M85.182 89.4903C85.182 89.4903 86.3782 86.8265 85.9689 86.5819C85.5597 86.338 85.2603 86.4941 85.2603 86.4941L85.2506 85.1767C85.2506 85.1767 84.7469 84.3076 83.939 85.1051C83.939 85.1051 83.554 84.2448 82.8663 85.1067C82.8663 85.1067 82.357 84.652 81.9671 84.9957C81.5773 85.3393 80.8799 87.0856 80.8799 87.0856C80.8799 87.0856 80.8993 87.5194 81.6297 87.6691C81.6297 87.6691 81.792 88.3516 82.4982 88.4167C82.4982 88.4167 82.7145 88.9423 83.4773 89.005C83.4773 89.005 84.052 90.1406 85.0415 89.7575C85.0415 89.7575 85.1327 89.603 85.182 89.4903Z" fill="#DB9C7C"/>
<path d="M87.6139 85.2726C87.6139 85.2726 86.0423 86.5296 84.8801 86.8419C84.6177 86.9119 84.3498 86.9336 84.1843 86.7179C84.0197 86.5031 84.1238 85.9921 84.7768 85.4134C85.4289 84.8348 86.006 83.791 86.006 83.791C86.006 83.791 86.8527 83.3903 87.6139 85.2726Z" fill="#EEA886"/>
<path d="M102.383 52.9051C102.383 52.9051 105.982 48.404 101.019 46.409C98.2873 45.3121 95.2274 47.6983 91.68 55.1689C91.68 55.1689 87.206 62.2508 86.8 63.9191C85.7193 68.3549 82.7869 80.2083 82.9669 82.1896L87.265 83.2664C87.265 83.2664 90.316 74.1951 91.2466 70.197C92.0158 66.8927 92.7915 65.3958 92.7915 65.3958L102.383 52.9051Z" fill="#DBDFF0"/>
<path d="M143.751 32.2694C143.751 32.2694 143.371 32.7668 143.114 32.8939C143.114 32.8939 142.631 33.0854 142.296 33.2456C142.189 33.2963 142.097 33.3438 142.04 33.3808C141.802 33.5369 141.321 33.9602 140.664 34.1558C140.007 34.3513 137 34.3674 137 34.3674L136.572 32.5149L135.953 30.8522C135.953 30.8522 138.913 27.4706 139.509 27.2075C139.567 27.1825 139.625 27.16 139.681 27.1439C140.204 26.9765 140.647 27.1012 140.93 27.0489C141.033 27.0304 142.073 26.925 142.286 27.1777C142.582 27.5278 142.66 27.9116 142.591 28.2416C142.591 28.2416 143.144 28.957 143.158 29.6073C143.158 29.6073 143.687 30.2479 143.502 31.0671C143.502 31.0671 143.974 31.7882 143.751 32.2694Z" fill="#EEA886"/>
<path d="M108.66 146.036C108.66 146.036 112.075 145.601 112.2 145.506C112.324 145.412 113.133 144.137 113.639 144.4C114.146 144.663 114.05 146.271 114.543 146.575C115.035 146.879 118.889 149.828 119.352 150.35C119.815 150.871 122.883 150.774 123.178 151.648C123.473 152.523 123.375 154.54 118.855 153.78C114.338 153.021 109.097 153.429 108.152 152.835C107.206 152.24 108.265 147.314 108.66 146.036Z" fill="#31485C"/>
<path d="M86.009 145.23C86.009 145.23 89.4329 144.873 89.5596 144.781C89.6863 144.69 90.5241 143.434 91.0246 143.71C91.525 143.985 91.391 145.589 91.8761 145.904C92.362 146.22 96.1451 149.257 96.5963 149.789C97.0467 150.321 100.116 150.295 100.391 151.176C100.665 152.057 100.518 154.072 96.0192 153.208C91.5202 152.344 86.2713 152.631 85.3399 152.015C84.4092 151.399 85.5836 146.499 86.009 145.23Z" fill="#31485C"/>
<path d="M107.647 42.0569C107.626 42.1221 107.601 42.1864 107.579 42.2508C107.452 42.6307 107.341 43.0105 107.249 43.3791C106.732 45.4337 106.732 47.2186 106.732 47.2186C107.036 48.4547 101.739 43.4596 101.739 43.4596C101.739 43.4596 102.019 39.3617 101.595 34.7866C101.169 30.2148 107.647 42.0569 107.647 42.0569Z" fill="#EEA886"/>
<path d="M109.297 69.442C108.528 73.4143 108.93 79.1499 109.571 85.6017C109.571 85.6017 106.739 86.4821 91.7458 88.8762C91.1501 69.5998 94.8379 51.627 94.8379 51.627C95.4861 47.4085 98.0939 45.8786 101.579 43.2648C101.579 43.2648 102.254 43.2913 106.993 46.6528C107.325 46.8878 108.861 49.9274 109.821 53.3106C112.207 61.7228 110.114 65.1993 109.297 69.442Z" fill="#FAB546"/>
<path d="M105.702 61.6503C103.99 64.5941 100.703 66.5408 99.0042 65.7023C96.6207 64.5104 94.5762 50.4263 98.9509 47.9428C98.9509 47.9428 101.041 46.8925 103.078 47.7367C104.801 48.4506 106.105 51.1087 106.628 55.0528C106.688 55.5067 106.737 55.9759 106.776 56.4628C106.799 56.7412 106.817 57.0245 106.833 57.3134C106.913 58.8738 106.453 60.3635 105.702 61.6503Z" fill="#DBDFF0"/>
<path d="M110.764 30.5695C110.764 30.5695 112.549 33.2228 111.836 33.7274C111.247 34.1443 112.858 36.7606 113.078 37.1927C113.298 37.6241 112.023 38.0707 111.774 38.3854C111.523 38.6992 111.037 42.3239 109.972 42.5299C108.907 42.7367 103.907 41.5175 102.46 40.2806C101.014 39.0437 99.3517 33.0064 99.9869 30.3354C100.622 27.6644 107.619 25.9373 110.764 30.5695Z" fill="#EEA886"/>
<path d="M111.139 31.1136C111.139 31.1136 111.415 29.7519 108.385 27.7746C105.354 25.7973 101.502 28.4426 100.931 28.647C100.358 28.8514 97.8571 31.6841 99.2809 35.0167C101.66 40.5848 101.83 40.4053 101.83 40.4053C101.83 40.4053 101.845 37.0567 102.878 36.7155C103.999 36.3445 105.775 35.7651 105.775 35.7651C105.775 35.7651 104.533 33.2398 106.053 32.7255C107.572 32.2105 109.511 30.6806 111.139 31.1136Z" fill="#754836"/>
<path d="M105.123 36.0171C105.017 35.7177 104.532 34.3802 103.468 34.6868C102.404 34.9927 102.928 36.6464 103.861 37.5534C104.794 38.4604 105.717 37.6862 105.123 36.0171Z" fill="#EEA886"/>
<path d="M111.505 31.0799C111.505 31.0799 108.193 22.8207 101.29 26.6183C93.2597 31.0357 100.396 37.592 100.396 37.592C100.396 37.592 102.342 33.8386 111.505 31.0799Z" fill="#446580"/>
<path d="M101.579 43.2648L101.678 42.5864L107.077 45.7435L106.993 46.6528L101.579 43.2648Z" fill="#FAB546"/>
<path d="M104.012 92.5338C104.012 92.5338 103.16 98.378 102.236 104.365C102.047 105.59 101.855 106.822 101.668 108.009C101.646 108.143 101.625 108.277 101.604 108.409C101.436 109.464 101.272 110.482 101.116 111.426C100.636 114.327 100.234 116.526 100.052 117.007C99.4006 118.726 92.4906 145.088 92.4906 145.088C92.4906 145.088 85.1844 146.423 84.9834 145.708C84.9834 145.708 91.397 115.376 91.3413 114.39C91.2856 113.405 91.6803 85.6604 91.6803 85.6604C91.6803 85.6604 103.722 90.9308 104.012 92.5338Z" fill="#FAB546"/>
<path d="M109.366 83.4771C109.366 83.4771 112.612 110.841 112.937 112.951C113.262 115.06 115.494 146.585 115.494 146.585C115.494 146.585 112.112 148.456 107.727 147.252C107.727 147.252 103.618 113.915 103.171 112.881C101.437 108.867 97.2649 88.8843 96.494 86.1361C95.7232 83.3878 91.8457 80.7956 91.8457 80.7956C91.8457 80.7956 99.7049 77.369 109.366 83.4771Z" fill="#FAB546"/>
<path d="M102.087 46.9892C102.087 46.9892 95.3738 47.8809 97.9155 53.1464C100.408 58.3106 104.887 55.0956 118.866 51.7381C118.866 51.7381 123.07 50.4312 125.281 48.573C128.813 45.6034 137.393 35.997 138.568 35.1198L135.99 30.6896C135.99 30.6896 130.593 35.9374 127.492 38.0491C124.39 40.1608 119.781 44.2796 119.781 44.2796L102.087 46.9892Z" fill="#DBDFF0"/>
<path d="M75.8154 87.5654C72.7474 87.5654 70.2516 92.4656 70.2516 98.49C70.2516 104.514 72.7474 109.415 75.8154 109.415C78.8831 109.415 81.3789 104.514 81.3789 98.49C81.3789 92.4656 78.8831 87.5654 75.8154 87.5654ZM75.8154 110.223C72.2385 110.223 69.4365 105.069 69.4365 98.49C69.4365 91.9103 72.2385 86.7574 75.8154 86.7574C79.3921 86.7574 82.1941 91.9103 82.1941 98.49C82.1941 105.069 79.3921 110.223 75.8154 110.223Z" fill="#385369"/>
<path d="M75.664 113.41L73.5898 114.221L73.8888 114.972L74.1143 114.884L74.4669 115.768L74.9356 115.585L74.5832 114.7L75.2685 114.432L75.6209 115.317L76.0899 115.133L75.7376 114.248L75.9629 114.16L75.664 113.41Z" fill="#FAB546"/>
<path d="M110.469 31.405L117.086 29.4406C117.086 29.4406 117.435 27.9799 110.687 30.0168C103.94 32.0536 110.469 31.405 110.469 31.405Z" fill="#446580"/>
<path d="M106.777 56.4628C104.082 56.7196 101.614 55.8448 101.614 55.8448C103.559 55.8923 106.562 55.0714 106.628 55.0529C106.689 55.5068 106.738 55.976 106.777 56.4628Z" fill="#A9ADBA"/>
<path d="M101.668 108.009C101.646 108.143 101.625 108.277 101.604 108.409C101.436 109.465 101.271 110.483 101.115 111.427C98.937 103.148 98.5625 95.0713 98.5625 95.0713C98.7941 97.7431 101.645 107.93 101.668 108.009Z" fill="#C99238"/>
<path d="M107.58 42.2506C107.453 42.6305 107.341 43.0103 107.249 43.3789C104.834 42.5846 103.565 40.9501 103.565 40.9501C105.491 41.7766 107.58 42.2506 107.58 42.2506Z" fill="#A77860"/>
<path d="M249.525 75.1011C249.525 75.1011 248.512 76.6608 248.365 76.9038C248.218 77.1468 248.26 77.9363 248.387 78.8384C248.515 79.7406 249.097 80.9027 249.239 80.9711C249.383 81.0387 249.496 81.1731 249.899 81.1079C250.302 81.0427 250.606 80.7691 250.606 80.7691C250.606 80.7691 251.14 80.9196 251.489 80.5542C251.489 80.5542 251.998 80.6725 252.326 80.1937C252.326 80.1937 252.827 80.2959 253.035 79.9281C253.035 79.9281 252.995 79.137 253.065 78.8401C253.136 78.5431 252.776 76.9424 252.34 75.3981C252.34 75.3981 252.089 73.6365 249.525 75.1011Z" fill="#EEA886"/>
<path d="M250.19 77.6506C250.19 77.6506 250.968 77.1259 251.111 76.8692C251.255 76.6133 252.918 77.9194 252.918 77.9194C252.918 77.9194 250.86 78.5689 250.19 77.6506Z" fill="#CF8C6C"/>
<path d="M250.7 74.5186C250.7 74.5186 250.174 75.2195 249.684 75.5575C249.195 75.8963 252.476 76.9546 252.476 76.9546C252.476 76.9546 252.587 75.5511 252.656 74.4912C252.712 73.6446 250.7 74.5186 250.7 74.5186Z" fill="#EEA886"/>
<path d="M251.554 78.7965C249.529 78.7965 247.883 80.6909 247.883 83.0183C247.883 85.3464 249.529 87.24 251.554 87.24C253.578 87.24 255.225 85.3464 255.225 83.0183C255.225 80.6909 253.578 78.7965 251.554 78.7965ZM251.554 87.5845C249.337 87.5845 247.534 85.5364 247.534 83.0183C247.534 80.5002 249.337 78.452 251.554 78.452C253.77 78.452 255.573 80.5002 255.573 83.0183C255.573 85.5364 253.77 87.5845 251.554 87.5845Z" fill="#D1D1D1"/>
<path d="M252.773 75.6958L248.96 75.4174C248.96 75.4174 246.496 65.0931 246.022 60.6934C246.021 60.6081 245.668 58.8618 245.291 57.0261V57.0253C245.104 56.1176 244.912 55.1889 244.754 54.4284C244.754 54.4276 244.754 54.4268 244.754 54.4268C244.548 53.4345 244.401 52.7287 244.401 52.7287C244.401 52.7287 240.583 43.4852 245.227 44.2071C245.227 44.2071 246.461 44.1677 248.101 47.8277C249.33 50.5711 249.281 51.0749 249.874 53.5142C250.284 55.2042 250.858 57.6498 251.331 61.0612C251.436 61.8113 251.537 63.0377 252.002 66.9883C252.206 68.7137 252.773 75.6958 252.773 75.6958Z" fill="#FA7126"/>
<path d="M255.728 94.5505H247.379V83.6122H255.728V94.5505Z" fill="#FA7126"/>
<path d="M255.728 94.5505H247.379V86.6791H255.728V94.5505Z" fill="#EBEBEB"/>
<path d="M255.728 94.5505H247.379V94.124H255.728V94.5505Z" fill="#D1D1D1"/>
<path d="M199.256 25.5633L198.825 25.5681L198.803 23.6793L208.48 22.1117L208.428 17.6983L206.758 17.7177L206.753 17.2919L208.854 17.267L208.915 22.4722L199.239 24.0407L199.256 25.5633Z" fill="#FA7126"/>
<path d="M206.97 19.9426L191.258 20.1245L191.2 15.2332L206.912 15.0513L206.97 19.9426Z" fill="#E3DDDD"/>
<path d="M200.122 39.5427H197.968V25.2172H200.122V39.5427Z" fill="#877373"/>
<path d="M229.76 117.672C229.76 117.672 230.316 119.829 230.391 120.154C230.466 120.478 233.889 119.584 233.889 119.584L233.886 116.946C233.886 116.946 230.161 117.316 229.76 117.672Z" fill="#5C544D"/>
<path d="M230.325 119.88C230.325 119.88 229.367 121.317 228.363 122.007C227.359 122.696 223.487 123.587 222.922 124.25C222.513 124.728 221.945 126.54 228.159 125.713C232.574 125.126 234.752 125.274 235.149 124.514C235.545 123.753 233.89 119.349 233.89 119.349C233.89 119.349 232.946 119.856 230.325 119.88Z" fill="#3C4145"/>
<path d="M226.43 153.948L216.633 54.1902L218.196 54.0405L227.993 153.798L226.43 153.948Z" fill="#FAA146"/>
<path d="M251.714 151.524L241.917 51.7655L243.48 51.6158L253.277 151.373L251.714 151.524Z" fill="#FAA146"/>
<path d="M217.776 57.7634L217.625 56.2183L242.909 53.7935L243.06 55.3379L217.776 57.7634Z" fill="#FAA146"/>
<path d="M218.917 69.3816L218.766 67.8364L244.05 65.4117L244.201 66.9568L218.917 69.3816Z" fill="#FAA146"/>
<path d="M220.058 81L219.906 79.4549L245.19 77.0301L245.342 78.5753L220.058 81Z" fill="#FAA146"/>
<path d="M221.199 92.6184L221.047 91.0741L246.331 88.6493L246.483 90.1937L221.199 92.6184Z" fill="#FAA146"/>
<path d="M222.34 104.238L222.188 102.692L247.473 100.268L247.625 101.813L222.34 104.238Z" fill="#FAA146"/>
<path d="M223.482 115.856L223.33 114.312L248.615 111.886L248.766 113.43L223.482 115.856Z" fill="#FAA146"/>
<path d="M224.622 127.474L224.471 125.929L249.755 123.504L249.907 125.049L224.622 127.474Z" fill="#FAA146"/>
<path d="M225.763 139.093L225.611 137.548L250.896 135.123L251.048 136.668L225.763 139.093Z" fill="#FAA146"/>
<path d="M226.905 150.711L226.753 149.167L252.037 146.742L252.188 148.286L226.905 150.711Z" fill="#FAA146"/>
<path d="M196.304 33.6654C196.304 33.6654 196.627 34.0606 196.854 34.1652C196.854 34.1652 197.281 34.3245 197.578 34.4565C197.672 34.4984 197.753 34.537 197.802 34.5676C198.01 34.6939 198.427 35.0343 199.012 35.2009C199.597 35.3667 202.241 35.9614 202.241 35.9614L202.856 34.4115L203.296 33.1593C203.296 33.1593 200.849 30.0263 200.322 29.809C200.271 29.7881 200.219 29.7688 200.169 29.7551C199.705 29.6143 199.3 29.702 199.048 29.6553C198.956 29.6384 198.023 29.5346 197.822 29.7269C197.541 29.9933 197.456 30.2911 197.505 30.5502C197.505 30.5502 196.979 31.0958 196.941 31.602C196.941 31.602 196.44 32.0905 196.574 32.7335C196.574 32.7335 196.122 33.2848 196.304 33.6654Z" fill="#EEA886"/>
<path d="M245.624 82.9154L244.462 73.9012C244.019 70.2911 243.646 66.9224 243.694 66.1892C243.811 64.3954 244.164 61.8363 244.5 59.6674C244.5 59.6594 244.501 59.6529 244.502 59.6473C244.502 59.6441 244.503 59.6409 244.504 59.6376L245.729 44.4035C244.237 43.3734 239.506 42.2628 237.7 41.9063H232.228C232.228 41.9063 228.822 42.93 226.14 44.0213C225.737 44.1846 225.321 44.3568 224.898 44.5339C224.898 44.5339 224.586 44.649 224.131 44.9121C223.018 45.5567 221.054 47.0882 220.766 49.9781C220.731 50.3354 220.638 50.9478 220.505 51.7244C221.653 52.2918 222.687 52.8294 223.512 53.3002C224.043 53.6019 224.486 53.8764 224.816 54.1138L225.41 57.4036C225.744 60.6525 225.647 65.3845 225.744 66.0556C225.889 67.0616 222.418 86.3461 222.49 86.8853C222.562 87.4237 234.257 85.3667 238.874 84.8637C240.318 84.706 241.533 84.5579 242.521 84.4291C244.689 84.1467 245.764 83.9543 245.764 83.9543C245.764 83.9543 245.711 83.5705 245.624 82.9154Z" fill="#FA7126"/>
<path d="M224.64 53.9906C224.029 53.6019 223.239 53.0764 220.505 51.7244C215.413 49.2071 209.127 44.6441 207.932 43.9842C206.094 42.971 200.288 35.9615 200.288 35.9615C200.588 34.9057 203.34 32.7867 203.34 32.7867C203.34 32.7867 212.142 41.0251 214.064 42.0391C215.719 42.9114 223.889 43.7918 226.139 44.0212C226.505 44.0582 226.715 44.0783 226.715 44.0783C229.065 47.2459 225.953 54.8259 224.64 53.9906Z" fill="#FA7126"/>
<path d="M224.738 72.1003C224.738 72.1003 222.413 81.5296 222.086 84.4139C221.759 87.2982 220.668 95.0883 220.505 96.8909C220.341 98.6936 227.856 116.14 228.638 119.292L235.485 118.206C235.485 118.206 228.261 100.047 230.146 96.0113C232.948 90.0102 233.314 90.1913 235.522 85.2477C237.73 80.304 242.784 80.1873 244.141 71.0146C244.141 71.0146 226.576 69.191 224.738 72.1003Z" fill="#D9D3D3"/>
<path d="M237.714 27.8495C237.714 27.8495 233.167 26.1715 231.071 29.5918C228.974 33.0112 229.177 39.8589 231.468 40.7007C233.76 41.5425 237.203 41.1023 238.376 38.9624C239.549 36.8226 240.609 33.7283 240.558 31.66C240.507 29.5926 238.908 28.4466 237.714 27.8495Z" fill="#EEA886"/>
<path d="M232.232 40.4906C232.232 40.4906 232.416 41.668 232.112 42.2482C231.808 42.8285 237.831 42.8438 237.831 42.8438C237.831 42.8438 238.319 39.6883 239.247 37.0221C240.173 34.3559 232.232 40.4906 232.232 40.4906Z" fill="#EEA886"/>
<path d="M239.246 37.0222C239.246 37.0222 238.831 37.6998 237.134 37.4366C235.437 37.1735 233.367 34.9426 232.658 34.698C231.951 34.4533 231.943 34.0413 231.943 34.0413L231.5 34.6819L230.748 34.7294C230.748 34.7294 231.434 32.7336 230.398 31.92C229.363 31.1064 231.473 25.461 236.915 27.3401C236.915 27.3401 241.094 28.4788 240.942 30.8271C240.79 33.177 240.181 35.852 239.246 37.0222Z" fill="#3A3F47"/>
<path d="M232.056 33.1875C232.151 32.7939 233.165 31.6681 233.554 32.8728C233.941 34.0783 232.967 35.6999 232.423 35.5615C231.879 35.4223 231.816 34.1862 232.056 33.1875Z" fill="#EEA886"/>
<path d="M244.479 72.5267C244.479 72.5267 239.816 74.5314 224.564 73.2413C224.564 73.2413 222.539 85.4584 222.368 87.7866L246.022 84.3825C246.022 84.3825 245.673 76.4604 244.479 72.5267Z" fill="#D9D3D3"/>
<path d="M240.732 33.7991C240.732 33.7991 235.681 30.4352 229.854 31.7284C229.854 31.7284 230.111 24.5073 236.778 25.6621C243.042 26.7469 240.937 32.9814 240.732 33.7991Z" fill="#FA7126"/>
<path d="M235.149 124.514C234.751 125.274 232.573 125.126 228.159 125.713C226.953 125.873 226.001 125.935 225.256 125.925L224.998 123.301C226.289 122.857 227.792 122.399 228.362 122.006C229.366 121.317 230.324 119.88 230.324 119.88C232.945 119.856 233.89 119.349 233.89 119.349C233.89 119.349 235.545 123.753 235.149 124.514Z" fill="#3C4145"/>
<path d="M230.37 30.6919C230.37 30.6919 228.488 30.9824 228.636 31.6552C228.735 32.1018 230.144 31.7751 230.144 31.7751L230.37 30.6919Z" fill="#FA7126"/>
<path d="M232.227 41.9062C232.227 41.9062 235.935 41.054 238.024 41.7509L238.34 42.0398C238.34 42.0398 238.976 43.2429 236.585 43.3459C234.194 43.4498 230.435 43.622 232.227 41.9062Z" fill="#FA7126"/>
<path d="M246.717 127.76C246.717 127.76 247.273 129.917 247.348 130.242C247.424 130.567 250.846 129.672 250.846 129.672L250.843 127.034C250.843 127.034 247.118 127.405 246.717 127.76Z" fill="#5C544D"/>
<path d="M252.003 129.044L245.607 129.77C245.607 129.77 241.452 107.099 240.471 104.782C239.789 103.173 237.236 94.7213 235.683 89.0824V89.0816C235.413 88.0998 235.174 87.2033 234.979 86.4428C234.681 85.2783 234.489 84.4325 234.459 84.0896C234.295 82.2355 244.142 71.0147 244.142 71.0147C244.142 71.0147 245.39 76.1016 245.759 81.1941C246.101 85.9003 246.723 91.0629 247.218 95.9856C247.767 101.472 249.339 110.343 249.421 113.279C249.503 116.215 252.003 129.044 252.003 129.044Z" fill="#D9D3D3"/>
<path d="M247.28 129.967C247.28 129.967 246.323 131.405 245.319 132.094C244.315 132.784 240.443 133.675 239.878 134.338C239.469 134.816 238.901 136.628 245.115 135.801C249.53 135.214 251.708 135.362 252.105 134.602C252.501 133.841 250.846 129.437 250.846 129.437C250.846 129.437 249.902 129.945 247.28 129.967Z" fill="#3C4145"/>
<path d="M244.141 71.0145C244.141 71.0145 243.44 65.126 244.201 61.6808C244.962 58.2348 244.656 56.466 244.689 55.7779C244.722 55.0906 243.079 51.3654 242.8 49.8959C242.8 49.8959 239.405 49.1145 230.943 49.8959C230.943 49.8959 230.485 55.8165 225.343 57.0366C225.343 57.0366 225.571 65.1486 225.452 66.5408C225.332 67.9322 224.397 73.5044 224.397 73.5044L244.141 71.0145Z" fill="#D9D3D3"/>
<path d="M242.8 49.896C242.8 49.896 242.8 46.174 242.1 42.9767C242.1 42.9767 241.012 42.4109 240.418 42.5236C240.418 42.5236 241.236 46.6794 240.946 50.7225C240.779 53.0611 242.8 49.896 242.8 49.896Z" fill="#D9D3D3"/>
<path d="M230.943 49.8961C230.943 49.8961 230.805 45.5101 227.735 43.4072C227.735 43.4072 228.268 42.7771 229.34 42.8439C229.34 42.8439 232.158 44.9049 232.782 49.744C233.408 54.583 230.943 49.8961 230.943 49.8961Z" fill="#D9D3D3"/>
<path d="M249.198 80.7353C249.198 80.7353 248.93 78.4409 249.298 78.3524C249.666 78.2647 249.856 78.453 249.856 78.453L250.18 77.4591C250.18 77.4591 250.77 76.9207 251.191 77.7134C251.191 77.7134 251.689 77.1533 252.004 77.9669C252.004 77.9669 252.5 77.7424 252.712 78.0941C252.925 78.4449 253.035 79.9281 253.035 79.9281C253.035 79.9281 252.916 80.2516 252.326 80.1937C252.326 80.1937 252.04 80.6709 251.489 80.5542C251.489 80.5542 251.199 80.9011 250.606 80.7691C250.606 80.7691 249.898 81.4918 249.24 80.9711C249.24 80.9711 249.208 80.8319 249.198 80.7353Z" fill="#DB9C7C"/>
<path d="M248.365 76.9771C248.365 76.9771 249.256 78.2953 250.061 78.8039C250.243 78.9198 250.441 78.9987 250.618 78.8748C250.795 78.7508 250.838 78.3404 250.482 77.7497C250.126 77.159 249.939 76.2343 249.939 76.2343C249.939 76.2343 249.394 75.733 248.365 76.9771Z" fill="#EEA886"/>
<path d="M245.292 57.0254C245.104 56.1176 244.912 55.1889 244.755 54.4284C244.755 54.4276 244.755 54.4268 244.755 54.4268C244.755 54.4268 244.832 49.7801 244.723 48.6092C244.723 48.6092 245.83 52.3248 245.292 57.0254Z" fill="#A84C1A"/>
<path d="M240.416 79.4324C240.347 79.5604 235.857 87.7609 235.683 89.0815C235.413 88.0997 235.174 87.2032 234.979 86.4427C234.979 86.4427 236.176 83.9142 236.711 83.2687C237.246 82.6233 240.106 79.7777 240.416 79.4324Z" fill="#B3AEAE"/>
<path d="M322.953 77.6562L316.632 74.8911L319.459 67.9009L325.78 70.6661L322.953 77.6562Z" fill="#385369"/>
<path d="M313.635 78.2511C313.635 78.2511 315.874 77.8141 316.218 77.7594C316.562 77.703 317.441 78.1312 318.41 78.7146C319.379 79.2981 320.438 80.5374 320.449 80.7378C320.461 80.9382 320.562 81.1345 320.304 81.5747C320.046 82.0149 319.574 82.225 319.574 82.225C319.574 82.225 319.496 82.9211 318.92 83.1545C318.92 83.1545 318.805 83.7782 318.11 83.9311C318.11 83.9311 318.043 84.6111 317.529 84.6787C317.529 84.6787 316.646 84.2506 316.276 84.1902C315.905 84.1299 314.129 83.1094 312.57 81.858C312.57 81.858 310.796 80.5479 313.635 78.2511Z" fill="#EEA886"/>
<path d="M316.235 80.2531C316.235 80.2531 315.282 80.9122 314.925 80.9565C314.567 81.0015 315.587 83.4182 315.587 83.4182C315.587 83.4182 316.974 81.4787 316.235 80.2531Z" fill="#CF8C6C"/>
<path d="M291.248 51.3019C291.248 51.3019 288.686 45.3893 284.669 49.1757C280.73 52.8889 284.77 56.1103 291.439 68.0071C291.439 68.0071 293.708 71.5038 295.944 73.0184C299.516 75.4383 312.094 81.6792 313.184 82.5154L314.679 77.9041C314.679 77.9041 308.587 74.4026 305.891 72.1404C303.196 69.8782 298.317 66.7871 298.317 66.7871L291.248 51.3019Z" fill="#DBDFF0"/>
<path d="M292.344 42.7996C292.344 42.7996 292.352 43.1054 292.373 43.5786C292.388 43.9262 292.409 44.364 292.438 44.8364C292.518 46.1184 292.659 47.6555 292.891 48.3363C293.326 49.6094 287.119 44.9064 287.119 44.9064C287.119 44.9064 286.975 40.5462 286.071 35.7587C285.167 30.9728 292.344 42.7996 292.344 42.7996Z" fill="#EEA886"/>
<path d="M262.506 134.518C262.506 134.518 264.539 135.931 265.391 136.504C266.242 137.076 267.039 136.69 266.78 137.366C266.523 138.042 266.148 140.759 266.552 141.795C266.956 142.832 269.936 149.316 268.731 150.336C267.525 151.356 265.286 148.934 262.566 145.202C259.849 141.475 258.826 142.056 257.776 139.03C257.449 138.087 262.506 134.518 262.506 134.518Z" fill="#202338"/>
<path d="M306.704 146.628C306.704 146.628 309.121 145.87 310.115 145.543C311.108 145.214 311.334 144.304 311.681 144.959C312.028 145.614 313.855 147.7 314.909 148.044C315.964 148.388 322.858 150.169 322.847 151.831C322.837 153.493 319.526 153.756 314.902 153.56C310.282 153.364 310.057 154.588 307.063 153.475C306.13 153.129 306.704 146.628 306.704 146.628Z" fill="#202338"/>
<path d="M306.342 145.073L306.775 146.93L311.167 145.484L310.775 143.68L306.342 145.073Z" fill="#EEA886"/>
<path d="M263.643 133.033L262.506 134.518L266.27 137.221L267.393 135.803L263.643 133.033Z" fill="#EEA886"/>
<path d="M298.513 92.1388C298.513 92.1388 298.292 93.0144 297.857 94.4614C297.612 95.2677 297.303 96.252 296.928 97.3617C296.692 98.0603 296.431 98.8071 296.143 99.5909C295.856 100.374 295.543 101.194 295.205 102.037H295.204C295.204 102.037 295.003 102.558 294.656 103.426C294.375 104.127 293.998 105.058 293.555 106.122C293.511 106.228 293.467 106.335 293.421 106.443C293.091 107.235 292.727 108.092 292.34 108.979C290.316 113.633 287.69 119.124 286.089 120.337C280.403 124.646 267.519 138.605 267.519 138.605L261.159 134.164C261.159 134.164 271.254 123.319 274.245 119.762C277.927 115.384 280.759 114.199 281.201 109.668C281.494 106.662 281.207 96.7083 281.201 96.5441C280.713 91.6198 280.329 85.1825 281.339 82.9243C282.188 81.0291 298.513 92.1388 298.513 92.1388Z" fill="#385369"/>
<path d="M308.104 114.793C308.488 112.067 306.329 104.909 304.662 100.397C302.058 93.1963 298.221 84.0776 298.221 84.0776C298.221 84.0776 281.817 81.4202 281.663 83.5062C281.372 87.4407 289.402 100.532 290.512 102.321L290.483 102.334C290.483 102.334 294.747 107.555 296.581 109.93C299.505 113.715 298.532 114.418 299.428 119.611C300.23 124.262 305.478 147.951 305.478 147.951L312.646 145.192C312.646 145.192 307.589 118.469 308.104 114.793Z" fill="#385369"/>
<path d="M297.429 71.5538C297.067 75.8343 297.197 78.0249 298.513 84.7744C298.513 84.7744 295.61 86.9473 280.758 91.0837C278.155 70.7772 281.015 54.2772 281.015 54.2772C282.067 49.0116 283.697 47.8544 286.936 44.7182C286.936 44.7182 287.618 44.6747 292.741 47.7192C293.099 47.9316 294.963 50.9792 296.281 54.451C299.551 63.0668 297.826 66.8081 297.429 71.5538Z" fill="#385369"/>
<path d="M290.351 68.7379C290.351 68.7379 290.351 68.7379 290.351 68.7387C289.781 68.9118 289.25 68.989 288.811 68.989C288.685 68.989 288.562 68.9818 288.438 68.9673C282.921 68.2865 280.254 52.3015 284.31 49.2764C284.31 49.2764 286.693 47.6789 288.831 48.3525C290.968 49.0261 293.405 50.6195 294.878 55.9124C297.248 64.4268 293.288 67.8479 290.351 68.7379Z" fill="#DBDFF0"/>
<path d="M292.373 43.5786C292.388 43.9262 292.409 44.364 292.439 44.8364C290.445 43.6888 288.769 42.1437 288.262 41.656C289.203 42.4479 292.373 43.5786 292.373 43.5786Z" fill="#A77860"/>
<path d="M297.123 31.8412C297.123 31.8412 298.55 34.8864 297.767 35.3161C297.119 35.6718 298.377 38.6543 298.538 39.1396C298.699 39.6248 297.359 39.9154 297.065 40.2107C296.772 40.506 295.788 44.253 294.691 44.3206C293.595 44.3874 288.745 42.398 287.463 40.8923C286.181 39.3866 285.339 32.7964 286.342 30.0747C287.346 27.3522 294.602 26.5217 297.123 31.8412Z" fill="#EEA886"/>
<path d="M297.425 32.4665C297.425 32.4665 297.888 31.0718 295.118 28.5634C292.348 26.0549 288.122 28.2962 287.52 28.4298C286.919 28.5642 284.021 31.1942 284.994 34.9025C286.619 41.1 286.818 40.9277 286.818 40.9277C286.818 40.9277 287.214 37.2436 288.297 37.0295C289.472 36.7977 291.407 36.607 291.407 36.607C291.407 36.607 290.507 33.7734 292.101 33.4459C293.696 33.1183 295.851 31.7816 297.425 32.4665Z" fill="#754836"/>
<path d="M290.718 36.7799C290.652 36.4499 290.348 34.9732 289.239 35.1454C288.13 35.3184 288.43 37.1324 289.242 38.2188C290.053 39.3044 291.085 38.6204 290.718 36.7799Z" fill="#EEA886"/>
<path d="M297.796 32.4827C297.796 32.4827 295.603 23.322 288.158 26.3455C279.498 29.8632 285.76 37.7708 285.76 37.7708C285.76 37.7708 288.224 34.0946 297.796 32.4827Z" fill="#FAB546"/>
<path d="M297.584 31.6826C297.584 31.6826 298.827 31.8331 299.585 32.1002C301.921 32.9267 294.22 33.2156 293.541 33.441C287.217 35.5358 297.584 31.6826 297.584 31.6826Z" fill="#FAB546"/>
<path d="M293.556 106.122C293.511 106.228 293.467 106.335 293.421 106.443C293.091 107.235 292.727 108.092 292.34 108.979C288.626 102.11 286.015 94.6311 285.999 94.5362C288.241 98.9575 293.556 106.122 293.556 106.122Z" fill="#2C4152"/>
<path d="M286.936 44.718L286.965 43.9905L292.731 46.7485L292.741 47.719L286.936 44.718Z" fill="#DBDFF0"/>
<path d="M295.602 93.6573C292.526 93.6573 290.023 96.6865 290.023 100.41C290.023 104.134 292.526 107.163 295.602 107.163C298.678 107.163 301.181 104.134 301.181 100.41C301.181 96.6865 298.678 93.6573 295.602 93.6573ZM295.602 107.714C292.233 107.714 289.493 104.437 289.493 100.41C289.493 96.3831 292.233 93.1069 295.602 93.1069C298.971 93.1069 301.712 96.3831 301.712 100.41C301.712 104.437 298.971 107.714 295.602 107.714Z" fill="#D1D1D1"/>
<path d="M301.947 118.856H289.259V101.36H301.947V118.856Z" fill="#A0CC83"/>
<path d="M301.947 118.856H289.259V106.265H301.947V118.856Z" fill="#EBEBEB"/>
<path d="M301.947 118.856H289.259V118.174H301.947V118.856Z" fill="#D1D1D1"/>
<path d="M294.157 97.5131C294.157 97.5131 293.673 97.1823 293.539 96.9449C293.539 96.9449 293.331 96.4966 293.163 96.186C293.109 96.0878 293.059 96.0025 293.021 95.951C292.862 95.7346 292.44 95.3024 292.218 94.6868C291.995 94.0719 291.793 91.2006 291.793 91.2006L293.483 90.671L294.985 89.9709C294.985 89.9709 298.303 92.5775 298.583 93.1296C298.61 93.1835 298.635 93.2374 298.654 93.2905C298.841 93.7782 298.753 94.2112 298.819 94.4767C298.843 94.5741 299.005 95.5599 298.784 95.7804C298.478 96.0862 298.127 96.1852 297.817 96.1418C297.817 96.1418 297.189 96.7163 296.587 96.7727C296.587 96.7727 296.026 97.3191 295.256 97.1968C295.256 97.1968 294.617 97.6941 294.157 97.5131Z" fill="#EEA886"/>
<path d="M290.83 54.0648C290.83 54.0648 291.978 47.691 286.601 48.4089C281.328 49.1131 282.872 54.1581 281.802 67.8842C281.802 67.8842 281.743 72.1027 282.745 74.6747C284.346 78.7847 291.235 91.3832 291.669 92.7175L295.431 89.8228C295.431 89.8228 292.357 83.3284 291.39 79.8687C290.421 76.4098 288.118 70.9728 288.118 70.9728L290.83 54.0648Z" fill="#DBDFF0"/>
<path d="M290.351 68.7379C290.351 68.7379 290.351 68.7379 290.351 68.7387C289.781 68.9118 289.25 68.989 288.811 68.989C288.685 68.989 288.562 68.9818 288.438 68.9673L290.075 58.7677L290.351 68.7379Z" fill="#B3B6C4"/>
<path d="M322.629 79.3914L315.668 76.3461L316.555 74.1515L323.517 77.1968L322.629 79.3914Z" fill="#D88A51"/>
<path d="M314.705 86.1779L318.873 75.8713L320.714 76.6761L316.546 86.9827L314.705 86.1779Z" fill="#D88A51"/>
<path d="M320.2 80.5744C320.2 80.5744 317.71 79.1588 317.441 79.5475C317.173 79.9362 317.3 80.2493 317.3 80.2493L316.021 80.1503C316.021 80.1503 315.139 80.5817 315.848 81.4556C315.848 81.4556 314.984 81.7695 315.766 82.5284C315.766 82.5284 315.285 83.0008 315.588 83.4184C315.89 83.8361 317.529 84.6787 317.529 84.6787C317.529 84.6787 317.952 84.6948 318.154 83.9761C318.154 83.9761 318.829 83.8707 318.947 83.1698C318.947 83.1698 319.475 82.9967 319.596 82.2387C319.596 82.2387 320.742 81.7582 320.449 80.7378C320.449 80.7378 320.306 80.6332 320.2 80.5744Z" fill="#DB9C7C"/>
<path d="M316.3 77.7947C316.3 77.7947 317.395 79.4694 317.607 80.658C317.654 80.926 317.654 81.1956 317.432 81.3428C317.211 81.4909 316.724 81.3436 316.214 80.6435C315.704 79.9426 314.737 79.2803 314.737 79.2803C314.737 79.2803 314.415 78.4006 316.3 77.7947Z" fill="#EEA886"/>
<path d="M317.968 71.5892C317.968 71.5892 320.26 70.5245 322.224 71.1844C324.188 71.8443 325.117 72.3079 325.117 72.3079L325.78 70.6661L319.459 67.901L317.968 71.5892Z" fill="#A0CC83"/>
<path d="M21.942 146.112C21.942 146.112 21.2543 147.797 20.6748 148.465C20.095 149.132 17.8753 150.325 17.8633 152.308C17.8505 154.459 21.6051 153.862 23.0736 153.783C24.5423 153.705 24.6533 152.556 25.2715 151.339C25.8899 150.121 26.513 150.327 26.629 149.345C26.7449 148.363 26.1557 146.165 26.1557 146.165L21.942 146.112Z" fill="#163342"/>
<path d="M65.6246 55.7942C65.6246 55.7942 65.3515 53.3573 65.2744 53.0137C65.1973 52.6693 65.5458 51.7502 66.0365 50.7298C66.5273 49.7094 67.6395 48.5545 67.8306 48.5288C68.0215 48.5038 68.2031 48.3871 68.6422 48.6181C69.0814 48.8499 69.3143 49.3899 69.3143 49.3899C69.3143 49.3899 69.9869 49.4269 70.2499 49.9934C70.2499 49.9934 70.8214 50.0385 71.0169 50.7314C71.0169 50.7314 71.7069 50.7 71.8066 51.2151C71.8066 51.2151 71.4587 52.1373 71.4269 52.5164C71.3952 52.8954 69.5812 55.7072 68.4919 57.3707C68.4919 57.3707 68.021 58.5102 65.6246 55.7942Z" fill="#EEA886"/>
<path d="M74.4446 51.9199L74.0005 53.8755L25.9355 42.604L26.3797 40.6484L74.4446 51.9199Z" fill="#8A664D"/>
<path d="M81.2364 50.828C78.4532 50.5222 77.0098 52.9244 76.7057 53.4998C76.7188 53.8008 76.786 54.5854 77.1283 55.4393C77.6196 56.6633 78.4582 57.4962 79.6262 57.922L81.2364 50.828ZM75.5685 53.1046C76.271 51.5804 78.5386 48.9175 82.092 49.7512L82.6723 49.8872L80.5106 59.4067L79.9307 59.2707C76.3772 58.4378 75.4866 55.0345 75.5123 53.3517L75.5143 53.2221L75.5685 53.1046Z" fill="#4A3F3F"/>
<path d="M30.8208 42.7199L29.3682 49.1169C18.8893 46.6592 14.8789 38.981 14.8789 38.981C14.8789 38.981 21.7939 33.8651 32.2732 36.3229L30.8208 42.7199Z" fill="#C9C3C3"/>
<path d="M76.9248 52.5017L76.4858 54.4653L72.4297 53.5069L72.8718 51.5513L76.9248 52.5017Z" fill="#4A3F3F"/>
<path d="M67.3438 52.715C67.3438 52.715 68.0413 53.634 68.1086 53.993C68.1762 54.3519 70.737 53.2655 70.737 53.2655C70.737 53.2655 68.4655 51.8837 67.3438 52.715Z" fill="#CF8C6C"/>
<path d="M68.5356 58.0169C68.5356 58.0169 61.1225 69.6441 58.6291 69.0421C57.4763 68.7645 54.0432 66.1442 52.5884 64.2586C51.0035 62.2073 49.1506 59.3174 47.9974 57.2861C47.9974 57.2861 43.1142 50.0473 47.2824 47.2411C47.2824 47.2411 49.7926 47.8761 51.201 49.3858C52.6108 50.8955 53.3198 53.1955 53.6927 54.0043C54.0654 54.8115 58.3675 62.0053 58.6345 62.1719C58.9017 62.3392 60.8728 60.6444 62.0649 59.2691C63.8206 57.2435 65.436 54.9218 65.436 54.9218L68.5356 58.0169Z" fill="#385369"/>
<path d="M67.6921 48.7918C67.6921 48.7918 66.5104 51.4081 66.9017 51.6535C67.2928 51.899 67.583 51.7477 67.583 51.7477L67.5772 53.049C67.5772 53.049 68.0522 53.9125 68.8389 53.1351C68.8389 53.1351 69.2002 53.9881 69.8719 53.1447C69.8719 53.1447 70.3575 53.6002 70.7364 53.2655C71.1153 52.9307 71.8069 51.2149 71.8069 51.2149C71.8069 51.2149 71.793 50.786 71.0914 50.6299C71.0914 50.6299 70.9429 49.9547 70.2638 49.8831C70.2638 49.8831 70.0619 49.3616 69.3278 49.29C69.3278 49.29 68.7877 48.1625 67.8308 48.5287C67.8308 48.5287 67.7412 48.6808 67.6921 48.7918Z" fill="#DB9C7C"/>
<path d="M65.3037 52.9267C65.3037 52.9267 66.8311 51.705 67.9533 51.4097C68.2071 51.3429 68.465 51.3252 68.6216 51.5401C68.7784 51.7541 68.6718 52.2571 68.0369 52.8204C67.4018 53.3846 66.8349 54.4082 66.8349 54.4082C66.8349 54.4082 66.0153 54.7937 65.3037 52.9267Z" fill="#EEA886"/>
<path d="M24.2901 79.4709C24.2901 79.4709 13.4813 68.0176 13.2252 65.4262C13.1067 64.228 14.649 60.4673 15.9264 58.453C16.3469 57.7891 16.7991 57.1235 17.2527 56.4821C17.2537 56.4805 17.2549 56.4797 17.2549 56.4797C19.0668 53.9206 20.9075 51.763 20.9075 51.763C20.9075 51.763 25.5406 44.9861 29.514 48.0716C29.514 48.0716 29.6155 50.3852 28.6723 52.2322C27.7297 54.0799 26.4521 55.5357 25.8221 56.1586C25.1933 56.7807 19.688 63.8578 19.62 64.1692C19.552 64.4807 21.298 67.9999 22.3399 69.4951C23.8263 71.6293 26.8326 76.7348 26.8326 76.7348L24.2901 79.4709Z" fill="#385369"/>
<path d="M48.0685 146.227C48.0685 146.227 48.7679 147.888 49.3493 148.543C49.9307 149.199 52.1425 150.357 52.1756 152.321C52.2114 154.451 48.4847 153.901 47.0289 153.84C45.5732 153.778 45.4508 152.641 44.8252 151.442C44.1997 150.242 43.5844 150.453 43.4591 149.481C43.3338 148.51 43.9143 146.323 43.9143 146.323L48.0685 146.227Z" fill="#163342"/>
<path d="M48.3311 145.465L48.2253 146.611C48.2253 146.611 46.1837 147.416 43.9146 146.659L43.9131 145.218L48.3311 145.465Z" fill="#163342"/>
<path d="M26.2199 145.465L26.1142 146.611C26.1142 146.611 24.2115 147.153 21.9424 146.396L21.9404 144.642L26.2199 145.465Z" fill="#163342"/>
<path d="M23.8598 119.625C23.8312 116.999 27.5887 94.2593 27.6499 93.3821C27.704 92.6088 28.4468 87.6707 28.8305 83.9165C28.9941 82.3159 29.1957 80.411 29.1957 80.411C29.1957 80.411 33.9236 79.4091 39.0179 79.1982C41.9235 79.0775 45.7947 79.1773 48.4352 80.3772C48.5365 81.0443 48.935 83.8699 48.983 84.2006C49.9552 91.1006 49.548 100.198 49.7277 106.07C49.9317 112.759 49.7225 118.999 49.6815 120.891C49.6652 121.64 49.022 145.362 49.022 145.362C49.022 145.362 44.9885 146.497 43.0809 145.38L43.0583 144.987L42.3161 132.325L42.2771 131.653C41.9525 125.988 41.6503 120.511 41.64 119.55C41.6036 116.114 39.2818 96.3187 38.5247 96.239C37.7697 96.1602 33.3354 115.876 32.4673 121.081C32.4673 121.081 29.5885 140.068 27.6499 145.872C22.0353 147.355 21.1836 145.218 21.1836 145.218C21.1836 145.218 23.8874 122.252 23.8598 119.625Z" fill="#385369"/>
<path d="M23.9014 49.3575L27.1832 61.3243C27.296 61.7114 27.4299 62.1894 27.5727 62.7447L27.5781 62.7656C27.5797 62.7705 27.5813 62.7753 27.5823 62.7801C28.1299 64.9127 28.8076 68.1648 29.0092 71.7773C29.1463 74.2399 29.0216 82.0743 29.0216 82.0743C29.0216 82.0743 33.5744 83.7723 41.0059 83.2959C41.0059 83.2959 49.0879 85.3561 48.4359 80.3762C46.7111 67.1926 48.398 61.7573 48.6238 60.4342C48.6238 60.4342 49.5277 54.0814 50.3043 48.7169C48.0551 47.8655 38.6278 44.5321 38.6278 44.5321L33.4163 44.5901C33.4163 44.5901 26.0863 46.8032 23.9014 49.3575Z" fill="#385369"/>
<path d="M27.8311 63.8191C27.8311 63.8191 30.9283 62.348 31.9997 57.377L42.9293 57.2562C42.9293 57.2562 46.1998 63.8625 47.9646 64.215C47.9646 64.215 47.6203 71.4683 47.8407 74.2705C48.0612 77.0719 48.7228 82.3713 48.7228 82.3713C48.7228 82.3713 48.099 87.2087 28.8307 83.9172C28.8307 83.9172 29.039 72.2755 29.0081 71.7782C28.9769 71.2808 27.9113 64.1112 27.8311 63.8191Z" fill="#385369"/>
<path d="M32.0213 57.3771C32.0213 57.3771 30.737 50.6307 27.9258 46.7011C27.9258 46.7011 28.1958 46.3736 28.9228 46.2512C28.9228 46.2512 31.9733 50.6726 33.1903 57.3642C34.4072 64.0558 32.0213 57.3771 32.0213 57.3771Z" fill="#385369"/>
<path d="M42.8191 57.2572C42.8191 57.2572 43.5623 51.1643 46.2881 47.1735C46.2881 47.1735 45.8267 46.8661 45.0979 46.7599C45.0979 46.7599 42.7235 50.5535 41.6502 57.2701C40.5771 63.9874 42.8191 57.2572 42.8191 57.2572Z" fill="#385369"/>
<path d="M35.5961 27.3805C35.5961 27.3805 30.7379 28.2134 31.5619 35.9439C32.3859 43.6737 36.6742 42.992 36.9613 42.9808C37.248 42.9695 41.2745 43.0741 41.4868 33.623C41.4868 33.623 41.5489 26.6344 35.5961 27.3805Z" fill="#EEA987"/>
<path d="M33.4675 40.7403C33.4675 40.7403 33.6354 43.9215 33.3396 44.6136C33.0439 45.3065 37.3556 47.5011 39.9635 45.0055C39.9635 45.0055 39.3211 41.5241 39.4847 40.2961C39.6488 39.068 33.4675 40.7403 33.4675 40.7403Z" fill="#EEA987"/>
<path d="M31.463 33.7589C31.463 33.7589 30.9242 33.1859 30.7347 33.7734C30.5457 34.3617 31.596 36.9667 31.5303 37.085C31.5303 37.085 31.6303 37.3111 31.7568 37.1848C31.8834 37.0584 31.463 33.7589 31.463 33.7589Z" fill="#EEA987"/>
<path d="M41.432 33.5506C41.432 33.5506 41.9477 32.9559 42.1603 33.5353C42.3732 34.1147 41.5963 36.7165 41.4994 36.8767C41.4994 36.8767 41.332 37.1438 41.2006 37.0231C41.069 36.9016 41.432 33.5506 41.432 33.5506Z" fill="#EEA987"/>
<path d="M31.1534 33.1014C31.3209 34.1596 31.4788 34.9451 31.4788 34.9451L32.1861 35.8842C32.1861 35.8842 32.1443 33.8088 32.2522 33.4828C32.293 33.3589 32.341 33.1408 32.3907 32.9034C32.4718 32.5131 32.5548 32.0713 32.612 31.924C32.7028 31.689 36.7757 30.4803 40.4034 32.1775C40.4034 32.1775 40.3725 32.497 40.3748 32.8535C40.376 33.2672 40.4209 33.7315 40.608 33.8007C40.9556 33.9303 40.8103 36.2295 40.8103 36.2295L41.376 35.5664C41.376 35.5664 41.5396 34.3657 41.7003 32.9847C41.7003 32.9847 41.701 32.9815 41.7019 32.975C41.7383 32.6531 41.7753 32.3216 41.8108 31.9932C41.892 30.605 41.7566 28.0837 39.9777 26.6021C38.7774 26.0798 36.8282 25.9462 33.6328 26.9401C33.6328 26.9401 33.2295 26.858 32.7269 26.8806C30.7372 29.1065 31.1534 33.1014 31.1534 33.1014Z" fill="#385369"/>
<path d="M39.1515 41.9472C39.1515 41.9472 38.3763 43.0417 36.5746 43.0007C34.7733 42.9588 33.9912 42.0044 33.9912 42.0044C33.9912 42.0044 34.8441 43.8175 36.5833 43.7982C38.3224 43.7789 39.1515 41.9472 39.1515 41.9472Z" fill="#C78D71"/>
<path d="M31.1529 33.1013C31.1529 33.1013 31.5764 33.0047 32.3901 32.9033C33.8545 32.7223 36.5825 32.5259 40.3742 32.8535C40.8027 32.8897 41.2447 32.9339 41.6997 32.9846C41.6997 32.9846 41.7004 32.9814 41.7013 32.975C41.7136 32.9098 41.7787 32.5388 41.8103 31.9932C41.8914 30.605 42.0325 28.0587 40.2534 26.5779C39.4968 25.9454 38.1683 25.4335 36.7033 25.4392C34.2229 25.448 33.2024 26.083 32.3691 27.0165C30.3794 29.2417 31.1529 33.1013 31.1529 33.1013Z" fill="#FA7126"/>
<path d="M31.1533 33.1014C31.1533 33.1014 33.0735 33.9102 36.4583 33.8523C39.8432 33.7943 41.7002 32.9847 41.7002 32.9847C41.7002 32.9847 39.7462 32.328 36.3307 32.3659C32.9153 32.4037 31.1533 33.1014 31.1533 33.1014Z" fill="#D15F20"/>
<path d="M23.8926 48.6236C26.6361 49.4316 26.7555 59.9788 26.7555 59.9788C26.7555 59.9788 27.5187 62.595 27.8427 64.9458C28.016 66.2028 28.1988 71.5367 28.3301 76.2213L28.344 76.7283L28.3553 77.1315C28.4554 80.8076 28.5215 83.8673 28.5215 83.8673C28.5215 83.8673 31.1725 85.5992 38.4094 85.4664C38.4094 85.4664 45.9666 84.936 49.1796 83.6661C49.1796 83.6661 48.8248 80.5316 48.497 77.4002C48.449 76.9447 48.402 76.4901 48.3564 76.0442C48.1848 74.3607 48.0376 72.8163 47.9781 71.9311C47.7954 69.2021 48.623 60.4342 48.623 60.4342C47.4832 50.6323 49.7216 48.2502 49.7216 48.2502C47.5045 46.9255 40.3926 45.1373 40.3926 45.1373C38.7982 52.1806 36.7536 53.5785 36.7536 53.5785C33.7978 50.5928 32.3451 44.9386 32.3451 44.9386C27.3441 45.9349 23.8926 48.6236 23.8926 48.6236Z" fill="#FA7126"/>
<path d="M48.7755 80.0054C48.7755 80.0054 37.675 82.3167 28.4369 80.2307L28.4023 78.8755C28.4023 78.8755 37.3632 80.8576 48.6296 78.651L48.7755 80.0054Z" fill="#D9C9BD"/>
<path d="M28.3301 76.2215L28.344 76.7285L28.3553 77.1316L28.3678 77.5775C36.7939 79.4791 46.8036 77.7239 48.497 77.4004C48.449 76.9449 48.4019 76.4902 48.3564 76.0444C37.2039 78.1746 28.3301 76.2215 28.3301 76.2215Z" fill="#D9C9BD"/>
<path d="M26.1137 76.7518C26.1137 76.7518 26.4587 77.1332 26.8669 77.1727C27.572 77.2394 28.4684 76.5135 29.1182 77.3264C29.7678 78.1392 27.8523 81.1071 27.2511 81.4162C26.6504 81.7244 25.4591 80.9325 24.305 79.0542C23.1508 77.1751 26.1137 76.7518 26.1137 76.7518Z" fill="#EEA886"/>
<path d="M28.8613 77.0872C28.8613 77.0872 30.2247 77.7543 31.6509 78.6967C32.902 79.524 34.2324 80.6925 34.0104 81.0385C33.7069 81.5109 32.7663 80.4543 31.4714 79.7244C30.279 79.0524 30.4017 79.4017 30.4017 79.4017C30.4017 79.4017 30.372 79.3003 31.5291 80.3054C32.7731 81.387 34.0951 82.7125 33.8261 83.0255C33.6574 83.2219 33.6551 83.2629 33.1406 82.9507C33.398 83.1985 33.3682 83.3112 33.2769 83.4383C32.8064 84.0974 30.7357 82.8195 29.9137 82.3117C30.5428 82.706 30.9625 83.0682 30.4323 83.2806C29.8257 83.5245 26.9791 81.5745 25.8932 80.9822C24.7087 80.336 28.8613 77.0872 28.8613 77.0872Z" fill="#EEA886"/>
<path d="M26.8322 76.7348C26.8322 76.7348 26.4524 78.2799 24.2897 79.4709C24.2897 79.4709 18.3519 72.9186 17.6748 72.1001L22.8748 70.2902C22.8748 70.2902 25.621 74.5563 26.8322 76.7348Z" fill="#385369"/>
</svg>
