<svg width="30" height="30" viewBox="0 0 30 30" fill="none" xmlns="http://www.w3.org/2000/svg">
<path d="M1.40625 8.4375H28.5938V25.7812C28.5938 26.1542 28.4456 26.5119 28.1819 26.7756C27.9181 27.0393 27.5605 27.1875 27.1875 27.1875H2.8125C2.43954 27.1875 2.08185 27.0393 1.81813 26.7756C1.55441 26.5119 1.40625 26.1542 1.40625 25.7812V8.4375Z" fill="#EBEBEB"/>
<path d="M11.7188 13.125H7.03125V22.0312H11.7188V13.125Z" fill="#FBB540"/>
<path d="M11.7188 18.2812H7.03125V22.0312H11.7188V18.2812Z" fill="#EA9D2D"/>
<path d="M2.8125 4.6875H27.1875C27.5605 4.6875 27.9181 4.83566 28.1819 5.09938C28.4456 5.3631 28.5938 5.72079 28.5938 6.09375V8.4375H1.40625V6.09375C1.40625 5.72079 1.55441 5.3631 1.81813 5.09938C2.08185 4.83566 2.43954 4.6875 2.8125 4.6875Z" fill="#009CF7"/>
<path d="M15.9375 3.75C15.9375 3.23223 15.5178 2.8125 15 2.8125C14.4822 2.8125 14.0625 3.23223 14.0625 3.75V5.625C14.0625 6.14277 14.4822 6.5625 15 6.5625C15.5178 6.5625 15.9375 6.14277 15.9375 5.625V3.75Z" fill="#CBCBCB"/>
<path d="M8.4375 3.75C8.4375 3.23223 8.01777 2.8125 7.5 2.8125C6.98223 2.8125 6.5625 3.23223 6.5625 3.75V5.625C6.5625 6.14277 6.98223 6.5625 7.5 6.5625C8.01777 6.5625 8.4375 6.14277 8.4375 5.625V3.75Z" fill="#CBCBCB"/>
<path d="M23.4375 3.75C23.4375 3.23223 23.0178 2.8125 22.5 2.8125C21.9822 2.8125 21.5625 3.23223 21.5625 3.75V5.625C21.5625 6.14277 21.9822 6.5625 22.5 6.5625C23.0178 6.5625 23.4375 6.14277 23.4375 5.625V3.75Z" fill="#CBCBCB"/>
<path d="M7.03125 13.125H4.21875V22.0312H7.03125V13.125Z" fill="#D18D28"/>
<path d="M9.375 19.6875C9.62364 19.6875 9.8621 19.7863 10.0379 19.9621C10.2137 20.1379 10.3125 20.3764 10.3125 20.625V22.0312H8.4375V20.625C8.4375 20.3764 8.53627 20.1379 8.71209 19.9621C8.8879 19.7863 9.12636 19.6875 9.375 19.6875Z" fill="#F55648"/>
<path d="M9.84375 16.875H8.90625C8.78193 16.875 8.6627 16.8256 8.57479 16.7377C8.48689 16.6498 8.4375 16.5306 8.4375 16.4062C8.4375 16.2819 8.48689 16.1627 8.57479 16.0748C8.6627 15.9869 8.78193 15.9375 8.90625 15.9375H9.84375C9.96807 15.9375 10.0873 15.9869 10.1752 16.0748C10.2631 16.1627 10.3125 16.2819 10.3125 16.4062C10.3125 16.5306 10.2631 16.6498 10.1752 16.7377C10.0873 16.8256 9.96807 16.875 9.84375 16.875ZM9.84375 15.4688H8.90625C8.78193 15.4688 8.6627 15.4194 8.57479 15.3315C8.48689 15.2435 8.4375 15.1243 8.4375 15C8.4375 14.8757 8.48689 14.7565 8.57479 14.6685C8.6627 14.5806 8.78193 14.5312 8.90625 14.5312H9.84375C9.96807 14.5312 10.0873 14.5806 10.1752 14.6685C10.2631 14.7565 10.3125 14.8757 10.3125 15C10.3125 15.1243 10.2631 15.2435 10.1752 15.3315C10.0873 15.4194 9.96807 15.4688 9.84375 15.4688Z" fill="#EBEBEB"/>
<path d="M10.3125 11.25H6.5625V13.125H10.3125V11.25Z" fill="#EA9D2D"/>
<path d="M6.09375 14.5312H5.15625V15.4688H6.09375V14.5312Z" fill="#EBEBEB"/>
<path d="M6.09375 16.4062H5.15625V17.3438H6.09375V16.4062Z" fill="#EBEBEB"/>
<path d="M6.09375 18.2812H5.15625V19.2188H6.09375V18.2812Z" fill="#EBEBEB"/>
<path d="M7.03125 20.625H4.21875V22.0312H7.03125V20.625Z" fill="#C38325"/>
<path d="M15.9375 15C16.7142 15 17.3438 14.3704 17.3438 13.5938C17.3438 12.8171 16.7142 12.1875 15.9375 12.1875C15.1608 12.1875 14.5312 12.8171 14.5312 13.5938C14.5312 14.3704 15.1608 15 15.9375 15Z" fill="#ACCADC"/>
<path d="M20.625 15C21.4017 15 22.0312 14.3704 22.0312 13.5938C22.0312 12.8171 21.4017 12.1875 20.625 12.1875C19.8483 12.1875 19.2188 12.8171 19.2188 13.5938C19.2188 14.3704 19.8483 15 20.625 15Z" fill="#ACCADC"/>
<path d="M25.3125 15C26.0892 15 26.7188 14.3704 26.7188 13.5938C26.7188 12.8171 26.0892 12.1875 25.3125 12.1875C24.5358 12.1875 23.9062 12.8171 23.9062 13.5938C23.9062 14.3704 24.5358 15 25.3125 15Z" fill="#ACCADC"/>
<path d="M15.9375 19.6875C16.7142 19.6875 17.3438 19.0579 17.3438 18.2812C17.3438 17.5046 16.7142 16.875 15.9375 16.875C15.1608 16.875 14.5312 17.5046 14.5312 18.2812C14.5312 19.0579 15.1608 19.6875 15.9375 19.6875Z" fill="#ACCADC"/>
<path d="M20.6247 20.1562C20.237 20.1558 19.8589 20.0355 19.5423 19.8116C19.2257 19.5878 18.9861 19.2715 18.8564 18.9062L19.7404 18.5938C19.8051 18.7766 19.9249 18.9348 20.0833 19.0467C20.2416 19.1586 20.4308 19.2187 20.6247 19.2187C20.8186 19.2187 21.0078 19.1586 21.1661 19.0467C21.3245 18.9348 21.4443 18.7766 21.509 18.5938L22.3929 18.9062C22.2632 19.2715 22.0237 19.5878 21.7071 19.8116C21.3905 20.0355 21.0124 20.1558 20.6247 20.1562Z" fill="#ACCADC"/>
<path d="M25.3125 19.6875C26.0892 19.6875 26.7188 19.0579 26.7188 18.2812C26.7188 17.5046 26.0892 16.875 25.3125 16.875C24.5358 16.875 23.9062 17.5046 23.9062 18.2812C23.9062 19.0579 24.5358 19.6875 25.3125 19.6875Z" fill="#ACCADC"/>
<path d="M15.9375 24.375C16.7142 24.375 17.3438 23.7454 17.3438 22.9688C17.3438 22.1921 16.7142 21.5625 15.9375 21.5625C15.1608 21.5625 14.5312 22.1921 14.5312 22.9688C14.5312 23.7454 15.1608 24.375 15.9375 24.375Z" fill="#ACCADC"/>
<path d="M20.625 24.375C21.4017 24.375 22.0312 23.7454 22.0312 22.9688C22.0312 22.1921 21.4017 21.5625 20.625 21.5625C19.8483 21.5625 19.2188 22.1921 19.2188 22.9688C19.2188 23.7454 19.8483 24.375 20.625 24.375Z" fill="#ACCADC"/>
<path d="M25.3125 24.375C26.0892 24.375 26.7188 23.7454 26.7188 22.9688C26.7188 22.1921 26.0892 21.5625 25.3125 21.5625C24.5358 21.5625 23.9062 22.1921 23.9062 22.9688C23.9062 23.7454 24.5358 24.375 25.3125 24.375Z" fill="#ACCADC"/>
<path d="M22.9688 9.84375H18.75V10.7812H22.9688V9.84375Z" fill="#CBCBCB"/>
<path d="M20.625 18.7499C20.5635 18.7499 20.5025 18.7378 20.4456 18.7142C20.3888 18.6907 20.3371 18.6562 20.2935 18.6126L19.356 17.6751C19.2681 17.5872 19.2187 17.468 19.2188 17.3437C19.2188 17.2193 19.2681 17.1001 19.356 17.0122C19.444 16.9243 19.5632 16.8749 19.6875 16.8749C19.8118 16.8749 19.9311 16.9243 20.019 17.0122L20.5935 17.5867L22.6086 15.1686C22.6885 15.0739 22.8025 15.0146 22.9259 15.0038C23.0493 14.9929 23.172 15.0313 23.2671 15.1106C23.3623 15.1899 23.4222 15.3036 23.4338 15.4269C23.4453 15.5502 23.4076 15.6731 23.3289 15.7687L20.9851 18.5812C20.9434 18.6313 20.8918 18.6721 20.8334 18.7011C20.7751 18.73 20.7113 18.7465 20.6462 18.7494C20.6391 18.7499 20.632 18.7499 20.625 18.7499Z" fill="#007AF6"/>
<path d="M7.03125 23.4375H6.09375V24.375H7.03125V23.4375Z" fill="#CBCBCB"/>
<path d="M8.90625 23.4375H7.96875V24.375H8.90625V23.4375Z" fill="#CBCBCB"/>
<path d="M10.7812 23.4375H9.84375V24.375H10.7812V23.4375Z" fill="#CBCBCB"/>
<path d="M7.03125 11.25H6.5625V13.125H7.03125V11.25Z" fill="#C38325"/>
</svg>
