<svg width="216" height="81" viewBox="0 0 216 81" fill="none" xmlns="http://www.w3.org/2000/svg">
<path d="M175.375 80.895C174.693 80.0263 173.881 79.2579 173.328 78.3223C169.657 71.8404 166.05 65.3251 162.346 58.8766C161.501 57.373 161.403 56.0365 162.281 54.533C166.082 47.884 169.852 41.2351 173.556 34.5193C174.401 32.9823 175.538 32.3475 177.228 32.3475C184.669 32.3809 192.11 32.3809 199.551 32.3475C201.175 32.3475 202.28 33.0157 203.06 34.419C206.829 41.1682 210.599 47.9174 214.4 54.6332C215.18 56.0031 215.213 57.206 214.433 58.5759C210.631 65.2917 206.862 72.0409 203.06 78.7901C202.638 79.5586 201.988 80.1934 201.435 80.895C192.76 80.895 184.051 80.895 175.375 80.895ZM199.811 56.7382C199.811 50.0892 194.709 44.7433 188.34 44.7433C182.167 44.7433 176.87 50.0224 176.805 56.2704C176.708 62.9862 181.907 68.4992 188.308 68.4992C194.579 68.4992 199.811 63.1533 199.811 56.7382Z" fill="white"/>
<path d="M15.1817 65.1914V78.9906C15.1817 79.9261 14.4343 80.6946 13.5245 80.6946H2.60664C1.69682 80.6946 0.949463 79.9261 0.949463 78.9906V34.2185C0.949463 33.283 1.69682 32.5145 2.60664 32.5145H13.492C14.4018 32.5145 15.1492 33.283 15.1492 34.2185V48.853C15.1492 49.7885 15.8965 50.557 16.8064 50.557H31.8834C32.7933 50.557 33.5406 49.7885 33.5406 48.853V34.2185C33.5406 33.283 34.288 32.5145 35.1978 32.5145H46.0832C46.993 32.5145 47.7403 33.283 47.7403 34.2185V78.9906C47.7403 79.9261 46.993 80.6946 46.0832 80.6946H35.1978C34.288 80.6946 33.5406 79.9261 33.5406 78.9906V65.1914C33.5406 64.2559 32.7933 63.4874 31.8834 63.4874H16.8389C15.929 63.4874 15.1817 64.2559 15.1817 65.1914Z" fill="white"/>
<path d="M101.582 33.7842V42.1706C101.582 42.8722 101.03 43.4402 100.348 43.4402H72.3055C71.6231 43.4402 71.0707 44.0082 71.0707 44.7099V49.1537C71.0707 49.8553 71.6231 50.4233 72.3055 50.4233H100.348C101.03 50.4233 101.582 50.9913 101.582 51.693V62.2178C101.582 62.9194 101.03 63.4874 100.348 63.4874H72.3055C71.6231 63.4874 71.0707 64.0554 71.0707 64.7571V68.4658C71.0707 69.1674 71.6231 69.7354 72.3055 69.7354H100.348C101.03 69.7354 101.582 70.3034 101.582 71.0051V79.2578C101.582 79.9595 101.03 80.5275 100.348 80.5275H58.9181C58.2357 80.5275 57.6833 79.9595 57.6833 79.2578V33.7842C57.6833 33.0825 58.2357 32.5145 58.9181 32.5145H100.348C101.03 32.5145 101.582 33.0825 101.582 33.7842Z" fill="white"/>
<path d="M124.848 65.1914V78.9906C124.848 79.9261 124.1 80.6946 123.191 80.6946H113.118C112.208 80.6946 111.46 79.9261 111.46 78.9906V34.2185C111.46 33.283 112.208 32.5145 113.118 32.5145H160.363C161.631 32.5145 162.443 33.9178 161.793 35.0872L150.225 55.8695C149.965 56.3372 149.933 56.9053 150.128 57.4064L161.338 78.3223C161.793 79.4583 161.013 80.6946 159.811 80.6946H148.048C147.398 80.6946 146.781 80.2936 146.521 79.6588L137.715 64.5232C137.455 63.8884 136.838 63.4874 136.188 63.4874H126.505C125.595 63.4874 124.848 64.2559 124.848 65.1914ZM124.848 44.3424V48.7861C124.848 49.7217 125.595 50.4902 126.505 50.4902H137.228C138.008 50.4902 138.658 49.9556 138.853 49.1871L139.892 44.7433C140.152 43.6741 139.34 42.6383 138.268 42.6383H126.505C125.595 42.6383 124.848 43.4068 124.848 44.3424Z" fill="white"/>
<path d="M21.1605 0.539307H1.72931C1.30689 0.539307 0.949463 0.94025 0.949463 1.40802V23.6938C0.949463 24.1616 1.2744 24.5625 1.69682 24.5625H6.57087C6.99328 24.5625 7.31822 24.195 7.31822 23.6938V17.0114C7.31822 16.5436 7.64316 16.1427 8.06558 16.1427H17.4238C17.6837 16.1427 17.9437 15.9756 18.0736 15.7083L21.7779 8.52476C21.8429 8.39111 21.8754 8.25747 21.8754 8.09041V1.40802C21.9404 0.94025 21.5829 0.539307 21.1605 0.539307ZM7.35072 9.49371V6.72052C7.35072 6.25275 7.67565 5.85181 8.09807 5.85181H15.1167C15.5391 5.85181 15.8641 6.21934 15.8641 6.72052V9.49371C15.8641 9.96148 15.5391 10.3624 15.1167 10.3624H8.13056C7.70815 10.3624 7.35072 9.96148 7.35072 9.49371Z" fill="#C9CC2C"/>
<path d="M44.9459 12.9351C44.8484 12.7013 44.8484 12.4005 44.9784 12.1667L48.0328 7.22169C48.0978 7.08805 48.1628 6.9544 48.1628 6.82075V1.27437C48.1628 0.873426 47.8379 0.539307 47.4479 0.539307H26.9444C26.4895 0.539307 26.1321 0.906838 26.1321 1.37461V23.6604C26.1321 24.1281 26.4895 24.4957 26.9444 24.4957H31.8185C32.2734 24.4957 32.6308 24.1281 32.6308 23.6604V16.8109C32.6308 16.3432 32.9882 15.9756 33.4432 15.9756H38.1547C38.4797 15.9756 38.7721 16.1761 38.9021 16.4768L41.9565 23.9945C42.0865 24.2952 42.3789 24.4957 42.7039 24.4957H48.4227C49.0076 24.4957 49.3975 23.8608 49.1701 23.2928L44.9459 12.9351ZM39.9419 6.31957L39.422 8.85888C39.3245 9.22641 38.9996 9.49371 38.6421 9.49371H33.4432C32.9882 9.49371 32.6308 9.12617 32.6308 8.65841V6.1191C32.6308 5.65133 32.9882 5.2838 33.4432 5.2838H39.162C39.6819 5.25039 40.0719 5.78498 39.9419 6.31957Z" fill="#C9CC2C"/>
<path d="M122.768 1.20754V5.38403C122.768 5.75157 122.508 6.01886 122.183 6.01886H109.381C109.056 6.01886 108.796 6.31957 108.796 6.65369V8.85888C108.796 9.22641 109.056 9.4937 109.381 9.4937H122.183C122.508 9.4937 122.768 9.79441 122.768 10.1285V15.3742C122.768 15.7417 122.508 16.009 122.183 16.009H109.381C109.056 16.009 108.796 16.3097 108.796 16.6439V18.4815C108.796 18.8491 109.056 19.1163 109.381 19.1163H122.183C122.508 19.1163 122.768 19.4171 122.768 19.7512V23.8608C122.768 24.2284 122.508 24.4957 122.183 24.4957H103.239C102.914 24.4957 102.655 24.195 102.655 23.8608V1.14072C102.655 0.773185 102.914 0.50589 103.239 0.50589H122.183C122.508 0.539302 122.768 0.84001 122.768 1.20754Z" fill="#C9CC2C"/>
<path d="M73.1829 0.539307H54.8565C54.0766 0.539307 53.4592 1.0739 53.4592 1.70872V23.3263C53.4592 23.9945 54.0766 24.4957 54.8565 24.4957H73.1829C73.9627 24.4957 74.5801 23.9611 74.5801 23.3263V1.74214C74.6126 1.0739 73.9627 0.539307 73.1829 0.539307ZM66.4242 17.8133C66.4242 18.1808 66.0668 18.4815 65.6444 18.4815H62.395C61.9726 18.4815 61.6151 18.1808 61.6151 17.8133V7.28852C61.6151 6.92099 61.9726 6.62028 62.395 6.62028H65.6444C66.0668 6.62028 66.4242 6.92099 66.4242 7.28852V17.8133Z" fill="#C9CC2C"/>
<path d="M128.195 0.539307H146.879C147.366 0.539307 147.788 0.906838 147.788 1.34119V6.55346C147.788 6.98781 147.399 7.35534 146.879 7.35534H135.701C135.213 7.35534 134.791 7.72287 134.791 8.15723V16.978C134.791 17.4123 135.181 17.7799 135.701 17.7799H146.879C147.366 17.7799 147.788 18.1474 147.788 18.5818V23.794C147.788 24.2284 147.399 24.5959 146.879 24.5959H128.195C127.707 24.5959 127.285 24.2284 127.285 23.794V1.34119C127.317 0.906838 127.707 0.539307 128.195 0.539307Z" fill="#C9CC2C"/>
<path d="M166.797 8.22405V23.7272C166.797 24.1616 166.472 24.5291 166.05 24.5291H160.168C159.746 24.5291 159.421 24.1616 159.421 23.7272V8.22405C159.421 7.7897 159.096 7.42217 158.674 7.42217H152.792C152.37 7.42217 152.045 7.05464 152.045 6.62028V1.34119C152.045 0.906838 152.37 0.539307 152.792 0.539307H173.458C173.881 0.539307 174.206 0.906838 174.206 1.34119V6.58687C174.206 7.02122 173.881 7.38876 173.458 7.38876H167.577C167.122 7.42217 166.797 7.75629 166.797 8.22405Z" fill="#C9CC2C"/>
<path d="M97.2606 0.639557H92.0941C91.4442 0.639557 90.8918 1.20756 90.8918 1.90921V17.7465C90.8918 18.4481 90.3719 19.0161 89.6896 19.0161H86.0178C85.2379 19.0161 84.5881 18.3479 84.5881 17.546V11.1643C84.5881 10.6966 84.2306 10.329 83.7757 10.329H79.6165C79.1616 10.329 78.8042 10.6966 78.8042 11.1643V19.9851H78.8367C78.8042 20.0853 78.8042 20.1855 78.8042 20.3192V23.2929C78.8042 23.9945 79.3241 24.5625 80.0065 24.5625H97.2606C97.9105 24.5625 98.4629 23.9945 98.4629 23.2929V1.90921C98.4629 1.20756 97.9105 0.639557 97.2606 0.639557Z" fill="#C9CC2C"/>
</svg>
