<svg width="109" height="41" viewBox="0 0 109 41" fill="none" xmlns="http://www.w3.org/2000/svg">
<path d="M88.9968 40.9348C88.6525 40.4954 88.2426 40.1066 87.9639 39.6334C86.1112 36.3543 84.2912 33.0583 82.4221 29.7961C81.9958 29.0355 81.9466 28.3594 82.3893 27.5988C84.3076 24.2352 86.2095 20.8716 88.0787 17.4742C88.505 16.6966 89.0788 16.3755 89.9314 16.3755C93.6861 16.3924 97.4407 16.3924 101.195 16.3755C102.015 16.3755 102.573 16.7135 102.966 17.4234C104.868 20.8378 106.77 24.2521 108.688 27.6495C109.082 28.3425 109.098 28.951 108.705 29.644C106.786 33.0414 104.884 36.4557 102.966 39.87C102.753 40.2587 102.425 40.5799 102.146 40.9348C97.7686 40.9348 93.3745 40.9348 88.9968 40.9348ZM101.327 28.7143C101.327 25.3507 98.7524 22.6463 95.5388 22.6463C92.4236 22.6463 89.751 25.3169 89.7183 28.4777C89.6691 31.8751 92.2924 34.664 95.5224 34.664C98.6868 34.664 101.327 31.9596 101.327 28.7143Z" fill="black"/>
<path d="M8.16528 32.9906V39.9714C8.16528 40.4446 7.78818 40.8334 7.32909 40.8334H1.82008C1.36099 40.8334 0.983887 40.4446 0.983887 39.9714V17.322C0.983887 16.8487 1.36099 16.46 1.82008 16.46H7.3127C7.77178 16.46 8.14889 16.8487 8.14889 17.322V24.7253C8.14889 25.1986 8.52599 25.5873 8.98508 25.5873H16.5928C17.0519 25.5873 17.429 25.1986 17.429 24.7253V17.322C17.429 16.8487 17.8061 16.46 18.2652 16.46H23.7578C24.2169 16.46 24.594 16.8487 24.594 17.322V39.9714C24.594 40.4446 24.2169 40.8334 23.7578 40.8334H18.2652C17.8061 40.8334 17.429 40.4446 17.429 39.9714V32.9906C17.429 32.5174 17.0519 32.1286 16.5928 32.1286H9.00148C8.54239 32.1286 8.16528 32.5174 8.16528 32.9906Z" fill="black"/>
<path d="M51.7622 17.1023V21.3448C51.7622 21.6997 51.4834 21.9871 51.1391 21.9871H36.9895C36.6452 21.9871 36.3664 22.2744 36.3664 22.6294V24.8774C36.3664 25.2324 36.6452 25.5197 36.9895 25.5197H51.1391C51.4834 25.5197 51.7622 25.8071 51.7622 26.162V31.4863C51.7622 31.8412 51.4834 32.1286 51.1391 32.1286H36.9895C36.6452 32.1286 36.3664 32.4159 36.3664 32.7709V34.6471C36.3664 35.002 36.6452 35.2894 36.9895 35.2894H51.1391C51.4834 35.2894 51.7622 35.5767 51.7622 35.9317V40.1066C51.7622 40.4615 51.4834 40.7489 51.1391 40.7489H30.2344C29.8901 40.7489 29.6113 40.4615 29.6113 40.1066V17.1023C29.6113 16.7473 29.8901 16.46 30.2344 16.46H51.1391C51.4834 16.46 51.7622 16.7473 51.7622 17.1023Z" fill="black"/>
<path d="M63.5012 32.9906V39.9714C63.5012 40.4446 63.1241 40.8334 62.665 40.8334H57.5823C57.1232 40.8334 56.7461 40.4446 56.7461 39.9714V17.322C56.7461 16.8487 57.1232 16.46 57.5823 16.46H81.4219C82.0613 16.46 82.4712 17.1699 82.1433 17.7615L76.3064 28.2748C76.1752 28.5115 76.1588 28.7988 76.2572 29.0523L81.9138 39.6333C82.1433 40.208 81.7498 40.8334 81.1432 40.8334H75.2079C74.8799 40.8334 74.5684 40.6306 74.4373 40.3094L69.994 32.6526C69.8628 32.3314 69.5513 32.1286 69.2234 32.1286H64.3374C63.8783 32.1286 63.5012 32.5174 63.5012 32.9906ZM63.5012 22.4435V24.6915C63.5012 25.1648 63.8783 25.5535 64.3374 25.5535H69.748C70.1415 25.5535 70.4694 25.2831 70.5678 24.8943L71.0925 22.6463C71.2237 22.1054 70.8138 21.5814 70.2727 21.5814H64.3374C63.8783 21.5814 63.5012 21.9702 63.5012 22.4435Z" fill="black"/>
<path d="M11.1821 0.284668H1.37739C1.16424 0.284668 0.983887 0.487498 0.983887 0.724133V11.9981C0.983887 12.2347 1.14785 12.4376 1.36099 12.4376H3.82038C4.03352 12.4376 4.19748 12.2516 4.19748 11.9981V8.61761C4.19748 8.38097 4.36144 8.17814 4.57459 8.17814H9.2966C9.42777 8.17814 9.55894 8.09363 9.62452 7.95841L11.4937 4.32437C11.5264 4.25676 11.5428 4.18915 11.5428 4.10464V0.724133C11.5756 0.487498 11.3953 0.284668 11.1821 0.284668ZM4.21388 4.81454V3.41163C4.21388 3.175 4.37784 2.97217 4.59098 2.97217H8.13249C8.34564 2.97217 8.5096 3.1581 8.5096 3.41163V4.81454C8.5096 5.05118 8.34564 5.25401 8.13249 5.25401H4.60738C4.39423 5.25401 4.21388 5.05118 4.21388 4.81454Z" fill="#CC2C49"/>
<path d="M23.1841 6.5555C23.1349 6.43718 23.1349 6.28506 23.2005 6.16674L24.7417 3.66517C24.7745 3.59756 24.8073 3.52995 24.8073 3.46234V0.656523C24.8073 0.453693 24.6434 0.284668 24.4466 0.284668H14.1008C13.8713 0.284668 13.6909 0.470596 13.6909 0.707231V11.9812C13.6909 12.2178 13.8713 12.4038 14.1008 12.4038H16.5602C16.7897 12.4038 16.9701 12.2178 16.9701 11.9812V8.51619C16.9701 8.27956 17.1505 8.09363 17.38 8.09363H19.7574C19.9214 8.09363 20.0689 8.19504 20.1345 8.34717L21.6757 12.1502C21.7413 12.3024 21.8889 12.4038 22.0528 12.4038H24.9385C25.2336 12.4038 25.4304 12.0826 25.3156 11.7953L23.1841 6.5555ZM20.6592 3.2088L20.3968 4.49339C20.3476 4.67932 20.1837 4.81454 20.0033 4.81454H17.38C17.1505 4.81454 16.9701 4.62861 16.9701 4.39198V3.10739C16.9701 2.87075 17.1505 2.68482 17.38 2.68482H20.2657C20.528 2.66792 20.7248 2.93836 20.6592 3.2088Z" fill="#CC2C49"/>
<path d="M62.4523 0.622531V2.73535C62.4523 2.92127 62.3211 3.05649 62.1572 3.05649H55.6972C55.5332 3.05649 55.402 3.20862 55.402 3.37764V4.49321C55.402 4.67913 55.5332 4.81435 55.6972 4.81435H62.1572C62.3211 4.81435 62.4523 4.96648 62.4523 5.1355V7.7892C62.4523 7.97513 62.3211 8.11035 62.1572 8.11035H55.6972C55.5332 8.11035 55.402 8.26247 55.402 8.43149V9.36113C55.402 9.54706 55.5332 9.68228 55.6972 9.68228H62.1572C62.3211 9.68228 62.4523 9.8344 62.4523 10.0034V12.0824C62.4523 12.2684 62.3211 12.4036 62.1572 12.4036H52.5983C52.4344 12.4036 52.3032 12.2515 52.3032 12.0824V0.588726C52.3032 0.402798 52.4344 0.267578 52.5983 0.267578H62.1572C62.3211 0.284481 62.4523 0.436603 62.4523 0.622531Z" fill="#CC2C49"/>
<path d="M37.4318 0.284668H28.1845C27.791 0.284668 27.4795 0.555108 27.4795 0.876256V11.8122C27.4795 12.1502 27.791 12.4038 28.1845 12.4038H37.4318C37.8253 12.4038 38.1368 12.1333 38.1368 11.8122V0.893158C38.1532 0.555108 37.8253 0.284668 37.4318 0.284668ZM34.0215 9.02327C34.0215 9.20919 33.8411 9.36132 33.628 9.36132H31.9884C31.7752 9.36132 31.5949 9.20919 31.5949 9.02327V3.69897C31.5949 3.51305 31.7752 3.36092 31.9884 3.36092H33.628C33.8411 3.36092 34.0215 3.51305 34.0215 3.69897V9.02327Z" fill="#CC2C49"/>
<path d="M65.19 0.284668H74.6177C74.8636 0.284668 75.0768 0.470596 75.0768 0.690328V3.32712C75.0768 3.54685 74.88 3.73278 74.6177 3.73278H68.9775C68.7316 3.73278 68.5184 3.91871 68.5184 4.13844V8.60071C68.5184 8.82044 68.7152 9.00637 68.9775 9.00637H74.6177C74.8636 9.00637 75.0768 9.19229 75.0768 9.41203V12.0488C75.0768 12.2685 74.88 12.4545 74.6177 12.4545H65.19C64.9441 12.4545 64.731 12.2685 64.731 12.0488V0.690328C64.7474 0.470596 64.9441 0.284668 65.19 0.284668Z" fill="#CC2C49"/>
<path d="M84.6684 4.17225V12.015C84.6684 12.2347 84.5044 12.4207 84.2912 12.4207H81.3236C81.1104 12.4207 80.9465 12.2347 80.9465 12.015V4.17225C80.9465 3.95251 80.7825 3.76659 80.5694 3.76659H77.6017C77.3886 3.76659 77.2246 3.58066 77.2246 3.36092V0.690328C77.2246 0.470596 77.3886 0.284668 77.6017 0.284668H88.0295C88.2427 0.284668 88.4066 0.470596 88.4066 0.690328V3.34402C88.4066 3.56376 88.2427 3.74968 88.0295 3.74968H85.0618C84.8323 3.76659 84.6684 3.93561 84.6684 4.17225Z" fill="#CC2C49"/>
<path d="M49.5814 0.334961H46.9745C46.6465 0.334961 46.3678 0.622304 46.3678 0.977256V8.98905C46.3678 9.344 46.1055 9.63134 45.7612 9.63134H43.9084C43.5149 9.63134 43.187 9.29329 43.187 8.88763V5.65925C43.187 5.42262 43.0067 5.23669 42.7771 5.23669H40.6785C40.4489 5.23669 40.2686 5.42262 40.2686 5.65925V10.1215H40.2849C40.2686 10.1722 40.2686 10.2229 40.2686 10.2905V11.7949C40.2686 12.1498 40.5309 12.4372 40.8752 12.4372H49.5814C49.9093 12.4372 50.1881 12.1498 50.1881 11.7949V0.977256C50.1881 0.622304 49.9093 0.334961 49.5814 0.334961Z" fill="#CC2C49"/>
</svg>
