<svg width="158" height="28" viewBox="0 0 158 28" fill="none" xmlns="http://www.w3.org/2000/svg">
<g clip-path="url(#clip0_5982_24852)">
<path d="M9.55411 9.81857L8.78209 9.05442C8.6102 8.88465 8.39609 8.79977 8.13882 8.79977H7.0772C6.88401 8.79977 6.70167 8.84249 6.53052 8.927L2.76688 10.6465V19.7528H8.13882C8.39609 19.7528 8.6102 19.6683 8.78209 19.4982L9.55411 18.734C9.72563 18.5643 9.81175 18.3629 9.81175 18.1291V10.4235C9.81175 10.1905 9.72563 9.98871 9.55411 9.81857ZM6.94847 6.31611H8.65336C9.38221 6.31611 10.0152 6.57076 10.5513 7.08026L11.8382 8.35408C12.3529 8.88465 12.6102 9.51121 12.6102 10.2326V18.2882C12.6102 19.0316 12.3529 19.6683 11.8382 20.1985L10.5513 21.4402C10.0369 21.9713 9.40407 22.2365 8.65336 22.2365H2.76688V27.1716L1.99486 27.9678H0V6.31611H2.44496L2.73996 7.8886L5.33999 6.66582C5.85492 6.43299 6.39076 6.31611 6.94847 6.31611Z" fill="#EFC41A"/>
<path d="M22.8088 6.31693H23.9978V8.80058H22.9364C22.6791 8.80058 22.4749 8.85384 22.3251 8.95981L18.6582 11.6343V22.2373H15.8594V6.31693H18.1754L18.5702 8.65263L21.137 6.70158C21.48 6.44545 22.0368 6.31693 22.8088 6.31693Z" fill="#EFC41A"/>
<path d="M35.836 9.81938L35.064 9.05524C34.8917 8.88547 34.678 8.80058 34.4203 8.80058H30.496C30.2387 8.80058 30.0238 8.88547 29.8523 9.05524L29.0803 9.81938C28.9086 9.98952 28.823 10.1913 28.823 10.4243V18.1299C28.823 18.3637 28.9086 18.5651 29.0803 18.7349L29.8523 19.499C30.0238 19.6691 30.2387 19.7536 30.496 19.7536H34.4203C34.678 19.7536 34.8917 19.6691 35.064 19.499L35.836 18.7349C36.0071 18.5651 36.0931 18.3637 36.0931 18.1299V10.4243C36.0931 10.1913 36.0071 9.98952 35.836 9.81938ZM29.9811 6.31693H34.935C35.6637 6.31693 36.2967 6.58249 36.8331 7.11288L38.1197 8.35489C38.6344 8.88546 38.8919 9.51202 38.8919 10.2334V18.3208C38.8919 19.0426 38.6344 19.6691 38.1197 20.1993L36.8331 21.441C36.2967 21.9721 35.6637 22.2373 34.935 22.2373H29.9811C29.2518 22.2373 28.619 21.9721 28.0832 21.441L26.7966 20.1993C26.2819 19.6691 26.0244 19.0426 26.0244 18.3208V10.2334C26.0244 9.51202 26.2819 8.88546 26.7966 8.35489L28.0832 7.11288C28.619 6.58249 29.2518 6.31693 29.9811 6.31693Z" fill="#EFC41A"/>
<path d="M42.3009 0.776468H45.5177V3.96048H42.3009V0.776468ZM42.4941 6.31653H45.2929V24.0518C45.2929 24.7522 45.0459 25.378 44.5529 25.9304L43.234 27.2358C42.6759 27.7453 42.0437 28 41.3361 28H39.6953V25.5163H40.8214C41.0572 25.5163 41.2606 25.4315 41.4325 25.2617L42.2369 24.4655C42.408 24.2954 42.4941 24.094 42.4941 23.8606V6.31653Z" fill="#EFC41A"/>
<path d="M58.0309 9.81938L57.2589 9.05524C57.0868 8.88547 56.8729 8.80058 56.6154 8.80058H53.1091C52.8518 8.80058 52.6373 8.88547 52.4658 9.05524L51.6938 9.81938C51.5006 9.98952 51.4042 10.1913 51.4042 10.4243V12.876H58.3205V10.4243C58.3205 10.1913 58.2238 9.98952 58.0309 9.81938ZM52.5945 6.31693H57.1302C57.8589 6.31693 58.4917 6.58249 59.0283 7.11288L60.315 8.35489C60.8294 8.88546 61.087 9.51202 61.087 10.2334V14.5637L60.2827 15.3278H51.4042V18.1299C51.4042 18.3637 51.5006 18.5651 51.6938 18.7349L52.4658 19.499C52.6373 19.6691 52.8518 19.7536 53.1091 19.7536H56.6154C56.8729 19.7536 57.0868 19.6691 57.2589 19.499L58.2882 18.48L60.1538 20.3269L59.0283 21.441C58.4917 21.9721 57.8589 22.2373 57.1302 22.2373H52.5945C51.8436 22.2373 51.2114 21.9721 50.6966 21.441L49.4097 20.1993C48.895 19.6691 48.6377 19.0426 48.6377 18.3208V10.2334C48.6377 9.51202 48.895 8.88546 49.4097 8.35489L50.6966 7.11288C51.2114 6.58249 51.8436 6.31693 52.5945 6.31693Z" fill="#EFC41A"/>
<path d="M67.7134 6.31693H72.6674C73.3961 6.31693 74.0186 6.58249 74.533 7.11288L75.659 8.22729L73.7933 10.0742L72.7638 9.05524C72.6136 8.88547 72.4101 8.80058 72.1527 8.80058H68.2282C67.9709 8.80058 67.756 8.88547 67.5847 9.05524L66.7806 9.81938C66.6089 9.98952 66.5233 10.1913 66.5233 10.4243V18.1299C66.5233 18.3637 66.6089 18.5651 66.7806 18.7349L67.5847 19.499C67.756 19.6691 67.9709 19.7536 68.2282 19.7536H72.1527C72.4101 19.7536 72.6136 19.6691 72.7638 19.499L73.8254 18.48L75.691 20.3269L74.533 21.441C74.0186 21.9721 73.3961 22.2373 72.6674 22.2373H67.7134C66.9623 22.2373 66.3301 21.9721 65.8154 21.441L64.529 20.1993C64.0141 19.6691 63.7566 19.0426 63.7566 18.3208V10.2334C63.7566 9.51202 64.0141 8.88546 64.529 8.35489L65.8154 7.11288C66.3301 6.58249 66.9623 6.31693 67.7134 6.31693Z" fill="#EFC41A"/>
<path d="M79.7121 2.65542H82.4786V6.31693H85.9849V8.80058H82.4786V18.1299C82.4786 18.3637 82.5643 18.5651 82.736 18.7349L83.5402 19.5306C83.7117 19.6797 83.9262 19.7536 84.1836 19.7536H85.9849V21.4732L85.181 22.2373H83.6689C82.9397 22.2373 82.3067 21.9827 81.771 21.4732L80.4841 20.1993C79.9697 19.6898 79.7121 19.064 79.7121 18.3208V8.80058H77.2354V7.08107L78.0074 6.31693H79.7121V2.65542Z" fill="#EFC41A"/>
<path d="M101.954 2.51081H103.72V22.2373H101.072V13.2475H91.846V22.2373H89.2266V3.35632L90.0823 2.51081H91.846V10.8522H101.072V3.35632L101.954 2.51081Z" fill="white"/>
<path d="M111.718 2.51081H119.292L120.146 3.35632V4.90625H112.346C112.118 4.90625 111.927 4.9817 111.776 5.1315L111.064 5.8361C110.913 5.98664 110.836 6.16528 110.836 6.37167V11.1624H118.581V13.5859H110.836V18.3766C110.836 18.5836 110.913 18.7617 111.064 18.912L111.776 19.6166C111.927 19.7671 112.118 19.8421 112.346 19.8421H120.146V21.3918L119.292 22.2373H111.718C111.055 22.2373 110.494 22.0117 110.038 21.561L108.901 20.4337C108.445 19.9643 108.217 19.4008 108.217 18.7426V6.00531C108.217 5.34769 108.445 4.78401 108.901 4.31428L110.038 3.18692C110.494 2.73624 111.055 2.51081 111.718 2.51081Z" fill="white"/>
<path d="M133.698 5.8361L132.986 5.1315C132.835 4.9817 132.644 4.90625 132.418 4.90625H126.381V11.1905H132.418C132.644 11.1905 132.835 11.1154 132.986 10.9649L133.698 10.2606C133.849 10.1105 133.926 9.93182 133.926 9.72488V6.37167C133.926 6.16528 133.849 5.98664 133.698 5.8361ZM124.616 2.51081H133.044C133.707 2.51081 134.268 2.73624 134.723 3.18692L135.861 4.31428C136.336 4.78401 136.573 5.34769 136.573 6.00531V10.1197C136.573 10.7583 136.336 11.3127 135.861 11.7825L134.723 12.9093C134.533 13.0975 134.333 13.2292 134.126 13.3041L133.636 13.3344L137.371 21.1382L136.261 22.2373H135.03L130.88 13.5576H126.381V22.2373H123.762V3.35632L124.616 2.51081Z" fill="white"/>
<path d="M153.031 10.9473V17.1931C153.031 17.4 152.945 17.5781 152.775 17.7284L150.867 19.6166C150.714 19.7671 150.525 19.8421 150.295 19.8421H145.783C145.554 19.8421 145.363 19.7732 145.212 19.6347L143.304 17.7469C143.145 17.5964 143.067 17.417 143.067 17.2097V10.9473H140.447V17.559C140.447 18.217 140.675 18.7711 141.131 19.2218L143.493 21.561C143.967 22.0117 144.526 22.2373 145.171 22.2373H150.908C151.553 22.2373 152.112 22.0056 152.586 21.5423L154.948 19.2035C155.417 18.7541 155.65 18.2013 155.65 17.5454V10.9473H153.031Z" fill="white"/>
<path d="M150.907 7.45801H156.247V4.90592C156.247 4.25588 155.961 3.63173 155.451 3.2234C154.164 2.19443 152.096 1.22186 150.907 1.18636V7.45801Z" fill="#EFC41A"/>
<path d="M150.079 0.308471H148.426V2.72223H147.598V0.308471H145.945V7.45801H150.079V0.308471Z" fill="#EFC41A"/>
<path d="M157.013 8.28071H156.247V8.27812H139.867C139.867 8.27904 139.867 8.27978 139.867 8.28071H139.086C138.765 8.28071 138.591 8.47932 138.591 8.84808V10.3801C138.591 10.7488 138.765 10.9473 139.086 10.9473H157.013C157.334 10.9473 157.508 10.7488 157.508 10.3801V8.84808C157.508 8.47932 157.334 8.28071 157.013 8.28071Z" fill="#EFC41A"/>
<path d="M145.117 7.45801V1.18524C143.953 1.21039 142.299 2.10807 141.008 3.09987C140.343 3.61158 139.943 4.07169 139.928 4.90592C139.912 5.78991 139.885 6.57292 139.874 7.45801H145.117Z" fill="#EFC41A"/>
</g>
<defs>
<clipPath id="clip0_5982_24852">
<rect width="157.6" height="28" fill="white"/>
</clipPath>
</defs>
</svg>
