<svg width="14" height="14" viewBox="0 0 14 14" fill="none" xmlns="http://www.w3.org/2000/svg">
<path d="M5.33526 1.83815L4.87102 2.02384L4.87102 2.02384L5.33526 1.83815ZM6.0381 3.59525L6.50234 3.40956L6.50234 3.40956L6.0381 3.59525ZM5.82443 4.94402L6.20854 5.26411L6.20854 5.26411L5.82443 4.94402ZM5.44617 5.39793L5.83028 5.71803L5.83028 5.71803L5.44617 5.39793ZM5.52765 7.19432L5.1741 7.54787L5.1741 7.54787L5.52765 7.19432ZM6.80568 8.47235L7.15923 8.11879L7.15923 8.11879L6.80568 8.47235ZM8.60207 8.55383L8.28198 8.16972L8.28198 8.16972L8.60207 8.55383ZM9.05598 8.17557L9.37607 8.55968L9.37607 8.55968L9.05598 8.17557ZM10.4047 7.9619L10.2191 8.42614L10.2191 8.42614L10.4047 7.9619ZM12.1619 8.66474L12.3475 8.2005L12.3475 8.2005L12.1619 8.66474ZM2.26316 1.5H4.09729V0.5H2.26316V1.5ZM4.87102 2.02384L5.57386 3.78095L6.50234 3.40956L5.7995 1.65245L4.87102 2.02384ZM5.44032 4.62393L5.06206 5.07784L5.83028 5.71803L6.20854 5.26411L5.44032 4.62393ZM5.1741 7.54787L6.45213 8.8259L7.15923 8.11879L5.88121 6.84077L5.1741 7.54787ZM8.92216 8.93794L9.37607 8.55968L8.73589 7.79146L8.28198 8.16972L8.92216 8.93794ZM10.2191 8.42614L11.9762 9.12898L12.3475 8.2005L10.5904 7.49766L10.2191 8.42614ZM12.5 9.90271V11.7368H13.5V9.90271H12.5ZM11.7368 12.5C6.08319 12.5 1.5 7.91681 1.5 2.26316H0.5C0.5 8.46909 5.53091 13.5 11.7368 13.5V12.5ZM12.5 11.7368C12.5 12.1583 12.1583 12.5 11.7368 12.5V13.5C12.7106 13.5 13.5 12.7106 13.5 11.7368H12.5ZM11.9762 9.12898C12.2925 9.25553 12.5 9.56196 12.5 9.90271H13.5C13.5 9.15305 13.0436 8.47892 12.3475 8.2005L11.9762 9.12898ZM9.37607 8.55968C9.61122 8.36373 9.93486 8.31246 10.2191 8.42614L10.5904 7.49766C9.96521 7.24757 9.2532 7.36037 8.73589 7.79146L9.37607 8.55968ZM6.45213 8.8259C7.12261 9.49638 8.19373 9.54497 8.92216 8.93794L8.28198 8.16972C7.95087 8.44564 7.464 8.42356 7.15923 8.11879L6.45213 8.8259ZM5.06206 5.07784C4.45503 5.80627 4.50362 6.87739 5.1741 7.54787L5.88121 6.84077C5.57644 6.536 5.55436 6.04913 5.83028 5.71803L5.06206 5.07784ZM5.57386 3.78095C5.68754 4.06514 5.63627 4.38879 5.44032 4.62393L6.20854 5.26411C6.63963 4.7468 6.75243 4.03479 6.50234 3.40956L5.57386 3.78095ZM4.09729 1.5C4.43804 1.5 4.74447 1.70746 4.87102 2.02384L5.7995 1.65245C5.52108 0.95641 4.84695 0.5 4.09729 0.5V1.5ZM2.26316 0.5C1.28939 0.5 0.5 1.28939 0.5 2.26316H1.5C1.5 1.84168 1.84168 1.5 2.26316 1.5V0.5Z" fill="black"/>
</svg>
