<svg width="56" height="32" viewBox="0 0 56 32" fill="none" xmlns="http://www.w3.org/2000/svg">
<path d="M35.5445 18.454C35.3275 18.454 35.1194 18.5402 34.966 18.6936C34.8126 18.847 34.7264 19.0551 34.7264 19.2721V23.3628H21.6363V19.2721C21.6363 19.0551 21.5501 18.847 21.3966 18.6936C21.2432 18.5402 21.0351 18.454 20.8181 18.454C20.6012 18.454 20.3931 18.5402 20.2396 18.6936C20.0862 18.847 20 19.0551 20 19.2721V23.4773C20.0074 23.6847 20.0556 23.8886 20.1418 24.0774C20.2281 24.2662 20.3507 24.4361 20.5027 24.5774C20.6546 24.7187 20.833 24.8287 21.0275 24.9011C21.222 24.9734 21.4289 25.0067 21.6363 24.9991H34.7264C34.9338 25.0067 35.1406 24.9734 35.3352 24.9011C35.5297 24.8287 35.708 24.7187 35.86 24.5774C36.0119 24.4361 36.1346 24.2662 36.2208 24.0774C36.3071 23.8886 36.3553 23.6847 36.3627 23.4773V19.2721C36.3627 19.0551 36.2765 18.847 36.123 18.6936C35.9696 18.5402 35.7615 18.454 35.5445 18.454Z" fill="black"/>
<path d="M27.5839 19.8283C27.648 19.8866 27.7195 19.9361 27.7966 19.9756C27.9133 20.0451 28.0455 20.0845 28.1811 20.0901C28.2881 20.0888 28.3937 20.0666 28.492 20.0247L28.5902 19.9674C28.6423 19.9395 28.6916 19.9066 28.7375 19.8692L32.8281 15.4677C32.9017 15.3892 32.9592 15.2971 32.9971 15.1965C33.0351 15.0958 33.0529 14.9887 33.0495 14.8812C33.0461 14.7737 33.0215 14.668 32.9772 14.5699C32.9329 14.4719 32.8698 14.3836 32.7913 14.31C32.7129 14.2364 32.6207 14.179 32.5201 14.141C32.4195 14.103 32.3124 14.0852 32.2049 14.0887C32.0974 14.0921 31.9916 14.1166 31.8936 14.1609C31.7956 14.2052 31.7073 14.2684 31.6337 14.3468L28.9993 17.1858V7.81813C28.9993 7.60115 28.9131 7.39306 28.7597 7.23963C28.6062 7.0862 28.3981 7 28.1811 7C27.9642 7 27.7561 7.0862 27.6026 7.23963C27.4492 7.39306 27.363 7.60115 27.363 7.81813V17.1858L24.6877 14.3059C24.6141 14.2275 24.5258 14.1643 24.4278 14.12C24.3298 14.0757 24.224 14.0512 24.1165 14.0478C24.009 14.0443 23.9019 14.0621 23.8013 14.1001C23.7007 14.1381 23.6085 14.1955 23.5301 14.2691C23.4516 14.3427 23.3885 14.431 23.3442 14.529C23.2999 14.627 23.2753 14.7328 23.2719 14.8403C23.2685 14.9478 23.2863 15.0549 23.3242 15.1556C23.3622 15.2562 23.4197 15.3483 23.4932 15.4268L27.5839 19.8283Z" fill="black"/>
<rect x="0.5" y="0.5" width="55" height="31" rx="15.5" stroke="black"/>
</svg>
