<svg width="42" height="42" viewBox="0 0 32 32" fill="none" xmlns="http://www.w3.org/2000/svg">
<path fill-rule="evenodd" clip-rule="evenodd" d="M5.80535 0.567325C5.43269 0.680598 5.10147 0.886277 4.83342 1.17092C4.41112 1.61926 4.27601 1.96792 4.23532 2.71434L4.19814 3.39499L3.84361 3.44807C3.30558 3.52871 2.34736 4.02479 1.86582 4.47204C1.33782 4.96245 0.962152 5.53483 0.699534 6.24902L0.5 6.7916V17.5597V28.3277L0.688337 28.8218C1.17739 30.1046 2.18116 31.0763 3.46626 31.5112C3.90619 31.6601 4.44455 31.6667 16.0833 31.6667C27.7221 31.6667 28.2605 31.6601 28.7004 31.5112C29.9855 31.0763 30.9893 30.1046 31.4783 28.8218L31.6667 28.3277V17.5597V6.7916L31.4671 6.24902C30.9426 4.82246 29.7714 3.75843 28.4122 3.4737L27.9701 3.38105L27.9277 2.70207C27.8813 1.95891 27.7453 1.60849 27.3332 1.17067C26.322 0.0962013 24.5617 0.354718 23.9034 1.67427C23.7299 2.02202 23.687 2.22911 23.687 2.71777V3.32746H22.559H21.431V2.71777C21.431 2.22911 21.388 2.02202 21.2146 1.67427C20.5563 0.354718 18.7959 0.0962013 17.7847 1.17067C17.3717 1.60957 17.2286 1.9706 17.1865 2.68054L17.1481 3.32746H16.0833H15.0186L14.9801 2.68054C14.938 1.9706 14.795 1.60957 14.382 1.17067C13.3707 0.0962013 11.6104 0.354718 10.9521 1.67427C10.7786 2.02202 10.7357 2.22911 10.7357 2.71777V3.32746H9.60769H8.47967V2.71777C8.47967 1.69338 7.96087 0.920167 7.0699 0.616908C6.67359 0.482015 6.15328 0.461647 5.80535 0.567325ZM6.80762 1.7827C7.28773 2.03078 7.30988 2.12544 7.30988 3.92905V5.57857L7.08009 5.8355C6.6273 6.34168 5.75889 6.22273 5.5068 5.62014C5.32925 5.19551 5.33877 2.57995 5.51934 2.1999C5.7431 1.72877 6.33326 1.5377 6.80762 1.7827ZM13.286 1.78963C13.7582 2.0135 13.8273 2.28437 13.8273 3.91177C13.8273 5.06754 13.8006 5.40336 13.6907 5.63491C13.407 6.23208 12.5849 6.33817 12.1353 5.8355L11.9055 5.57857V3.94666C11.9055 2.95316 11.9403 2.2499 11.9944 2.14889C12.1112 1.93078 12.5647 1.65866 12.812 1.65832C12.92 1.65815 13.1332 1.71725 13.286 1.78963ZM19.7589 1.7827C20.239 2.03078 20.2612 2.12544 20.2612 3.92905V5.57857L20.0314 5.8355C19.5787 6.3416 18.7564 6.22523 18.466 5.61404C18.2802 5.2228 18.2837 2.59331 18.4706 2.1999C18.6944 1.72877 19.2846 1.5377 19.7589 1.7827ZM26.4784 1.98712L26.7368 2.24514L26.7629 3.78539C26.785 5.09743 26.7679 5.36988 26.6472 5.62406C26.3586 6.23166 25.5401 6.34251 25.0866 5.8355L24.8568 5.57857V3.94666C24.8568 2.95316 24.8916 2.2499 24.9457 2.14889C25.2322 1.614 26.0212 1.53069 26.4784 1.98712ZM10.7357 5.08307C10.7357 5.988 11.0807 6.63692 11.7791 7.04578C12.5461 7.49486 13.54 7.3992 14.2077 6.81205C14.7396 6.34427 14.9331 5.92615 14.9799 5.143L15.0186 4.49608H16.0833H17.1481L17.1868 5.143C17.2336 5.92615 17.4271 6.34427 17.959 6.81205C19.0504 7.77175 20.7273 7.35238 21.303 5.9759C21.3767 5.79969 21.431 5.4213 21.431 5.08307V4.49608H22.559H23.687L23.6878 5.10127C23.6895 6.33892 24.4175 7.19161 25.5743 7.31089C26.1884 7.37424 26.7044 7.21181 27.1589 6.81205C27.6773 6.3562 27.8825 5.92373 27.9308 5.18474C27.9766 4.48306 28.0015 4.46987 28.6814 4.78607C29.3181 5.08215 29.9688 5.73174 30.2539 6.3557C30.4746 6.83893 30.4934 6.96364 30.5239 8.14804L30.5565 9.42101H16.0833H1.61014L1.64281 8.14804C1.67322 6.96364 1.69202 6.83893 1.91278 6.3557C2.19787 5.73174 2.84861 5.08215 3.48532 4.78607C4.16513 4.46987 4.19003 4.48306 4.23582 5.18474C4.28412 5.92373 4.48933 6.3562 5.00772 6.81205C6.05034 7.72892 7.69574 7.38476 8.28189 6.12724C8.43054 5.80837 8.47825 5.55987 8.47883 5.10127L8.47967 4.49608H9.60769H10.7357V5.08307ZM30.5196 19.3752L30.4969 28.1608L30.2383 28.7034C29.9097 29.3929 29.3907 29.9115 28.7004 30.2397L28.1573 30.498H16.0833H4.00938L3.46626 30.2397C2.776 29.9115 2.25695 29.3929 1.9284 28.7034L1.66979 28.1608L1.64707 19.3752L1.62434 10.5896H16.0833H30.5423L30.5196 19.3752ZM5.59696 13.6291C5.2741 13.7724 5.01148 14.0602 4.84896 14.4488C4.74869 14.6883 4.71962 15.0909 4.71962 16.2368C4.71962 17.9557 4.80977 18.2724 5.41289 18.6712L5.75163 18.8952H7.43496H9.11829L9.46581 18.6656C10.0804 18.2594 10.1508 18.0093 10.1508 16.2329C10.1508 15.3462 10.113 14.5909 10.0619 14.4557C9.95303 14.1678 9.60142 13.7871 9.29853 13.629C8.98586 13.4658 5.96444 13.4659 5.59696 13.6291ZM14.1473 13.6804C13.4836 14.0307 13.3269 14.5166 13.3269 16.2241C13.3269 17.6112 13.3936 17.9713 13.7226 18.3619C14.1416 18.8594 14.4468 18.9333 16.0833 18.9333C17.7199 18.9333 18.025 18.8594 18.4441 18.3619C18.7731 17.9713 18.8398 17.6112 18.8398 16.2241C18.8398 14.5029 18.6819 14.0231 18.0015 13.6762C17.711 13.5282 17.5109 13.5116 16.0658 13.5149C14.6366 13.5181 14.4192 13.5369 14.1473 13.6804ZM25.4256 15.4912L24.0199 16.8868L23.3295 16.2007C22.7572 15.632 22.5939 15.5146 22.3752 15.5146C21.9184 15.5146 21.6685 15.9223 21.8789 16.3243C21.9463 16.4528 22.3939 16.9431 22.8738 17.4136C24.1086 18.6245 23.9078 18.6766 25.9776 16.6069C27.4937 15.0909 27.6393 14.9202 27.6321 14.6668C27.627 14.4893 27.5587 14.336 27.4428 14.2423C27.053 13.9269 26.9157 14.0119 25.4256 15.4912ZM8.88074 14.78C9.02129 14.9204 9.02129 17.5278 8.88074 17.6682C8.75307 17.7957 6.28631 17.8078 6.05101 17.682C5.90144 17.6019 5.88941 17.4947 5.88941 16.2379C5.88941 15.2932 5.91991 14.8497 5.98968 14.78C6.05936 14.7104 6.50029 14.6798 7.43521 14.6798C8.37013 14.6798 8.81106 14.7104 8.88074 14.78ZM17.5844 14.8413C17.6328 14.9317 17.6709 15.5445 17.6709 16.2329C17.6709 17.2604 17.6481 17.4882 17.5326 17.6157C17.41 17.7511 17.2478 17.7684 16.0979 17.7684C15.0087 17.7684 14.7769 17.7462 14.6486 17.6302C14.5136 17.5082 14.4958 17.3472 14.4958 16.2474C14.4958 15.549 14.5337 14.9319 14.5822 14.8413C14.6625 14.6914 14.7703 14.6798 16.0833 14.6798C17.3963 14.6798 17.5041 14.6914 17.5844 14.8413ZM5.56922 21.7038C5.35766 21.8084 5.11467 22.0224 4.98432 22.219C4.76549 22.549 4.76089 22.5841 4.73549 24.1242C4.70575 25.925 4.78003 26.2323 5.35047 26.6673L5.66698 26.9087L7.21947 26.9349C8.07342 26.9493 8.89503 26.9382 9.04543 26.9099C9.38609 26.8461 9.88844 26.4144 10.0379 26.0571C10.119 25.8633 10.1508 25.3501 10.1508 24.2369C10.1508 22.8803 10.131 22.648 9.99255 22.3769C9.61236 21.6327 9.28566 21.5247 7.41699 21.5247C6.06622 21.5248 5.89827 21.541 5.56922 21.7038ZM14.2651 21.6626C13.8951 21.8448 13.5206 22.2883 13.4145 22.6702C13.2985 23.0878 13.302 25.3999 13.4193 25.8222C13.5354 26.2398 13.7541 26.5224 14.147 26.7622C14.4372 26.9393 14.5424 26.9496 16.072 26.95C17.5932 26.9504 17.7099 26.9392 18.0229 26.7635C18.2198 26.6529 18.4462 26.4229 18.5773 26.2001C18.7891 25.8403 18.8002 25.7619 18.8267 24.4387C18.8573 22.9096 18.7926 22.5135 18.4451 22.1009C18.0225 21.5993 17.7247 21.5283 16.0416 21.5284C14.8288 21.5284 14.4847 21.5545 14.2651 21.6626ZM22.9375 21.6568C22.5556 21.8223 22.3661 22.001 22.1741 22.3769C22.0357 22.648 22.0159 22.8803 22.0159 24.2369C22.0159 25.3501 22.0477 25.8633 22.1287 26.0571C22.2782 26.4144 22.7806 26.8461 23.1212 26.9099C23.2716 26.9382 24.0933 26.9493 24.9472 26.9349L26.4997 26.9087L26.8162 26.6673C27.3866 26.2323 27.4609 25.925 27.4312 24.1242C27.4057 22.5817 27.4015 22.5495 27.181 22.217C26.7799 21.612 26.4668 21.5242 24.7259 21.5279C23.5815 21.5304 23.1589 21.5609 22.9375 21.6568ZM8.88074 22.7934C9.02129 22.9339 9.02129 25.5412 8.88074 25.6816C8.7402 25.822 6.13022 25.822 5.98968 25.6816C5.91999 25.612 5.88941 25.1715 5.88941 24.2375C5.88941 23.3036 5.91999 22.8631 5.98968 22.7934C6.13022 22.653 8.7402 22.653 8.88074 22.7934ZM17.5396 22.8244C17.6473 22.932 17.6709 23.1807 17.6709 24.2072C17.6709 24.9104 17.633 25.5296 17.5844 25.6204C17.5041 25.7702 17.3963 25.7818 16.0833 25.7818C14.7703 25.7818 14.6625 25.7702 14.5822 25.6204C14.5337 25.5296 14.4958 24.9104 14.4958 24.2072C14.4958 23.1807 14.5194 22.932 14.627 22.8244C14.7354 22.7162 14.9902 22.6933 16.0833 22.6933C17.1764 22.6933 17.4313 22.7162 17.5396 22.8244ZM26.177 22.7934C26.3175 22.9339 26.3175 25.5412 26.177 25.6816C26.0364 25.822 23.4265 25.822 23.2859 25.6816C23.1454 25.5412 23.1454 22.9339 23.2859 22.7934C23.4265 22.653 26.0364 22.653 26.177 22.7934Z" fill="#244CB3"/>
</svg>
