<svg width="66" height="66" viewBox="0 0 66 66" fill="none" xmlns="http://www.w3.org/2000/svg">
<rect opacity="0.05" width="66" height="66" rx="5.44444" fill="#244CB3"/>
<path fill-rule="evenodd" clip-rule="evenodd" d="M21.8054 16.5673C21.4327 16.6806 21.1015 16.8863 20.8334 17.1709C20.4111 17.6193 20.276 17.9679 20.2353 18.7143L20.1981 19.395L19.8436 19.4481C19.3056 19.5287 18.3474 20.0248 17.8658 20.472C17.3378 20.9624 16.9622 21.5348 16.6995 22.249L16.5 22.7916V33.5597V44.3277L16.6883 44.8218C17.1774 46.1046 18.1812 47.0763 19.4663 47.5112C19.9062 47.6601 20.4445 47.6667 32.0833 47.6667C43.7221 47.6667 44.2605 47.6601 44.7004 47.5112C45.9855 47.0763 46.9893 46.1046 47.4783 44.8218L47.6667 44.3277V33.5597V22.7916L47.4671 22.249C46.9426 20.8225 45.7714 19.7584 44.4122 19.4737L43.9701 19.381L43.9277 18.7021C43.8813 17.9589 43.7453 17.6085 43.3332 17.1707C42.322 16.0962 40.5617 16.3547 39.9034 17.6743C39.7299 18.022 39.687 18.2291 39.687 18.7178V19.3275H38.559H37.431V18.7178C37.431 18.2291 37.388 18.022 37.2146 17.6743C36.5563 16.3547 34.7959 16.0962 33.7847 17.1707C33.3717 17.6096 33.2286 17.9706 33.1865 18.6805L33.1481 19.3275H32.0833H31.0186L30.9801 18.6805C30.938 17.9706 30.795 17.6096 30.382 17.1707C29.3707 16.0962 27.6104 16.3547 26.9521 17.6743C26.7786 18.022 26.7357 18.2291 26.7357 18.7178V19.3275H25.6077H24.4797V18.7178C24.4797 17.6934 23.9609 16.9202 23.0699 16.6169C22.6736 16.482 22.1533 16.4616 21.8054 16.5673ZM22.8076 17.7827C23.2877 18.0308 23.3099 18.1254 23.3099 19.929V21.5786L23.0801 21.8355C22.6273 22.3417 21.7589 22.2227 21.5068 21.6201C21.3292 21.1955 21.3388 18.58 21.5193 18.1999C21.7431 17.7288 22.3333 17.5377 22.8076 17.7827ZM29.286 17.7896C29.7582 18.0135 29.8273 18.2844 29.8273 19.9118C29.8273 21.0675 29.8006 21.4034 29.6907 21.6349C29.407 22.2321 28.5849 22.3382 28.1353 21.8355L27.9055 21.5786V19.9467C27.9055 18.9532 27.9403 18.2499 27.9944 18.1489C28.1112 17.9308 28.5647 17.6587 28.812 17.6583C28.92 17.6582 29.1332 17.7173 29.286 17.7896ZM35.7589 17.7827C36.239 18.0308 36.2612 18.1254 36.2612 19.929V21.5786L36.0314 21.8355C35.5787 22.3416 34.7564 22.2252 34.466 21.614C34.2802 21.2228 34.2837 18.5933 34.4706 18.1999C34.6944 17.7288 35.2846 17.5377 35.7589 17.7827ZM42.4784 17.9871L42.7368 18.2451L42.7629 19.7854C42.785 21.0974 42.7679 21.3699 42.6472 21.6241C42.3586 22.2317 41.5401 22.3425 41.0866 21.8355L40.8568 21.5786V19.9467C40.8568 18.9532 40.8916 18.2499 40.9457 18.1489C41.2322 17.614 42.0212 17.5307 42.4784 17.9871ZM26.7357 21.0831C26.7357 21.988 27.0807 22.6369 27.7791 23.0458C28.5461 23.4949 29.54 23.3992 30.2077 22.8121C30.7396 22.3443 30.9331 21.9261 30.9799 21.143L31.0186 20.4961H32.0833H33.1481L33.1868 21.143C33.2336 21.9261 33.4271 22.3443 33.959 22.8121C35.0504 23.7717 36.7273 23.3524 37.303 21.9759C37.3767 21.7997 37.431 21.4213 37.431 21.0831V20.4961H38.559H39.687L39.6878 21.1013C39.6895 22.3389 40.4175 23.1916 41.5743 23.3109C42.1884 23.3742 42.7044 23.2118 43.1589 22.8121C43.6773 22.3562 43.8825 21.9237 43.9308 21.1847C43.9766 20.4831 44.0015 20.4699 44.6814 20.7861C45.3181 21.0821 45.9688 21.7317 46.2539 22.3557C46.4746 22.8389 46.4934 22.9636 46.5239 24.148L46.5565 25.421H32.0833H17.6101L17.6428 24.148C17.6732 22.9636 17.692 22.8389 17.9128 22.3557C18.1979 21.7317 18.8486 21.0821 19.4853 20.7861C20.1651 20.4699 20.19 20.4831 20.2358 21.1847C20.2841 21.9237 20.4893 22.3562 21.0077 22.8121C22.0503 23.7289 23.6957 23.3848 24.2819 22.1272C24.4305 21.8084 24.4782 21.5599 24.4788 21.1013L24.4797 20.4961H25.6077H26.7357V21.0831ZM46.5196 35.3752L46.4969 44.1608L46.2383 44.7034C45.9097 45.3929 45.3907 45.9115 44.7004 46.2397L44.1573 46.498H32.0833H20.0094L19.4663 46.2397C18.776 45.9115 18.2569 45.3929 17.9284 44.7034L17.6698 44.1608L17.6471 35.3752L17.6243 26.5896H32.0833H46.5423L46.5196 35.3752ZM21.597 29.6291C21.2741 29.7724 21.0115 30.0602 20.849 30.4488C20.7487 30.6883 20.7196 31.0909 20.7196 32.2368C20.7196 33.9557 20.8098 34.2724 21.4129 34.6712L21.7516 34.8952H23.435H25.1183L25.4658 34.6656C26.0804 34.2594 26.1508 34.0093 26.1508 32.2329C26.1508 31.3462 26.113 30.5909 26.0619 30.4557C25.953 30.1678 25.6014 29.7871 25.2985 29.629C24.9859 29.4658 21.9644 29.4659 21.597 29.6291ZM30.1473 29.6804C29.4836 30.0307 29.3269 30.5166 29.3269 32.2241C29.3269 33.6112 29.3936 33.9713 29.7226 34.3619C30.1416 34.8594 30.4468 34.9333 32.0833 34.9333C33.7199 34.9333 34.025 34.8594 34.4441 34.3619C34.7731 33.9713 34.8398 33.6112 34.8398 32.2241C34.8398 30.5029 34.6819 30.0231 34.0015 29.6762C33.711 29.5282 33.5109 29.5116 32.0658 29.5149C30.6366 29.5181 30.4192 29.5369 30.1473 29.6804ZM41.4256 31.4912L40.0199 32.8868L39.3295 32.2007C38.7572 31.632 38.5939 31.5146 38.3752 31.5146C37.9184 31.5146 37.6685 31.9223 37.8789 32.3243C37.9463 32.4528 38.3939 32.9431 38.8738 33.4136C40.1086 34.6245 39.9078 34.6766 41.9776 32.6069C43.4937 31.0909 43.6393 30.9202 43.6321 30.6668C43.627 30.4893 43.5587 30.336 43.4428 30.2423C43.053 29.9269 42.9157 30.0119 41.4256 31.4912ZM24.8807 30.78C25.0213 30.9204 25.0213 33.5278 24.8807 33.6682C24.7531 33.7957 22.2863 33.8078 22.051 33.682C21.9014 33.6019 21.8894 33.4947 21.8894 32.2379C21.8894 31.2932 21.9199 30.8497 21.9897 30.78C22.0594 30.7104 22.5003 30.6798 23.4352 30.6798C24.3701 30.6798 24.8111 30.7104 24.8807 30.78ZM33.5844 30.8413C33.6328 30.9317 33.6709 31.5445 33.6709 32.2329C33.6709 33.2604 33.6481 33.4882 33.5326 33.6157C33.41 33.7511 33.2478 33.7684 32.0979 33.7684C31.0087 33.7684 30.7769 33.7462 30.6486 33.6302C30.5136 33.5082 30.4958 33.3472 30.4958 32.2474C30.4958 31.549 30.5337 30.9319 30.5822 30.8413C30.6625 30.6914 30.7703 30.6798 32.0833 30.6798C33.3963 30.6798 33.5041 30.6914 33.5844 30.8413ZM21.5692 37.7038C21.3577 37.8084 21.1147 38.0224 20.9843 38.219C20.7655 38.549 20.7609 38.5841 20.7355 40.1242C20.7057 41.925 20.78 42.2323 21.3505 42.6673L21.667 42.9087L23.2195 42.9349C24.0734 42.9493 24.895 42.9382 25.0454 42.9099C25.3861 42.8461 25.8884 42.4144 26.0379 42.0571C26.119 41.8633 26.1508 41.3501 26.1508 40.2369C26.1508 38.8803 26.131 38.648 25.9925 38.3769C25.6124 37.6327 25.2857 37.5247 23.417 37.5247C22.0662 37.5248 21.8983 37.541 21.5692 37.7038ZM30.2651 37.6626C29.8951 37.8448 29.5206 38.2883 29.4145 38.6702C29.2985 39.0878 29.302 41.3999 29.4193 41.8222C29.5354 42.2398 29.7541 42.5224 30.147 42.7622C30.4372 42.9393 30.5424 42.9496 32.072 42.95C33.5932 42.9504 33.7099 42.9392 34.0229 42.7635C34.2198 42.6529 34.4462 42.4229 34.5773 42.2001C34.7891 41.8403 34.8002 41.7619 34.8267 40.4387C34.8573 38.9096 34.7926 38.5135 34.4451 38.1009C34.0225 37.5993 33.7247 37.5283 32.0416 37.5284C30.8288 37.5284 30.4847 37.5545 30.2651 37.6626ZM38.9375 37.6568C38.5556 37.8223 38.3661 38.001 38.1741 38.3769C38.0357 38.648 38.0159 38.8803 38.0159 40.2369C38.0159 41.3501 38.0477 41.8633 38.1287 42.0571C38.2782 42.4144 38.7806 42.8461 39.1212 42.9099C39.2716 42.9382 40.0933 42.9493 40.9472 42.9349L42.4997 42.9087L42.8162 42.6673C43.3866 42.2323 43.4609 41.925 43.4312 40.1242C43.4057 38.5817 43.4015 38.5495 43.181 38.217C42.7799 37.612 42.4668 37.5242 40.7259 37.5279C39.5815 37.5304 39.1589 37.5609 38.9375 37.6568ZM24.8807 38.7934C25.0213 38.9339 25.0213 41.5412 24.8807 41.6816C24.7402 41.822 22.1302 41.822 21.9897 41.6816C21.92 41.612 21.8894 41.1715 21.8894 40.2375C21.8894 39.3036 21.92 38.8631 21.9897 38.7934C22.1302 38.653 24.7402 38.653 24.8807 38.7934ZM33.5396 38.8244C33.6473 38.932 33.6709 39.1807 33.6709 40.2072C33.6709 40.9104 33.633 41.5296 33.5844 41.6204C33.5041 41.7702 33.3963 41.7818 32.0833 41.7818C30.7703 41.7818 30.6625 41.7702 30.5822 41.6204C30.5337 41.5296 30.4958 40.9104 30.4958 40.2072C30.4958 39.1807 30.5194 38.932 30.627 38.8244C30.7354 38.7162 30.9902 38.6933 32.0833 38.6933C33.1764 38.6933 33.4313 38.7162 33.5396 38.8244ZM42.177 38.7934C42.3175 38.9339 42.3175 41.5412 42.177 41.6816C42.0364 41.822 39.4265 41.822 39.2859 41.6816C39.1454 41.5412 39.1454 38.9339 39.2859 38.7934C39.4265 38.653 42.0364 38.653 42.177 38.7934Z" fill="#244CB3"/>
</svg>
