<svg width="36" height="36" viewBox="0 0 36 36" fill="none" xmlns="http://www.w3.org/2000/svg">
<path d="M20.9521 7.0874H14.2876V35.0999H20.9521V7.0874Z" fill="#FFCC66"/>
<path d="M21.7126 7.0874H20.9521V35.0999H21.7126V7.0874Z" fill="#CCCCCC"/>
<path d="M24.3002 1.7999C24.3002 1.56121 24.2053 1.33229 24.0366 1.16351C23.8678 0.994723 23.6389 0.899902 23.4002 0.899902H12.6002C12.3615 0.899902 12.1325 0.994723 11.9638 1.16351C11.795 1.33229 11.7002 1.56121 11.7002 1.7999H8.85166C8.61297 1.7999 8.38405 1.89472 8.21526 2.06351C8.04648 2.23229 7.95166 2.46121 7.95166 2.6999V7.0874H28.0487V2.6999C28.0487 2.46121 27.9538 2.23229 27.7851 2.06351C27.6163 1.89472 27.3874 1.7999 27.1487 1.7999H24.3002Z" fill="#886C60"/>
<path d="M16.1821 8.28906H14.2876V8.70306H16.1821V8.28906Z" fill="#F8B516"/>
<path d="M15.4351 9.75146H14.2876V10.1655H15.4351V9.75146Z" fill="#F8B516"/>
<path d="M16.1821 11.2139H14.2876V11.6279H16.1821V11.2139Z" fill="#F8B516"/>
<path d="M15.4351 12.6763H14.2876V13.0903H15.4351V12.6763Z" fill="#F8B516"/>
<path d="M16.1821 14.1392H14.2876V14.5532H16.1821V14.1392Z" fill="#F8B516"/>
<path d="M15.4351 15.6016H14.2876V16.0156H15.4351V15.6016Z" fill="#F8B516"/>
<path d="M16.1821 17.064H14.2876V17.478H16.1821V17.064Z" fill="#F8B516"/>
<path d="M15.4351 18.5264H14.2876V18.9404H15.4351V18.5264Z" fill="#F8B516"/>
<path d="M16.1821 19.9888H14.2876V20.4028H16.1821V19.9888Z" fill="#F8B516"/>
<path d="M15.4351 21.4517H14.2876V21.8657H15.4351V21.4517Z" fill="#F8B516"/>
<path d="M16.1821 22.9141H14.2876V23.3281H16.1821V22.9141Z" fill="#F8B516"/>
<path d="M15.4351 24.3765H14.2876V24.7905H15.4351V24.3765Z" fill="#F8B516"/>
<path d="M16.1821 25.8389H14.2876V26.2529H16.1821V25.8389Z" fill="#F8B516"/>
<path d="M15.4351 27.3013H14.2876V27.7153H15.4351V27.3013Z" fill="#F8B516"/>
<path d="M16.1821 28.7642H14.2876V29.1782H16.1821V28.7642Z" fill="#F8B516"/>
<path d="M15.4351 30.2266H14.2876V30.6406H15.4351V30.2266Z" fill="#F8B516"/>
<path d="M16.1821 31.689H14.2876V32.103H16.1821V31.689Z" fill="#F8B516"/>
<path d="M15.4351 33.1514H14.2876V33.5654H15.4351V33.1514Z" fill="#F8B516"/>
</svg>
