<svg width="60" height="60" viewBox="0 0 60 60" fill="none" xmlns="http://www.w3.org/2000/svg">
<path d="M30 0C24.0666 0 18.2664 1.75947 13.3329 5.05591C8.39943 8.35235 4.55426 13.0377 2.28363 18.5195C0.0129985 24.0013 -0.581101 30.0333 0.576455 35.8527C1.73401 41.6721 4.59123 47.0176 8.78681 51.2132C12.9824 55.4088 18.3279 58.266 24.1473 59.4235C29.9667 60.5811 35.9987 59.987 41.4805 57.7164C46.9623 55.4457 51.6476 51.6006 54.9441 46.6671C58.2405 41.7336 60 35.9334 60 30C60 22.0435 56.8393 14.4129 51.2132 8.78679C45.5871 3.1607 37.9565 0 30 0ZM46.5214 20.8071L25.0929 42.2357C24.8937 42.4365 24.6567 42.596 24.3955 42.7048C24.1344 42.8135 23.8543 42.8696 23.5714 42.8696C23.2886 42.8696 23.0085 42.8135 22.7473 42.7048C22.4862 42.596 22.2492 42.4365 22.05 42.2357L11.3357 31.5214C11.1359 31.3216 10.9774 31.0844 10.8693 30.8234C10.7612 30.5623 10.7055 30.2825 10.7055 30C10.7055 29.4293 10.9322 28.8821 11.3357 28.4786C11.7392 28.0751 12.2865 27.8484 12.8572 27.8484C13.4278 27.8484 13.9751 28.0751 14.3786 28.4786L23.5714 37.6928L43.4786 17.7643C43.8821 17.3608 44.4294 17.1341 45 17.1341C45.5706 17.1341 46.1179 17.3608 46.5214 17.7643C46.9249 18.1678 47.1516 18.7151 47.1516 19.2857C47.1516 19.8564 46.9249 20.4036 46.5214 20.8071Z" fill="#0FAF7F"/>
</svg>
