<svg width="24" height="24" viewBox="0 0 24 24" fill="none" xmlns="http://www.w3.org/2000/svg">
<path d="M19.875 7.50001H3.00001C2.90055 7.50001 2.80517 7.4605 2.73484 7.39017C2.66452 7.31985 2.62501 7.22446 2.62501 7.12501V6.37501C2.62442 6.27716 2.6621 6.18296 2.73001 6.11251L3.82501 4.98751C3.86018 4.95162 3.9022 4.92317 3.94859 4.90385C3.99497 4.88452 4.04476 4.87471 4.09501 4.87501H17.6888C17.7487 4.87477 17.8079 4.88891 17.8613 4.91626L20.0475 6.04126C20.1087 6.07293 20.1599 6.12083 20.1956 6.1797C20.2313 6.23858 20.2502 6.30615 20.25 6.37501V7.12501C20.25 7.22446 20.2105 7.31985 20.1402 7.39017C20.0698 7.4605 19.9745 7.50001 19.875 7.50001ZM3.37501 6.75001H19.5V6.60376L17.5988 5.62501H4.25251L3.37501 6.52876V6.75001Z" fill="white"/>
<path d="M7.845 5.625H5.625C5.52554 5.625 5.43016 5.5855 5.35984 5.51517C5.28951 5.44484 5.25 5.34946 5.25 5.25V3C5.25 2.90055 5.28951 2.80517 5.35984 2.73484C5.43016 2.66451 5.52554 2.625 5.625 2.625H6.375C6.4374 2.6247 6.49889 2.63998 6.55389 2.66944C6.6089 2.69891 6.65568 2.74164 6.69 2.79375L8.16 5.04375C8.19291 5.10076 8.21024 5.16543 8.21024 5.23125C8.21024 5.29708 8.19291 5.36175 8.16 5.41875C8.13034 5.47785 8.08558 5.52806 8.03026 5.56428C7.97494 5.6005 7.91103 5.62145 7.845 5.625ZM6 4.875H7.15125L6.1725 3.375H6V4.875ZM7.875 19.5H5.625C5.52554 19.5 5.43016 19.4605 5.35984 19.3902C5.28951 19.3198 5.25 19.2245 5.25 19.125V7.125C5.25 7.02555 5.28951 6.93017 5.35984 6.85984C5.43016 6.78951 5.52554 6.75 5.625 6.75H7.875C7.97446 6.75 8.06984 6.78951 8.14017 6.85984C8.21049 6.93017 8.25 7.02555 8.25 7.125V19.125C8.25 19.2245 8.21049 19.3198 8.14017 19.3902C8.06984 19.4605 7.97446 19.5 7.875 19.5ZM6 18.75H7.5V7.5H6V18.75ZM21 21.375H12C11.9005 21.375 11.8052 21.3355 11.7348 21.2652C11.6645 21.1948 11.625 21.0995 11.625 21V16.125C11.625 16.0255 11.6645 15.9302 11.7348 15.8598C11.8052 15.7895 11.9005 15.75 12 15.75H16.125V13.875C16.125 13.7755 16.1645 13.6802 16.2348 13.6098C16.3052 13.5395 16.4005 13.5 16.5 13.5H21C21.0995 13.5 21.1948 13.5395 21.2652 13.6098C21.3355 13.6802 21.375 13.7755 21.375 13.875V21C21.375 21.0995 21.3355 21.1948 21.2652 21.2652C21.1948 21.3355 21.0995 21.375 21 21.375ZM12.375 20.625H20.625V14.25H16.875V16.125C16.875 16.2245 16.8355 16.3198 16.7652 16.3902C16.6948 16.4605 16.5995 16.5 16.5 16.5H12.375V20.625Z" fill="white"/>
<path d="M12.75 16.5C12.6505 16.5 12.5552 16.4605 12.4848 16.3902C12.4145 16.3198 12.375 16.2245 12.375 16.125V12.75C12.375 12.6505 12.4145 12.5552 12.4848 12.4848C12.5552 12.4145 12.6505 12.375 12.75 12.375C12.8495 12.375 12.9448 12.4145 13.0152 12.4848C13.0855 12.5552 13.125 12.6505 13.125 12.75V16.125C13.125 16.2245 13.0855 16.3198 13.0152 16.3902C12.9448 16.4605 12.8495 16.5 12.75 16.5ZM16.5 16.5C16.4005 16.5 16.3052 16.4605 16.2348 16.3902C16.1645 16.3198 16.125 16.2245 16.125 16.125V10.875C16.125 10.7755 16.1645 10.6802 16.2348 10.6098C16.3052 10.5395 16.4005 10.5 16.5 10.5C16.5995 10.5 16.6948 10.5395 16.7652 10.6098C16.8355 10.6802 16.875 10.7755 16.875 10.875V16.125C16.875 16.2245 16.8355 16.3198 16.7652 16.3902C16.6948 16.4605 16.5995 16.5 16.5 16.5ZM20.25 14.25C20.1505 14.25 20.0552 14.2105 19.9848 14.1402C19.9145 14.0698 19.875 13.9745 19.875 13.875V10.125C19.875 10.0255 19.9145 9.93016 19.9848 9.85983C20.0552 9.78951 20.1505 9.75 20.25 9.75C20.3495 9.75 20.4448 9.78951 20.5152 9.85983C20.5855 9.93016 20.625 10.0255 20.625 10.125V13.875C20.625 13.9745 20.5855 14.0698 20.5152 14.1402C20.4448 14.2105 20.3495 14.25 20.25 14.25Z" fill="white"/>
<path d="M16.5 15H12.75C12.6505 15 12.5552 14.9605 12.4848 14.8902C12.4145 14.8198 12.375 14.7245 12.375 14.625C12.375 14.5255 12.4145 14.4302 12.4848 14.3598C12.5552 14.2895 12.6505 14.25 12.75 14.25H16.5C16.5995 14.25 16.6948 14.2895 16.7652 14.3598C16.8355 14.4302 16.875 14.5255 16.875 14.625C16.875 14.7245 16.8355 14.8198 16.7652 14.8902C16.6948 14.9605 16.5995 15 16.5 15ZM20.25 12.75H16.5C16.4005 12.75 16.3052 12.7105 16.2348 12.6402C16.1645 12.5698 16.125 12.4745 16.125 12.375C16.125 12.2755 16.1645 12.1802 16.2348 12.1098C16.3052 12.0395 16.4005 12 16.5 12H20.25C20.3495 12 20.4448 12.0395 20.5152 12.1098C20.5855 12.1802 20.625 12.2755 20.625 12.375C20.625 12.4745 20.5855 12.5698 20.5152 12.6402C20.4448 12.7105 20.3495 12.75 20.25 12.75Z" fill="white"/>
<path d="M14.625 16.5C14.5255 16.5 14.4302 16.4605 14.3598 16.3902C14.2895 16.3198 14.25 16.2245 14.25 16.125V13.5C14.25 13.4005 14.2895 13.3052 14.3598 13.2348C14.4302 13.1645 14.5255 13.125 14.625 13.125C14.7245 13.125 14.8198 13.1645 14.8902 13.2348C14.9605 13.3052 15 13.4005 15 13.5V16.125C15 16.2245 14.9605 16.3198 14.8902 16.3902C14.8198 16.4605 14.7245 16.5 14.625 16.5ZM18.375 14.25C18.2755 14.25 18.1802 14.2105 18.1098 14.1402C18.0395 14.0698 18 13.9745 18 13.875V11.25C18 11.1505 18.0395 11.0552 18.1098 10.9848C18.1802 10.9145 18.2755 10.875 18.375 10.875C18.4745 10.875 18.5698 10.9145 18.6402 10.9848C18.7105 11.0552 18.75 11.1505 18.75 11.25V13.875C18.75 13.9745 18.7105 14.0698 18.6402 14.1402C18.5698 14.2105 18.4745 14.25 18.375 14.25ZM15 12H9.75C9.65054 12 9.55516 11.9605 9.48483 11.8902C9.41451 11.8198 9.375 11.7245 9.375 11.625V10.125C9.375 10.0255 9.41451 9.93016 9.48483 9.85983C9.55516 9.78951 9.65054 9.75 9.75 9.75H15C15.0995 9.75 15.1948 9.78951 15.2652 9.85983C15.3355 9.93016 15.375 10.0255 15.375 10.125V11.625C15.375 11.7245 15.3355 11.8198 15.2652 11.8902C15.1948 11.9605 15.0995 12 15 12ZM10.125 11.25H14.625V10.5H10.125V11.25Z" fill="white"/>
<path d="M12.375 10.5C12.2755 10.5 12.1802 10.4605 12.1098 10.3902C12.0395 10.3198 12 10.2245 12 10.125V7.125C12 7.02554 12.0395 6.93016 12.1098 6.85983C12.1802 6.78951 12.2755 6.75 12.375 6.75C12.4745 6.75 12.5698 6.78951 12.6402 6.85983C12.7105 6.93016 12.75 7.02554 12.75 7.125V10.125C12.75 10.2245 12.7105 10.3198 12.6402 10.3902C12.5698 10.4605 12.4745 10.5 12.375 10.5ZM9 21.375H4.5C4.40054 21.375 4.30516 21.3355 4.23484 21.2652C4.16451 21.1948 4.125 21.0995 4.125 21V19.125C4.125 19.0255 4.16451 18.9302 4.23484 18.8598C4.30516 18.7895 4.40054 18.75 4.5 18.75H9C9.09946 18.75 9.19484 18.7895 9.26517 18.8598C9.33549 18.9302 9.375 19.0255 9.375 19.125V21C9.375 21.0995 9.33549 21.1948 9.26517 21.2652C9.19484 21.3355 9.09946 21.375 9 21.375ZM4.875 20.625H8.625V19.5H4.875V20.625Z" fill="white"/>
<path d="M5.62522 19.1246C5.57587 19.1249 5.52695 19.1154 5.48126 19.0967C5.43557 19.0781 5.39401 19.0506 5.35897 19.0158C5.32382 18.981 5.29593 18.9395 5.27689 18.8938C5.25785 18.8481 5.24805 18.7991 5.24805 18.7496C5.24805 18.7001 5.25785 18.6511 5.27689 18.6054C5.29593 18.5597 5.32382 18.5182 5.35897 18.4833L7.60897 16.2333C7.67959 16.1627 7.77536 16.123 7.87522 16.123C7.97508 16.123 8.07086 16.1627 8.14147 16.2333C8.21208 16.3039 8.25176 16.3997 8.25176 16.4996C8.25176 16.5994 8.21208 16.6952 8.14147 16.7658L5.89147 19.0158C5.85643 19.0506 5.81488 19.0781 5.76919 19.0967C5.7235 19.1154 5.67457 19.1249 5.62522 19.1246Z" fill="white"/>
<path d="M7.87458 16.8746C7.82523 16.8749 7.7763 16.8654 7.73062 16.8467C7.68493 16.8281 7.64337 16.8006 7.60833 16.7658L5.35833 14.5158C5.28772 14.4452 5.24805 14.3494 5.24805 14.2496C5.24805 14.1497 5.28772 14.0539 5.35833 13.9833C5.42894 13.9127 5.52472 13.873 5.62458 13.873C5.72444 13.873 5.82022 13.9127 5.89083 13.9833L8.14083 16.2333C8.17598 16.2682 8.20388 16.3097 8.22292 16.3554C8.24195 16.4011 8.25176 16.4501 8.25176 16.4996C8.25176 16.5491 8.24195 16.5981 8.22292 16.6438C8.20388 16.6895 8.17598 16.731 8.14083 16.7658C8.10579 16.8006 8.06424 16.8281 8.01855 16.8467C7.97286 16.8654 7.92393 16.8749 7.87458 16.8746Z" fill="white"/>
<path d="M5.62522 14.6246C5.57587 14.6249 5.52695 14.6154 5.48126 14.5967C5.43557 14.5781 5.39401 14.5506 5.35897 14.5158C5.32382 14.481 5.29593 14.4395 5.27689 14.3938C5.25785 14.3481 5.24805 14.2991 5.24805 14.2496C5.24805 14.2001 5.25785 14.1511 5.27689 14.1054C5.29593 14.0597 5.32382 14.0182 5.35897 13.9833L7.60897 11.7333C7.67959 11.6627 7.77536 11.623 7.87522 11.623C7.97508 11.623 8.07086 11.6627 8.14147 11.7333C8.21208 11.8039 8.25176 11.8997 8.25176 11.9996C8.25176 12.0994 8.21208 12.1952 8.14147 12.2658L5.89147 14.5158C5.85643 14.5506 5.81488 14.5781 5.76919 14.5967C5.7235 14.6154 5.67457 14.6249 5.62522 14.6246ZM5.62522 10.1246C5.57587 10.1249 5.52695 10.1154 5.48126 10.0967C5.43557 10.0781 5.39401 10.0506 5.35897 10.0158C5.32382 9.98097 5.29593 9.93949 5.27689 9.8938C5.25785 9.8481 5.24805 9.79909 5.24805 9.74958C5.24805 9.70008 5.25785 9.65106 5.27689 9.60536C5.29593 9.55967 5.32382 9.51819 5.35897 9.48333L7.60897 7.23333C7.67959 7.16272 7.77536 7.12305 7.87522 7.12305C7.97508 7.12305 8.07086 7.16272 8.14147 7.23333C8.21208 7.30395 8.25176 7.39972 8.25176 7.49958C8.25176 7.59944 8.21208 7.69522 8.14147 7.76583L5.89147 10.0158C5.85643 10.0506 5.81488 10.0781 5.76919 10.0967C5.7235 10.1154 5.67457 10.1249 5.62522 10.1246Z" fill="white"/>
<path d="M7.87458 12.3746C7.82523 12.3749 7.7763 12.3654 7.73062 12.3467C7.68493 12.3281 7.64337 12.3006 7.60833 12.2658L5.35833 10.0158C5.28772 9.94522 5.24805 9.84944 5.24805 9.74958C5.24805 9.64972 5.28772 9.55395 5.35833 9.48333C5.42894 9.41272 5.52472 9.37305 5.62458 9.37305C5.72444 9.37305 5.82022 9.41272 5.89083 9.48333L8.14083 11.7333C8.17598 11.7682 8.20388 11.8097 8.22292 11.8554C8.24195 11.9011 8.25176 11.9501 8.25176 11.9996C8.25176 12.0491 8.24195 12.0981 8.22292 12.1438C8.20388 12.1895 8.17598 12.231 8.14083 12.2658C8.10579 12.3006 8.06424 12.3281 8.01855 12.3467C7.97286 12.3654 7.92393 12.3749 7.87458 12.3746Z" fill="white"/>
</svg>
