<svg width="36" height="36" viewBox="0 0 36 36" fill="none" xmlns="http://www.w3.org/2000/svg">
<g clip-path="url(#clip0_1118_3450)">
<path d="M23.5407 13.6575L24.5588 12.6394L23.5013 11.5819L22.4832 12.6L21.7407 9.64125L22.7588 8.67375L23.3213 8.96062L23.3945 9C23.8276 7.94812 24.8907 7.29 24.8907 7.29L24.7445 6.5025L26.6513 4.59562L34.4195 0L34.937 0.5175L32.6588 2.75062C31.5788 2.67188 30.1613 4.17938 30.4988 5.3775L30.5663 5.445L28.5807 7.43062C30.1163 9.32625 29.2782 11.3119 29.267 11.3344L29.1713 11.3063C29.1713 11.3063 28.7832 12.3244 27.6526 12.8025L27.9845 13.4437L26.8707 14.6137L23.5407 13.6575Z" fill="#EFF3F5"/>
<path d="M23.5574 11.5145L23.4168 11.6551C22.7811 10.1532 23.293 9.00012 23.3099 8.95512L23.473 9.03387C23.473 9.04512 22.9555 10.0914 23.5574 11.5145ZM31.6011 9.51762L35.6343 1.21512L35.3361 0.916992L33.0974 3.18949C33.3393 4.29199 31.708 5.77137 30.4986 5.37762L28.3949 7.48137H28.3836C30.0318 8.85387 29.1824 11.2839 29.1711 11.3007L29.2668 11.3289L29.7224 11.4695L31.6011 9.51762Z" fill="#E5E5E5"/>
<path d="M12.8811 15.0355C14.878 14.0061 16.1886 13.0667 17.7636 11.8573C18.3767 11.3117 18.2699 10.6592 17.7974 9.98985C17.6286 9.74797 17.6736 9.4161 17.9155 9.24735C18.1517 9.07298 18.4836 9.13485 18.658 9.3711C19.1136 9.96735 19.6311 10.2542 20.1992 9.8886L21.1442 9.20798C21.2567 9.12923 21.4086 9.1461 21.4986 9.24735L21.8249 9.61297C21.8755 9.66922 21.9092 9.7311 21.943 9.84922L22.7417 12.6561C22.7305 12.8023 22.6517 12.9317 22.5392 13.0161L21.2286 13.6798L21.4649 14.293C19.5692 15.2605 17.1449 16.588 15.1649 18.0055L15.0524 18.0898L12.8755 15.0748C12.8755 15.0467 12.8811 15.0411 12.8811 15.0355Z" fill="#DD655B"/>
<path d="M0.871924 28.1927C2.57067 26.809 4.37067 24.6265 6.22692 21.9715C8.0213 19.1534 10.1757 16.7009 12.8757 15.0527L15.0525 18.0677L12.8644 19.6484C11.8744 20.3627 10.9913 21.229 10.2544 22.2077C7.38005 26.0271 4.74192 29.0871 2.48067 30.9434C2.16567 31.2021 1.7213 31.2246 1.37817 31.0052C0.528799 30.4596 -0.134951 29.104 0.871924 28.1927Z" fill="#506C72"/>
<path d="M21.3298 23.4842C22.3591 21.4873 23.2985 20.1767 24.5079 18.6017C25.0535 17.9885 25.706 18.0954 26.3754 18.5679C26.6173 18.7367 26.9491 18.6917 27.1179 18.4498C27.2923 18.2135 27.2304 17.8817 26.9941 17.7073C26.3979 17.2517 26.111 16.7342 26.4766 16.166L27.1573 15.221C27.236 15.1085 27.2191 14.9567 27.1179 14.8667L26.7523 14.5404C26.696 14.4898 26.6341 14.456 26.516 14.4223L23.7091 13.6235C23.5629 13.6348 23.4335 13.7135 23.3491 13.826L22.6854 15.1367L22.0723 14.9004C21.1048 16.796 19.7773 19.2204 18.3598 21.2004L18.2754 21.3129L21.2904 23.4898C21.3185 23.4898 21.3241 23.4842 21.3298 23.4842Z" fill="#DD655B"/>
<path d="M8.17319 35.4936C9.55694 33.7949 11.7394 31.9949 14.3944 30.1386C17.2126 28.3442 19.6651 26.1899 21.3132 23.4899L18.2982 21.313L16.7176 23.5011C16.0032 24.4911 15.1369 25.3742 14.1582 26.1111C10.3388 28.9855 7.27882 31.6236 5.42257 33.8849C5.16382 34.1999 5.14132 34.6442 5.36069 34.9874C5.90632 35.8367 7.26194 36.5005 8.17319 35.4936Z" fill="#506C72"/>
</g>
<defs>
<clipPath id="clip0_1118_3450">
<rect width="36" height="36" fill="white"/>
</clipPath>
</defs>
</svg>
