<svg width="36" height="36" viewBox="0 0 36 36" fill="none" xmlns="http://www.w3.org/2000/svg">
<circle cx="18" cy="18" r="18" fill="#F69E54" fill-opacity="0.1"/>
<path d="M25.7037 21.7595H10.2969C10.139 21.7595 10.0112 21.6316 10.0112 21.4738V20.2753C10.0112 15.6379 13.5952 11.865 18.0003 11.865C22.4054 11.865 25.9894 15.6379 25.9894 20.2753V21.4738C25.9894 21.6316 25.8616 21.7595 25.7037 21.7595ZM10.5826 21.1881H25.418V20.2753C25.418 15.9529 22.0904 12.4364 18.0003 12.4364C13.9102 12.4364 10.5826 15.9529 10.5826 20.2753V21.1881Z" fill="#FF7400"/>
<path d="M26.0621 24.1338H9.93792C9.18429 24.1338 8.57129 23.4727 8.57129 22.6602C8.57129 21.8477 9.18429 21.1865 9.93792 21.1865H26.0621C26.8154 21.1865 27.4284 21.8477 27.4284 22.6602C27.4284 23.4727 26.8154 24.1338 26.0621 24.1338ZM9.93792 21.758C9.49958 21.758 9.14272 22.1627 9.14272 22.6602C9.14272 23.1576 9.49958 23.5624 9.93792 23.5624H26.0621C26.5004 23.5624 26.857 23.1576 26.857 22.6602C26.857 22.1627 26.5004 21.758 26.0621 21.758H9.93792ZM22.3952 19.4111C21.7674 19.4111 21.2566 18.9004 21.2566 18.2725C21.2566 17.6445 21.7674 17.1338 22.3952 17.1338C23.023 17.1338 23.5339 17.6445 23.5339 18.2725C23.5339 18.9004 23.023 19.4111 22.3952 19.4111ZM22.3952 17.7052C22.0824 17.7052 21.828 17.9597 21.828 18.2725C21.828 18.5852 22.0824 18.8397 22.3952 18.8397C22.708 18.8397 22.9625 18.5852 22.9625 18.2725C22.9625 17.9597 22.708 17.7052 22.3952 17.7052ZM13.6028 19.4111C12.975 19.4111 12.4641 18.9004 12.4641 18.2725C12.4641 17.6445 12.975 17.1338 13.6028 17.1338C14.2306 17.1338 14.7415 17.6445 14.7415 18.2725C14.7415 18.9004 14.2306 19.4111 13.6028 19.4111ZM13.6028 17.7052C13.29 17.7052 13.0356 17.9597 13.0356 18.2725C13.0356 18.5852 13.29 18.8397 13.6028 18.8397C13.9156 18.8397 14.1701 18.5852 14.1701 18.2725C14.1701 17.9597 13.9156 17.7052 13.6028 17.7052Z" fill="#FF7400"/>
<path d="M19.4115 21.7596H16.5613C16.4142 21.7596 16.2909 21.6478 16.277 21.5013L15.4198 12.6169C15.4045 12.4598 15.5197 12.3201 15.6768 12.3049C15.8314 12.291 15.9734 12.4048 15.9885 12.5619L16.8208 21.1881H19.152L19.9843 12.5619C19.9993 12.4048 20.1403 12.2907 20.2959 12.3049C20.453 12.3201 20.5683 12.4598 20.5529 12.6169L19.6958 21.5013C19.6818 21.6478 19.5585 21.7596 19.4115 21.7596Z" fill="#FF7400"/>
</svg>
