<svg width="60" height="60" viewBox="0 0 60 60" fill="none" xmlns="http://www.w3.org/2000/svg">
<path d="M30 60C46.5675 60 60 46.5675 60 30C60 13.4325 46.5675 0 30 0C13.4325 0 0 13.4325 0 30C0 46.5675 13.4325 60 30 60ZM33.75 33.75C33.75 34.7446 33.3549 35.6984 32.6516 36.4016C31.9484 37.1049 30.9946 37.5 30 37.5C29.0054 37.5 28.0516 37.1049 27.3484 36.4016C26.6451 35.6984 26.25 34.7446 26.25 33.75V15C26.25 14.0054 26.6451 13.0516 27.3484 12.3483C28.0516 11.6451 29.0054 11.25 30 11.25C30.9946 11.25 31.9484 11.6451 32.6516 12.3483C33.3549 13.0516 33.75 14.0054 33.75 15V33.75ZM30 41.19C30.4926 41.1901 30.9803 41.2873 31.4354 41.4759C31.8904 41.6645 32.3038 41.9409 32.652 42.2893C33.0003 42.6377 33.2764 43.0513 33.4648 43.5064C33.6532 43.9615 33.7501 44.4493 33.75 44.9419C33.7499 45.4345 33.6527 45.9222 33.4641 46.3772C33.2755 46.8323 32.9991 47.2457 32.6507 47.5939C32.3023 47.9421 31.8888 48.2183 31.4336 48.4067C30.9785 48.5951 30.4907 48.692 29.9981 48.6919C29.0033 48.6916 28.0493 48.2962 27.3461 47.5926C26.6428 46.889 26.2479 45.9348 26.2481 44.94C26.2484 43.9452 26.6438 42.9912 27.3474 42.288C28.051 41.5847 29.0052 41.1898 30 41.19Z" fill="#EA5A4D"/>
</svg>
