<svg width="16" height="16" viewBox="0 0 16 16" fill="none" xmlns="http://www.w3.org/2000/svg">
<path d="M0.14997 10.2545L0.558648 10.4479L0.814919 12.8741C0.821642 12.9375 0.852972 12.9962 0.90283 13.0389C0.952688 13.0816 1.01752 13.1053 1.08475 13.1053H2.1695C2.23672 13.1053 2.30156 13.0816 2.35141 13.0389C2.40127 12.9962 2.4326 12.9375 2.43933 12.8741L2.6956 10.4466L3.10427 10.2532C3.14935 10.2319 3.18727 10.1991 3.21376 10.1585C3.24024 10.1179 3.25426 10.0711 3.25424 10.0234V8.4824C3.25346 8.2351 3.15835 7.9964 2.98643 7.81027C2.8145 7.62413 2.57735 7.5031 2.31865 7.46948C2.49065 7.33469 2.61455 7.15293 2.67344 6.94899C2.73234 6.74506 2.72335 6.52888 2.64772 6.32996C2.57209 6.13103 2.43349 5.95905 2.25083 5.83749C2.06818 5.71592 1.85037 5.65069 1.62712 5.65069C1.40387 5.65069 1.18606 5.71592 1.00341 5.83749C0.820756 5.95905 0.682157 6.13103 0.606524 6.32996C0.530891 6.52888 0.521909 6.74506 0.580802 6.94899C0.639695 7.15293 0.763595 7.33469 0.935597 7.46948C0.676897 7.5031 0.439742 7.62413 0.267818 7.81027C0.0958946 7.9964 0.000782866 8.2351 4.04161e-06 8.4824V10.0234C-0.000272305 10.0713 0.0136279 10.1184 0.0401313 10.1592C0.0666348 10.2001 0.104683 10.2331 0.14997 10.2545ZM1.62712 6.17096C1.73439 6.17096 1.83926 6.20109 1.92845 6.25753C2.01764 6.31397 2.08716 6.39419 2.12821 6.48805C2.16926 6.58191 2.18 6.68519 2.15907 6.78483C2.13815 6.88446 2.08649 6.97599 2.01064 7.04782C1.93479 7.11966 1.83814 7.16858 1.73293 7.1884C1.62772 7.20822 1.51867 7.19805 1.41957 7.15917C1.32046 7.12029 1.23575 7.05446 1.17616 6.96999C1.11656 6.88552 1.08475 6.78621 1.08475 6.68462C1.08475 6.54839 1.14189 6.41774 1.24361 6.32141C1.34532 6.22508 1.48328 6.17096 1.62712 6.17096ZM0.542377 8.4824C0.542377 8.34617 0.599519 8.21552 0.701234 8.11919C0.802949 8.02286 0.940903 7.96875 1.08475 7.96875H2.1695C2.31334 7.96875 2.4513 8.02286 2.55301 8.11919C2.65473 8.21552 2.71187 8.34617 2.71187 8.4824V9.86463L2.31946 10.0503C2.27832 10.0698 2.2431 10.0989 2.2171 10.1348C2.1911 10.1708 2.17519 10.2124 2.17085 10.2558L1.92543 12.5916H1.33017L1.08475 10.2545C1.08041 10.2111 1.0645 10.1695 1.0385 10.1336C1.0125 10.0976 0.977278 10.0685 0.936139 10.049L0.542377 9.86463V8.4824ZM16 13.1053V12.5916H15.1864V6.68462C15.1864 6.6165 15.1579 6.55118 15.107 6.50301C15.0562 6.45485 14.9872 6.42779 14.9153 6.42779H13.2881C13.2162 6.42779 13.1472 6.45485 13.0964 6.50301C13.0455 6.55118 13.017 6.6165 13.017 6.68462V12.5916H11.9322V8.99605C11.9322 8.92793 11.9036 8.86261 11.8528 8.81445C11.8019 8.76628 11.7329 8.73922 11.661 8.73922H10.0339C9.96198 8.73922 9.893 8.76628 9.84214 8.81445C9.79128 8.86261 9.76271 8.92793 9.76271 8.99605V12.5916H8.67797V10.7938C8.67797 10.7257 8.6494 10.6604 8.59854 10.6122C8.54768 10.5641 8.47871 10.537 8.40678 10.537H6.77966C6.70774 10.537 6.63876 10.5641 6.58791 10.6122C6.53705 10.6604 6.50848 10.7257 6.50848 10.7938V12.5916H5.69492V13.1053H16ZM13.5593 6.94144H14.6441V12.5916H13.5593V6.94144ZM10.3051 9.25287H11.3898V12.5916H10.3051V9.25287ZM8.1356 12.5916H7.05085V11.0507H8.1356V12.5916ZM5.47119 9.50585C8.4835 8.86347 11.1195 7.14847 12.8334 4.71605L13.3245 4.97801C13.3663 5.00037 13.4137 5.0118 13.4617 5.01113C13.5098 5.01046 13.5568 4.99772 13.5979 4.97421C13.639 4.95069 13.6728 4.91725 13.6958 4.87731C13.7188 4.83736 13.7302 4.79235 13.7288 4.74686L13.6852 3.24983C13.6839 3.2055 13.6705 3.16223 13.6463 3.12425C13.6222 3.08627 13.588 3.05486 13.5472 3.03309C13.5064 3.01131 13.4604 2.99991 13.4135 3C13.3667 3.00009 13.3207 3.01166 13.28 3.03358L11.9051 3.77504C11.8634 3.79744 11.8286 3.82992 11.8045 3.86917C11.7803 3.90843 11.7676 3.95304 11.7676 3.99847C11.7676 4.04391 11.7803 4.08852 11.8045 4.12778C11.8286 4.16703 11.8634 4.19951 11.9051 4.22191L12.358 4.46359C9.72909 8.22557 5.42075 8.99245 5.37682 8.9999L5.47119 9.50585ZM13.1555 3.69234L13.1734 4.30872L12.5901 3.9977L13.1555 3.69234Z" fill="#0FAF7F"/>
</svg>
