<svg width="16" height="11" viewBox="0 0 16 11" fill="none" xmlns="http://www.w3.org/2000/svg">
<path d="M0.14997 7.2545L0.558648 7.44789L0.814919 9.87412C0.821642 9.93747 0.852972 9.99619 0.90283 10.0389C0.952688 10.0816 1.01752 10.1053 1.08475 10.1053H2.1695C2.23672 10.1053 2.30156 10.0816 2.35141 10.0389C2.40127 9.99619 2.4326 9.93747 2.43933 9.87412L2.6956 7.4466L3.10427 7.25321C3.14935 7.23188 3.18727 7.19907 3.21376 7.15847C3.24024 7.11787 3.25426 7.07108 3.25424 7.02335V5.4824C3.25346 5.2351 3.15835 4.9964 2.98643 4.81027C2.8145 4.62413 2.57735 4.5031 2.31865 4.46948C2.49065 4.33469 2.61455 4.15293 2.67344 3.94899C2.73234 3.74506 2.72335 3.52888 2.64772 3.32996C2.57209 3.13103 2.43349 2.95905 2.25083 2.83749C2.06818 2.71592 1.85037 2.65069 1.62712 2.65069C1.40387 2.65069 1.18606 2.71592 1.00341 2.83749C0.820756 2.95905 0.682157 3.13103 0.606524 3.32996C0.530891 3.52888 0.521909 3.74506 0.580802 3.94899C0.639695 4.15293 0.763595 4.33469 0.935597 4.46948C0.676897 4.5031 0.439742 4.62413 0.267818 4.81027C0.0958946 4.9964 0.000782866 5.2351 4.04161e-06 5.4824V7.02335C-0.000272305 7.0713 0.0136279 7.11836 0.0401313 7.15921C0.0666348 7.20006 0.104683 7.23307 0.14997 7.2545ZM1.62712 3.17096C1.73439 3.17096 1.83926 3.20109 1.92845 3.25753C2.01764 3.31397 2.08716 3.39419 2.12821 3.48805C2.16926 3.58191 2.18 3.68519 2.15907 3.78483C2.13815 3.88446 2.08649 3.97599 2.01064 4.04782C1.93479 4.11966 1.83814 4.16858 1.73293 4.1884C1.62772 4.20822 1.51867 4.19805 1.41957 4.15917C1.32046 4.12029 1.23575 4.05446 1.17616 3.96999C1.11656 3.88552 1.08475 3.78621 1.08475 3.68462C1.08475 3.54839 1.14189 3.41774 1.24361 3.32141C1.34532 3.22508 1.48328 3.17096 1.62712 3.17096ZM0.542377 5.4824C0.542377 5.34617 0.599519 5.21552 0.701234 5.11919C0.802949 5.02286 0.940903 4.96875 1.08475 4.96875H2.1695C2.31334 4.96875 2.4513 5.02286 2.55301 5.11919C2.65473 5.21552 2.71187 5.34617 2.71187 5.4824V6.86463L2.31946 7.05032C2.27832 7.06982 2.2431 7.09891 2.2171 7.13485C2.1911 7.17079 2.17519 7.21241 2.17085 7.25578L1.92543 9.59161H1.33017L1.08475 7.2545C1.08041 7.21112 1.0645 7.16951 1.0385 7.13356C1.0125 7.09762 0.977278 7.06853 0.936139 7.04903L0.542377 6.86463V5.4824ZM16 10.1053V9.59161H15.1864V3.68462C15.1864 3.6165 15.1579 3.55118 15.107 3.50301C15.0562 3.45485 14.9872 3.42779 14.9153 3.42779H13.2881C13.2162 3.42779 13.1472 3.45485 13.0964 3.50301C13.0455 3.55118 13.017 3.6165 13.017 3.68462V9.59161H11.9322V5.99605C11.9322 5.92793 11.9036 5.86261 11.8528 5.81445C11.8019 5.76628 11.7329 5.73922 11.661 5.73922H10.0339C9.96198 5.73922 9.893 5.76628 9.84214 5.81445C9.79128 5.86261 9.76271 5.92793 9.76271 5.99605V9.59161H8.67797V7.79383C8.67797 7.72572 8.6494 7.66039 8.59854 7.61223C8.54768 7.56406 8.47871 7.537 8.40678 7.537H6.77966C6.70774 7.537 6.63876 7.56406 6.58791 7.61223C6.53705 7.66039 6.50848 7.72572 6.50848 7.79383V9.59161H5.69492V10.1053H16ZM13.5593 3.94144H14.6441V9.59161H13.5593V3.94144ZM10.3051 6.25287H11.3898V9.59161H10.3051V6.25287ZM8.1356 9.59161H7.05085V8.05066H8.1356V9.59161ZM5.47119 6.50585C8.4835 5.86347 11.1195 4.14847 12.8334 1.71605L13.3245 1.97801C13.3663 2.00037 13.4137 2.0118 13.4617 2.01113C13.5098 2.01046 13.5568 1.99772 13.5979 1.97421C13.639 1.95069 13.6728 1.91725 13.6958 1.87731C13.7188 1.83736 13.7302 1.79235 13.7288 1.74686L13.6852 0.249827C13.6839 0.205495 13.6705 0.162232 13.6463 0.12425C13.6222 0.0862678 13.588 0.0548603 13.5472 0.0330864C13.5064 0.0113124 13.4604 -8.5906e-05 13.4135 4.87479e-07C13.3667 8.68809e-05 13.3207 0.0116553 13.28 0.0335797L11.9051 0.775036C11.8634 0.797436 11.8286 0.829919 11.8045 0.869172C11.7803 0.908426 11.7676 0.953043 11.7676 0.998474C11.7676 1.04391 11.7803 1.08852 11.8045 1.12778C11.8286 1.16703 11.8634 1.19951 11.9051 1.22191L12.358 1.46359C9.72909 5.22557 5.42075 5.99245 5.37682 5.9999L5.47119 6.50585ZM13.1555 0.692338L13.1734 1.30872L12.5901 0.997704L13.1555 0.692338Z" fill="#061F48" fill-opacity="0.7"/>
</svg>
