<svg width="20" height="20" viewBox="0 0 20 20" fill="none" xmlns="http://www.w3.org/2000/svg">
<path d="M9.99023 16L9.99186 15.5L9.99079 15.5L9.99023 16ZM4 9.99997L4.13611 9.51885C3.98527 9.47618 3.82314 9.50672 3.69817 9.60135C3.57319 9.69598 3.49983 9.84375 3.5 10.0005L4 9.99997ZM4.72482 10.1014L4.72849 9.60137L4.72595 9.60137L4.72482 10.1014ZM6.7615 9.04717L7.17168 9.3331L7.17278 9.33151L6.7615 9.04717ZM6.99512 6.99998L7.08304 6.50778C6.9045 6.47588 6.72268 6.54318 6.60792 6.68363C6.49317 6.82408 6.46347 7.01567 6.53032 7.18427L6.99512 6.99998ZM7.51627 7.04678L7.52 6.54679L7.51744 6.54679L7.51627 7.04678ZM9.52 6.09999L9.1328 5.78363L9.13152 5.78522L9.52 6.09999ZM10.0292 4L10.0308 3.5C9.8797 3.49951 9.73648 3.56737 9.64118 3.68463C9.54587 3.80188 9.5087 3.95594 9.54005 4.10375L10.0292 4ZM16 10.0195L16.5 10.0211V10.0211L16 10.0195ZM9.99079 15.5C6.96045 15.4966 4.50333 13.0367 4.5 9.99942L3.5 10.0005C3.50393 13.5877 6.4064 16.496 9.98968 16.5L9.99079 15.5ZM3.86389 10.4811C4.14367 10.5602 4.43294 10.6007 4.72368 10.6014L4.72595 9.60137C4.52651 9.60092 4.32806 9.57315 4.13611 9.51885L3.86389 10.4811ZM4.72115 10.6014C5.69694 10.6085 6.61339 10.134 7.17168 9.3331L6.35132 8.76125C5.98127 9.2921 5.37426 9.60612 4.72849 9.60138L4.72115 10.6014ZM7.17278 9.33151C7.68282 8.59376 7.79053 7.64954 7.45992 6.8157L6.53032 7.18427C6.73779 7.70755 6.67013 8.30009 6.35022 8.76284L7.17278 9.33151ZM6.90719 7.49219C7.10785 7.52804 7.31126 7.5463 7.5151 7.54678L7.51744 6.54679C7.37179 6.54644 7.22644 6.53339 7.08304 6.50778L6.90719 7.49219ZM7.51253 7.54677C8.44167 7.55371 9.32328 7.13701 9.90848 6.41476L9.13152 5.78522C8.73761 6.27137 8.14457 6.55146 7.52 6.5468L7.51253 7.54677ZM9.9072 6.41634C10.4822 5.71256 10.7069 4.78551 10.5183 3.89625L9.54005 4.10375C9.66583 4.69673 9.51592 5.31472 9.1328 5.78364L9.9072 6.41634ZM10.0275 4.5C13.059 4.50987 15.5098 6.97953 15.5 10.0179L16.5 10.0211C16.5116 6.43203 13.616 3.51167 10.0308 3.5L10.0275 4.5ZM15.5 10.0178C15.4901 13.0562 13.0233 15.5098 9.99186 15.5L9.98861 16.5C13.5738 16.5116 16.4883 13.6102 16.5 10.0211L15.5 10.0178Z" fill="black"/>
<path d="M8.66699 13.333H8.66832V13.3343H8.66699V13.333Z" stroke="black" stroke-linecap="round" stroke-linejoin="round"/>
<path d="M12 12H12.0013V12.0013H12V12Z" stroke="black" stroke-linecap="round" stroke-linejoin="round"/>
<path d="M9.33301 10H9.33434V10.0013H9.33301V10Z" stroke="black" stroke-linecap="round" stroke-linejoin="round"/>
<path d="M12.667 8.66699H12.6683V8.66832H12.667V8.66699Z" stroke="black" stroke-linecap="round" stroke-linejoin="round"/>
<path d="M4 6.66699H4.00133V6.66833H4V6.66699Z" stroke="black" stroke-linecap="round" stroke-linejoin="round"/>
<path d="M7.33301 4H7.33434V4.00133H7.33301V4Z" stroke="black" stroke-linecap="round" stroke-linejoin="round"/>
<path d="M4.66699 4H4.66833V4.00133H4.66699V4Z" stroke="black" stroke-linecap="round" stroke-linejoin="round"/>
</svg>
