<svg width="24" height="33" viewBox="0 0 24 33" fill="none" xmlns="http://www.w3.org/2000/svg">
<path d="M18.7499 23.9821C19.9729 24.2596 21.0653 24.9444 21.8479 25.9244C22.6305 26.9044 23.0568 28.1212 23.0569 29.3753C23.0569 30.5966 22.8104 31.1686 20.8455 31.5867C20.8455 31.5867 19.9706 31.7406 18.7499 31.9365L17.3562 28.5702L18.7499 23.9821ZM15.317 32.4443C14.2176 32.6062 13.1103 32.7084 11.9999 32.7503C10.8894 32.7086 9.78211 32.6064 8.68279 32.4443L7.98529 28.57L8.68279 23.8467H15.317L15.8795 28.57L15.317 32.4443ZM5.24988 31.9364C4.02925 31.7405 3.15428 31.5866 3.15428 31.5866C1.18933 31.1684 0.942871 30.5964 0.942871 29.3752C0.942969 28.1236 1.36755 26.9092 2.14723 25.9302C2.92692 24.9512 4.01559 24.2656 5.23536 23.9854L6.18692 28.57L5.24988 31.9364Z" fill="#F5E5CB"/>
<path d="M8.68262 21.5V24.5495C8.68262 25.4293 9.0321 26.273 9.65417 26.895C10.2762 27.5171 11.12 27.8666 11.9997 27.8666C12.8795 27.8666 13.7232 27.5171 14.3452 26.895C14.9673 26.273 15.3168 25.4293 15.3168 24.5495V21.5169L8.68262 21.5Z" fill="#FFB8A6"/>
<path d="M8.68262 23.8322C10.3266 24.5893 13.0532 24.8748 15.3168 23.8322V22.2983H8.68262V23.8322Z" fill="#FFA68F"/>
<path d="M19.7118 11.6874C19.7118 11.0321 18.7352 7.78271 15.3168 7.78271H8.68266C5.24928 7.78271 4.28771 11.0276 4.28771 11.6874C1.30008 11.6874 1.25167 16.2423 4.27624 16.3447H4.28954C4.57003 18.6387 5.91235 23.5148 11.9997 23.5148C18.0871 23.5148 19.4295 18.6387 19.7099 16.3447H19.7231C22.789 16.2413 22.5488 11.6874 19.7118 11.6874Z" fill="#FFB8A6"/>
<path d="M8.5542 14.1929C9.13669 14.1929 9.60889 13.7207 9.60889 13.1382C9.60889 12.5557 9.13669 12.0835 8.5542 12.0835C7.97171 12.0835 7.49951 12.5557 7.49951 13.1382C7.49951 13.7207 7.97171 14.1929 8.5542 14.1929Z" fill="#3A3D3E"/>
<path d="M15.4458 14.1929C16.0283 14.1929 16.5005 13.7207 16.5005 13.1382C16.5005 12.5557 16.0283 12.0835 15.4458 12.0835C14.8633 12.0835 14.3911 12.5557 14.3911 13.1382C14.3911 13.7207 14.8633 14.1929 15.4458 14.1929Z" fill="#3A3D3E"/>
<path d="M17.3615 9.51416L18.5369 8.10791L19.7121 9.51416V13.7967C19.0887 13.7967 18.4908 13.5491 18.05 13.1083C17.6092 12.6674 17.3615 12.0695 17.3615 11.4461V9.51416ZM6.63869 9.51416L5.46329 8.10791L4.28809 9.51416V13.7967C4.9115 13.7967 5.50939 13.5491 5.95021 13.1083C6.39104 12.6674 6.63869 12.0695 6.63869 11.4461V9.51416Z" fill="#3A3D3E"/>
<path d="M9.91309 1.68408H14.0868C14.8255 1.68408 15.557 1.82958 16.2394 2.11226C16.9219 2.39494 17.542 2.80928 18.0643 3.33161C18.5866 3.85394 19.001 4.47403 19.2837 5.15649C19.5663 5.83894 19.7118 6.5704 19.7118 7.30908V9.25688H4.28809V7.30908C4.28809 5.81724 4.88072 4.3865 5.93561 3.33161C6.9905 2.27671 8.42124 1.68408 9.91309 1.68408Z" fill="#FCC957"/>
<path d="M12.0001 11.662C18.4576 11.662 19.7121 9.51423 19.7121 9.51423C17.2839 8.76509 10.0982 7.74449 4.28809 9.51423C4.28823 9.51412 5.5426 11.662 12.0001 11.662ZM14.0916 5.70267C14.3254 -1.21906 9.6358 -1.18427 9.86845 5.70267C9.95046 8.13006 14.0097 8.12899 14.0916 5.70267Z" fill="#FDD95D"/>
<path d="M19.6809 9.514H4.31905C3.31817 9.514 3.31679 8 4.31905 8H19.6809C20.6819 8 20.6833 9.514 19.6809 9.514Z" fill="#FFEA63"/>
<path d="M6.4715 23.8467C6.06051 23.8469 5.65082 23.8929 5.25 23.9837V27.8669L6.96644 28.57L8.68291 27.8669V23.8467H6.4715ZM5.25 31.9363C6.25786 32.098 7.50135 32.2883 8.68291 32.4443V29.9309L6.96644 29.2278L5.25 29.9309V31.9363Z" fill="#FA895F"/>
<path d="M8.68294 27.8667H5.25V29.9308H8.68294V27.8667Z" fill="#FFEA63"/>
<path d="M17.5283 23.8467C17.9393 23.8469 18.349 23.8929 18.7498 23.9837V27.8669L17.0334 28.57L15.3169 27.8669V23.8467H17.5283ZM18.7498 31.9363C17.7419 32.098 16.4985 32.2883 15.3169 32.4443V29.9309L17.0334 29.2278L18.7498 29.9309V31.9363Z" fill="#FA895F"/>
<path d="M18.7498 27.8667H15.3169V29.9308H18.7498V27.8667Z" fill="#FFEA63"/>
</svg>
