<svg width="40" height="40" viewBox="0 0 40 40" fill="none" xmlns="http://www.w3.org/2000/svg">
<g clip-path="url(#clip0_1207_3452)">
<path d="M20 0V23.6111H7.66667L0 0H20Z" fill="#66CCFF"/>
<path d="M40 0H0V40H40V0Z" stroke="black" stroke-miterlimit="10"/>
<path d="M7.66667 31.7222L0 39.9999H20V31.7222H7.66667Z" fill="#EAF4FF"/>
<path d="M32.3333 31.7222L40 39.9999H20V31.7222H32.3333Z" fill="#CEE8FF"/>
<path d="M40.0002 0L32.3335 23.6111V31.7222L40.0002 40V0Z" fill="#A2DBFE"/>
<path d="M0 0L7.66667 23.6111V31.7222L0 40V0Z" fill="#CEE8FF"/>
<path d="M20 0V23.6111H32.3333L40 0H20Z" fill="#59ABFF"/>
<path d="M10.6113 7.14448H4.75575L3.2002 2.3667H9.85575L10.6113 7.14448Z" fill="#F7F7F7"/>
<path d="M18.9222 7.14448H12.9777L12.1333 2.3667H18.7889L18.9222 7.14448Z" fill="#F7F7F7"/>
<path d="M27.0889 7.14448H21.1333V2.3667H27.8L27.0889 7.14448Z" fill="#F7F7F7"/>
<path d="M35.3335 7.14448H29.4224L30.1335 2.3667H36.8001L35.3335 7.14448Z" fill="#F7F7F7"/>
<path d="M11.6443 14.1332H6.81098L5.5332 9.35547H11.0221L11.6443 14.1332Z" fill="#F7F7F7"/>
<path d="M14.0555 14.2446L18.7777 14.1335L18.9222 9.4668H13.311L14.0555 14.2446Z" fill="#F7F7F7"/>
<path d="M21.1333 14.2446L25.9444 14.1446L26.7444 9.4668H21.1333V14.2446Z" fill="#F7F7F7"/>
<path d="M28.2778 14.2446L32.9445 14.1335L34.4778 9.4668H28.8667L28.2778 14.2446Z" fill="#F7F7F7"/>
<path d="M12.8113 21.2221H9.2557L7.92236 16.4443H12.3113L12.8113 21.2221Z" fill="#F7F7F7"/>
<path d="M18.922 21.2221H15.222L14.4775 16.4443H18.922V21.2221Z" fill="#F7F7F7"/>
<path d="M24.8111 21.2221H21.0889V16.4443H25.5333L24.8111 21.2221Z" fill="#F7F7F7"/>
<path d="M30.7002 21.2221H27.1113L27.778 16.4443H32.2224L30.7002 21.2221Z" fill="#F7F7F7"/>
<path d="M19.9998 23.6113H7.6665V31.7224H19.9998V23.6113Z" fill="#4D5087"/>
<path d="M32.3333 23.6113H20V31.7224H32.3333V23.6113Z" fill="#3D4173"/>
</g>
<defs>
<clipPath id="clip0_1207_3452">
<rect width="40" height="40" fill="white"/>
</clipPath>
</defs>
</svg>
