<svg width="40" height="40" viewBox="0 0 40 40" fill="none" xmlns="http://www.w3.org/2000/svg">
<rect width="40" height="40" rx="20" fill="#061F48" fill-opacity="0.05"/>
<path d="M30.5207 29.601V30.521H8.479V29.601C8.47893 28.6098 8.78627 27.6429 9.35868 26.8336C9.93108 26.0244 10.7404 25.4125 11.675 25.0825L16.6248 23.3335L19.4998 26.6877L22.3748 23.3335L27.3246 25.0825C28.2593 25.4125 29.0686 26.0244 29.641 26.8336C30.2134 27.6429 30.5207 28.6098 30.5207 29.601Z" fill="#425B72"/>
<path d="M10.8365 29.5626C10.5929 29.5613 10.3596 29.464 10.1873 29.2917C10.0151 29.1195 9.91774 28.8862 9.91648 28.6426C9.91713 28.0004 10.0468 27.365 10.2979 26.774C10.5489 26.183 10.9162 25.6484 11.3779 25.2021C10.5223 25.5756 9.79441 26.1908 9.28366 26.9723C8.7729 27.7537 8.50155 28.6673 8.50293 29.6009V30.5209H30.5206C30.5206 29.5003 30.5206 29.6153 30.4823 29.5626H10.8365Z" fill="#374F68"/>
<path d="M15.6667 23.6733V26.6873C14.1573 26.6873 14.0471 26.6585 13.75 26.7735V24.349L15.6667 23.6733Z" fill="#FFCC66"/>
<path d="M15.6665 23.6733V26.2081C15.4793 26.2126 15.2932 26.1796 15.1189 26.111C14.9447 26.0425 14.7859 25.9398 14.652 25.809C14.5181 25.6782 14.4116 25.5219 14.339 25.3493C14.2663 25.1767 14.229 24.9914 14.229 24.8042V24.1813L15.6665 23.6733Z" fill="#FFDE76"/>
<path d="M25.2502 24.349V26.7735C24.9483 26.6585 24.8285 26.6873 23.3335 26.6873V23.6733L25.2502 24.349Z" fill="#FFCC66"/>
<path d="M25.25 24.3492V26.2084C24.8688 26.2084 24.5031 26.0569 24.2335 25.7874C23.964 25.5178 23.8125 25.1521 23.8125 24.7709V23.8413L25.25 24.3492Z" fill="#FFDE76"/>
<path d="M22.375 21.5557V23.3334L19.5 26.6875L16.625 23.3334V21.5557C16.9847 21.9636 17.4271 22.2902 17.9228 22.514C18.4185 22.7378 18.9561 22.8535 19.5 22.8535C20.0439 22.8535 20.5815 22.7378 21.0772 22.514C21.5729 22.2902 22.0153 21.9636 22.375 21.5557Z" fill="#EDB996"/>
<path d="M21.7424 24.0713L19.4999 26.6875C17.6503 24.5265 17.5832 24.4019 17.5832 24.4498C17.5835 24.3104 17.6199 24.1734 17.6887 24.0521C17.7575 23.9308 17.8564 23.8294 17.9759 23.7576C18.0955 23.6857 18.2315 23.646 18.3709 23.6422C18.5103 23.6384 18.6483 23.6707 18.7715 23.7358C19.8544 24.2917 20.5924 24.4833 21.7424 24.0713ZM23.3332 16.625C23.3332 18.8819 23.5105 19.9792 22.6432 21.2106C22.3112 21.6869 21.8754 22.0815 21.3687 22.3647C20.8619 22.6479 20.2974 22.8124 19.7179 22.8456C19.1383 22.8788 18.5587 22.78 18.0229 22.5565C17.4871 22.3331 17.0091 21.9908 16.6249 21.5556C15.4269 20.1948 15.6665 18.8675 15.6665 16.625H23.3332Z" fill="#F6CCAF"/>
<path d="M23.3333 17.5835C23.3333 19.0593 23.4627 20.0368 22.6433 21.2108C21.9054 21.7236 21.0108 21.9609 20.1157 21.8812C19.2206 21.8015 18.382 21.4099 17.7463 20.7747C16.7879 19.8164 16.625 18.791 16.625 17.5835H23.3333Z" fill="#FFDEC7"/>
<path d="M24.2917 18.5417H23.3333V16.625H24.2917C24.5458 16.625 24.7896 16.726 24.9693 16.9057C25.149 17.0854 25.25 17.3292 25.25 17.5833C25.25 17.8375 25.149 18.0813 24.9693 18.261C24.7896 18.4407 24.5458 18.5417 24.2917 18.5417ZM14.7083 18.5417H15.6667V16.625H14.7083C14.4542 16.625 14.2104 16.726 14.0307 16.9057C13.851 17.0854 13.75 17.3292 13.75 17.5833C13.75 17.8375 13.851 18.0813 14.0307 18.261C14.2104 18.4407 14.4542 18.5417 14.7083 18.5417Z" fill="#F6CCAF"/>
<path d="M24.2915 14.7085H14.7082C14.4435 14.7085 14.229 14.923 14.229 15.1877V16.146C14.229 16.4106 14.4435 16.6252 14.7082 16.6252H24.2915C24.5561 16.6252 24.7707 16.4106 24.7707 16.146V15.1877C24.7707 14.923 24.5561 14.7085 24.2915 14.7085Z" fill="#FFCC66"/>
<path d="M24.771 15.1873V15.6665H16.146C16.0189 15.6665 15.897 15.616 15.8072 15.5262C15.7173 15.4363 15.6668 15.3144 15.6668 15.1873V14.7082H24.2918C24.4189 14.7082 24.5408 14.7587 24.6307 14.8485C24.7205 14.9384 24.771 15.0603 24.771 15.1873ZM24.2918 13.7498V14.7082H14.7085V13.7498C14.7085 12.7332 15.1124 11.7582 15.8313 11.0393C16.5501 10.3204 17.5252 9.9165 18.5418 9.9165V12.3123H20.4585V9.9165C21.4752 9.9165 22.4502 10.3204 23.1691 11.0393C23.888 11.7582 24.2918 12.7332 24.2918 13.7498Z" fill="#FFDE76"/>
<path d="M15.6668 12.7918C15.6663 12.0091 15.9054 11.2449 16.352 10.6021C15.8445 10.9553 15.4299 11.4261 15.1437 11.9743C14.8575 12.5225 14.7082 13.1318 14.7085 13.7502V14.7085H24.2918V13.7502H16.6252C16.371 13.7502 16.1272 13.6492 15.9475 13.4695C15.7678 13.2898 15.6668 13.046 15.6668 12.7918Z" fill="#FFCC66"/>
<path d="M20.4582 8.479H18.5415V12.3123H20.4582V8.479Z" fill="#FFCC66"/>
<path d="M20.4585 8.479V11.8332C20.0772 11.8332 19.7116 11.6817 19.442 11.4121C19.1724 11.1426 19.021 10.7769 19.021 10.3957V8.479H20.4585Z" fill="#FFDE76"/>
<path d="M17.1043 13.7502V14.7085H16.146V13.7502C16.146 13.6231 16.1965 13.5012 16.2863 13.4113C16.3762 13.3215 16.4981 13.271 16.6252 13.271C16.7522 13.271 16.8741 13.3215 16.964 13.4113C17.0538 13.5012 17.1043 13.6231 17.1043 13.7502ZM22.8543 13.7502V14.7085H21.896V13.7502C21.896 13.6231 21.9465 13.5012 22.0363 13.4113C22.1262 13.3215 22.2481 13.271 22.3752 13.271C22.5022 13.271 22.6241 13.3215 22.714 13.4113C22.8038 13.5012 22.8543 13.6231 22.8543 13.7502Z" fill="#FFBA55"/>
<path d="M26.2082 28.125V30.5209H12.7915V28.125C12.7923 27.8284 12.8849 27.5394 13.0565 27.2975C13.228 27.0556 13.4702 26.8726 13.7498 26.7738C14.0948 26.6396 13.4911 26.6875 24.7707 26.6875C25.1519 26.6875 25.5176 26.839 25.7871 27.1086C26.0567 27.3781 26.2082 27.7438 26.2082 28.125Z" fill="#FFCC66"/>
<path d="M26.2081 28.125V29.5625H16.6248C14.9381 29.5625 13.8983 27.8519 14.3104 26.6875H24.7706C25.1518 26.6875 25.5175 26.839 25.7871 27.1085C26.0566 27.3781 26.2081 27.7438 26.2081 28.125Z" fill="#FFDE76"/>
</svg>
