<svg width="36" height="36" viewBox="0 0 36 36" fill="none" xmlns="http://www.w3.org/2000/svg">
<path d="M34.7231 29.6099H1.27688C0.57375 29.6099 0 29.0362 0 28.3274V6.52492C0 5.81617 0.57375 5.24805 1.27688 5.24805H34.7175C35.4263 5.24805 35.9944 5.8218 35.9944 6.52492V28.3274C36 29.0362 35.4263 29.6099 34.7231 29.6099Z" fill="#E5E5E5"/>
<path d="M20.801 27.0564H4.03853C3.35229 27.0564 2.79541 26.4995 2.79541 25.8132V9.05074C2.79541 8.36449 3.35229 7.80762 4.03853 7.80762H20.801C21.4873 7.80762 22.0442 8.36449 22.0442 9.05074V25.8132C22.0442 26.4995 21.4873 27.0564 20.801 27.0564Z" fill="#C6C1C1"/>
<path d="M12.4198 25.8074C17.0487 25.8074 20.8011 22.055 20.8011 17.4262C20.8011 12.7973 17.0487 9.04492 12.4198 9.04492C7.79099 9.04492 4.03857 12.7973 4.03857 17.4262C4.03857 22.055 7.79099 25.8074 12.4198 25.8074Z" fill="#445B69"/>
<path d="M18.5905 11.7621C17.0998 10.3896 15.1086 9.55705 12.9205 9.55705C8.29109 9.55705 4.53922 13.3089 4.53922 17.9383C4.53922 20.1264 5.37734 22.1121 6.74422 23.6083C5.07359 22.0783 4.02734 19.8789 4.02734 17.4321C4.02734 12.8027 7.77922 9.0508 12.4086 9.0508C14.8611 9.04518 17.0605 10.0914 18.5905 11.7621Z" fill="#2F4651"/>
<path d="M9.14083 11.9363C9.03958 12.9375 10.6371 13.6294 11.374 15.6488H13.1008C14.6477 12.5775 14.6646 10.4063 12.319 10.2657C11.0421 10.26 9.20833 11.0475 9.14083 11.9363Z" fill="#E5E5E5"/>
<path d="M13.1005 15.6429H12.9599C14.3718 12.7235 14.3155 10.676 12.0374 10.541C11.1486 10.541 9.99551 10.9235 9.34863 11.4466C9.87738 10.7773 11.278 10.2598 12.3186 10.2598C14.6643 10.4004 14.6474 12.5773 13.1005 15.6429Z" fill="#BDBDBE"/>
<path d="M6.92456 20.7055C7.92581 20.8068 8.61769 19.2093 10.6371 18.4724V16.7455C7.56581 15.1987 5.39456 15.1818 5.25394 17.5274C5.24831 18.8043 6.04144 20.638 6.92456 20.7055Z" fill="#E5E5E5"/>
<path d="M10.637 16.7455V16.8862C7.71766 15.4743 5.67016 15.5305 5.53516 17.8087C5.53516 18.6974 5.91766 19.8505 6.44078 20.4974C5.77141 19.9687 5.25391 18.568 5.25391 17.5274C5.38891 15.1818 7.56578 15.1987 10.637 16.7455Z" fill="#BDBDBE"/>
<path d="M15.6938 22.922C15.7951 21.9207 14.1976 21.2288 13.4607 19.2095H11.7338C10.1869 22.2807 10.1701 24.452 12.5157 24.5926C13.7982 24.5982 15.6263 23.8051 15.6938 22.922Z" fill="#E5E5E5"/>
<path d="M11.7338 19.2095H11.8744C10.4626 22.1288 10.5188 24.1763 12.7969 24.3113C13.6857 24.3113 14.8388 23.9288 15.4857 23.4057C14.9569 24.0751 13.5563 24.5926 12.5157 24.5926C10.1701 24.4576 10.1869 22.2807 11.7338 19.2095Z" fill="#BDBDBE"/>
<path d="M17.9098 14.1525C16.9085 14.0513 16.2166 15.6488 14.1973 16.3857V18.1125C17.2685 19.6594 19.4398 19.6763 19.5804 17.3307C19.586 16.0482 18.7929 14.22 17.9098 14.1525Z" fill="#E5E5E5"/>
<path d="M14.1973 18.1127V17.9721C17.1166 19.384 19.1641 19.3277 19.2991 17.0496C19.2991 16.1608 18.9166 15.0077 18.3935 14.3608C19.0629 14.8896 19.5804 16.2902 19.5804 17.3308C19.4454 19.6765 17.2685 19.6596 14.1973 18.1127Z" fill="#BDBDBE"/>
<path d="M14.4788 17.4262C14.4788 18.5681 13.5563 19.4906 12.4145 19.4906C11.2726 19.4906 10.3501 18.5681 10.3501 17.4262C10.3501 16.2843 11.2726 15.3618 12.4145 15.3618C13.5563 15.3674 14.4788 16.2899 14.4788 17.4262Z" fill="#687D87"/>
<path d="M13.5954 17.4264C13.5954 18.0789 13.0667 18.6076 12.4142 18.6076C11.7617 18.6076 11.2329 18.0789 11.2329 17.4264C11.2329 16.7739 11.7617 16.2451 12.4142 16.2451C13.0667 16.2507 13.5954 16.7795 13.5954 17.4264Z" fill="#E5E5E5"/>
<path d="M13.32 16.667C13.1175 16.4982 12.8531 16.397 12.5719 16.397C11.9194 16.397 11.3906 16.9257 11.3906 17.5782C11.3906 17.8651 11.4919 18.1295 11.6663 18.332C11.4075 18.1126 11.2388 17.792 11.2388 17.4264C11.2388 16.7739 11.7675 16.2451 12.42 16.2451C12.78 16.2507 13.1006 16.4139 13.32 16.667Z" fill="#909192"/>
<path d="M33.21 9.08984H25.0537V14.7261H33.21V9.08984Z" fill="#C6C1C1"/>
<path d="M33.21 16.6895H25.0537V17.3363H33.21V16.6895Z" fill="#C6C1C1"/>
<path d="M33.21 18.377H25.0537V19.0238H33.21V18.377Z" fill="#C6C1C1"/>
<path d="M33.21 20.0645H25.0537V20.7113H33.21V20.0645Z" fill="#C6C1C1"/>
<path d="M33.21 21.7461H25.0537V22.393H33.21V21.7461Z" fill="#C6C1C1"/>
<path d="M33.21 23.4336H25.0537V24.0805H33.21V23.4336Z" fill="#C6C1C1"/>
<path d="M33.21 25.1211H25.0537V25.768H33.21V25.1211Z" fill="#C6C1C1"/>
<path d="M5.91744 30.752H3.68994C3.53807 30.752 3.40869 30.6282 3.40869 30.4707V29.6045H6.19869V30.4707C6.19869 30.6282 6.07494 30.752 5.91744 30.752ZM32.3099 30.752H30.0768C29.9249 30.752 29.7956 30.6282 29.7956 30.4707V29.6045H32.5856V30.4707C32.5912 30.6282 32.4674 30.752 32.3099 30.752Z" fill="#445B69"/>
</svg>
