<svg width="20" height="20" viewBox="0 0 20 20" fill="none" xmlns="http://www.w3.org/2000/svg">
<path d="M10.1938 15.9312L10.3713 16.3986H10.3713L10.1938 15.9312ZM9.80686 15.9312L9.62934 16.3986H9.62934L9.80686 15.9312ZM5.33366 4.5H14.667V3.5H5.33366V4.5ZM14.8337 4.66667V8.77657H15.8337V4.66667H14.8337ZM5.16699 8.77657V4.66667H4.16699V8.77657H5.16699ZM14.8337 8.77657C14.8337 13.3537 10.9494 15.1094 10.0163 15.4638L10.3713 16.3986C11.3524 16.026 15.8337 14.0415 15.8337 8.77657H14.8337ZM4.16699 8.77657C4.16699 14.0415 8.64822 16.026 9.62934 16.3986L9.98439 15.4638C9.0513 15.1094 5.16699 13.3537 5.16699 8.77657H4.16699ZM10.0163 15.4638C10.0078 15.467 10.0029 15.4673 10.0003 15.4673C9.9978 15.4673 9.99283 15.467 9.98439 15.4638L9.62934 16.3986C9.87052 16.4902 10.1301 16.4902 10.3713 16.3986L10.0163 15.4638ZM14.667 4.5C14.759 4.5 14.8337 4.57462 14.8337 4.66667H15.8337C15.8337 4.02233 15.3113 3.5 14.667 3.5V4.5ZM5.33366 3.5C4.68933 3.5 4.16699 4.02233 4.16699 4.66667H5.16699C5.16699 4.57462 5.24161 4.5 5.33366 4.5V3.5Z" fill="black"/>
<path d="M12.3536 8.35355C12.5488 8.15829 12.5488 7.84171 12.3536 7.64645C12.1583 7.45118 11.8417 7.45118 11.6464 7.64645L12.3536 8.35355ZM9.33333 10.6667L8.97978 11.0202C9.07355 11.114 9.20073 11.1667 9.33333 11.1667C9.46594 11.1667 9.59312 11.114 9.68689 11.0202L9.33333 10.6667ZM8.35355 8.97978C8.15829 8.78452 7.84171 8.78452 7.64645 8.97978C7.45118 9.17504 7.45118 9.49162 7.64645 9.68689L8.35355 8.97978ZM11.6464 7.64645L8.97978 10.3131L9.68689 11.0202L12.3536 8.35355L11.6464 7.64645ZM9.68689 10.3131L8.35355 8.97978L7.64645 9.68689L8.97978 11.0202L9.68689 10.3131Z" fill="black"/>
</svg>
