<svg width="16" height="16" viewBox="0 0 16 16" fill="none" xmlns="http://www.w3.org/2000/svg">
<path d="M7.66732 7.33268C8.4037 7.33268 9.00065 6.73573 9.00065 5.99935C9.00065 5.26297 8.4037 4.66602 7.66732 4.66602C6.93094 4.66602 6.33398 5.26297 6.33398 5.99935C6.33398 6.73573 6.93094 7.33268 7.66732 7.33268Z" stroke="#0FAF7F" stroke-linecap="round" stroke-linejoin="round"/>
<path d="M7.66667 14C7.66667 14 12.3333 10.7692 12.3333 6.61538C12.3333 5.39131 11.8417 4.21737 10.9665 3.35181C10.0913 2.48626 8.90434 2 7.66667 2C6.42899 2 5.242 2.48626 4.36683 3.35181C3.49167 4.21737 3 5.39131 3 6.61538C3 10.7692 7.66667 14 7.66667 14Z" stroke="#0FAF7F" stroke-linecap="round" stroke-linejoin="round"/>
</svg>
