<svg width="11" height="14" viewBox="0 0 11 14" fill="none" xmlns="http://www.w3.org/2000/svg">
<path d="M5.66683 6.33268C6.40321 6.33268 7.00016 5.73573 7.00016 4.99935C7.00016 4.26297 6.40321 3.66602 5.66683 3.66602C4.93045 3.66602 4.3335 4.26297 4.3335 4.99935C4.3335 5.73573 4.93045 6.33268 5.66683 6.33268Z" stroke="#061F48" stroke-opacity="0.7" stroke-linecap="round" stroke-linejoin="round"/>
<path d="M5.66667 13C5.66667 13 10.3333 9.76923 10.3333 5.61538C10.3333 4.39131 9.84167 3.21737 8.9665 2.35181C8.09133 1.48626 6.90434 1 5.66667 1C4.42899 1 3.242 1.48626 2.36683 2.35181C1.49167 3.21737 1 4.39131 1 5.61538C1 9.76923 5.66667 13 5.66667 13Z" stroke="#061F48" stroke-opacity="0.7" stroke-linecap="round" stroke-linejoin="round"/>
</svg>
