<svg width="36" height="36" viewBox="0 0 36 36" fill="none" xmlns="http://www.w3.org/2000/svg">
<path d="M25.546 1.38477H17.2383C16.3383 1.38477 15.646 2.07707 15.646 2.97707V7.26938C15.646 8.16938 16.3383 8.86169 17.2383 8.86169H25.546C26.446 8.86169 27.1383 8.16938 27.1383 7.26938V2.97707C27.1383 2.07707 26.446 1.38477 25.546 1.38477Z" fill="#676767"/>
<path d="M9.8999 6.99219H26.0999V14.1922H9.8999V6.99219Z" fill="#676767"/>
<path d="M1.38477 13.2925V24.1617C1.38477 25.9617 2.83861 27.4848 4.70784 27.4848H31.3617C33.1617 27.4848 34.6848 26.0309 34.6848 24.1617V13.2925H1.38477Z" fill="#676767"/>
<path d="M16.8925 19.7998H2.00784C1.66169 19.7998 1.38477 20.0767 1.38477 20.4229V26.7921C1.38477 27.1383 1.66169 27.4152 2.00784 27.4152H16.8925C17.2386 27.4152 17.5155 27.1383 17.5155 26.7921V20.4229C17.5848 20.0767 17.2386 19.7998 16.8925 19.7998Z" fill="#E7B95E"/>
<path d="M33.9925 19.7999H19.1078C18.7617 19.7999 18.4848 20.0769 18.4848 20.423V26.7923C18.4848 27.1384 18.7617 27.4153 19.1078 27.4153H33.9925C34.3386 27.4153 34.6155 27.1384 34.6155 26.7923V20.423C34.6155 20.0769 34.3386 19.7999 33.9925 19.7999ZM16.8925 11.2153H2.00784C1.66169 11.2153 1.38477 11.4923 1.38477 11.8384V18.2076C1.38477 18.5538 1.66169 18.8307 2.00784 18.8307H16.8925C17.2386 18.8307 17.5155 18.5538 17.5155 18.2076V11.8384C17.5848 11.4923 17.2386 11.2153 16.8925 11.2153Z" fill="#FFCC67"/>
<path d="M33.9921 11.2153H19.1075C18.7613 11.2153 18.4844 11.4923 18.4844 11.8384V18.2076C18.4844 18.5538 18.7613 18.8307 19.1075 18.8307H33.9921C34.3382 18.8307 34.6151 18.5538 34.6151 18.2076V11.8384C34.6151 11.4923 34.3382 11.2153 33.9921 11.2153Z" fill="#E7B95E"/>
<path d="M25.4768 2.7002H10.523C10.1768 2.7002 9.8999 2.97712 9.8999 3.32327V9.6925C9.8999 10.0387 10.1768 10.3156 10.523 10.3156H25.4076C25.7537 10.3156 26.0307 10.0387 26.0307 9.6925V3.32327C26.0999 2.97712 25.823 2.7002 25.4768 2.7002Z" fill="#FFCC67"/>
<path d="M22.2922 17.031L9.27678 12.8079C7.9614 12.3925 6.71524 13.6386 7.13063 14.954L11.3537 27.9694C11.7691 29.1463 13.2229 29.4925 14.1229 28.6617L22.846 19.9386C23.8152 18.9002 23.4691 17.4463 22.2922 17.031Z" fill="#E6E6E5"/>
<path d="M23.1233 27.3464L22.431 28.0387L22.154 28.1079L20.2848 26.2387L19.1079 25.131L18.0002 24.0233L17.2387 23.1925L17.1694 22.9849V22.7772C17.3079 22.6387 17.654 22.6387 17.931 22.8464L23.1233 27.3464Z" fill="#E6E6E5"/>
<path d="M22.4308 28.0384L17.1693 22.7769C17.0308 22.9153 17.0308 23.2615 17.2385 23.5384L21.7385 28.7307L22.4308 28.0384Z" fill="#CDCCCC"/>
<path d="M22.7078 26.2383L20.6309 28.3152C20.4232 28.5229 20.4232 28.9383 20.6309 29.146L25.5463 34.0614C26.377 34.8921 27.6232 34.8921 28.4539 34.0614C29.2847 33.2306 29.2847 31.9844 28.4539 31.1537L23.5386 26.2383C23.2616 26.0306 22.9155 26.0306 22.7078 26.2383Z" fill="#ED7161"/>
</svg>
