<svg width="36" height="36" viewBox="0 0 36 36" fill="none" xmlns="http://www.w3.org/2000/svg">
<path d="M26.5611 4.58791H5.2785C5.17581 4.58721 5.07401 4.60692 4.97901 4.64589C4.88401 4.68486 4.7977 4.74232 4.72509 4.81493C4.65248 4.88754 4.59502 4.97385 4.55604 5.06885C4.51707 5.16386 4.49736 5.26566 4.49806 5.36834V10.1827C4.49736 10.2854 4.51707 10.3872 4.55604 10.4822C4.59502 10.5772 4.65248 10.6635 4.72509 10.7362C4.7977 10.8088 4.88401 10.8662 4.97901 10.9052C5.07401 10.9442 5.17581 10.9639 5.2785 10.9632H26.5611C26.6637 10.9639 26.7655 10.9442 26.8605 10.9052C26.9555 10.8662 27.0419 10.8088 27.1145 10.7362C27.1871 10.6635 27.2445 10.5772 27.2835 10.4822C27.3225 10.3872 27.3422 10.2854 27.3415 10.1827V5.36834C27.3415 5.2661 27.3213 5.16487 27.282 5.07048C27.2427 4.97608 27.1851 4.8904 27.1126 4.81835C27.04 4.7463 26.954 4.68931 26.8593 4.65067C26.7647 4.61202 26.6633 4.59249 26.5611 4.59318V4.58791Z" fill="#64B5F6"/>
<path d="M27.9003 7.27686H31.4966V17.0428H16.157V19.5212H14.9863V15.8721H30.3207V8.45277H27.8951L27.9003 7.27686Z" fill="#424242"/>
<path d="M13.2671 30.1733V20.1753C13.2671 19.8481 13.3971 19.5342 13.6285 19.3028C13.8599 19.0714 14.1738 18.9414 14.501 18.9414H16.7632C17.0905 18.9414 17.4043 19.0714 17.6357 19.3028C17.8671 19.5342 17.9971 19.8481 17.9971 20.1753V30.1733C17.9971 30.5005 17.8671 30.8144 17.6357 31.0458C17.4043 31.2772 17.0905 31.4072 16.7632 31.4072H14.501C14.1738 31.4072 13.8599 31.2772 13.6285 31.0458C13.3971 30.8144 13.2671 30.5005 13.2671 30.1733Z" fill="#424242"/>
</svg>
