<svg width="20" height="20" viewBox="0 0 20 20" fill="none" xmlns="http://www.w3.org/2000/svg">
<path d="M5.5 13.3337C5.5 13.6098 5.72386 13.8337 6 13.8337C6.27614 13.8337 6.5 13.6098 6.5 13.3337H5.5ZM6.5 6.66699C6.5 6.39085 6.27614 6.16699 6 6.16699C5.72386 6.16699 5.5 6.39085 5.5 6.66699L6.5 6.66699ZM14.5 6.66699C14.5 6.39085 14.2761 6.16699 14 6.16699C13.7239 6.16699 13.5 6.39085 13.5 6.66699L14.5 6.66699ZM13.5 13.3337C13.5 13.6098 13.7239 13.8337 14 13.8337C14.2761 13.8337 14.5 13.6098 14.5 13.3337H13.5ZM6.5 13.3337L6.5 6.66699L5.5 6.66699L5.5 13.3337H6.5ZM13.5 6.66699L13.5 13.3337H14.5V6.66699L13.5 6.66699Z" fill="black"/>
<path d="M14.5 13.333C14.5 13.0569 14.2761 12.833 14 12.833C13.7239 12.833 13.5 13.0569 13.5 13.333H14.5ZM6.5 13.333C6.5 13.0569 6.27614 12.833 6 12.833C5.72386 12.833 5.5 13.0569 5.5 13.333H6.5ZM13.5 13.333C13.5 13.5939 13.2755 13.9647 12.6048 14.3C11.964 14.6204 11.0438 14.833 10 14.833V15.833C11.1654 15.833 12.2451 15.5979 13.052 15.1944C13.829 14.8059 14.5 14.1767 14.5 13.333H13.5ZM10 14.833C8.95622 14.833 8.03598 14.6204 7.39518 14.3C6.72447 13.9647 6.5 13.5939 6.5 13.333H5.5C5.5 14.1767 6.17096 14.8059 6.94797 15.1944C7.75488 15.5979 8.83464 15.833 10 15.833V14.833Z" fill="black"/>
<path d="M14.5 10C14.5 9.72386 14.2761 9.5 14 9.5C13.7239 9.5 13.5 9.72386 13.5 10H14.5ZM6.5 10C6.5 9.72386 6.27614 9.5 6 9.5C5.72386 9.5 5.5 9.72386 5.5 10H6.5ZM13.5 10C13.5 10.2609 13.2755 10.6316 12.6048 10.967C11.964 11.2874 11.0438 11.5 10 11.5V12.5C11.1654 12.5 12.2451 12.2649 13.052 11.8614C13.829 11.4729 14.5 10.8437 14.5 10H13.5ZM10 11.5C8.95622 11.5 8.03598 11.2874 7.39518 10.967C6.72447 10.6316 6.5 10.2609 6.5 10H5.5C5.5 10.8437 6.17096 11.4729 6.94797 11.8614C7.75488 12.2649 8.83464 12.5 10 12.5V11.5Z" fill="black"/>
<path d="M13.5 6.66699C13.5 6.92786 13.2755 7.29864 12.6048 7.63399C11.964 7.95439 11.0438 8.16699 10 8.16699V9.16699C11.1654 9.16699 12.2451 8.93188 13.052 8.52842C13.829 8.13991 14.5 7.51069 14.5 6.66699H13.5ZM10 8.16699C8.95622 8.16699 8.03598 7.95439 7.39518 7.63399C6.72447 7.29864 6.5 6.92786 6.5 6.66699H5.5C5.5 7.51069 6.17096 8.13991 6.94797 8.52842C7.75488 8.93188 8.83464 9.16699 10 9.16699V8.16699ZM6.5 6.66699C6.5 6.40612 6.72447 6.03534 7.39518 5.69999C8.03598 5.37959 8.95622 5.16699 10 5.16699V4.16699C8.83464 4.16699 7.75488 4.40211 6.94797 4.80556C6.17096 5.19407 5.5 5.82329 5.5 6.66699H6.5ZM10 5.16699C11.0438 5.16699 11.964 5.37959 12.6048 5.69999C13.2755 6.03534 13.5 6.40612 13.5 6.66699H14.5C14.5 5.82329 13.829 5.19407 13.052 4.80556C12.2451 4.40211 11.1654 4.16699 10 4.16699V5.16699Z" fill="black"/>
</svg>
