<svg width="25" height="24" viewBox="0 0 25 24" fill="none" xmlns="http://www.w3.org/2000/svg">
<circle cx="12.5219" cy="11.8696" r="11.8696" fill="#EFC41A"/>
<g clip-path="url(#clip0_5714_30967)">
<path fill-rule="evenodd" clip-rule="evenodd" d="M13.0977 5.52203C16.2844 5.52203 18.8676 8.10523 18.8676 11.292H18.2906C18.2906 9.91471 17.7435 8.59387 16.7696 7.62C15.7958 6.64614 14.4749 6.09903 13.0977 6.09903V5.52203ZM13.0977 7.25301C14.1689 7.25301 15.1962 7.67854 15.9536 8.43599C16.7111 9.19344 17.1366 10.2208 17.1366 11.292H16.5596C16.5596 10.3738 16.1949 9.49323 15.5456 8.84399C14.8964 8.19475 14.0158 7.83 13.0977 7.83V7.25301ZM13.0977 8.98399C13.7098 8.98399 14.2968 9.22715 14.7296 9.65998C15.1625 10.0928 15.4056 10.6798 15.4056 11.292H14.8286C14.8286 10.8329 14.6463 10.3926 14.3216 10.068C13.997 9.74335 13.5567 9.56098 13.0977 9.56098V8.98399Z" fill="white"/>
<path fill-rule="evenodd" clip-rule="evenodd" d="M14.7545 14.8394C14.2929 15.2127 13.6859 14.8018 12.5636 13.8989L10.1085 11.4755C9.58113 10.8304 9.12012 10.1547 9.53498 9.66142L10.3047 8.99499L10.6099 8.7515C10.662 8.6991 10.7032 8.63687 10.7311 8.56843C10.759 8.49999 10.773 8.4267 10.7724 8.3528C10.7717 8.2789 10.7564 8.20586 10.7274 8.13791C10.6983 8.06997 10.656 8.00847 10.603 7.95698L7.72495 5.10952C7.67297 5.05722 7.61111 5.01579 7.54296 4.98764C7.4748 4.95949 7.40173 4.94519 7.328 4.94556C7.25426 4.94594 7.18134 4.96099 7.11348 4.98983C7.04562 5.01867 6.98418 5.06074 6.93274 5.11356L6.71348 5.36975L6.04417 6.2035C5.52776 6.91724 4.55553 9.90203 9.30591 14.7084C14.2357 19.6959 17.449 18.8119 18.1685 18.2165L19.251 17.3441C19.3554 17.2376 19.4135 17.0941 19.4125 16.9449C19.4115 16.7957 19.3516 16.653 19.2458 16.5478L16.3654 13.6998C16.3134 13.6478 16.2516 13.6066 16.1836 13.5786C16.1156 13.5507 16.0426 13.5366 15.9691 13.537C15.8955 13.5375 15.8228 13.5526 15.7552 13.5815C15.6875 13.6103 15.6262 13.6523 15.5749 13.705L14.7545 14.8388V14.8394Z" fill="black"/>
</g>
<defs>
<clipPath id="clip0_5714_30967">
<rect width="13.8478" height="13.8478" fill="white" transform="translate(5.59766 4.94568)"/>
</clipPath>
</defs>
</svg>
