<svg width="36" height="36" viewBox="0 0 36 36" fill="none" xmlns="http://www.w3.org/2000/svg">
<path d="M34.3125 3.9375V6.1875H22.5L21.375 8.4375H18H14.625H12.375V6.1875H14.625H18H20.25L21.375 3.9375H34.3125Z" fill="#ED1C24"/>
<path d="M33.1875 29.8125C33.4856 29.8134 33.7712 29.9322 33.982 30.143C34.1928 30.3538 34.3116 30.6394 34.3125 30.9375C34.3103 31.2352 34.1911 31.5201 33.9806 31.7306C33.7701 31.9411 33.4852 32.0603 33.1875 32.0625H27.5625C27.2644 32.0616 26.9788 31.9428 26.768 31.732C26.5572 31.5212 26.4384 31.2356 26.4375 30.9375C26.4397 30.6398 26.5589 30.3549 26.7694 30.1444C26.9799 29.9339 27.2648 29.8147 27.5625 29.8125H33.1875Z" fill="#3D9AE2"/>
<path d="M33.1875 27.5625V29.8125H27.5625V27.5625C27.5625 26.9658 27.3254 26.3935 26.9035 25.9715C26.4815 25.5496 25.9092 25.3125 25.3125 25.3125H20.8125V19.6875H25.3125C27.4004 19.6897 29.4021 20.5201 30.8785 21.9965C32.3549 23.4729 33.1853 25.4746 33.1875 27.5625Z" fill="#5AAAE7"/>
<path d="M22.005 14.5575C22.2407 14.7935 22.4012 15.094 22.4662 15.4212C22.5312 15.7483 22.4977 16.0874 22.3701 16.3956C22.2425 16.7037 22.0265 16.9672 21.7492 17.1526C21.472 17.3381 21.146 17.4372 20.8125 17.4375H11.8125C11.3649 17.4375 10.9357 17.2597 10.6193 16.9432C10.3028 16.6268 10.125 16.1976 10.125 15.75C10.125 15.3024 10.3028 14.8732 10.6193 14.5568C10.9357 14.2403 11.3649 14.0625 11.8125 14.0625H20.8125C21.0341 14.0625 21.2535 14.1062 21.4581 14.1911C21.6627 14.2761 21.8486 14.4006 22.005 14.5575Z" fill="#3D9AE2"/>
<path d="M20.8125 19.6875V25.3125H11.8125V19.6875V17.4375H20.8125V19.6875Z" fill="#78B9EB"/>
<path d="M19.125 10.6875V14.0625H13.5V10.6875H14.625H18H19.125Z" fill="#5AAAE7"/>
<path d="M18 8.4375H14.625V10.6875H18V8.4375Z" fill="#FF5023"/>
<path d="M18 3.9375H14.625V6.1875H18V3.9375Z" fill="#FF5023"/>
<path d="M11.8125 19.6875H9.5625V25.3125H11.8125V19.6875Z" fill="#5AAAE7"/>
<path d="M9.5625 25.3125V25.875H6.1875V19.125H9.5625V19.6875V25.3125Z" fill="#3D9AE2"/>
<path d="M6.1875 19.125V25.875V27H1.6875V18H6.1875V19.125Z" fill="#5AAAE7"/>
<path d="M18 8.4375H14.625V9.5625H18V8.4375Z" fill="#ED1C24"/>
<path d="M20.8125 17.4375H11.8125V18.5625H20.8125V17.4375Z" fill="#5AAAE7"/>
<path d="M4.5 19.6875H3.375V20.8125H4.5V19.6875Z" fill="#96C8EF"/>
<path d="M14.625 22.5H13.5V23.625H14.625V22.5Z" fill="#96C8EF"/>
<path d="M18 22.5H15.75V23.625H18V22.5Z" fill="#96C8EF"/>
</svg>
