<svg width="24" height="24" viewBox="0 0 24 24" fill="none" xmlns="http://www.w3.org/2000/svg">
<path d="M3.5 21C3.5 21.2761 3.72386 21.5 4 21.5C4.27614 21.5 4.5 21.2761 4.5 21H3.5ZM19.5 21C19.5 21.2761 19.7239 21.5 20 21.5C20.2761 21.5 20.5 21.2761 20.5 21H19.5ZM4.5 21C4.5 19.8539 5.24467 18.7406 6.60815 17.8885C7.96457 17.0407 9.86958 16.5 12 16.5V15.5C9.71214 15.5 7.61715 16.0786 6.07815 17.0405C4.54619 17.9979 3.5 19.3847 3.5 21H4.5ZM12 16.5C14.1304 16.5 16.0354 17.0407 17.3919 17.8885C18.7553 18.7406 19.5 19.8539 19.5 21H20.5C20.5 19.3847 19.4538 17.9979 17.9219 17.0405C16.3829 16.0786 14.2879 15.5 12 15.5V16.5Z" fill="white" fill-opacity="0.6"/>
<path d="M16.5 8C16.5 10.4853 14.4853 12.5 12 12.5V13.5C15.0376 13.5 17.5 11.0376 17.5 8H16.5ZM12 12.5C9.51472 12.5 7.5 10.4853 7.5 8H6.5C6.5 11.0376 8.96243 13.5 12 13.5V12.5ZM7.5 8C7.5 5.51472 9.51472 3.5 12 3.5V2.5C8.96243 2.5 6.5 4.96243 6.5 8H7.5ZM12 3.5C14.4853 3.5 16.5 5.51472 16.5 8H17.5C17.5 4.96243 15.0376 2.5 12 2.5V3.5Z" fill="white" fill-opacity="0.6"/>
</svg>
