<svg width="32" height="32" viewBox="0 0 32 32" fill="none" xmlns="http://www.w3.org/2000/svg">
<path d="M8.75565 7.91078H19.6669C21.8786 7.91078 23.6866 9.71873 23.6866 11.9306V23.2044H24.4068C24.9887 23.2044 24.9887 24.089 24.4068 24.089C18.8023 24.089 13.1977 24.089 7.59315 24.089C7.01127 24.089 7.01127 23.2044 7.59315 23.2044H8.31344V8.3532C8.31344 8.10893 8.51137 7.91078 8.75565 7.91078ZM17.5205 17.5252H18.9513C19.1956 17.5252 19.3937 17.7233 19.3937 17.9676V19.3986C19.3937 19.6429 19.1956 19.8408 18.9513 19.8408H17.5205C17.2762 19.8408 17.0781 19.6429 17.0781 19.3986V17.9676C17.0781 17.7233 17.2762 17.5252 17.5205 17.5252ZM18.5091 18.4098H17.9627V18.9562H18.5091V18.4098ZM20.293 17.5252H21.724C21.9681 17.5252 22.1662 17.7233 22.1662 17.9676V19.3986C22.1662 19.6429 21.9681 19.8408 21.724 19.8408H20.293C20.0488 19.8408 19.8506 19.6429 19.8506 19.3986V17.9676C19.8506 17.7233 20.0488 17.5252 20.293 17.5252ZM21.2816 18.4098H20.7352V18.9562H21.2816V18.4098ZM17.5205 14.1491H18.9513C19.1956 14.1491 19.3937 14.3472 19.3937 14.5913V16.0223C19.3937 16.2666 19.1956 16.4647 18.9513 16.4647H17.5205C17.2762 16.4647 17.0781 16.2666 17.0781 16.0223V14.5913C17.0781 14.3472 17.2762 14.1491 17.5205 14.1491ZM18.5091 15.0337H17.9627V15.5801H18.5091V15.0337ZM20.293 14.1491H21.724C21.9681 14.1491 22.1662 14.3472 22.1662 14.5913V16.0223C22.1662 16.2666 21.9681 16.4647 21.724 16.4647H20.293C20.0488 16.4647 19.8506 16.2666 19.8506 16.0223V14.5913C19.8506 14.3472 20.0488 14.1491 20.293 14.1491ZM21.2816 15.0337H20.7352V15.5801H21.2816V15.0337ZM17.5205 10.7728H18.9513C19.1956 10.7728 19.3937 10.9709 19.3937 11.2152V12.6462C19.3937 12.8905 19.1956 13.0884 18.9513 13.0884H17.5205C17.2762 13.0884 17.0781 12.8905 17.0781 12.6462V11.2152C17.0781 10.9709 17.2762 10.7728 17.5205 10.7728ZM18.5091 11.6574H17.9627V12.2038H18.5091V11.6574ZM20.293 10.7728H21.724C21.9681 10.7728 22.1662 10.9709 22.1662 11.2152V12.6462C22.1662 12.8905 21.9681 13.0884 21.724 13.0884H20.293C20.0488 13.0884 19.8506 12.8905 19.8506 12.6462V11.2152C19.8506 10.9709 20.0488 10.7728 20.293 10.7728ZM21.2816 11.6574H20.7352V12.2038H21.2816V11.6574ZM10.2762 17.5252H11.7072C11.9512 17.5252 12.1494 17.7233 12.1494 17.9676V19.3986C12.1494 19.6429 11.9512 19.8408 11.7072 19.8408H10.2762C10.0319 19.8408 9.83374 19.6429 9.83374 19.3986V17.9676C9.83374 17.7233 10.0319 17.5252 10.2762 17.5252ZM11.2648 18.4098H10.7184V18.9562H11.2648V18.4098ZM13.0487 17.5252H14.4797C14.7238 17.5252 14.9219 17.7233 14.9219 17.9676V19.3986C14.9219 19.6429 14.7238 19.8408 14.4797 19.8408H13.0487C12.8044 19.8408 12.6063 19.6429 12.6063 19.3986V17.9676C12.6063 17.7233 12.8044 17.5252 13.0487 17.5252ZM14.0373 18.4098H13.4909V18.9562H14.0373V18.4098ZM10.2762 14.1491H11.7072C11.9512 14.1491 12.1494 14.3472 12.1494 14.5913V16.0223C12.1494 16.2666 11.9512 16.4647 11.7072 16.4647H10.2762C10.0319 16.4647 9.83374 16.2666 9.83374 16.0223V14.5913C9.83374 14.3472 10.0319 14.1491 10.2762 14.1491ZM11.2648 15.0337H10.7184V15.5801H11.2648V15.0337ZM13.0487 14.1491H14.4797C14.7238 14.1491 14.9219 14.3472 14.9219 14.5913V16.0223C14.9219 16.2666 14.7238 16.4647 14.4797 16.4647H13.0487C12.8044 16.4647 12.6063 16.2666 12.6063 16.0223V14.5913C12.6063 14.3472 12.8044 14.1491 13.0487 14.1491ZM14.0373 15.0337H13.4909V15.5801H14.0373V15.0337ZM10.2762 10.7728H11.7072C11.9512 10.7728 12.1494 10.9709 12.1494 11.2152V12.6462C12.1494 12.8905 11.9512 13.0884 11.7072 13.0884H10.2762C10.0319 13.0884 9.83374 12.8905 9.83374 12.6462V11.2152C9.83374 10.9709 10.0319 10.7728 10.2762 10.7728ZM11.2648 11.6574H10.7184V12.2038H11.2648V11.6574ZM13.0487 10.7728H14.4797C14.7238 10.7728 14.9219 10.9709 14.9219 11.2152V12.6462C14.9219 12.8905 14.7238 13.0884 14.4797 13.0884H13.0487C12.8044 13.0884 12.6063 12.8905 12.6063 12.6462V11.2152C12.6063 10.9709 12.8044 10.7728 13.0487 10.7728ZM14.0373 11.6574H13.4909V12.2038H14.0373V11.6574ZM16.4424 8.79541V23.2044H22.8021V11.9306C22.8021 10.2073 21.3903 8.79541 19.6669 8.79541H16.4424ZM15.5578 8.79541H9.19807V23.2044H15.5578V8.79541Z" fill="#061F48" fill-opacity="0.7"/>
</svg>
