<svg width="414" height="171" viewBox="0 0 414 171" fill="none" xmlns="http://www.w3.org/2000/svg">
<path d="M387.734 29.6956H356.026C356.026 29.6956 363.112 19.4302 368.691 19.4302C374.27 19.4302 375.925 26.249 375.925 26.249C375.925 26.249 379.868 23.0566 383.519 23.6269C387.17 24.1972 387.734 29.6956 387.734 29.6956Z" fill="#EBEBEB"/>
<path d="M176.047 13.8822H134.315C134.315 13.8822 141.488 0.201129 149.261 0.00276252C157.035 -0.195604 161.138 10.355 161.138 10.355C161.138 10.355 173.22 0.647454 176.047 13.8822Z" fill="#EBEBEB"/>
<path d="M296.151 81.2331H267.989C267.989 81.2331 272.831 71.9967 278.075 71.8603C283.319 71.724 286.084 78.8527 286.084 78.8527C286.084 78.8527 294.248 72.3005 296.151 81.2331Z" fill="#EBEBEB"/>
<path d="M204.922 28.4558H176.76C176.76 28.4558 181.595 19.2194 186.845 19.0768C192.096 18.9342 194.854 26.0692 194.854 26.0692C194.854 26.0692 203.019 19.5231 204.922 28.4558Z" fill="#EBEBEB"/>
<path d="M184.626 171.8H219.03L219.03 41.3248H184.626V171.8Z" fill="#EBEBEB"/>
<path d="M184.626 41.3188L214.133 41.3188V32.6651H184.626V41.3188Z" fill="#C7C7C7"/>
<path d="M188.395 143.378H215.255V45.838H188.395V143.378Z" fill="#DBDBDB"/>
<path d="M188.395 57.4541H215.255V55.1481H188.395V57.4541Z" fill="white"/>
<path d="M188.395 67.001H215.255V64.695H188.395V67.001Z" fill="white"/>
<path d="M188.395 76.5474H215.255V74.2414H188.395V76.5474Z" fill="white"/>
<path d="M188.395 86.1001H215.255V83.7941H188.395V86.1001Z" fill="white"/>
<path d="M188.395 95.6401H215.255V93.3341H188.395V95.6401Z" fill="white"/>
<path d="M188.395 105.187H215.255V102.881H188.395V105.187Z" fill="white"/>
<path d="M188.395 114.739H215.255V112.433H188.395V114.739Z" fill="white"/>
<path d="M188.395 124.285H215.255V121.979H188.395V124.285Z" fill="white"/>
<path d="M188.395 133.832H215.255V131.526H188.395V133.832Z" fill="white"/>
<path d="M188.395 143.378H215.255V141.072H188.395V143.378Z" fill="white"/>
<path d="M163.078 171.8H184.626L184.626 41.3248H163.078V171.8Z" fill="#DBDBDB"/>
<path d="M166.302 41.3188H184.62V32.6651H166.302V41.3188Z" fill="#A6A6A6"/>
<path d="M165.087 143.378H181.657V45.838H165.087V143.378Z" fill="#C7C7C7"/>
<path d="M165.087 57.4541H181.657V55.1481H165.087V57.4541Z" fill="white"/>
<path d="M165.087 67.001H181.657V64.695H165.087V67.001Z" fill="white"/>
<path d="M165.087 76.5474H181.657V74.2414H165.087V76.5474Z" fill="white"/>
<path d="M165.087 86.1001H181.657V83.7941H165.087V86.1001Z" fill="white"/>
<path d="M165.087 95.6401H181.657V93.3341H165.087V95.6401Z" fill="white"/>
<path d="M165.087 105.187H181.657V102.881H165.087V105.187Z" fill="white"/>
<path d="M165.087 114.739H181.657V112.433H165.087V114.739Z" fill="white"/>
<path d="M165.087 124.285H181.657V121.979H165.087V124.285Z" fill="white"/>
<path d="M165.087 133.832H181.657V131.526H165.087V133.832Z" fill="white"/>
<path d="M165.087 143.378H181.657V141.072H165.087V143.378Z" fill="white"/>
<path d="M362.728 8.78662H330.977V171.8H362.728V8.78662Z" fill="#EBEBEB"/>
<path d="M330.971 8.79297L363.484 8.79297V5.54472L330.971 5.54472V8.79297Z" fill="#C7C7C7"/>
<path d="M359.852 13.5718H356.635V171.8H359.852V13.5718Z" fill="white"/>
<path d="M354.155 13.5718H350.938V171.8H354.155V13.5718Z" fill="white"/>
<path d="M348.457 13.5718H345.24V171.8H348.457V13.5718Z" fill="white"/>
<path d="M342.76 13.5718H339.543V171.8H342.76V13.5718Z" fill="white"/>
<path d="M337.064 13.5718H333.847V171.8H337.064V13.5718Z" fill="white"/>
<path d="M356.634 24.0796H359.852V17.6699H356.634V24.0796Z" fill="#EBEBEB"/>
<path d="M350.937 24.0796H354.154V17.6699H350.937V24.0796Z" fill="#EBEBEB"/>
<path d="M345.24 24.0796H348.457V17.6699H345.24V24.0796Z" fill="#EBEBEB"/>
<path d="M339.538 24.0796H342.755V17.6699H339.538V24.0796Z" fill="#EBEBEB"/>
<path d="M333.84 24.0796H337.058V17.6699H333.84V24.0796Z" fill="#EBEBEB"/>
<path d="M356.634 34.4941H359.852V28.0844H356.634V34.4941Z" fill="#EBEBEB"/>
<path d="M350.937 34.4941H354.154V28.0844H350.937V34.4941Z" fill="#EBEBEB"/>
<path d="M345.24 34.4941H348.457V28.0844H345.24V34.4941Z" fill="#EBEBEB"/>
<path d="M339.538 34.4941H342.755V28.0844H339.538V34.4941Z" fill="#EBEBEB"/>
<path d="M333.84 34.4941H337.058V28.0844H333.84V34.4941Z" fill="#EBEBEB"/>
<path d="M356.634 44.9082H359.852V38.4985H356.634V44.9082Z" fill="#EBEBEB"/>
<path d="M350.937 44.9082H354.154V38.4985H350.937V44.9082Z" fill="#EBEBEB"/>
<path d="M345.241 44.9082H348.458V38.4985H345.241V44.9082Z" fill="#EBEBEB"/>
<path d="M339.538 44.9082H342.755V38.4985H339.538V44.9082Z" fill="#EBEBEB"/>
<path d="M333.84 44.9082H337.058V38.4985H333.84V44.9082Z" fill="#EBEBEB"/>
<path d="M356.634 55.3223H359.852V48.9126H356.634V55.3223Z" fill="#EBEBEB"/>
<path d="M350.937 55.3223H354.154V48.9126H350.937V55.3223Z" fill="#EBEBEB"/>
<path d="M345.24 55.3223H348.457V48.9126H345.24V55.3223Z" fill="#EBEBEB"/>
<path d="M339.538 55.3223H342.755V48.9126H339.538V55.3223Z" fill="#EBEBEB"/>
<path d="M333.84 55.3223H337.058V48.9126H333.84V55.3223Z" fill="#EBEBEB"/>
<path d="M356.634 65.7368H359.852V59.3271H356.634V65.7368Z" fill="#EBEBEB"/>
<path d="M350.937 65.7368H354.154V59.3271H350.937V65.7368Z" fill="#EBEBEB"/>
<path d="M345.24 65.7368H348.457V59.3271H345.24V65.7368Z" fill="#EBEBEB"/>
<path d="M339.538 65.7368H342.755V59.3271H339.538V65.7368Z" fill="#EBEBEB"/>
<path d="M333.84 65.7368H337.058V59.3271H333.84V65.7368Z" fill="#EBEBEB"/>
<path d="M356.634 76.1572H359.852V69.7475H356.634V76.1572Z" fill="#EBEBEB"/>
<path d="M350.937 76.1572H354.154V69.7475H350.937V76.1572Z" fill="#EBEBEB"/>
<path d="M345.24 76.1572H348.457V69.7475H345.24V76.1572Z" fill="#EBEBEB"/>
<path d="M339.538 76.1572H342.755V69.7475H339.538V76.1572Z" fill="#EBEBEB"/>
<path d="M333.84 76.1572H337.058V69.7475H333.84V76.1572Z" fill="#EBEBEB"/>
<path d="M356.634 86.5713H359.852V80.1616H356.634V86.5713Z" fill="#EBEBEB"/>
<path d="M350.937 86.5713H354.154V80.1616H350.937V86.5713Z" fill="#EBEBEB"/>
<path d="M345.241 86.5713H348.458V80.1616H345.241V86.5713Z" fill="#EBEBEB"/>
<path d="M339.538 86.5713H342.755V80.1616H339.538V86.5713Z" fill="#EBEBEB"/>
<path d="M333.84 86.5713H337.058V80.1616H333.84V86.5713Z" fill="#EBEBEB"/>
<path d="M356.634 96.9854H359.852V90.5756H356.634V96.9854Z" fill="#EBEBEB"/>
<path d="M350.937 96.9854H354.154V90.5756H350.937V96.9854Z" fill="#EBEBEB"/>
<path d="M345.24 96.9854H348.457V90.5756H345.24V96.9854Z" fill="#EBEBEB"/>
<path d="M339.538 96.9854H342.755V90.5756H339.538V96.9854Z" fill="#EBEBEB"/>
<path d="M333.84 96.9854H337.058V90.5756H333.84V96.9854Z" fill="#EBEBEB"/>
<path d="M356.634 107.4H359.852V100.99H356.634V107.4Z" fill="#EBEBEB"/>
<path d="M350.937 107.4H354.154V100.99H350.937V107.4Z" fill="#EBEBEB"/>
<path d="M345.24 107.4H348.457V100.99H345.24V107.4Z" fill="#EBEBEB"/>
<path d="M339.538 107.4H342.755V100.99H339.538V107.4Z" fill="#EBEBEB"/>
<path d="M333.84 107.4H337.058V100.99H333.84V107.4Z" fill="#EBEBEB"/>
<path d="M356.634 117.814H359.852V111.404H356.634V117.814Z" fill="#EBEBEB"/>
<path d="M350.937 117.814H354.154V111.404H350.937V117.814Z" fill="#EBEBEB"/>
<path d="M345.241 117.814H348.458V111.404H345.241V117.814Z" fill="#EBEBEB"/>
<path d="M339.538 117.814H342.755V111.404H339.538V117.814Z" fill="#EBEBEB"/>
<path d="M333.84 117.814H337.058V111.404H333.84V117.814Z" fill="#EBEBEB"/>
<path d="M356.634 128.228H359.852V121.818H356.634V128.228Z" fill="#EBEBEB"/>
<path d="M350.937 128.228H354.154V121.818H350.937V128.228Z" fill="#EBEBEB"/>
<path d="M345.24 128.228H348.457V121.818H345.24V128.228Z" fill="#EBEBEB"/>
<path d="M339.538 128.228H342.755V121.818H339.538V128.228Z" fill="#EBEBEB"/>
<path d="M333.84 128.228H337.058V121.818H333.84V128.228Z" fill="#EBEBEB"/>
<path d="M356.634 138.643H359.852V132.233H356.634V138.643Z" fill="#EBEBEB"/>
<path d="M350.937 138.643H354.154V132.233H350.937V138.643Z" fill="#EBEBEB"/>
<path d="M345.24 138.643H348.457V132.233H345.24V138.643Z" fill="#EBEBEB"/>
<path d="M339.538 138.643H342.755V132.233H339.538V138.643Z" fill="#EBEBEB"/>
<path d="M333.84 138.643H337.058V132.233H333.84V138.643Z" fill="#EBEBEB"/>
<path d="M356.634 149.05H359.852V142.641H356.634V149.05Z" fill="#EBEBEB"/>
<path d="M350.937 149.05H354.154V142.641H350.937V149.05Z" fill="#EBEBEB"/>
<path d="M345.24 149.05H348.457V142.641H345.24V149.05Z" fill="#EBEBEB"/>
<path d="M339.538 149.05H342.755V142.641H339.538V149.05Z" fill="#EBEBEB"/>
<path d="M333.84 149.05H337.058V142.641H333.84V149.05Z" fill="#EBEBEB"/>
<path d="M359.852 153.055H356.635V171.794H359.852V153.055Z" fill="#EBEBEB"/>
<path d="M354.155 153.055H350.938V171.794H354.155V153.055Z" fill="#EBEBEB"/>
<path d="M348.457 153.055H345.24V171.794H348.457V153.055Z" fill="#EBEBEB"/>
<path d="M342.76 153.055H339.543V171.794H342.76V153.055Z" fill="#EBEBEB"/>
<path d="M337.064 153.055H333.847V171.794H337.064V153.055Z" fill="#EBEBEB"/>
<path d="M330.97 8.78662H310.588V171.8H330.97V8.78662Z" fill="#DBDBDB"/>
<path d="M309.714 8.79297L330.977 8.79297V5.54472L309.714 5.54472V8.79297Z" fill="#C7C7C7"/>
<path d="M328.107 13.5718H324.89V171.8H328.107V13.5718Z" fill="#C7C7C7"/>
<path d="M322.404 13.5718H319.187V171.8H322.404V13.5718Z" fill="#C7C7C7"/>
<path d="M316.707 13.5718H313.489V171.8H316.707V13.5718Z" fill="#C7C7C7"/>
<path d="M324.882 24.0796H328.1V17.6699H324.882V24.0796Z" fill="#DBDBDB"/>
<path d="M319.193 24.0796H322.41V17.6699H319.193V24.0796Z" fill="#DBDBDB"/>
<path d="M313.49 24.0796H316.707V17.6699H313.49V24.0796Z" fill="#DBDBDB"/>
<path d="M324.882 34.4941H328.1V28.0844H324.882V34.4941Z" fill="#DBDBDB"/>
<path d="M319.193 34.4941H322.41V28.0844H319.193V34.4941Z" fill="#DBDBDB"/>
<path d="M313.49 34.4941H316.707V28.0844H313.49V34.4941Z" fill="#DBDBDB"/>
<path d="M324.883 44.9082H328.101V38.4985H324.883V44.9082Z" fill="#DBDBDB"/>
<path d="M319.193 44.9082H322.41V38.4985H319.193V44.9082Z" fill="#DBDBDB"/>
<path d="M313.49 44.9082H316.707V38.4985H313.49V44.9082Z" fill="#DBDBDB"/>
<path d="M324.882 55.3223H328.1V48.9126H324.882V55.3223Z" fill="#DBDBDB"/>
<path d="M319.193 55.3223H322.41V48.9126H319.193V55.3223Z" fill="#DBDBDB"/>
<path d="M313.49 55.3223H316.707V48.9126H313.49V55.3223Z" fill="#DBDBDB"/>
<path d="M324.882 65.7368H328.1V59.3271H324.882V65.7368Z" fill="#DBDBDB"/>
<path d="M319.193 65.7368H322.41V59.3271H319.193V65.7368Z" fill="#DBDBDB"/>
<path d="M313.49 65.7368H316.707V59.3271H313.49V65.7368Z" fill="#DBDBDB"/>
<path d="M324.882 76.1572H328.1V69.7475H324.882V76.1572Z" fill="#DBDBDB"/>
<path d="M319.193 76.1572H322.41V69.7475H319.193V76.1572Z" fill="#DBDBDB"/>
<path d="M313.49 76.1572H316.707V69.7475H313.49V76.1572Z" fill="#DBDBDB"/>
<path d="M324.883 86.5713H328.101V80.1616H324.883V86.5713Z" fill="#DBDBDB"/>
<path d="M319.193 86.5713H322.41V80.1616H319.193V86.5713Z" fill="#DBDBDB"/>
<path d="M313.49 86.5713H316.707V80.1616H313.49V86.5713Z" fill="#DBDBDB"/>
<path d="M324.882 96.9854H328.1V90.5756H324.882V96.9854Z" fill="#DBDBDB"/>
<path d="M319.193 96.9854H322.41V90.5756H319.193V96.9854Z" fill="#DBDBDB"/>
<path d="M313.49 96.9854H316.707V90.5756H313.49V96.9854Z" fill="#DBDBDB"/>
<path d="M324.882 107.4H328.1V100.99H324.882V107.4Z" fill="#DBDBDB"/>
<path d="M319.193 107.4H322.41V100.99H319.193V107.4Z" fill="#DBDBDB"/>
<path d="M313.49 107.4H316.707V100.99H313.49V107.4Z" fill="#DBDBDB"/>
<path d="M324.883 117.814H328.101V111.404H324.883V117.814Z" fill="#DBDBDB"/>
<path d="M319.193 117.814H322.41V111.404H319.193V117.814Z" fill="#DBDBDB"/>
<path d="M313.49 117.814H316.707V111.404H313.49V117.814Z" fill="#DBDBDB"/>
<path d="M324.882 128.228H328.1V121.818H324.882V128.228Z" fill="#DBDBDB"/>
<path d="M319.193 128.228H322.41V121.818H319.193V128.228Z" fill="#DBDBDB"/>
<path d="M313.49 128.228H316.707V121.818H313.49V128.228Z" fill="#DBDBDB"/>
<path d="M324.882 138.643H328.1V132.233H324.882V138.643Z" fill="#DBDBDB"/>
<path d="M319.193 138.643H322.41V132.233H319.193V138.643Z" fill="#DBDBDB"/>
<path d="M313.49 138.643H316.707V132.233H313.49V138.643Z" fill="#DBDBDB"/>
<path d="M324.882 149.05H328.1V142.641H324.882V149.05Z" fill="#DBDBDB"/>
<path d="M319.193 149.05H322.41V142.641H319.193V149.05Z" fill="#DBDBDB"/>
<path d="M313.49 149.05H316.707V142.641H313.49V149.05Z" fill="#DBDBDB"/>
<path d="M328.107 153.055H324.89V171.794H328.107V153.055Z" fill="#DBDBDB"/>
<path d="M322.404 153.055H319.187V171.794H322.404V153.055Z" fill="#DBDBDB"/>
<path d="M316.707 153.055H313.489V171.794H316.707V153.055Z" fill="#DBDBDB"/>
<path d="M391.571 111.565H395.439V105.155H391.571V111.565Z" fill="#DBDBDB"/>
<path d="M391.571 121.979H395.439V115.57H391.571V121.979Z" fill="#DBDBDB"/>
<path d="M391.571 132.394H395.439V125.984H391.571V132.394Z" fill="#DBDBDB"/>
<path d="M391.571 142.808H395.439V136.398H391.571V142.808Z" fill="#DBDBDB"/>
<path d="M391.571 153.222H395.439V146.812H391.571V153.222Z" fill="#DBDBDB"/>
<path d="M391.571 163.636H395.439V157.227H391.571V163.636Z" fill="#DBDBDB"/>
<path d="M409.14 167.641H405.271V171.801H409.14V167.641Z" fill="#DBDBDB"/>
<path d="M402.284 167.641H398.422V171.801H402.284V167.641Z" fill="#DBDBDB"/>
<path d="M395.439 167.641H391.571V171.801H395.439V167.641Z" fill="#DBDBDB"/>
<path d="M152.485 78.5312H168.565V59.5377H152.485V78.5312Z" fill="#DBDBDB"/>
<path d="M142.281 79.2256H152.479V59.5315H142.281V79.2256Z" fill="#C7C7C7"/>
<path d="M141.612 79.2256H151.729V67.9187H141.612V79.2256Z" fill="#DBDBDB"/>
<path d="M135.295 79.2256H141.605V67.9187H135.295V79.2256Z" fill="#C7C7C7"/>
<path d="M148.722 171.8H174.727V77.2973H148.722V171.8Z" fill="#EBEBEB"/>
<path d="M163.58 84.6987H171.757V81.3575H163.58V84.6987Z" fill="white"/>
<path d="M153.118 84.6987H161.294V81.3575H153.118V84.6987Z" fill="white"/>
<path d="M163.58 90.3716H171.757V87.0303H163.58V90.3716Z" fill="white"/>
<path d="M153.118 90.3716H161.294V87.0303H153.118V90.3716Z" fill="white"/>
<path d="M163.581 96.0425H171.758V92.7012H163.581V96.0425Z" fill="white"/>
<path d="M153.118 96.0425H161.294V92.7012H153.118V96.0425Z" fill="white"/>
<path d="M163.58 101.722H171.757V98.3804H163.58V101.722Z" fill="white"/>
<path d="M153.118 101.722H161.294V98.3804H153.118V101.722Z" fill="white"/>
<path d="M163.58 107.394H171.757V104.052H163.58V107.394Z" fill="white"/>
<path d="M153.118 107.394H161.294V104.052H153.118V107.394Z" fill="white"/>
<path d="M163.581 113.065H171.758V109.724H163.581V113.065Z" fill="white"/>
<path d="M153.118 113.065H161.294V109.724H153.118V113.065Z" fill="white"/>
<path d="M163.581 118.737H171.758V115.396H163.581V118.737Z" fill="white"/>
<path d="M153.118 118.737H161.294V115.396H153.118V118.737Z" fill="white"/>
<path d="M163.58 124.403H171.757V121.062H163.58V124.403Z" fill="white"/>
<path d="M153.118 124.403H161.294V121.062H153.118V124.403Z" fill="white"/>
<path d="M163.581 130.075H171.758V126.734H163.581V130.075Z" fill="white"/>
<path d="M153.118 130.075H161.294V126.734H153.118V130.075Z" fill="white"/>
<path d="M163.581 135.747H171.758V132.406H163.581V135.747Z" fill="white"/>
<path d="M153.118 135.747H161.294V132.406H153.118V135.747Z" fill="white"/>
<path d="M163.581 141.419H171.758V138.078H163.581V141.419Z" fill="white"/>
<path d="M153.118 141.419H161.294V138.078H153.118V141.419Z" fill="white"/>
<path d="M163.581 147.091H171.758V143.75H163.581V147.091Z" fill="white"/>
<path d="M153.118 147.091H161.294V143.75H153.118V147.091Z" fill="white"/>
<path d="M163.581 152.77H171.758V149.428H163.581V152.77Z" fill="white"/>
<path d="M153.118 152.77H161.294V149.428H153.118V152.77Z" fill="white"/>
<path d="M163.581 158.441H171.758V155.1H163.581V158.441Z" fill="white"/>
<path d="M153.118 158.441H161.294V155.1H153.118V158.441Z" fill="white"/>
<path d="M127.658 171.8H148.729V77.2973H127.658L127.658 171.8Z" fill="#C7C7C7"/>
<path d="M136.485 155.101H129.771V158.442H136.485V155.101Z" fill="#EBEBEB"/>
<path d="M145.071 155.101H138.357V158.442H145.071V155.101Z" fill="#EBEBEB"/>
<path d="M136.485 149.429H129.771V152.77H136.485V149.429Z" fill="#EBEBEB"/>
<path d="M145.071 149.429H138.357V152.77H145.071V149.429Z" fill="#EBEBEB"/>
<path d="M136.485 143.757H129.771V147.098H136.485V143.757Z" fill="#EBEBEB"/>
<path d="M145.071 143.757H138.357V147.098H145.071V143.757Z" fill="#EBEBEB"/>
<path d="M136.485 138.084H129.771V141.426H136.485V138.084Z" fill="#EBEBEB"/>
<path d="M145.071 138.084H138.357V141.426H145.071V138.084Z" fill="#EBEBEB"/>
<path d="M136.485 132.413H129.771V135.754H136.485V132.413Z" fill="#EBEBEB"/>
<path d="M145.071 132.413H138.357V135.754H145.071V132.413Z" fill="#EBEBEB"/>
<path d="M136.485 126.74H129.771V130.081H136.485V126.74Z" fill="#EBEBEB"/>
<path d="M145.071 126.74H138.357V130.081H145.071V126.74Z" fill="#EBEBEB"/>
<path d="M136.485 121.068H129.771V124.409H136.485V121.068Z" fill="#EBEBEB"/>
<path d="M145.071 121.068H138.357V124.409H145.071V121.068Z" fill="#EBEBEB"/>
<path d="M136.485 115.39H129.771V118.731H136.485V115.39Z" fill="#EBEBEB"/>
<path d="M145.071 115.39H138.357V118.731H145.071V115.39Z" fill="#EBEBEB"/>
<path d="M136.485 109.718H129.771V113.059H136.485V109.718Z" fill="#EBEBEB"/>
<path d="M145.071 109.718H138.357V113.059H145.071V109.718Z" fill="#EBEBEB"/>
<path d="M136.485 104.046H129.771V107.387H136.485V104.046Z" fill="#EBEBEB"/>
<path d="M145.071 104.046H138.357V107.387H145.071V104.046Z" fill="#EBEBEB"/>
<path d="M136.485 98.374H129.771V101.715H136.485V98.374Z" fill="#EBEBEB"/>
<path d="M145.071 98.374H138.357V101.715H145.071V98.374Z" fill="#EBEBEB"/>
<path d="M136.485 92.7021H129.771V96.0434H136.485V92.7021Z" fill="#EBEBEB"/>
<path d="M145.071 92.7021H138.357V96.0434H145.071V92.7021Z" fill="#EBEBEB"/>
<path d="M136.485 87.0298H129.771V90.371H136.485V87.0298Z" fill="#EBEBEB"/>
<path d="M145.071 87.0298H138.357V90.371H145.071V87.0298Z" fill="#EBEBEB"/>
<path d="M136.485 81.3579H129.771V84.6991H136.485V81.3579Z" fill="#EBEBEB"/>
<path d="M145.071 81.3579H138.357V84.6991H145.071V81.3579Z" fill="#EBEBEB"/>
<path d="M363.819 171.8H394.491V110.22H363.819V171.8Z" fill="#C7C7C7"/>
<path d="M384.238 119.32H389.668V115.545H384.238V119.32Z" fill="#DBDBDB"/>
<path d="M384.238 127.379H389.668V123.604H384.238V127.379Z" fill="#DBDBDB"/>
<path d="M384.238 135.438H389.668V131.662H384.238V135.438Z" fill="#DBDBDB"/>
<path d="M384.238 143.496H389.668V139.72H384.238V143.496Z" fill="#DBDBDB"/>
<path d="M384.238 151.555H389.668V147.78H384.238V151.555Z" fill="#DBDBDB"/>
<path d="M384.238 159.613H389.668V155.838H384.238V159.613Z" fill="#DBDBDB"/>
<path d="M384.238 167.678H389.668V163.903H384.238V167.678Z" fill="#DBDBDB"/>
<path d="M376.421 119.32H381.852V115.545H376.421V119.32Z" fill="#DBDBDB"/>
<path d="M376.421 127.379H381.852V123.604H376.421V127.379Z" fill="#DBDBDB"/>
<path d="M376.421 135.438H381.852V131.662H376.421V135.438Z" fill="#DBDBDB"/>
<path d="M376.421 143.496H381.852V139.72H376.421V143.496Z" fill="#DBDBDB"/>
<path d="M376.421 151.555H381.852V147.78H376.421V151.555Z" fill="#DBDBDB"/>
<path d="M376.421 159.613H381.852V155.838H376.421V159.613Z" fill="#DBDBDB"/>
<path d="M376.421 167.678H381.852V163.903H376.421V167.678Z" fill="#DBDBDB"/>
<path d="M368.636 119.32H374.066V115.545H368.636V119.32Z" fill="#DBDBDB"/>
<path d="M368.636 127.379H374.066V123.604H368.636V127.379Z" fill="#DBDBDB"/>
<path d="M368.636 135.438H374.066V131.662H368.636V135.438Z" fill="#DBDBDB"/>
<path d="M368.636 143.496H374.066V139.72H368.636V143.496Z" fill="#DBDBDB"/>
<path d="M368.636 151.555H374.066V147.78H368.636V151.555Z" fill="#DBDBDB"/>
<path d="M368.636 159.613H374.066V155.838H368.636V159.613Z" fill="#DBDBDB"/>
<path d="M368.636 167.678H374.066V163.903H368.636V167.678Z" fill="#DBDBDB"/>
<path d="M363.819 110.22H384.238V103.804H363.819V110.22Z" fill="#DBDBDB"/>
<path d="M363.819 103.804H376.763V99.8307H363.819V103.804Z" fill="#EBEBEB"/>
<path d="M342.302 171.8H363.818V110.22H342.302V171.8Z" fill="#A6A6A6"/>
<path d="M348.916 163.295H344.496V167.071H348.916V163.295Z" fill="#C7C7C7"/>
<path d="M348.916 155.237H344.496V159.012H348.916V155.237Z" fill="#C7C7C7"/>
<path d="M348.917 147.184H344.497V150.959H348.917V147.184Z" fill="#C7C7C7"/>
<path d="M348.916 139.125H344.496V142.901H348.916V139.125Z" fill="#C7C7C7"/>
<path d="M348.916 131.067H344.496V134.843H348.916V131.067Z" fill="#C7C7C7"/>
<path d="M348.917 123.009H344.497V126.784H348.917V123.009Z" fill="#C7C7C7"/>
<path d="M348.916 114.95H344.496V118.725H348.916V114.95Z" fill="#C7C7C7"/>
<path d="M355.276 163.295H350.856V167.071H355.276V163.295Z" fill="#C7C7C7"/>
<path d="M355.276 155.237H350.856V159.012H355.276V155.237Z" fill="#C7C7C7"/>
<path d="M355.276 147.184H350.856V150.959H355.276V147.184Z" fill="#C7C7C7"/>
<path d="M355.276 139.125H350.856V142.901H355.276V139.125Z" fill="#C7C7C7"/>
<path d="M355.276 131.067H350.856V134.843H355.276V131.067Z" fill="#C7C7C7"/>
<path d="M355.276 123.009H350.856V126.784H355.276V123.009Z" fill="#C7C7C7"/>
<path d="M355.276 114.95H350.856V118.725H355.276V114.95Z" fill="#C7C7C7"/>
<path d="M361.612 163.295H357.192V167.071H361.612V163.295Z" fill="#C7C7C7"/>
<path d="M361.612 155.237H357.192V159.012H361.612V155.237Z" fill="#C7C7C7"/>
<path d="M361.612 147.184H357.192V150.959H361.612V147.184Z" fill="#C7C7C7"/>
<path d="M361.612 139.125H357.192V142.901H361.612V139.125Z" fill="#C7C7C7"/>
<path d="M361.612 131.067H357.192V134.843H361.612V131.067Z" fill="#C7C7C7"/>
<path d="M361.612 123.009H357.192V126.784H361.612V123.009Z" fill="#C7C7C7"/>
<path d="M361.612 114.95H357.192V118.725H361.612V114.95Z" fill="#C7C7C7"/>
<path d="M345.557 110.22H363.812V103.804H345.557V110.22Z" fill="#C7C7C7"/>
<path d="M353.926 103.804H363.819V99.8307H353.926V103.804Z" fill="#DBDBDB"/>
<path d="M275.209 171.01H319.581V125.863H275.209V171.01Z" fill="#455A64"/>
<path d="M230.837 171.004H275.209V99.4681H230.837V171.004Z" fill="#455A64"/>
<path d="M230.837 99.4736H213.877V171.009H230.837V99.4736Z" fill="#37474F"/>
<path d="M261.213 109.132H269.953V105.357H261.213V109.132Z" fill="#263238"/>
<path d="M261.213 117.19H269.953V113.415H261.213V117.19Z" fill="#263238"/>
<path d="M261.213 125.243H269.953V121.468H261.213V125.243Z" fill="#263238"/>
<path d="M261.213 133.301H269.953V129.526H261.213V133.301Z" fill="#263238"/>
<path d="M261.213 141.36H269.953V137.585H261.213V141.36Z" fill="#263238"/>
<path d="M261.213 149.419H269.953V145.644H261.213V149.419Z" fill="#263238"/>
<path d="M261.213 157.478H269.953V153.702H261.213V157.478Z" fill="#263238"/>
<path d="M248.64 109.132H257.381V105.357H248.64V109.132Z" fill="#263238"/>
<path d="M248.64 117.19H257.381V113.415H248.64V117.19Z" fill="#263238"/>
<path d="M248.64 125.243H257.381V121.468H248.64V125.243Z" fill="#263238"/>
<path d="M248.64 133.301H257.381V129.526H248.64V133.301Z" fill="#263238"/>
<path d="M248.64 141.36H257.381V137.585H248.64V141.36Z" fill="#263238"/>
<path d="M248.64 149.419H257.381V145.644H248.64V149.419Z" fill="#263238"/>
<path d="M248.64 157.478H257.381V153.702H248.64V157.478Z" fill="#263238"/>
<path d="M236.1 109.132H244.841V105.357H236.1V109.132Z" fill="#263238"/>
<path d="M236.1 117.19H244.841V113.415H236.1V117.19Z" fill="#263238"/>
<path d="M236.1 125.243H244.841V121.468H236.1V125.243Z" fill="#263238"/>
<path d="M236.1 133.301H244.841V129.526H236.1V133.301Z" fill="#263238"/>
<path d="M236.1 141.36H244.841V137.585H236.1V141.36Z" fill="#263238"/>
<path d="M236.1 149.419H244.841V145.644H236.1V149.419Z" fill="#263238"/>
<path d="M236.1 157.478H244.841V153.702H236.1V157.478Z" fill="#263238"/>
<path d="M305.578 133.301H314.318V129.526H305.578V133.301Z" fill="#263238"/>
<path d="M305.578 141.36H314.318V137.585H305.578V141.36Z" fill="#263238"/>
<path d="M305.578 149.419H314.318V145.644H305.578V149.419Z" fill="#263238"/>
<path d="M305.578 157.478H314.318V153.702H305.578V157.478Z" fill="#263238"/>
<path d="M293.012 133.301H301.753V129.526H293.012V133.301Z" fill="#263238"/>
<path d="M293.012 141.36H301.753V137.585H293.012V141.36Z" fill="#263238"/>
<path d="M293.012 149.419H301.753V145.644H293.012V149.419Z" fill="#263238"/>
<path d="M293.012 157.478H301.753V153.702H293.012V157.478Z" fill="#263238"/>
<path d="M280.472 133.301H289.213V129.526H280.472V133.301Z" fill="#263238"/>
<path d="M280.472 141.36H289.213V137.585H280.472V141.36Z" fill="#263238"/>
<path d="M280.472 149.419H289.213V145.644H280.472V149.419Z" fill="#263238"/>
<path d="M280.472 157.478H289.213V153.702H280.472V157.478Z" fill="#263238"/>
<path d="M217.987 109.132H226.728V105.357H217.987V109.132Z" fill="#263238"/>
<path d="M217.987 117.19H226.728V113.415H217.987V117.19Z" fill="#263238"/>
<path d="M217.987 125.243H226.728V121.468H217.987V125.243Z" fill="#263238"/>
<path d="M217.987 133.301H226.728V129.526H217.987V133.301Z" fill="#263238"/>
<path d="M217.987 141.36H226.728V137.585H217.987V141.36Z" fill="#263238"/>
<path d="M217.987 149.419H226.728V145.644H217.987V149.419Z" fill="#263238"/>
<path d="M217.987 157.478H226.728V153.702H217.987V157.478Z" fill="#263238"/>
<path d="M252.236 78.4595H250.661V99.4739H252.236V78.4595Z" fill="#C7C7C7"/>
<path d="M253.817 78.4595H252.242V99.4739H253.817V78.4595Z" fill="#DBDBDB"/>
<path d="M230.843 78.4595H229.269V99.4739H230.843V78.4595Z" fill="#C7C7C7"/>
<path d="M232.418 78.4595H230.844V99.4739H232.418V78.4595Z" fill="#DBDBDB"/>
<path d="M273.635 78.4595H272.061V99.4739H273.635V78.4595Z" fill="#C7C7C7"/>
<path d="M275.209 78.4595H273.635V99.4739H275.209V78.4595Z" fill="#DBDBDB"/>
<path d="M296.608 104.792H295.033V125.807H296.608V104.792Z" fill="#C7C7C7"/>
<path d="M298.183 104.792H296.608V125.807H298.183V104.792Z" fill="#DBDBDB"/>
<path d="M318.007 104.792H316.433V125.807H318.007V104.792Z" fill="#C7C7C7"/>
<path d="M319.581 104.792H318.007V125.807H319.581V104.792Z" fill="#DBDBDB"/>
<path d="M215.451 78.4595H213.877V99.4739H215.451V78.4595Z" fill="#C7C7C7"/>
<path d="M217.033 78.4595H215.458V99.4739H217.033V78.4595Z" fill="#DBDBDB"/>
<path d="M180.081 153.65L174.905 157.63L182.747 168.751L177.007 172.966L177.912 174.844L187.254 168.961L180.081 153.65Z" fill="#37474F"/>
<path d="M144.319 109.619L130.769 133.615V155.981L144.939 122.618H147.549L174.62 156.477H176.982L148.175 109.619H144.319Z" fill="#455A64"/>
<path d="M105.031 161.641H134.191C135.28 161.641 136.162 160.758 136.162 159.669V148.939C136.162 147.85 135.28 146.968 134.191 146.968H105.031C103.942 146.968 103.06 147.85 103.06 148.939V159.669C103.06 160.758 103.942 161.641 105.031 161.641Z" fill="#455A64"/>
<path d="M105.167 150.141H108.024V130.664H105.167V150.141Z" fill="#455A64"/>
<path d="M137.259 155.267H111.354V126.56H128.27C129.704 126.56 131.089 127.08 132.168 128.024C133.246 128.968 133.945 130.272 134.135 131.693L137.234 155.249L137.259 155.267Z" fill="#244CB3"/>
<path d="M130.626 146.552H118.482C118.35 146.553 118.218 146.534 118.092 146.496C117.806 146.409 117.557 146.231 117.381 145.989C117.206 145.748 117.113 145.456 117.118 145.157V129.858H125.76C126.049 129.856 126.338 129.885 126.621 129.945C127.728 130.131 128.73 130.713 129.442 131.581C130.034 132.286 130.411 133.147 130.527 134.061L131.983 145.014C132.006 145.207 131.988 145.401 131.93 145.586C131.872 145.771 131.776 145.941 131.648 146.087C131.52 146.232 131.363 146.348 131.187 146.428C131.011 146.508 130.819 146.55 130.626 146.552V146.552Z" fill="white"/>
<g opacity="0.5">
<path opacity="0.5" d="M131.365 140.335L120.771 129.858H125.761C126.05 129.857 126.339 129.886 126.622 129.945C126.891 129.99 127.155 130.06 127.41 130.156V130.156L130.249 132.964C130.382 133.312 130.473 133.674 130.521 134.043L131.365 140.335Z" fill="#EBEBEB"/>
<path opacity="0.5" d="M130.701 146.546H126.827L117.119 136.957V133.132L130.701 146.546Z" fill="#EBEBEB"/>
<path opacity="0.5" d="M125.302 146.552H124.713L117.119 139.045V138.462L125.302 146.552Z" fill="#EBEBEB"/>
</g>
<path d="M173.095 157.909C173.095 158.413 173.244 158.906 173.524 159.325C173.804 159.744 174.202 160.07 174.668 160.263C175.133 160.456 175.645 160.506 176.14 160.408C176.634 160.31 177.088 160.067 177.444 159.711C177.8 159.354 178.043 158.9 178.141 158.406C178.24 157.912 178.189 157.4 177.996 156.934C177.803 156.469 177.477 156.071 177.058 155.791C176.639 155.511 176.146 155.361 175.642 155.361C174.967 155.361 174.319 155.63 173.841 156.108C173.363 156.585 173.095 157.233 173.095 157.909Z" fill="#455A64"/>
<path d="M174.459 157.908C174.458 158.143 174.526 158.372 174.656 158.568C174.785 158.763 174.969 158.916 175.186 159.007C175.402 159.097 175.64 159.121 175.87 159.076C176.1 159.031 176.312 158.919 176.478 158.754C176.644 158.589 176.758 158.378 176.804 158.148C176.85 157.918 176.827 157.68 176.737 157.463C176.648 157.246 176.496 157.061 176.301 156.93C176.107 156.8 175.877 156.73 175.643 156.73C175.33 156.73 175.03 156.854 174.808 157.075C174.586 157.296 174.461 157.595 174.459 157.908V157.908Z" fill="#37474F"/>
<path d="M105.421 149.894C105.421 150.127 105.49 150.354 105.619 150.548C105.749 150.742 105.933 150.893 106.148 150.982C106.363 151.071 106.6 151.094 106.828 151.049C107.057 151.003 107.267 150.891 107.432 150.726C107.596 150.562 107.708 150.352 107.754 150.123C107.799 149.895 107.776 149.658 107.687 149.443C107.598 149.228 107.447 149.044 107.253 148.914C107.059 148.785 106.832 148.716 106.599 148.716C106.444 148.716 106.291 148.746 106.148 148.805C106.005 148.865 105.875 148.951 105.766 149.061C105.657 149.17 105.57 149.3 105.511 149.443C105.451 149.586 105.421 149.739 105.421 149.894V149.894Z" fill="#37474F"/>
<path d="M105.421 154.089C105.421 154.322 105.49 154.55 105.619 154.744C105.749 154.937 105.933 155.088 106.148 155.178C106.363 155.267 106.6 155.29 106.828 155.245C107.057 155.199 107.267 155.087 107.432 154.922C107.596 154.758 107.708 154.548 107.754 154.319C107.799 154.091 107.776 153.854 107.687 153.639C107.598 153.423 107.447 153.24 107.253 153.11C107.059 152.981 106.832 152.912 106.599 152.912C106.444 152.912 106.291 152.942 106.148 153.001C106.005 153.06 105.875 153.147 105.766 153.257C105.657 153.366 105.57 153.496 105.511 153.639C105.451 153.782 105.421 153.935 105.421 154.089V154.089Z" fill="#37474F"/>
<path d="M145.069 118.205C145.069 118.438 145.138 118.665 145.268 118.859C145.397 119.053 145.581 119.204 145.796 119.293C146.012 119.382 146.248 119.405 146.477 119.36C146.705 119.314 146.915 119.202 147.08 119.037C147.245 118.873 147.357 118.663 147.402 118.434C147.448 118.206 147.424 117.969 147.335 117.754C147.246 117.539 147.095 117.355 146.901 117.225C146.708 117.096 146.48 117.027 146.247 117.027C146.092 117.027 145.939 117.057 145.796 117.117C145.654 117.176 145.524 117.262 145.414 117.372C145.305 117.481 145.218 117.611 145.159 117.754C145.1 117.897 145.069 118.05 145.069 118.205V118.205Z" fill="#37474F"/>
<path d="M145.069 113.796C145.069 114.029 145.138 114.257 145.268 114.451C145.397 114.644 145.581 114.795 145.796 114.885C146.012 114.974 146.248 114.997 146.477 114.952C146.705 114.906 146.915 114.794 147.08 114.629C147.245 114.465 147.357 114.255 147.402 114.026C147.448 113.798 147.424 113.561 147.335 113.346C147.246 113.131 147.095 112.947 146.901 112.817C146.708 112.688 146.48 112.619 146.247 112.619C145.935 112.62 145.637 112.745 145.416 112.965C145.196 113.186 145.071 113.485 145.069 113.796Z" fill="#37474F"/>
<path d="M106.592 164.243H127.656V161.633H106.592V164.243Z" fill="#37474F"/>
<path d="M95.4779 164.25H145.913C147.631 164.25 149.278 164.933 150.493 166.148C151.708 167.363 152.39 169.01 152.39 170.728C152.39 172.446 151.708 174.094 150.493 175.309C149.278 176.524 147.631 177.206 145.913 177.206H95.4779C93.7599 177.206 92.1122 176.524 90.8973 175.309C89.6825 174.094 89 172.446 89 170.728C89 169.01 89.6825 167.363 90.8973 166.148C92.1122 164.933 93.7599 164.25 95.4779 164.25V164.25Z" fill="#37474F"/>
<path d="M95.7571 166.141H145.64C146.857 166.141 148.023 166.624 148.884 167.484C149.744 168.344 150.227 169.511 150.227 170.728C150.227 171.944 149.744 173.111 148.884 173.972C148.023 174.832 146.857 175.315 145.64 175.315H95.7571C94.5405 175.315 93.3738 174.832 92.5135 173.972C91.6532 173.111 91.1699 171.944 91.1699 170.728C91.1699 169.511 91.6532 168.344 92.5135 167.484C93.3738 166.624 94.5405 166.141 95.7571 166.141V166.141Z" fill="#263238"/>
<path d="M128.035 170.728C128.035 171.392 128.232 172.042 128.602 172.595C128.971 173.147 129.496 173.578 130.111 173.832C130.725 174.086 131.401 174.152 132.053 174.022C132.705 173.892 133.303 173.572 133.773 173.101C134.243 172.631 134.562 172.031 134.691 171.379C134.82 170.727 134.753 170.051 134.497 169.437C134.242 168.824 133.81 168.299 133.257 167.931C132.704 167.562 132.054 167.366 131.389 167.368C130.948 167.368 130.511 167.455 130.104 167.624C129.697 167.792 129.327 168.04 129.015 168.352C128.704 168.664 128.457 169.035 128.289 169.442C128.12 169.85 128.034 170.287 128.035 170.728Z" fill="#37474F"/>
<path d="M117.342 170.728C117.342 171.392 117.539 172.042 117.908 172.595C118.278 173.147 118.803 173.578 119.417 173.832C120.032 174.086 120.707 174.152 121.359 174.022C122.011 173.892 122.61 173.572 123.08 173.101C123.549 172.631 123.869 172.031 123.998 171.379C124.127 170.727 124.059 170.051 123.804 169.437C123.549 168.824 123.117 168.299 122.564 167.931C122.01 167.562 121.36 167.366 120.695 167.368C120.255 167.368 119.818 167.455 119.411 167.624C119.003 167.792 118.633 168.04 118.322 168.352C118.01 168.664 117.763 169.035 117.595 169.442C117.427 169.85 117.341 170.287 117.342 170.728Z" fill="#37474F"/>
<path d="M138.729 170.728C138.729 171.392 138.926 172.042 139.295 172.594C139.664 173.147 140.189 173.577 140.803 173.832C141.417 174.086 142.092 174.152 142.744 174.023C143.396 173.893 143.994 173.573 144.464 173.103C144.934 172.633 145.254 172.035 145.384 171.383C145.513 170.731 145.447 170.056 145.192 169.442C144.938 168.828 144.507 168.303 143.955 167.934C143.402 167.565 142.753 167.368 142.088 167.368C141.197 167.368 140.343 167.722 139.713 168.352C139.082 168.982 138.729 169.836 138.729 170.728V170.728Z" fill="#37474F"/>
<path d="M106.648 170.728C106.648 171.392 106.846 172.042 107.215 172.595C107.585 173.147 108.11 173.578 108.724 173.832C109.338 174.086 110.014 174.152 110.666 174.022C111.318 173.892 111.917 173.572 112.386 173.101C112.856 172.631 113.175 172.031 113.304 171.379C113.433 170.727 113.366 170.051 113.111 169.437C112.855 168.824 112.424 168.299 111.87 167.931C111.317 167.562 110.667 167.366 110.002 167.368C109.561 167.368 109.125 167.455 108.717 167.624C108.31 167.792 107.94 168.04 107.629 168.352C107.317 168.664 107.07 169.035 106.902 169.442C106.734 169.85 106.648 170.287 106.648 170.728Z" fill="#37474F"/>
<path d="M95.9551 170.728C95.9551 171.392 96.1523 172.042 96.5218 172.595C96.8912 173.147 97.4163 173.578 98.0306 173.832C98.6449 174.086 99.3208 174.152 99.9727 174.022C100.625 173.892 101.223 173.572 101.693 173.101C102.162 172.631 102.482 172.031 102.611 171.379C102.74 170.727 102.672 170.051 102.417 169.437C102.162 168.824 101.73 168.299 101.177 167.931C100.624 167.562 99.9735 167.366 99.3087 167.368C98.8678 167.368 98.4312 167.455 98.0239 167.624C97.6166 167.792 97.2466 168.04 96.9351 168.352C96.6237 168.664 96.3768 169.035 96.2086 169.442C96.0404 169.85 95.9543 170.287 95.9551 170.728V170.728Z" fill="#37474F"/>
<path d="M175.302 156.886L175.978 156.576L158.422 117.969L148.151 109.681L147.68 110.257L157.815 118.44L175.302 156.886Z" fill="#455A64"/>
<path d="M350.054 36.3754L349.062 37.311L358.648 47.4764L359.64 46.5408L350.054 36.3754Z" fill="#455A64"/>
<path d="M359.143 46.7554H349.324V48.1191H359.143V46.7554Z" fill="#455A64"/>
<path d="M359.143 36.1611H349.324V37.5249H359.143V36.1611Z" fill="#455A64"/>
<path d="M358.654 36.3896L349.069 46.5566L350.062 47.4921L359.646 37.325L358.654 36.3896Z" fill="#455A64"/>
<path d="M350.057 46.9721L349.064 47.9077L358.651 58.0731L359.643 57.1375L350.057 46.9721Z" fill="#455A64"/>
<path d="M359.143 57.3491H349.324V58.7129H359.143V57.3491Z" fill="#455A64"/>
<path d="M359.143 46.7554H349.324V48.1191H359.143V46.7554Z" fill="#455A64"/>
<path d="M358.658 46.9863L349.073 57.1533L350.066 58.0888L359.65 47.9217L358.658 46.9863Z" fill="#455A64"/>
<path d="M350.06 57.5619L349.067 58.4976L358.653 68.663L359.646 67.7273L350.06 57.5619Z" fill="#455A64"/>
<path d="M359.143 67.9365H349.324V69.3003H359.143V67.9365Z" fill="#455A64"/>
<path d="M359.143 57.3491H349.324V58.7129H359.143V57.3491Z" fill="#455A64"/>
<path d="M358.66 57.5751L349.076 67.7422L350.069 68.6777L359.653 58.5106L358.66 57.5751Z" fill="#455A64"/>
<path d="M350.053 68.1542L349.061 69.0898L358.647 79.2552L359.639 78.3196L350.053 68.1542Z" fill="#455A64"/>
<path d="M359.143 78.5312H349.324V79.895H359.143V78.5312Z" fill="#455A64"/>
<path d="M359.143 67.9365H349.324V69.3003H359.143V67.9365Z" fill="#455A64"/>
<path d="M358.654 68.1664L349.069 78.3335L350.062 79.269L359.646 69.1019L358.654 68.1664Z" fill="#455A64"/>
<path d="M350.056 78.7504L349.063 79.686L358.65 89.8514L359.642 88.9158L350.056 78.7504Z" fill="#455A64"/>
<path d="M359.143 89.125H349.324V90.4888H359.143V89.125Z" fill="#455A64"/>
<path d="M359.143 78.5312H349.324V79.895H359.143V78.5312Z" fill="#455A64"/>
<path d="M358.658 78.7626L349.073 88.9297L350.066 89.8652L359.65 79.6981L358.658 78.7626Z" fill="#455A64"/>
<path d="M350.053 89.3275L349.061 90.2632L358.647 100.429L359.639 99.4929L350.053 89.3275Z" fill="#455A64"/>
<path d="M359.143 99.7124H349.324V101.076H359.143V99.7124Z" fill="#455A64"/>
<path d="M359.143 89.125H349.324V90.4888H359.143V89.125Z" fill="#455A64"/>
<path d="M358.655 89.352L349.07 99.519L350.063 100.455L359.647 90.2874L358.655 89.352Z" fill="#455A64"/>
<path d="M350.051 99.9315L349.059 100.867L358.645 111.033L359.637 110.097L350.051 99.9315Z" fill="#455A64"/>
<path d="M359.143 110.307H349.324V111.671H359.143V110.307Z" fill="#455A64"/>
<path d="M359.143 99.7124H349.324V101.076H359.143V99.7124Z" fill="#455A64"/>
<path d="M358.659 99.9472L349.074 110.114L350.067 111.05L359.651 100.883L358.659 99.9472Z" fill="#455A64"/>
<path d="M350.055 110.522L349.062 111.458L358.649 121.623L359.641 120.687L350.055 110.522Z" fill="#455A64"/>
<path d="M359.143 120.901H349.324V122.265H359.143V120.901Z" fill="#455A64"/>
<path d="M359.143 110.307H349.324V111.671H359.143V110.307Z" fill="#455A64"/>
<path d="M358.657 110.539L349.072 120.707L350.065 121.642L359.649 111.475L358.657 110.539Z" fill="#455A64"/>
<path d="M350.063 121.137L349.071 122.072L358.657 132.238L359.65 131.302L350.063 121.137Z" fill="#455A64"/>
<path d="M359.143 131.495H349.324V132.859H359.143V131.495Z" fill="#455A64"/>
<path d="M359.143 120.901H349.324V122.265H359.143V120.901Z" fill="#455A64"/>
<path d="M358.655 121.135L349.07 131.302L350.063 132.237L359.647 122.07L358.655 121.135Z" fill="#455A64"/>
<path d="M350.055 131.701L349.062 132.636L358.645 142.805L359.638 141.87L350.055 131.701Z" fill="#455A64"/>
<path d="M359.143 142.083H349.324V143.447H359.143V142.083Z" fill="#455A64"/>
<path d="M359.143 131.495H349.324V132.859H359.143V131.495Z" fill="#455A64"/>
<path d="M358.652 131.718L349.067 141.885L350.06 142.821L359.644 132.654L358.652 131.718Z" fill="#455A64"/>
<path d="M350.055 142.294L349.062 143.229L358.645 153.398L359.638 152.462L350.055 142.294Z" fill="#455A64"/>
<path d="M359.143 152.677H349.324V154.041H359.143V152.677Z" fill="#455A64"/>
<path d="M359.143 142.083H349.324V143.447H359.143V142.083Z" fill="#455A64"/>
<path d="M358.651 142.316L349.066 152.483L350.059 153.418L359.643 143.251L358.651 142.316Z" fill="#455A64"/>
<path d="M360.427 158.702V152.534H348.45V158.702H360.427Z" fill="#455A64"/>
<path d="M360.427 152.925V36.7192H357.972V152.925H360.427Z" fill="#455A64"/>
<path d="M350.905 152.925V36.7192H348.45V152.925H350.905Z" fill="#455A64"/>
<path d="M254.084 35.8888L264.69 25.4374L354.215 8.74983L381.422 25.5118L382.135 24.3526L354.482 7.31787L264.033 24.1728L253.129 34.9156L254.084 35.8888Z" fill="#455A64"/>
<path d="M343.423 26.9L354.327 11.7436L364.76 26.8814L367.004 25.3317L354.37 7.02002L341.21 25.3131L343.423 26.9Z" fill="#263238"/>
<path d="M274.679 26.6247L264.512 36.209L265.447 37.2013L275.614 27.617L274.679 26.6247Z" fill="#455A64"/>
<path d="M265.236 26.9004H263.872V36.7195H265.236V26.9004Z" fill="#455A64"/>
<path d="M275.83 26.9004H274.466V36.7195H275.83V26.9004Z" fill="#455A64"/>
<path d="M265.446 26.6258L264.511 27.6182L274.678 37.2025L275.613 36.2101L265.446 26.6258Z" fill="#455A64"/>
<path d="M285.27 26.6232L275.103 36.2075L276.038 37.1999L286.205 27.6156L285.27 26.6232Z" fill="#455A64"/>
<path d="M275.83 26.9004H274.466V36.7195H275.83V26.9004Z" fill="#455A64"/>
<path d="M286.423 26.9004H285.06V36.7195H286.423V26.9004Z" fill="#455A64"/>
<path d="M276.051 26.6509L275.115 27.6431L285.281 37.2292L286.216 36.237L276.051 26.6509Z" fill="#455A64"/>
<path d="M295.857 26.6256L285.689 36.21L286.625 37.2023L296.792 27.618L295.857 26.6256Z" fill="#455A64"/>
<path d="M286.423 26.9004H285.06V36.7195H286.423V26.9004Z" fill="#455A64"/>
<path d="M297.011 26.9004H295.647V36.7195H297.011V26.9004Z" fill="#455A64"/>
<path d="M286.644 26.6587L285.708 27.6509L295.873 37.237L296.809 36.2448L286.644 26.6587Z" fill="#455A64"/>
<path d="M306.448 26.6237L296.281 36.208L297.217 37.2004L307.384 27.616L306.448 26.6237Z" fill="#455A64"/>
<path d="M297.011 26.9004H295.647V36.7195H297.011V26.9004Z" fill="#455A64"/>
<path d="M307.606 26.9004H306.242V36.7195H307.606V26.9004Z" fill="#455A64"/>
<path d="M297.234 26.6567L296.299 27.6489L306.464 37.235L307.4 36.2428L297.234 26.6567Z" fill="#455A64"/>
<path d="M317.045 26.6222L306.878 36.2065L307.813 37.1989L317.98 27.6146L317.045 26.6222Z" fill="#455A64"/>
<path d="M307.606 26.9004H306.242V36.7195H307.606V26.9004Z" fill="#455A64"/>
<path d="M318.2 26.9004H316.836V36.7195H318.2V26.9004Z" fill="#455A64"/>
<path d="M307.819 26.6421L306.884 27.6343L317.049 37.2204L317.985 36.2282L307.819 26.6421Z" fill="#455A64"/>
<path d="M327.632 26.6247L317.465 36.209L318.4 37.2013L328.567 27.617L327.632 26.6247Z" fill="#455A64"/>
<path d="M318.2 26.9004H316.836V36.7195H318.2V26.9004Z" fill="#455A64"/>
<path d="M328.793 26.9004H327.43V36.7195H328.793V26.9004Z" fill="#455A64"/>
<path d="M318.422 26.6465L317.486 27.6387L327.652 37.2248L328.587 36.2326L318.422 26.6465Z" fill="#455A64"/>
<path d="M338.224 26.6232L328.057 36.2075L328.992 37.1999L339.159 27.6155L338.224 26.6232Z" fill="#455A64"/>
<path d="M328.793 26.9004H327.43V36.7195H328.793V26.9004Z" fill="#455A64"/>
<path d="M339.381 26.9004H338.018V36.7195H339.381V26.9004Z" fill="#455A64"/>
<path d="M329.01 26.6479L328.074 27.6401L338.24 37.2262L339.175 36.234L329.01 26.6479Z" fill="#455A64"/>
<path d="M348.815 26.6212L338.647 36.2056L339.583 37.1979L349.75 27.6136L348.815 26.6212Z" fill="#455A64"/>
<path d="M339.381 26.9004H338.018V36.7195H339.381V26.9004Z" fill="#455A64"/>
<path d="M349.975 26.9004H348.611V36.7195H349.975V26.9004Z" fill="#455A64"/>
<path d="M339.606 26.6524L338.67 27.6445L348.835 37.2306L349.771 36.2384L339.606 26.6524Z" fill="#455A64"/>
<path d="M359.407 26.6237L349.24 36.208L350.176 37.2004L360.343 27.616L359.407 26.6237Z" fill="#455A64"/>
<path d="M349.975 26.9004H348.611V36.7195H349.975V26.9004Z" fill="#455A64"/>
<path d="M360.569 26.9004H359.205V36.7195H360.569V26.9004Z" fill="#455A64"/>
<path d="M350.203 26.6567L349.268 27.6489L359.433 37.235L360.369 36.2428L350.203 26.6567Z" fill="#455A64"/>
<path d="M369.999 26.6222L359.832 36.2065L360.768 37.1989L370.935 27.6146L369.999 26.6222Z" fill="#455A64"/>
<path d="M360.569 26.9004H359.205V36.7195H360.569V26.9004Z" fill="#455A64"/>
<path d="M371.157 26.9004H369.793V36.7195H371.157V26.9004Z" fill="#455A64"/>
<path d="M360.79 26.6523L359.854 27.6445L370.02 37.2306L370.956 36.2384L360.79 26.6523Z" fill="#455A64"/>
<path d="M380.59 26.6203L370.423 36.2046L371.358 37.1969L381.525 27.6126L380.59 26.6203Z" fill="#455A64"/>
<path d="M371.157 26.9004H369.793V36.7195H371.157V26.9004Z" fill="#455A64"/>
<path d="M381.751 26.9004H380.388V36.7195H381.751V26.9004Z" fill="#455A64"/>
<path d="M371.381 26.6499L370.445 27.6421L380.611 37.2282L381.546 36.236L371.381 26.6499Z" fill="#455A64"/>
<path d="M382.149 38.4922H388.311V24.3338H382.149V38.4922Z" fill="#263238"/>
<path d="M375.98 38.4922H382.148V24.3338H375.98V38.4922Z" fill="#455A64"/>
<path d="M367.835 44.4619H379.662V37.4013H367.835V44.4619Z" fill="#455A64"/>
<path d="M253.13 37.3945L382.148 37.3945V34.9397L253.13 34.9397V37.3945Z" fill="#455A64"/>
<path d="M260.271 27.8791H382.154V25.4243H262.769L260.271 27.8791Z" fill="#455A64"/>
<path d="M262.917 26.9004H261.554V36.7195H262.917V26.9004Z" fill="#455A64"/>
<path d="M279.338 38.8452H277.975V71.3401H279.338V38.8452Z" fill="#263238"/>
<path d="M267.821 39.2979H266.457V71.7927H267.821V39.2979Z" fill="#263238"/>
<path d="M263.822 40.2954H281.774V37.4005H263.822V40.2954Z" fill="#455A64"/>
<path d="M272.122 74.7251L272.271 77.744L272.705 77.2233C272.22 77.3601 271.758 77.569 271.335 77.8432C270.899 78.1089 270.53 78.4716 270.256 78.9032C269.995 79.3405 269.864 79.8429 269.877 80.3521C269.89 80.8613 270.047 81.3563 270.331 81.7795C270.597 82.1756 270.96 82.4974 271.385 82.7143C271.81 82.9312 272.284 83.0362 272.761 83.0193C273.214 82.9857 273.653 82.8473 274.044 82.6149C274.434 82.3826 274.765 82.0626 275.011 81.6803C274.744 82.0203 274.402 82.2944 274.011 82.4814C273.621 82.6684 273.193 82.7633 272.761 82.7589C272.353 82.736 271.958 82.6103 271.613 82.3935C271.267 82.1767 270.982 81.8759 270.783 81.5191C270.601 81.1831 270.517 80.8025 270.541 80.4209C270.565 80.0393 270.697 79.6723 270.92 79.3619C271.428 78.781 272.132 78.4062 272.897 78.3081L273.306 78.2399V77.7874L273.455 74.7685L272.122 74.7251Z" fill="#263238"/>
<path d="M263.828 68.5322V73.4604L272.804 75.5928L281.774 73.4604V68.5322H263.828Z" fill="#455A64"/>
<path d="M277.658 71.4208C277.658 71.6268 277.719 71.8281 277.834 71.9994C277.948 72.1707 278.111 72.3041 278.301 72.383C278.491 72.4618 278.701 72.4824 278.903 72.4422C279.105 72.4021 279.29 72.3029 279.436 72.1572C279.582 72.0116 279.681 71.826 279.721 71.624C279.761 71.422 279.741 71.2126 279.662 71.0223C279.583 70.832 279.449 70.6693 279.278 70.5549C279.107 70.4405 278.906 70.3794 278.7 70.3794C278.423 70.3794 278.159 70.4891 277.963 70.6844C277.768 70.8797 277.658 71.1446 277.658 71.4208V71.4208Z" fill="#263238"/>
<path d="M265.861 71.4208C265.861 71.6268 265.922 71.8281 266.037 71.9994C266.151 72.1707 266.314 72.3041 266.504 72.383C266.695 72.4618 266.904 72.4824 267.106 72.4422C267.308 72.4021 267.494 72.3029 267.639 72.1572C267.785 72.0116 267.884 71.826 267.924 71.624C267.964 71.422 267.944 71.2126 267.865 71.0223C267.786 70.832 267.653 70.6693 267.481 70.5549C267.31 70.4405 267.109 70.3794 266.903 70.3794C266.627 70.3794 266.362 70.4891 266.166 70.6844C265.971 70.8797 265.861 71.1446 265.861 71.4208V71.4208Z" fill="#263238"/>
<path d="M246.794 85.5362L253.278 84.7241L259.756 83.9616L272.737 82.5111L272.761 82.5049L272.786 82.5111L285.804 83.9616L292.307 84.7241L298.803 85.5362L292.282 84.9535L285.767 84.315L272.737 82.9698H272.786L259.799 84.315L253.297 84.9535L246.794 85.5362Z" fill="#263238"/>
<path d="M298.81 87.1102V85.5356H246.8V87.1102H298.81Z" fill="#C7C7C7"/>
<path d="M298.803 88.6849V87.1104H246.794V88.6849H298.803Z" fill="#DBDBDB"/>
<path d="M352.053 8.03663C352.053 8.49149 352.188 8.93613 352.44 9.31433C352.693 9.69254 353.052 9.98731 353.472 10.1614C353.893 10.3354 354.355 10.381 354.801 10.2922C355.247 10.2035 355.657 9.98447 355.979 9.66283C356.3 9.3412 356.519 8.93142 356.608 8.4853C356.697 8.03918 356.651 7.57676 356.477 7.15653C356.303 6.73629 356.008 6.37711 355.63 6.1244C355.252 5.8717 354.807 5.73682 354.353 5.73682C353.743 5.73682 353.158 5.97912 352.726 6.41042C352.295 6.84171 352.053 7.42668 352.053 8.03663V8.03663Z" fill="#A6A6A6"/>
<path d="M353.273 8.03678C353.272 8.25037 353.334 8.45951 353.452 8.6377C353.57 8.81589 353.738 8.95511 353.935 9.0377C354.132 9.12029 354.349 9.14253 354.559 9.10161C354.768 9.0607 354.961 8.95846 355.113 8.80787C355.264 8.65727 355.367 8.46509 355.409 8.25569C355.452 8.04629 355.431 7.8291 355.349 7.63165C355.268 7.4342 355.129 7.26537 354.952 7.14658C354.774 7.02778 354.566 6.96436 354.352 6.96436C354.067 6.96435 353.794 7.07714 353.592 7.27808C353.389 7.47902 353.275 7.75178 353.273 8.03678V8.03678Z" fill="#455A64"/>
<path d="M344.52 163.382H364.345V158.696H344.52V163.382Z" fill="#263238"/>
<path d="M340.225 172.569H368.641V163.382H340.225V172.569Z" fill="#455A64"/>
<path d="M342.908 46.6867H364.121V23.2051H350.273C349.099 23.2027 347.964 23.6281 347.081 24.4016C346.198 25.1752 345.627 26.2439 345.475 27.408L342.908 46.6867Z" fill="#244CB3"/>
<path d="M348.68 39.546H358.629C358.736 39.5476 358.843 39.533 358.946 39.5026C359.177 39.4331 359.381 39.2905 359.525 39.0961C359.669 38.9017 359.746 38.6659 359.745 38.424V25.8835H352.672C352.435 25.881 352.198 25.9039 351.966 25.9517C351.432 26.0514 350.925 26.2626 350.478 26.5716C350.015 26.8871 349.624 27.2963 349.329 27.7725C349.035 28.2487 348.843 28.7814 348.767 29.3363L347.589 38.2752C347.569 38.4318 347.582 38.5908 347.628 38.742C347.673 38.8932 347.749 39.0333 347.852 39.153C347.955 39.2728 348.082 39.3697 348.225 39.4373C348.367 39.505 348.522 39.542 348.68 39.546V39.546Z" fill="white"/>
<g opacity="0.5">
<path opacity="0.5" d="M356.726 25.8833L348.085 34.4193L348.767 29.3051C348.851 28.7285 349.063 28.1778 349.387 27.6934V27.6934L350.627 26.4908C351.048 26.2266 351.518 26.0476 352.009 25.9639C352.241 25.9161 352.478 25.8932 352.716 25.8957L356.726 25.8833Z" fill="#EBEBEB"/>
<path opacity="0.5" d="M359.745 28.8955V32.2491L352.363 39.5453H348.972L359.745 28.8955Z" fill="#EBEBEB"/>
<path opacity="0.5" d="M359.745 33.5635V34.0718L354.209 39.5455H353.688L359.745 33.5635Z" fill="#EBEBEB"/>
</g>
<path d="M166.741 173.337H247.073C247.073 173.337 210.803 132.579 166.741 173.337Z" fill="#244CB3"/>
<path opacity="0.3" d="M166.741 173.337H247.073C247.073 173.337 210.803 132.579 166.741 173.337Z" fill="black"/>
<path opacity="0.1" d="M214.504 167.51C214.504 167.349 214.456 167.192 214.367 167.059C214.278 166.925 214.151 166.821 214.003 166.76C213.854 166.698 213.691 166.682 213.534 166.713C213.376 166.745 213.231 166.822 213.118 166.936C213.004 167.049 212.927 167.194 212.895 167.351C212.864 167.509 212.88 167.672 212.942 167.821C213.003 167.969 213.107 168.096 213.241 168.185C213.374 168.274 213.531 168.322 213.692 168.322C213.907 168.322 214.114 168.236 214.266 168.084C214.418 167.932 214.504 167.725 214.504 167.51V167.51Z" fill="black"/>
<path opacity="0.1" d="M196.632 160.989C196.632 160.828 196.584 160.671 196.495 160.538C196.406 160.404 196.279 160.3 196.131 160.239C195.982 160.177 195.819 160.161 195.661 160.192C195.504 160.224 195.359 160.301 195.246 160.415C195.132 160.528 195.055 160.673 195.023 160.83C194.992 160.988 195.008 161.151 195.07 161.3C195.131 161.448 195.235 161.575 195.369 161.664C195.502 161.753 195.659 161.801 195.82 161.801C195.927 161.801 196.032 161.78 196.131 161.739C196.229 161.698 196.319 161.638 196.394 161.563C196.469 161.488 196.529 161.398 196.57 161.3C196.611 161.201 196.632 161.095 196.632 160.989V160.989Z" fill="black"/>
<path opacity="0.1" d="M199.112 166.122C199.112 165.961 199.065 165.804 198.976 165.67C198.886 165.537 198.759 165.433 198.611 165.371C198.463 165.31 198.299 165.294 198.142 165.325C197.984 165.357 197.84 165.434 197.726 165.547C197.613 165.661 197.535 165.806 197.504 165.963C197.473 166.121 197.489 166.284 197.55 166.432C197.612 166.581 197.716 166.708 197.849 166.797C197.983 166.886 198.14 166.934 198.3 166.934C198.516 166.934 198.722 166.848 198.875 166.696C199.027 166.544 199.112 166.337 199.112 166.122V166.122Z" fill="black"/>
<path opacity="0.1" d="M182.696 164.771C182.698 164.61 182.651 164.452 182.562 164.317C182.473 164.183 182.347 164.078 182.198 164.016C182.049 163.953 181.886 163.937 181.727 163.968C181.569 163.999 181.424 164.077 181.31 164.19C181.196 164.304 181.119 164.45 181.088 164.608C181.056 164.766 181.073 164.93 181.135 165.078C181.197 165.227 181.303 165.354 181.437 165.442C181.572 165.531 181.729 165.578 181.891 165.577C182.104 165.575 182.308 165.49 182.459 165.339C182.609 165.188 182.695 164.984 182.696 164.771V164.771Z" fill="black"/>
<path opacity="0.1" d="M229.809 170.721C229.818 170.609 229.805 170.496 229.769 170.389C229.732 170.282 229.674 170.184 229.598 170.101C229.522 170.018 229.43 169.952 229.327 169.907C229.224 169.861 229.112 169.838 229 169.838C228.887 169.838 228.776 169.861 228.672 169.907C228.569 169.952 228.477 170.018 228.401 170.101C228.325 170.184 228.267 170.282 228.231 170.389C228.194 170.496 228.181 170.609 228.191 170.721C228.208 170.923 228.301 171.112 228.451 171.249C228.601 171.386 228.796 171.462 229 171.462C229.203 171.462 229.398 171.386 229.548 171.249C229.698 171.112 229.791 170.923 229.809 170.721V170.721Z" fill="black"/>
<path opacity="0.1" d="M199.918 171.527C199.9 171.325 199.807 171.137 199.658 170.999C199.508 170.862 199.312 170.786 199.109 170.786C198.906 170.786 198.71 170.862 198.56 170.999C198.411 171.137 198.318 171.325 198.3 171.527C198.29 171.639 198.304 171.753 198.34 171.859C198.376 171.966 198.434 172.064 198.51 172.147C198.586 172.23 198.679 172.296 198.782 172.341C198.885 172.387 198.996 172.41 199.109 172.41C199.222 172.41 199.333 172.387 199.436 172.341C199.539 172.296 199.632 172.23 199.708 172.147C199.784 172.064 199.842 171.966 199.878 171.859C199.914 171.753 199.928 171.639 199.918 171.527V171.527Z" fill="black"/>
<path opacity="0.1" d="M218.682 169.612C218.683 169.496 218.65 169.383 218.587 169.286C218.524 169.19 218.433 169.114 218.327 169.069C218.22 169.024 218.103 169.012 217.989 169.033C217.876 169.055 217.772 169.11 217.689 169.191C217.607 169.273 217.551 169.376 217.528 169.49C217.505 169.603 217.516 169.72 217.56 169.827C217.604 169.934 217.679 170.025 217.775 170.09C217.871 170.154 217.984 170.188 218.099 170.188C218.175 170.189 218.251 170.175 218.322 170.146C218.392 170.118 218.457 170.075 218.511 170.022C218.565 169.968 218.608 169.904 218.638 169.834C218.667 169.764 218.682 169.688 218.682 169.612V169.612Z" fill="black"/>
<path opacity="0.1" d="M202.918 164.194C202.92 164.078 202.886 163.965 202.823 163.868C202.759 163.771 202.668 163.695 202.561 163.651C202.455 163.606 202.337 163.594 202.223 163.616C202.11 163.638 202.005 163.694 201.924 163.776C201.842 163.858 201.786 163.962 201.764 164.076C201.742 164.189 201.754 164.307 201.798 164.414C201.843 164.52 201.919 164.611 202.016 164.675C202.113 164.738 202.226 164.772 202.342 164.77C202.494 164.769 202.64 164.707 202.748 164.6C202.855 164.492 202.917 164.346 202.918 164.194V164.194Z" fill="black"/>
<path opacity="0.1" d="M222.792 162.694C222.792 162.58 222.758 162.469 222.695 162.374C222.631 162.279 222.541 162.205 222.436 162.162C222.33 162.118 222.215 162.107 222.103 162.129C221.991 162.151 221.888 162.206 221.808 162.287C221.727 162.367 221.672 162.47 221.65 162.582C221.628 162.694 221.639 162.809 221.683 162.915C221.726 163.02 221.8 163.11 221.895 163.174C221.99 163.237 222.101 163.271 222.215 163.271C222.291 163.272 222.366 163.257 222.437 163.228C222.507 163.2 222.571 163.157 222.625 163.104C222.678 163.05 222.721 162.986 222.749 162.916C222.778 162.845 222.793 162.77 222.792 162.694Z" fill="black"/>
<path opacity="0.1" d="M237.725 168.322C237.725 168.208 237.691 168.097 237.628 168.002C237.565 167.907 237.475 167.833 237.369 167.79C237.264 167.746 237.148 167.734 237.036 167.757C236.924 167.779 236.822 167.834 236.741 167.914C236.661 167.995 236.606 168.098 236.583 168.21C236.561 168.321 236.573 168.437 236.616 168.543C236.66 168.648 236.734 168.738 236.828 168.801C236.923 168.865 237.035 168.899 237.149 168.899C237.224 168.899 237.299 168.884 237.369 168.855C237.439 168.826 237.503 168.783 237.556 168.73C237.61 168.676 237.652 168.613 237.681 168.543C237.71 168.473 237.725 168.398 237.725 168.322Z" fill="black"/>
<path d="M145.565 183.194H201.058C201.058 183.194 176.002 155.075 145.565 183.194Z" fill="#244CB3"/>
<path opacity="0.1" d="M145.565 183.194H201.058C201.058 183.194 176.002 155.075 145.565 183.194Z" fill="black"/>
<path d="M357.613 172.953H413.106C413.106 172.953 388.056 144.803 357.613 172.953Z" fill="#244CB3"/>
<path opacity="0.1" d="M357.613 172.953H413.106C413.106 172.953 388.056 144.803 357.613 172.953Z" fill="black"/>
<path opacity="0.1" d="M389.544 168.093C389.544 168.252 389.591 168.408 389.68 168.541C389.768 168.673 389.894 168.776 390.041 168.837C390.189 168.898 390.351 168.914 390.507 168.883C390.663 168.852 390.807 168.776 390.92 168.663C391.032 168.55 391.109 168.407 391.14 168.25C391.171 168.094 391.155 167.932 391.094 167.785C391.033 167.637 390.93 167.511 390.798 167.423C390.665 167.334 390.509 167.287 390.35 167.287C390.137 167.289 389.933 167.374 389.782 167.525C389.631 167.676 389.546 167.88 389.544 168.093V168.093Z" fill="black"/>
<path opacity="0.1" d="M404.93 169.487C404.93 169.648 404.977 169.805 405.067 169.939C405.156 170.072 405.283 170.176 405.431 170.238C405.579 170.299 405.743 170.315 405.9 170.284C406.058 170.252 406.202 170.175 406.316 170.062C406.43 169.948 406.507 169.803 406.538 169.646C406.57 169.488 406.553 169.325 406.492 169.177C406.431 169.028 406.326 168.901 406.193 168.812C406.059 168.723 405.902 168.675 405.742 168.675C405.526 168.675 405.32 168.761 405.168 168.913C405.015 169.065 404.93 169.272 404.93 169.487V169.487Z" fill="black"/>
<path opacity="0.1" d="M374.244 164.888C374.243 165.049 374.29 165.207 374.378 165.341C374.467 165.476 374.594 165.581 374.743 165.643C374.891 165.705 375.055 165.722 375.213 165.691C375.371 165.66 375.516 165.582 375.63 165.468C375.744 165.354 375.822 165.209 375.853 165.051C375.884 164.893 375.867 164.729 375.805 164.58C375.743 164.432 375.638 164.305 375.504 164.216C375.369 164.128 375.211 164.081 375.05 164.082C374.836 164.082 374.631 164.167 374.48 164.318C374.329 164.469 374.244 164.674 374.244 164.888V164.888Z" fill="black"/>
<path opacity="0.1" d="M385.359 165.998C385.358 166.113 385.391 166.227 385.455 166.323C385.518 166.42 385.608 166.496 385.715 166.541C385.821 166.586 385.939 166.598 386.052 166.576C386.165 166.555 386.27 166.5 386.352 166.418C386.434 166.337 386.49 166.233 386.513 166.12C386.536 166.007 386.525 165.889 386.481 165.783C386.437 165.676 386.362 165.584 386.266 165.52C386.171 165.456 386.058 165.421 385.942 165.421C385.789 165.421 385.641 165.482 385.532 165.59C385.423 165.698 385.361 165.844 385.359 165.998V165.998Z" fill="black"/>
<path opacity="0.1" d="M401.123 171.423C401.123 171.538 401.157 171.65 401.221 171.746C401.285 171.842 401.376 171.917 401.483 171.961C401.589 172.005 401.706 172.017 401.819 171.994C401.932 171.972 402.036 171.916 402.118 171.835C402.199 171.753 402.255 171.649 402.277 171.536C402.3 171.423 402.288 171.306 402.244 171.2C402.2 171.093 402.125 171.002 402.03 170.938C401.934 170.874 401.821 170.84 401.706 170.84C401.551 170.84 401.403 170.901 401.294 171.011C401.184 171.12 401.123 171.268 401.123 171.423Z" fill="black"/>
<path opacity="0.1" d="M369.824 169.488C369.824 169.602 369.858 169.713 369.921 169.808C369.985 169.903 370.075 169.977 370.18 170.02C370.285 170.064 370.401 170.075 370.513 170.053C370.625 170.031 370.728 169.976 370.808 169.895C370.889 169.815 370.944 169.712 370.966 169.6C370.988 169.488 370.977 169.372 370.933 169.267C370.89 169.162 370.816 169.072 370.721 169.008C370.626 168.945 370.515 168.911 370.401 168.911C370.325 168.91 370.249 168.925 370.179 168.953C370.109 168.982 370.045 169.024 369.991 169.078C369.938 169.132 369.895 169.196 369.866 169.266C369.838 169.336 369.823 169.412 369.824 169.488V169.488Z" fill="black"/>
<path d="M230.156 179.604H271.863C271.863 179.604 253.03 158.447 230.156 179.604Z" fill="#244CB3"/>
<path opacity="0.1" d="M230.156 179.604H271.863C271.863 179.604 253.03 158.447 230.156 179.604Z" fill="black"/>
<path d="M305.798 169.296L305.593 170.741L305.376 172.297L303.38 186.461H300.113L302.109 172.297L302.326 170.741L302.531 169.296H305.798Z" fill="#244CB3"/>
<path opacity="0.1" d="M305.327 169.296C305.153 170.728 304.967 172.167 304.781 173.598L304.205 177.888L303.585 182.178L303.269 184.323L302.946 186.461L303.213 184.31L303.492 182.165L304.068 177.87L304.688 173.58C304.891 172.15 305.104 170.722 305.327 169.296Z" fill="black"/>
<path opacity="0.1" d="M305.593 170.741L305.376 172.297H302.109L302.326 170.741H305.593Z" fill="black"/>
<path d="M321.928 169.296L322.126 170.741L322.349 172.297L324.345 186.461H327.612L325.616 172.297L325.393 170.741L325.188 169.296H321.928Z" fill="#244CB3"/>
<path opacity="0.1" d="M322.398 169.296C322.572 170.728 322.758 172.167 322.944 173.598L323.52 177.888L324.14 182.178L324.45 184.323L324.773 186.461L324.506 184.31L324.227 182.165L323.651 177.87L323.031 173.58C322.837 172.15 322.626 170.722 322.398 169.296Z" fill="black"/>
<path opacity="0.1" d="M322.126 170.741H325.393L325.616 172.297H322.349L322.126 170.741Z" fill="black"/>
<path d="M305.68 166.321H303.089L303.411 163.91H305.358L305.68 166.321Z" fill="#244CB3"/>
<path opacity="0.1" d="M305.68 166.321H303.089L303.411 163.91H305.358L305.68 166.321Z" fill="black"/>
<path d="M306.795 162.187C306.794 162.663 306.652 163.129 306.386 163.525C306.12 163.92 305.743 164.228 305.303 164.41C304.862 164.592 304.377 164.638 303.91 164.545C303.442 164.451 303.013 164.221 302.677 163.883C302.34 163.546 302.111 163.116 302.019 162.649C301.926 162.181 301.974 161.696 302.157 161.256C302.339 160.816 302.649 160.44 303.045 160.175C303.441 159.91 303.907 159.769 304.384 159.769C304.701 159.769 305.015 159.832 305.308 159.953C305.601 160.075 305.867 160.253 306.091 160.478C306.315 160.702 306.493 160.969 306.614 161.262C306.734 161.555 306.796 161.869 306.795 162.187Z" fill="#244CB3"/>
<path d="M306.219 162.186C306.219 162.554 306.11 162.914 305.906 163.22C305.702 163.525 305.411 163.764 305.071 163.904C304.732 164.045 304.358 164.082 303.997 164.01C303.636 163.939 303.305 163.761 303.045 163.501C302.785 163.241 302.607 162.91 302.536 162.549C302.464 162.188 302.501 161.814 302.642 161.475C302.782 161.135 303.021 160.844 303.326 160.64C303.632 160.436 303.992 160.327 304.36 160.327C304.853 160.327 305.326 160.523 305.675 160.871C306.023 161.22 306.219 161.693 306.219 162.186Z" fill="white"/>
<path d="M305.915 162.082C305.896 161.861 305.831 161.646 305.724 161.452C305.617 161.258 305.471 161.088 305.295 160.953C305.121 160.818 304.922 160.72 304.709 160.664C304.495 160.609 304.273 160.598 304.055 160.631C303.839 160.663 303.632 160.741 303.448 160.86C303.264 160.979 303.108 161.135 302.989 161.319C302.866 161.513 302.784 161.731 302.751 161.959C302.718 162.186 302.734 162.418 302.797 162.64C302.908 163.026 303.167 163.353 303.516 163.551C303.857 163.742 304.255 163.804 304.638 163.724C305.008 163.644 305.34 163.441 305.58 163.148C305.815 162.857 305.952 162.499 305.971 162.125C305.971 162.125 305.971 162.088 305.971 162.088C305.971 162.088 305.971 162.088 305.971 162.125C305.963 162.275 305.936 162.422 305.89 162.565C305.838 162.705 305.77 162.838 305.686 162.962C305.601 163.086 305.499 163.196 305.382 163.29C305.267 163.389 305.14 163.473 305.004 163.538C304.811 163.629 304.601 163.679 304.387 163.684C304.174 163.689 303.962 163.65 303.764 163.569C303.561 163.483 303.379 163.353 303.231 163.188C303.083 163.024 302.973 162.83 302.907 162.619C302.842 162.408 302.823 162.185 302.852 161.966C302.881 161.747 302.958 161.537 303.076 161.35C303.189 161.171 303.34 161.017 303.517 160.901C303.695 160.784 303.895 160.707 304.105 160.675C304.392 160.631 304.685 160.665 304.953 160.774C305.222 160.883 305.455 161.063 305.63 161.294C305.712 161.415 305.78 161.544 305.835 161.679C305.882 161.817 305.913 161.961 305.928 162.106V162.106L305.915 162.082Z" fill="#244CB3"/>
<path d="M305.705 162.082C305.688 161.895 305.634 161.713 305.544 161.548C305.455 161.383 305.333 161.238 305.185 161.122C305.038 161.005 304.868 160.921 304.687 160.873C304.505 160.825 304.316 160.814 304.13 160.842C303.945 160.868 303.767 160.934 303.609 161.034C303.45 161.135 303.316 161.268 303.213 161.425C303.102 161.591 303.028 161.78 302.997 161.978C302.966 162.176 302.978 162.379 303.033 162.571C303.079 162.738 303.157 162.894 303.263 163.03C303.37 163.166 303.502 163.28 303.653 163.365C303.946 163.528 304.288 163.582 304.618 163.516C304.947 163.45 305.242 163.269 305.451 163.005C305.653 162.753 305.77 162.442 305.785 162.119C305.785 162.119 305.785 162.088 305.785 162.088C305.785 162.088 305.785 162.088 305.785 162.119C305.769 162.381 305.683 162.635 305.536 162.853C305.388 163.071 305.186 163.245 304.948 163.359C304.78 163.441 304.595 163.487 304.407 163.492C304.219 163.497 304.033 163.462 303.86 163.388C303.687 163.315 303.532 163.205 303.405 163.066C303.278 162.927 303.183 162.763 303.126 162.584C303.07 162.399 303.054 162.204 303.08 162.013C303.106 161.821 303.172 161.638 303.275 161.474C303.372 161.319 303.503 161.187 303.657 161.089C303.811 160.99 303.986 160.927 304.167 160.904C304.41 160.866 304.657 160.894 304.885 160.985C305.113 161.075 305.312 161.225 305.463 161.418C305.536 161.517 305.595 161.625 305.636 161.741C305.681 161.858 305.711 161.981 305.723 162.106V162.106L305.705 162.082Z" fill="#244CB3"/>
<path d="M305.271 162.082C305.256 161.959 305.216 161.841 305.155 161.735C305.093 161.628 305.01 161.535 304.911 161.462C304.714 161.309 304.465 161.238 304.217 161.263C304.094 161.283 303.976 161.326 303.869 161.391C303.763 161.456 303.671 161.541 303.597 161.641C303.517 161.755 303.462 161.885 303.437 162.022C303.411 162.159 303.415 162.3 303.448 162.435C303.479 162.553 303.533 162.664 303.608 162.761C303.682 162.858 303.776 162.939 303.882 162.999C304.094 163.116 304.342 163.149 304.577 163.092C304.799 163.037 304.997 162.911 305.141 162.732C305.278 162.554 305.358 162.338 305.37 162.113C305.37 162.113 305.37 162.113 305.37 162.113C305.355 162.289 305.294 162.459 305.194 162.606C305.094 162.752 304.958 162.87 304.8 162.949C304.686 163.009 304.56 163.043 304.432 163.049C304.303 163.056 304.175 163.034 304.056 162.987C303.934 162.937 303.825 162.861 303.737 162.763C303.649 162.665 303.584 162.549 303.548 162.423C303.514 162.296 303.507 162.163 303.529 162.034C303.55 161.905 303.599 161.782 303.672 161.672C303.741 161.569 303.833 161.483 303.94 161.42C304.047 161.356 304.167 161.318 304.291 161.307C304.449 161.292 304.608 161.313 304.756 161.369C304.907 161.423 305.04 161.517 305.141 161.641C305.19 161.707 305.232 161.777 305.265 161.852C305.298 161.93 305.32 162.011 305.333 162.094V162.094C305.333 162.094 305.277 162.088 305.271 162.082Z" fill="#244CB3"/>
<path d="M324.574 166.321H321.989L322.312 163.91H324.258L324.574 166.321Z" fill="#244CB3"/>
<path opacity="0.1" d="M324.574 166.321H321.989L322.312 163.91H324.258L324.574 166.321Z" fill="black"/>
<path d="M325.696 162.187C325.696 162.665 325.555 163.133 325.289 163.53C325.023 163.928 324.645 164.238 324.203 164.421C323.761 164.604 323.274 164.651 322.805 164.557C322.336 164.464 321.905 164.233 321.567 163.894C321.229 163.555 321 163.124 320.907 162.654C320.814 162.185 320.863 161.699 321.047 161.257C321.231 160.816 321.542 160.438 321.94 160.173C322.339 159.909 322.807 159.768 323.285 159.769C323.602 159.769 323.916 159.832 324.209 159.953C324.502 160.075 324.768 160.253 324.992 160.478C325.216 160.702 325.394 160.969 325.515 161.262C325.636 161.555 325.697 161.869 325.696 162.187Z" fill="#244CB3"/>
<path d="M325.12 162.186C325.12 162.554 325.011 162.914 324.806 163.22C324.602 163.525 324.312 163.764 323.972 163.904C323.632 164.045 323.258 164.082 322.897 164.01C322.537 163.939 322.205 163.761 321.945 163.501C321.685 163.241 321.508 162.91 321.436 162.549C321.364 162.188 321.401 161.814 321.542 161.475C321.683 161.135 321.921 160.844 322.227 160.64C322.533 160.436 322.892 160.327 323.26 160.327C323.753 160.327 324.226 160.523 324.575 160.871C324.924 161.22 325.12 161.693 325.12 162.186Z" fill="white"/>
<path d="M324.816 162.081C324.798 161.86 324.734 161.645 324.627 161.451C324.52 161.257 324.373 161.087 324.196 160.953C324.023 160.817 323.823 160.718 323.61 160.663C323.397 160.608 323.174 160.597 322.957 160.631C322.741 160.664 322.536 160.743 322.353 160.861C322.17 160.98 322.015 161.136 321.896 161.319C321.773 161.513 321.692 161.731 321.659 161.958C321.625 162.186 321.641 162.418 321.704 162.639C321.758 162.831 321.85 163.01 321.973 163.167C322.096 163.323 322.249 163.453 322.423 163.551C322.764 163.742 323.163 163.804 323.545 163.724C323.915 163.642 324.247 163.439 324.488 163.148C324.721 162.856 324.856 162.498 324.872 162.125C324.872 162.125 324.872 162.088 324.872 162.088C324.872 162.088 324.872 162.088 324.872 162.125C324.865 162.275 324.835 162.423 324.785 162.565C324.735 162.705 324.669 162.838 324.587 162.962C324.5 163.084 324.398 163.194 324.283 163.29C324.167 163.388 324.04 163.471 323.905 163.538C323.712 163.629 323.502 163.678 323.288 163.684C323.075 163.689 322.863 163.65 322.665 163.569C322.464 163.485 322.283 163.358 322.136 163.198C321.988 163.037 321.877 162.847 321.81 162.639C321.744 162.425 321.724 162.2 321.752 161.977C321.779 161.755 321.854 161.541 321.971 161.35C322.084 161.165 322.237 161.007 322.418 160.887C322.599 160.767 322.804 160.688 323.018 160.656C323.304 160.611 323.597 160.645 323.864 160.754C324.132 160.863 324.365 161.044 324.537 161.276C324.623 161.393 324.692 161.523 324.742 161.66C324.791 161.798 324.824 161.942 324.841 162.088V162.088L324.816 162.081Z" fill="#244CB3"/>
<path d="M324.599 162.082C324.583 161.895 324.528 161.713 324.439 161.548C324.349 161.383 324.227 161.238 324.08 161.122C323.932 161.005 323.762 160.921 323.581 160.873C323.4 160.825 323.21 160.814 323.025 160.842C322.839 160.869 322.662 160.935 322.504 161.035C322.346 161.136 322.211 161.268 322.107 161.425C321.998 161.592 321.927 161.781 321.897 161.979C321.867 162.177 321.879 162.379 321.934 162.571C321.979 162.738 322.058 162.894 322.164 163.03C322.27 163.166 322.403 163.28 322.553 163.365C322.852 163.53 323.199 163.583 323.533 163.514C323.855 163.44 324.143 163.261 324.351 163.005C324.551 162.751 324.668 162.442 324.686 162.119C324.686 162.119 324.686 162.088 324.686 162.088C324.686 162.088 324.686 162.088 324.686 162.119C324.672 162.382 324.587 162.636 324.44 162.855C324.292 163.073 324.088 163.247 323.849 163.359C323.681 163.441 323.497 163.487 323.309 163.492C323.122 163.497 322.935 163.462 322.763 163.388C322.591 163.315 322.436 163.205 322.31 163.066C322.184 162.927 322.089 162.762 322.033 162.584C321.976 162.399 321.959 162.204 321.985 162.013C322.011 161.821 322.078 161.637 322.182 161.474C322.278 161.32 322.408 161.189 322.561 161.09C322.714 160.992 322.887 160.928 323.068 160.904C323.31 160.866 323.558 160.893 323.786 160.984C324.014 161.074 324.213 161.224 324.364 161.418C324.439 161.516 324.5 161.625 324.543 161.741C324.588 161.858 324.617 161.981 324.63 162.106V162.106C324.63 162.106 324.605 162.082 324.599 162.082Z" fill="#244CB3"/>
<path d="M324.388 162.081C324.372 161.926 324.324 161.776 324.249 161.64C324.173 161.504 324.071 161.384 323.948 161.288C323.825 161.193 323.685 161.123 323.535 161.083C323.385 161.042 323.228 161.032 323.074 161.052C322.918 161.072 322.768 161.124 322.635 161.207C322.501 161.289 322.387 161.399 322.299 161.529C322.204 161.669 322.14 161.828 322.111 161.995C322.082 162.162 322.089 162.333 322.132 162.496C322.169 162.64 322.235 162.774 322.326 162.891C322.416 163.008 322.53 163.106 322.659 163.178C322.913 163.32 323.212 163.362 323.496 163.296C323.769 163.237 324.012 163.083 324.184 162.862C324.359 162.651 324.46 162.387 324.469 162.112C324.453 162.331 324.379 162.541 324.254 162.722C324.13 162.903 323.96 163.047 323.762 163.141C323.62 163.212 323.465 163.251 323.307 163.257C323.148 163.262 322.991 163.233 322.845 163.172C322.697 163.112 322.565 163.02 322.457 162.902C322.35 162.784 322.271 162.643 322.225 162.49C322.177 162.335 322.164 162.172 322.186 162.011C322.209 161.85 322.266 161.696 322.355 161.56C322.439 161.433 322.549 161.325 322.679 161.245C322.808 161.165 322.954 161.114 323.105 161.095C323.304 161.07 323.506 161.094 323.694 161.164C323.885 161.233 324.053 161.356 324.177 161.517C324.237 161.6 324.286 161.69 324.326 161.784C324.363 161.881 324.388 161.983 324.401 162.087V162.087L324.388 162.081Z" fill="#244CB3"/>
<path d="M324.171 162.081C324.156 161.959 324.117 161.841 324.055 161.735C323.993 161.628 323.91 161.535 323.812 161.461C323.614 161.309 323.366 161.238 323.117 161.263C322.994 161.281 322.875 161.323 322.768 161.388C322.662 161.453 322.57 161.539 322.498 161.641C322.417 161.755 322.363 161.885 322.337 162.022C322.311 162.159 322.315 162.3 322.349 162.435C322.378 162.554 322.432 162.665 322.507 162.762C322.581 162.859 322.675 162.94 322.783 162.999C322.992 163.114 323.238 163.148 323.471 163.092C323.694 163.038 323.892 162.912 324.035 162.732C324.172 162.554 324.252 162.337 324.264 162.112C324.264 162.112 324.264 162.112 324.264 162.112C324.249 162.289 324.188 162.459 324.088 162.605C323.989 162.752 323.853 162.87 323.694 162.949C323.579 163.009 323.452 163.043 323.323 163.049C323.194 163.056 323.064 163.034 322.944 162.986C322.823 162.936 322.716 162.859 322.629 162.761C322.542 162.664 322.478 162.548 322.442 162.422C322.407 162.296 322.4 162.164 322.42 162.035C322.44 161.905 322.488 161.782 322.56 161.672C322.63 161.57 322.722 161.484 322.829 161.42C322.936 161.357 323.056 161.318 323.179 161.306C323.337 161.292 323.496 161.313 323.644 161.368C323.794 161.424 323.927 161.518 324.029 161.641C324.076 161.708 324.117 161.778 324.153 161.852C324.183 161.93 324.206 162.011 324.221 162.094L324.171 162.081Z" fill="#244CB3"/>
<path d="M330.135 165.094H297.584V171.318H330.135V165.094Z" fill="white"/>
<path d="M330.215 171.398H297.51V164.995H330.215V171.398ZM297.665 171.243H330.06V165.174H297.665V171.243Z" fill="#263238"/>
<path d="M304.279 165.094L301.917 171.318H297.708L300.076 165.094H304.279Z" fill="#244CB3"/>
<path d="M312.895 165.094L310.533 171.318H306.324L308.686 165.094H312.895Z" fill="#244CB3"/>
<path d="M321.506 165.094L319.144 171.318H314.941L317.303 165.094H321.506Z" fill="#244CB3"/>
<path d="M330.122 165.094L327.761 171.318H323.558L325.919 165.094H330.122Z" fill="#244CB3"/>
<path d="M313.862 173.27C316.659 173.27 318.927 171.003 318.927 168.206C318.927 165.409 316.659 163.141 313.862 163.141C311.065 163.141 308.798 165.409 308.798 168.206C308.798 171.003 311.065 173.27 313.862 173.27Z" fill="white"/>
<path d="M313.862 173.351C312.844 173.352 311.849 173.051 311.002 172.487C310.155 171.922 309.495 171.119 309.104 170.179C308.714 169.239 308.611 168.204 308.809 167.206C309.007 166.207 309.496 165.29 310.216 164.57C310.935 163.85 311.852 163.359 312.85 163.16C313.848 162.961 314.883 163.062 315.824 163.452C316.764 163.841 317.568 164.5 318.134 165.347C318.699 166.193 319.001 167.188 319.001 168.206C319 169.569 318.458 170.875 317.495 171.84C316.531 172.804 315.225 173.348 313.862 173.351V173.351ZM313.862 163.222C312.881 163.222 311.923 163.513 311.107 164.057C310.292 164.602 309.656 165.377 309.281 166.283C308.905 167.189 308.807 168.186 308.998 169.148C309.19 170.11 309.662 170.994 310.356 171.688C311.049 172.381 311.933 172.853 312.895 173.045C313.857 173.236 314.854 173.138 315.76 172.763C316.666 172.387 317.441 171.752 317.986 170.936C318.531 170.121 318.821 169.162 318.821 168.181C318.812 166.869 318.286 165.613 317.358 164.685C316.43 163.757 315.175 163.231 313.862 163.222V163.222Z" fill="#263238"/>
<path d="M313.862 172.501C316.235 172.501 318.158 170.578 318.158 168.206C318.158 165.833 316.235 163.91 313.862 163.91C311.49 163.91 309.566 165.833 309.566 168.206C309.566 170.578 311.49 172.501 313.862 172.501Z" fill="#244CB3"/>
<path d="M316.553 167.71H311.166V168.708H316.553V167.71Z" fill="white"/>
<path d="M61.6943 133.659H90.1943V165.959H61.6943V133.659Z" fill="#F1B97C"/>
<path d="M137.806 170.988C132.441 180.265 124.953 188.2 116.124 194.235L112.436 196.582C110.536 197.7 108.636 198.706 106.736 199.712C97.4591 204.071 87.0649 206.641 76.0002 206.641C64.9355 206.641 54.6532 204.182 45.2649 199.712C43.2532 198.818 41.3532 197.7 39.5649 196.582L35.8767 194.235C27.0473 188.2 19.6708 180.265 14.1943 170.988L16.3179 163.053C16.9885 159.923 19.8943 158.582 19.8943 158.582L48.8414 149.865L61.8061 145.953C73.7649 152.547 78.2355 152.547 90.3061 145.953L95.4473 147.518L103.271 149.865L132.218 158.471C132.218 158.471 135.012 159.812 135.794 162.941L137.806 170.988V170.988Z" fill="#F79E54"/>
<path d="M100.7 105.382H100.364C98.5762 85.3765 85.3879 81.2412 79.7997 80.4589V80.2354H72.1997V80.4589C66.6115 81.2412 53.4232 85.3765 51.635 105.382H51.2997C49.0644 105.829 47.9468 109.853 48.8409 114.435C49.735 118.682 51.9703 121.924 54.2056 121.924C55.6585 126.171 57.335 130.641 58.1174 131.312C58.1174 131.312 65.9409 144.165 75.9997 144.277C86.0585 144.165 93.882 131.312 93.882 131.312C94.6644 130.641 96.3409 126.171 97.7938 121.924C99.9173 121.924 102.264 118.794 103.159 114.435C104.053 109.853 102.935 105.829 100.7 105.382Z" fill="#F8CFA3"/>
<path d="M106.735 188.982V199.712C97.4588 204.071 87.0647 206.641 75.9999 206.641C64.9352 206.641 54.6529 204.182 45.2646 199.712V188.982H106.735ZM56.6647 147.518V173.112H48.8411V149.865L56.6647 147.518Z" fill="#244CB3"/>
<path d="M103.158 149.976V173.112H95.335V147.629L103.158 149.976ZM95.335 180.041H103.158V192.894H95.335V180.041Z" fill="#244CB3"/>
<path d="M96.565 104.712H93.5473C93.9944 107.506 95.2238 115.776 96.0061 116.335H96.565C96.565 116.335 96.4532 109.741 96.565 104.712ZM55.4355 104.712H58.4532C58.0061 107.506 56.7767 115.776 55.9944 116.335H55.4355C55.4355 116.335 55.5473 109.741 55.4355 104.712Z" fill="#061F48"/>
<path d="M101.93 100.241V103.147H50.0713V100.241C50.0713 91.5234 54.4301 83.8117 61.0242 79.1176C62.3654 76.4352 64.936 74.5352 67.9536 74.0881C68.4007 73.9764 68.8478 73.9764 69.4066 73.9764H70.4125C70.636 71.0705 73.0948 68.8352 76.0007 68.8352C77.5654 68.8352 79.0183 69.5058 80.0242 70.5117C80.9184 71.4058 81.5889 72.6352 81.7007 73.9764H82.7066C83.1536 73.9764 83.6007 73.9764 84.1595 74.0881C87.1772 74.5352 89.7478 76.4352 91.0889 79.1176C92.3184 80.0117 93.436 80.9058 94.4419 81.9117C99.0242 86.6058 101.93 93.0882 101.93 100.241Z" fill="#F79E54"/>
<path d="M103.383 105.27H48.6181C47.3887 105.27 46.3828 104.265 46.3828 103.035C46.3828 101.806 47.3887 100.8 48.6181 100.8H103.383C104.612 100.8 105.618 101.806 105.618 103.035C105.506 104.376 104.612 105.27 103.383 105.27Z" fill="#F79E54"/>
<path d="M70.3006 73.9763V92.9763L67.8418 74.0881C68.2889 73.9763 68.7359 73.9763 69.2947 73.9763H70.3006V73.9763ZM84.0477 74.0881L81.5888 92.9763V73.9763H82.7065C83.1536 73.9763 83.6006 73.9763 84.0477 74.0881V74.0881Z" fill="#F79E54"/>
</svg>
