<svg width="286" height="178" viewBox="0 0 286 178" fill="none" xmlns="http://www.w3.org/2000/svg">
<path d="M145.939 119.83C148.514 119.638 150.993 121.214 150.83 123.656C152.105 120.297 154.386 116.778 157.844 115.247C161.303 113.715 165.689 115.453 165.174 118.852C167.434 114.102 169.81 109.189 173.806 105.392C177.802 101.594 183.9 99.2341 188.141 101.187C191.506 102.737 192.893 106.609 192.638 110.467C192.382 114.325 190.746 118.226 189.133 122.037C191.631 117.021 198.068 113.462 203.127 114.487C208.186 115.512 210.89 121.169 208.541 126.225C211.116 122.399 213.813 118.44 217.677 115.723C221.541 113.005 226.924 111.921 229.925 114.379C232.738 116.682 232.557 121.181 231.202 125.077C229.847 128.972 227.523 132.714 226.472 136.639C228.148 132.841 233.37 130.373 236.855 131.732C240.34 133.091 241.235 137.945 238.636 141.383C240.223 139.19 242.835 137.591 245.413 137.234C251.039 136.455 254.813 141.581 254.519 146.878C254.225 152.176 250.012 160.262 246.94 165.238C202.26 165.8 160.474 156.04 118.032 148.803C118.679 148.913 128.928 134.206 130.311 132.3C133.826 127.463 139.491 120.31 145.939 119.83Z" fill="#4FB29F"/>
<path d="M235.585 145.38C231.37 143.329 225.926 144.526 224.203 148.687C223.761 142.489 220.849 134.773 214.991 133.888C211.516 133.363 208.389 135.723 206.806 138.807C205.223 141.891 204.871 145.596 204.546 149.203C202.903 145.431 199.984 141.844 196.231 140.847C192.479 139.849 188.232 142.532 188.534 146.536C188.145 142.982 185.75 139.83 183.19 137.264C179.696 133.756 175.365 130.721 170.785 130.515C164.266 130.22 159.16 135.904 157.552 142.387C155.945 148.869 157.048 156 158.16 162.892C158.326 163.918 212.953 165.381 218.041 165.614C222.984 165.839 227.928 166.064 232.873 166.288C235.563 166.411 241.873 167.943 244.052 165.942C249.228 161.18 240.789 147.911 235.585 145.38Z" fill="#88C1BA"/>
<path d="M104.82 130.46C102.743 130.306 100.744 131.576 100.875 133.547C99.8504 130.837 98.0058 128.002 95.2224 126.766C92.439 125.529 88.8947 126.932 89.3134 129.674C87.4909 125.848 85.5749 121.884 82.3544 118.822C79.1339 115.76 74.216 113.857 70.7961 115.433C68.084 116.684 66.9649 119.804 67.1716 122.914C67.3784 126.025 68.6962 129.169 69.9963 132.242C67.9832 128.195 62.793 125.329 58.7146 126.156C54.6362 126.982 52.4554 131.543 54.35 135.619C52.2758 132.534 50.0987 129.342 46.9841 127.152C43.8696 124.961 39.5314 124.086 37.1093 126.068C34.8416 127.924 34.9873 131.552 36.0792 134.693C37.1711 137.833 39.048 140.85 39.8934 144.015C38.5418 140.953 34.3317 138.962 31.5218 140.058C28.7118 141.153 27.9901 145.067 30.087 147.839C28.8068 146.073 26.7024 144.783 24.6224 144.495C20.0871 143.866 17.0439 147.999 17.2816 152.27C17.5192 156.541 18.9451 168.605 24.7041 168.017C60.7262 168.47 93.0997 159.657 127.318 153.824C126.796 153.913 118.534 142.055 117.419 140.519C114.585 136.615 110.019 130.847 104.82 130.46Z" fill="#4FB29F"/>
<path d="M27.2565 152.222C33.7313 148.66 40.332 150.371 41.7211 153.726C42.0765 148.728 44.4251 142.508 49.148 141.794C51.9491 141.371 54.4699 143.273 55.7465 145.76C57.0231 148.246 57.3071 151.234 57.569 154.141C58.8934 151.101 61.2479 148.211 64.2697 147.404C67.2915 146.598 70.7239 148.761 70.4782 151.992C70.7916 149.126 72.7223 146.585 74.7862 144.514C77.6035 141.685 81.0955 139.239 84.7876 139.069C90.0432 138.831 94.1577 143.414 95.4564 148.64C96.755 153.866 95.8632 159.616 94.9656 165.172C94.8324 166.006 50.7888 167.183 46.6891 167.369L34.7312 167.912C32.5622 168.011 27.4743 169.246 25.7172 167.632C21.5424 163.798 23.17 154.471 27.2565 152.222Z" fill="#88C1BA"/>
<path d="M246.615 107.903C246.611 108.575 246.652 109.254 246.694 109.949C246.682 109.968 246.674 109.989 246.671 110.01C246.668 110.032 246.669 110.054 246.674 110.076C246.68 110.097 246.689 110.117 246.703 110.134C246.716 110.152 246.733 110.166 246.752 110.177C246.812 110.68 246.889 111.174 246.973 111.648C246.931 111.656 246.893 111.679 246.867 111.712C246.854 111.729 246.845 111.749 246.84 111.769C246.835 111.79 246.835 111.811 246.839 111.832C246.843 111.853 246.851 111.873 246.864 111.89C246.876 111.908 246.891 111.922 246.909 111.933L247.043 112.019C247.259 113.108 247.534 114.184 247.866 115.243C248.013 115.717 248.257 116.28 248.547 116.932C248.534 116.948 248.524 116.967 248.519 116.987C248.513 117.007 248.512 117.029 248.515 117.049C248.518 117.07 248.526 117.09 248.537 117.108C248.548 117.126 248.563 117.141 248.58 117.153L248.765 117.283C251.281 122.081 257.447 130.099 258.334 131.24C258.366 131.426 258.383 131.535 258.383 131.535C258.389 131.567 258.404 131.596 258.427 131.62C258.449 131.643 258.478 131.66 258.51 131.667C258.532 131.672 258.555 131.674 258.578 131.671C258.6 131.669 258.621 131.663 258.64 131.654C258.659 131.644 258.676 131.63 258.69 131.613C258.704 131.597 258.714 131.577 258.72 131.557C258.726 131.536 258.728 131.514 258.725 131.493L258.705 131.37C258.73 131.341 258.743 131.304 258.741 131.266C258.701 130.489 257.739 112.203 256.527 108.792C255.536 106.007 254.241 103.048 252.141 102.227C251.236 101.874 250.228 101.943 249.146 102.436C247.488 103.192 246.636 105.031 246.615 107.903ZM248.321 165.29C248.365 165.302 248.411 165.3 248.453 165.285C248.496 165.27 248.533 165.242 248.559 165.206C248.559 165.206 248.633 165.099 248.757 164.924C248.927 164.725 249.272 164.327 249.74 163.82C250.569 163.084 251.918 162.19 254.018 161.51C257.648 160.333 265.476 157.402 269.118 154.713C271.779 152.747 276.026 149.034 274.579 146.243C273.998 145.121 273.13 144.477 271.999 144.319C267.166 143.657 258.767 152.357 256.007 155.215L255.647 155.588C253.127 158.182 249.964 162.511 248.724 164.24C248.513 164.476 248.33 164.735 248.179 165.013C248.134 165.11 248.175 165.222 248.321 165.29Z" fill="#07827D"/>
<path d="M251.753 144.666C251.753 144.666 245.357 136.78 242.324 131.952C239.291 127.124 237.464 124.905 239.299 122.194C241.12 119.505 244.151 121.222 246.747 125.01C249.343 128.797 251.753 144.666 251.753 144.666ZM252.032 146.637C252.032 146.637 257.269 141.972 261.899 139.62C266.53 137.267 274.947 134.897 271.915 130.463C269.315 126.661 261.938 132.939 259.339 136.243C257.611 138.44 252.032 146.637 252.032 146.637Z" fill="#9BCDA8"/>
<path d="M264.244 122.646C267.009 119.724 270.6 115.375 272.384 113.664C274.168 111.953 278.332 108.091 282.505 111.581C284.531 113.273 280.393 117.345 275.92 119.347C271.098 121.504 261.478 125.568 264.244 122.646Z" fill="#07827D"/>
<path d="M267.874 108.16C267.874 108.16 267.113 103.106 266.986 98.3731C266.859 93.6402 266.865 84.3591 271.355 83.6188C276.087 82.8388 276.601 88.3738 275.731 91.3841C274.862 94.3945 267.874 108.16 267.874 108.16ZM262.528 123.874C262.662 123.77 276.079 113.406 281.892 111.439C281.934 111.424 281.98 111.426 282.021 111.444C282.061 111.461 282.094 111.493 282.113 111.534C282.121 111.554 282.124 111.575 282.123 111.596C282.122 111.618 282.117 111.638 282.108 111.658C282.098 111.677 282.085 111.694 282.069 111.708C282.052 111.721 282.033 111.732 282.013 111.737C276.256 113.683 262.882 124.012 262.75 124.116C262.728 124.132 262.703 124.144 262.676 124.149C262.649 124.155 262.621 124.154 262.594 124.147C262.561 124.139 262.531 124.121 262.507 124.096C262.493 124.081 262.481 124.063 262.475 124.043C262.468 124.023 262.465 124.002 262.467 123.981C262.469 123.96 262.475 123.939 262.486 123.921C262.496 123.903 262.511 123.887 262.528 123.874Z" fill="#9BCDA8"/>
<path d="M247.977 171.501C248.002 171.507 248.028 171.51 248.054 171.509C248.087 171.51 248.119 171.504 248.149 171.492C248.179 171.479 248.207 171.461 248.23 171.439C248.253 171.416 248.271 171.389 248.283 171.359C248.296 171.329 248.302 171.297 248.302 171.264C248.302 171.223 248.125 167.118 248.611 161.577C249.058 156.469 250.175 149.059 252.952 142.772C255.194 137.699 257.524 133.58 259.579 129.946C262.544 124.704 265.104 120.178 266.61 114.415C268.612 106.752 273.135 84.2494 273.18 84.025C273.185 83.9929 273.184 83.9602 273.176 83.9286C273.168 83.8971 273.154 83.8675 273.135 83.8415C273.115 83.8154 273.091 83.7935 273.063 83.777C273.035 83.7605 273.004 83.7498 272.972 83.7453C272.907 83.7315 272.839 83.7435 272.783 83.7786C272.727 83.8137 272.686 83.8694 272.67 83.9337C272.626 84.1596 268.109 106.651 266.106 114.302C264.615 120.008 262.068 124.511 259.116 129.725C257.056 133.368 254.72 137.498 252.468 142.591C249.663 148.936 248.538 156.399 248.087 161.543C247.6 167.112 247.777 171.24 247.779 171.281C247.784 171.334 247.806 171.384 247.841 171.424C247.877 171.464 247.925 171.491 247.977 171.501Z" fill="#07827D"/>
<path d="M248.044 165.593C248.088 165.605 248.134 165.603 248.176 165.588C248.219 165.573 248.255 165.546 248.282 165.509L248.48 165.227C248.65 165.029 248.995 164.631 249.463 164.124C250.293 163.388 251.641 162.494 253.741 161.814C257.372 160.636 265.2 157.706 268.841 155.016C271.501 153.051 275.749 149.338 274.303 146.547C273.721 145.424 272.852 144.777 271.723 144.622C266.89 143.96 258.491 152.66 255.73 155.519L255.37 155.892C252.847 158.487 249.684 162.815 248.447 164.547C248.236 164.782 248.053 165.042 247.903 165.32C247.857 165.413 247.898 165.525 248.044 165.593ZM256.055 155.782C257.135 154.664 259.161 152.565 261.495 150.515L260.625 154.593C257.547 156.821 254.844 158.776 253.863 159.479C252.735 160.288 251.562 161.366 250.565 162.365C252.05 160.383 254.016 157.881 255.693 156.157L256.055 155.782ZM273.026 145.607C272.934 145.674 267.739 149.441 262.725 153.071L262.64 153.082C262.593 153.087 262.55 153.107 262.516 153.141C262.483 153.174 262.462 153.218 262.457 153.265L261.148 154.215C261.148 154.215 262.027 150.095 262.031 150.051C262.406 149.729 262.789 149.41 263.176 149.095C266.863 146.119 269.719 144.745 271.665 145.011C271.78 145.027 271.894 145.049 272.007 145.077C272.384 145.169 272.734 145.35 273.026 145.607ZM272.946 150.611C272.61 151.05 272.249 151.47 271.863 151.866L263.584 152.955C268.406 149.461 273.207 145.98 273.296 145.916C273.312 145.904 273.326 145.889 273.338 145.873C273.566 146.125 273.76 146.406 273.913 146.709C274.447 147.742 274.121 149.055 272.946 150.614V150.611ZM268.569 154.7C268.223 154.956 267.833 155.215 267.405 155.48L261.364 154.563L262.909 153.445L271.405 152.328C270.512 153.181 269.565 153.974 268.569 154.704V154.7ZM263.582 157.503L258.138 156.895C258.994 156.276 259.929 155.599 260.902 154.895L266.868 155.8C265.898 156.371 264.775 156.946 263.582 157.507V157.503ZM250.943 162.572C251.913 161.605 253.044 160.568 254.13 159.789C254.744 159.348 256.032 158.421 257.662 157.241L262.886 157.825C259.855 159.192 256.752 160.397 253.593 161.434C252.674 161.727 251.787 162.109 250.943 162.576V162.572Z" fill="#9BCDA8"/>
<path d="M246.615 107.523C246.611 108.196 246.652 108.875 246.694 109.57C246.682 109.588 246.675 109.609 246.671 109.631C246.668 109.652 246.669 109.675 246.674 109.696C246.68 109.717 246.689 109.737 246.703 109.754C246.716 109.772 246.733 109.786 246.752 109.797C246.812 110.3 246.889 110.794 246.973 111.269C246.931 111.276 246.893 111.298 246.867 111.332C246.854 111.349 246.845 111.368 246.84 111.389C246.836 111.41 246.835 111.431 246.839 111.452C246.843 111.473 246.852 111.492 246.864 111.51C246.876 111.527 246.891 111.542 246.91 111.553L247.043 111.64C247.26 112.728 247.534 113.804 247.866 114.863C248.013 115.336 248.257 115.9 248.547 116.551C248.534 116.568 248.525 116.587 248.519 116.607C248.514 116.627 248.512 116.648 248.515 116.669C248.519 116.69 248.526 116.71 248.537 116.727C248.548 116.745 248.563 116.76 248.58 116.772L248.765 116.902C251.282 121.701 257.447 129.719 258.334 130.86C258.366 131.046 258.383 131.154 258.383 131.154C258.389 131.186 258.404 131.215 258.427 131.239C258.449 131.262 258.478 131.279 258.51 131.286C258.532 131.292 258.555 131.293 258.578 131.29C258.6 131.289 258.621 131.283 258.64 131.273C258.659 131.263 258.676 131.25 258.69 131.233C258.704 131.216 258.714 131.197 258.72 131.176C258.726 131.155 258.728 131.134 258.725 131.112L258.706 130.989C258.73 130.96 258.743 130.923 258.742 130.885C258.701 130.108 257.739 111.822 256.527 108.411C255.537 105.626 254.242 102.667 252.141 101.846C251.236 101.493 250.228 101.563 249.146 102.055C247.488 102.812 246.636 104.652 246.615 107.523ZM258.274 128.707C257.948 127.125 257.431 124.85 256.684 122.149L256.659 122.061L257.438 117.227C257.82 121.435 258.117 126.058 258.274 128.707ZM249.394 117.348L256.362 122.272C257.36 125.883 257.941 128.721 258.207 130.145C256.635 128.092 251.778 121.639 249.394 117.348ZM247.452 111.903C247.452 111.903 254.581 116.521 254.601 116.531C255.25 118.451 255.787 120.225 256.224 121.774L249.045 116.704C248.661 115.969 248.366 115.311 248.199 114.779C247.903 113.834 247.654 112.874 247.452 111.904V111.903ZM247.133 110.033L253.49 114.002C253.507 114.012 253.524 114.019 253.543 114.024C253.57 114.031 253.599 114.032 253.627 114.026C253.655 114.019 253.682 114.007 253.704 113.988C253.96 114.686 254.203 115.369 254.432 116.038L247.364 111.459C247.272 110.976 247.194 110.499 247.133 110.035V110.033ZM246.96 107.531C246.98 104.788 247.77 103.043 249.303 102.344C250.165 101.952 250.942 101.848 251.663 102.032C251.781 102.061 251.897 102.098 252.01 102.143C253.997 102.918 255.291 105.954 256.204 108.512C256.611 109.655 256.993 112.581 257.322 115.954C257.303 115.974 257.29 116 257.285 116.027L256.439 121.272C255.052 116.427 252.716 109.567 249.16 102.885C249.137 102.847 249.101 102.818 249.058 102.804C249.015 102.791 248.969 102.793 248.928 102.812C248.909 102.819 248.891 102.831 248.876 102.847C248.861 102.862 248.849 102.88 248.842 102.9C248.834 102.92 248.831 102.941 248.833 102.963C248.834 102.984 248.84 103.005 248.85 103.024C250.775 106.641 252.342 110.308 253.593 113.684L247.085 109.622C247.002 108.927 246.96 108.229 246.96 107.529V107.531ZM251.351 146.931C251.385 146.895 254.792 143.262 258.952 139.436C260.443 138.065 261.835 136.845 263.13 135.775C263.115 135.755 263.105 135.731 263.102 135.706C263.099 135.681 263.102 135.656 263.111 135.632L264.893 131.217C264.911 131.177 264.944 131.145 264.985 131.128C265.026 131.111 265.072 131.11 265.113 131.125C265.134 131.132 265.153 131.142 265.17 131.156C265.186 131.169 265.2 131.187 265.209 131.206C265.219 131.225 265.224 131.246 265.225 131.268C265.227 131.289 265.223 131.311 265.216 131.331L263.568 135.417C266.922 132.686 269.579 131.018 271.496 130.44C271.539 130.426 271.586 130.428 271.627 130.447C271.668 130.466 271.7 130.5 271.717 130.542C271.724 130.562 271.727 130.584 271.725 130.605C271.723 130.626 271.717 130.647 271.707 130.666C271.697 130.685 271.683 130.701 271.666 130.714C271.649 130.727 271.63 130.737 271.609 130.742C269.535 131.367 266.716 133.298 263.849 135.627L268.022 136.292C268.043 136.295 268.064 136.302 268.083 136.313C268.102 136.323 268.118 136.338 268.132 136.355C268.145 136.372 268.155 136.391 268.16 136.412C268.166 136.433 268.167 136.455 268.165 136.476C268.155 136.52 268.129 136.557 268.091 136.581C268.054 136.605 268.009 136.614 267.966 136.606L263.519 135.895C257.656 140.713 251.704 147.045 251.614 147.141C251.592 147.164 251.564 147.18 251.533 147.189C251.502 147.197 251.47 147.198 251.439 147.19C251.414 147.184 251.391 147.172 251.371 147.156C251.354 147.144 251.339 147.128 251.328 147.11C251.317 147.091 251.31 147.07 251.308 147.049C251.306 147.027 251.309 147.006 251.316 146.985C251.324 146.965 251.335 146.947 251.351 146.931ZM240.82 121.066C240.86 121.045 240.906 121.039 240.95 121.05C240.993 121.06 241.032 121.087 241.057 121.124C242.901 124.016 245.472 129.316 247.679 134.113L248.347 129.977C248.355 129.934 248.381 129.895 248.417 129.871C248.454 129.846 248.499 129.836 248.542 129.844C248.564 129.846 248.585 129.852 248.604 129.863C248.624 129.873 248.641 129.887 248.654 129.904C248.668 129.921 248.678 129.94 248.684 129.961C248.69 129.982 248.692 130.004 248.689 130.026L247.987 134.426C247.982 134.454 247.969 134.48 247.95 134.501C247.932 134.523 247.907 134.539 247.88 134.548C250.234 139.699 252.125 144.159 252.162 144.246C252.17 144.266 252.174 144.287 252.173 144.309C252.172 144.33 252.167 144.351 252.158 144.37C252.149 144.389 252.136 144.407 252.119 144.42C252.103 144.434 252.084 144.445 252.064 144.451C252.029 144.463 251.992 144.464 251.957 144.455C251.931 144.449 251.908 144.437 251.887 144.42C251.867 144.403 251.851 144.382 251.841 144.358C251.811 144.289 250.605 141.441 248.924 137.681C248.846 137.658 244.671 135.268 244.671 135.268C244.652 135.259 244.635 135.245 244.621 135.228C244.608 135.211 244.598 135.192 244.593 135.171C244.587 135.15 244.586 135.128 244.59 135.107C244.594 135.086 244.602 135.065 244.614 135.047C244.64 135.011 244.679 134.986 244.723 134.976C244.767 134.967 244.813 134.975 244.852 134.997L248.713 137.205C248.3 136.285 247.862 135.317 247.407 134.326L242.131 131.377C242.112 131.367 242.095 131.354 242.081 131.337C242.068 131.32 242.058 131.301 242.052 131.28C242.046 131.259 242.045 131.237 242.049 131.216C242.052 131.195 242.06 131.174 242.072 131.156C242.098 131.12 242.136 131.094 242.18 131.084C242.224 131.074 242.27 131.081 242.309 131.103L247.178 133.826C245.022 129.147 242.55 124.075 240.764 121.276C240.754 121.259 240.747 121.239 240.744 121.219C240.742 121.199 240.743 121.179 240.748 121.159C240.753 121.14 240.762 121.121 240.775 121.105C240.787 121.089 240.803 121.076 240.82 121.066Z" fill="#52A9A0"/>
<path d="M14.7357 119.181C14.944 119.658 15.186 120.125 15.4347 120.604C15.4323 120.62 15.4332 120.637 15.4376 120.654C15.4419 120.67 15.4495 120.686 15.46 120.699C15.4705 120.712 15.4835 120.723 15.4984 120.732C15.5133 120.74 15.5297 120.745 15.5466 120.746C15.7474 121.083 15.9564 121.409 16.1668 121.718C16.1396 121.736 16.12 121.764 16.1116 121.796C16.1073 121.812 16.1065 121.829 16.1094 121.846C16.1122 121.862 16.1186 121.878 16.1281 121.892C16.1376 121.906 16.1499 121.918 16.1644 121.927C16.1788 121.935 16.1949 121.941 16.2117 121.943L16.3338 121.962C16.8286 122.664 17.3606 123.338 17.9275 123.983C18.2471 124.328 18.5851 124.655 18.94 124.963C18.9355 124.979 18.9344 124.996 18.9368 125.012C18.9392 125.028 18.945 125.044 18.9538 125.058C18.9626 125.072 18.9743 125.084 18.988 125.093C19.0017 125.102 19.0172 125.108 19.0334 125.111L19.2048 125.145C22.4923 127.749 29.374 131.482 30.357 132.011L30.4836 132.203C30.4978 132.223 30.5177 132.24 30.541 132.249C30.5643 132.259 30.5898 132.261 30.6145 132.256C30.6322 132.253 30.6492 132.247 30.6646 132.237C30.6793 132.229 30.6922 132.219 30.7026 132.206C30.7131 132.193 30.7208 132.178 30.7252 132.162C30.7297 132.146 30.7309 132.129 30.7287 132.112C30.7265 132.096 30.7209 132.08 30.7124 132.066L30.6594 131.985C30.6677 131.957 30.6651 131.926 30.6521 131.9C30.3798 131.363 23.9565 118.729 22.0265 116.7C20.4513 115.041 18.6059 113.356 16.8629 113.435C16.1116 113.469 15.4207 113.835 14.81 114.523C13.8705 115.575 13.8454 117.146 14.7357 119.181ZM33.9645 159.236C33.9989 159.23 34.0307 159.215 34.056 159.191C34.0813 159.167 34.0989 159.136 34.1065 159.102C34.1065 159.102 34.1257 159.003 34.158 158.841C34.2162 158.647 34.3361 158.252 34.5061 157.75C34.8614 156.969 35.5361 155.911 36.8061 154.772C39.0046 152.8 43.6201 148.268 45.3507 145.22C46.6155 142.995 48.4534 139.034 46.5537 137.515C45.7899 136.904 44.9725 136.719 44.1256 136.964C40.499 138.015 37.291 146.806 36.2366 149.694C36.1851 149.836 36.1387 149.962 36.0983 150.071C35.13 152.699 34.2515 156.754 33.9204 158.368C33.8451 158.601 33.7977 158.842 33.7791 159.086C33.7747 159.166 33.8394 159.236 33.9645 159.236Z" fill="#07827D"/>
<path d="M29.9147 143.571C29.9147 143.571 22.9138 140.003 19.2518 137.538C15.5899 135.072 13.6018 134.079 14.0477 131.586C14.4892 129.112 17.1747 129.375 20.2003 131.238C23.2258 133.101 29.9147 143.571 29.9147 143.571ZM30.73 144.876C30.73 144.876 32.9697 139.931 35.5052 136.813C38.0406 133.694 43.2507 129.374 39.7131 127.19C36.6802 125.317 33.4347 132.075 32.6334 135.229C32.1 137.326 30.73 144.876 30.73 144.876Z" fill="#9BCDA8"/>
<path d="M31.8322 124.071C32.8704 121.136 34.044 116.933 34.7687 115.161C35.4934 113.388 37.2247 109.347 41.2722 110.508C43.2382 111.07 41.5901 115.249 39.0546 118.069C36.3212 121.11 30.7933 127.006 31.8322 124.071Z" fill="#07827D"/>
<path d="M29.8493 112.684C29.8493 112.684 27.7244 109.346 26.1476 106.042C24.5709 102.738 21.6594 96.1678 24.6025 94.234C27.7045 92.1957 29.8059 95.9493 30.137 98.3547C30.4681 100.76 29.8493 112.684 29.8493 112.684ZM31.0045 125.479C31.067 125.363 37.3013 113.818 40.7955 110.602C40.821 110.579 40.8543 110.566 40.8889 110.566C40.9235 110.566 40.9569 110.579 40.9824 110.602C40.9941 110.614 41.0033 110.628 41.0093 110.643C41.0153 110.658 41.0181 110.675 41.0174 110.691C41.0167 110.708 41.0126 110.724 41.0053 110.739C40.998 110.753 40.9877 110.767 40.975 110.777C37.5169 113.962 31.3018 125.468 31.2392 125.584C31.2225 125.614 31.195 125.638 31.1622 125.649C31.1293 125.661 31.0933 125.66 31.0612 125.646C31.0455 125.64 31.0314 125.631 31.0199 125.619C31.0083 125.606 30.9995 125.592 30.9941 125.576C30.9887 125.56 30.9868 125.543 30.9886 125.526C30.9904 125.51 30.9958 125.494 31.0045 125.479Z" fill="#9BCDA8"/>
<path d="M35.6732 163.735C35.6931 163.732 35.7125 163.726 35.7305 163.717C35.7536 163.707 35.7745 163.693 35.792 163.674C35.8094 163.656 35.8231 163.635 35.8322 163.612C35.8414 163.588 35.8457 163.563 35.8451 163.538C35.8444 163.513 35.8387 163.489 35.8284 163.466C35.8144 163.437 34.401 160.589 33.0038 156.517C31.7154 152.764 30.1784 147.172 30.1695 141.852C30.1622 137.56 30.5161 133.914 30.8317 130.698C31.282 126.062 31.6713 122.054 30.9259 117.505C29.9348 111.456 26.0698 94.1193 26.0271 93.9449C26.0208 93.9206 26.0096 93.8978 25.9942 93.8779C25.9789 93.858 25.9597 93.8414 25.9378 93.829C25.9159 93.8166 25.8918 93.8088 25.8668 93.806C25.8418 93.8031 25.8165 93.8054 25.7924 93.8125C25.7422 93.8228 25.698 93.8524 25.6692 93.8949C25.6405 93.9373 25.6295 93.9894 25.6386 94.0399C25.6776 94.2142 29.5441 111.543 30.533 117.582C31.2688 122.086 30.884 126.071 30.4359 130.685C30.1232 133.909 29.7678 137.563 29.7737 141.873C29.7833 147.245 31.3313 152.875 32.6285 156.654C34.0324 160.746 35.4546 163.61 35.4686 163.639C35.488 163.674 35.5183 163.703 35.5551 163.72C35.5919 163.738 35.6332 163.743 35.6732 163.735Z" fill="#07827D"/>
<path d="M33.8661 159.536C33.9004 159.53 33.9323 159.515 33.9576 159.491C33.9829 159.467 34.0005 159.436 34.0081 159.402C34.0081 159.402 34.0272 159.303 34.0596 159.14C34.1177 158.947 34.2376 158.556 34.4076 158.051C34.763 157.269 35.4377 156.211 36.7076 155.072C38.9061 153.101 43.5217 148.567 45.2529 145.521C46.517 143.295 48.355 139.334 46.4552 137.815C45.6915 137.203 44.874 137.018 44.0271 137.264C40.4005 138.315 37.1925 147.106 36.1381 149.994L36.0005 150.371C35.0315 152.999 34.153 157.054 33.8219 158.667C33.7467 158.9 33.6993 159.141 33.6806 159.385C33.674 159.468 33.7388 159.534 33.8661 159.536ZM36.4501 150.081C36.8629 148.95 37.6369 146.829 38.6435 144.646L39.3093 147.803C37.8326 150.346 36.534 152.578 36.0609 153.384C35.5171 154.31 35.0264 155.444 34.6349 156.461C35.0632 154.592 35.665 152.206 36.3118 150.459C36.35 150.349 36.3964 150.223 36.4479 150.081H36.4501ZM45.2559 137.552C45.2117 137.626 42.7204 141.925 40.3159 146.067L40.2585 146.101C40.2264 146.119 40.2015 146.147 40.188 146.181C40.1746 146.216 40.1735 146.253 40.1849 146.288L39.5551 147.373C39.5551 147.373 38.8826 144.183 38.8715 144.151C39.0364 143.804 39.2063 143.458 39.3822 143.116C41.0553 139.853 42.6439 137.983 44.1037 137.56C44.19 137.535 44.2777 137.515 44.3663 137.499C44.6627 137.444 44.9681 137.462 45.2559 137.552ZM46.7716 141.12C46.6736 141.536 46.5508 141.946 46.4037 142.347L40.8898 145.718C43.2031 141.733 45.506 137.762 45.548 137.688C45.5556 137.675 45.5613 137.66 45.5649 137.645C45.8054 137.751 46.0306 137.889 46.2345 138.056C46.9312 138.616 47.11 139.646 46.7716 141.12ZM44.9601 145.388C44.796 145.677 44.601 145.984 44.3825 146.304L39.8207 147.555L40.5616 146.278L46.2205 142.819C45.8565 143.702 45.4355 144.559 44.9601 145.387V145.388ZM42.3113 148.936L38.2719 150.215C38.6824 149.509 39.132 148.736 39.5963 147.934L44.1007 146.7C43.5952 147.404 42.9809 148.164 42.3135 148.934L42.3113 148.936ZM34.9697 156.491C35.3523 155.502 35.8262 154.414 36.35 153.522C36.6443 153.018 37.2661 151.956 38.0497 150.609L41.9272 149.382C40.2125 151.301 38.3967 153.127 36.4876 154.853C35.929 155.348 35.4206 155.897 34.9697 156.491Z" fill="#9BCDA8"/>
<path d="M14.6137 118.912C14.8219 119.389 15.064 119.856 15.3126 120.334C15.3103 120.351 15.3113 120.368 15.3157 120.385C15.3201 120.401 15.3277 120.416 15.3382 120.43C15.3486 120.443 15.3617 120.454 15.3765 120.462C15.3913 120.47 15.4076 120.475 15.4245 120.477C15.6253 120.814 15.8343 121.139 16.0455 121.448C16.0176 121.466 15.9977 121.494 15.9896 121.526C15.9858 121.542 15.9855 121.559 15.9886 121.575C15.9918 121.591 15.9983 121.607 16.0077 121.62C16.0171 121.634 16.0293 121.645 16.0434 121.653C16.0576 121.662 16.0733 121.667 16.0896 121.669L16.2118 121.688C16.7064 122.39 17.2384 123.065 17.8055 123.71C18.1252 124.055 18.4632 124.382 18.8179 124.691C18.8134 124.706 18.8123 124.723 18.8147 124.739C18.8171 124.756 18.8229 124.771 18.8317 124.785C18.8405 124.799 18.8522 124.811 18.8659 124.82C18.8796 124.829 18.8951 124.835 18.9113 124.838L19.0835 124.872C22.3702 127.475 29.2519 131.209 30.2349 131.738C30.3159 131.859 30.3615 131.929 30.3615 131.929C30.3757 131.95 30.3957 131.966 30.4189 131.975C30.4422 131.985 30.4678 131.988 30.4925 131.983C30.5101 131.98 30.5271 131.973 30.5425 131.964C30.5572 131.956 30.5702 131.946 30.5806 131.933C30.591 131.92 30.5987 131.905 30.6032 131.888C30.6077 131.872 30.6088 131.856 30.6066 131.839C30.6044 131.822 30.5989 131.807 30.5903 131.792L30.5373 131.711C30.5456 131.683 30.543 131.653 30.53 131.627C30.2577 131.09 23.8344 118.455 21.9045 116.427C20.3292 114.768 18.4838 113.082 16.7408 113.161C15.9896 113.196 15.2987 113.562 14.688 114.25C13.7513 115.306 13.7263 116.875 14.6137 118.912ZM29.5139 130.232C28.7855 129.215 27.7061 127.769 26.3287 126.093L26.2838 126.039L25.3163 122.375C26.9085 125.232 28.5684 128.41 29.5139 130.234V130.232ZM19.6655 124.989L26.1403 126.282C27.9798 128.523 29.2828 130.348 29.9193 131.273C28.1608 130.312 22.6991 127.275 19.6655 124.989ZM16.5826 121.752C16.5826 121.752 23.0751 122.782 23.092 122.782C24.1545 123.936 25.0919 125.022 25.888 125.98L19.2181 124.649C18.787 124.318 18.3846 123.951 18.0152 123.552C17.5001 122.964 17.0167 122.356 16.5819 121.749L16.5826 121.752ZM15.7659 120.531L21.5094 121.34C21.5385 121.345 21.5683 121.34 21.5947 121.327C21.621 121.314 21.6427 121.293 21.6565 121.267C22.0568 121.68 22.4431 122.087 22.8154 122.488L16.378 121.47C16.1625 121.149 15.9579 120.835 15.7659 120.531ZM14.8565 118.812C14.0088 116.866 14.0184 115.384 14.8844 114.408C15.3715 113.86 15.8873 113.543 16.4553 113.445C16.5483 113.429 16.6422 113.419 16.7364 113.415C18.3816 113.341 20.2534 115.079 21.6999 116.603C22.3467 117.284 23.5394 119.233 24.8284 121.515C24.8222 121.537 24.8222 121.559 24.8284 121.58L25.8784 125.554C23.3768 122.563 19.5691 118.445 14.9543 114.835C14.9263 114.815 14.8916 114.806 14.857 114.809C14.8225 114.813 14.7905 114.829 14.7674 114.855C14.7558 114.867 14.7468 114.881 14.741 114.897C14.7353 114.912 14.7328 114.929 14.7338 114.945C14.7349 114.961 14.7394 114.978 14.7471 114.992C14.7548 115.007 14.7655 115.02 14.7785 115.03C17.1443 116.896 19.3836 118.917 21.4814 121.081L15.6025 120.251C15.3265 119.785 15.0783 119.304 14.8594 118.808L14.8565 118.812ZM30.3409 145.299C30.3534 145.262 31.6226 141.619 33.3627 137.609C33.9867 136.17 34.5885 134.87 35.1683 133.709C35.1514 133.699 35.1371 133.686 35.127 133.669C35.1168 133.652 35.111 133.634 35.1102 133.614L34.9829 129.93C34.9834 129.896 34.9968 129.863 35.0206 129.838C35.0443 129.813 35.0766 129.798 35.1109 129.796C35.1275 129.794 35.1443 129.795 35.1603 129.8C35.1763 129.804 35.1912 129.812 35.204 129.823C35.2168 129.833 35.2274 129.847 35.2349 129.861C35.2424 129.876 35.2468 129.892 35.2478 129.909L35.3655 133.317C36.8805 130.332 38.235 128.318 39.4123 127.306C39.4377 127.283 39.4711 127.27 39.5057 127.27C39.5404 127.27 39.5737 127.283 39.5992 127.306C39.6104 127.319 39.619 127.333 39.6244 127.348C39.6299 127.364 39.632 127.381 39.6307 127.397C39.6294 127.414 39.6246 127.43 39.6168 127.444C39.609 127.459 39.5982 127.471 39.5852 127.482C38.3145 128.576 36.9268 130.827 35.6311 133.374L38.795 132.535C38.8109 132.53 38.8278 132.528 38.8444 132.53C38.8611 132.531 38.8773 132.536 38.892 132.544C38.9067 132.552 38.9197 132.563 38.9302 132.576C38.9407 132.589 38.9485 132.604 38.9532 132.62C38.9598 132.653 38.9531 132.688 38.9346 132.717C38.916 132.746 38.8871 132.766 38.8538 132.774L35.4854 133.669C32.8506 138.918 30.6293 145.266 30.5969 145.362C30.5885 145.385 30.574 145.406 30.5548 145.422C30.5356 145.437 30.5126 145.448 30.488 145.452C30.4689 145.456 30.449 145.456 30.4299 145.452C30.4133 145.449 30.3975 145.442 30.3836 145.433C30.3698 145.423 30.3582 145.41 30.3497 145.396C30.3412 145.381 30.336 145.365 30.3345 145.348C30.333 145.331 30.3352 145.314 30.3409 145.299ZM14.7689 130.312C14.7903 130.284 14.8211 130.266 14.8553 130.26C14.8895 130.254 14.9247 130.26 14.9543 130.279C17.1668 131.744 20.65 134.685 23.7152 137.387L22.8882 134.251C22.8809 134.218 22.887 134.183 22.9051 134.154C22.9233 134.125 22.9521 134.104 22.9853 134.096C23.0012 134.091 23.018 134.089 23.0347 134.09C23.0513 134.091 23.0676 134.096 23.0825 134.104C23.0973 134.111 23.1105 134.122 23.1213 134.135C23.132 134.148 23.1401 134.163 23.145 134.178L24.0279 137.511C24.0332 137.533 24.0325 137.555 24.0259 137.577C24.0192 137.598 24.007 137.617 23.9904 137.632C27.2756 140.535 30.012 143.095 30.0657 143.145C30.0776 143.157 30.0869 143.171 30.0932 143.186C30.0994 143.202 30.1024 143.218 30.1019 143.235C30.1014 143.251 30.0975 143.267 30.0903 143.282C30.0832 143.297 30.0731 143.311 30.0606 143.321C30.0399 143.34 30.0144 143.353 29.987 143.358C29.9669 143.362 29.9462 143.361 29.9265 143.355C29.9069 143.35 29.8888 143.34 29.8737 143.326C29.8317 143.286 28.0835 141.651 25.7143 139.519C25.651 139.527 21.9479 139.151 21.9479 139.151C21.9314 139.15 21.9154 139.146 21.9007 139.138C21.8861 139.131 21.8733 139.12 21.863 139.107C21.8527 139.094 21.8453 139.079 21.8411 139.063C21.837 139.047 21.8363 139.031 21.839 139.014C21.8461 138.98 21.8656 138.95 21.8938 138.93C21.922 138.909 21.9567 138.9 21.9913 138.904L25.4163 139.254C24.8351 138.733 24.2214 138.186 23.5887 137.628L18.9297 137.198C18.9132 137.197 18.8971 137.193 18.8823 137.185C18.8675 137.178 18.8545 137.167 18.844 137.155C18.8335 137.142 18.8258 137.127 18.8215 137.111C18.8171 137.095 18.8161 137.079 18.8186 137.062C18.8254 137.028 18.8446 136.998 18.8725 136.977C18.9003 136.957 18.9349 136.947 18.9695 136.95L23.2686 137.346C20.2747 134.714 16.9328 131.9 14.791 130.485C14.7775 130.475 14.7662 130.463 14.7577 130.449C14.7492 130.435 14.7437 130.419 14.7417 130.403C14.7396 130.387 14.7409 130.37 14.7456 130.354C14.7503 130.339 14.7582 130.324 14.7689 130.312Z" fill="#52A9A0"/>
<path d="M76.1452 33.3932C77.9979 33.3932 78.7389 30.9767 77.1908 29.959C76.563 29.5475 75.8424 29.2992 75.0944 29.2367C74.3464 29.1741 73.5945 29.2992 72.9071 29.6007C72.489 28.7511 71.8142 28.0546 70.9783 27.6099C70.1424 27.1652 69.1878 26.9948 68.2497 27.1229C67.3116 27.2509 66.4375 27.6709 65.7514 28.3233C65.0652 28.9758 64.6017 29.8276 64.4265 30.7582C63.6686 30.0421 62.6651 29.6437 61.6225 29.6448C61.5555 29.6448 61.4893 29.6448 61.4231 29.65C59.0134 29.7655 59.1422 33.3961 61.5577 33.3961L76.1452 33.3932ZM51.5504 80.5555C54.3162 80.5555 55.4214 76.9499 53.1103 75.4303C52.1734 74.8164 51.0982 74.4459 49.982 74.3523C48.8658 74.2588 47.7438 74.4452 46.7179 74.8947C46.0936 73.6276 45.0867 72.589 43.8398 71.9257C42.5928 71.2625 41.1688 71.0082 39.7694 71.1988C38.3699 71.3895 37.0658 72.0154 36.0417 72.9881C35.0175 73.9607 34.3251 75.2309 34.0625 76.6187C32.9314 75.5502 31.434 74.9557 29.8781 74.9572C29.7781 74.9572 29.6787 74.9572 29.5794 74.9646C25.9844 75.1375 26.1816 80.5569 29.781 80.5569L51.5504 80.5555ZM251.288 80.3671C254.272 80.3671 255.466 76.4752 252.972 74.8365C251.96 74.1741 250.8 73.7744 249.595 73.6735C248.391 73.5726 247.18 73.7738 246.073 74.2589C245.4 72.8908 244.313 71.7692 242.967 71.0529C241.621 70.3366 240.084 70.0619 238.573 70.2676C237.062 70.4733 235.654 71.1491 234.549 72.1993C233.443 73.2494 232.696 74.6208 232.413 76.1191C231.193 74.9656 229.576 74.3238 227.897 74.3258C227.79 74.3258 227.682 74.3258 227.575 74.3339C223.695 74.5201 223.908 80.3678 227.793 80.3678L251.288 80.3671ZM118.085 58.1955C122.622 58.1955 124.436 52.2786 120.644 49.7877C119.107 48.7804 117.343 48.1725 115.512 48.0191C113.681 47.8657 111.84 48.1716 110.157 48.9092C109.133 46.8295 107.482 45.1245 105.435 44.0357C103.389 42.9468 101.052 42.5293 98.7555 42.8421C96.4588 43.1549 94.3187 44.1823 92.6382 45.7788C90.9576 47.3753 89.8218 49.46 89.3914 51.7377C87.5354 49.9854 85.0784 49.011 82.5259 49.0151C82.3618 49.0151 82.1992 49.0188 82.0366 49.0269C76.1379 49.3109 76.4616 58.1992 82.3677 58.1992L118.085 58.1955Z" fill="white"/>
<path d="M48.3696 62.13C54.3955 62.13 59.2804 57.2446 59.2804 51.2182C59.2804 45.1918 54.3955 40.3064 48.3696 40.3064C42.3437 40.3064 37.4587 45.1918 37.4587 51.2182C37.4587 57.2446 42.3437 62.13 48.3696 62.13Z" fill="#FDE18E"/>
<path d="M143 178C221.977 178 286 173.747 286 168.5C286 163.253 221.977 159 143 159C64.0233 159 0 163.253 0 168.5C0 173.747 64.0233 178 143 178Z" fill="#8C293D"/>
<path d="M242.444 158.243H234.562V12.2885H242.444V158.243ZM235.15 157.654H241.855V12.8771H235.15V157.654Z" fill="#B3481D"/>
<path d="M232.208 169.324H249.909V136.763C249.909 135.846 249.545 134.966 248.896 134.317C248.248 133.669 247.368 133.304 246.451 133.304H235.663C234.746 133.304 233.866 133.669 233.218 134.317C232.569 134.966 232.205 135.846 232.205 136.763L232.208 169.324Z" fill="#B3481D"/>
<path d="M229.586 169.324H247.287V136.763C247.287 135.846 246.923 134.966 246.275 134.317C245.626 133.669 244.746 133.304 243.829 133.304H233.041C232.124 133.305 231.245 133.67 230.598 134.319C229.95 134.967 229.586 135.846 229.586 136.763V169.324Z" fill="#C95D1D"/>
<path d="M257.708 38.5816H151.172V30.4528H257.708V38.5816ZM151.761 37.9929H257.12V31.0414H151.761V37.9929Z" fill="#B3481D"/>
<path d="M262.48 39.9907H255.333C254.78 39.9907 254.25 39.771 253.859 39.3799C253.468 38.9888 253.248 38.4584 253.248 37.9053V31.7544C253.248 31.2016 253.468 30.6713 253.859 30.2804C254.25 29.8894 254.78 29.6698 255.333 29.6698H262.48C263.033 29.6698 263.563 29.8895 263.954 30.2806C264.345 30.6717 264.565 31.2021 264.565 31.7552V37.9061C264.565 38.459 264.345 38.9893 263.954 39.3802C263.563 39.7711 263.033 39.9907 262.48 39.9907Z" fill="#8C293D"/>
<path d="M256.349 38.1835H261.269V52.8127H256.349V38.1835Z" fill="#8C293D"/>
<path d="M234.848 131.744L241.694 125.977L242.073 126.427L235.228 132.194L234.848 131.744Z" fill="#B3481D"/>
<path d="M234.97 126.461L235.353 126.014L242.083 131.781L241.7 132.228L234.97 126.461Z" fill="#B3481D"/>
<path d="M234.856 125.779H242.293V126.368H234.856V125.779ZM234.856 131.7H242.293V132.289H234.856V131.7Z" fill="#B3481D"/>
<path d="M234.848 124.651L241.693 118.884L242.072 119.334L235.227 125.101L234.848 124.651Z" fill="#B3481D"/>
<path d="M234.97 119.369L235.353 118.922L242.083 124.689L241.7 125.136L234.97 119.369Z" fill="#B3481D"/>
<path d="M234.856 118.686H242.293V119.275H234.856V118.686ZM234.856 124.607H242.293V125.196H234.856V124.607Z" fill="#B3481D"/>
<path d="M234.847 117.559L241.692 111.792L242.071 112.242L235.226 118.009L234.847 117.559Z" fill="#B3481D"/>
<path d="M234.97 112.275L235.353 111.827L242.083 117.594L241.7 118.041L234.97 112.275Z" fill="#B3481D"/>
<path d="M234.856 111.593H242.293V112.182H234.856V111.593ZM234.856 117.514H242.293V118.103H234.856V117.514Z" fill="#B3481D"/>
<path d="M234.847 110.465L241.693 104.698L242.072 105.149L235.226 110.916L234.847 110.465Z" fill="#B3481D"/>
<path d="M234.97 105.181L235.353 104.734L242.083 110.5L241.7 110.947L234.97 105.181Z" fill="#B3481D"/>
<path d="M234.856 104.5H242.293V105.088H234.856V104.5ZM234.856 110.42H242.293V111.009H234.856V110.42Z" fill="#B3481D"/>
<path d="M234.847 103.373L241.692 97.6069L242.071 98.0571L235.226 103.824L234.847 103.373Z" fill="#B3481D"/>
<path d="M234.971 98.0876L235.354 97.6406L242.084 103.407L241.701 103.854L234.971 98.0876Z" fill="#B3481D"/>
<path d="M234.856 97.407H242.293V97.9957H234.856V97.407ZM234.856 103.328H242.293V103.916H234.856V103.328Z" fill="#B3481D"/>
<path d="M234.846 96.2801L241.691 90.5135L242.071 90.9637L235.226 96.7303L234.846 96.2801Z" fill="#B3481D"/>
<path d="M234.972 90.9952L235.355 90.5482L242.085 96.3149L241.702 96.762L234.972 90.9952Z" fill="#B3481D"/>
<path d="M234.856 90.3134H242.293V90.9021H234.856V90.3134ZM234.856 96.234H242.293V96.8227H234.856V96.234Z" fill="#B3481D"/>
<path d="M234.845 89.1867L241.691 83.4196L242.07 83.8698L235.224 89.6369L234.845 89.1867Z" fill="#B3481D"/>
<path d="M234.97 83.9009L235.353 83.4539L242.083 89.2207L241.7 89.6677L234.97 83.9009Z" fill="#B3481D"/>
<path d="M234.856 83.2206H242.293V83.8093H234.856V83.2206ZM234.856 89.1412H242.293V89.7299H234.856V89.1412Z" fill="#B3481D"/>
<path d="M234.845 82.0947L241.69 76.3281L242.069 76.7783L235.224 82.5449L234.845 82.0947Z" fill="#B3481D"/>
<path d="M234.971 76.8084L235.354 76.3614L242.084 82.1282L241.701 82.5752L234.971 76.8084Z" fill="#B3481D"/>
<path d="M234.856 76.1273H242.293V76.7159H234.856V76.1273ZM234.856 82.0478H242.293V82.6365H234.856V82.0478Z" fill="#B3481D"/>
<path d="M234.845 75.0013L241.69 69.2347L242.069 69.685L235.224 75.4516L234.845 75.0013Z" fill="#B3481D"/>
<path d="M234.972 69.7148L235.355 69.2678L242.085 75.0346L241.702 75.4816L234.972 69.7148Z" fill="#B3481D"/>
<path d="M234.856 69.0338H242.293V69.6224H234.856V69.0338ZM234.856 74.9543H242.293V75.543H234.856V74.9543Z" fill="#B3481D"/>
<path d="M234.845 67.9093L241.69 62.1422L242.07 62.5924L235.224 68.3595L234.845 67.9093Z" fill="#B3481D"/>
<path d="M234.971 62.6203L235.354 62.1733L242.084 67.9401L241.701 68.3871L234.971 62.6203Z" fill="#B3481D"/>
<path d="M234.856 61.9409H242.293V62.5296H234.856V61.9409ZM234.856 67.8615H242.293V68.4501H234.856V67.8615Z" fill="#B3481D"/>
<path d="M234.844 60.816L241.689 55.0494L242.068 55.4996L235.223 61.2662L234.844 60.816Z" fill="#B3481D"/>
<path d="M234.972 55.528L235.355 55.0809L242.085 60.8477L241.702 61.2947L234.972 55.528Z" fill="#B3481D"/>
<path d="M234.856 54.8474H242.293V55.4361H234.856V54.8474ZM234.856 60.768H242.293V61.3567H234.856V60.768Z" fill="#B3481D"/>
<path d="M234.844 53.7232L241.689 47.9566L242.068 48.4069L235.223 54.1735L234.844 53.7232Z" fill="#B3481D"/>
<path d="M234.972 48.4344L235.355 47.9873L242.085 53.7541L241.702 54.2011L234.972 48.4344Z" fill="#B3481D"/>
<path d="M234.856 47.7545H242.293V48.3432H234.856V47.7545ZM234.856 53.6751H242.293V54.2638H234.856V53.6751Z" fill="#B3481D"/>
<path d="M234.843 46.6306L241.689 40.8635L242.068 41.3137L235.222 47.0808L234.843 46.6306Z" fill="#B3481D"/>
<path d="M234.972 41.3403L235.355 40.8933L242.085 46.6601L241.702 47.1071L234.972 41.3403Z" fill="#B3481D"/>
<path d="M234.856 40.6612H242.293V41.2498H234.856V40.6612ZM234.856 46.5817H242.293V47.1704H234.856V46.5817Z" fill="#B3481D"/>
<path d="M234.86 39.5742L241.706 33.8088L242.086 34.2591L235.239 40.0245L234.86 39.5742Z" fill="#B3481D"/>
<path d="M234.973 34.2475L235.356 33.8004L242.086 39.5672L241.703 40.0142L234.973 34.2475Z" fill="#B3481D"/>
<path d="M234.856 33.5683H242.293V34.157H234.856V33.5683ZM234.856 39.4889H242.293V40.0776H234.856V39.4889Z" fill="#B3481D"/>
<path d="M234.861 32.4807L241.707 26.7153L242.087 27.1656L235.24 32.931L234.861 32.4807Z" fill="#B3481D"/>
<path d="M234.973 27.1543L235.356 26.7072L242.086 32.474L241.703 32.921L234.973 27.1543Z" fill="#B3481D"/>
<path d="M234.856 26.4748H242.293V27.0635H234.856V26.4748ZM234.856 32.3954H242.293V32.9841H234.856V32.3954Z" fill="#B3481D"/>
<path d="M234.862 25.3874L241.708 19.622L242.087 20.0723L235.241 25.8377L234.862 25.3874Z" fill="#B3481D"/>
<path d="M234.972 20.0614L235.355 19.6144L242.085 25.3811L241.702 25.8282L234.972 20.0614Z" fill="#B3481D"/>
<path d="M234.856 19.3813H242.293V19.97H234.856V19.3813ZM234.856 25.3019H242.293V25.8906H234.856V25.3019Z" fill="#B3481D"/>
<path d="M234.862 18.2937L241.708 12.5283L242.087 12.9786L235.241 18.744L234.862 18.2937Z" fill="#B3481D"/>
<path d="M234.973 12.9678L235.356 12.5208L242.086 18.2876L241.703 18.7346L234.973 12.9678Z" fill="#B3481D"/>
<path d="M242.715 12.8772H234.416L237.449 5.51874H240.011L242.715 12.8772ZM235.295 12.2885H241.87L239.598 6.10741H237.841L235.295 12.2885ZM234.856 18.2091H242.293V18.7977H234.856V18.2091Z" fill="#B3481D"/>
<path d="M244.546 38.0653L253.232 30.7505L253.611 31.2008L244.926 38.5156L244.546 38.0653Z" fill="#B3481D"/>
<path d="M244.69 31.1895L245.073 30.7425L253.611 38.0586L253.229 38.5056L244.69 31.1895Z" fill="#B3481D"/>
<path d="M244.491 30.4668H253.927V31.0555H244.491V30.4668ZM244.491 37.979H253.927V38.5677H244.491V37.979Z" fill="#B3481D"/>
<path d="M226.204 38.0636L234.89 30.7488L235.269 31.1991L226.583 38.5139L226.204 38.0636Z" fill="#B3481D"/>
<path d="M226.348 31.1893L226.731 30.7423L235.269 38.0584L234.886 38.5054L226.348 31.1893Z" fill="#B3481D"/>
<path d="M235.585 38.5677H225.855V30.4668H235.585V31.0555H226.444V37.979H235.585V38.5677Z" fill="#B3481D"/>
<path d="M215.455 38.049L224.347 30.7338L224.721 31.1884L215.829 38.5037L215.455 38.049Z" fill="#B3481D"/>
<path d="M215.602 31.1887L215.985 30.7417L224.523 38.0578L224.14 38.5048L215.602 31.1887Z" fill="#B3481D"/>
<path d="M225.134 38.5677H215.11V30.4639H225.134V38.5677ZM215.698 37.979H224.545V31.0525H215.698V37.979Z" fill="#B3481D"/>
<path d="M204.817 38.0488L213.709 30.7335L214.083 31.1881L205.191 38.5034L204.817 38.0488Z" fill="#B3481D"/>
<path d="M204.964 31.1889L205.347 30.7419L213.885 38.0579L213.502 38.505L204.964 31.1889Z" fill="#B3481D"/>
<path d="M214.499 38.5677H204.472V30.4639H214.499V38.5677ZM205.063 37.979H213.91V31.0525H205.061L205.063 37.979Z" fill="#B3481D"/>
<path d="M194.184 38.059L203.076 30.7437L203.45 31.1983L194.558 38.5136L194.184 38.059Z" fill="#B3481D"/>
<path d="M194.325 31.1882L194.708 30.7411L203.246 38.0572L202.863 38.5042L194.325 31.1882Z" fill="#B3481D"/>
<path d="M203.858 38.5677H193.834V30.4639H203.858V38.5677ZM194.423 37.979H203.27V31.0525H194.423V37.979Z" fill="#B3481D"/>
<path d="M183.545 38.058L192.438 30.7427L192.812 31.1973L183.919 38.5126L183.545 38.058Z" fill="#B3481D"/>
<path d="M183.688 31.1884L184.071 30.7413L192.609 38.0574L192.226 38.5044L183.688 31.1884Z" fill="#B3481D"/>
<path d="M193.221 38.5677H183.196V30.4639H193.221V38.5677ZM183.785 37.979H192.632V31.0525H183.785V37.979Z" fill="#B3481D"/>
<path d="M172.907 38.0577L181.8 30.7424L182.173 31.1971L173.281 38.5123L172.907 38.0577Z" fill="#B3481D"/>
<path d="M173.049 31.1884L173.432 30.7414L181.97 38.0575L181.587 38.5045L173.049 31.1884Z" fill="#B3481D"/>
<path d="M182.583 38.5677H172.56V30.4639H182.584L182.583 38.5677ZM173.147 37.979H181.994V31.0525H173.149L173.147 37.979Z" fill="#B3481D"/>
<path d="M162.269 38.0576L171.161 30.7424L171.535 31.197L162.642 38.5122L162.269 38.0576Z" fill="#B3481D"/>
<path d="M162.411 31.1879L162.794 30.7409L171.332 38.0569L170.949 38.504L162.411 31.1879Z" fill="#B3481D"/>
<path d="M171.945 38.5677H161.92V30.4639H171.945V38.5677ZM162.509 37.979H171.356V31.0525H162.509V37.979Z" fill="#B3481D"/>
<path d="M151.63 38.0567L160.523 30.7415L160.897 31.1961L152.004 38.5113L151.63 38.0567Z" fill="#B3481D"/>
<path d="M151.773 31.1873L152.156 30.7402L160.694 38.0563L160.311 38.5033L151.773 31.1873Z" fill="#B3481D"/>
<path d="M161.307 38.5677H151.283V30.4639H161.307V38.5677ZM151.871 37.979H160.718V31.0525H151.871V37.979Z" fill="#B3481D"/>
<path d="M151.761 38.5816H142.487L149.128 30.4528H151.761V38.5816ZM143.727 37.9929H151.172V31.0414H149.407L143.727 37.9929Z" fill="#B3481D"/>
<path d="M149.352 31.029L149.184 30.4646L238.688 3.83374L257.651 29.6323L257.177 29.9811L238.46 4.51586L149.352 31.029ZM146.805 39.6523H147.589V65.4097H146.805V39.6523Z" fill="#B3481D"/>
<path d="M155.025 74.8593H139.463V67.495H155.025V74.8593Z" fill="#7A1A27"/>
<path d="M155.025 72.774H139.463V65.4098H155.025V72.774Z" fill="#8C293D"/>
<path d="M232.952 165.826V138.591C232.952 137.954 233.3 137.438 233.73 137.438H240.72C241.39 137.438 241.746 138.609 241.304 139.351C240.421 140.839 239.176 143.28 237.846 146.98C236.726 150.101 235.457 158.575 234.492 166.038C234.317 167.418 232.952 167.226 232.952 165.826Z" fill="#EFC41A"/>
<path d="M238.503 41.7693C242.508 41.7693 245.754 38.5226 245.754 34.5176C245.754 30.5125 242.508 27.2658 238.503 27.2658C234.499 27.2658 231.252 30.5125 231.252 34.5176C231.252 38.5226 234.499 41.7693 238.503 41.7693Z" fill="#8C293D"/>
<path d="M240.937 7.22535C242.27 5.89227 242.27 3.73092 240.937 2.39784C239.604 1.06476 237.443 1.06475 236.11 2.39783C234.777 3.73091 234.777 5.89226 236.11 7.22534C237.443 8.55842 239.604 8.55843 240.937 7.22535Z" fill="#8C293D"/>
<path d="M151.684 40.9555H142.711V38.3484H151.684V40.9555Z" fill="#8C293D"/>
<path d="M170.628 145.427H170.681C171.13 145.396 171.469 144.973 171.439 144.488L167.766 84.1802C167.737 83.6931 167.335 83.3318 166.901 83.3561C166.453 83.3885 166.114 83.8101 166.144 84.2957L169.817 144.601C169.846 145.069 170.205 145.427 170.628 145.427ZM146.283 155.242C146.716 155.242 147.075 154.874 147.092 154.397L149.839 84.2766C149.858 83.7888 149.51 83.3767 149.061 83.3553C148.839 83.3604 148.626 83.4511 148.469 83.6085C148.311 83.766 148.22 83.9781 148.215 84.2008L145.468 154.321C145.449 154.809 145.797 155.221 146.246 155.242H146.283Z" fill="#EFC41A"/>
<path d="M165.585 141.485L165.713 139.723L149.43 138.331L169.289 121.627C169.423 121.509 169.521 121.355 169.57 121.184C169.619 121.012 169.618 120.829 169.566 120.658C169.522 120.491 169.426 120.342 169.292 120.232C169.159 120.122 168.994 120.057 168.821 120.045L149.878 119.28L167.586 104.661C167.724 104.542 167.824 104.386 167.873 104.211C167.923 104.035 167.92 103.85 167.864 103.676C167.817 103.507 167.717 103.357 167.579 103.248C167.44 103.14 167.27 103.079 167.095 103.074H150.675L167.585 89.142C167.723 89.0235 167.823 88.8669 167.873 88.6918C167.923 88.5167 167.92 88.3309 167.865 88.1575C167.818 87.9878 167.718 87.8377 167.579 87.7294C167.44 87.621 167.27 87.56 167.095 87.5555H149.03V89.3216H164.677L147.764 103.257C147.626 103.376 147.526 103.532 147.476 103.707C147.427 103.882 147.43 104.068 147.485 104.241C147.532 104.411 147.632 104.561 147.771 104.669C147.91 104.778 148.08 104.839 148.256 104.843H164.679L147.081 119.371C146.946 119.488 146.847 119.642 146.796 119.814C146.746 119.986 146.747 120.169 146.798 120.341C146.842 120.509 146.938 120.659 147.071 120.769C147.205 120.88 147.37 120.946 147.543 120.958L166.519 121.718L146.77 138.334C146.638 138.449 146.541 138.6 146.491 138.769C146.441 138.937 146.44 139.116 146.488 139.285C146.528 139.45 146.619 139.599 146.747 139.711C146.875 139.824 147.034 139.894 147.204 139.913L165.585 141.485Z" fill="#EFC41A"/>
<path d="M125.588 52.1012H125.597C125.711 52.1012 125.821 52.1467 125.902 52.2275C125.983 52.3084 126.028 52.4181 126.028 52.5324V59.2448H125.157V52.5324C125.157 52.4181 125.202 52.3084 125.283 52.2275C125.364 52.1467 125.474 52.1012 125.588 52.1012ZM130.153 45.7752H130.195C130.316 45.7752 130.431 45.823 130.516 45.9082C130.602 45.9933 130.649 46.1088 130.649 46.2292V59.1616H129.699V46.2292C129.699 46.1088 129.747 45.9933 129.832 45.9082C129.917 45.823 130.032 45.7752 130.153 45.7752ZM120.99 52.79H121.033C121.092 52.79 121.151 52.8017 121.207 52.8245C121.262 52.8474 121.312 52.8808 121.354 52.923C121.396 52.9651 121.429 53.0152 121.452 53.0703C121.475 53.1253 121.487 53.1844 121.487 53.244V59.3309H120.536V53.244C120.536 53.1844 120.548 53.1253 120.571 53.0703C120.594 53.0152 120.627 52.9651 120.669 52.923C120.711 52.8808 120.761 52.8474 120.816 52.8245C120.871 52.8017 120.93 52.79 120.99 52.79Z" fill="#7A1A27"/>
<path d="M130.9 106.01H153.927V126.724H130.9V106.01Z" fill="#8F2F1D"/>
<path d="M119.705 58.2698H135.548V107.846H119.705V58.2698Z" fill="#C95D1D"/>
<path d="M127.454 106.01H150.481V126.724H127.454V106.01Z" fill="#C95D1D"/>
<path d="M134.425 109.912H148.312V126.724H134.425V109.912Z" fill="#7A1A27"/>
<path d="M82.6707 95.5092H132.102V126.724H82.6707V95.5092Z" fill="#EFC41A"/>
<path d="M116.258 58.2698H132.102V107.846H116.258V58.2698Z" fill="#EFC41A"/>
<path d="M119.981 61.7415H128.378V93.6733H119.981V61.7415Z" fill="#B3481D"/>
<path d="M118.793 68.7128H129.249V70.0896H118.793V68.7128ZM118.793 76.6172H129.249V77.9947H118.793V76.6172ZM118.793 84.5216H129.249V85.8991H118.793V84.5216Z" fill="#EFC41A"/>
<path d="M86.6843 101.42H113.935V124.486H86.6843V101.42ZM115.625 101.42H128.379V107.659H115.625V101.42ZM115.625 109.833H128.379V116.073H115.625V109.833ZM115.625 118.246H128.379V124.486H115.625V118.246Z" fill="#B3481D"/>
<path d="M70.2135 165.517L67.249 108.8H62.7814V102.335H61.7741V108.8H57.5177V102.335H56.5141V108.8H47.9886V102.335H46.985V108.8H38.9606V102.335H37.957V108.8H36.1353C36.1353 108.8 37.0719 164.994 36.8136 165.517H70.2135Z" fill="#C95D1D"/>
<path d="M42.0146 115.498H46.2925V124.641H42.0146V115.498ZM52.4252 115.498H56.703V124.641H52.4252V115.498ZM42.0146 131.167H46.2925V140.311H42.0146V131.167ZM52.4252 131.167H56.703V140.311H52.4252V131.167Z" fill="#7A1A27"/>
<path d="M69.978 56.6097V129.444H102.386V51.007H92.005V56.6097H69.978Z" fill="#C95D1D"/>
<path d="M96.7537 51.5015H96.1783V43.0754H96.7537V51.5015Z" fill="#7A1A27"/>
<path d="M93.6309 51.5015H93.0555V43.0754H93.6309V51.5015Z" fill="#7A1A27"/>
<path d="M90.5098 51.5015H89.9344V43.0754H90.5098V51.5015Z" fill="#7A1A27"/>
<path d="M66.2195 56.1969V129.032H98.6268V50.5942H88.2464V56.1969H66.2195Z" fill="#EFC41A"/>
<path d="M68.0127 53.2344H69.1178V47.7715H69.6932V53.2344H72.2397V47.7715H72.8144V53.2344H75.3609V47.7715H75.9363V53.2344H78.4828V47.7715H79.0574V53.2344H81.604V47.7715H82.1793V53.2344H84.7259V47.7715H85.3013V53.2344H88.3599V53.8591H85.3013V56.1976H84.7259V53.8591H82.1793V56.1976H81.604V53.8591H79.0574V56.1976H78.4828V53.8591H75.9363V56.1976H75.3609V53.8591H72.8144V56.1976H72.2397V53.8591H69.6932V56.1976H69.1178V53.8591H68.0127V53.2344Z" fill="#7A1A27"/>
<path d="M91.8995 62.197H96.1773V71.3405H91.8995V62.197ZM81.4889 62.197H85.7668V71.3405H81.4889V62.197ZM71.0328 62.197H75.3106V71.3405H71.0328V62.197ZM91.8995 77.8674H96.1773V87.011H91.8995V77.8674ZM81.4889 77.8674H85.7668V87.011H81.4889V77.8674ZM69.7761 109.046H95.6107V125.697H69.7761V109.046ZM71.0328 77.8674H75.3106V87.011H71.0328V77.8674ZM91.8995 92.2921H96.1773V101.436H91.8995V92.2921ZM81.4889 92.2921H85.7668V101.436H81.4889V92.2921ZM71.0328 92.2921H75.3106V101.436H71.0328V92.2921Z" fill="#B3481D"/>
<path d="M50.6748 85.7574C50.6832 85.7574 50.6913 85.754 50.6973 85.7481C50.7032 85.7421 50.7066 85.734 50.7066 85.7256C50.7066 85.7171 50.7032 85.709 50.6973 85.7031C50.6913 85.6971 50.6832 85.6938 50.6748 85.6938C50.6664 85.6938 50.6583 85.6971 50.6524 85.7031C50.6464 85.709 50.6431 85.7171 50.6431 85.7256C50.6431 85.734 50.6464 85.7421 50.6524 85.7481C50.6583 85.754 50.6664 85.7574 50.6748 85.7574Z" fill="#008496"/>
<path d="M169.114 145.07V166.732H85.978V166.684C83.8878 166.506 81.8944 165.724 80.2403 164.433C78.5861 163.143 77.3426 161.4 76.6609 159.416C76.2694 158.286 76.0704 157.099 76.0723 155.904C76.0732 153.193 77.0912 150.58 78.9251 148.583C80.7589 146.586 83.2752 145.349 85.9766 145.117V145.07H169.114Z" fill="#D6D6D6"/>
<path d="M169.114 159.416V166.732H85.978V166.684C83.8878 166.506 81.8944 165.724 80.2402 164.434C78.5861 163.143 77.3426 161.4 76.6609 159.416H169.114Z" fill="#B3B3B3"/>
<path d="M168.286 166.733C174.268 166.733 179.117 161.884 179.117 155.901C179.117 149.919 174.268 145.069 168.286 145.069C162.304 145.069 157.454 149.919 157.454 155.901C157.454 161.884 162.304 166.733 168.286 166.733Z" fill="#EBEBEB"/>
<path d="M176.334 155.904C176.33 157.328 175.904 158.719 175.11 159.901C174.316 161.083 173.19 162.004 171.874 162.546C170.558 163.089 169.11 163.23 167.714 162.95C166.318 162.671 165.036 161.984 164.029 160.977C163.023 159.97 162.338 158.687 162.06 157.29C161.782 155.893 161.924 154.446 162.468 153.13C163.012 151.814 163.934 150.689 165.117 149.896C166.299 149.104 167.691 148.679 169.114 148.677C170.063 148.677 171.002 148.864 171.878 149.228C172.755 149.591 173.551 150.124 174.221 150.795C174.891 151.466 175.423 152.263 175.786 153.139C176.148 154.016 176.334 154.955 176.334 155.904Z" fill="#B3B3B3"/>
<path d="M171.898 155.802C171.897 157.356 171.395 158.869 170.466 160.116C169.537 161.362 168.23 162.275 166.74 162.719C165.299 162.216 164.055 161.27 163.185 160.016C162.315 158.762 161.865 157.264 161.899 155.738C161.933 154.212 162.45 152.736 163.375 151.522C164.3 150.308 165.586 149.419 167.048 148.981C168.465 149.473 169.694 150.394 170.563 151.616C171.433 152.839 171.899 154.302 171.898 155.802Z" fill="#7D7D7D"/>
<path d="M139.255 145.983V167.644H56.1194V167.597C54.029 167.419 52.0354 166.637 50.3813 165.346C48.7271 164.056 47.4836 162.312 46.8023 160.328C46.4108 159.199 46.2118 158.012 46.2136 156.817C46.2143 154.106 47.2321 151.493 49.066 149.496C50.8999 147.498 53.4164 146.262 56.1179 146.031V145.983H139.255Z" fill="#D6D6D6"/>
<path d="M139.255 160.328V167.644H56.1196V167.597C54.0292 167.419 52.0357 166.637 50.3815 165.346C48.7273 164.056 47.4839 162.312 46.8025 160.328H139.255Z" fill="#B3B3B3"/>
<path d="M146.085 164.474C150.315 160.244 150.315 153.385 146.085 149.155C141.856 144.925 134.998 144.925 130.768 149.155C126.538 153.385 126.538 160.244 130.768 164.474C134.998 168.704 141.856 168.704 146.085 164.474Z" fill="#EBEBEB"/>
<path d="M146.475 156.817C146.472 158.242 146.046 159.635 145.252 160.818C144.458 162.001 143.332 162.923 142.014 163.467C140.697 164.01 139.248 164.151 137.851 163.872C136.454 163.592 135.17 162.905 134.163 161.897C133.156 160.889 132.47 159.605 132.192 158.207C131.915 156.809 132.057 155.36 132.602 154.043C133.146 152.727 134.069 151.601 135.253 150.808C136.438 150.015 137.83 149.591 139.255 149.589C140.204 149.589 141.143 149.776 142.019 150.14C142.896 150.503 143.692 151.036 144.363 151.707C145.033 152.378 145.565 153.175 145.927 154.052C146.29 154.929 146.476 155.868 146.475 156.817Z" fill="#B3B3B3"/>
<path d="M142.035 156.714C142.036 158.27 141.534 159.783 140.605 161.03C139.676 162.277 138.369 163.191 136.878 163.635C135.437 163.132 134.192 162.186 133.323 160.932C132.453 159.678 132.003 158.18 132.037 156.654C132.071 155.128 132.587 153.652 133.512 152.438C134.437 151.224 135.723 150.335 137.185 149.897C138.602 150.388 139.831 151.308 140.7 152.53C141.569 153.752 142.036 155.215 142.035 156.714Z" fill="#7D7D7D"/>
<path d="M155.259 124.319V145.981H72.1262V145.933C70.0359 145.755 68.0424 144.973 66.3883 143.682C64.7341 142.392 63.4906 140.648 62.8091 138.664C62.4175 137.535 62.2186 136.348 62.2205 135.153C62.2211 132.442 63.2392 129.829 65.0734 127.831C66.9076 125.834 69.4244 124.598 72.1262 124.367V124.319H155.259Z" fill="#D6D6D6"/>
<path d="M155.259 138.664V145.981H72.1265V145.933C70.0361 145.755 68.0426 144.973 66.3885 143.682C64.7344 142.392 63.4909 140.648 62.8093 138.664H155.259Z" fill="#B3B3B3"/>
<path d="M154.431 145.983C160.413 145.983 165.262 141.133 165.262 135.15C165.262 129.168 160.413 124.318 154.431 124.318C148.449 124.318 143.599 129.168 143.599 135.15C143.599 141.133 148.449 145.983 154.431 145.983Z" fill="#EBEBEB"/>
<path d="M162.48 135.153C162.477 136.579 162.051 137.971 161.257 139.154C160.463 140.338 159.337 141.26 158.019 141.803C156.702 142.347 155.253 142.488 153.856 142.209C152.458 141.929 151.175 141.242 150.168 140.234C149.161 139.226 148.475 137.941 148.197 136.544C147.919 135.146 148.062 133.697 148.606 132.38C149.151 131.063 150.074 129.937 151.258 129.145C152.443 128.352 153.835 127.928 155.26 127.926C156.209 127.926 157.148 128.114 158.024 128.477C158.901 128.84 159.697 129.373 160.367 130.044C161.038 130.715 161.569 131.512 161.932 132.389C162.294 133.265 162.48 134.205 162.48 135.153Z" fill="#B3B3B3"/>
<path d="M158.039 135.05C158.038 136.605 157.536 138.118 156.607 139.364C155.678 140.61 154.371 141.523 152.882 141.967C151.441 141.465 150.196 140.518 149.326 139.264C148.456 138.01 148.006 136.512 148.04 134.986C148.075 133.461 148.591 131.985 149.516 130.771C150.441 129.557 151.727 128.667 153.189 128.229C154.606 128.72 155.835 129.642 156.705 130.864C157.574 132.087 158.04 133.55 158.039 135.05Z" fill="#7D7D7D"/>
<path d="M54.2103 166.04V169.218H27.4802V166.04H31.3681L34.2413 153.423L35.4362 148.152L37.5582 138.834C37.6362 138.491 37.8283 138.185 38.1031 137.966C38.3778 137.747 38.7188 137.628 39.0702 137.628H42.6019C42.9533 137.628 43.2943 137.747 43.569 137.966C43.8437 138.185 44.0359 138.491 44.1139 138.834L46.2366 148.152L47.4315 153.423L50.3011 166.04H54.2103Z" fill="#DB2321"/>
<path d="M47.4358 153.422H39.0222L39.6263 148.15H46.2365L47.4358 153.422Z" fill="white"/>
<path d="M39.6263 148.15L39.0223 153.422H34.2434L35.4427 148.15H39.6263Z" fill="#FFD2E6"/>
<path d="M39.6264 148.15H35.4428L37.5581 138.832C37.636 138.489 37.8281 138.183 38.1028 137.964C38.3776 137.744 38.7187 137.625 39.0702 137.625H40.8441L39.6264 148.15ZM47.4359 166.224V169.218H27.4846V166.038H31.371L34.2435 153.421H39.0223L37.5442 166.224H47.4359Z" fill="#FF4632"/>
<path d="M212.026 31.246C212.026 31.246 212.008 31.2548 212.026 31.246C212.045 31.2371 212.035 31.2415 212.026 31.246ZM211.924 31.2976C211.912 31.3043 211.928 31.2976 211.924 31.2976V31.2976ZM211.884 31.3168L211.893 31.3124C211.89 31.3135 211.887 31.315 211.884 31.3168Z" fill="#3D3D3D"/>
<path d="M211.895 31.3115C211.891 31.3127 211.887 31.3145 211.884 31.3166L211.936 31.3026H211.928C211.917 31.3044 211.905 31.3073 211.895 31.3115Z" fill="#3D3D3D"/>
<path d="M208.992 26.3659C209.003 26.3659 208.996 26.3659 208.992 26.3659C208.988 26.3659 208.98 26.3675 208.992 26.3659Z" fill="#754938"/>
<path d="M100.763 149.975C90.7563 147.736 70.9779 167.085 70.9779 167.085C68.1819 170.957 117.111 171.233 121.379 168.777C125.646 166.321 110.772 152.214 100.763 149.975Z" fill="#EFC41A"/>
<path d="M110.093 164.055C105.888 163.114 97.5784 171.243 97.5784 171.243C96.4012 172.87 116.961 172.986 118.755 171.954C120.549 170.921 114.299 164.995 110.093 164.055Z" fill="#FCE097"/>
<path d="M79.9609 165.21C76.9398 169.399 93.0761 167.682 96.0972 167.408C99.1183 167.133 99.0528 154.085 99.1191 152.985C99.3251 149.553 82.982 161.021 79.9609 165.21Z" fill="#FDCE54"/>
</svg>
