<svg width="28" height="28" viewBox="0 0 28 28" fill="none" xmlns="http://www.w3.org/2000/svg">
<path d="M24.3125 4.15625V25.7188C24.3125 26.216 24.115 26.6929 23.7633 27.0446C23.4117 27.3962 22.9348 27.5938 22.4375 27.5938H5.5625C5.06522 27.5938 4.58831 27.3962 4.23667 27.0446C3.88504 26.6929 3.6875 26.216 3.6875 25.7188V2.28125C3.6875 1.78397 3.88504 1.30706 4.23667 0.955425C4.58831 0.603794 5.06522 0.40625 5.5625 0.40625H20.5625V3.21875C20.5632 3.46716 20.6623 3.70519 20.8379 3.88084C21.0136 4.0565 21.2516 4.15551 21.5 4.15625H24.3125Z" fill="#E6E7E8"/>
<path d="M3.6875 18.6875L0.40625 15.4062V27.5938H12.5938L3.6875 18.6875ZM3.6875 25.7188H2.28125V19.9344L3.6875 21.3406L8.06563 25.7188H3.6875Z" fill="#EE8700"/>
<path d="M24.3125 21.9688V25.7188H14.9375L13.5312 24.7812H12.5938C12.3453 24.7805 12.1073 24.6815 11.9317 24.5058C11.756 24.3302 11.657 24.0922 11.6562 23.8438C11.6581 23.5957 11.7575 23.3583 11.9329 23.1829C12.1083 23.0075 12.3457 22.9081 12.5938 22.9062H13.5312L14.9375 21.9688H24.3125Z" fill="#D8D7DA"/>
<path d="M24.7812 21.0312H23.375V24.7812H24.7812V21.0312Z" fill="#FFA733"/>
<path d="M25.7188 21.0312C26.216 21.0312 26.6929 21.2288 27.0446 21.5804C27.3962 21.9321 27.5938 22.409 27.5938 22.9062C27.5938 23.4035 27.3962 23.8804 27.0446 24.2321C26.6929 24.5837 26.216 24.7812 25.7188 24.7812H24.7812V21.0312H25.7188Z" fill="#E6E7E8"/>
<path d="M12.5938 21.9688V23.8438H11.6562C11.4078 23.843 11.1698 23.744 10.9942 23.5683C10.8185 23.3927 10.7195 23.1547 10.7188 22.9062C10.7206 22.6582 10.82 22.4208 10.9954 22.2454C11.1708 22.07 11.4082 21.9706 11.6562 21.9688H12.5938Z" fill="#787680"/>
<path d="M14.4688 22.9062V24.7812H14L12.5938 23.8438V21.9688L14 21.0312H14.4688V22.9062Z" fill="#898890"/>
<path d="M24.3125 16.3438H11.6562V20.0938H24.3125V16.3438Z" fill="#D8D7DA"/>
<path d="M27.5938 15.4062H10.7188V19.1562H27.5938V15.4062Z" fill="#1E81CE"/>
<path d="M12.125 7.90625H6.5V13.5312H12.125V7.90625Z" fill="#FFA733"/>
<path d="M24.3125 4.15625H21.5C21.2516 4.15551 21.0136 4.0565 20.8379 3.88084C20.6623 3.70519 20.5632 3.46716 20.5625 3.21875V0.40625L24.3125 4.15625Z" fill="#BCBEC0"/>
<path d="M23.375 22.9062H14.4688V24.7812H23.375V22.9062Z" fill="#00B39D"/>
<path d="M23.375 21.0312H14.4688V22.9062H23.375V21.0312Z" fill="#00CCB3"/>
<path d="M6.96875 2.75H6.03125V3.6875H6.96875V2.75Z" fill="#C6C5CA"/>
<path d="M10.7188 2.75H7.90625V3.6875H10.7188V2.75Z" fill="#C6C5CA"/>
<path d="M10.7188 4.625H6.03125V5.5625H10.7188V4.625Z" fill="#C6C5CA"/>
<path d="M19.625 16.8125H18.6875V19.1562H19.625V16.8125Z" fill="#1A6FB0"/>
<path d="M25.25 16.8125H24.3125V19.1562H25.25V16.8125Z" fill="#1A6FB0"/>
<path d="M21.5 17.75H20.5625V19.1562H21.5V17.75Z" fill="#1A6FB0"/>
<path d="M23.375 17.75H22.4375V19.1562H23.375V17.75Z" fill="#1A6FB0"/>
<path d="M14 16.8125H13.0625V19.1562H14V16.8125Z" fill="#1A6FB0"/>
<path d="M17.75 17.75H16.8125V19.1562H17.75V17.75Z" fill="#1A6FB0"/>
<path d="M15.875 17.75H14.9375V19.1562H15.875V17.75Z" fill="#1A6FB0"/>
<path d="M17.2812 7.4375H13.5312V8.375H17.2812V7.4375Z" fill="#C6C5CA"/>
<path d="M21.9688 7.4375H18.2188V8.375H21.9688V7.4375Z" fill="#C6C5CA"/>
<path d="M17.2812 9.3125H13.5312V10.25H17.2812V9.3125Z" fill="#C6C5CA"/>
<path d="M21.9688 9.3125H18.2188V10.25H21.9688V9.3125Z" fill="#C6C5CA"/>
<path d="M17.2812 11.1875H13.5312V12.125H17.2812V11.1875Z" fill="#C6C5CA"/>
<path d="M21.9688 11.1875H18.2188V12.125H21.9688V11.1875Z" fill="#C6C5CA"/>
<path d="M17.2812 13.0625H13.5312V14H17.2812V13.0625Z" fill="#C6C5CA"/>
<path d="M21.9688 13.0625H18.2188V14H21.9688V13.0625Z" fill="#C6C5CA"/>
<path d="M8.84375 14.9375H6.03125V15.875H8.84375V14.9375Z" fill="#C6C5CA"/>
<path d="M8.84375 16.8125H6.03125V17.75H8.84375V16.8125Z" fill="#C6C5CA"/>
<path d="M8.84375 18.6875H6.03125V19.625H8.84375V18.6875Z" fill="#C6C5CA"/>
</svg>
