<svg width="24" height="24" viewBox="0 0 24 24" fill="none" xmlns="http://www.w3.org/2000/svg">
<path d="M12.5004 13.2808C13.1474 13.2798 13.7847 13.1233 14.3585 12.8245C14.9323 12.5256 15.4259 12.0932 15.7976 11.5636C15.8041 11.555 15.8138 11.5518 15.8203 11.5431L15.8279 11.5269C16.3389 10.7824 16.5857 9.8881 16.529 8.98684C16.4723 8.08558 16.1153 7.2293 15.515 6.55469C14.9147 5.88008 14.1057 5.42602 13.2171 5.26501C12.3285 5.104 11.4116 5.24531 10.6128 5.66639C9.81393 6.08747 9.17917 6.76404 8.80983 7.5881C8.44049 8.41215 8.35787 9.33619 8.57515 10.2127C8.79244 11.0892 9.2971 11.8677 10.0086 12.4238C10.7201 12.9799 11.5973 13.2816 12.5004 13.2808ZM15.465 9.23623C15.4646 9.65617 15.3744 10.0712 15.2004 10.4534L13.0404 8.95327V6.32563C13.7205 6.45184 14.3352 6.81185 14.778 7.34337C15.2207 7.87488 15.4637 8.54446 15.465 9.23623ZM11.9604 6.32563V9.23623C11.9605 9.32329 11.9817 9.40902 12.0221 9.48612C12.0626 9.56322 12.1211 9.62941 12.1926 9.67903L14.5837 11.3412C14.2545 11.6681 13.8531 11.9132 13.4119 12.0566C12.9706 12.2 12.5018 12.2378 12.0433 12.1669C11.5848 12.0959 11.1493 11.9183 10.772 11.6483C10.3947 11.3782 10.0861 11.0234 9.87108 10.6122C9.65604 10.2011 9.54058 9.7452 9.53399 9.28127C9.52741 8.81735 9.62988 8.35836 9.83316 7.94128C10.0364 7.52421 10.3349 7.16072 10.7043 6.88009C11.0738 6.59946 11.5041 6.40954 11.9604 6.32563ZM7.7959 15.6028C7.7959 15.4596 7.8528 15.3223 7.95407 15.221C8.05534 15.1197 8.19269 15.0628 8.3359 15.0628H12.5004C12.6436 15.0628 12.781 15.1197 12.8822 15.221C12.9835 15.3223 13.0404 15.4596 13.0404 15.6028C13.0404 15.746 12.9835 15.8834 12.8822 15.9847C12.781 16.0859 12.6436 16.1428 12.5004 16.1428H8.3359C8.26499 16.1428 8.19477 16.1289 8.12926 16.1017C8.06374 16.0746 8.00421 16.0348 7.95407 15.9847C7.90392 15.9345 7.86415 15.875 7.83701 15.8095C7.80987 15.744 7.7959 15.6737 7.7959 15.6028ZM17.2049 17.5468C17.2049 17.69 17.148 17.8274 17.0467 17.9287C16.9454 18.0299 16.8081 18.0868 16.6649 18.0868H8.3359C8.19269 18.0868 8.05534 18.0299 7.95407 17.9287C7.8528 17.8274 7.7959 17.69 7.7959 17.5468C7.7959 17.4036 7.8528 17.2663 7.95407 17.165C8.05534 17.0637 8.19269 17.0068 8.3359 17.0068H16.6649C16.8073 17.0068 16.944 17.0631 17.0452 17.1635C17.1463 17.2638 17.2037 17.4 17.2049 17.5425V17.5468ZM17.2049 19.4908C17.2049 19.634 17.148 19.7714 17.0467 19.8727C16.9454 19.9739 16.8081 20.0308 16.6649 20.0308H8.3359C8.19269 20.0308 8.05534 19.9739 7.95407 19.8727C7.8528 19.7714 7.7959 19.634 7.7959 19.4908C7.7959 19.3476 7.8528 19.2103 7.95407 19.109C8.05534 19.0077 8.19269 18.9508 8.3359 18.9508H16.6649C16.8066 18.9508 16.9427 19.0065 17.0437 19.1059C17.1447 19.2053 17.2026 19.3405 17.2049 19.4822V19.4908ZM20.3747 5.79211C20.3474 5.72593 20.3074 5.66575 20.2569 5.61499L17.0526 2.40091C17.0028 2.34956 16.9428 2.30911 16.8765 2.28211C16.8109 2.25453 16.7404 2.24022 16.6692 2.23999H6.20398C5.77433 2.23999 5.36228 2.41067 5.05847 2.71448C4.75466 3.01829 4.58398 3.43034 4.58398 3.85999V21.14C4.58398 21.5696 4.75466 21.9817 5.05847 22.2855C5.36228 22.5893 5.77433 22.76 6.20398 22.76H18.7968C19.2264 22.76 19.6385 22.5893 19.9423 22.2855C20.2461 21.9817 20.4168 21.5696 20.4168 21.14V5.99839C20.417 5.92747 20.4027 5.85727 20.3747 5.79211ZM17.2092 4.08679L18.5765 5.45839H17.7492C17.606 5.45839 17.4686 5.4015 17.3673 5.30023C17.2661 5.19896 17.2092 5.06161 17.2092 4.91839V4.08679ZM18.7968 21.68H6.20398C6.06077 21.68 5.92342 21.6231 5.82215 21.5218C5.72088 21.4206 5.66398 21.2832 5.66398 21.14V3.85999C5.66398 3.71677 5.72088 3.57942 5.82215 3.47815C5.92342 3.37688 6.06077 3.31999 6.20398 3.31999H16.1292V4.91839C16.1292 5.34804 16.2999 5.76009 16.6037 6.0639C16.9075 6.36771 17.3195 6.53839 17.7492 6.53839H19.3368V21.14C19.3368 21.2832 19.2799 21.4206 19.1786 21.5218C19.0774 21.6231 18.94 21.68 18.7968 21.68Z" fill="#aaaaaa"/>
</svg>
