<svg width="36" height="36" viewBox="0 0 36 36" fill="none" xmlns="http://www.w3.org/2000/svg">
<path d="M11.0387 11.8356L5.42792 7.31396H4.92139V7.62812L10.5905 12.1969L4.92139 16.7655V17.4879L11.0387 12.558L17.0638 17.4138V16.6914L11.4869 12.1969L17.0638 7.70237V7.31396H16.6494L11.0387 11.8356Z" fill="#414042"/>
<path d="M17.0638 18.4053L11.0387 23.2609L4.92139 18.3311V19.0534L10.5905 23.6221L4.92139 28.1908V28.9132L11.0387 23.9833L17.0638 28.839V28.1166L11.4869 23.6221L17.0638 19.1277V18.4053Z" fill="#414042"/>
<path d="M24.9608 11.8356L19.35 7.31396H18.9355V7.70237L24.5126 12.1969L18.9355 16.6914V17.4138L24.9608 12.558L31.0784 17.4883V16.7659L25.4089 12.1969L31.0784 7.62784V7.31396H30.5714L24.9608 11.8356Z" fill="#414042"/>
<path d="M31.0784 28.1909L25.4089 23.6219L31.0784 19.053V18.3306L24.9608 23.2607L18.9355 18.4051V19.1275L24.5126 23.6219L18.9355 28.1164V28.8388L24.9608 23.9831L31.0784 28.9133V28.1909Z" fill="#414042"/>
<path d="M32.9494 7.3141H3.0498V2.41064C3.0498 2.02238 3.36466 1.70752 3.75293 1.70752H32.2462C32.6345 1.70752 32.9494 2.02238 32.9494 2.41064V7.3141Z" fill="#FFA91A"/>
<path d="M16.4996 2.83252H16.4092C16.2539 2.83252 16.1279 2.70652 16.1279 2.55127C16.1279 2.39602 16.2539 2.27002 16.4092 2.27002H16.4996C16.6549 2.27002 16.7809 2.39602 16.7809 2.55127C16.7809 2.70652 16.6549 2.83252 16.4996 2.83252ZM15.2842 2.83252H3.89355C3.7383 2.83252 3.6123 2.70652 3.6123 2.55127C3.6123 2.39602 3.7383 2.27002 3.89355 2.27002H15.2842C15.4394 2.27002 15.5654 2.39602 15.5654 2.55127C15.5654 2.70652 15.4394 2.83252 15.2842 2.83252Z" fill="#FFC91D"/>
<path d="M32.2462 1.70752H31.5431V5.20472C31.5431 5.59299 31.2282 5.90785 30.84 5.90785H3.0498V7.3141H32.9494V2.41064C32.9494 2.02238 32.6345 1.70752 32.2462 1.70752Z" fill="#F79219"/>
<path d="M32.2462 1.70752V5.90785C32.2462 6.29611 31.9314 6.61097 31.5431 6.61097H3.0498V7.3141H32.9494V2.41064C32.9494 2.02224 32.6345 1.70752 32.2462 1.70752Z" fill="#EF7816"/>
<path d="M4.92138 7.31396H3.0498V32.1828H4.92138V7.31396Z" fill="#939598"/>
<path d="M4.21826 7.31396V31.1984C4.21826 31.3538 4.0924 31.4797 3.93701 31.4797H3.0498V32.1828H4.92138V7.31396H4.21826Z" fill="#808285"/>
<path d="M6.04638 34.2925H1.9248C1.76941 34.2925 1.64355 34.1666 1.64355 34.0112V32.8862C1.64355 32.498 1.95841 32.1831 2.34668 32.1831H5.62451C6.01277 32.1831 6.32763 32.498 6.32763 32.8862V34.0112C6.32763 34.1666 6.20177 34.2925 6.04638 34.2925Z" fill="#58595B"/>
<path d="M5.62451 32.1831V33.3081C5.62451 33.4634 5.49865 33.5894 5.34326 33.5894H1.64355V34.0112C1.64355 34.1665 1.76941 34.2925 1.9248 34.2925H6.04638C6.20177 34.2925 6.32763 34.1665 6.32763 34.0112V32.8862C6.32763 32.498 6.01292 32.1831 5.62451 32.1831Z" fill="#414042"/>
<path d="M32.9502 7.31396H31.0786V32.1828H32.9502V7.31396Z" fill="#939598"/>
<path d="M32.2471 7.31396V31.1984C32.2471 31.3538 32.1212 31.4797 31.9658 31.4797H31.0786V32.1828H32.9502V7.31396H32.2471Z" fill="#808285"/>
<path d="M34.0752 34.292H29.9536C29.7982 34.292 29.6724 34.1661 29.6724 34.0107V32.8857C29.6724 32.4975 29.9872 32.1826 30.3755 32.1826H33.6533C34.0416 32.1826 34.3564 32.4975 34.3564 32.8857V34.0107C34.3564 34.1661 34.2304 34.292 34.0752 34.292Z" fill="#58595B"/>
<path d="M33.6533 32.1826V33.3076C33.6533 33.4629 33.5275 33.5889 33.3721 33.5889H29.6724V34.0107C29.6724 34.166 29.7982 34.292 29.9536 34.292H34.0752C34.2306 34.292 34.3564 34.166 34.3564 34.0107V32.8857C34.3564 32.4975 34.0416 32.1826 33.6533 32.1826Z" fill="#414042"/>
<path d="M18.9355 7.31396H17.064V32.1828H18.9355V7.31396Z" fill="#939598"/>
<path d="M18.2324 7.31396V31.1984C18.2324 31.3538 18.1066 31.4797 17.9512 31.4797H17.064V32.1828H18.9355V7.31396H18.2324Z" fill="#808285"/>
<path d="M20.0605 34.292H15.939C15.7836 34.292 15.6577 34.1661 15.6577 34.0107V32.8857C15.6577 32.4975 15.9726 32.1826 16.3608 32.1826H19.6387C20.0269 32.1826 20.3418 32.4975 20.3418 32.8857V34.0107C20.3418 34.1661 20.2159 34.292 20.0605 34.292Z" fill="#58595B"/>
<path d="M19.6387 32.1826V33.3076C19.6387 33.4629 19.5128 33.5889 19.3574 33.5889H15.6577V34.0107C15.6577 34.166 15.7836 34.292 15.939 34.292H20.0605C20.2159 34.292 20.3418 34.166 20.3418 34.0107V32.8857C20.3418 32.4975 20.0271 32.1826 19.6387 32.1826Z" fill="#414042"/>
</svg>
