<svg width="40" height="40" viewBox="0 0 40 40" fill="none" xmlns="http://www.w3.org/2000/svg">
<rect width="40" height="40" rx="20" fill="#F0F0F0"/>
<g clip-path="url(#clip0_1194_3301)">
<path d="M31.9999 16.3V14.6C31.9999 14.4 31.8499 14.2 31.6499 14.15L30.0499 13.8C29.9499 13.4 29.7999 13.05 29.5999 12.7L30.4999 11.35C30.5999 11.15 30.5999 10.9 30.4499 10.75L29.2499 9.55C29.0999 9.4 28.8499 9.35 28.6499 9.5L27.2999 10.4C26.9499 10.2 26.5999 10.05 26.1999 9.95L25.8499 8.35C25.7999 8.15 25.6499 8 25.3999 8H23.6999C23.4999 8 23.2999 8.15 23.2499 8.35L22.8999 9.95C22.4999 10.05 22.1499 10.2 21.8499 10.4L20.4999 9.5C20.2999 9.4 20.0499 9.4 19.8999 9.55L18.6999 10.75C18.5499 10.9 18.4999 11.15 18.6499 11.35L19.5499 12.7C19.3499 13.05 19.1999 13.4 19.0999 13.75L17.4999 14.15C17.2999 14.2 17.1499 14.4 17.1499 14.6V16.3C17.1499 16.5 17.2999 16.7 17.4999 16.75L19.0999 17.1C19.1999 17.5 19.3499 17.85 19.5499 18.15L18.6499 19.5C18.5499 19.7 18.5499 19.95 18.6999 20.1L19.8999 21.3C20.0499 21.45 20.2999 21.5 20.4999 21.35L21.8499 20.45C22.1999 20.65 22.5499 20.8 22.8999 20.9L23.2499 22.5C23.2999 22.7 23.4999 22.85 23.6999 22.85H25.3999C25.5999 22.85 25.7999 22.7 25.8499 22.5L26.1999 20.9C26.5999 20.8 26.9499 20.65 27.2999 20.45L28.6499 21.35C28.8499 21.45 29.0999 21.45 29.2499 21.3L30.4499 20.1C30.5999 19.95 30.6499 19.7 30.4999 19.5L29.5999 18.15C29.7999 17.8 29.9499 17.45 30.0499 17.05L31.6499 16.7C31.8499 16.7 31.9999 16.5 31.9999 16.3Z" fill="#66C6B9"/>
<path d="M24.5499 19.8502C22.0999 19.8502 20.1499 17.9002 20.1499 15.4502C20.1499 13.0002 22.1499 11.0502 24.5499 11.0502C26.9999 11.0002 28.9999 13.0002 28.9999 15.4502C28.9999 17.9002 26.9999 19.8502 24.5499 19.8502Z" fill="#F3F3F3"/>
<path d="M25.2998 16.6501C25.1998 16.6501 25.0498 16.6001 24.9498 16.5001L24.1998 15.7501C24.0998 15.6501 24.0498 15.5501 24.0498 15.4001V13.5501C24.0498 13.3001 24.2498 13.1001 24.4998 13.1001C24.7498 13.1001 24.9498 13.3001 24.9498 13.5501V15.2501L25.5498 15.8501C25.7498 16.0501 25.7498 16.3501 25.5498 16.5001C25.5498 16.6001 25.4498 16.6501 25.2998 16.6501Z" fill="#344A5E"/>
<path d="M24.5499 12.55C24.7708 12.55 24.9499 12.3709 24.9499 12.15C24.9499 11.9291 24.7708 11.75 24.5499 11.75C24.329 11.75 24.1499 11.9291 24.1499 12.15C24.1499 12.3709 24.329 12.55 24.5499 12.55Z" fill="#CED6E0"/>
<path d="M24.5499 19.0998C24.7708 19.0998 24.9499 18.9207 24.9499 18.6998C24.9499 18.4789 24.7708 18.2998 24.5499 18.2998C24.329 18.2998 24.1499 18.4789 24.1499 18.6998C24.1499 18.9207 24.329 19.0998 24.5499 19.0998Z" fill="#CED6E0"/>
<path d="M26.9 13.5002C27.1209 13.5002 27.3 13.3211 27.3 13.1002C27.3 12.8793 27.1209 12.7002 26.9 12.7002C26.6791 12.7002 26.5 12.8793 26.5 13.1002C26.5 13.3211 26.6791 13.5002 26.9 13.5002Z" fill="#CED6E0"/>
<path d="M22.2501 18.1501C22.471 18.1501 22.6501 17.971 22.6501 17.7501C22.6501 17.5292 22.471 17.3501 22.2501 17.3501C22.0292 17.3501 21.8501 17.5292 21.8501 17.7501C21.8501 17.971 22.0292 18.1501 22.2501 18.1501Z" fill="#CED6E0"/>
<path d="M27.8502 15.8498C28.0711 15.8498 28.2502 15.6707 28.2502 15.4498C28.2502 15.2289 28.0711 15.0498 27.8502 15.0498C27.6293 15.0498 27.4502 15.2289 27.4502 15.4498C27.4502 15.6707 27.6293 15.8498 27.8502 15.8498Z" fill="#CED6E0"/>
<path d="M21.2999 15.8498C21.5208 15.8498 21.6999 15.6707 21.6999 15.4498C21.6999 15.2289 21.5208 15.0498 21.2999 15.0498C21.079 15.0498 20.8999 15.2289 20.8999 15.4498C20.8999 15.6707 21.079 15.8498 21.2999 15.8498Z" fill="#CED6E0"/>
<path d="M26.9 18.1501C27.1209 18.1501 27.3 17.971 27.3 17.7501C27.3 17.5292 27.1209 17.3501 26.9 17.3501C26.6791 17.3501 26.5 17.5292 26.5 17.7501C26.5 17.971 26.6791 18.1501 26.9 18.1501Z" fill="#CED6E0"/>
<path d="M22.2501 13.5002C22.471 13.5002 22.6501 13.3211 22.6501 13.1002C22.6501 12.8793 22.471 12.7002 22.2501 12.7002C22.0292 12.7002 21.8501 12.8793 21.8501 13.1002C21.8501 13.3211 22.0292 13.5002 22.2501 13.5002Z" fill="#CED6E0"/>
<path d="M26.4 31.9999L25.8 28.1499C25.55 26.5999 24.4 25.3999 22.85 25.1499L17.3 24.1499L11.6 25.1499C10.05 25.3999 8.9 26.6499 8.65 28.1499L8 31.9999H26.4Z" fill="#344A5E"/>
<path d="M19.7002 23.6997C19.7002 25.0497 17.2002 25.9997 17.2002 25.9997C17.2002 25.9997 14.7002 25.0497 14.7002 23.6997V18.6997H19.7002V23.6997Z" fill="#F7B64C"/>
<path d="M15.6502 32.0001H18.3002L20.3502 26.1001L19.8502 25.6001L17.2002 26.0001L14.2002 25.6001L15.2502 31.1001L15.6502 32.0001Z" fill="#CED6E0"/>
<path d="M17.8001 27.65L18.3001 27.15C18.3001 27.15 17.5501 26 17.1501 26C16.7501 26 16.0001 27.15 16.0001 27.15L16.5001 27.65H17.8001ZM18.5501 32L17.8001 27.65H16.6001L15.8501 32H18.5501Z" fill="#F3705A"/>
<path d="M17.2001 23.6497C19.4645 23.6497 21.3001 21.2544 21.3001 18.2997C21.3001 15.345 19.4645 12.9497 17.2001 12.9497C14.9357 12.9497 13.1001 15.345 13.1001 18.2997C13.1001 21.2544 14.9357 23.6497 17.2001 23.6497Z" fill="#FFD15C"/>
<path d="M12.3502 18.7001C12.4002 19.4001 12.8002 19.9001 13.2502 19.8501C13.7002 19.8001 14.0002 19.2001 13.9502 18.5001C13.9002 17.8001 13.5002 17.3001 13.0502 17.3501C12.6002 17.4001 12.3002 18.0001 12.3502 18.7001ZM22.0502 18.7001C22.0002 19.4001 21.6002 19.9001 21.1502 19.8501C20.7002 19.8001 20.4002 19.2001 20.4502 18.5001C20.5002 17.8001 20.9002 17.3001 21.3502 17.3501C21.8002 17.4001 22.1002 18.0001 22.0502 18.7001Z" fill="#FFD15C"/>
<path d="M19.6002 16.3497C19.6002 16.3497 20.7002 16.9497 20.8002 17.9997V18.5997H21.0502C21.0502 18.5997 21.6502 17.4497 21.0502 16.2997C20.4502 15.1497 19.7502 16.2997 19.7502 16.2997L19.6002 16.3497ZM14.8002 16.3497C14.8002 16.3497 13.7002 16.9497 13.6002 17.9997V18.5997H13.3502C13.3502 18.5997 12.7502 17.4497 13.3502 16.2997C13.9502 15.1497 14.6502 16.2997 14.6502 16.2997" fill="#415A6B"/>
<path d="M21.7002 16.4497V16.1997C21.7002 13.6997 19.7002 11.6997 17.2002 11.6997C14.7002 11.6997 12.7002 13.6997 12.7002 16.1997V16.4497H21.7002Z" fill="#FFD15C"/>
<path d="M21.7002 16.4497V16.1997C21.7002 13.6997 19.7002 11.6997 17.2002 11.6997C14.7002 11.6997 12.7002 13.6997 12.7002 16.1997V16.4497H21.7002Z" fill="#F05540"/>
<path d="M21.7 17.1499H12.7C12.3 17.1499 12 16.8499 12 16.4499C12 16.0499 12.3 15.7499 12.7 15.7499H21.7C22.1 15.7499 22.4 16.0499 22.4 16.4499C22.4 16.8499 22.1 17.1499 21.7 17.1499ZM18.75 11.8999L18.3 14.6999C18.3 14.7999 18.2 14.8999 18.05 14.8999H16.4C16.3 14.8999 16.15 14.7999 16.15 14.6999L15.7 11.8999C15.7 11.7999 15.75 11.6499 15.85 11.5999C16.3 11.4499 16.75 11.3999 17.2 11.3999C17.7 11.3999 18.15 11.4999 18.55 11.5999C18.7 11.6499 18.75 11.7999 18.75 11.8999Z" fill="#F3705A"/>
<path d="M19.7002 23.25C19.1002 24.45 18.3002 25.4 17.2002 26C17.7502 26.4 18.2502 26.9 18.7502 27.55L20.4502 24.15L19.7002 23.25Z" fill="#F3F3F3"/>
<path d="M19.6499 31.9999C20.6999 30.3499 21.5499 28.5999 22.0499 26.7999L20.8999 25.5999L22.0499 25.0999L19.9999 23.6499C19.5999 26.1499 18.9499 28.9999 18.1499 32.0999H19.6499V31.9999Z" fill="#415A6B"/>
<path d="M14.7002 23.25C15.2002 24.3 16.0502 25.2 17.2002 26C16.5002 26.4 16.0002 26.9 15.6502 27.5L13.9502 24.1L14.7002 23.25Z" fill="#F3F3F3"/>
<path d="M14.7499 31.9998H16.2999C15.4999 28.9498 14.7999 26.0498 14.4499 23.5498L12.3999 24.9998L13.5499 25.4998L12.3999 26.6998C12.8499 28.5998 13.6999 30.3498 14.7499 31.9998Z" fill="#415A6B"/>
</g>
<defs>
<clipPath id="clip0_1194_3301">
<rect width="24" height="24" fill="white" transform="translate(8 8)"/>
</clipPath>
</defs>
</svg>
