<svg width="40" height="40" viewBox="0 0 40 40" fill="none" xmlns="http://www.w3.org/2000/svg">
<rect width="40" height="40" rx="20" fill="#061F48" fill-opacity="0.05"/>
<path d="M29.8195 19.2275L28.2392 17.8388C28.4903 16.7113 28.4908 15.5305 28.2392 14.4006L29.8052 13.0143L27.8631 9.63437L25.8566 10.2688C25.0121 9.4947 23.9993 8.89905 22.8783 8.5472L22.4616 6.50391H18.5249L18.1081 8.5472C16.9872 8.89905 15.9744 9.4947 15.1299 10.2688L13.1488 9.60841L11.1802 13.0163L12.7473 14.4006C12.4972 15.5235 12.4954 16.7041 12.7449 17.8392C12.7444 17.8404 12.7441 17.8414 12.7437 17.8427L11.1809 19.2219L13.1486 22.6282L15.1324 21.9681C15.9769 22.7422 16.9897 23.3353 18.1081 23.6897L18.5249 25.733H22.4616L22.8783 23.6897C23.9968 23.3353 25.0096 22.7422 25.8541 21.9681L27.8544 22.6171L29.8195 19.2275ZM21.1628 20.3629C18.265 20.8002 15.811 18.3418 16.2504 15.444C16.5244 13.6366 17.9984 12.1579 19.8047 11.877C22.7148 11.4245 25.1891 13.901 24.7327 16.8117C24.4496 18.6176 22.9703 20.0902 21.1628 20.3629Z" fill="#65B9FF"/>
<path d="M25 23.1747C24.995 23.1747 24.9849 23.1747 24.9648 23.1707V32H16.1306V23.1707C16.0603 23.1906 16.0201 23.1985 16 23.1985C16.0502 23.1787 16.1758 23.1469 16.3465 23.1071C17.1953 22.9269 17.3159 23.0362 23.7645 23.0038C24.1751 23.0038 24.6805 23.0862 25 23.1747Z" fill="#5B5E8B"/>
<path d="M22.4296 21.3013V22.846C22.4296 23.913 21.5617 24.7769 20.5027 24.7769C19.464 24.7769 18.5718 23.9439 18.5718 22.846V21.3013H22.4296Z" fill="#FFAF93"/>
<path d="M19.7383 24.1997L19.7502 24.2116C20.0329 24.4943 20.3952 24.6894 20.8093 24.7491C20.7097 24.769 20.6062 24.777 20.5027 24.777C19.464 24.777 18.5718 23.9439 18.5718 22.846V21.9104C19.1252 22.2727 19.7901 22.4837 20.5027 22.4837C20.6779 22.4837 20.8491 22.4718 21.0163 22.4479C20.1066 22.3166 19.2976 21.8155 18.8226 21.2217H22.4296V22.5235C21.8524 22.8301 21.1994 23.0013 20.5027 23.0013C20.435 23.0013 20.3713 23.0013 20.3076 22.9973C19.6666 22.9655 19.2884 23.7458 19.7383 24.1997Z" fill="#EE8778"/>
<path d="M24.036 14.7827V18.9501C24.036 20.9022 22.4535 22.4846 20.5014 22.4846H20.5014C18.5493 22.4846 16.9668 20.9022 16.9668 18.9501V14.7827H24.036Z" fill="#FFAF93"/>
<path d="M24.0341 14.7808V18.9481C24.0341 19.0596 24.0301 19.1711 24.0181 19.2786C24.0062 19.4339 23.9783 19.5851 23.9425 19.7364C23.5882 21.313 22.1828 22.4835 20.5027 22.4835C18.5504 22.4835 16.9673 20.903 16.9673 18.9481V14.7808H24.0341Z" fill="#FFAF93"/>
<path d="M24.7895 13.752V18.1978H24.0362V14.782H16.9682V18.1978H16.1943V13.752H24.7895Z" fill="#8B4F4F"/>
<path d="M25.2789 18.0411C25.2789 18.734 24.7232 19.2897 24.0303 19.2897V16.7993C24.7232 16.7993 25.2789 17.355 25.2789 18.0411Z" fill="#FFAF93"/>
<path d="M24.3635 16.8495C24.2569 16.8202 24.1466 16.7995 24.0303 16.7995V19.2899C24.1466 19.2899 24.2569 19.2692 24.3635 19.2398V16.8495ZM17.9946 14.4165V18.9483C17.9946 20.7204 19.3049 22.2009 21.0164 22.4479C20.8492 22.4718 20.678 22.4837 20.5028 22.4837C19.7901 22.4837 19.1253 22.2727 18.5719 21.9104C17.5924 21.27 16.9674 20.1759 16.9674 18.9483V19.2907C16.2747 19.2907 15.7173 18.7334 15.7173 18.0406C15.7173 17.6465 15.9004 17.2961 16.1911 17.0652C16.406 16.898 16.6728 16.7984 16.9674 16.7984V14.4165H17.9946ZM20.7807 18.4739V18.9787C20.7807 19.15 20.642 19.2887 20.4706 19.2887C20.2993 19.2887 20.1606 19.15 20.1606 18.9787V18.4739C20.1606 18.3026 20.2993 18.1639 20.4706 18.1639C20.6437 18.1639 20.7807 18.3048 20.7807 18.4739Z" fill="#FFAF93"/>
<path d="M24.7894 13.5663V14.4504C22.8655 17.9115 16.1943 14.4504 16.1943 14.4504V13.8023C16.1943 13.1644 16.4305 12.5415 16.8926 12.1044C19.2988 9.80871 22.2677 11.8532 22.2677 11.8532C22.2677 11.8532 23.8099 11.2052 24.5332 12.4862C24.7191 12.8127 24.7894 13.1895 24.7894 13.5663Z" fill="#AB604B"/>
<path d="M18.0191 11.3442C17.6389 11.5151 17.2592 11.7544 16.8926 12.1042C16.4305 12.5412 16.1943 13.1642 16.1943 13.8021V14.4502C16.1943 14.4502 16.9476 14.8402 18.0191 15.2274V11.3442Z" fill="#8B4F4F"/>
<path d="M16 23C14.2577 23.4023 13 24.5228 13 25.8529V32H16V23Z" fill="#312E4B"/>
<path d="M25 26.205V32H16V26.205H16.867V23.0127C17.1419 22.9933 17.2924 23.0035 18.0178 23.0007V26.205H22.977V23.0007C23.7518 23.0067 23.4293 22.9892 24.1279 23.0127V26.205H25Z" fill="#FCB73E"/>
<path d="M17.7991 27.6444C17.7991 27.8522 17.6296 28.0217 17.4163 28.0217C17.2086 28.0217 17.0391 27.8522 17.0391 27.6444C17.0391 27.4312 17.2086 27.2617 17.4163 27.2617C17.6296 27.2617 17.7991 27.4312 17.7991 27.6444ZM23.936 27.7467C23.936 27.9427 23.7761 28.1025 23.5749 28.1025C23.3789 28.1025 23.2191 27.9427 23.2191 27.7467C23.2191 27.5455 23.3789 27.3856 23.5749 27.3856C23.7761 27.3856 23.936 27.5455 23.936 27.7467Z" fill="#DEDDFF"/>
<path d="M24.9532 13.9182V14.8359C22.9561 18.4287 16.0312 14.8359 16.0312 14.8359V14.1632C16.0312 13.501 16.2763 12.8544 16.7561 12.4007C19.2538 10.0177 22.3356 12.14 22.3356 12.14C22.3356 12.14 23.9364 11.4674 24.6873 12.7971C24.8803 13.136 24.9532 13.5271 24.9532 13.9182Z" fill="#AB604B"/>
<path d="M17.9254 11.6118C17.5307 11.7892 17.1366 12.0376 16.7561 12.4007C16.2763 12.8543 16.0312 13.501 16.0312 14.1632V14.8359C16.0312 14.8359 16.8132 15.2407 17.9254 15.6427V11.6118Z" fill="#8B4F4F"/>
<path d="M25.8853 15.7028V15.7028C25.8853 16.1058 25.5586 16.4325 25.1556 16.4325H15.8283C15.4253 16.4325 15.0986 16.1058 15.0986 15.7028V15.7028C15.0986 15.2998 15.4253 14.9731 15.8283 14.9731H25.1556C25.5586 14.9731 25.8853 15.2998 25.8853 15.7028Z" fill="#E83D62"/>
<path d="M19.0235 16.4326H15.8283C15.4252 16.4326 15.0991 16.1049 15.0991 15.7018C15.0991 15.3009 15.4255 14.9727 15.8283 14.9727H19.0235C18.6209 14.9727 18.2944 15.3006 18.2944 15.7018C18.2944 16.1049 18.6204 16.4326 19.0235 16.4326Z" fill="#CE2955"/>
<path d="M25.0611 14.6001V14.9731H15.9233V14.6001C15.9233 12.0768 17.9689 10.0313 20.4922 10.0313H20.4922C23.0156 10.0312 25.0611 12.0768 25.0611 14.6001Z" fill="#E83D62"/>
<path d="M21.116 10.0734C18.8875 10.3781 17.1703 12.2887 17.1703 14.6008V14.9727H15.9233V14.6008C15.9233 12.0774 17.9683 10.0308 20.4917 10.0308C20.7031 10.0308 20.9112 10.0455 21.116 10.0734Z" fill="#CE2955"/>
<path d="M25.0617 14.6008V14.9727H15.9233V14.6008C15.9233 14.5565 15.9233 14.5123 15.9266 14.4681H25.0584C25.0617 14.5123 25.0617 14.5565 25.0617 14.6008ZM22.1889 10.2536L21.8531 13.3199C21.8167 13.6523 21.5359 13.904 21.2016 13.904H19.7829C19.4485 13.904 19.1678 13.6523 19.1314 13.3199L18.7956 10.2536C18.7531 9.86573 19.0569 9.52686 19.4471 9.52686H21.5373C21.9276 9.52686 22.2314 9.86573 22.1889 10.2536Z" fill="#CE2955"/>
<path d="M21.4556 11.2601C21.4556 11.7887 21.0289 12.2154 20.5003 12.2154C19.9746 12.2154 19.5479 11.7887 19.5479 11.2601C19.5479 10.7343 19.9746 10.3076 20.5003 10.3076C21.0289 10.3076 21.4556 10.7343 21.4556 11.2601Z" fill="#312E4B"/>
<path d="M21.1057 11.2605C21.1057 11.595 20.8357 11.865 20.5012 11.865C20.1685 11.865 19.8984 11.595 19.8984 11.2605C19.8984 10.9277 20.1685 10.6577 20.5012 10.6577C20.8357 10.6577 21.1057 10.9277 21.1057 11.2605Z" fill="#65B9FF"/>
<path d="M20.8014 11.2609C20.8014 11.4268 20.6675 11.5607 20.5016 11.5607C20.3366 11.5607 20.2026 11.4268 20.2026 11.2609C20.2026 11.0958 20.3366 10.9619 20.5016 10.9619C20.6675 10.9619 20.8014 11.0958 20.8014 11.2609Z" fill="white"/>
<path d="M27.657 25.8472V31.9996H25.0386V22.9897C26.5585 23.3915 27.657 24.5164 27.657 25.8472Z" fill="#312E4B"/>
</svg>
