<svg width="42" height="42" viewBox="0 0 42 42" fill="none" xmlns="http://www.w3.org/2000/svg">
<path fill-rule="evenodd" clip-rule="evenodd" d="M17.3908 0.849187C17.2516 0.868704 16.7773 0.925574 16.3367 0.975629C14.3252 1.20387 12.2155 1.81092 10.38 2.68954C6.88874 4.36072 4.33443 6.90548 2.63268 10.4078C0.19693 15.421 0.23648 21.4178 2.73826 26.4173C5.18278 31.3023 9.67353 34.5138 15.4404 35.5008C18.3564 35.9999 20.9961 35.8113 23.751 34.9069C24.3736 34.7026 24.9489 34.4758 25.0294 34.403C25.2467 34.2069 25.2963 33.8943 25.1539 33.6196C24.9263 33.1804 24.6758 33.1717 23.5734 33.5648C20.698 34.5902 17.5298 34.7417 14.5767 33.995C9.55302 32.7247 5.23481 29.0941 3.29744 24.5115C2.56142 22.7705 2.18776 21.0651 2.11136 19.0982C1.91116 13.9408 3.99349 9.17841 7.86164 5.94693C15.2102 -0.192135 26.1209 1.28875 31.6182 9.17126C33.0455 11.2179 34.129 14.1353 34.3524 16.5331C34.402 17.0649 34.447 17.1981 34.6435 17.3941C34.9381 17.688 35.2513 17.6928 35.5371 17.4077C35.7463 17.199 35.7538 17.16 35.7049 16.5284C35.6 15.1719 35.0258 12.9255 34.4264 11.5268C31.7281 5.23085 25.5999 1.02425 18.8665 0.84599C18.194 0.828155 17.5299 0.829585 17.3908 0.849187ZM17.3486 3.54444C13.9605 3.96979 11.9193 4.67603 9.63255 6.21429C8.62971 6.8889 6.84076 8.67298 6.16149 9.67602C4.05471 12.7867 3.15838 16.5579 3.6453 20.2629C4.09612 23.6943 5.42362 26.4315 7.77394 28.7762C9.70068 30.6984 11.7025 31.8342 14.3748 32.5216C18.1882 33.5024 21.5898 33.1861 24.8731 31.5452C25.7932 31.0854 27.1626 30.2163 27.3813 29.9534C27.574 29.7219 27.534 29.2399 27.3069 29.0564C26.9708 28.7849 26.6894 28.8579 25.8193 29.4424C23.2518 31.1669 20.0918 31.9897 17.2221 31.6808C10.8207 30.9918 6.40908 27.099 5.10756 20.9911C4.94792 20.2421 4.91874 19.839 4.91537 18.3411C4.91208 16.8295 4.93907 16.4384 5.10224 15.6325C6.20973 10.1638 9.9885 6.3658 15.4934 5.18836C17.9072 4.67216 20.1205 4.76436 22.4314 5.47742C23.4418 5.7892 25.3734 6.76835 26.2194 7.39753C29.0958 9.53696 30.9399 12.4895 31.5273 15.8958C31.6236 16.4541 31.7178 16.9951 31.7366 17.0979C31.8282 17.5977 32.461 17.7844 32.8267 17.4195C33.0825 17.1644 33.0875 16.9469 32.8675 15.6635C31.9195 10.1311 27.7214 5.52495 22.2695 4.03515C21.8454 3.91923 21.1813 3.7678 20.7938 3.69865C20.0882 3.57262 17.9033 3.47487 17.3486 3.54444ZM17.8086 5.71828C17.6277 5.89865 17.6016 6.0001 17.6016 6.52127C17.6016 7.04243 17.6277 7.14389 17.8086 7.32426C17.9391 7.45449 18.112 7.53079 18.2762 7.53079C18.4405 7.53079 18.6134 7.45449 18.7438 7.32426C18.9247 7.14389 18.9509 7.04243 18.9509 6.52127C18.9509 6.0001 18.9247 5.89865 18.7438 5.71828C18.6134 5.58805 18.4405 5.51175 18.2762 5.51175C18.112 5.51175 17.9391 5.58805 17.8086 5.71828ZM11.9817 7.19437C11.7551 7.28463 11.5297 7.59876 11.5307 7.82296C11.5318 8.05734 11.9993 8.85133 12.199 8.958C12.4715 9.10346 12.7912 9.05634 13.0095 8.83854C13.2644 8.58431 13.2698 8.3708 13.0335 7.89876C12.7328 7.29809 12.3556 7.04546 11.9817 7.19437ZM24.0973 7.21851C23.8232 7.35606 23.422 7.9595 23.3628 8.32326C23.2789 8.83938 23.8682 9.21703 24.3535 8.958C24.5591 8.84822 25.0207 8.05448 25.0218 7.80891C25.0227 7.59195 24.7152 7.22802 24.4744 7.16088C24.3816 7.13497 24.2119 7.16097 24.0973 7.21851ZM17.9565 8.9898C17.7233 9.11894 16.2526 11.2951 16.2524 11.5113C16.2523 11.7052 16.4092 12.0015 16.5823 12.134C16.7863 12.2903 17.1323 12.2614 17.3794 12.0675L17.6016 11.8932V13.7882V15.6832L17.2284 15.8479C16.696 16.0829 16.1248 16.6421 15.8546 17.193C15.6628 17.5841 15.6224 17.7776 15.624 18.2985C15.6259 18.9293 15.7738 19.3676 16.2205 20.0657C16.3518 20.2711 16.334 20.3123 15.4535 21.8323C14.9577 22.6883 14.5223 23.4195 14.4862 23.457C14.4499 23.4946 14.3967 23.4078 14.3679 23.264C14.3024 22.9374 13.8536 22.7121 13.5201 22.8387C13.0782 23.0063 13.0323 23.2046 13.128 24.5358C13.1758 25.2004 13.2152 25.8311 13.2157 25.9373C13.2168 26.1958 13.5784 26.5434 13.8462 26.5434C13.9648 26.5434 14.625 26.2621 15.3132 25.9183C16.3739 25.3883 16.581 25.2532 16.6731 25.0312C16.872 24.5522 16.4295 24.0306 15.912 24.1338C15.69 24.1781 15.6679 24.1662 15.737 24.039C15.7805 23.9589 16.199 23.232 16.6667 22.4235L17.5174 20.9536L18.2131 20.9509C18.7836 20.9488 18.9934 20.9088 19.3798 20.7283C19.9784 20.4486 20.4307 19.9975 20.7116 19.3999C21.0283 18.7263 21.0217 17.7737 20.6961 17.1451C20.3971 16.5679 19.9548 16.1373 19.4008 15.8843L18.9509 15.6787V13.786V11.8932L19.1731 12.0675C19.4201 12.2614 19.7661 12.2903 19.9701 12.134C20.1433 12.0015 20.3001 11.7052 20.3 11.5113C20.2999 11.2951 18.8292 9.11894 18.596 8.9898C18.4897 8.93091 18.3458 8.88279 18.2762 8.88279C18.2067 8.88279 18.0628 8.93091 17.9565 8.9898ZM7.34631 11.7659C7.06904 12.0038 7.03885 12.4061 7.27834 12.6705C7.48082 12.894 8.17754 13.2514 8.41079 13.2514C8.65585 13.2514 9.00008 12.8818 9.00008 12.6188C9.00008 12.275 8.86009 12.0935 8.38575 11.8221C7.85481 11.5183 7.64787 11.5071 7.34631 11.7659ZM28.1872 11.818C27.6872 12.1116 27.5524 12.2773 27.5524 12.5983C27.5524 12.8861 27.887 13.2514 28.1507 13.2514C28.3981 13.2514 29.024 12.9328 29.2518 12.691C29.5144 12.4121 29.4947 12.0136 29.2061 11.7659C28.906 11.5084 28.6961 11.5191 28.1872 11.818ZM19.0663 17.2333C19.6367 17.6673 19.7596 18.4598 19.3494 19.0593C18.7477 19.9385 17.4356 19.7715 17.0509 18.7668C16.579 17.5341 18.0203 16.4374 19.0663 17.2333ZM5.6653 17.8325C5.53476 17.9627 5.45828 18.1351 5.45828 18.299C5.45828 18.4629 5.53476 18.6354 5.6653 18.7655C5.84611 18.946 5.94781 18.972 6.47022 18.972C6.99264 18.972 7.09434 18.946 7.27514 18.7655C7.54904 18.4923 7.54904 18.1057 7.27514 17.8325C7.09434 17.6521 6.99264 17.626 6.47022 17.626C5.94781 17.626 5.84611 17.6521 5.6653 17.8325ZM25.3348 18.4194C24.1786 18.8344 23.5168 19.9604 23.7554 21.1068C23.9354 21.9719 24.66 22.7506 25.4169 22.8923L25.6971 22.9448L25.6977 23.7135C25.6994 25.9469 26.89 28.0942 28.8058 29.3196C29.1313 29.5278 29.399 29.7171 29.4005 29.7403C29.402 29.7634 29.1377 29.9506 28.8131 30.1563C26.8975 31.3701 25.6994 33.5314 25.6977 35.7764C25.6971 36.5316 25.6914 36.5545 25.5037 36.5545C25.166 36.5545 24.4095 37.0734 24.1218 37.5023C23.2202 38.8465 23.9026 40.6833 25.459 41.1013C25.6584 41.1549 28.2557 41.1771 32.6283 41.1624L39.4849 41.1394L39.832 40.9542C40.3906 40.6561 40.6835 40.3641 40.9315 39.8584C41.5584 38.5802 40.8759 36.9695 39.5585 36.618L39.1897 36.5196L39.1891 35.7589C39.1881 34.4815 38.7805 33.1535 38.0624 32.0886C37.6176 31.4289 36.6688 30.5072 36.0347 30.1188C35.7325 29.9338 35.4842 29.7634 35.4829 29.7403C35.4816 29.7171 35.6415 29.6075 35.8383 29.4966C37.855 28.3602 39.1847 26.0346 39.1886 23.6375L39.1897 22.9609L39.5585 22.8625C40.8759 22.511 41.5584 20.9003 40.9315 19.6221C40.6835 19.1164 40.3906 18.8244 39.832 18.5263L39.4849 18.3411L32.5699 18.3227C26.9013 18.3078 25.5973 18.3251 25.3348 18.4194ZM39.5465 19.9621C39.7837 20.1989 39.8222 20.2953 39.8222 20.6546C39.8222 21.0138 39.7838 21.1103 39.5465 21.347L39.2709 21.622H32.4434H25.616L25.3404 21.347C25.104 21.1112 25.0647 21.0131 25.0647 20.6597C25.0647 20.2262 25.2834 19.8795 25.655 19.7246C25.7477 19.6859 28.8493 19.6615 32.5472 19.6706L39.2709 19.6871L39.5465 19.9621ZM37.8392 23.6621C37.8369 24.8738 37.4026 26.0855 36.6156 27.0753L36.2262 27.5652L35.9318 27.0753C35.1376 25.754 33.9749 25.0934 32.4434 25.0934C30.9138 25.0934 29.7491 25.7542 28.9575 27.0714L28.6654 27.5573L28.3166 27.1556C27.5528 26.2757 27.0509 24.8771 27.0478 23.62L27.0464 23.0101H32.4434H37.8405L37.8392 23.6621ZM7.86038 23.5226C7.3485 23.7906 7.11677 24.053 7.11677 24.3644C7.11677 24.6717 7.45763 25.0292 7.75067 25.0292C7.98468 25.0292 8.81102 24.5513 8.91626 24.3552C9.05877 24.0896 9.00953 23.769 8.79305 23.5532C8.53981 23.3004 8.29965 23.2926 7.86038 23.5226ZM33.5265 26.6311C34.1515 26.906 34.7178 27.5135 34.9727 28.1824C35.0424 28.3651 35.0224 28.4081 34.8191 28.5129C34.6906 28.5792 34.3289 28.7162 34.0154 28.8172C33.3279 29.0388 33.1181 29.2377 33.1181 29.6681C33.1181 30.1712 33.2648 30.3924 33.6999 30.5454C34.6471 30.8784 35.1922 31.1369 35.6376 31.4639C37.0102 32.4719 37.8348 34.1189 37.839 35.8605L37.8405 36.4704H37.0569H36.2734L36.0519 36.02C35.7122 35.329 34.9781 34.5916 34.2859 34.2462C33.9618 34.0844 33.5664 33.9277 33.4073 33.8979L33.1181 33.8437V32.6715C33.1181 31.5391 33.1111 31.4923 32.911 31.2928C32.7806 31.1626 32.6077 31.0863 32.4434 31.0863C32.2792 31.0863 32.1063 31.1626 31.9758 31.2928C31.7758 31.4923 31.7688 31.5391 31.7688 32.6715V33.8437L31.4796 33.8979C31.3205 33.9277 30.9251 34.0844 30.6009 34.2462C29.9088 34.5916 29.1747 35.329 28.8349 36.02L28.6135 36.4704H27.83H27.0464V35.773C27.0464 34.0797 27.9185 32.4184 29.3245 31.4333C29.8689 31.0521 30.1828 30.9026 31.187 30.5465C31.622 30.3922 31.7688 30.1707 31.7688 29.6681C31.7688 29.2269 31.5588 29.0392 30.7736 28.7784C29.8167 28.4604 29.7954 28.4381 30.0048 27.9736C30.3224 27.2695 31.0666 26.6532 31.8307 26.4618C32.279 26.3495 33.0646 26.4279 33.5265 26.6311ZM12.0817 27.752C11.8308 28.0023 11.5299 28.5836 11.5299 28.818C11.5299 29.0435 11.9689 29.4879 12.1916 29.4879C12.4383 29.4879 12.8134 29.1389 13.0285 28.7092C13.2699 28.2272 13.2656 28.0149 13.0095 27.7595C12.7389 27.4895 12.348 27.4863 12.0817 27.752ZM23.543 27.7595C23.2869 28.0149 23.2826 28.2272 23.5239 28.7092C23.9088 29.478 24.4081 29.6598 24.8328 29.1856C25.0845 28.9045 25.0712 28.6919 24.7687 28.1658C24.3917 27.5101 23.9423 27.3611 23.543 27.7595ZM17.9811 29.1644C17.675 29.3314 17.6016 29.5079 17.6016 30.077C17.6016 30.5202 17.6365 30.6713 17.7726 30.817C18.0887 31.1555 18.5563 31.1294 18.8427 30.7571C18.9498 30.618 18.9896 29.6863 18.8985 29.4496C18.8425 29.3042 18.441 29.0656 18.2594 29.0698C18.1991 29.0712 18.0738 29.1138 17.9811 29.1644ZM33.5646 35.4001C33.9929 35.5957 34.7203 36.2228 34.7203 36.3965C34.7203 36.4372 33.697 36.4704 32.4434 36.4704C31.1899 36.4704 30.1666 36.4372 30.1666 36.3965C30.1666 36.3557 30.3163 36.1685 30.4995 35.9802C31.3158 35.1411 32.5047 34.9161 33.5646 35.4001ZM39.5465 38.1335C39.7837 38.3702 39.8222 38.4667 39.8222 38.826C39.8222 39.1852 39.7838 39.2817 39.5465 39.5184L39.2709 39.7934H32.4434H25.616L25.3404 39.5184C25.104 39.2826 25.0647 39.1845 25.0647 38.8311C25.0647 38.3976 25.2834 38.0509 25.655 37.8959C25.7477 37.8572 28.8493 37.8329 32.5472 37.842L39.2709 37.8585L39.5465 38.1335Z" fill="#FF7400"/>
</svg>
