<svg width="66" height="66" viewBox="0 0 66 66" fill="none" xmlns="http://www.w3.org/2000/svg">
<rect width="66" height="66" rx="4" fill="#FF7400" fill-opacity="0.05"/>
<path fill-rule="evenodd" clip-rule="evenodd" d="M29.3908 12.8492C29.2516 12.8687 28.7773 12.9256 28.3367 12.9756C26.3252 13.2039 24.2155 13.8109 22.38 14.6895C18.8887 16.3607 16.3344 18.9055 14.6327 22.4078C12.1969 27.421 12.2365 33.4178 14.7383 38.4173C17.1828 43.3023 21.6735 46.5138 27.4404 47.5008C30.3564 47.9999 32.9961 47.8113 35.751 46.9069C36.3736 46.7026 36.9489 46.4758 37.0294 46.403C37.2467 46.2069 37.2963 45.8943 37.1539 45.6196C36.9263 45.1804 36.6758 45.1717 35.5734 45.5648C32.698 46.5902 29.5298 46.7417 26.5767 45.995C21.553 44.7247 17.2348 41.0941 15.2974 36.5115C14.5614 34.7705 14.1878 33.0651 14.1114 31.0982C13.9112 25.9408 15.9935 21.1784 19.8616 17.9469C27.2102 11.8079 38.1209 13.2887 43.6182 21.1713C45.0455 23.2179 46.129 26.1353 46.3524 28.5331C46.402 29.0649 46.447 29.1981 46.6435 29.3941C46.9381 29.688 47.2513 29.6928 47.5371 29.4077C47.7463 29.199 47.7538 29.16 47.7049 28.5284C47.6 27.1719 47.0258 24.9255 46.4264 23.5268C43.7281 17.2308 37.5999 13.0243 30.8665 12.846C30.194 12.8282 29.5299 12.8296 29.3908 12.8492ZM29.3486 15.5444C25.9605 15.9698 23.9193 16.676 21.6325 18.2143C20.6297 18.8889 18.8408 20.673 18.1615 21.676C16.0547 24.7867 15.1584 28.5579 15.6453 32.2629C16.0961 35.6943 17.4236 38.4315 19.7739 40.7762C21.7007 42.6984 23.7025 43.8342 26.3748 44.5216C30.1882 45.5024 33.5898 45.1861 36.8731 43.5452C37.7932 43.0854 39.1626 42.2163 39.3813 41.9534C39.574 41.7219 39.534 41.2399 39.3069 41.0564C38.9708 40.7849 38.6894 40.8579 37.8193 41.4424C35.2518 43.1669 32.0918 43.9897 29.2221 43.6808C22.8207 42.9918 18.4091 39.099 17.1076 32.9911C16.9479 32.2421 16.9187 31.839 16.9154 30.3411C16.9121 28.8295 16.9391 28.4384 17.1022 27.6325C18.2097 22.1638 21.9885 18.3658 27.4934 17.1884C29.9072 16.6722 32.1205 16.7644 34.4314 17.4774C35.4418 17.7892 37.3734 18.7683 38.2194 19.3975C41.0958 21.537 42.9399 24.4895 43.5273 27.8958C43.6236 28.4541 43.7178 28.9951 43.7366 29.0979C43.8282 29.5977 44.461 29.7844 44.8267 29.4195C45.0825 29.1644 45.0875 28.9469 44.8675 27.6635C43.9195 22.1311 39.7214 17.525 34.2695 16.0352C33.8454 15.9192 33.1813 15.7678 32.7938 15.6986C32.0882 15.5726 29.9033 15.4749 29.3486 15.5444ZM29.8086 17.7183C29.6277 17.8986 29.6016 18.0001 29.6016 18.5213C29.6016 19.0424 29.6277 19.1439 29.8086 19.3243C29.9391 19.4545 30.112 19.5308 30.2762 19.5308C30.4405 19.5308 30.6134 19.4545 30.7438 19.3243C30.9247 19.1439 30.9509 19.0424 30.9509 18.5213C30.9509 18.0001 30.9247 17.8986 30.7438 17.7183C30.6134 17.588 30.4405 17.5117 30.2762 17.5117C30.112 17.5117 29.9391 17.588 29.8086 17.7183ZM23.9817 19.1944C23.7551 19.2846 23.5297 19.5988 23.5307 19.823C23.5318 20.0573 23.9993 20.8513 24.199 20.958C24.4715 21.1035 24.7912 21.0563 25.0095 20.8385C25.2644 20.5843 25.2698 20.3708 25.0335 19.8988C24.7328 19.2981 24.3556 19.0455 23.9817 19.1944ZM36.0973 19.2185C35.8232 19.3561 35.422 19.9595 35.3628 20.3233C35.2789 20.8394 35.8682 21.217 36.3535 20.958C36.5591 20.8482 37.0207 20.0545 37.0218 19.8089C37.0227 19.5919 36.7152 19.228 36.4744 19.1609C36.3816 19.135 36.2119 19.161 36.0973 19.2185ZM29.9565 20.9898C29.7233 21.1189 28.2526 23.2951 28.2524 23.5113C28.2523 23.7052 28.4092 24.0015 28.5823 24.134C28.7863 24.2903 29.1323 24.2614 29.3794 24.0675L29.6016 23.8932V25.7882V27.6832L29.2284 27.8479C28.696 28.0829 28.1248 28.6421 27.8546 29.193C27.6628 29.5841 27.6224 29.7776 27.624 30.2985C27.6259 30.9293 27.7738 31.3676 28.2205 32.0657C28.3518 32.2711 28.334 32.3123 27.4535 33.8323C26.9577 34.6883 26.5223 35.4195 26.4862 35.457C26.4499 35.4946 26.3967 35.4078 26.3679 35.264C26.3024 34.9374 25.8536 34.7121 25.5201 34.8387C25.0782 35.0063 25.0323 35.2046 25.128 36.5358C25.1758 37.2004 25.2152 37.8311 25.2157 37.9373C25.2168 38.1958 25.5784 38.5434 25.8462 38.5434C25.9648 38.5434 26.625 38.2621 27.3132 37.9183C28.3739 37.3883 28.581 37.2532 28.6731 37.0312C28.872 36.5522 28.4295 36.0306 27.912 36.1338C27.69 36.1781 27.6679 36.1662 27.737 36.039C27.7805 35.9589 28.199 35.232 28.6667 34.4235L29.5174 32.9536L30.2131 32.9509C30.7836 32.9488 30.9934 32.9088 31.3798 32.7283C31.9784 32.4486 32.4307 31.9975 32.7116 31.3999C33.0283 30.7263 33.0217 29.7737 32.6961 29.1451C32.3971 28.5679 31.9548 28.1373 31.4008 27.8843L30.9509 27.6787V25.786V23.8932L31.1731 24.0675C31.4201 24.2614 31.7661 24.2903 31.9701 24.134C32.1433 24.0015 32.3001 23.7052 32.3 23.5113C32.2999 23.2951 30.8292 21.1189 30.596 20.9898C30.4897 20.9309 30.3458 20.8828 30.2762 20.8828C30.2067 20.8828 30.0628 20.9309 29.9565 20.9898ZM19.3463 23.7659C19.069 24.0038 19.0388 24.4061 19.2783 24.6705C19.4808 24.894 20.1775 25.2514 20.4108 25.2514C20.6559 25.2514 21.0001 24.8818 21.0001 24.6188C21.0001 24.275 20.8601 24.0935 20.3857 23.8221C19.8548 23.5183 19.6479 23.5071 19.3463 23.7659ZM40.1872 23.818C39.6872 24.1116 39.5524 24.2773 39.5524 24.5983C39.5524 24.8861 39.887 25.2514 40.1507 25.2514C40.3981 25.2514 41.024 24.9328 41.2518 24.691C41.5144 24.4121 41.4947 24.0136 41.2061 23.7659C40.906 23.5084 40.6961 23.5191 40.1872 23.818ZM31.0663 29.2333C31.6367 29.6673 31.7596 30.4598 31.3494 31.0593C30.7477 31.9385 29.4356 31.7715 29.0509 30.7668C28.579 29.5341 30.0203 28.4374 31.0663 29.2333ZM17.6653 29.8325C17.5348 29.9627 17.4583 30.1351 17.4583 30.299C17.4583 30.4629 17.5348 30.6354 17.6653 30.7655C17.8461 30.946 17.9478 30.972 18.4702 30.972C18.9926 30.972 19.0943 30.946 19.2751 30.7655C19.549 30.4923 19.549 30.1057 19.2751 29.8325C19.0943 29.6521 18.9926 29.626 18.4702 29.626C17.9478 29.626 17.8461 29.6521 17.6653 29.8325ZM37.3348 30.4194C36.1786 30.8344 35.5168 31.9604 35.7554 33.1068C35.9354 33.9719 36.66 34.7506 37.4169 34.8923L37.6971 34.9448L37.6977 35.7135C37.6994 37.9469 38.89 40.0942 40.8058 41.3196C41.1313 41.5278 41.399 41.7171 41.4005 41.7403C41.402 41.7634 41.1377 41.9506 40.8131 42.1563C38.8975 43.3701 37.6994 45.5314 37.6977 47.7764C37.6971 48.5316 37.6914 48.5545 37.5037 48.5545C37.166 48.5545 36.4095 49.0734 36.1218 49.5023C35.2202 50.8465 35.9026 52.6833 37.459 53.1013C37.6584 53.1549 40.2557 53.1771 44.6283 53.1624L51.4849 53.1394L51.832 52.9542C52.3906 52.6561 52.6835 52.3641 52.9315 51.8584C53.5584 50.5802 52.8759 48.9695 51.5585 48.6181L51.1897 48.5196L51.1891 47.7589C51.1881 46.4815 50.7805 45.1535 50.0624 44.0886C49.6176 43.4289 48.6688 42.5072 48.0347 42.1188C47.7325 41.9338 47.4842 41.7634 47.4829 41.7403C47.4816 41.7171 47.6415 41.6075 47.8383 41.4966C49.855 40.3602 51.1847 38.0346 51.1886 35.6375L51.1897 34.9609L51.5585 34.8625C52.8759 34.511 53.5584 32.9003 52.9315 31.6221C52.6835 31.1164 52.3906 30.8244 51.832 30.5263L51.4849 30.3411L44.5699 30.3227C38.9013 30.3078 37.5973 30.3251 37.3348 30.4194ZM51.5465 31.9621C51.7837 32.1989 51.8222 32.2953 51.8222 32.6546C51.8222 33.0138 51.7838 33.1103 51.5465 33.347L51.2709 33.622H44.4434H37.616L37.3404 33.347C37.104 33.1112 37.0647 33.0131 37.0647 32.6597C37.0647 32.2262 37.2834 31.8795 37.655 31.7245C37.7477 31.6859 40.8493 31.6615 44.5472 31.6706L51.2709 31.6871L51.5465 31.9621ZM49.8392 35.6621C49.8369 36.8738 49.4026 38.0855 48.6156 39.0753L48.2262 39.5652L47.9318 39.0753C47.1376 37.754 45.9749 37.0934 44.4434 37.0934C42.9138 37.0934 41.7491 37.7542 40.9575 39.0714L40.6654 39.5573L40.3166 39.1556C39.5528 38.2757 39.0509 36.8771 39.0478 35.62L39.0464 35.0101H44.4434H49.8405L49.8392 35.6621ZM19.8604 35.5226C19.3485 35.7906 19.1168 36.053 19.1168 36.3644C19.1168 36.6717 19.4576 37.0292 19.7507 37.0292C19.9847 37.0292 20.811 36.5513 20.9163 36.3552C21.0588 36.0896 21.0095 35.769 20.7931 35.5532C20.5398 35.3004 20.2996 35.2926 19.8604 35.5226ZM45.5265 38.6311C46.1515 38.906 46.7178 39.5135 46.9727 40.1824C47.0424 40.3651 47.0224 40.4081 46.8191 40.5129C46.6906 40.5792 46.3289 40.7162 46.0154 40.8172C45.3279 41.0388 45.1181 41.2377 45.1181 41.6681C45.1181 42.1712 45.2648 42.3924 45.6999 42.5454C46.6471 42.8784 47.1922 43.1369 47.6376 43.4639C49.0102 44.4719 49.8348 46.1189 49.839 47.8605L49.8405 48.4704H49.0569H48.2734L48.0519 48.02C47.7122 47.329 46.9781 46.5916 46.2859 46.2462C45.9618 46.0844 45.5664 45.9277 45.4073 45.8979L45.1181 45.8437V44.6715C45.1181 43.5391 45.1111 43.4923 44.911 43.2928C44.7806 43.1626 44.6077 43.0863 44.4434 43.0863C44.2792 43.0863 44.1063 43.1626 43.9758 43.2928C43.7758 43.4923 43.7688 43.5391 43.7688 44.6715V45.8437L43.4796 45.8979C43.3205 45.9277 42.9251 46.0844 42.6009 46.2462C41.9088 46.5916 41.1747 47.329 40.8349 48.02L40.6135 48.4704H39.83H39.0464V47.773C39.0464 46.0797 39.9185 44.4184 41.3245 43.4333C41.8689 43.0521 42.1828 42.9026 43.187 42.5465C43.622 42.3922 43.7688 42.1707 43.7688 41.6681C43.7688 41.2269 43.5588 41.0392 42.7736 40.7784C41.8167 40.4604 41.7954 40.4381 42.0048 39.9736C42.3224 39.2695 43.0666 38.6532 43.8307 38.4618C44.279 38.3495 45.0646 38.4279 45.5265 38.6311ZM24.0817 39.752C23.8308 40.0023 23.5299 40.5836 23.5299 40.818C23.5299 41.0435 23.9689 41.4879 24.1916 41.4879C24.4383 41.4879 24.8134 41.1389 25.0285 40.7092C25.2699 40.2272 25.2656 40.0149 25.0095 39.7595C24.7389 39.4895 24.348 39.4863 24.0817 39.752ZM35.543 39.7595C35.2869 40.0149 35.2826 40.2272 35.5239 40.7092C35.9088 41.478 36.4081 41.6598 36.8328 41.1856C37.0845 40.9045 37.0712 40.6919 36.7687 40.1658C36.3917 39.5101 35.9423 39.3611 35.543 39.7595ZM29.9811 41.1644C29.675 41.3314 29.6016 41.5079 29.6016 42.077C29.6016 42.5202 29.6365 42.6713 29.7726 42.817C30.0887 43.1555 30.5563 43.1294 30.8427 42.7571C30.9498 42.618 30.9896 41.6863 30.8985 41.4496C30.8425 41.3042 30.441 41.0656 30.2594 41.0698C30.1991 41.0712 30.0738 41.1138 29.9811 41.1644ZM45.5646 47.4001C45.9929 47.5957 46.7203 48.2228 46.7203 48.3965C46.7203 48.4372 45.697 48.4704 44.4434 48.4704C43.1899 48.4704 42.1666 48.4372 42.1666 48.3965C42.1666 48.3557 42.3163 48.1685 42.4995 47.9802C43.3158 47.1411 44.5047 46.9161 45.5646 47.4001ZM51.5465 50.1335C51.7837 50.3702 51.8222 50.4667 51.8222 50.826C51.8222 51.1852 51.7838 51.2817 51.5465 51.5184L51.2709 51.7934H44.4434H37.616L37.3404 51.5184C37.104 51.2826 37.0647 51.1845 37.0647 50.8311C37.0647 50.3976 37.2834 50.0509 37.655 49.8959C37.7477 49.8572 40.8493 49.8329 44.5472 49.842L51.2709 49.8585L51.5465 50.1335Z" fill="#FF7400"/>
</svg>
