<svg width="36" height="36" viewBox="0 0 36 36" fill="none" xmlns="http://www.w3.org/2000/svg">
<path d="M32.9997 10.5H2.99993C1.75955 10.5 0.75 11.5096 0.75 12.7499V15.7497C0.75 16.9905 1.75955 18.0001 2.99993 18.0001H32.9997C34.2388 18.0001 35.2495 16.9905 35.2495 15.7497V12.7499C35.2495 11.5096 34.2388 10.5 32.9997 10.5Z" fill="#CCD1D9"/>
<path d="M4.49955 14.2501H3.7503C3.33616 14.2501 3 13.9145 3 13.4998C3 13.0857 3.33616 12.75 3.7503 12.75H4.49955C4.91369 12.75 5.2493 13.0856 5.2493 13.4998C5.2493 13.9145 4.91369 14.2501 4.49955 14.2501ZM4.49955 15.7497H3.7503C3.33616 15.7497 3 15.4141 3 14.9999C3 14.5857 3.33616 14.2501 3.7503 14.2501H4.49955C4.91369 14.2501 5.2493 14.5857 5.2493 14.9999C5.2493 15.4141 4.91369 15.7497 4.49955 15.7497ZM32.2483 14.2501H31.4991C31.086 14.2501 30.7498 13.9145 30.7498 13.4998C30.7498 13.0857 31.086 12.75 31.4991 12.75H32.2483C32.6636 12.75 32.9998 13.0856 32.9998 13.4998C32.9997 13.9145 32.6636 14.2501 32.2483 14.2501ZM32.2483 15.7497H31.4991C31.086 15.7497 30.7498 15.4141 30.7498 14.9999C30.7498 14.5857 31.086 14.2501 31.4991 14.2501H32.2483C32.6636 14.2501 32.9998 14.5857 32.9998 14.9999C32.9998 15.4141 32.6636 15.7497 32.2483 15.7497Z" fill="#AAB2BC"/>
<path d="M30.5699 2.13721C29.3021 0.659035 27.2764 0.000488281 24.0004 0.000488281H11.9998C9.43027 0.000488281 7.42207 0.704668 6.03234 2.09496C4.51795 3.60886 3.75056 5.93233 3.75 8.99957V22.4996C3.75 25.936 4.6673 29.1505 6.33335 31.552C8.35252 34.4611 11.3495 35.9991 15.0001 35.9991H20.9989C25.4944 35.9991 28.2014 33.2636 29.6801 30.9674C31.574 28.0276 32.2496 24.666 32.2496 22.4995V9.00006C32.2507 5.56368 31.7476 3.51154 30.5699 2.13721Z" fill="#656D78"/>
<path opacity="0.1" d="M30.5698 2.13721C29.302 0.659035 27.2763 0.000488281 24.0003 0.000488281H22.4995C25.7755 0.000488281 27.8025 0.659035 29.0692 2.13721C30.2468 3.51154 30.7499 5.56368 30.7499 9.00006V22.4996C30.7499 24.666 30.0753 28.0277 28.1804 30.9675C26.7006 33.2636 23.9948 35.9991 19.5005 35.9991H20.9989C25.4943 35.9991 28.2014 33.2636 29.68 30.9675C31.574 28.0277 32.2496 24.666 32.2496 22.4996V9.00006C32.2507 5.56368 31.7475 3.51154 30.5698 2.13721Z" fill="white"/>
<path d="M15.0002 8.25H10.5003C10.0862 8.25 9.75 8.5856 9.75 8.99981C9.75 9.41452 10.0862 9.75012 10.5003 9.75012H15.0002C15.4144 9.75012 15.75 9.41452 15.75 8.99981C15.75 8.5856 15.4144 8.25 15.0002 8.25ZM25.4987 8.25H20.9989C20.5859 8.25 20.2498 8.5856 20.2498 8.99981C20.2498 9.41452 20.5859 9.75012 20.9989 9.75012H25.4987C25.914 9.75012 26.2502 9.41452 26.2502 8.99981C26.2502 8.5856 25.9141 8.25 25.4987 8.25Z" fill="#4A89DC"/>
<path d="M26.9996 9H9.0003C8.58609 9 8.25049 9.33616 8.25049 9.7503V18.75C8.25043 18.8484 8.26979 18.946 8.30745 19.037C8.34511 19.128 8.40034 19.2106 8.46998 19.2803C8.53962 19.3499 8.6223 19.4051 8.71329 19.4428C8.80429 19.4805 8.90182 19.4998 9.0003 19.4998H26.9996C27.4138 19.4998 27.7488 19.1647 27.7488 18.75V9.7503C27.7488 9.33616 27.4138 9 26.9996 9Z" fill="#5D9CEC"/>
<path opacity="0.1" d="M17.2498 9L14.2495 19.4998H18.7494L21.7502 9H17.2498Z" fill="white"/>
<path d="M26.9996 6.00012H9.0003C8.58609 6.00012 8.25049 5.66452 8.25049 5.2503C8.25049 4.83609 8.58609 4.5 9.0003 4.5H26.9996C27.4138 4.5 27.7488 4.83616 27.7488 5.2503C27.7488 5.66445 27.4138 6.00012 26.9996 6.00012ZM17.9999 29.2497C17.5857 29.2497 17.2502 28.9135 17.2502 28.4993V22.4999C17.2502 22.0846 17.5857 21.7496 17.9999 21.7496C18.4142 21.7496 18.7498 22.0846 18.7498 22.4999V28.4993C18.7498 28.9135 18.4142 29.2497 17.9999 29.2497ZM15.5304 31.7192C15.8231 32.0115 15.8231 32.486 15.5304 32.7793C15.2376 33.0727 14.7624 33.0727 14.4696 32.7793C14.1768 32.486 14.1768 32.0115 14.4696 31.7192C14.7624 31.4259 15.2376 31.4259 15.5304 31.7192ZM18.53 31.7192C18.8234 32.0115 18.8234 32.486 18.53 32.7793C18.4605 32.8491 18.3779 32.9044 18.2869 32.9422C18.1959 32.9799 18.0984 32.9993 17.9999 32.9993C17.9015 32.9993 17.8039 32.9799 17.713 32.9422C17.622 32.9044 17.5394 32.8491 17.4699 32.7793C17.1766 32.486 17.1766 32.0115 17.4699 31.7192C17.5394 31.6495 17.622 31.5942 17.713 31.5564C17.8039 31.5187 17.9015 31.4992 17.9999 31.4992C18.0984 31.4992 18.1959 31.5187 18.2869 31.5564C18.3779 31.5942 18.4605 31.6495 18.53 31.7192ZM21.5308 31.7192C21.823 32.0115 21.823 32.486 21.5308 32.7793C21.2364 33.0727 20.7618 33.0727 20.4696 32.7793C20.1774 32.486 20.1774 32.0115 20.4696 31.7192C20.7618 31.4259 21.2364 31.4259 21.5308 31.7192Z" fill="#434A54"/>
</svg>
