<svg width="16" height="16" viewBox="0 0 16 16" fill="none" xmlns="http://www.w3.org/2000/svg">
<path fill-rule="evenodd" clip-rule="evenodd" d="M11.073 4.40313L11.043 4.37987C10.9854 3.94193 10.7755 3.4858 10.4482 3.10096C9.9165 2.47587 9.0502 2 7.8899 2C6.74697 2 5.94087 2.52141 5.46557 3.1675C5.23037 3.4872 5.07597 3.8374 5.00017 4.1699C4.98457 4.23827 4.9721 4.30693 4.96297 4.37527L4.927 4.40313C4.5523 4.69337 4.27743 5.0453 4.34257 5.44893C4.4055 5.8389 4.75787 6.0763 5.08587 6.22147C5.16947 6.25847 5.25947 6.29303 5.35503 6.3252C5.3407 6.4371 5.33333 6.5511 5.33333 6.66667C5.33333 8.13943 6.52723 9.33333 8 9.33333C9.47277 9.33333 10.6667 8.13943 10.6667 6.66667C10.6667 6.5511 10.6593 6.4371 10.645 6.3252C10.7405 6.29303 10.8305 6.25847 10.9141 6.22147C11.2421 6.0763 11.5945 5.8389 11.6574 5.44893C11.7226 5.0453 11.4477 4.69337 11.073 4.40313ZM5.64823 4.89063C5.60493 4.766 5.59367 4.56583 5.65013 4.31807C5.70527 4.07633 5.8202 3.8115 6 3.56607V4.5C6 4.6841 6.14923 4.83333 6.33333 4.83333C6.51743 4.83333 6.66667 4.6841 6.66667 4.5V2.97025C6.94097 2.81384 7.27267 2.70501 7.66667 2.67502V3.83333C7.66667 4.01743 7.8159 4.16667 8 4.16667C8.1841 4.16667 8.33333 4.01743 8.33333 3.83333V2.69566C8.72277 2.74807 9.0558 2.86826 9.33333 3.0291V4.5C9.33333 4.6841 9.48257 4.83333 9.66667 4.83333C9.85077 4.83333 10 4.6841 10 4.5V3.60607C10.3682 4.07813 10.4546 4.5874 10.351 4.893C10.2919 5.06733 10.3853 5.2566 10.5597 5.3157C10.7018 5.3639 10.854 5.31063 10.9373 5.19477C11.003 5.28647 11.0005 5.33513 10.9993 5.34273C10.995 5.36943 10.9439 5.47927 10.6443 5.61187C10.5142 5.66943 10.3597 5.72113 10.1859 5.76663L10.178 5.76857C9.98963 5.8175 9.78 5.8589 9.55557 5.89257C9.17 5.9504 8.74073 5.98537 8.3001 5.9963C8.20053 5.99877 8.10037 6 8 6C7.80943 6 7.6196 5.99553 7.43307 5.98667C7.08553 5.97017 6.74947 5.93843 6.4414 5.8921C6.2181 5.85853 6.00953 5.81727 5.82197 5.76857L5.81413 5.76663C5.64027 5.72113 5.48577 5.66943 5.3557 5.61187C5.05613 5.47927 5.00503 5.36943 5.00073 5.34273C4.9995 5.33513 4.997 5.28647 5.06273 5.19477C5.1466 5.3114 5.30003 5.36443 5.4427 5.3149C5.6166 5.2545 5.7086 5.06453 5.64823 4.89063ZM6.00737 6.49363C6.1181 6.51533 6.2326 6.53497 6.3501 6.55253C6.70607 6.60573 7.0895 6.64 7.47943 6.65603C7.6523 6.66313 7.82643 6.66667 8 6.66667C8.17427 6.66667 8.3491 6.6631 8.52267 6.65597C8.91077 6.63993 9.29243 6.60583 9.64693 6.55297C9.76547 6.5353 9.88097 6.51553 9.99263 6.49363C9.9975 6.55063 10 6.60833 10 6.66667C10 7.77123 9.10457 8.66667 8 8.66667C6.89543 8.66667 6 7.77123 6 6.66667C6 6.60833 6.0025 6.5506 6.00737 6.49363ZM9.66667 9.49653C9.88593 9.53483 10.1094 9.57963 10.3333 9.63077C12.1478 10.045 14 10.8734 14 12V14H2V12C2 10.8734 3.85223 10.045 5.66667 9.63077C5.89067 9.57963 6.11407 9.53483 6.33333 9.49653V11H9.66667V9.49653ZM5 10.4971C5.218 10.4305 5.44157 10.3699 5.66667 10.3155V11.6667H10.3333V10.3155C10.6749 10.3979 11.0129 10.495 11.3333 10.6051V13.3333H12V10.8656C12.0964 10.9086 12.1898 10.9529 12.2795 10.9985C12.6582 11.1912 12.9392 11.3901 13.1174 11.58C13.2923 11.7664 13.3333 11.9042 13.3333 12V13.3334H2.66667V12C2.66667 11.9042 2.70773 11.7664 2.88262 11.58C3.06081 11.3901 3.34177 11.1912 3.72053 10.9985C3.9102 10.9021 4.1161 10.8113 4.33333 10.7269V13.3333H5V10.4971Z" fill="#0FAF7F"/>
</svg>
