<svg width="24" height="24" viewBox="0 0 24 24" fill="none" xmlns="http://www.w3.org/2000/svg">
<path d="M19.5445 14.4541C19.3275 14.4541 19.1194 14.5403 18.966 14.6937C18.8126 14.8472 18.7264 15.0553 18.7264 15.2722V19.3629H5.63627V15.2722C5.63627 15.0553 5.55007 14.8472 5.39664 14.6937C5.24321 14.5403 5.03512 14.4541 4.81813 14.4541C4.60115 14.4541 4.39306 14.5403 4.23963 14.6937C4.0862 14.8472 4 15.0553 4 15.2722V19.4774C4.00739 19.6848 4.05558 19.8887 4.14184 20.0775C4.22809 20.2663 4.35071 20.4362 4.50268 20.5775C4.65465 20.7188 4.83299 20.8288 5.0275 20.9012C5.22201 20.9735 5.42888 21.0068 5.63627 20.9992H18.7264C18.9338 21.0068 19.1406 20.9735 19.3352 20.9012C19.5297 20.8288 19.708 20.7188 19.86 20.5775C20.0119 20.4362 20.1346 20.2663 20.2208 20.0775C20.3071 19.8887 20.3553 19.6848 20.3627 19.4774V15.2722C20.3627 15.0553 20.2765 14.8472 20.123 14.6937C19.9696 14.5403 19.7615 14.4541 19.5445 14.4541Z" fill="#36B5EC"/>
<path d="M11.5839 15.8283C11.648 15.8866 11.7195 15.9361 11.7966 15.9756C11.9133 16.0451 12.0455 16.0845 12.1811 16.0901C12.2881 16.0888 12.3937 16.0666 12.492 16.0247L12.5902 15.9674C12.6423 15.9395 12.6916 15.9066 12.7375 15.8692L16.8281 11.4677C16.9017 11.3892 16.9592 11.2971 16.9971 11.1965C17.0351 11.0958 17.0529 10.9887 17.0495 10.8812C17.0461 10.7737 17.0215 10.668 16.9772 10.5699C16.9329 10.4719 16.8698 10.3836 16.7913 10.31C16.7129 10.2364 16.6207 10.179 16.5201 10.141C16.4195 10.103 16.3124 10.0852 16.2049 10.0887C16.0974 10.0921 15.9916 10.1166 15.8936 10.1609C15.7956 10.2052 15.7073 10.2684 15.6337 10.3468L12.9993 13.1858V3.81813C12.9993 3.60115 12.9131 3.39306 12.7597 3.23963C12.6062 3.0862 12.3981 3 12.1811 3C11.9642 3 11.7561 3.0862 11.6026 3.23963C11.4492 3.39306 11.363 3.60115 11.363 3.81813V13.1858L8.68772 10.3059C8.61413 10.2275 8.5258 10.1643 8.4278 10.12C8.32979 10.0757 8.22402 10.0512 8.11652 10.0478C8.00902 10.0443 7.9019 10.0621 7.80128 10.1001C7.70065 10.1381 7.60849 10.1955 7.53006 10.2691C7.45163 10.3427 7.38847 10.431 7.34417 10.529C7.29988 10.627 7.27532 10.7328 7.2719 10.8403C7.26848 10.9478 7.28627 11.0549 7.32425 11.1556C7.36223 11.2562 7.41965 11.3483 7.49325 11.4268L11.5839 15.8283Z" fill="#36B5EC"/>
</svg>
