<svg width="58" height="58" viewBox="0 0 58 58" fill="none" xmlns="http://www.w3.org/2000/svg">
<path d="M56.8034 54.5019V56.8019H1.69922V54.5019C1.69904 52.0238 2.46739 49.6066 3.89841 47.5835C5.32942 45.5603 7.35266 44.0307 9.68932 43.2055L22.0638 38.8331L29.2513 47.2185L36.4388 38.8331L48.8133 43.2055C51.15 44.0307 53.1732 45.5603 54.6042 47.5835C56.0352 49.6066 56.8036 52.0238 56.8034 54.5019V54.5019Z" fill="#425B72"/>
<path d="M7.59266 54.4062C6.98363 54.4031 6.40044 54.1597 5.96979 53.7291C5.53914 53.2984 5.2958 52.7153 5.29266 52.1062C5.29428 50.5009 5.61854 48.9123 6.24619 47.4347C6.87384 45.9572 7.79206 44.6209 8.9463 43.5052C6.80725 44.4387 4.98748 45.9768 3.7106 47.9305C2.43372 49.8841 1.75534 52.1682 1.7588 54.5021V56.8021H56.8031C56.8031 54.2505 56.8031 54.538 56.7072 54.4062H7.59266Z" fill="#374F68"/>
<path d="M19.6676 39.6838V47.2187C15.8942 47.2187 15.6187 47.1469 14.876 47.4344V41.3729L19.6676 39.6838Z" fill="#FFCC66"/>
<path d="M19.668 39.684V46.0209C19.2 46.0321 18.7346 45.9496 18.299 45.7782C17.8635 45.6068 17.4666 45.3501 17.1317 45.023C16.7969 44.696 16.5308 44.3053 16.3492 43.8739C16.1676 43.4425 16.0741 42.9791 16.0742 42.511V40.9538L19.668 39.684Z" fill="#FFDE76"/>
<path d="M43.6247 41.373V47.4345C42.87 47.147 42.5705 47.2189 38.833 47.2189V39.684L43.6247 41.373Z" fill="#FFCC66"/>
<path d="M43.626 41.3729V46.0208C42.6729 46.0208 41.7588 45.6422 41.0848 44.9682C40.4109 44.2943 40.0322 43.3802 40.0322 42.4271V40.1031L43.626 41.3729Z" fill="#FFDE76"/>
<path d="M36.4385 34.389V38.8333L29.251 47.2187L22.0635 38.8333V34.389C22.9628 35.4088 24.0688 36.2255 25.308 36.7849C26.5473 37.3443 27.8913 37.6336 29.251 37.6336C30.6106 37.6336 31.9547 37.3443 33.1939 36.7849C34.4331 36.2255 35.5392 35.4088 36.4385 34.389Z" fill="#EDB996"/>
<path d="M34.8576 40.6781L29.2514 47.2187C24.6274 41.8161 24.4597 41.5047 24.4597 41.6245C24.4605 41.2759 24.5513 40.9334 24.7234 40.6302C24.8954 40.3271 25.1428 40.0734 25.4416 39.8939C25.7404 39.7144 26.0805 39.615 26.4289 39.6055C26.7774 39.596 27.1224 39.6766 27.4305 39.8396C30.1378 41.2292 31.9826 41.7083 34.8576 40.6781ZM38.8347 22.0625C38.8347 27.7047 39.2779 30.4479 37.1097 33.5266C36.2798 34.7172 35.1902 35.7037 33.9234 36.4118C32.6565 37.1199 31.2453 37.5309 29.7964 37.614C28.3474 37.6971 26.8985 37.4499 25.559 36.8913C24.2195 36.3326 23.0244 35.477 22.0639 34.3891C19.0691 30.987 19.668 27.6687 19.668 22.0625H38.8347Z" fill="#F6CCAF"/>
<path d="M38.8343 24.4583C38.8343 28.1479 39.1578 30.5916 37.1093 33.5265C35.2645 34.8087 33.0279 35.4019 30.7902 35.2026C28.5525 35.0034 26.4559 34.0243 24.8666 32.4364C22.4708 30.0406 22.0635 27.4771 22.0635 24.4583H38.8343Z" fill="#FFDEC7"/>
<path d="M41.2301 26.8542H38.8343V22.0625H41.2301C41.8656 22.0625 42.4749 22.3149 42.9243 22.7642C43.3736 23.2135 43.626 23.8229 43.626 24.4583C43.626 25.0937 43.3736 25.7031 42.9243 26.1524C42.4749 26.6017 41.8656 26.8542 41.2301 26.8542ZM17.2718 26.8542H19.6676V22.0625H17.2718C16.6364 22.0625 16.027 22.3149 15.5777 22.7642C15.1284 23.2135 14.876 23.8229 14.876 24.4583C14.876 25.0937 15.1284 25.7031 15.5777 26.1524C16.027 26.6017 16.6364 26.8542 17.2718 26.8542Z" fill="#F6CCAF"/>
<path d="M41.2305 17.2706H17.2721C16.6105 17.2706 16.0742 17.807 16.0742 18.4685V20.8644C16.0742 21.526 16.6105 22.0623 17.2721 22.0623H41.2305C41.8921 22.0623 42.4284 21.526 42.4284 20.8644V18.4685C42.4284 17.807 41.8921 17.2706 41.2305 17.2706Z" fill="#FFCC66"/>
<path d="M42.4268 18.469V19.6669H20.8643C20.5466 19.6669 20.2419 19.5407 20.0172 19.316C19.7925 19.0914 19.6663 18.7867 19.6663 18.469V17.271H41.2288C41.5465 17.271 41.8512 17.3972 42.0759 17.6219C42.3005 17.8466 42.4268 18.1512 42.4268 18.469ZM41.2288 14.8752V17.271H17.2705V14.8752C17.2705 12.3335 18.2802 9.89599 20.0774 8.09876C21.8746 6.30154 24.3122 5.29187 26.8538 5.29187V11.2815H31.6455V5.29187C34.1872 5.29187 36.6247 6.30154 38.4219 8.09876C40.2192 9.89599 41.2288 12.3335 41.2288 14.8752Z" fill="#FFDE76"/>
<path d="M19.6663 12.479C19.665 10.522 20.2628 8.61161 21.3794 7.00449C20.1105 7.88763 19.074 9.06466 18.3586 10.4351C17.6431 11.8056 17.2698 13.3288 17.2705 14.8748V17.2706H41.2288V14.8748H22.0622C21.4268 14.8748 20.8174 14.6224 20.3681 14.1731C19.9188 13.7238 19.6663 13.1144 19.6663 12.479Z" fill="#FFCC66"/>
<path d="M31.6471 1.69812H26.8555V11.2815H31.6471V1.69812Z" fill="#FFCC66"/>
<path d="M31.6455 1.69812V10.0835C30.6924 10.0835 29.7783 9.70491 29.1043 9.03095C28.4304 8.35699 28.0518 7.44291 28.0518 6.48979V1.69812H31.6455Z" fill="#FFDE76"/>
<path d="M23.2601 14.8748V17.2706H20.8643V14.8748C20.8643 14.5571 20.9905 14.2524 21.2151 14.0277C21.4398 13.8031 21.7445 13.6769 22.0622 13.6769C22.3799 13.6769 22.6846 13.8031 22.9092 14.0277C23.1339 14.2524 23.2601 14.5571 23.2601 14.8748V14.8748ZM37.6351 14.8748V17.2706H35.2393V14.8748C35.2393 14.5571 35.3655 14.2524 35.5901 14.0277C35.8148 13.8031 36.1195 13.6769 36.4372 13.6769C36.7549 13.6769 37.0596 13.8031 37.2842 14.0277C37.5089 14.2524 37.6351 14.5571 37.6351 14.8748V14.8748Z" fill="#FFBA55"/>
<path d="M46.0221 50.8125V56.8021H12.4805V50.8125C12.4826 50.0711 12.7139 49.3484 13.1428 48.7437C13.5718 48.1389 14.1773 47.6816 14.8763 47.4344C15.7388 47.099 14.2294 47.2188 42.4284 47.2188C43.3815 47.2188 44.2956 47.5974 44.9696 48.2714C45.6435 48.9453 46.0221 49.8594 46.0221 50.8125Z" fill="#FFCC66"/>
<path d="M46.0215 50.8125V54.4062H22.0631C17.8465 54.4062 15.247 50.1297 16.2772 47.2187H42.4277C43.3808 47.2187 44.2949 47.5973 44.9689 48.2713C45.6428 48.9453 46.0215 49.8593 46.0215 50.8125Z" fill="#FFDE76"/>
</svg>
