<svg width="60" height="60" viewBox="0 0 60 60" fill="none" xmlns="http://www.w3.org/2000/svg">
<g clip-path="url(#clip0_6002_32004)">
<path d="M60.002 20.75V16.5C60.002 16 59.627 15.5 59.127 15.375L55.127 14.5C54.877 13.5 54.502 12.625 54.002 11.75L56.252 8.375C56.502 7.875 56.502 7.25 56.127 6.875L53.127 3.875C52.752 3.5 52.127 3.375 51.627 3.75L48.252 6C47.377 5.5 46.502 5.125 45.502 4.875L44.627 0.875C44.502 0.375 44.127 0 43.502 0H39.252C38.752 0 38.252 0.375 38.127 0.875L37.252 4.875C36.252 5.125 35.377 5.5 34.627 6L31.252 3.75C30.752 3.5 30.127 3.5 29.752 3.875L26.752 6.875C26.377 7.25 26.252 7.875 26.627 8.375L28.877 11.75C28.377 12.625 28.002 13.5 27.752 14.375L23.752 15.375C23.252 15.5 22.877 16 22.877 16.5V20.75C22.877 21.25 23.252 21.75 23.752 21.875L27.752 22.75C28.002 23.75 28.377 24.625 28.877 25.375L26.627 28.75C26.377 29.25 26.377 29.875 26.752 30.25L29.752 33.25C30.127 33.625 30.752 33.75 31.252 33.375L34.627 31.125C35.502 31.625 36.377 32 37.252 32.25L38.127 36.25C38.252 36.75 38.752 37.125 39.252 37.125H43.502C44.002 37.125 44.502 36.75 44.627 36.25L45.502 32.25C46.502 32 47.377 31.625 48.252 31.125L51.627 33.375C52.127 33.625 52.752 33.625 53.127 33.25L56.127 30.25C56.502 29.875 56.627 29.25 56.252 28.75L54.002 25.375C54.502 24.5 54.877 23.625 55.127 22.625L59.127 21.75C59.627 21.75 60.002 21.25 60.002 20.75V20.75Z" fill="#66C6B9"/>
<path d="M41.375 29.625C35.25 29.625 30.375 24.75 30.375 18.625C30.375 12.5 35.375 7.62497 41.375 7.62497C47.5 7.49997 52.5 12.5 52.5 18.625C52.5 24.75 47.5 29.625 41.375 29.625V29.625Z" fill="#F3F3F3"/>
<path d="M43.25 21.625C43 21.625 42.625 21.5 42.375 21.25L40.5 19.375C40.25 19.125 40.125 18.875 40.125 18.5V13.875C40.125 13.25 40.625 12.75 41.25 12.75C41.875 12.75 42.375 13.25 42.375 13.875V18.125L43.875 19.625C44.375 20.125 44.375 20.875 43.875 21.25C43.875 21.5 43.625 21.625 43.25 21.625Z" fill="#344A5E"/>
<path d="M41.376 11.375C41.9283 11.375 42.376 10.9273 42.376 10.375C42.376 9.82268 41.9283 9.37497 41.376 9.37497C40.8237 9.37497 40.376 9.82268 40.376 10.375C40.376 10.9273 40.8237 11.375 41.376 11.375Z" fill="#CED6E0"/>
<path d="M41.376 27.7501C41.9283 27.7501 42.376 27.3024 42.376 26.7501C42.376 26.1978 41.9283 25.7501 41.376 25.7501C40.8237 25.7501 40.376 26.1978 40.376 26.7501C40.376 27.3024 40.8237 27.7501 41.376 27.7501Z" fill="#CED6E0"/>
<path d="M47.251 13.75C47.8033 13.75 48.251 13.3023 48.251 12.75C48.251 12.1977 47.8033 11.75 47.251 11.75C46.6987 11.75 46.251 12.1977 46.251 12.75C46.251 13.3023 46.6987 13.75 47.251 13.75Z" fill="#CED6E0"/>
<path d="M35.626 25.3752C36.1783 25.3752 36.626 24.9275 36.626 24.3752C36.626 23.8229 36.1783 23.3752 35.626 23.3752C35.0737 23.3752 34.626 23.8229 34.626 24.3752C34.626 24.9275 35.0737 25.3752 35.626 25.3752Z" fill="#CED6E0"/>
<path d="M49.626 19.625C50.1783 19.625 50.626 19.1773 50.626 18.625C50.626 18.0727 50.1783 17.625 49.626 17.625C49.0737 17.625 48.626 18.0727 48.626 18.625C48.626 19.1773 49.0737 19.625 49.626 19.625Z" fill="#CED6E0"/>
<path d="M33.251 19.6251C33.8033 19.6251 34.251 19.1774 34.251 18.6251C34.251 18.0728 33.8033 17.6251 33.251 17.6251C32.6987 17.6251 32.251 18.0728 32.251 18.6251C32.251 19.1774 32.6987 19.6251 33.251 19.6251Z" fill="#CED6E0"/>
<path d="M47.25 25.3746C47.8023 25.3746 48.25 24.9269 48.25 24.3746C48.25 23.8223 47.8023 23.3746 47.25 23.3746C46.6977 23.3746 46.25 23.8223 46.25 24.3746C46.25 24.9269 46.6977 25.3746 47.25 25.3746Z" fill="#CED6E0"/>
<path d="M35.625 13.7498C36.1773 13.7498 36.625 13.3021 36.625 12.7498C36.625 12.1976 36.1773 11.7498 35.625 11.7498C35.0727 11.7498 34.625 12.1976 34.625 12.7498C34.625 13.3021 35.0727 13.7498 35.625 13.7498Z" fill="#CED6E0"/>
<path d="M46.001 60L44.501 50.375C43.876 46.5 41.001 43.5 37.126 42.875L23.251 40.375L9.00098 42.875C5.12598 43.5 2.25098 46.625 1.62598 50.375L0.000976562 60H46.001Z" fill="#344A5E"/>
<path d="M29.252 39.2499C29.252 42.6249 23.002 44.9999 23.002 44.9999C23.002 44.9999 16.752 42.6249 16.752 39.2499V26.7499H29.252V39.2499Z" fill="#F7B64C"/>
<path d="M19.126 60H25.751L30.876 45.25L29.626 44L23.001 45L15.501 44L18.126 57.75L19.126 60Z" fill="#CED6E0"/>
<path d="M24.501 49.1252L25.751 47.8752C25.751 47.8752 23.876 45.0002 22.876 45.0002C21.876 45.0002 20.001 47.8752 20.001 47.8752L21.251 49.1252H24.501ZM26.376 60.0002L24.501 49.1252H21.501L19.626 60.0002H26.376Z" fill="#F3705A"/>
<path d="M23 39.1251C28.6609 39.1251 33.25 33.1369 33.25 25.7501C33.25 18.3633 28.6609 12.3751 23 12.3751C17.3391 12.3751 12.75 18.3633 12.75 25.7501C12.75 33.1369 17.3391 39.1251 23 39.1251Z" fill="#FFD15C"/>
<path d="M10.8759 26.7499C11.0009 28.4999 12.0009 29.7499 13.1259 29.6249C14.2509 29.4999 15.0009 27.9999 14.8759 26.2499C14.7509 24.4999 13.7509 23.2499 12.6259 23.3749C11.5009 23.4999 10.7509 24.9999 10.8759 26.7499ZM35.1259 26.7499C35.0009 28.4999 34.0009 29.7499 32.8759 29.6249C31.7509 29.4999 31.0009 27.9999 31.1259 26.2499C31.2509 24.4999 32.2509 23.2499 33.3759 23.3749C34.5009 23.4999 35.2509 24.9999 35.1259 26.7499Z" fill="#FFD15C"/>
<path d="M29.0007 20.875C29.0007 20.875 31.7507 22.375 32.0007 25V26.5H32.6257C32.6257 26.5 34.1257 23.625 32.6257 20.75C31.1257 17.875 29.3757 20.75 29.3757 20.75L29.0007 20.875ZM17.0007 20.875C17.0007 20.875 14.2507 22.375 14.0007 25V26.5H13.3757C13.3757 26.5 11.8757 23.625 13.3757 20.75C14.8757 17.875 16.6257 20.75 16.6257 20.75" fill="#415A6B"/>
<path d="M34.252 21.125V20.5C34.252 14.25 29.252 9.24997 23.002 9.24997C16.752 9.24997 11.752 14.25 11.752 20.5V21.125H34.252Z" fill="#FFD15C"/>
<path d="M34.252 21.125V20.5C34.252 14.25 29.252 9.24997 23.002 9.24997C16.752 9.24997 11.752 14.25 11.752 20.5V21.125H34.252Z" fill="#F05540"/>
<path d="M34.251 22.875H11.751C10.751 22.875 10.001 22.125 10.001 21.125C10.001 20.125 10.751 19.375 11.751 19.375H34.251C35.251 19.375 36.001 20.125 36.001 21.125C36.001 22.125 35.251 22.875 34.251 22.875ZM26.876 9.74997L25.751 16.75C25.751 17 25.501 17.25 25.126 17.25H21.001C20.751 17.25 20.376 17 20.376 16.75L19.251 9.74997C19.251 9.49997 19.376 9.12497 19.626 8.99997C20.751 8.62497 21.876 8.49997 23.001 8.49997C24.251 8.49997 25.376 8.74997 26.376 8.99997C26.751 9.12497 26.876 9.49997 26.876 9.74997V9.74997Z" fill="#F3705A"/>
<path d="M29.251 38.125C27.751 41.125 25.751 43.5 23.001 45C24.376 46 25.626 47.25 26.876 48.875L31.126 40.375L29.251 38.125V38.125Z" fill="#F3F3F3"/>
<path d="M29.1279 60C31.7529 55.875 33.8779 51.5 35.1279 47L32.2529 44L35.1279 42.75L30.0029 39.125C29.0029 45.375 27.3779 52.5 25.3779 60.25H29.1279V60Z" fill="#415A6B"/>
<path d="M16.751 38.125C18.001 40.75 20.126 43 23.001 45C21.251 46 20.001 47.25 19.126 48.75L14.876 40.25L16.751 38.125V38.125Z" fill="#F3F3F3"/>
<path d="M16.877 59.9998H20.752C18.752 52.3748 17.002 45.1248 16.127 38.8748L11.002 42.4998L13.877 43.7498L11.002 46.7498C12.127 51.4998 14.252 55.8748 16.877 59.9998Z" fill="#415A6B"/>
</g>
<defs>
<clipPath id="clip0_6002_32004">
<rect width="60" height="60" fill="white"/>
</clipPath>
</defs>
</svg>
