<svg width="58" height="58" viewBox="0 0 58 58" fill="none" xmlns="http://www.w3.org/2000/svg">
<path d="M46.0364 26.3898L43.1051 23.8139C43.5709 21.7226 43.5718 19.5325 43.1051 17.4367L46.0098 14.8652L42.4075 8.59605L38.6858 9.77281C37.1194 8.33699 35.2407 7.23216 33.1616 6.57954L32.3885 2.78955H25.0867L24.3136 6.57954C22.2345 7.23216 20.3558 8.33699 18.7895 9.77281L15.1148 8.5479L11.4634 14.8689L14.3702 17.4367C13.9063 19.5195 13.9028 21.7094 14.3656 23.8146C14.3648 23.8169 14.3642 23.8188 14.3635 23.8211L11.4647 26.3794L15.1145 32.6976L18.7942 31.4731C20.3605 32.909 22.2392 34.0091 24.3136 34.6664L25.0867 38.4564H32.3885L33.1616 34.6664C35.2361 34.0091 37.1148 32.909 38.6811 31.4731L42.3914 32.6769L46.0364 26.3898ZM29.9796 28.4957C24.6045 29.3068 20.0529 24.7469 20.8678 19.372C21.376 16.0196 24.11 13.2768 27.4605 12.7558C32.8583 11.9165 37.4477 16.51 36.6012 21.9089C36.076 25.2585 33.3322 27.9899 29.9796 28.4957Z" fill="#65B9FF"/>
<path d="M37.0969 33.7111C37.0875 33.7111 37.0689 33.7111 37.0317 33.7038V50.0806H20.6455V33.7038C20.5152 33.7406 20.4406 33.7553 20.4033 33.7553C20.4965 33.7185 20.7294 33.6595 21.0461 33.5858C22.6204 33.2516 22.8441 33.4541 34.8052 33.3941C35.5668 33.3941 36.5042 33.5469 37.0969 33.7111Z" fill="#5B5E8B"/>
<path d="M32.3296 30.2362V33.1014C32.3296 35.0805 30.7197 36.683 28.7554 36.683C26.8287 36.683 25.1738 35.1378 25.1738 33.1014V30.2362H32.3296V30.2362Z" fill="#FFAF93"/>
<path d="M27.3375 35.6123L27.3597 35.6345C27.884 36.1588 28.556 36.5206 29.324 36.6314C29.1394 36.6683 28.9474 36.6831 28.7554 36.6831C26.8287 36.6831 25.1738 35.1379 25.1738 33.1015V31.3662C26.2003 32.0381 27.4335 32.4295 28.7554 32.4295C29.0803 32.4295 29.3979 32.4074 29.708 32.3631C28.0207 32.1196 26.5201 31.1901 25.6391 30.0886H32.3296V32.5034C31.2588 33.072 30.0477 33.3895 28.7554 33.3895C28.6298 33.3895 28.5117 33.3895 28.3935 33.3821C27.2046 33.3231 26.5031 34.7705 27.3375 35.6123Z" fill="#EE8778"/>
<path d="M35.308 18.1453V25.875C35.308 29.4958 32.3728 32.4311 28.7519 32.4311H28.7519C25.1311 32.4311 22.1958 29.4958 22.1958 25.875V18.1453H35.308Z" fill="#FFAF93"/>
<path d="M35.306 18.1422V25.872C35.306 26.0788 35.2986 26.2855 35.2764 26.4849C35.2543 26.7729 35.2026 27.0535 35.1361 27.3341C34.4789 30.2585 31.8721 32.4296 28.7558 32.4296C25.1347 32.4296 22.1982 29.4979 22.1982 25.872V18.1422H35.306V18.1422Z" fill="#FFAF93"/>
<path d="M36.7064 16.2334V24.4798H35.309V18.1439H22.199V24.4798H20.7637V16.2334H36.7064Z" fill="#8B4F4F"/>
<path d="M37.6139 24.1895C37.6139 25.4748 36.583 26.5055 35.2979 26.5055V21.8862C36.583 21.8862 37.6139 22.917 37.6139 24.1895Z" fill="#FFAF93"/>
<path d="M35.9166 21.979C35.7189 21.9246 35.5145 21.8862 35.2987 21.8862V26.5054C35.5145 26.5054 35.7189 26.467 35.9166 26.4126V21.979ZM24.1034 17.4661V25.8719C24.1034 29.1587 26.5338 31.9048 29.7084 32.363C29.3982 32.4073 29.0806 32.4295 28.7558 32.4295C27.4339 32.4295 26.2006 32.0381 25.1742 31.3661C23.3574 30.1781 22.1982 28.1488 22.1982 25.8719V26.507C20.9132 26.507 19.8794 25.4731 19.8794 24.1882C19.8794 23.4571 20.2191 22.8072 20.7582 22.379C21.1569 22.0688 21.6517 21.8842 22.1982 21.8842V17.4661H24.1034ZM29.2712 24.992V25.9282C29.2712 26.246 29.0139 26.5033 28.6961 26.5033C28.3782 26.5033 28.1209 26.246 28.1209 25.9282V24.992C28.1209 24.6741 28.3782 24.4168 28.6961 24.4168C29.0171 24.4168 29.2712 24.6782 29.2712 24.992Z" fill="#FFAF93"/>
<path d="M36.7061 15.8887V17.5286C33.1375 23.9484 20.7637 17.5286 20.7637 17.5286V16.3266C20.7637 15.1433 21.2016 13.9879 22.0588 13.1772C26.522 8.91906 32.0287 12.7113 32.0287 12.7113C32.0287 12.7113 34.8893 11.5094 36.231 13.8854C36.5757 14.491 36.7061 15.1899 36.7061 15.8887Z" fill="#AB604B"/>
<path d="M24.1483 11.7676C23.4431 12.0845 22.7388 12.5284 22.0588 13.1772C21.2016 13.9878 20.7637 15.1432 20.7637 16.3265V17.5285C20.7637 17.5285 22.1609 18.2519 24.1483 18.9702V11.7676Z" fill="#8B4F4F"/>
<path d="M20.4029 33.3871C17.1712 34.1333 14.8384 36.2117 14.8384 38.6787V50.0806H20.4029V33.3871Z" fill="#312E4B"/>
<path d="M37.0969 39.3318V50.0806H20.4033V39.3318H22.0114V33.4106C22.5213 33.3747 22.8005 33.3935 24.1459 33.3883V39.3318H33.3446V33.3883C34.7817 33.3995 34.1834 33.3671 35.4792 33.4106V39.3318H37.0969V39.3318Z" fill="#FCB73E"/>
<path d="M23.7398 42.0019C23.7398 42.3873 23.4254 42.7017 23.0299 42.7017C22.6445 42.7017 22.3301 42.3873 22.3301 42.0019C22.3301 41.6064 22.6445 41.292 23.0299 41.292C23.4254 41.292 23.7398 41.6064 23.7398 42.0019ZM35.1228 42.1915C35.1228 42.555 34.8262 42.8516 34.4531 42.8516C34.0895 42.8516 33.793 42.555 33.793 42.1915C33.793 41.8184 34.0895 41.5218 34.4531 41.5218C34.8262 41.5218 35.1228 41.8184 35.1228 42.1915Z" fill="#DEDDFF"/>
<path d="M37.0098 16.5418V18.2441C33.3054 24.9081 20.4609 18.2441 20.4609 18.2441V16.9964C20.4609 15.7681 20.9156 14.5687 21.8054 13.7273C26.4382 9.30713 32.1545 13.2436 32.1545 13.2436C32.1545 13.2436 35.1238 11.996 36.5165 14.4623C36.8744 15.091 37.0098 15.8164 37.0098 16.5418Z" fill="#AB604B"/>
<path d="M23.9743 12.264C23.2422 12.593 22.5112 13.0538 21.8054 13.7272C20.9156 14.5687 20.4609 15.7681 20.4609 16.9964V18.2441C20.4609 18.2441 21.9113 18.995 23.9743 19.7406V12.264V12.264Z" fill="#8B4F4F"/>
<path d="M38.7389 19.8519V19.8519C38.7389 20.5993 38.133 21.2053 37.3855 21.2053H20.0849C19.3374 21.2053 18.7314 20.5993 18.7314 19.8519V19.8519C18.7314 19.1044 19.3374 18.4984 20.0849 18.4984H37.3855C38.133 18.4984 38.7389 19.1044 38.7389 19.8519Z" fill="#E83D62"/>
<path d="M26.0096 21.2057H20.083C19.3353 21.2057 18.7305 20.5978 18.7305 19.8502C18.7305 19.1065 19.3358 18.4977 20.083 18.4977H26.0096C25.2629 18.4977 24.6571 19.106 24.6571 19.8502C24.6571 20.5978 25.262 21.2057 26.0096 21.2057Z" fill="#CE2955"/>
<path d="M37.2089 17.8067V18.4985H20.2598V17.8067C20.2598 13.1263 24.0539 9.33215 28.7343 9.33215H28.7343C33.4147 9.33215 37.2089 13.1263 37.2089 17.8067Z" fill="#E83D62"/>
<path d="M29.8913 9.41032C25.7579 9.97563 22.5727 13.5195 22.5727 17.8079V18.4979H20.2598V17.8079C20.2598 13.1274 24.0528 9.3313 28.7334 9.3313C29.1254 9.3313 29.5114 9.35866 29.8913 9.41032Z" fill="#CE2955"/>
<path d="M37.21 17.8079V18.4978H20.2598V17.8079C20.2598 17.7258 20.2598 17.6438 20.2658 17.5617H37.2039C37.21 17.6438 37.21 17.7258 37.21 17.8079ZM31.8813 9.74467L31.2585 15.4321C31.191 16.0487 30.6702 16.5155 30.05 16.5155H27.4186C26.7984 16.5155 26.2776 16.0487 26.2101 15.4321L25.5873 9.74467C25.5085 9.02516 26.072 8.39661 26.7958 8.39661H30.6728C31.3967 8.39661 31.9601 9.02516 31.8813 9.74467Z" fill="#CE2955"/>
<path d="M30.5225 11.6111C30.5225 12.5915 29.7311 13.3829 28.7506 13.3829C27.7754 13.3829 26.9839 12.5915 26.9839 11.6111C26.9839 10.6358 27.7754 9.84436 28.7506 9.84436C29.7311 9.84436 30.5225 10.6358 30.5225 11.6111Z" fill="#312E4B"/>
<path d="M29.8731 11.612C29.8731 12.2324 29.3722 12.7333 28.7518 12.7333C28.1346 12.7333 27.6338 12.2324 27.6338 11.612C27.6338 10.9949 28.1346 10.494 28.7518 10.494C29.3722 10.494 29.8731 10.9949 29.8731 11.612Z" fill="#65B9FF"/>
<path d="M29.3074 11.6128C29.3074 11.9205 29.059 12.169 28.7513 12.169C28.4452 12.169 28.1968 11.9205 28.1968 11.6128C28.1968 11.3068 28.4452 11.0583 28.7513 11.0583C29.059 11.0583 29.3074 11.3068 29.3074 11.6128Z" fill="white"/>
<path d="M42.0252 38.6682V50.0799H37.1685V33.368C39.9877 34.1132 42.0252 36.1997 42.0252 38.6682Z" fill="#312E4B"/>
</svg>
