<svg width="157" height="96" viewBox="0 0 157 96" fill="none" xmlns="http://www.w3.org/2000/svg">
<g opacity="0.2">
<path d="M101.821 64.516H145.942V41.4867C145.942 35.6126 143.595 29.9888 139.364 26.3008C128.723 17.0223 111.643 8.24447 101.821 7.9274V64.516Z" fill="#EFC41A"/>
<path d="M94.9707 0L81.3035 0V21.7777H74.4621V0L60.7949 0L60.7949 64.5154H94.9707V0Z" fill="#EFC41A"/>
<path d="M152.285 71.9361H145.938V71.9194H10.5631V71.9361H4.09248C1.43625 71.9361 0 73.7217 0 77.0593L0 90.8769C0 94.1978 1.43625 96 4.09248 96H152.27C154.926 96 156.362 94.2145 156.362 90.8769V77.0593C156.378 73.7217 154.941 71.9361 152.285 71.9361Z" fill="#EFC41A"/>
<path d="M53.9731 64.5083L53.9731 7.90295C44.352 8.13658 30.6848 16.2302 20.0136 25.1749C14.5158 29.7975 11.2111 33.936 11.0876 41.479C10.9486 49.4558 10.7323 56.5148 10.6396 64.5083H53.9731Z" fill="#EFC41A"/>
</g>
</svg>
