<svg width="33" height="33" viewBox="0 0 33 33" fill="none" xmlns="http://www.w3.org/2000/svg">
<path d="M26.518 0H6.48195C4.76274 0.000119344 3.11398 0.683178 1.89839 1.89892C0.682789 3.11465 -7.95609e-05 4.76349 6.95266e-09 6.4827V26.5173C-7.95609e-05 28.2365 0.682789 29.8853 1.89839 31.1011C3.11398 32.3168 4.76274 32.9999 6.48195 33H26.518C28.2373 32.9999 29.886 32.3168 31.1016 31.1011C32.3172 29.8853 33.0001 28.2365 33 26.5173V6.4827C33.0001 4.76349 32.3172 3.11465 31.1016 1.89892C29.886 0.683178 28.2373 0.000119344 26.518 0ZM16.5 6.09375C16.945 6.09375 17.38 6.22571 17.75 6.47294C18.12 6.72018 18.4084 7.07158 18.5787 7.48271C18.749 7.89385 18.7936 8.34625 18.7068 8.7827C18.62 9.21916 18.4057 9.62007 18.091 9.93474C17.7763 10.2494 17.3754 10.4637 16.939 10.5505C16.5025 10.6373 16.0501 10.5928 15.639 10.4225C15.2278 10.2522 14.8764 9.96379 14.6292 9.59378C14.382 9.22377 14.25 8.78876 14.25 8.34375C14.25 7.74701 14.4871 7.17472 14.909 6.75276C15.331 6.3308 15.9033 6.09375 16.5 6.09375ZM19.5938 27H13.5938C13.1959 27 12.8144 26.842 12.5331 26.5607C12.2518 26.2794 12.0938 25.8978 12.0938 25.5C12.0938 25.1022 12.2518 24.7206 12.5331 24.4393C12.8144 24.158 13.1959 24 13.5938 24H15V15H13.5938C13.1959 15 12.8144 14.842 12.5331 14.5607C12.2518 14.2794 12.0938 13.8978 12.0938 13.5C12.0938 13.1022 12.2518 12.7206 12.5331 12.4393C12.8144 12.158 13.1959 12 13.5938 12H18V24H19.5938C19.9916 24 20.3731 24.158 20.6544 24.4393C20.9357 24.7206 21.0938 25.1022 21.0938 25.5C21.0938 25.8978 20.9357 26.2794 20.6544 26.5607C20.3731 26.842 19.9916 27 19.5938 27Z" fill="#0663F6"/>
</svg>
