<svg width="34" height="40" viewBox="0 0 34 40" fill="none" xmlns="http://www.w3.org/2000/svg">
<path d="M19.3871 18.6474H14.4297V23.6047H19.3871V18.6474Z" fill="#0663F6"/>
<path d="M27.1588 18.6474H22.2014V23.6047H27.1588V18.6474Z" fill="#0663F6"/>
<path d="M11.6232 26.1826H6.66577V31.14H11.6232V26.1826Z" fill="#0663F6"/>
<path d="M19.3871 26.1826H14.4297V31.14H19.3871V26.1826Z" fill="#0663F6"/>
<path d="M27.1588 26.1826H22.2014V31.14H27.1588V26.1826Z" fill="#0663F6"/>
<path d="M9.2665 9.43427C8.04622 9.43427 7.04712 8.43517 7.04712 7.21489V2.21938C7.04712 0.999103 8.04622 0 9.2665 0C10.4868 0 11.4859 0.999103 11.4859 2.21938V7.22252C11.4859 8.43517 10.4868 9.43427 9.2665 9.43427Z" fill="#0663F6"/>
<path d="M30.2324 4.71332H27.7156V7.74113C27.7156 9.60968 26.2131 11.135 24.3751 11.135H23.4904C21.6523 11.135 20.1498 9.60968 20.1498 7.74113V4.71332H13.2553V7.74113C13.2553 9.60968 11.7528 11.135 9.91476 11.135H9.03006C7.19201 11.135 5.68955 9.60968 5.68955 7.74113V4.71332H3.75998C1.69314 4.71332 0 6.42933 0 8.52669V35.2203C0 37.3176 1.69314 39.0336 3.75998 39.0336H30.24C32.3069 39.0336 34 37.3176 34 35.2203V8.52669C33.9924 6.42933 32.2992 4.71332 30.2324 4.71332ZM29.5917 31.6205C29.5917 32.9246 28.5393 33.9924 27.258 33.9924H6.74204C5.46074 33.9924 4.40825 32.9246 4.40825 31.6205V18.1669C4.40825 16.8627 5.46074 15.7034 6.74204 15.7034H27.258C28.5393 15.7034 29.5917 16.8627 29.5917 18.1669V31.6205Z" fill="#0663F6"/>
<path d="M23.948 9.43427C22.7277 9.43427 21.7286 8.43517 21.7286 7.21489V2.21938C21.7286 0.999103 22.7277 0 23.948 0C25.1682 0 26.1673 0.999103 26.1673 2.21938V7.22252C26.1673 8.43517 25.1682 9.43427 23.948 9.43427Z" fill="#0663F6"/>
</svg>
