<svg width="50" height="50" viewBox="0 0 50 50" fill="none" xmlns="http://www.w3.org/2000/svg">
<circle cx="25" cy="25" r="25" fill="#0FAF7F" fill-opacity="0.15"/>
<path d="M26.6087 28.5687C26.4102 28.3702 26.0895 28.3702 25.8909 28.5687L23.8138 30.6458C23.5542 30.9055 22.2255 30.544 20.8458 29.1644C19.4662 27.7847 19.0996 26.456 19.3644 26.1964L21.4415 24.1193C21.5382 24.0225 21.5891 23.8953 21.5891 23.7578C21.5891 23.6204 21.5331 23.4931 21.4415 23.3964L15.4393 17.4044C15.2407 17.2058 14.92 17.2058 14.7215 17.4044L13.1738 18.952C12.0436 20.0822 11.9775 22.0931 12.9855 24.608C13.9425 26.9804 15.7549 29.5767 18.0916 31.9135C21.7622 35.584 25.7942 37.7222 28.5789 37.7222C29.5971 37.7222 30.4524 37.4371 31.0582 36.8313L32.6058 35.2836C32.7025 35.1869 32.7535 35.0596 32.7535 34.9222C32.7535 34.7847 32.6975 34.6575 32.6058 34.5607L26.6087 28.5687ZM30.3353 36.1084C28.7418 37.7018 23.7273 36.1084 18.8095 31.1905C16.5644 28.9455 14.8335 26.4713 13.9273 24.2262C13.0924 22.144 13.0822 20.4793 13.8916 19.6698L15.0778 18.4836L20.352 23.7578L18.6364 25.4735C17.6844 26.4255 18.6924 28.4567 20.1178 29.8822C21.5484 31.3127 23.5745 32.3156 24.5265 31.3636L26.2422 29.648L31.5164 34.9222L30.3353 36.1084ZM24.72 12.2778C24.44 12.2778 24.2109 12.5069 24.2109 12.7869C24.2109 13.0669 24.44 13.296 24.72 13.296C31.328 13.296 36.7091 18.672 36.7091 25.2851C36.7091 25.5651 36.9382 25.7942 37.2182 25.7942C37.4982 25.7942 37.7273 25.5651 37.7273 25.2851C37.7273 18.112 31.8931 12.2778 24.72 12.2778Z" fill="#0FAF7F"/>
<path d="M24.72 15.8465C24.44 15.8465 24.2109 16.0756 24.2109 16.3556C24.2109 16.6356 24.44 16.8647 24.72 16.8647C29.3629 16.8647 33.1353 20.6422 33.1353 25.28C33.1353 25.56 33.3644 25.7891 33.6444 25.7891C33.9244 25.7891 34.1535 25.56 34.1535 25.28C34.1585 20.0822 29.9229 15.8465 24.72 15.8465Z" fill="#0FAF7F"/>
<path d="M29.5665 25.28C29.5665 25.56 29.7956 25.7891 30.0756 25.7891C30.3556 25.7891 30.5847 25.56 30.5847 25.28C30.5847 22.0473 27.9527 19.4153 24.72 19.4153C24.44 19.4153 24.2109 19.6444 24.2109 19.9244C24.2109 20.2044 24.44 20.4335 24.72 20.4335C27.3927 20.4385 29.5665 22.6124 29.5665 25.28Z" fill="#0FAF7F"/>
</svg>
