<svg width="50" height="50" viewBox="0 0 50 50" fill="none" xmlns="http://www.w3.org/2000/svg">
<circle cx="25" cy="25" r="25" fill="#0FAF7F" fill-opacity="0.15"/>
<path d="M37 26.7756V26.5C37 19.8726 31.6274 14.5 25 14.5C18.3726 14.5 13 19.8726 13 26.5V26.7756C11.2562 27.3955 10 29.0435 10 31C10 33.4853 12.0147 35.5 14.5 35.5H35.5C37.9853 35.5 40 33.4853 40 31C40 29.0435 38.7438 27.3955 37 26.7756ZM35.5 34H14.5C12.8432 34 11.5 32.6568 11.5 31C11.5 29.3432 12.8432 28 14.5 28H18.25C18.6642 28 19 27.6642 19 27.25C19 26.8358 18.6642 26.5 18.25 26.5H14.5C14.5 22.0242 17.3056 18.2127 21.25 16.7018V23.5008C21.2503 23.9148 21.586 24.2503 22 24.25H22.0009C22.4148 24.2497 22.7503 23.914 22.75 23.5V16.2477C23.4756 16.0892 24.2269 16 25 16C25.7731 16 26.5244 16.0892 27.25 16.2477V23.5008C27.2503 23.9148 27.586 24.2503 28 24.25H28.0009C28.4148 24.2497 28.7503 23.914 28.75 23.5V16.7018C32.6944 18.2127 35.5 22.0242 35.5 26.5H31.75C31.3358 26.5 31 26.8358 31 27.25C31 27.6642 31.3358 28 31.75 28H35.5C37.1568 28 38.5 29.3432 38.5 31C38.5 32.6568 37.1568 34 35.5 34Z" fill="#0FAF7F"/>
</svg>
