<svg width="60" height="35" viewBox="0 0 60 35" fill="none" xmlns="http://www.w3.org/2000/svg">
<path d="M39.0714 22.9112H56.0017V14.7334C56.0017 12.6475 55.1009 10.6505 53.4772 9.34085C49.3943 6.04604 42.8402 2.929 39.0714 2.81641V22.9112Z" fill="#EFC41A"/>
<path d="M36.4424 0H31.1979V7.73332H28.5727V0H23.3283V22.9096H36.4424V0Z" fill="#EFC41A"/>
<path d="M58.4355 25.545H56V25.5391H4.05331V25.545H1.57038C0.551125 25.545 0 26.1791 0 27.3642V32.2709C0 33.4502 0.551125 34.0901 1.57038 34.0901H58.4296C59.4488 34.0901 60 33.4561 60 32.2709V27.3642C60.0059 26.1791 59.4548 25.545 58.4355 25.545Z" fill="#EFC41A"/>
<path d="M20.7104 22.9054V2.80469C17.0185 2.88765 11.7741 5.76173 7.67928 8.93802C5.56965 10.5795 4.30156 12.0491 4.25415 14.7276C4.20082 17.5602 4.11783 20.0669 4.08228 22.9054H20.7104Z" fill="#EFC41A"/>
</svg>
