<svg width="91" height="91" viewBox="0 0 91 91" fill="none" xmlns="http://www.w3.org/2000/svg">
<path d="M79.625 14.2188H11.375C7.4486 14.2188 4.26562 17.4017 4.26562 21.3281V69.6719C4.26562 73.5983 7.4486 76.7812 11.375 76.7812H79.625C83.5514 76.7812 86.7344 73.5983 86.7344 69.6719V21.3281C86.7344 17.4017 83.5514 14.2188 79.625 14.2188Z" fill="#383838"/>
<path d="M29.8594 54.0312H19.9062V35.5469C19.9062 35.1698 19.7564 34.8081 19.4898 34.5414C19.2231 34.2748 18.8615 34.125 18.4844 34.125C18.1073 34.125 17.7456 34.2748 17.479 34.5414C17.2123 34.8081 17.0625 35.1698 17.0625 35.5469V55.4531C17.0625 55.8302 17.2123 56.1919 17.479 56.4585C17.7456 56.7252 18.1073 56.875 18.4844 56.875H29.8594C30.2365 56.875 30.5981 56.7252 30.8648 56.4585C31.1314 56.1919 31.2812 55.8302 31.2812 55.4531C31.2812 55.076 31.1314 54.7143 30.8648 54.4477C30.5981 54.181 30.2365 54.0312 29.8594 54.0312ZM72.5156 36.9687C72.8927 36.9687 73.2544 36.8189 73.521 36.5523C73.7877 36.2856 73.9375 35.924 73.9375 35.5469C73.9375 35.1698 73.7877 34.8081 73.521 34.5414C73.2544 34.2748 72.8927 34.125 72.5156 34.125H61.1406C60.7635 34.125 60.4019 34.2748 60.1352 34.5414C59.8686 34.8081 59.7188 35.1698 59.7188 35.5469V55.4531C59.7188 55.8302 59.8686 56.1919 60.1352 56.4585C60.4019 56.7252 60.7635 56.875 61.1406 56.875H72.5156C72.8927 56.875 73.2544 56.7252 73.521 56.4585C73.7877 56.1919 73.9375 55.8302 73.9375 55.4531C73.9375 55.076 73.7877 54.7143 73.521 54.4477C73.2544 54.181 72.8927 54.0312 72.5156 54.0312H62.5625V46.9219H72.5156C72.8927 46.9219 73.2544 46.7721 73.521 46.5054C73.7877 46.2388 73.9375 45.8771 73.9375 45.5C73.9375 45.1229 73.7877 44.7612 73.521 44.4946C73.2544 44.2279 72.8927 44.0781 72.5156 44.0781H62.5625V36.9687H72.5156ZM35.5469 34.125C35.1698 34.125 34.8081 34.2748 34.5415 34.5414C34.2748 34.8081 34.125 35.1698 34.125 35.5469V55.4531C34.125 55.8302 34.2748 56.1919 34.5415 56.4585C34.8081 56.7252 35.1698 56.875 35.5469 56.875C35.924 56.875 36.2856 56.7252 36.5523 56.4585C36.8189 56.1919 36.9688 55.8302 36.9688 55.4531V35.5469C36.9688 35.1698 36.8189 34.8081 36.5523 34.5414C36.2856 34.2748 35.924 34.125 35.5469 34.125ZM55.9309 34.2075C55.5758 34.0811 55.1851 34.1009 54.8447 34.2625C54.5042 34.4241 54.2418 34.7142 54.1151 35.0691L48.3438 51.2259L42.5724 35.0691C42.5153 34.8863 42.4218 34.7169 42.2976 34.571C42.1734 34.4252 42.0211 34.306 41.8496 34.2205C41.6782 34.135 41.4913 34.085 41.3001 34.0736C41.1089 34.0621 40.9174 34.0894 40.737 34.1538C40.5566 34.2183 40.3911 34.3185 40.2504 34.4484C40.1097 34.5784 39.9967 34.7354 39.9181 34.9102C39.8396 35.0849 39.7972 35.2737 39.7935 35.4652C39.7898 35.6567 39.8248 35.847 39.8964 36.0246L47.0058 55.9309C47.1048 56.2063 47.2865 56.4445 47.526 56.6129C47.7654 56.7812 48.051 56.8716 48.3438 56.8716C48.6365 56.8716 48.9221 56.7812 49.1615 56.6129C49.401 56.4445 49.5827 56.2063 49.6817 55.9309L56.7911 36.0246C56.9179 35.6696 56.8986 35.2787 56.7372 34.9379C56.5759 34.5972 56.2859 34.3344 55.9309 34.2075Z" fill="#C7C1BF"/>
<path d="M75.3594 28.4375C76.9299 28.4375 78.2031 27.1643 78.2031 25.5938C78.2031 24.0232 76.9299 22.75 75.3594 22.75C73.7888 22.75 72.5156 24.0232 72.5156 25.5938C72.5156 27.1643 73.7888 28.4375 75.3594 28.4375Z" fill="#C7C1BF"/>
<path d="M79.625 76.7812H11.375C9.49017 76.779 7.68318 76.0292 6.35041 74.6965C5.01763 73.3637 4.26788 71.5567 4.26562 69.6719V21.3281C4.26788 19.4433 5.01763 17.6363 6.35041 16.3035C7.68318 14.9708 9.49017 14.221 11.375 14.2188H79.625C81.5098 14.221 83.3168 14.9708 84.6496 16.3035C85.9824 17.6363 86.7321 19.4433 86.7344 21.3281V69.6719C86.7321 71.5567 85.9824 73.3637 84.6496 74.6965C83.3168 76.0292 81.5098 76.779 79.625 76.7812ZM11.375 17.0625C10.2437 17.0625 9.15871 17.5119 8.35875 18.3119C7.55879 19.1118 7.10938 20.1968 7.10938 21.3281V69.6719C7.10938 70.8032 7.55879 71.8882 8.35875 72.6881C9.15871 73.4881 10.2437 73.9375 11.375 73.9375H79.625C80.7563 73.9375 81.8413 73.4881 82.6413 72.6881C83.4412 71.8882 83.8906 70.8032 83.8906 69.6719V21.3281C83.8906 20.1968 83.4412 19.1118 82.6413 18.3119C81.8413 17.5119 80.7563 17.0625 79.625 17.0625H11.375Z" fill="#EFC41A"/>
<path d="M29.8594 56.875H18.4844C18.1073 56.875 17.7456 56.7252 17.479 56.4585C17.2123 56.1919 17.0625 55.8302 17.0625 55.4531V35.5469C17.0625 35.1698 17.2123 34.8081 17.479 34.5414C17.7456 34.2748 18.1073 34.125 18.4844 34.125C18.8615 34.125 19.2231 34.2748 19.4898 34.5414C19.7564 34.8081 19.9062 35.1698 19.9062 35.5469V54.0312H29.8594C30.2365 54.0312 30.5981 54.181 30.8648 54.4477C31.1314 54.7143 31.2812 55.076 31.2812 55.4531C31.2812 55.8302 31.1314 56.1919 30.8648 56.4585C30.5981 56.7252 30.2365 56.875 29.8594 56.875ZM72.5156 56.875H61.1406C60.7635 56.875 60.4019 56.7252 60.1352 56.4585C59.8686 56.1919 59.7188 55.8302 59.7188 55.4531V35.5469C59.7188 35.1698 59.8686 34.8081 60.1352 34.5414C60.4019 34.2748 60.7635 34.125 61.1406 34.125H72.5156C72.8927 34.125 73.2544 34.2748 73.521 34.5414C73.7877 34.8081 73.9375 35.1698 73.9375 35.5469C73.9375 35.924 73.7877 36.2856 73.521 36.5523C73.2544 36.8189 72.8927 36.9687 72.5156 36.9687H62.5625V54.0312H72.5156C72.8927 54.0312 73.2544 54.181 73.521 54.4477C73.7877 54.7143 73.9375 55.076 73.9375 55.4531C73.9375 55.8302 73.7877 56.1919 73.521 56.4585C73.2544 56.7252 72.8927 56.875 72.5156 56.875ZM35.5469 56.875C35.1698 56.875 34.8081 56.7252 34.5415 56.4585C34.2748 56.1919 34.125 55.8302 34.125 55.4531V35.5469C34.125 35.1698 34.2748 34.8081 34.5415 34.5414C34.8081 34.2748 35.1698 34.125 35.5469 34.125C35.924 34.125 36.2856 34.2748 36.5523 34.5414C36.8189 34.8081 36.9688 35.1698 36.9688 35.5469V55.4531C36.9688 55.8302 36.8189 56.1919 36.5523 56.4585C36.2856 56.7252 35.924 56.875 35.5469 56.875ZM48.3438 56.875C48.0506 56.8747 47.7647 56.7839 47.5252 56.6149C47.2857 56.4459 47.1043 56.207 47.0058 55.9309L39.8964 36.0246C39.8248 35.847 39.7898 35.6567 39.7935 35.4652C39.7972 35.2737 39.8396 35.0849 39.9181 34.9102C39.9967 34.7354 40.1097 34.5784 40.2504 34.4484C40.3911 34.3185 40.5566 34.2183 40.737 34.1538C40.9174 34.0894 41.1089 34.0621 41.3001 34.0736C41.4913 34.085 41.6782 34.135 41.8496 34.2205C42.0211 34.306 42.1734 34.4252 42.2976 34.571C42.4218 34.7169 42.5153 34.8863 42.5724 35.0691L48.3438 51.2259L54.1151 35.0691C54.1722 34.8863 54.2657 34.7169 54.3899 34.571C54.5141 34.4252 54.6664 34.306 54.8379 34.2205C55.0093 34.135 55.1962 34.085 55.3874 34.0736C55.5786 34.0621 55.7701 34.0894 55.9505 34.1538C56.1309 34.2183 56.2964 34.3185 56.4371 34.4484C56.5778 34.5784 56.6908 34.7354 56.7694 34.9102C56.8479 35.0849 56.8903 35.2737 56.894 35.4652C56.8977 35.6567 56.8627 35.847 56.7911 36.0246L49.6817 55.9309C49.5832 56.207 49.4018 56.4459 49.1623 56.6149C48.9228 56.7839 48.6369 56.8747 48.3438 56.875Z" fill="#EFC41A"/>
<path d="M72.5156 46.9219H61.1406C60.7635 46.9219 60.4019 46.7721 60.1352 46.5054C59.8686 46.2388 59.7188 45.8771 59.7188 45.5C59.7188 45.1229 59.8686 44.7612 60.1352 44.4946C60.4019 44.2279 60.7635 44.0781 61.1406 44.0781H72.5156C72.8927 44.0781 73.2544 44.2279 73.521 44.4946C73.7877 44.7612 73.9375 45.1229 73.9375 45.5C73.9375 45.8771 73.7877 46.2388 73.521 46.5054C73.2544 46.7721 72.8927 46.9219 72.5156 46.9219ZM75.3594 28.4375C74.7969 28.4375 74.2471 28.2707 73.7795 27.9582C73.3118 27.6458 72.9473 27.2016 72.7321 26.682C72.5169 26.1624 72.4605 25.5906 72.5703 25.039C72.68 24.4873 72.9508 23.9806 73.3485 23.5829C73.7462 23.1852 74.253 22.9144 74.8046 22.8046C75.3562 22.6949 75.928 22.7512 76.4476 22.9665C76.9673 23.1817 77.4114 23.5462 77.7239 24.0138C78.0363 24.4815 78.2031 25.0313 78.2031 25.5938C78.2031 26.348 77.9035 27.0713 77.3702 27.6046C76.8369 28.1379 76.1136 28.4375 75.3594 28.4375Z" fill="#EFC41A"/>
</svg>
