<svg width="117" height="103" viewBox="0 0 117 103" fill="none" xmlns="http://www.w3.org/2000/svg">
<path d="M28.7767 103C19.9417 103 12.8738 99.821 7.57281 93.463C2.52427 86.8506 0 78.3309 0 67.9037C0 53.6617 3.78641 40.8185 11.3592 29.3741C19.1845 17.6753 31.0485 7.88394 46.9515 0L51.1165 6.1037C43.5437 10.6815 36.6019 17.1667 30.2913 25.5593C24.233 33.6975 21.2039 41.963 21.2039 50.3555C21.2039 52.6444 21.835 54.5518 23.0971 56.0778C24.3592 57.3494 26.2524 57.9852 28.7767 57.9852C35.0874 57.9852 40.3884 60.2741 44.6796 64.8518C49.2233 69.1753 51.4951 74.5161 51.4951 80.8741C51.4951 87.2321 49.2233 92.5728 44.6796 96.8963C40.3884 100.965 35.0874 103 28.7767 103ZM94.2815 103C85.4466 103 78.3786 99.821 73.0777 93.463C68.0291 86.8506 65.5049 78.3309 65.5049 67.9037C65.5049 53.6617 69.2913 40.8185 76.8641 29.3741C84.6893 17.6753 96.5534 7.88394 112.456 0L116.621 6.1037C109.049 10.6815 102.107 17.1667 95.7961 25.5593C89.7379 33.6975 86.7087 41.963 86.7087 50.3555C86.7087 52.6444 87.3398 54.5518 88.602 56.0778C89.8641 57.3494 91.7573 57.9852 94.2815 57.9852C100.592 57.9852 105.893 60.2741 110.184 64.8518C114.728 69.1753 117 74.5161 117 80.8741C117 87.2321 114.728 92.5728 110.184 96.8963C105.893 100.965 100.592 103 94.2815 103Z" fill="#0FAF7F"/>
</svg>
