<svg width="70" height="62" viewBox="0 0 70 62" fill="none" xmlns="http://www.w3.org/2000/svg">
<path d="M52.446 -0.000223572C57.698 -0.000224031 61.8997 1.90793 65.051 5.72425C68.0521 9.69323 69.5527 14.8071 69.5527 21.0659C69.5527 29.6144 67.3018 37.3234 62.8001 44.1928C58.1482 51.2148 51.0954 57.092 41.6417 61.8242L39.1657 58.1606C43.6675 55.4128 47.7941 51.5202 51.5456 46.4826C55.147 41.5977 56.9478 36.6365 56.9478 31.5989C56.9478 30.2251 56.5726 29.0802 55.8223 28.1643C55.072 27.401 53.9466 27.0193 52.446 27.0193C48.6945 27.0193 45.5432 25.6455 42.9922 22.8977C40.2912 20.3026 38.9406 17.0969 38.9406 13.2806C38.9406 9.46425 40.2912 6.25854 42.9922 3.66344C45.5432 1.221 48.6945 -0.000223244 52.446 -0.000223572ZM13.5056 -0.000220167C18.7577 -0.000220626 22.9593 1.90793 26.1106 5.72425C29.1117 9.69323 30.6123 14.8071 30.6123 21.0659C30.6123 29.6145 28.3615 37.3234 23.8597 44.1928C19.2078 51.2149 12.155 57.092 2.70131 61.8242L0.225334 58.1606C4.72711 55.4128 8.85374 51.5202 12.6052 46.4826C16.2066 41.5977 18.0074 36.6365 18.0074 31.5989C18.0074 30.2251 17.6322 29.0802 16.8819 28.1643C16.1316 27.401 15.0062 27.0193 13.5056 27.0193C9.7541 27.0193 6.60285 25.6455 4.05185 22.8977C1.35077 20.3026 0.00024023 17.0969 0.000239897 13.2806C0.000239563 9.46425 1.35077 6.25855 4.05184 3.66344C6.60285 1.221 9.7541 -0.000219839 13.5056 -0.000220167Z" fill="#0FAF7F"/>
</svg>
