<svg width="29" height="33" viewBox="0 0 29 33" fill="none" xmlns="http://www.w3.org/2000/svg">
<path d="M21.7936 15.7012V24.8705C21.7936 25.1746 21.6687 25.4352 21.4216 25.6552L18.6493 28.4274C18.4267 28.6473 18.1498 28.7586 17.8185 28.7586H11.2585C10.9273 28.7586 10.6503 28.6582 10.4277 28.4545L7.65547 25.6823C7.42467 25.4624 7.31063 25.199 7.31063 24.8922V15.6985H3.50391V25.4054C3.50391 26.372 3.83517 27.1838 4.49768 27.8463L7.93242 31.2811C8.61937 31.9436 9.43121 32.2748 10.368 32.2748H18.7091C19.6458 32.2748 20.4577 31.9354 21.1446 31.2539L24.5794 27.8192C25.2582 27.1594 25.6003 26.3475 25.6003 25.3837V15.6958H21.7936V15.7012Z" fill="#F7F7F7"/>
<path d="M18.7063 10.5788H26.4636V6.83186C26.4636 5.8761 26.0509 4.96109 25.3069 4.36103C23.4362 2.85137 20.4332 1.42317 18.7063 1.37158V10.5788Z" fill="#636363"/>
<path d="M17.5019 0.0825195H15.099V3.62586H13.8961V0.0825195H11.4932V10.5795H17.5019V0.0825195Z" fill="#636363"/>
<path d="M27.5786 11.7886H26.4626V11.7859H2.66115V11.7886H1.52349C1.05648 11.7886 0.803955 12.0791 0.803955 12.6222V14.8704C0.803955 15.4107 1.05648 15.7039 1.52349 15.7039H27.5759C28.0429 15.7039 28.2954 15.4134 28.2954 14.8704V12.6222C28.2981 12.0791 28.0456 11.7886 27.5786 11.7886Z" fill="#636363"/>
<path d="M10.2917 10.5789V1.3689C8.60013 1.40691 6.19717 2.72379 4.32097 4.17914C3.35435 4.93125 2.77332 5.60461 2.7516 6.83189C2.72717 8.12976 2.68914 9.27829 2.67285 10.5789H10.2917Z" fill="#636363"/>
</svg>
