<svg width="28" height="33" viewBox="0 0 28 33" fill="none" xmlns="http://www.w3.org/2000/svg">
<path d="M21.4107 15.7012V24.8705C21.4107 25.1746 21.2858 25.4352 21.0388 25.6552L18.2665 28.4274C18.0439 28.6473 17.7669 28.7586 17.4357 28.7586H10.8757C10.5445 28.7586 10.2675 28.6582 10.0449 28.4545L7.27265 25.6823C7.04186 25.4624 6.92782 25.199 6.92782 24.8922V15.6985H3.12109V25.4054C3.12109 26.372 3.45236 27.1838 4.11487 27.8463L7.54961 31.2811C8.23656 31.9436 9.0484 32.2748 9.98514 32.2748H18.3262C19.263 32.2748 20.0749 31.9354 20.7618 31.2539L24.1966 27.8192C24.8754 27.1594 25.2174 26.3475 25.2174 25.3837V15.6958H21.4107V15.7012Z" fill="white"/>
<path d="M18.3215 10.5788H26.0789V6.83186C26.0789 5.8761 25.6661 4.96109 24.9222 4.36103C23.0514 2.85137 20.0484 1.42317 18.3215 1.37158V10.5788Z" fill="#EFC41A"/>
<path d="M17.1171 0.0825195H14.7142V3.62586H13.5113V0.0825195H11.1084V10.5795H17.1171V0.0825195Z" fill="#EFC41A"/>
<path d="M27.1936 11.7886H26.0776V11.7859H2.27614V11.7886H1.13848C0.671466 11.7886 0.418945 12.0791 0.418945 12.6222V14.8704C0.418945 15.4107 0.671466 15.7039 1.13848 15.7039H27.1909C27.6579 15.7039 27.9104 15.4134 27.9104 14.8704V12.6222C27.9131 12.0791 27.6606 11.7886 27.1936 11.7886Z" fill="#EFC41A"/>
<path d="M9.90693 10.5789V1.3689C8.21536 1.40691 5.81241 2.72379 3.9362 4.17914C2.96959 4.93125 2.38856 5.60461 2.36684 6.83189C2.3424 8.12976 2.30438 9.27829 2.28809 10.5789H9.90693Z" fill="#EFC41A"/>
</svg>
