<svg width="50" height="50" viewBox="0 0 50 50" fill="none" xmlns="http://www.w3.org/2000/svg">
<circle cx="25" cy="25" r="25" fill="#0FAF7F" fill-opacity="0.15"/>
<path d="M23.4765 10.7812C23.3419 10.7812 23.2127 10.8348 23.1175 10.93C23.0222 11.0252 22.9687 11.1544 22.9687 11.2891V12.6226C20.192 13.4523 18.1242 15.9183 17.9119 18.9062H17.3828C17.2481 18.9062 17.119 18.9598 17.0237 19.055C16.9285 19.1502 16.875 19.2794 16.875 19.4141V21.4453C16.875 21.58 16.9285 21.7092 17.0237 21.8044C17.119 21.8996 17.2481 21.9531 17.3828 21.9531H17.9069C18.0003 24.1357 18.9905 26.0806 20.5109 27.3827C18.2553 28.2796 16.3188 29.8296 14.9498 31.8341C13.5807 33.8387 12.8414 36.2064 12.8267 38.6337C12.8267 38.6602 12.8125 38.6845 12.8125 38.7109C12.8125 38.8446 12.8651 38.9728 12.9591 39.0679C13.053 39.1629 13.1806 39.2171 13.3142 39.2188H36.6797C36.8144 39.2188 36.9435 39.1652 37.0388 39.07C37.134 38.9748 37.1875 38.8456 37.1875 38.7109C37.1875 33.5658 33.9923 29.1641 29.4769 27.3786C30.9861 26.0755 31.9672 24.1316 32.0637 21.9531H32.6172C32.7519 21.9531 32.881 21.8996 32.9763 21.8044C33.0715 21.7092 33.125 21.58 33.125 21.4453V19.4141C33.125 19.2794 33.0715 19.1502 32.9763 19.055C32.881 18.9598 32.7519 18.9062 32.6172 18.9062H32.088C31.8758 15.9183 29.808 13.4523 27.0312 12.6216V11.2891C27.0312 11.1544 26.9777 11.0252 26.8825 10.93C26.7873 10.8348 26.6581 10.7812 26.5234 10.7812H23.4765ZM23.9844 11.7969H26.0156V15.0601C25.6958 14.918 25.3499 14.8443 25 14.8438C24.6384 14.8438 24.2962 14.923 23.9844 15.0601V11.7969ZM27.0312 13.689C27.5797 13.884 28.0905 14.1501 28.5547 14.4842V16.4891C28.5445 17.1756 29.5805 17.1756 29.5703 16.4891V15.4074C30.4271 16.3841 30.946 17.6112 31.0501 18.9062H29.5703C28.8837 18.8961 28.8837 19.932 29.5703 19.9219H32.1094V20.9375H17.8906V19.9219H20.4297C21.1162 19.932 21.1162 18.8961 20.4297 18.9062H18.9499C19.054 17.6118 19.573 16.3854 20.4297 15.4095V16.488C20.4195 17.1746 21.4555 17.1746 21.4453 16.488V14.4883C21.9094 14.1531 22.4203 13.887 22.9687 13.692V15.8756C22.6539 16.2991 22.4609 16.8191 22.4609 17.3838C22.4609 18.7803 23.6035 19.9229 25 19.9229C26.3965 19.9229 27.539 18.7803 27.539 17.3838C27.539 16.8191 27.3461 16.2991 27.0312 15.8766V13.689V13.689ZM25 15.8594C25.847 15.8594 26.5234 16.5358 26.5234 17.3828C26.5234 18.2298 25.847 18.9062 25 18.9062C24.153 18.9062 23.4765 18.2298 23.4765 17.3828C23.4765 16.5358 24.153 15.8594 25 15.8594ZM18.9225 21.9531H31.0775C30.9109 25.3636 28.25 28.0448 25 28.0448C21.75 28.0448 19.089 25.3636 18.9225 21.9531ZM22.7148 22.6641C22.5128 22.6641 22.3191 22.7443 22.1762 22.8872C22.0334 23.03 21.9531 23.2238 21.9531 23.4258C21.9531 23.6278 22.0334 23.8215 22.1762 23.9644C22.3191 24.1072 22.5128 24.1875 22.7148 24.1875C22.9168 24.1875 23.1106 24.1072 23.2534 23.9644C23.3963 23.8215 23.4765 23.6278 23.4765 23.4258C23.4765 23.2238 23.3963 23.03 23.2534 22.8872C23.1106 22.7443 22.9168 22.6641 22.7148 22.6641ZM27.2851 22.6641C27.0831 22.6641 26.8894 22.7443 26.7465 22.8872C26.6037 23.03 26.5234 23.2238 26.5234 23.4258C26.5234 23.6278 26.6037 23.8215 26.7465 23.9644C26.8894 24.1072 27.0831 24.1875 27.2851 24.1875C27.4872 24.1875 27.6809 24.1072 27.8238 23.9644C27.9666 23.8215 28.0469 23.6278 28.0469 23.4258C28.0469 23.2238 27.9666 23.03 27.8238 22.8872C27.6809 22.7443 27.4872 22.6641 27.2851 22.6641ZM28.4694 28.0977C28.6694 28.1637 28.8675 28.2297 29.0625 28.3069V34.1406H20.9375V28.3048C21.1274 28.2307 21.3214 28.1667 21.5164 28.1017C22.5668 28.7315 23.7687 29.0639 24.9934 29.0631C26.2182 29.0624 27.4197 28.7287 28.4694 28.0977V28.0977ZM30.0781 28.768C30.4275 28.9498 30.7677 29.1468 31.0937 29.3621V34.1406H30.0781V28.768V28.768ZM19.9219 28.771V34.1406H18.9062V29.3621C19.2323 29.1468 19.5725 28.9518 19.9219 28.771V28.771ZM17.8906 30.1218V34.1406H17.3828C17.2481 34.1406 17.119 34.1941 17.0237 34.2894C16.9285 34.3846 16.875 34.5138 16.875 34.6484V38.2031H13.9134C13.9816 36.6543 14.3702 35.1365 15.0548 33.7455C15.7394 32.3545 16.705 31.1206 17.8906 30.1218ZM32.1094 30.1218C33.295 31.1206 34.2606 32.3545 34.9452 33.7455C35.6297 35.1365 36.0184 36.6543 36.0865 38.2031H33.125V34.6484L33.1169 34.6586C33.1182 34.5917 33.1063 34.5253 33.0819 34.463C33.0575 34.4008 33.021 34.3439 32.9746 34.2958C32.9282 34.2477 32.8727 34.2092 32.8114 34.1826C32.75 34.1559 32.684 34.1417 32.6172 34.1406H32.1094V30.1218ZM17.8906 35.1562H32.1094V38.2031H17.8906V35.1562Z" fill="#0FAF7F"/>
</svg>
