<svg width="22" height="20" viewBox="0 0 22 20" fill="none" xmlns="http://www.w3.org/2000/svg">
<path d="M19.9686 8.11556C19.6595 7.93532 19.3818 7.70574 19.1463 7.43586C19.1701 7.06012 19.2593 6.69147 19.41 6.34661C19.6869 5.56285 20.0001 4.67503 19.4975 3.98483C18.995 3.29462 18.0461 3.31658 17.2133 3.33567C16.8453 3.37365 16.4735 3.34847 16.114 3.26121C15.9224 2.94857 15.7856 2.60535 15.7094 2.24642C15.4734 1.43975 15.2041 0.528065 14.377 0.255037C13.5794 -0.00271659 12.8408 0.564341 12.1879 1.06266C11.9061 1.32072 11.5797 1.52488 11.2247 1.66504C10.8659 1.52602 10.5359 1.32181 10.251 1.06266C9.6 0.567205 8.86428 -0.00558045 8.06288 0.255992C7.23769 0.525201 6.96834 1.43975 6.73039 2.24642C6.65438 2.60419 6.51892 2.94659 6.3297 3.2593C5.96947 3.34632 5.59724 3.37214 5.22849 3.33567C4.39283 3.31276 3.45153 3.28794 2.94423 3.98483C2.43693 4.68171 2.75387 5.56285 3.03179 6.34566C3.1845 6.69001 3.27505 7.05881 3.29924 7.4349C3.06423 7.70514 2.78678 7.93505 2.47786 8.11556C1.78116 8.59288 0.990234 9.13608 0.990234 10.0182C0.990234 10.9003 1.78116 11.4415 2.47786 11.9208C2.78671 12.101 3.06415 12.3306 3.29924 12.6005C3.27759 12.9764 3.18962 13.3455 3.03941 13.6907C2.76339 14.4735 2.45121 15.3613 2.9528 16.0515C3.45438 16.7417 4.40045 16.7198 5.23706 16.7007C5.60536 16.6627 5.97743 16.6878 6.33731 16.7751C6.52803 17.0881 6.66448 17.4312 6.74086 17.7899C6.9769 18.5966 7.24626 19.5083 8.07335 19.7813C8.20595 19.8239 8.34431 19.8458 8.48356 19.8462C9.15286 19.7499 9.77492 19.4446 10.2615 18.9737C10.5432 18.7156 10.8697 18.5115 11.2247 18.3713C11.5834 18.5103 11.9135 18.7145 12.1983 18.9737C12.8503 19.4729 13.5889 20.0429 14.3874 19.7803C15.2126 19.5111 15.482 18.5966 15.7199 17.7909C15.7962 17.4324 15.9327 17.0896 16.1235 16.777C16.4823 16.6894 16.8534 16.6636 17.2209 16.7007C18.0565 16.7207 18.9978 16.7484 19.5051 16.0515C20.0124 15.3546 19.6955 14.4735 19.4176 13.6897C19.2659 13.3457 19.1754 12.9777 19.1501 12.6024C19.3853 12.3319 19.6631 12.102 19.9724 11.9217C20.6691 11.4444 21.4601 10.9003 21.4601 10.0182C21.4601 9.13608 20.6663 8.59384 19.9686 8.11556V8.11556Z" fill="#EFC41A"/>
<path d="M10.2729 12.6436C10.1792 12.6437 10.0863 12.6253 9.99973 12.5892C9.91314 12.5532 9.83454 12.5002 9.76848 12.4335L7.86493 10.5242C7.73883 10.3885 7.67019 10.209 7.67345 10.0235C7.67671 9.83802 7.75163 9.66105 7.88242 9.52987C8.0132 9.39869 8.18965 9.32355 8.37458 9.32027C8.55951 9.317 8.73849 9.38585 8.87381 9.51232L10.3395 10.9825L13.6517 8.49086C13.8032 8.37692 13.9936 8.328 14.181 8.35486C14.3684 8.38171 14.5375 8.48214 14.6511 8.63405C14.7647 8.78596 14.8135 8.97691 14.7867 9.1649C14.7599 9.35288 14.6598 9.52249 14.5083 9.63643L10.7012 12.5004C10.5776 12.5932 10.4274 12.6435 10.2729 12.6436V12.6436Z" fill="black"/>
</svg>
